<svg xmlns="http://www.w3.org/2000/svg" version="1.1" xmlns:xlink="http://www.w3.org/1999/xlink" xmlns:svgjs="http://svgjs.dev/svgjs" width="1440" height="560" preserveAspectRatio="none" viewBox="0 0 1440 560"><g mask="url(&quot;#SvgjsMask1014&quot;)" fill="none"><path d="M720 699.15C825.43 687.86 912.64 622.41 983.43 543.43 1049.66 469.55 1089.99 379.04 1095.67 280 1101.75 174.06 1086.49 63.39 1015.53-15.53 941.41-97.94 830.81-135.34 720-137.86 606.47-140.41 491.83-108.76 410.8-29.2 329.14 51.01 297.55 165.56 294.42 280 291.19 398.22 309.11 523.64 393.36 606.64 477.17 689.19 603.04 711.7 720 699.15" fill="#1c538e"></path><path d="M720 551.22C788.22 543.91 844.65 501.56 890.46 450.46 933.31 402.65 959.4 344.09 963.08 280 967.02 211.45 957.14 139.84 911.22 88.78 863.26 35.45 791.7 11.25 720 9.62 646.54 7.97 572.36 28.45 519.93 79.93 467.09 131.83 446.65 205.95 444.63 280 442.54 356.49 454.13 437.65 508.65 491.35 562.88 544.77 644.32 559.33 720 551.22" fill="#2774c6"></path><path d="M720 403.28C751.01 399.96 776.66 380.71 797.48 357.48 816.96 335.75 828.82 309.13 830.49 280 832.28 248.84 827.79 216.29 806.92 193.08 785.12 168.84 752.59 157.84 720 157.1 686.61 156.35 652.89 165.66 629.06 189.06 605.04 212.65 595.75 246.34 594.83 280 593.88 314.77 599.15 351.66 623.93 376.07 648.58 400.35 685.6 406.97 720 403.28" fill="#488fdb"></path></g><defs><mask id="SvgjsMask1014"><rect width="1440" height="560" fill="#ffffff"></rect></mask></defs></svg>