<svg xmlns="http://www.w3.org/2000/svg" version="1.1" xmlns:xlink="http://www.w3.org/1999/xlink" xmlns:svgjs="http://svgjs.dev/svgjs" width="1440" height="560" preserveAspectRatio="none" viewBox="0 0 1440 560"><g mask="url(&quot;#SvgjsMask1007&quot;)" fill="none"><rect width="1440" height="560" x="0" y="0" fill="url(&quot;#SvgjsLinearGradient1008&quot;)"></rect><path d="M720 709.25C839.71 716.66 973.13 702.42 1052.28 612.28 1128.95 525 1101.99 396.08 1096.96 280 1092.23 171.61 1101.28 52.13 1024.61-24.61 947.9-101.38 828.26-104.81 720-97.3 620.48-90.4 531.91-48.51 454.97 14.97 367.42 87.19 268.34 166.64 262.56 280 256.65 396.35 341.61 493.76 426.55 573.45 508.25 650.12 608.14 702.31 720 709.25" fill="#1c538e"></path><path d="M720 557.75C797.46 562.55 883.79 553.33 935.01 495.01 984.62 438.53 967.17 355.11 963.91 280 960.86 209.86 966.71 132.56 917.1 82.9 867.47 33.23 790.05 31 720 35.87 655.61 40.33 598.3 67.44 548.51 108.51 491.86 155.24 427.75 206.65 424.01 280 420.18 355.28 475.16 418.31 530.12 469.88 582.98 519.49 647.62 553.26 720 557.75" fill="#2774c6"></path><path d="M720 406.25C755.21 408.43 794.45 404.24 817.73 377.73 840.28 352.06 832.35 314.14 830.87 280 829.48 248.12 832.14 212.98 809.59 190.41 787.03 167.83 751.84 166.82 720 169.03 690.73 171.06 664.68 183.38 642.05 202.05 616.3 223.29 587.16 246.66 585.46 280 583.72 314.22 608.71 342.87 633.69 366.31 657.72 388.86 687.1 404.21 720 406.25" fill="#488fdb"></path></g><defs><mask id="SvgjsMask1007"><rect width="1440" height="560" fill="#ffffff"></rect></mask><linearGradient x1="15.28%" y1="-39.29%" x2="84.72%" y2="139.29%" gradientUnits="userSpaceOnUse" id="SvgjsLinearGradient1008"><stop stop-color="#0e2a47" offset="0"></stop><stop stop-color="#00459e" offset="1"></stop></linearGradient></defs></svg>