<svg xmlns="http://www.w3.org/2000/svg" version="1.1" xmlns:xlink="http://www.w3.org/1999/xlink" xmlns:svgjs="http://svgjs.dev/svgjs" width="1440" height="560" preserveAspectRatio="none" viewBox="0 0 1440 560"><g mask="url(&quot;#SvgjsMask1017&quot;)" fill="none"><path d="M720 723.87C837.44 729.68 956.64 682.39 1033 593 1105.02 508.72 1105.87 390.67 1099.2 280 1093.05 177.76 1064.39 80.08 997.37 2.63 924.68-81.39 830.64-147.89 720-158.23 599.13-169.51 470.34-141.29 385.44-54.56 301.19 31.53 281.06 159.95 290.99 280 300.1 390.06 359.8 484.07 436.54 563.46 514.98 644.58 607.29 718.29 720 723.87" fill="#1c538e"></path><path d="M720 567.21C795.99 570.97 873.12 540.37 922.53 482.53 969.13 427.99 969.68 351.61 965.37 280 961.38 213.85 942.84 150.64 899.48 100.52 852.44 46.16 791.59 3.13 720-3.56 641.79-10.86 558.45 7.4 503.52 63.52 449 119.22 435.98 202.32 442.4 280 448.3 351.21 486.93 412.04 536.59 463.41 587.34 515.91 647.07 563.6 720 567.21" fill="#2774c6"></path><path d="M720 410.55C754.54 412.26 789.6 398.35 812.06 372.06 833.24 347.27 833.49 312.55 831.53 280 829.72 249.93 821.29 221.2 801.58 198.42 780.2 173.71 752.54 154.15 720 151.11 684.45 147.79 646.57 156.09 621.6 181.6 596.82 206.92 590.9 244.69 593.82 280 596.5 312.37 614.06 340.02 636.63 363.37 659.7 387.23 686.85 408.91 720 410.55" fill="#488fdb"></path></g><defs><mask id="SvgjsMask1017"><rect width="1440" height="560" fill="#ffffff"></rect></mask></defs></svg>