<svg xmlns="http://www.w3.org/2000/svg" version="1.1" xmlns:xlink="http://www.w3.org/1999/xlink" xmlns:svgjs="http://svgjs.dev/svgjs" width="1440" height="560" preserveAspectRatio="none" viewBox="0 0 1440 560"><g mask="url(&quot;#SvgjsMask1023&quot;)" fill="none"><path d="M720 659.34C831.93 663.18 957.46 675.83 1037.15 597.15 1117.09 518.24 1100.94 392.3 1104.17 280 1107.57 162.39 1136.5 29.79 1056.02-56.02 974.46-142.96 838.76-140 720-129.56 613.21-120.18 517.94-73.46 438.24-1.76 352.97 74.95 267.46 165.35 264.64 280 261.75 396.48 334.41 501.51 423.93 576.07 505.83 644.31 613.48 655.67 720 659.34" fill="#1c538e"></path><path d="M720 525.45C792.42 527.94 873.65 536.12 925.22 485.22 976.94 434.15 966.49 352.67 968.58 280 970.78 203.9 989.5 118.1 937.43 62.57 884.65 6.32 796.85 8.23 720 14.99 650.9 21.06 589.25 51.29 537.69 97.69 482.51 147.32 427.18 205.82 425.35 280 423.48 355.37 470.5 423.33 528.42 471.58 581.42 515.73 651.07 523.08 720 525.45" fill="#2774c6"></path><path d="M720 391.57C752.92 392.7 789.84 396.42 813.28 373.28 836.79 350.07 832.04 313.03 832.99 280 833.99 245.41 842.5 206.41 818.83 181.17 794.84 155.6 754.93 156.47 720 159.54 688.59 162.3 660.57 176.04 637.13 197.13 612.05 219.69 586.9 246.28 586.07 280 585.22 314.26 606.59 345.15 632.92 367.08 657.01 387.15 688.67 390.49 720 391.57" fill="#488fdb"></path></g><defs><mask id="SvgjsMask1023"><rect width="1440" height="560" fill="#ffffff"></rect></mask></defs></svg>