<svg xmlns="http://www.w3.org/2000/svg" version="1.1" xmlns:xlink="http://www.w3.org/1999/xlink" xmlns:svgjs="http://svgjs.dev/svgjs" width="1440" height="560" preserveAspectRatio="none" viewBox="0 0 1440 560"><g mask="url(&quot;#SvgjsMask1021&quot;)" fill="none"><path d="M720 680.21C823.33 670.42 917.54 624.28 989.55 549.55 1060.1 476.32 1094.61 381.08 1105.66 280 1118.45 163.07 1137.11 29.18 1055.68-55.68 973.57-141.23 838.32-129.16 720-121.81 611.2-115.05 502.37-91.72 423.62-16.38 343.21 60.56 305.34 168.85 300.07 280 294.49 397.44 308.91 524.87 394.01 605.99 477.85 685.93 604.67 691.13 720 680.21" fill="#1c538e"></path><path d="M720 538.96C786.86 532.63 847.82 502.77 894.42 454.42 940.07 407.03 962.4 345.41 969.55 280 977.82 204.34 989.9 117.71 937.21 62.79 884.08 7.44 796.56 15.25 720 20 649.6 24.38 579.18 39.47 528.23 88.23 476.2 138.01 451.69 208.08 448.28 280 444.67 355.99 454 438.44 509.06 490.94 563.32 542.66 645.38 546.02 720 538.96" fill="#2774c6"></path><path d="M720 397.71C750.39 394.83 778.1 381.26 799.28 359.28 820.03 337.74 830.18 309.73 833.43 280 837.19 245.61 842.68 206.23 818.73 181.27 794.58 156.11 754.8 159.66 720 161.82 688 163.81 655.99 170.67 632.83 192.83 609.18 215.46 598.04 247.31 596.49 280 594.85 314.54 599.09 352.02 624.12 375.88 648.78 399.39 686.08 400.92 720 397.71" fill="#488fdb"></path></g><defs><mask id="SvgjsMask1021"><rect width="1440" height="560" fill="#ffffff"></rect></mask></defs></svg>