<svg xmlns="http://www.w3.org/2000/svg" version="1.1" xmlns:xlink="http://www.w3.org/1999/xlink" xmlns:svgjs="http://svgjs.dev/svgjs" width="1440" height="560" preserveAspectRatio="none" viewBox="0 0 1440 560"><g mask="url(&quot;#SvgjsMask1022&quot;)" fill="none"><path d="M720 725.88C835.43 723.73 944.84 667.53 1019.13 579.13 1087.91 497.29 1100.87 386.73 1094.75 280 1089.04 180.48 1053.78 87.05 986.63 13.37 915.84-64.35 824.89-124.12 720-131.3 608.17-138.95 490.87-107.57 414.14-25.86 339.13 54 334.61 170.42 333.79 280 332.98 390.7 337.13 506.71 409.61 590.39 486.45 679.09 602.67 728.05 720 725.88" fill="#1c538e"></path><path d="M720 568.51C794.69 567.12 865.49 530.76 913.56 473.56 958.06 420.6 966.44 349.06 962.48 280 958.79 215.61 935.97 155.15 892.52 107.48 846.72 57.18 787.87 18.51 720 13.87 647.64 8.92 571.74 29.22 522.09 82.09 473.56 133.77 470.63 209.09 470.1 280 469.57 351.63 472.26 426.7 519.16 480.84 568.88 538.24 644.08 569.92 720 568.51" fill="#2774c6"></path><path d="M720 411.14C753.95 410.51 786.13 393.98 807.98 367.98 828.21 343.91 832.02 311.39 830.22 280 828.54 250.73 818.17 223.25 798.42 201.58 777.6 178.72 750.85 161.14 720 159.03 687.11 156.78 652.61 166.01 630.04 190.04 607.98 213.53 606.65 247.77 606.41 280 606.17 312.56 607.39 346.68 628.71 371.29 651.31 397.38 685.49 411.78 720 411.14" fill="#488fdb"></path></g><defs><mask id="SvgjsMask1022"><rect width="1440" height="560" fill="#ffffff"></rect></mask></defs></svg>