<svg xmlns="http://www.w3.org/2000/svg" version="1.1" xmlns:xlink="http://www.w3.org/1999/xlink" xmlns:svgjs="http://svgjs.dev/svgjs" width="1440" height="560" preserveAspectRatio="none" viewBox="0 0 1440 560"><g mask="url(&quot;#SvgjsMask1011&quot;)" fill="none"><path d="M720 665.7C824.62 665.9 924.14 631.53 1004.38 564.38 1093.35 489.92 1175.19 395.87 1180.97 280 1186.96 159.98 1123.61 46.08 1034.19-34.19 949.19-110.49 833.76-143.88 720-133.75 615.38-124.43 532.93-55.58 457.11 17.11 378.98 92.01 292.52 171.85 288.47 280 284.32 390.74 354.06 489.47 436.68 563.32 514.5 632.89 615.62 665.49 720 665.7" fill="#1c538e"></path><path d="M720 529.57C787.69 529.7 852.09 507.46 904.01 464.01 961.58 415.83 1014.54 354.98 1018.28 280 1022.15 202.34 981.16 128.64 923.3 76.7 868.3 27.33 793.61 5.73 720 12.28 652.31 18.31 598.96 62.86 549.9 109.9 499.34 158.36 443.39 210.02 440.78 280 438.09 351.65 483.21 415.54 536.67 463.33 587.03 508.34 652.46 529.44 720 529.57" fill="#2774c6"></path><path d="M720 393.44C750.77 393.5 780.04 383.39 803.64 363.64 829.81 341.74 853.88 314.08 855.58 280 857.34 244.7 838.71 211.2 812.41 187.59 787.41 165.15 753.46 155.33 720 158.31 689.23 161.05 664.98 181.3 642.68 202.68 619.7 224.71 594.27 248.19 593.08 280 591.86 312.57 612.37 341.61 636.67 363.33 659.56 383.79 689.3 393.38 720 393.44" fill="#488fdb"></path></g><defs><mask id="SvgjsMask1011"><rect width="1440" height="560" fill="#ffffff"></rect></mask></defs></svg>