<svg xmlns="http://www.w3.org/2000/svg" version="1.1" xmlns:xlink="http://www.w3.org/1999/xlink" xmlns:svgjs="http://svgjs.dev/svgjs" width="1440" height="560" preserveAspectRatio="none" viewBox="0 0 1440 560"><g mask="url(&quot;#SvgjsMask1018&quot;)" fill="none"><path d="M720 703.67C837.13 707.45 965.21 690.62 1042.8 602.8 1117.8 517.9 1095.77 393.29 1094.34 280 1092.95 168.99 1108.55 48.15 1034.81-34.81 958.31-120.86 834.61-152 720-141.09 614.5-131.03 537.56-52.25 459.97 19.97 377.93 96.33 276.03 168.21 267.56 280 258.76 396.65 332.03 502.6 417.43 582.57 499.88 659.78 607.12 700.04 720 703.67" fill="#1c538e"></path><path d="M720 554.14C795.79 556.58 878.66 545.69 928.87 488.87 977.4 433.93 963.14 353.3 962.22 280 961.32 208.17 971.42 129.98 923.7 76.3 874.2 20.62 794.16 0.47 720 7.53 651.73 14.04 601.95 65.02 551.74 111.74 498.66 161.16 432.72 207.66 427.25 280 421.55 355.48 468.96 424.03 524.22 475.78 577.57 525.74 646.96 551.79 720 554.14" fill="#2774c6"></path><path d="M720 404.61C754.45 405.72 792.12 400.77 814.94 374.94 837 349.97 830.52 313.32 830.1 280 829.69 247.35 834.28 211.81 812.59 187.41 790.09 162.1 753.71 152.94 720 156.15 688.97 159.11 666.34 182.28 643.52 203.52 619.39 225.98 589.42 247.12 586.93 280 584.34 314.31 605.89 345.47 631.01 368.99 655.26 391.7 686.8 403.54 720 404.61" fill="#488fdb"></path></g><defs><mask id="SvgjsMask1018"><rect width="1440" height="560" fill="#ffffff"></rect></mask></defs></svg>