<svg xmlns="http://www.w3.org/2000/svg" version="1.1" xmlns:xlink="http://www.w3.org/1999/xlink" xmlns:svgjs="http://svgjs.dev/svgjs" width="1440" height="560" preserveAspectRatio="none" viewBox="0 0 1440 560"><g mask="url(&quot;#SvgjsMask1013&quot;)" fill="none"><path d="M720 679.4C829.62 683.38 938.11 652.88 1020.83 580.83 1109.61 503.52 1174.92 397.64 1178.63 280 1182.43 159.16 1132.62 37.75 1040.31-40.31 953.72-113.55 833.42-106.95 720-107.84 605.22-108.72 477.38-124.91 394.72-45.28 311.29 35.1 308.77 164.5 317.44 280 325.36 385.57 365.04 485.22 440.21 559.79 515.05 634.04 614.63 675.59 720 679.4" fill="#1c538e"></path><path d="M720 538.43C790.93 541.01 861.13 521.27 914.66 474.66 972.1 424.63 1014.36 356.12 1016.76 280 1019.22 201.81 986.99 123.25 927.26 72.74 871.23 25.35 793.39 29.62 720 29.05 645.73 28.47 563.01 18 509.53 69.53 455.54 121.53 453.91 205.27 459.52 280 464.65 348.31 490.32 412.79 538.96 461.04 587.38 509.09 651.82 535.97 720 538.43" fill="#2774c6"></path><path d="M720 397.47C752.24 398.64 784.15 389.67 808.48 368.48 834.59 345.74 853.8 314.6 854.89 280 856.01 244.46 841.36 208.75 814.21 185.79 788.74 164.25 753.36 166.19 720 165.93 686.24 165.67 648.64 160.91 624.33 184.33 599.79 207.97 599.05 246.03 601.6 280 603.93 311.05 615.6 340.36 637.71 362.29 659.72 384.13 689.01 396.35 720 397.47" fill="#488fdb"></path></g><defs><mask id="SvgjsMask1013"><rect width="1440" height="560" fill="#ffffff"></rect></mask></defs></svg>