<svg xmlns="http://www.w3.org/2000/svg" version="1.1" xmlns:xlink="http://www.w3.org/1999/xlink" xmlns:svgjs="http://svgjs.dev/svgjs" width="1440" height="560" preserveAspectRatio="none" viewBox="0 0 1440 560"><g mask="url(&quot;#SvgjsMask1015&quot;)" fill="none"><path d="M720 739.92C835.23 743.76 926.14 648.49 999.75 559.75 1065.61 480.36 1104.64 383.12 1101.51 280 1098.49 180.04 1049.12 91.98 983.26 16.74 911.42-65.37 828.8-147.92 720-155.98 605.22-164.48 498.86-103.79 414.58-25.42 326.65 56.31 241.72 160.29 250.97 280 259.88 395.36 375.75 460.61 458.37 541.63 539.6 621.29 606.3 736.11 720 739.92" fill="#1c538e"></path><path d="M720 577.59C794.56 580.08 853.39 518.44 901.02 461.02 943.63 409.65 968.89 346.73 966.86 280 964.9 215.32 932.96 158.34 890.35 109.65 843.86 56.52 790.4 3.11 720-2.11 645.73-7.61 576.91 31.66 522.37 82.37 465.48 135.26 410.53 202.54 416.51 280 422.27 354.65 497.25 396.86 550.71 449.29 603.27 500.84 646.43 575.13 720 577.59" fill="#2774c6"></path><path d="M720 415.27C753.89 416.4 780.63 388.38 802.28 362.28 821.65 338.93 833.13 310.33 832.21 280 831.32 250.6 816.8 224.7 797.43 202.57 776.3 178.42 752 154.14 720 151.77 686.24 149.27 654.96 167.12 630.17 190.17 604.31 214.21 579.33 244.79 582.05 280 584.67 313.93 618.75 333.12 643.05 356.95 666.94 380.38 686.56 414.15 720 415.27" fill="#488fdb"></path></g><defs><mask id="SvgjsMask1015"><rect width="1440" height="560" fill="#ffffff"></rect></mask></defs></svg>