<svg xmlns="http://www.w3.org/2000/svg" version="1.1" xmlns:xlink="http://www.w3.org/1999/xlink" xmlns:svgjs="http://svgjs.dev/svgjs" width="1440" height="560" preserveAspectRatio="none" viewBox="0 0 1440 560"><g mask="url(&quot;#SvgjsMask1020&quot;)" fill="none"><path d="M720 663.93C819.86 655.22 904.59 605.55 982.51 542.51 1073.5 468.94 1194.5 396.99 1194.78 280 1195.05 162.94 1075.54 88.92 983.81 16.19 905.91-45.58 819.28-91.48 720-96.45 614.91-101.72 509.81-78.26 428.42-11.58 338.21 62.3 264.47 163.45 260.42 280 256.24 399.65 315.5 515.89 407.37 592.63 492.64 663.86 609.3 673.58 720 663.93" fill="#1c538e"></path><path d="M720 528.42C784.61 522.79 839.44 490.65 889.86 449.86 948.73 402.25 1027.03 355.7 1027.21 280 1027.38 204.25 950.05 156.36 890.7 109.3 840.3 69.33 784.24 39.63 720 36.42 652 33.01 584 48.19 531.33 91.33 472.96 139.13 425.24 204.58 422.63 280 419.92 357.42 458.27 432.64 517.71 482.29 572.89 528.38 648.37 534.67 720 528.42" fill="#2774c6"></path><path d="M720 392.92C749.37 390.36 774.29 375.75 797.21 357.21 823.97 335.57 859.56 314.41 859.64 280 859.72 245.57 824.57 223.8 797.59 202.41 774.68 184.24 749.2 170.74 720 169.28 689.09 167.73 658.18 174.63 634.24 194.24 607.71 215.97 586.02 245.72 584.83 280 583.6 315.19 601.03 349.38 628.05 371.95 653.13 392.9 687.44 395.76 720 392.92" fill="#488fdb"></path></g><defs><mask id="SvgjsMask1020"><rect width="1440" height="560" fill="#ffffff"></rect></mask></defs></svg>