<svg xmlns="http://www.w3.org/2000/svg" version="1.1" xmlns:xlink="http://www.w3.org/1999/xlink" xmlns:svgjs="http://svgjs.dev/svgjs" width="1440" height="560" preserveAspectRatio="none" viewBox="0 0 1440 560"><g mask="url(&quot;#SvgjsMask1012&quot;)" fill="none"><path d="M720 755.08C837.1 747.13 913.66 638.8 987.89 547.89 1052.21 469.11 1097.43 381.18 1107.97 280 1119.98 164.47 1128.92 35.2 1050.07-50.07 969.59-137.08 837.95-151.15 720-139.56 613.41-129.09 520.9-70.37 448.95 8.95 380.88 83.99 345.69 178.88 339.44 280 332.67 389.17 344.74 501.51 413.12 586.88 488.94 681.54 598.99 763.28 720 755.08" fill="#1c538e"></path><path d="M720 587.41C795.77 582.26 845.31 512.17 893.34 453.34 934.96 402.36 964.22 345.47 971.04 280 978.81 205.24 984.59 121.6 933.58 66.42 881.5 10.13 796.32 1.02 720 8.52 651.03 15.3 591.17 53.29 544.62 104.62 500.57 153.17 477.8 214.57 473.75 280 469.38 350.64 477.19 423.33 521.43 478.57 570.49 539.82 641.7 592.71 720 587.41" fill="#2774c6"></path><path d="M720 419.73C754.44 417.39 776.96 385.53 798.79 358.79 817.71 335.62 831.01 309.76 834.11 280 837.64 246.02 840.27 208 817.08 182.92 793.41 157.33 754.69 153.19 720 156.6 688.65 159.68 661.44 176.95 640.28 200.28 620.26 222.35 609.91 250.26 608.07 280 606.08 312.11 609.63 345.15 629.74 370.26 652.04 398.1 684.41 422.14 720 419.73" fill="#488fdb"></path></g><defs><mask id="SvgjsMask1012"><rect width="1440" height="560" fill="#ffffff"></rect></mask></defs></svg>