<svg id="visual" viewBox="0 0 900 600" width="900" height="600" xmlns="http://www.w3.org/2000/svg" xmlns:xlink="http://www.w3.org/1999/xlink" version="1.1"><rect x="0" y="0" width="900" height="600" fill="#001220"></rect><defs><linearGradient id="grad1_0" x1="33.3%" y1="0%" x2="100%" y2="100%"><stop offset="20%" stop-color="#fbae3c" stop-opacity="1"></stop><stop offset="80%" stop-color="#fbae3c" stop-opacity="1"></stop></linearGradient></defs><defs><linearGradient id="grad1_1" x1="33.3%" y1="0%" x2="100%" y2="100%"><stop offset="20%" stop-color="#fbae3c" stop-opacity="1"></stop><stop offset="80%" stop-color="#96446e" stop-opacity="1"></stop></linearGradient></defs><defs><linearGradient id="grad1_2" x1="33.3%" y1="0%" x2="100%" y2="100%"><stop offset="20%" stop-color="#001220" stop-opacity="1"></stop><stop offset="80%" stop-color="#96446e" stop-opacity="1"></stop></linearGradient></defs><defs><linearGradient id="grad2_0" x1="0%" y1="0%" x2="66.7%" y2="100%"><stop offset="20%" stop-color="#fbae3c" stop-opacity="1"></stop><stop offset="80%" stop-color="#fbae3c" stop-opacity="1"></stop></linearGradient></defs><defs><linearGradient id="grad2_1" x1="0%" y1="0%" x2="66.7%" y2="100%"><stop offset="20%" stop-color="#96446e" stop-opacity="1"></stop><stop offset="80%" stop-color="#fbae3c" stop-opacity="1"></stop></linearGradient></defs><defs><linearGradient id="grad2_2" x1="0%" y1="0%" x2="66.7%" y2="100%"><stop offset="20%" stop-color="#96446e" stop-opacity="1"></stop><stop offset="80%" stop-color="#001220" stop-opacity="1"></stop></linearGradient></defs><g transform="translate(900, 0)"><path d="M0 459.7C-52.8 462.9 -105.6 466.2 -142.1 437.2C-178.5 408.3 -198.5 347.2 -221.6 305C-244.7 262.8 -271 239.6 -291.2 211.6C-311.5 183.6 -325.8 150.7 -352.8 114.6C-379.9 78.6 -419.8 39.3 -459.7 0L0 0Z" fill="#3d3056"></path><path d="M0 306.5C-35.2 308.6 -70.4 310.8 -94.7 291.5C-119 272.2 -132.3 231.4 -147.7 203.3C-163.1 175.2 -180.7 159.8 -194.2 141.1C-207.7 122.4 -217.2 100.5 -235.2 76.4C-253.3 52.4 -279.9 26.2 -306.5 0L0 0Z" fill="#e1685e"></path><path d="M0 153.2C-17.6 154.3 -35.2 155.4 -47.4 145.7C-59.5 136.1 -66.2 115.7 -73.9 101.7C-81.6 87.6 -90.3 79.9 -97.1 70.5C-103.8 61.2 -108.6 50.2 -117.6 38.2C-126.6 26.2 -139.9 13.1 -153.2 0L0 0Z" fill="#fbae3c"></path></g><g transform="translate(0, 600)"><path d="M0 -459.7C38.7 -423.4 77.4 -387 122.4 -376.6C167.3 -366.2 218.5 -381.8 269.2 -370.5C319.9 -359.3 370.1 -321.1 371.9 -270.2C373.7 -219.3 327.2 -155.6 333.8 -108.5C340.4 -61.3 400.1 -30.7 459.7 0L0 0Z" fill="#3d3056"></path><path d="M0 -306.5C25.8 -282.2 51.6 -258 81.6 -251.1C111.5 -244.2 145.7 -254.5 179.5 -247C213.3 -239.5 246.7 -214.1 247.9 -180.1C249.2 -146.2 218.2 -103.8 222.5 -72.3C226.9 -40.9 266.7 -20.4 306.5 0L0 0Z" fill="#e1685e"></path><path d="M0 -153.2C12.9 -141.1 25.8 -129 40.8 -125.5C55.8 -122.1 72.8 -127.3 89.7 -123.5C106.6 -119.8 123.4 -107 124 -90.1C124.6 -73.1 109.1 -51.9 111.3 -36.2C113.5 -20.4 133.4 -10.2 153.2 0L0 0Z" fill="#fbae3c"></path></g></svg>