<svg xmlns="http://www.w3.org/2000/svg" version="1.1" xmlns:xlink="http://www.w3.org/1999/xlink" xmlns:svgjs="http://svgjs.dev/svgjs" width="1440" height="560" preserveAspectRatio="none" viewBox="0 0 1440 560"><g mask="url(&quot;#SvgjsMask1019&quot;)" fill="none"><path d="M720 733.39C832.64 733.36 909.52 628.57 984.69 544.69 1054.12 467.2 1124.57 384.04 1126.33 280 1128.1 174.6 1064.86 84.02 993.8 6.2 918.36-76.42 831.76-159.35 720-165.03 604.16-170.91 492.37-111.17 416.86-23.14 346.2 59.24 330.9 171.71 338.21 280 344.95 380.1 390.51 468.12 455.14 544.86 527.7 631.02 607.36 733.42 720 733.39" fill="#1c538e"></path><path d="M720 573.37C792.89 573.35 842.63 505.54 891.27 451.27 936.19 401.13 981.78 347.32 982.92 280 984.07 211.8 943.15 153.19 897.17 102.83 848.35 49.37 792.31-4.28 720-7.96 645.05-11.76 572.71 26.89 523.85 83.85 478.13 137.15 468.23 209.93 472.96 280 477.32 344.77 506.8 401.73 548.62 451.38 595.57 507.13 647.11 573.39 720 573.37" fill="#2774c6"></path><path d="M720 413.35C753.13 413.34 775.74 382.52 797.85 357.85 818.27 335.06 838.99 310.6 839.51 280 840.03 249 821.43 222.36 800.53 199.47 778.34 175.17 752.87 150.78 720 149.11 685.93 147.38 653.05 164.95 630.84 190.84 610.06 215.07 605.56 248.15 607.71 280 609.69 309.44 623.09 335.33 642.1 357.9 663.44 383.24 686.87 413.36 720 413.35" fill="#488fdb"></path></g><defs><mask id="SvgjsMask1019"><rect width="1440" height="560" fill="#ffffff"></rect></mask></defs></svg>