<svg xmlns="http://www.w3.org/2000/svg" version="1.1" xmlns:xlink="http://www.w3.org/1999/xlink" xmlns:svgjs="http://svgjs.dev/svgjs" width="1440" height="560" preserveAspectRatio="none" viewBox="0 0 1440 560"><g mask="url(&quot;#SvgjsMask1016&quot;)" fill="none"><path d="M720 719.45C831.72 715 923.15 641.28 1001.28 561.28 1078.22 482.5 1147.52 390.13 1149.28 280 1151.09 168.45 1088.15 69.61 1010.53-10.53 931.41-92.23 833.73-164.11 720-163.22 606.92-162.34 511.68-88.19 433.99-6.01 358.92 73.42 304.52 170.79 301.09 280 297.52 392.68 337.57 503.04 415.36 584.64 495.02 668.18 604.67 724.04 720 719.45" fill="#1c538e"></path><path d="M720 564.35C792.29 561.47 851.45 513.77 902.01 462.01 951.79 411.03 996.63 351.26 997.77 280 998.94 207.82 958.22 143.86 907.99 92.01 856.8 39.14 793.59-7.36 720-6.79 646.83-6.22 585.21 41.76 534.94 94.94 486.36 146.33 451.16 209.34 448.94 280 446.63 352.91 472.54 424.32 522.88 477.12 574.43 531.17 645.38 567.32 720 564.35" fill="#2774c6"></path><path d="M720 409.25C752.86 407.94 779.75 386.26 802.73 362.73 825.36 339.56 845.74 312.39 846.26 280 846.79 247.19 828.28 218.12 805.45 194.55 782.18 170.52 753.45 149.38 720 149.64 686.74 149.9 658.73 171.71 635.88 195.88 613.8 219.24 597.8 247.88 596.79 280 595.74 313.14 607.52 345.6 630.4 369.6 653.83 394.17 686.08 410.6 720 409.25" fill="#488fdb"></path></g><defs><mask id="SvgjsMask1016"><rect width="1440" height="560" fill="#ffffff"></rect></mask></defs></svg>