<svg xmlns="http://www.w3.org/2000/svg" version="1.1" xmlns:xlink="http://www.w3.org/1999/xlink" xmlns:svgjs="http://svgjs.dev/svgjs" width="1440" height="560" preserveAspectRatio="none" viewBox="0 0 1440 560"><g mask="url(&quot;#SvgjsMask1051&quot;)" fill="none"><g mask="url(&quot;#SvgjsMask1053&quot;)"><path d="M712.5 -12.5L737.5 12.5" stroke="url(&quot;#SvgjsLinearGradient1052&quot;)" stroke-width="4.17"></path><path d="M731.25 12.5 a6.25 6.25 0 1 0 12.5 0 a6.25 6.25 0 1 0 -12.5 0z" fill="url(&quot;#SvgjsLinearGradient1052&quot;)"></path><path d="M762.5 37.5L737.5 62.5L737.5 87.5L737.5 112.5L737.5 137.5M787.5 112.5L762.5 137.5L762.5 162.5M787.5 87.5L762.5 112.5M737.5 -12.5L762.5 12.5L762.5 37.5L762.5 62.5L787.5 87.5L787.5 112.5L787.5 137.5L787.5 162.5" stroke="url(&quot;#SvgjsLinearGradient1052&quot;)" stroke-width="4.17"></path><path d="M781.25 162.5 a6.25 6.25 0 1 0 12.5 0 a6.25 6.25 0 1 0 -12.5 0zM731.25 137.5 a6.25 6.25 0 1 0 12.5 0 a6.25 6.25 0 1 0 -12.5 0zM756.25 162.5 a6.25 6.25 0 1 0 12.5 0 a6.25 6.25 0 1 0 -12.5 0zM756.25 112.5 a6.25 6.25 0 1 0 12.5 0 a6.25 6.25 0 1 0 -12.5 0z" fill="url(&quot;#SvgjsLinearGradient1052&quot;)"></path><path d="M687.5 37.5L712.5 62.5M662.5 162.5L687.5 187.5L687.5 212.5L687.5 237.5M687.5 87.5L687.5 112.5L687.5 137.5L687.5 162.5M687.5 -12.5L687.5 12.5L687.5 37.5L687.5 62.5L687.5 87.5L662.5 112.5L662.5 137.5L662.5 162.5L662.5 187.5" stroke="url(&quot;#SvgjsLinearGradient1052&quot;)" stroke-width="4.17"></path><path d="M656.25 187.5 a6.25 6.25 0 1 0 12.5 0 a6.25 6.25 0 1 0 -12.5 0zM706.25 62.5 a6.25 6.25 0 1 0 12.5 0 a6.25 6.25 0 1 0 -12.5 0zM681.25 237.5 a6.25 6.25 0 1 0 12.5 0 a6.25 6.25 0 1 0 -12.5 0zM681.25 162.5 a6.25 6.25 0 1 0 12.5 0 a6.25 6.25 0 1 0 -12.5 0z" fill="url(&quot;#SvgjsLinearGradient1052&quot;)"></path><path d="M762.5 -12.5L787.5 12.5L787.5 37.5" stroke="url(&quot;#SvgjsLinearGradient1052&quot;)" stroke-width="4.17"></path><path d="M781.25 37.5 a6.25 6.25 0 1 0 12.5 0 a6.25 6.25 0 1 0 -12.5 0z" fill="url(&quot;#SvgjsLinearGradient1052&quot;)"></path><path d="M637.5 162.5L612.5 187.5M662.5 62.5L637.5 87.5M637.5 137.5L612.5 162.5L587.5 187.5M662.5 -12.5L662.5 12.5L662.5 37.5L662.5 62.5L662.5 87.5L637.5 112.5L637.5 137.5L637.5 162.5L637.5 187.5" stroke="url(&quot;#SvgjsLinearGradient1052&quot;)" stroke-width="4.17"></path><path d="M631.25 187.5 a6.25 6.25 0 1 0 12.5 0 a6.25 6.25 0 1 0 -12.5 0zM606.25 187.5 a6.25 6.25 0 1 0 12.5 0 a6.25 6.25 0 1 0 -12.5 0zM631.25 87.5 a6.25 6.25 0 1 0 12.5 0 a6.25 6.25 0 1 0 -12.5 0zM581.25 187.5 a6.25 6.25 0 1 0 12.5 0 a6.25 6.25 0 1 0 -12.5 0z" fill="url(&quot;#SvgjsLinearGradient1052&quot;)"></path><path d="M787.5 -12.5L812.5 12.5L812.5 37.5L812.5 62.5L812.5 87.5L812.5 112.5L812.5 137.5" stroke="url(&quot;#SvgjsLinearGradient1052&quot;)" stroke-width="4.17"></path><path d="M806.25 137.5 a6.25 6.25 0 1 0 12.5 0 a6.25 6.25 0 1 0 -12.5 0z" fill="url(&quot;#SvgjsLinearGradient1052&quot;)"></path><path d="M637.5 -12.5L637.5 12.5" stroke="url(&quot;#SvgjsLinearGradient1052&quot;)" stroke-width="4.17"></path><path d="M631.25 12.5 a6.25 6.25 0 1 0 12.5 0 a6.25 6.25 0 1 0 -12.5 0z" fill="url(&quot;#SvgjsLinearGradient1052&quot;)"></path><path d="M837.5 162.5L812.5 187.5L812.5 212.5L812.5 237.5M837.5 112.5L862.5 137.5M812.5 -12.5L837.5 12.5L837.5 37.5L837.5 62.5L837.5 87.5L837.5 112.5L837.5 137.5L837.5 162.5L837.5 187.5L837.5 212.5" stroke="url(&quot;#SvgjsLinearGradient1052&quot;)" stroke-width="4.17"></path><path d="M831.25 212.5 a6.25 6.25 0 1 0 12.5 0 a6.25 6.25 0 1 0 -12.5 0zM806.25 237.5 a6.25 6.25 0 1 0 12.5 0 a6.25 6.25 0 1 0 -12.5 0zM856.25 137.5 a6.25 6.25 0 1 0 12.5 0 a6.25 6.25 0 1 0 -12.5 0z" fill="url(&quot;#SvgjsLinearGradient1052&quot;)"></path><path d="M612.5 87.5L587.5 112.5M612.5 -12.5L612.5 12.5L612.5 37.5L612.5 62.5L612.5 87.5L612.5 112.5" stroke="url(&quot;#SvgjsLinearGradient1052&quot;)" stroke-width="4.17"></path><path d="M606.25 112.5 a6.25 6.25 0 1 0 12.5 0 a6.25 6.25 0 1 0 -12.5 0zM581.25 112.5 a6.25 6.25 0 1 0 12.5 0 a6.25 6.25 0 1 0 -12.5 0z" fill="url(&quot;#SvgjsLinearGradient1052&quot;)"></path><path d="M887.5 137.5L887.5 162.5L887.5 187.5M862.5 87.5L862.5 112.5M837.5 -12.5L862.5 12.5L862.5 37.5L862.5 62.5L862.5 87.5L887.5 112.5L887.5 137.5L862.5 162.5L862.5 187.5L862.5 212.5" stroke="url(&quot;#SvgjsLinearGradient1052&quot;)" stroke-width="4.17"></path><path d="M856.25 212.5 a6.25 6.25 0 1 0 12.5 0 a6.25 6.25 0 1 0 -12.5 0zM881.25 187.5 a6.25 6.25 0 1 0 12.5 0 a6.25 6.25 0 1 0 -12.5 0zM856.25 112.5 a6.25 6.25 0 1 0 12.5 0 a6.25 6.25 0 1 0 -12.5 0z" fill="url(&quot;#SvgjsLinearGradient1052&quot;)"></path><path d="M587.5 -12.5L587.5 12.5L587.5 37.5L587.5 62.5" stroke="url(&quot;#SvgjsLinearGradient1052&quot;)" stroke-width="4.17"></path><path d="M581.25 62.5 a6.25 6.25 0 1 0 12.5 0 a6.25 6.25 0 1 0 -12.5 0z" fill="url(&quot;#SvgjsLinearGradient1052&quot;)"></path><path d="M862.5 -12.5L887.5 12.5L887.5 37.5L887.5 62.5" stroke="url(&quot;#SvgjsLinearGradient1052&quot;)" stroke-width="4.17"></path><path d="M881.25 62.5 a6.25 6.25 0 1 0 12.5 0 a6.25 6.25 0 1 0 -12.5 0z" fill="url(&quot;#SvgjsLinearGradient1052&quot;)"></path><path d="M562.5 87.5L537.5 112.5L537.5 137.5L537.5 162.5M562.5 62.5L537.5 87.5M562.5 137.5L587.5 162.5M562.5 -12.5L562.5 12.5L562.5 37.5L562.5 62.5L562.5 87.5L562.5 112.5L562.5 137.5L562.5 162.5" stroke="url(&quot;#SvgjsLinearGradient1052&quot;)" stroke-width="4.17"></path><path d="M556.25 162.5 a6.25 6.25 0 1 0 12.5 0 a6.25 6.25 0 1 0 -12.5 0zM531.25 162.5 a6.25 6.25 0 1 0 12.5 0 a6.25 6.25 0 1 0 -12.5 0zM531.25 87.5 a6.25 6.25 0 1 0 12.5 0 a6.25 6.25 0 1 0 -12.5 0zM581.25 162.5 a6.25 6.25 0 1 0 12.5 0 a6.25 6.25 0 1 0 -12.5 0z" fill="url(&quot;#SvgjsLinearGradient1052&quot;)"></path><path d="M912.5 162.5L937.5 187.5M887.5 -12.5L912.5 12.5L912.5 37.5L912.5 62.5L912.5 87.5L912.5 112.5L912.5 137.5L912.5 162.5L912.5 187.5" stroke="url(&quot;#SvgjsLinearGradient1052&quot;)" stroke-width="4.17"></path><path d="M906.25 187.5 a6.25 6.25 0 1 0 12.5 0 a6.25 6.25 0 1 0 -12.5 0zM931.25 187.5 a6.25 6.25 0 1 0 12.5 0 a6.25 6.25 0 1 0 -12.5 0z" fill="url(&quot;#SvgjsLinearGradient1052&quot;)"></path><path d="M537.5 -12.5L537.5 12.5L537.5 37.5" stroke="url(&quot;#SvgjsLinearGradient1052&quot;)" stroke-width="4.17"></path><path d="M531.25 37.5 a6.25 6.25 0 1 0 12.5 0 a6.25 6.25 0 1 0 -12.5 0z" fill="url(&quot;#SvgjsLinearGradient1052&quot;)"></path><path d="M912.5 -12.5L937.5 12.5L937.5 37.5L937.5 62.5L937.5 87.5L937.5 112.5L937.5 137.5L962.5 162.5" stroke="url(&quot;#SvgjsLinearGradient1052&quot;)" stroke-width="4.17"></path><path d="M956.25 162.5 a6.25 6.25 0 1 0 12.5 0 a6.25 6.25 0 1 0 -12.5 0z" fill="url(&quot;#SvgjsLinearGradient1052&quot;)"></path><path d="M512.5 187.5L537.5 212.5L562.5 237.5M512.5 -12.5L512.5 12.5L512.5 37.5L512.5 62.5L512.5 87.5L512.5 112.5L512.5 137.5L512.5 162.5L512.5 187.5L512.5 212.5" stroke="url(&quot;#SvgjsLinearGradient1052&quot;)" stroke-width="4.17"></path><path d="M506.25 212.5 a6.25 6.25 0 1 0 12.5 0 a6.25 6.25 0 1 0 -12.5 0zM556.25 237.5 a6.25 6.25 0 1 0 12.5 0 a6.25 6.25 0 1 0 -12.5 0z" fill="url(&quot;#SvgjsLinearGradient1052&quot;)"></path><path d="M487.5 -12.5L487.5 12.5L487.5 37.5L487.5 62.5L487.5 87.5L487.5 112.5L487.5 137.5L487.5 162.5L487.5 187.5" stroke="url(&quot;#SvgjsLinearGradient1052&quot;)" stroke-width="4.17"></path><path d="M481.25 187.5 a6.25 6.25 0 1 0 12.5 0 a6.25 6.25 0 1 0 -12.5 0z" fill="url(&quot;#SvgjsLinearGradient1052&quot;)"></path><path d="M962.5 37.5L987.5 62.5L987.5 87.5M962.5 112.5L987.5 137.5M962.5 -12.5L962.5 12.5L962.5 37.5L962.5 62.5L962.5 87.5L962.5 112.5L962.5 137.5L987.5 162.5" stroke="url(&quot;#SvgjsLinearGradient1052&quot;)" stroke-width="4.17"></path><path d="M981.25 162.5 a6.25 6.25 0 1 0 12.5 0 a6.25 6.25 0 1 0 -12.5 0zM981.25 87.5 a6.25 6.25 0 1 0 12.5 0 a6.25 6.25 0 1 0 -12.5 0zM981.25 137.5 a6.25 6.25 0 1 0 12.5 0 a6.25 6.25 0 1 0 -12.5 0z" fill="url(&quot;#SvgjsLinearGradient1052&quot;)"></path><path d="M462.5 37.5L437.5 62.5L437.5 87.5L437.5 112.5M462.5 137.5L437.5 162.5L437.5 187.5L437.5 212.5L437.5 237.5M462.5 12.5L437.5 37.5M462.5 -12.5L462.5 12.5L462.5 37.5L462.5 62.5L462.5 87.5L462.5 112.5L462.5 137.5L462.5 162.5" stroke="url(&quot;#SvgjsLinearGradient1052&quot;)" stroke-width="4.17"></path><path d="M456.25 162.5 a6.25 6.25 0 1 0 12.5 0 a6.25 6.25 0 1 0 -12.5 0zM431.25 112.5 a6.25 6.25 0 1 0 12.5 0 a6.25 6.25 0 1 0 -12.5 0zM431.25 237.5 a6.25 6.25 0 1 0 12.5 0 a6.25 6.25 0 1 0 -12.5 0zM431.25 37.5 a6.25 6.25 0 1 0 12.5 0 a6.25 6.25 0 1 0 -12.5 0z" fill="url(&quot;#SvgjsLinearGradient1052&quot;)"></path><path d="M987.5 -12.5L987.5 12.5" stroke="url(&quot;#SvgjsLinearGradient1052&quot;)" stroke-width="4.17"></path><path d="M981.25 12.5 a6.25 6.25 0 1 0 12.5 0 a6.25 6.25 0 1 0 -12.5 0z" fill="url(&quot;#SvgjsLinearGradient1052&quot;)"></path><path d="M1012.5 -12.5L1012.5 12.5L1012.5 37.5L1037.5 62.5" stroke="url(&quot;#SvgjsLinearGradient1052&quot;)" stroke-width="4.17"></path><path d="M1031.25 62.5 a6.25 6.25 0 1 0 12.5 0 a6.25 6.25 0 1 0 -12.5 0z" fill="url(&quot;#SvgjsLinearGradient1052&quot;)"></path><path d="M412.5 87.5L387.5 112.5L387.5 137.5L387.5 162.5L387.5 187.5M412.5 -12.5L412.5 12.5L412.5 37.5L412.5 62.5L412.5 87.5L412.5 112.5" stroke="url(&quot;#SvgjsLinearGradient1052&quot;)" stroke-width="4.17"></path><path d="M406.25 112.5 a6.25 6.25 0 1 0 12.5 0 a6.25 6.25 0 1 0 -12.5 0zM381.25 187.5 a6.25 6.25 0 1 0 12.5 0 a6.25 6.25 0 1 0 -12.5 0z" fill="url(&quot;#SvgjsLinearGradient1052&quot;)"></path><path d="M1037.5 -12.5L1037.5 12.5L1037.5 37.5" stroke="url(&quot;#SvgjsLinearGradient1052&quot;)" stroke-width="4.17"></path><path d="M1031.25 37.5 a6.25 6.25 0 1 0 12.5 0 a6.25 6.25 0 1 0 -12.5 0z" fill="url(&quot;#SvgjsLinearGradient1052&quot;)"></path><path d="M362.5 162.5L337.5 187.5M362.5 112.5L337.5 137.5M387.5 62.5L387.5 87.5M387.5 -12.5L387.5 12.5L387.5 37.5L387.5 62.5L362.5 87.5L362.5 112.5L362.5 137.5L362.5 162.5L362.5 187.5L362.5 212.5L362.5 237.5" stroke="url(&quot;#SvgjsLinearGradient1052&quot;)" stroke-width="4.17"></path><path d="M356.25 237.5 a6.25 6.25 0 1 0 12.5 0 a6.25 6.25 0 1 0 -12.5 0zM331.25 187.5 a6.25 6.25 0 1 0 12.5 0 a6.25 6.25 0 1 0 -12.5 0zM331.25 137.5 a6.25 6.25 0 1 0 12.5 0 a6.25 6.25 0 1 0 -12.5 0zM381.25 87.5 a6.25 6.25 0 1 0 12.5 0 a6.25 6.25 0 1 0 -12.5 0z" fill="url(&quot;#SvgjsLinearGradient1052&quot;)"></path><path d="M1062.5 37.5L1087.5 62.5L1087.5 87.5L1087.5 112.5L1062.5 137.5M1062.5 12.5L1087.5 37.5L1112.5 62.5M1062.5 -12.5L1062.5 12.5L1062.5 37.5L1062.5 62.5L1062.5 87.5" stroke="url(&quot;#SvgjsLinearGradient1052&quot;)" stroke-width="4.17"></path><path d="M1056.25 87.5 a6.25 6.25 0 1 0 12.5 0 a6.25 6.25 0 1 0 -12.5 0zM1056.25 137.5 a6.25 6.25 0 1 0 12.5 0 a6.25 6.25 0 1 0 -12.5 0zM1106.25 62.5 a6.25 6.25 0 1 0 12.5 0 a6.25 6.25 0 1 0 -12.5 0z" fill="url(&quot;#SvgjsLinearGradient1052&quot;)"></path><path d="M362.5 12.5L337.5 37.5M362.5 -12.5L362.5 12.5L362.5 37.5L362.5 62.5L337.5 87.5" stroke="url(&quot;#SvgjsLinearGradient1052&quot;)" stroke-width="4.17"></path><path d="M331.25 87.5 a6.25 6.25 0 1 0 12.5 0 a6.25 6.25 0 1 0 -12.5 0zM331.25 37.5 a6.25 6.25 0 1 0 12.5 0 a6.25 6.25 0 1 0 -12.5 0z" fill="url(&quot;#SvgjsLinearGradient1052&quot;)"></path></g></g><defs><mask id="SvgjsMask1051"><rect width="1440" height="560" fill="#ffffff"></rect></mask><linearGradient x1="290.016" y1="-289.996" x2="1149.984" y2="569.996" gradientUnits="userSpaceOnUse" id="SvgjsLinearGradient1052"><stop stop-color="#3a7cc3" offset="0"></stop><stop stop-color="rgba(117, 39, 52, 1)" offset="1"></stop></linearGradient><mask id="SvgjsMask1053"><rect width="1440" height="560" fill="white"></rect><path d="M734.37 12.5 a3.13 3.13 0 1 0 6.26 0 a3.13 3.13 0 1 0 -6.26 0z" fill="black"></path><path d="M784.37 162.5 a3.13 3.13 0 1 0 6.26 0 a3.13 3.13 0 1 0 -6.26 0zM734.37 137.5 a3.13 3.13 0 1 0 6.26 0 a3.13 3.13 0 1 0 -6.26 0zM759.37 162.5 a3.13 3.13 0 1 0 6.26 0 a3.13 3.13 0 1 0 -6.26 0zM759.37 112.5 a3.13 3.13 0 1 0 6.26 0 a3.13 3.13 0 1 0 -6.26 0z" fill="black"></path><path d="M659.37 187.5 a3.13 3.13 0 1 0 6.26 0 a3.13 3.13 0 1 0 -6.26 0zM709.37 62.5 a3.13 3.13 0 1 0 6.26 0 a3.13 3.13 0 1 0 -6.26 0zM684.37 237.5 a3.13 3.13 0 1 0 6.26 0 a3.13 3.13 0 1 0 -6.26 0zM684.37 162.5 a3.13 3.13 0 1 0 6.26 0 a3.13 3.13 0 1 0 -6.26 0z" fill="black"></path><path d="M784.37 37.5 a3.13 3.13 0 1 0 6.26 0 a3.13 3.13 0 1 0 -6.26 0z" fill="black"></path><path d="M634.37 187.5 a3.13 3.13 0 1 0 6.26 0 a3.13 3.13 0 1 0 -6.26 0zM609.37 187.5 a3.13 3.13 0 1 0 6.26 0 a3.13 3.13 0 1 0 -6.26 0zM634.37 87.5 a3.13 3.13 0 1 0 6.26 0 a3.13 3.13 0 1 0 -6.26 0zM584.37 187.5 a3.13 3.13 0 1 0 6.26 0 a3.13 3.13 0 1 0 -6.26 0z" fill="black"></path><path d="M809.37 137.5 a3.13 3.13 0 1 0 6.26 0 a3.13 3.13 0 1 0 -6.26 0z" fill="black"></path><path d="M634.37 12.5 a3.13 3.13 0 1 0 6.26 0 a3.13 3.13 0 1 0 -6.26 0z" fill="black"></path><path d="M834.37 212.5 a3.13 3.13 0 1 0 6.26 0 a3.13 3.13 0 1 0 -6.26 0zM809.37 237.5 a3.13 3.13 0 1 0 6.26 0 a3.13 3.13 0 1 0 -6.26 0zM859.37 137.5 a3.13 3.13 0 1 0 6.26 0 a3.13 3.13 0 1 0 -6.26 0z" fill="black"></path><path d="M609.37 112.5 a3.13 3.13 0 1 0 6.26 0 a3.13 3.13 0 1 0 -6.26 0zM584.37 112.5 a3.13 3.13 0 1 0 6.26 0 a3.13 3.13 0 1 0 -6.26 0z" fill="black"></path><path d="M859.37 212.5 a3.13 3.13 0 1 0 6.26 0 a3.13 3.13 0 1 0 -6.26 0zM884.37 187.5 a3.13 3.13 0 1 0 6.26 0 a3.13 3.13 0 1 0 -6.26 0zM859.37 112.5 a3.13 3.13 0 1 0 6.26 0 a3.13 3.13 0 1 0 -6.26 0z" fill="black"></path><path d="M584.37 62.5 a3.13 3.13 0 1 0 6.26 0 a3.13 3.13 0 1 0 -6.26 0z" fill="black"></path><path d="M884.37 62.5 a3.13 3.13 0 1 0 6.26 0 a3.13 3.13 0 1 0 -6.26 0z" fill="black"></path><path d="M559.37 162.5 a3.13 3.13 0 1 0 6.26 0 a3.13 3.13 0 1 0 -6.26 0zM534.37 162.5 a3.13 3.13 0 1 0 6.26 0 a3.13 3.13 0 1 0 -6.26 0zM534.37 87.5 a3.13 3.13 0 1 0 6.26 0 a3.13 3.13 0 1 0 -6.26 0zM584.37 162.5 a3.13 3.13 0 1 0 6.26 0 a3.13 3.13 0 1 0 -6.26 0z" fill="black"></path><path d="M909.37 187.5 a3.13 3.13 0 1 0 6.26 0 a3.13 3.13 0 1 0 -6.26 0zM934.37 187.5 a3.13 3.13 0 1 0 6.26 0 a3.13 3.13 0 1 0 -6.26 0z" fill="black"></path><path d="M534.37 37.5 a3.13 3.13 0 1 0 6.26 0 a3.13 3.13 0 1 0 -6.26 0z" fill="black"></path><path d="M959.37 162.5 a3.13 3.13 0 1 0 6.26 0 a3.13 3.13 0 1 0 -6.26 0z" fill="black"></path><path d="M509.37 212.5 a3.13 3.13 0 1 0 6.26 0 a3.13 3.13 0 1 0 -6.26 0zM559.37 237.5 a3.13 3.13 0 1 0 6.26 0 a3.13 3.13 0 1 0 -6.26 0z" fill="black"></path><path d="M484.37 187.5 a3.13 3.13 0 1 0 6.26 0 a3.13 3.13 0 1 0 -6.26 0z" fill="black"></path><path d="M984.37 162.5 a3.13 3.13 0 1 0 6.26 0 a3.13 3.13 0 1 0 -6.26 0zM984.37 87.5 a3.13 3.13 0 1 0 6.26 0 a3.13 3.13 0 1 0 -6.26 0zM984.37 137.5 a3.13 3.13 0 1 0 6.26 0 a3.13 3.13 0 1 0 -6.26 0z" fill="black"></path><path d="M459.37 162.5 a3.13 3.13 0 1 0 6.26 0 a3.13 3.13 0 1 0 -6.26 0zM434.37 112.5 a3.13 3.13 0 1 0 6.26 0 a3.13 3.13 0 1 0 -6.26 0zM434.37 237.5 a3.13 3.13 0 1 0 6.26 0 a3.13 3.13 0 1 0 -6.26 0zM434.37 37.5 a3.13 3.13 0 1 0 6.26 0 a3.13 3.13 0 1 0 -6.26 0z" fill="black"></path><path d="M984.37 12.5 a3.13 3.13 0 1 0 6.26 0 a3.13 3.13 0 1 0 -6.26 0z" fill="black"></path><path d="M1034.37 62.5 a3.13 3.13 0 1 0 6.26 0 a3.13 3.13 0 1 0 -6.26 0z" fill="black"></path><path d="M409.37 112.5 a3.13 3.13 0 1 0 6.26 0 a3.13 3.13 0 1 0 -6.26 0zM384.37 187.5 a3.13 3.13 0 1 0 6.26 0 a3.13 3.13 0 1 0 -6.26 0z" fill="black"></path><path d="M1034.37 37.5 a3.13 3.13 0 1 0 6.26 0 a3.13 3.13 0 1 0 -6.26 0z" fill="black"></path><path d="M359.37 237.5 a3.13 3.13 0 1 0 6.26 0 a3.13 3.13 0 1 0 -6.26 0zM334.37 187.5 a3.13 3.13 0 1 0 6.26 0 a3.13 3.13 0 1 0 -6.26 0zM334.37 137.5 a3.13 3.13 0 1 0 6.26 0 a3.13 3.13 0 1 0 -6.26 0zM384.37 87.5 a3.13 3.13 0 1 0 6.26 0 a3.13 3.13 0 1 0 -6.26 0z" fill="black"></path><path d="M1059.37 87.5 a3.13 3.13 0 1 0 6.26 0 a3.13 3.13 0 1 0 -6.26 0zM1059.37 137.5 a3.13 3.13 0 1 0 6.26 0 a3.13 3.13 0 1 0 -6.26 0zM1109.37 62.5 a3.13 3.13 0 1 0 6.26 0 a3.13 3.13 0 1 0 -6.26 0z" fill="black"></path><path d="M334.37 87.5 a3.13 3.13 0 1 0 6.26 0 a3.13 3.13 0 1 0 -6.26 0zM334.37 37.5 a3.13 3.13 0 1 0 6.26 0 a3.13 3.13 0 1 0 -6.26 0z" fill="black"></path></mask></defs></svg>