<svg xmlns="http://www.w3.org/2000/svg" version="1.1" xmlns:xlink="http://www.w3.org/1999/xlink" xmlns:svgjs="http://svgjs.dev/svgjs" width="1440" height="560" preserveAspectRatio="none" viewBox="0 0 1440 560"><g mask="url(&quot;#SvgjsMask1024&quot;)" fill="none"><path d="M1274.93 207.21a45.07 45.07 0 1 0 70.76-55.84z" fill="#d3b714"></path><path d="M1286.33 338.68L1307.46 338.68L1307.46 359.81L1286.33 359.81z" stroke="#037b0b"></path><path d="M36.76 399.83L39.54 399.83L39.54 452.58L36.76 452.58z" fill="#037b0b"></path><path d="M1163.06 154.05a55.86 55.86 0 1 0-111.33 9.32z" stroke="#e73635"></path><path d="M1361.36 237.17a35.24 35.24 0 1 0 69.2-13.36z" stroke="rgba(66, 68, 90, 1)"></path><path d="M61.91 339.63L82.62 339.63L82.62 387.38L61.91 387.38z" stroke="#e73635"></path><path d="M1285.65 69.93 a24.61 24.61 0 1 0 49.22 0 a24.61 24.61 0 1 0 -49.22 0z" fill="#037b0b"></path><path d="M922.65 328.06L957.7 328.06L957.7 332.47L922.65 332.47z" stroke="#d3b714"></path><path d="M917.76 519.15L970.48 519.15L970.48 574.33L917.76 574.33z" stroke="rgba(66, 68, 90, 1)"></path><path d="M375.81 170.2L427.54 170.2L427.54 196.85L375.81 196.85z" fill="rgba(66, 68, 90, 1)"></path><path d="M155.98 26.52 a46 46 0 1 0 92 0 a46 46 0 1 0 -92 0z" fill="#d3b714"></path><path d="M291.76 337.38a33.01 33.01 0 1 0-52.71-39.76z" stroke="rgba(66, 68, 90, 1)"></path><path d="M968.4 112.79L1003.39 112.79L1003.39 147.78L968.4 147.78z" fill="#e73635"></path><path d="M855.07 192.88L897.39 192.88L897.39 235.2L855.07 235.2z" fill="#e73635"></path><path d="M414.26 420.57a13.23 13.23 0 1 0-26.44 0.87z" fill="#037b0b"></path><path d="M1434.78 19.85a17.94 17.94 0 1 0-21.89-28.43z" fill="#037b0b"></path><path d="M404.8 478.76L412.04 478.76L412.04 486L404.8 486z" stroke="rgba(66, 68, 90, 1)"></path><path d="M697.8 437.9L731.92 437.9L731.92 492.06L697.8 492.06z" fill="#037b0b"></path><path d="M30.17 264.24 a24.21 24.21 0 1 0 48.42 0 a24.21 24.21 0 1 0 -48.42 0z" fill="#037b0b"></path><path d="M1376.43 471.37a21.81 21.81 0 1 0-23.89 36.5z" stroke="#037b0b"></path><path d="M779 442.06 a54.59 54.59 0 1 0 109.18 0 a54.59 54.59 0 1 0 -109.18 0z" fill="#e73635"></path><path d="M337.33 217.46 a34.55 34.55 0 1 0 69.1 0 a34.55 34.55 0 1 0 -69.1 0z" stroke="#037b0b"></path><path d="M812.05 136.18 a53.4 53.4 0 1 0 106.8 0 a53.4 53.4 0 1 0 -106.8 0z" fill="#037b0b"></path><path d="M318.65 304.88L339.7 304.88L339.7 335.83L318.65 335.83z" stroke="#037b0b"></path><path d="M1229.57 277.26L1238.7 277.26L1238.7 309.13L1229.57 309.13z" fill="#037b0b"></path><path d="M312.13 58.83 a18.67 18.67 0 1 0 37.34 0 a18.67 18.67 0 1 0 -37.34 0z" stroke="#d3b714"></path><path d="M776.26 476.63a10.46 10.46 0 1 0-12.94-16.44z" stroke="#d3b714"></path><path d="M1255.45 44.07a30.5 30.5 0 1 0-22.2 56.82z" stroke="rgba(66, 68, 90, 1)"></path><path d="M220.34 238.39 a34.6 34.6 0 1 0 69.2 0 a34.6 34.6 0 1 0 -69.2 0z" fill="#e73635"></path><path d="M775.34 17.19L775.88 17.19L775.88 66.74L775.34 66.74z" fill="#037b0b"></path><path d="M314.03 463.51L328.72 463.51L328.72 478.2L314.03 478.2z" stroke="#d3b714"></path><path d="M1145.82 502.84L1160.17 502.84L1160.17 517.19L1145.82 517.19z" stroke="#e73635"></path><path d="M158.29 247.87 a11.83 11.83 0 1 0 23.66 0 a11.83 11.83 0 1 0 -23.66 0z" fill="#037b0b"></path></g><defs><mask id="SvgjsMask1024"><rect width="1440" height="560" fill="#ffffff"></rect></mask></defs></svg>