<svg xmlns="http://www.w3.org/2000/svg" version="1.1" xmlns:xlink="http://www.w3.org/1999/xlink" xmlns:svgjs="http://svgjs.dev/svgjs" width="1440" height="560" preserveAspectRatio="none" viewBox="0 0 1440 560"><g mask="url(&quot;#SvgjsMask1013&quot;)" fill="none"><path d="M919.88 374.57a12.38 12.38 0 1 0-23.36 8.22z" stroke="#e73635"></path><path d="M34.61 139.81a42.17 42.17 0 1 0-61.98-57.2z" stroke="#d3b714"></path><path d="M1183.64 189.35L1233.16 189.35L1233.16 204.62L1183.64 204.62z" fill="#d3b714"></path><path d="M197.17 379.62 a11.63 11.63 0 1 0 23.26 0 a11.63 11.63 0 1 0 -23.26 0z" fill="#d3b714"></path><path d="M307.53 471.81L357.93 471.81L357.93 524.24L307.53 524.24z" fill="#037b0b"></path><path d="M800.49 326.16a38.15 38.15 0 1 0 55.02 52.86z" stroke="#e73635"></path><path d="M892.77 396.11 a23.24 23.24 0 1 0 46.48 0 a23.24 23.24 0 1 0 -46.48 0z" fill="#d3b714"></path><path d="M537.93 94.12L546.97 94.12L546.97 103.16L537.93 103.16z" stroke="#d3b714"></path><path d="M858.07 483.42a1.1 1.1 0 1 0 1.44-1.66z" stroke="#e73635"></path><path d="M443.91 477.81L459.89 477.81L459.89 496.46L443.91 496.46z" fill="#e73635"></path><path d="M556.47 82.22L578.5 82.22L578.5 118.09L556.47 118.09z" fill="rgba(66, 68, 90, 1)"></path><path d="M548.56 267.11L595.36 267.11L595.36 307.39L548.56 307.39z" stroke="#d3b714"></path><path d="M418.41 138.95L462.87 138.95L462.87 183.41L418.41 183.41z" stroke="#d3b714"></path><path d="M1404.06 87.92L1406.86 87.92L1406.86 90.72L1404.06 90.72z" fill="#e73635"></path><path d="M948.49 553.07L996.19 553.07L996.19 600.77L948.49 600.77z" fill="#e73635"></path><path d="M1097.25 2.01L1151.35 2.01L1151.35 56.11L1097.25 56.11z" stroke="#d3b714"></path><path d="M223.74 80.74L260.64 80.74L260.64 132.3L223.74 132.3z" stroke="rgba(66, 68, 90, 1)"></path><path d="M127.83 83.18 a10.18 10.18 0 1 0 20.36 0 a10.18 10.18 0 1 0 -20.36 0z" fill="rgba(66, 68, 90, 1)"></path><path d="M960.61 330.37L974.37 330.37L974.37 344.13L960.61 344.13z" fill="#037b0b"></path><path d="M89.37 323.4L132.47 323.4L132.47 366.5L89.37 366.5z" fill="#037b0b"></path><path d="M1053.4 455.21L1089.56 455.21L1089.56 491.37L1053.4 491.37z" fill="#e73635"></path><path d="M85.98 95.72L131.68 95.72L131.68 109.31L85.98 109.31z" fill="#e73635"></path><path d="M1117.28 479.11a14.96 14.96 0 1 0 0.56 29.91z" fill="rgba(66, 68, 90, 1)"></path><path d="M754.02 507.24a13.82 13.82 0 1 0-12.19-24.81z" fill="#e73635"></path><path d="M1263.21 356.58a7.58 7.58 0 1 0 8.32-12.68z" stroke="#d3b714"></path><path d="M503.48 172.27 a37.5 37.5 0 1 0 75 0 a37.5 37.5 0 1 0 -75 0z" fill="#e73635"></path><path d="M875.75 364.38L931.08 364.38L931.08 378.63L875.75 378.63z" stroke="#037b0b"></path><path d="M837.45 490.91L878.18 490.91L878.18 531.64L837.45 531.64z" stroke="#e73635"></path><path d="M1316.72 358.76 a1.05 1.05 0 1 0 2.1 0 a1.05 1.05 0 1 0 -2.1 0z" fill="rgba(66, 68, 90, 1)"></path><path d="M331.67 307.31L378.51 307.31L378.51 355.17L331.67 355.17z" fill="#d3b714"></path><path d="M1117.65 320.31L1126.43 320.31L1126.43 322.81L1117.65 322.81z" stroke="#e73635"></path><path d="M906.92 83.29L938.62 83.29L938.62 125.93L906.92 125.93z" stroke="#d3b714"></path><path d="M665.57 209.3a27.6 27.6 0 1 0 8.37 54.56z" stroke="rgba(66, 68, 90, 1)"></path></g><defs><mask id="SvgjsMask1013"><rect width="1440" height="560" fill="#ffffff"></rect></mask></defs></svg>