<svg xmlns="http://www.w3.org/2000/svg" version="1.1" xmlns:xlink="http://www.w3.org/1999/xlink" xmlns:svgjs="http://svgjs.dev/svgjs" width="1440" height="560" preserveAspectRatio="none" viewBox="0 0 1440 560"><g mask="url(&quot;#SvgjsMask1144&quot;)" fill="none"><rect width="343.04" height="343.04" clip-path="url(&quot;#SvgjsClipPath1145&quot;)" x="249.76" y="6.2" fill="url(&quot;#SvgjsPattern1146&quot;)" transform="rotate(60.3, 421.28, 177.72)"></rect><path d="M1263.3700000000001 453.28999999999996 L1201.65 330.66999999999996L1314.3437607044198 310.1462392955804z" fill="#037b0b"></path><path d="M292.12 345.73 L291.15999999999997 319.25L310.04724492098427 314.0827550790157z" stroke="#e73635" stroke-width="2.02" stroke-dasharray="2, 2"></path><path d="M1298.69 412.55a5.6 5.6 0 1 0 10.99 2.14 5.6 5.6 0 1 0-10.99-2.14zM1314.39 415.61a5.6 5.6 0 1 0 11 2.15 5.6 5.6 0 1 0-11-2.15zM1330.1 418.68a5.6 5.6 0 1 0 10.99 2.15 5.6 5.6 0 1 0-10.99-2.15zM1345.8 421.75a5.6 5.6 0 1 0 10.99 2.14 5.6 5.6 0 1 0-10.99-2.14z" fill="#d3b714"></path><path d="M672.47 585.91 L706.8 685.64L615.2423387168424 710.1676612831576z" stroke="#037b0b" stroke-width="1" stroke-dasharray="3, 3"></path><rect width="324" height="324" clip-path="url(&quot;#SvgjsClipPath1147&quot;)" x="448.08" y="306.18" fill="url(&quot;#SvgjsPattern1148&quot;)" transform="rotate(109.75, 610.08, 468.18)"></rect><circle r="46.666666666666664" cx="305.92" cy="244.2" stroke="#e73635" stroke-width="1.23" stroke-dasharray="2, 2"></circle><circle r="46.666666666666664" cx="145.84" cy="352.15" fill="#037b0b"></circle><path d="M759.8 448.74 L918.02 565.69L753.5451148112015 592.5798851887985z" stroke="#e73635" stroke-width="2.65" stroke-dasharray="3, 3"></path><rect width="360" height="360" clip-path="url(&quot;#SvgjsClipPath1149&quot;)" x="417.41" y="-97.31" fill="url(&quot;#SvgjsPattern1150&quot;)" transform="rotate(339.66, 597.41, 82.69)"></rect><circle r="74.70026623709438" cx="908.47" cy="419.48" fill="#e73635"></circle><path d="M1474.14 312.99 L1469.38 454.27L1550.869017392948 462.7390173929479z" fill="#d3b714"></path></g><defs><mask id="SvgjsMask1144"><rect width="1440" height="560" fill="#ffffff"></rect></mask><pattern x="0" y="0" width="10.72" height="10.72" patternUnits="userSpaceOnUse" id="SvgjsPattern1146"><path d="M0 10.72L5.36 0L10.72 10.72" stroke="#037b0b" fill="none"></path></pattern><clipPath id="SvgjsClipPath1145"><circle r="85.76" cx="421.28" cy="177.72"></circle></clipPath><pattern x="0" y="0" width="6" height="6" patternUnits="userSpaceOnUse" id="SvgjsPattern1148"><path d="M3 1L3 5M1 3L5 3" stroke="#e73635" fill="none" stroke-width="1.7"></path></pattern><clipPath id="SvgjsClipPath1147"><circle r="81" cx="610.08" cy="468.18"></circle></clipPath><pattern x="0" y="0" width="360" height="6" patternUnits="userSpaceOnUse" id="SvgjsPattern1150"><rect width="360" height="3" x="0" y="0" fill="#037b0b"></rect><rect width="360" height="3" x="0" y="3" fill="rgba(0, 0, 0, 0)"></rect></pattern><clipPath id="SvgjsClipPath1149"><circle r="90" cx="597.41" cy="82.69"></circle></clipPath></defs></svg>