<svg xmlns="http://www.w3.org/2000/svg" version="1.1" xmlns:xlink="http://www.w3.org/1999/xlink" xmlns:svgjs="http://svgjs.dev/svgjs" width="1440" height="560" preserveAspectRatio="none" viewBox="0 0 1440 560"><g mask="url(&quot;#SvgjsMask1002&quot;)" fill="none"><path d="M347.24 313.14L354.2 313.14L354.2 320.1L347.24 320.1z" stroke="#037b0b"></path><path d="M833.15 11.64a23.63 23.63 0 1 0-30.88 35.78z" fill="rgba(66, 68, 90, 1)"></path><path d="M280.67 125.49 a26.46 26.46 0 1 0 52.92 0 a26.46 26.46 0 1 0 -52.92 0z" stroke="#e73635"></path><path d="M182.29 290.3L226.69 290.3L226.69 292.51L182.29 292.51z" stroke="#037b0b"></path><path d="M1322.89 263.13 a15.33 15.33 0 1 0 30.66 0 a15.33 15.33 0 1 0 -30.66 0z" stroke="#d3b714"></path><path d="M940.27 387.95a3.14 3.14 0 1 0 4.66-4.21z" fill="#d3b714"></path><path d="M789.29 521.22L840.52 521.22L840.52 530.67L789.29 530.67z" fill="#d3b714"></path><path d="M498.42 432.87a25.66 25.66 0 1 0-42.43 28.87z" fill="rgba(66, 68, 90, 1)"></path><path d="M596.43 238.83a41.52 41.52 0 1 0 53.81 63.24z" stroke="rgba(66, 68, 90, 1)"></path><path d="M1300.43 311.44a47.48 47.48 0 1 0 62.04 71.89z" stroke="#037b0b"></path><path d="M1198.46 410.66 a2.6 2.6 0 1 0 5.2 0 a2.6 2.6 0 1 0 -5.2 0z" fill="#037b0b"></path><path d="M313.82 38.45a12.28 12.28 0 1 0 23.7-6.46z" stroke="#d3b714"></path><path d="M573.59 512.93L623.75 512.93L623.75 543.82L573.59 543.82z" stroke="rgba(66, 68, 90, 1)"></path><path d="M1359.31 514L1375.6 514L1375.6 530.29L1359.31 530.29z" stroke="#037b0b"></path><path d="M1107.08 83.08L1121.61 83.08L1121.61 97.61L1107.08 97.61z" fill="#037b0b"></path><path d="M938.93 281.8a50.63 50.63 0 1 0-90.96-44.49z" fill="#d3b714"></path><path d="M832.89 515.59a43.89 43.89 0 1 0 47.43 73.86z" stroke="rgba(66, 68, 90, 1)"></path><path d="M53.95 6.77a10.55 10.55 0 1 0 20.8 3.52z" stroke="rgba(66, 68, 90, 1)"></path><path d="M1327.79 472.54L1370.42 472.54L1370.42 502.81L1327.79 502.81z" fill="#037b0b"></path><path d="M1410.77 122.36a19.09 19.09 0 1 0-37.64 6.37z" fill="#d3b714"></path><path d="M828.31 306.08a35.18 35.18 0 1 0-48.59-50.89z" fill="#d3b714"></path><path d="M448.29 534.79a15.37 15.37 0 1 0-28.11-12.45z" stroke="#037b0b"></path><path d="M1266.46 84.94L1287.04 84.94L1287.04 105.52L1266.46 105.52z" fill="rgba(66, 68, 90, 1)"></path><path d="M165.48 332.51L184.88 332.51L184.88 382.55L165.48 382.55z" fill="#e73635"></path><path d="M590.88 391.61L623.81 391.61L623.81 424.54L590.88 424.54z" fill="rgba(66, 68, 90, 1)"></path><path d="M599.74 146.94L654.97 146.94L654.97 202.17L599.74 202.17z" fill="#d3b714"></path><path d="M288.44 222.76L317.5 222.76L317.5 251.82L288.44 251.82z" fill="#d3b714"></path><path d="M350.54 293.89 a21.81 21.81 0 1 0 43.62 0 a21.81 21.81 0 1 0 -43.62 0z" stroke="#e73635"></path><path d="M417.59 351.81L471.95 351.81L471.95 406.17L417.59 406.17z" stroke="#e73635"></path><path d="M947.06 29L975.9 29L975.9 65.05L947.06 65.05z" stroke="#d3b714"></path><path d="M1251.69 481.18L1304.89 481.18L1304.89 497.39L1251.69 497.39z" stroke="#e73635"></path><path d="M235.85 51.06L273.96 51.06L273.96 86.08L235.85 86.08z" stroke="#e73635"></path><path d="M476.69 60.51L479.66 60.51L479.66 101.76L476.69 101.76z" stroke="rgba(66, 68, 90, 1)"></path></g><defs><mask id="SvgjsMask1002"><rect width="1440" height="560" fill="#ffffff"></rect></mask></defs></svg>