<svg xmlns="http://www.w3.org/2000/svg" version="1.1" xmlns:xlink="http://www.w3.org/1999/xlink" xmlns:svgjs="http://svgjs.dev/svgjs" width="1440" height="560" preserveAspectRatio="none" viewBox="0 0 1440 560"><g mask="url(&quot;#SvgjsMask1028&quot;)" fill="none"><path d="M674.62 176.85L696.86 176.85L696.86 224.67L674.62 224.67z" stroke="#e73635"></path><path d="M1155.85 205.88a51.45 51.45 0 1 0 47.64 91.21z" fill="rgba(66, 68, 90, 1)"></path><path d="M513.5 54.46 a30.37 30.37 0 1 0 60.74 0 a30.37 30.37 0 1 0 -60.74 0z" fill="rgba(66, 68, 90, 1)"></path><path d="M400.62 107.16a38.16 38.16 0 1 0 40.94-64.41z" stroke="#037b0b"></path><path d="M955.83 459.88L1010.96 459.88L1010.96 503.3L955.83 503.3z" stroke="#037b0b"></path><path d="M167.94 295.38L203.88 295.38L203.88 331.32L167.94 331.32z" fill="rgba(66, 68, 90, 1)"></path><path d="M528.74 209.6 a41.03 41.03 0 1 0 82.06 0 a41.03 41.03 0 1 0 -82.06 0z" fill="rgba(66, 68, 90, 1)"></path><path d="M429.37 433.49a0.38 0.38 0 1 0-0.69 0.32z" fill="#e73635"></path><path d="M20.08 581.63a46.89 46.89 0 1 0 55.62-75.51z" stroke="#d3b714"></path><path d="M1338.87 357.96a33.75 33.75 0 1 0-40.34-54.12z" stroke="#037b0b"></path><path d="M596.35 67.08L637.63 67.08L637.63 108.36L596.35 108.36z" fill="#e73635"></path><path d="M157.95 80.12 a38.65 38.65 0 1 0 77.3 0 a38.65 38.65 0 1 0 -77.3 0z" stroke="rgba(66, 68, 90, 1)"></path><path d="M709.11 229.24L752.18 229.24L752.18 272.31L709.11 272.31z" fill="#037b0b"></path><path d="M941.71 451.32L977.23 451.32L977.23 486.84L941.71 486.84z" stroke="#e73635"></path><path d="M1395.62 174.06a54.21 54.21 0 1 0-101.92-36.98z" fill="#037b0b"></path><path d="M53.61 329.46L84.71 329.46L84.71 360.56L53.61 360.56z" fill="#e73635"></path><path d="M1030.17 133.24 a13.83 13.83 0 1 0 27.66 0 a13.83 13.83 0 1 0 -27.66 0z" fill="#037b0b"></path><path d="M1347.15 118.08a49.19 49.19 0 1 0-70.74 68.36z" stroke="#d3b714"></path><path d="M930.18 229.23L955.21 229.23L955.21 251.95L930.18 251.95z" stroke="#d3b714"></path><path d="M828.42 194.16a10.83 10.83 0 1 0-21.64 0.81z" fill="rgba(66, 68, 90, 1)"></path><path d="M889.74 117.19a52.91 52.91 0 1 0 85.77 61.98z" stroke="#d3b714"></path><path d="M720.22 214.89L774.51 214.89L774.51 266.34L720.22 266.34z" fill="#037b0b"></path><path d="M1071.45 319.32 a40.21 40.21 0 1 0 80.42 0 a40.21 40.21 0 1 0 -80.42 0z" stroke="#e73635"></path><path d="M235.89 556.98a14.25 14.25 0 1 0-26.42-10.69z" fill="#037b0b"></path><path d="M1157.71 439.71a21.23 21.23 0 1 0-42.38 2.66z" stroke="#037b0b"></path><path d="M684.83 176.74L701.86 176.74L701.86 228.38L684.83 228.38z" stroke="#d3b714"></path><path d="M658.55 491.96a31.44 31.44 0 1 0-21.78 58.99z" stroke="#e73635"></path><path d="M1002.02 537.42L1009.03 537.42L1009.03 544.43L1002.02 544.43z" fill="#e73635"></path><path d="M785.58 468.94L804.98 468.94L804.98 488.34L785.58 488.34z" stroke="#d3b714"></path><path d="M266.6 305.43L322.56 305.43L322.56 361.39L266.6 361.39z" fill="rgba(66, 68, 90, 1)"></path><path d="M102.05 500.45L113.98 500.45L113.98 512.38L102.05 512.38z" fill="rgba(66, 68, 90, 1)"></path><path d="M754.18 338.65 a6.11 6.11 0 1 0 12.22 0 a6.11 6.11 0 1 0 -12.22 0z" stroke="#037b0b"></path><path d="M862.17 329.51a41.79 41.79 0 1 0 7.95 83.2z" fill="#d3b714"></path></g><defs><mask id="SvgjsMask1028"><rect width="1440" height="560" fill="#ffffff"></rect></mask></defs></svg>