<svg xmlns="http://www.w3.org/2000/svg" version="1.1" xmlns:xlink="http://www.w3.org/1999/xlink" xmlns:svgjs="http://svgjs.dev/svgjs" width="1440" height="560" preserveAspectRatio="none" viewBox="0 0 1440 560"><g mask="url(&quot;#SvgjsMask1021&quot;)" fill="none"><path d="M1379.04 294.8a25.09 25.09 0 1 0 29.08 40.89z" fill="#037b0b"></path><path d="M678.38 499.91a13.31 13.31 0 1 0 3.53 26.38z" fill="#e73635"></path><path d="M1001.15 68.56L1009.13 68.56L1009.13 76.54L1001.15 76.54z" stroke="#d3b714"></path><path d="M933.48 114.99L964.4 114.99L964.4 145.91L933.48 145.91z" fill="#037b0b"></path><path d="M1399.38 125.01a19.06 19.06 0 1 0 21.17-31.7z" fill="#e73635"></path><path d="M33.06 415.23L36.83 415.23L36.83 419L33.06 419z" stroke="#e73635"></path><path d="M347.65 300.6a4.62 4.62 0 1 0 6.22-6.84z" stroke="rgba(66, 68, 90, 1)"></path><path d="M350.76 357.16 a12.68 12.68 0 1 0 25.36 0 a12.68 12.68 0 1 0 -25.36 0z" fill="#037b0b"></path><path d="M710.19 166.73L726.39 166.73L726.39 182.93L710.19 182.93z" stroke="#037b0b"></path><path d="M1023.16 221.59a40.52 40.52 0 1 0-80.68-7.69z" stroke="#d3b714"></path><path d="M573.19 29.07L587.32 29.07L587.32 49.3L573.19 49.3z" stroke="#e73635"></path><path d="M1087.56 159.54 a27.81 27.81 0 1 0 55.62 0 a27.81 27.81 0 1 0 -55.62 0z" fill="#037b0b"></path><path d="M991.31 426.31L1040.81 426.31L1040.81 475.81L991.31 475.81z" stroke="#e73635"></path><path d="M1331.46 233.07L1339.94 233.07L1339.94 262.42L1331.46 262.42z" fill="#e73635"></path><path d="M1057.52 14.5a49.86 49.86 0 1 0 56.85 81.93z" stroke="#037b0b"></path><path d="M97.48 218.78L119.93 218.78L119.93 241.23L97.48 241.23z" fill="#d3b714"></path><path d="M1015.27 242.87 a2.78 2.78 0 1 0 5.56 0 a2.78 2.78 0 1 0 -5.56 0z" stroke="#e73635"></path><path d="M478.1 479.2L494.93 479.2L494.93 515.92L478.1 515.92z" fill="rgba(66, 68, 90, 1)"></path><path d="M756.48 370.24L787.11 370.24L787.11 400.87L756.48 400.87z" stroke="#037b0b"></path><path d="M311.04 150.48 a1.94 1.94 0 1 0 3.88 0 a1.94 1.94 0 1 0 -3.88 0z" stroke="#e73635"></path><path d="M1117.75 342.29L1161.74 342.29L1161.74 386.28L1117.75 386.28z" stroke="#037b0b"></path><path d="M721.57 157.34L746.41 157.34L746.41 163.97L721.57 163.97z" stroke="#d3b714"></path><path d="M978.25 323.49L989.78 323.49L989.78 335.02L978.25 335.02z" stroke="#e73635"></path><path d="M432.85 241.16L479.39 241.16L479.39 274.22L432.85 274.22z" stroke="rgba(66, 68, 90, 1)"></path><path d="M266.15 278.01 a16.46 16.46 0 1 0 32.92 0 a16.46 16.46 0 1 0 -32.92 0z" fill="#037b0b"></path><path d="M1107.73 331.99L1142.25 331.99L1142.25 356.15L1107.73 356.15z" fill="rgba(66, 68, 90, 1)"></path><path d="M722.44 221.46a35.75 35.75 0 1 0 15.93-69.7z" stroke="#d3b714"></path><path d="M349.43 93.66L400.33 93.66L400.33 93.92L349.43 93.92z" stroke="#d3b714"></path><path d="M1134.55 370.32L1176.52 370.32L1176.52 388.12L1134.55 388.12z" fill="#037b0b"></path><path d="M1437.81 123.82L1449.38 123.82L1449.38 164.07L1437.81 164.07z" fill="#d3b714"></path><path d="M1436.39 124.11L1436.75 124.11L1436.75 165.59L1436.39 165.59z" fill="#037b0b"></path><path d="M117.23 408.49L159.39 408.49L159.39 450.65L117.23 450.65z" fill="#037b0b"></path><path d="M872.49 191.22L903.85 191.22L903.85 222.58L872.49 222.58z" fill="rgba(66, 68, 90, 1)"></path></g><defs><mask id="SvgjsMask1021"><rect width="1440" height="560" fill="#ffffff"></rect></mask></defs></svg>