<svg xmlns="http://www.w3.org/2000/svg" version="1.1" xmlns:xlink="http://www.w3.org/1999/xlink" xmlns:svgjs="http://svgjs.dev/svgjs" width="1440" height="560" preserveAspectRatio="none" viewBox="0 0 1440 560"><g mask="url(&quot;#SvgjsMask1009&quot;)" fill="none"><path d="M1048.81 352.29L1085.49 352.29L1085.49 388.97L1048.81 388.97z" fill="#e73635"></path><path d="M237.79 119.78L273.85 119.78L273.85 155.84L237.79 155.84z" fill="rgba(66, 68, 90, 1)"></path><path d="M849.34 78.96L875.65 78.96L875.65 128.54L849.34 128.54z" stroke="rgba(66, 68, 90, 1)"></path><path d="M711.64 33.63 a27.94 27.94 0 1 0 55.88 0 a27.94 27.94 0 1 0 -55.88 0z" fill="#e73635"></path><path d="M947.58 390.4a20.67 20.67 0 1 0-31.41 26.88z" stroke="#037b0b"></path><path d="M1309.86 555.54L1361.53 555.54L1361.53 560.98L1309.86 560.98z" fill="#d3b714"></path><path d="M322.5 410.6L376.23 410.6L376.23 416.78L322.5 416.78z" stroke="rgba(66, 68, 90, 1)"></path><path d="M663.3 66.6L711.85 66.6L711.85 115.15L663.3 115.15z" stroke="#037b0b"></path><path d="M48.16 18.02L77.82 18.02L77.82 52.36L48.16 52.36z" stroke="#e73635"></path><path d="M1204.31 14.88L1250.29 14.88L1250.29 60.86L1204.31 60.86z" stroke="#037b0b"></path><path d="M414.36 110.84 a52.26 52.26 0 1 0 104.52 0 a52.26 52.26 0 1 0 -104.52 0z" stroke="#d3b714"></path><path d="M922.01 501.66L937.1 501.66L937.1 516.75L922.01 516.75z" fill="rgba(66, 68, 90, 1)"></path><path d="M1168.71 332.69L1197.68 332.69L1197.68 344.68L1168.71 344.68z" stroke="#037b0b"></path><path d="M180.96 11.54 a12.49 12.49 0 1 0 24.98 0 a12.49 12.49 0 1 0 -24.98 0z" fill="rgba(66, 68, 90, 1)"></path><path d="M1123.49 255.9 a18.12 18.12 0 1 0 36.24 0 a18.12 18.12 0 1 0 -36.24 0z" fill="#e73635"></path><path d="M1002.91 133.92a1.63 1.63 0 1 0-2.65 1.9z" fill="#037b0b"></path><path d="M178.43 330.71a49.7 49.7 0 1 0 73.71 66.68z" fill="#d3b714"></path><path d="M91.91 357.05a49.47 49.47 0 1 0-63.01 76.29z" stroke="#e73635"></path><path d="M839.8 469.62 a34.68 34.68 0 1 0 69.36 0 a34.68 34.68 0 1 0 -69.36 0z" stroke="#e73635"></path><path d="M1108.8 239.71L1129.84 239.71L1129.84 278.52L1108.8 278.52z" fill="#d3b714"></path><path d="M533.24 8.42L558.33 8.42L558.33 28.65L533.24 28.65z" fill="rgba(66, 68, 90, 1)"></path><path d="M808.58 212.92L849.41 212.92L849.41 247.1L808.58 247.1z" fill="rgba(66, 68, 90, 1)"></path><path d="M34.46 403.63 a17.57 17.57 0 1 0 35.14 0 a17.57 17.57 0 1 0 -35.14 0z" fill="#037b0b"></path><path d="M704.75 180.5a18.38 18.38 0 1 0 28.97 22.63z" fill="rgba(66, 68, 90, 1)"></path><path d="M941.52 61.04a7.06 7.06 0 1 0-13.15 5.12z" fill="#037b0b"></path><path d="M312.21 449.57 a50.79 50.79 0 1 0 101.58 0 a50.79 50.79 0 1 0 -101.58 0z" fill="#d3b714"></path><path d="M1195.59 135.49L1239.98 135.49L1239.98 164.96L1195.59 164.96z" stroke="#d3b714"></path><path d="M1159.61 196.86 a31.78 31.78 0 1 0 63.56 0 a31.78 31.78 0 1 0 -63.56 0z" fill="#037b0b"></path><path d="M265.11 79.25 a29.36 29.36 0 1 0 58.72 0 a29.36 29.36 0 1 0 -58.72 0z" stroke="#d3b714"></path><path d="M108.93 134.07L130.56 134.07L130.56 155.7L108.93 155.7z" stroke="rgba(66, 68, 90, 1)"></path><path d="M459.05 443.91L459.09 443.91L459.09 474.33L459.05 474.33z" stroke="#037b0b"></path><path d="M1324.65 417.47L1363.9 417.47L1363.9 465.49L1324.65 465.49z" fill="#e73635"></path><path d="M786.7 338.69a43.47 43.47 0 1 0 85.82 13.96z" fill="#e73635"></path></g><defs><mask id="SvgjsMask1009"><rect width="1440" height="560" fill="#ffffff"></rect></mask></defs></svg>