<svg xmlns="http://www.w3.org/2000/svg" version="1.1" xmlns:xlink="http://www.w3.org/1999/xlink" xmlns:svgjs="http://svgjs.dev/svgjs" width="1440" height="560" preserveAspectRatio="none" viewBox="0 0 1440 560"><g mask="url(&quot;#SvgjsMask1073&quot;)" fill="none"><rect width="144" height="144" clip-path="url(&quot;#SvgjsClipPath1074&quot;)" x="634.79" y="450.53" fill="url(&quot;#SvgjsPattern1075&quot;)" transform="rotate(148.6, 706.79, 522.53)"></rect><rect width="300" height="300" clip-path="url(&quot;#SvgjsClipPath1076&quot;)" x="814.19" y="265.05" fill="url(&quot;#SvgjsPattern1077&quot;)" transform="rotate(92.19, 964.19, 415.05)"></rect><rect width="137.20000000000002" height="137.20000000000002" clip-path="url(&quot;#SvgjsClipPath1078&quot;)" x="973.89" y="73.41" fill="url(&quot;#SvgjsPattern1079&quot;)" transform="rotate(185.87, 1042.49, 142.01)"></rect><rect width="217.92" height="217.92" clip-path="url(&quot;#SvgjsClipPath1080&quot;)" x="712.35" y="287.51" fill="url(&quot;#SvgjsPattern1081&quot;)" transform="rotate(168.13, 821.31, 396.47)"></rect><rect width="345.24" height="345.24" clip-path="url(&quot;#SvgjsClipPath1082&quot;)" x="-44.91" y="-75.87" fill="url(&quot;#SvgjsPattern1083&quot;)" transform="rotate(38.84, 127.71, 96.75)"></rect><circle r="89.80376313498829" cx="119.69" cy="412.69" stroke="#037b0b" stroke-width="1" stroke-dasharray="4, 4"></circle><rect width="288" height="288" clip-path="url(&quot;#SvgjsClipPath1084&quot;)" x="1079.65" y="275.23" fill="url(&quot;#SvgjsPattern1085&quot;)" transform="rotate(34.47, 1223.65, 419.23)"></rect><rect width="95.48" height="95.48" clip-path="url(&quot;#SvgjsClipPath1086&quot;)" x="379.79" y="343.92" fill="url(&quot;#SvgjsPattern1087&quot;)" transform="rotate(143.4, 427.53, 391.66)"></rect><circle r="46.666666666666664" cx="1228.5" cy="439.7" stroke="#d3b714" stroke-width="1.08"></circle><rect width="339.84" height="339.84" clip-path="url(&quot;#SvgjsClipPath1088&quot;)" x="-98.04" y="299.09" fill="url(&quot;#SvgjsPattern1089&quot;)" transform="rotate(327.09, 71.88, 469.01)"></rect><circle r="53.32404998345076" cx="337.54" cy="39.96" fill="#d3b714"></circle><rect width="216" height="216" clip-path="url(&quot;#SvgjsClipPath1090&quot;)" x="1093.8" y="99.96" fill="url(&quot;#SvgjsPattern1091&quot;)" transform="rotate(110.91, 1201.8, 207.96)"></rect></g><defs><mask id="SvgjsMask1073"><rect width="1440" height="560" fill="#ffffff"></rect></mask><pattern x="0" y="0" width="144" height="6" patternUnits="userSpaceOnUse" id="SvgjsPattern1075"><rect width="144" height="3" x="0" y="0" fill="#037b0b"></rect><rect width="144" height="3" x="0" y="3" fill="rgba(0, 0, 0, 0)"></rect></pattern><clipPath id="SvgjsClipPath1074"><circle r="36" cx="706.79" cy="522.53"></circle></clipPath><pattern x="0" y="0" width="300" height="6" patternUnits="userSpaceOnUse" id="SvgjsPattern1077"><rect width="300" height="3" x="0" y="0" fill="#d3b714"></rect><rect width="300" height="3" x="0" y="3" fill="rgba(0, 0, 0, 0)"></rect></pattern><clipPath id="SvgjsClipPath1076"><circle r="75" cx="964.19" cy="415.05"></circle></clipPath><pattern x="0" y="0" width="13.72" height="13.72" patternUnits="userSpaceOnUse" id="SvgjsPattern1079"><path d="M0 13.72L6.86 0L13.72 13.72" stroke="#d3b714" fill="none"></path></pattern><clipPath id="SvgjsClipPath1078"><circle r="34.300000000000004" cx="1042.49" cy="142.01"></circle></clipPath><pattern x="0" y="0" width="13.62" height="13.62" patternUnits="userSpaceOnUse" id="SvgjsPattern1081"><path d="M6.81 1L6.81 12.62M1 6.81L12.62 6.81" stroke="#d3b714" fill="none" stroke-width="1.66"></path></pattern><clipPath id="SvgjsClipPath1080"><circle r="54.48" cx="821.31" cy="396.47"></circle></clipPath><pattern x="0" y="0" width="8.22" height="8.22" patternUnits="userSpaceOnUse" id="SvgjsPattern1083"><path d="M4.11 1L4.11 7.220000000000001M1 4.11L7.220000000000001 4.11" stroke="#037b0b" fill="none" stroke-width="1.12"></path></pattern><clipPath id="SvgjsClipPath1082"><circle r="86.31" cx="127.71" cy="96.75"></circle></clipPath><pattern x="0" y="0" width="6" height="6" patternUnits="userSpaceOnUse" id="SvgjsPattern1085"><path d="M0 6L3 0L6 6" stroke="#e73635" fill="none"></path></pattern><clipPath id="SvgjsClipPath1084"><circle r="72" cx="1223.65" cy="419.23"></circle></clipPath><pattern x="0" y="0" width="95.48" height="6.82" patternUnits="userSpaceOnUse" id="SvgjsPattern1087"><rect width="95.48" height="3.41" x="0" y="0" fill="#d3b714"></rect><rect width="95.48" height="3.41" x="0" y="3.41" fill="rgba(0, 0, 0, 0)"></rect></pattern><clipPath id="SvgjsClipPath1086"><circle r="23.87" cx="427.53" cy="391.66"></circle></clipPath><pattern x="0" y="0" width="10.62" height="10.62" patternUnits="userSpaceOnUse" id="SvgjsPattern1089"><path d="M0 10.62L5.31 0L10.62 10.62" stroke="#e73635" fill="none"></path></pattern><clipPath id="SvgjsClipPath1088"><circle r="84.96" cx="71.88" cy="469.01"></circle></clipPath><pattern x="0" y="0" width="216" height="6" patternUnits="userSpaceOnUse" id="SvgjsPattern1091"><rect width="216" height="3" x="0" y="0" fill="#e73635"></rect><rect width="216" height="3" x="0" y="3" fill="rgba(0, 0, 0, 0)"></rect></pattern><clipPath id="SvgjsClipPath1090"><circle r="54" cx="1201.8" cy="207.96"></circle></clipPath></defs></svg>