<svg xmlns="http://www.w3.org/2000/svg" version="1.1" xmlns:xlink="http://www.w3.org/1999/xlink" xmlns:svgjs="http://svgjs.dev/svgjs" width="1440" height="560" preserveAspectRatio="none" viewBox="0 0 1440 560"><g mask="url(&quot;#SvgjsMask1022&quot;)" fill="none"><path d="M60.23 165.5L63.17 165.5L63.17 180.2L60.23 180.2z" stroke="#d3b714"></path><path d="M327.86 471.98L338.21 471.98L338.21 513.45L327.86 513.45z" stroke="#d3b714"></path><path d="M401.6 120.87L454.38 120.87L454.38 135.06L401.6 135.06z" stroke="#e73635"></path><path d="M524.69 113.98a36.54 36.54 0 1 0 40.14 61.07z" stroke="#d3b714"></path><path d="M508.47 571.44a39.42 39.42 0 1 0-74.99-24.35z" stroke="rgba(66, 68, 90, 1)"></path><path d="M665.76 487.93L688.57 487.93L688.57 510.74L665.76 510.74z" fill="rgba(66, 68, 90, 1)"></path><path d="M463.96 533.45a40.47 40.47 0 1 0-79.18-16.79z" stroke="#d3b714"></path><path d="M584.11 78.74L622.95 78.74L622.95 89.28L584.11 89.28z" stroke="#037b0b"></path><path d="M1128.91 4.18L1155.78 4.18L1155.78 7.55L1128.91 7.55z" fill="#e73635"></path><path d="M1107.57 276.18L1144.35 276.18L1144.35 312.96L1107.57 312.96z" stroke="#e73635"></path><path d="M833.22 500.31a26.26 26.26 0 1 0 12.84-50.92z" fill="#d3b714"></path><path d="M28.16 101.13a14.9 14.9 0 1 0 6.07-29.18z" fill="#e73635"></path><path d="M474.76 205.44 a51.78 51.78 0 1 0 103.56 0 a51.78 51.78 0 1 0 -103.56 0z" fill="#d3b714"></path><path d="M1243.86 288.01 a42.34 42.34 0 1 0 84.68 0 a42.34 42.34 0 1 0 -84.68 0z" fill="#037b0b"></path><path d="M1015.64 372.68a3.56 3.56 0 1 0 7.08-0.76z" stroke="#d3b714"></path><path d="M1386.78 366.94L1407.69 366.94L1407.69 387.85L1386.78 387.85z" stroke="#d3b714"></path><path d="M1110.69 526.82a53.29 53.29 0 1 0 104.72-19.82z" fill="#037b0b"></path><path d="M1141.22 438.17L1142.26 438.17L1142.26 481.69L1141.22 481.69z" fill="#e73635"></path><path d="M971.66 505.87L1026.79 505.87L1026.79 511.84L971.66 511.84z" fill="#037b0b"></path><path d="M631.67 205.57a8.46 8.46 0 1 0 15.36 7.08z" stroke="#e73635"></path><path d="M1004.47 279.03a27.9 27.9 0 1 0 18.42 52.68z" stroke="#e73635"></path><path d="M655.81 377.45 a37.42 37.42 0 1 0 74.84 0 a37.42 37.42 0 1 0 -74.84 0z" fill="#e73635"></path><path d="M1340.53 556.87L1374.01 556.87L1374.01 590.35L1340.53 590.35z" fill="#e73635"></path><path d="M442.17 357.82a4.39 4.39 0 1 0 3.71 7.96z" stroke="rgba(66, 68, 90, 1)"></path><path d="M1365.33 211.74L1413.55 211.74L1413.55 259.96L1365.33 259.96z" fill="rgba(66, 68, 90, 1)"></path><path d="M1174.44 493.72L1213.28 493.72L1213.28 518.17L1174.44 518.17z" stroke="#e73635"></path><path d="M277.63 83.21 a29.9 29.9 0 1 0 59.8 0 a29.9 29.9 0 1 0 -59.8 0z" fill="#e73635"></path><path d="M922.36 330.95a33.54 33.54 0 1 0-21.68-63.48z" fill="#037b0b"></path><path d="M1331.41 339.67a13.19 13.19 0 1 0 6.31-25.61z" stroke="#037b0b"></path><path d="M1215.13 266.34L1227.36 266.34L1227.36 270.69L1215.13 270.69z" fill="#037b0b"></path><path d="M1169.74 450.3a51.71 51.71 0 1 0 83.21 61.42z" fill="rgba(66, 68, 90, 1)"></path><path d="M772.14 277.16L805.18 277.16L805.18 279.35L772.14 279.35z" stroke="#037b0b"></path><path d="M1381.09 401.09 a19.17 19.17 0 1 0 38.34 0 a19.17 19.17 0 1 0 -38.34 0z" fill="rgba(66, 68, 90, 1)"></path></g><defs><mask id="SvgjsMask1022"><rect width="1440" height="560" fill="#ffffff"></rect></mask></defs></svg>