<svg xmlns="http://www.w3.org/2000/svg" version="1.1" xmlns:xlink="http://www.w3.org/1999/xlink" xmlns:svgjs="http://svgjs.dev/svgjs" width="1440" height="560" preserveAspectRatio="none" viewBox="0 0 1440 560"><g mask="url(&quot;#SvgjsMask1017&quot;)" fill="none"><path d="M1324.65 124.87 a40.22 40.22 0 1 0 80.44 0 a40.22 40.22 0 1 0 -80.44 0z" stroke="rgba(66, 68, 90, 1)"></path><path d="M226.68 11.92L272.89 11.92L272.89 62.58L226.68 62.58z" fill="#e73635"></path><path d="M611.08 505.04a33.82 33.82 0 1 0-38.37-55.71z" fill="#d3b714"></path><path d="M720.14 187.42L750.1 187.42L750.1 217.38L720.14 217.38z" fill="rgba(66, 68, 90, 1)"></path><path d="M1371.93 12.85a50.28 50.28 0 1 0 72.24 69.96z" stroke="#037b0b"></path><path d="M891.7 543.95L927.7 543.95L927.7 579.95L891.7 579.95z" stroke="rgba(66, 68, 90, 1)"></path><path d="M376.83 453.01 a6.32 6.32 0 1 0 12.64 0 a6.32 6.32 0 1 0 -12.64 0z" fill="#d3b714"></path><path d="M651.33 513.6a19.71 19.71 0 1 0-8.12-38.58z" fill="#d3b714"></path><path d="M662.2 457.66 a42.38 42.38 0 1 0 84.76 0 a42.38 42.38 0 1 0 -84.76 0z" fill="#d3b714"></path><path d="M238.99 292.96 a28.32 28.32 0 1 0 56.64 0 a28.32 28.32 0 1 0 -56.64 0z" stroke="#037b0b"></path><path d="M1415.96 296.97a31.19 31.19 0 1 0-61.04-12.89z" stroke="rgba(66, 68, 90, 1)"></path><path d="M379.99 264.89a51.05 51.05 0 1 0-4.47-102z" stroke="#e73635"></path><path d="M632.34 545.78L633.54 545.78L633.54 546.98L632.34 546.98z" stroke="#037b0b"></path><path d="M377.21 111.48 a7.63 7.63 0 1 0 15.26 0 a7.63 7.63 0 1 0 -15.26 0z" fill="#d3b714"></path><path d="M303.55 65.34a42.19 42.19 0 1 0-77.33 33.75z" fill="#037b0b"></path><path d="M563.15 104.33L599.87 104.33L599.87 140.44L563.15 140.44z" fill="#e73635"></path><path d="M152.84 558.4L166.94 558.4L166.94 576.44L152.84 576.44z" stroke="#037b0b"></path><path d="M695.52-15.92a40.86 40.86 0 1 0-22.27 78.63z" fill="#037b0b"></path><path d="M303.51 410.36a38.49 38.49 0 1 0 3.16 76.91z" stroke="#037b0b"></path><path d="M685.79 325.03L733.95 325.03L733.95 361.06L685.79 361.06z" stroke="#d3b714"></path><path d="M923.89 283.4L941.91 283.4L941.91 323.91L923.89 323.91z" stroke="#037b0b"></path><path d="M881.24 176.96 a50.62 50.62 0 1 0 101.24 0 a50.62 50.62 0 1 0 -101.24 0z" stroke="rgba(66, 68, 90, 1)"></path><path d="M109.48 304.88 a4 4 0 1 0 8 0 a4 4 0 1 0 -8 0z" fill="#e73635"></path><path d="M124.25 476.36 a21.21 21.21 0 1 0 42.42 0 a21.21 21.21 0 1 0 -42.42 0z" stroke="#e73635"></path><path d="M936.08 219.51 a42.61 42.61 0 1 0 85.22 0 a42.61 42.61 0 1 0 -85.22 0z" fill="#037b0b"></path><path d="M641.29 156.08a17.08 17.08 0 1 0-5.97 33.63z" fill="#037b0b"></path><path d="M1188.37 427.27 a25.33 25.33 0 1 0 50.66 0 a25.33 25.33 0 1 0 -50.66 0z" fill="#d3b714"></path><path d="M311.24 510.16L326.7 510.16L326.7 512.05L311.24 512.05z" fill="#d3b714"></path><path d="M555.27 80.39L562.96 80.39L562.96 88.08L555.27 88.08z" fill="#d3b714"></path><path d="M1436.86 62.53 a0.06 0.06 0 1 0 0.12 0 a0.06 0.06 0 1 0 -0.12 0z" stroke="rgba(66, 68, 90, 1)"></path><path d="M961.53 556.32a2.71 2.71 0 1 0 0.12-5.41z" stroke="#d3b714"></path><path d="M748.03 479.61L788.3 479.61L788.3 483.1L748.03 483.1z" fill="#d3b714"></path><path d="M286.42 4.55L342.19 4.55L342.19 60.32L286.42 60.32z" fill="#e73635"></path></g><defs><mask id="SvgjsMask1017"><rect width="1440" height="560" fill="#ffffff"></rect></mask></defs></svg>