<svg xmlns="http://www.w3.org/2000/svg" version="1.1" xmlns:xlink="http://www.w3.org/1999/xlink" xmlns:svgjs="http://svgjs.dev/svgjs" width="1440" height="560" preserveAspectRatio="none" viewBox="0 0 1440 560"><g mask="url(&quot;#SvgjsMask1030&quot;)" fill="none"><path d="M1162.97 528.14L1167.21 528.14L1167.21 539.01L1162.97 539.01z" fill="#037b0b"></path><path d="M1228.95 154.79L1232.59 154.79L1232.59 158.43L1228.95 158.43z" fill="#037b0b"></path><path d="M1072.87 6.2L1088.78 6.2L1088.78 22.11L1072.87 22.11z" fill="#e73635"></path><path d="M966.46 28.56a33.47 33.47 0 1 0 15.83 65.05z" stroke="#d3b714"></path><path d="M1189.84 63.15L1190.18 63.15L1190.18 85.45L1189.84 85.45z" stroke="#037b0b"></path><path d="M476.85 144.46a37.99 37.99 0 1 0-40.89 64.04z" fill="#037b0b"></path><path d="M1115.77 268.13L1123.24 268.13L1123.24 275.6L1115.77 275.6z" fill="rgba(66, 68, 90, 1)"></path><path d="M1415.74 460.33a22.28 22.28 0 1 0 34.85 27.76z" fill="rgba(66, 68, 90, 1)"></path><path d="M488.54 462.27 a46.06 46.06 0 1 0 92.12 0 a46.06 46.06 0 1 0 -92.12 0z" fill="rgba(66, 68, 90, 1)"></path><path d="M1017.38 344.46L1068.98 344.46L1068.98 396.06L1017.38 396.06z" stroke="#037b0b"></path><path d="M589.37 297.9a34.88 34.88 0 1 0 25.96-64.75z" stroke="rgba(66, 68, 90, 1)"></path><path d="M1438.69 142.58L1459.72 142.58L1459.72 172.29L1438.69 172.29z" stroke="#037b0b"></path><path d="M296.82 403.51L300.46 403.51L300.46 439.27L296.82 439.27z" fill="#037b0b"></path><path d="M37.7 528.4L51.48 528.4L51.48 540.9L37.7 540.9z" stroke="#037b0b"></path><path d="M974.23 74.65 a19.02 19.02 0 1 0 38.04 0 a19.02 19.02 0 1 0 -38.04 0z" fill="#037b0b"></path><path d="M-2.69 288.87a14.27 14.27 0 1 0 22.05-18.12z" fill="rgba(66, 68, 90, 1)"></path><path d="M172.27 11.9L221.09 11.9L221.09 60.72L172.27 60.72z" stroke="#037b0b"></path><path d="M1174.66 313.05 a19.54 19.54 0 1 0 39.08 0 a19.54 19.54 0 1 0 -39.08 0z" fill="rgba(66, 68, 90, 1)"></path><path d="M78.41 388.34a10.65 10.65 0 1 0-13.16-16.75z" stroke="#037b0b"></path><path d="M671.36 504.93L690.87 504.93L690.87 548.92L671.36 548.92z" stroke="#e73635"></path><path d="M1018.39 448.21L1062.1 448.21L1062.1 491.92L1018.39 491.92z" fill="#e73635"></path><path d="M1244.55 35.83a45.98 45.98 0 1 0-91.93 2.36z" stroke="#e73635"></path><path d="M44.04 387.92L66.58 387.92L66.58 414.09L44.04 414.09z" fill="#d3b714"></path><path d="M1148.15 504.57L1182.43 504.57L1182.43 538.85L1148.15 538.85z" fill="#037b0b"></path><path d="M1041.21 43.72 a48.75 48.75 0 1 0 97.5 0 a48.75 48.75 0 1 0 -97.5 0z" fill="#d3b714"></path><path d="M76.63 60.89a26.17 26.17 0 1 0-25.98 45.43z" fill="#d3b714"></path><path d="M920.47 419.69 a36.28 36.28 0 1 0 72.56 0 a36.28 36.28 0 1 0 -72.56 0z" stroke="#d3b714"></path><path d="M1177.81 468.31L1214.49 468.31L1214.49 516.33L1177.81 516.33z" stroke="#037b0b"></path><path d="M1221.01 558.4a20.71 20.71 0 1 0 38.24-15.92z" fill="#e73635"></path><path d="M218.32 429.92L244.2 429.92L244.2 434.11L218.32 434.11z" stroke="rgba(66, 68, 90, 1)"></path><path d="M506.68 397.39 a21.93 21.93 0 1 0 43.86 0 a21.93 21.93 0 1 0 -43.86 0z" fill="#e73635"></path><path d="M1411.67 41.7L1464.45 41.7L1464.45 86.3L1411.67 86.3z" fill="#e73635"></path><path d="M307.04 265.69a22.7 22.7 0 1 0 44.84 7.12z" stroke="#e73635"></path></g><defs><mask id="SvgjsMask1030"><rect width="1440" height="560" fill="#ffffff"></rect></mask></defs></svg>