<svg xmlns="http://www.w3.org/2000/svg" version="1.1" xmlns:xlink="http://www.w3.org/1999/xlink" xmlns:svgjs="http://svgjs.dev/svgjs" width="1440" height="560" preserveAspectRatio="none" viewBox="0 0 1440 560"><g mask="url(&quot;#SvgjsMask1020&quot;)" fill="none"><path d="M1088.96 105.42L1112.43 105.42L1112.43 137.9L1088.96 137.9z" fill="#e73635"></path><path d="M720.41 460.91 a46.53 46.53 0 1 0 93.06 0 a46.53 46.53 0 1 0 -93.06 0z" fill="#037b0b"></path><path d="M1435.27 349.7a10.88 10.88 0 1 0 5.27-21.11z" fill="#037b0b"></path><path d="M1182.51 450.58L1197.85 450.58L1197.85 455.26L1182.51 455.26z" stroke="#e73635"></path><path d="M241.78 378.71a43.29 43.29 0 1 0 38.39-77.6z" stroke="#037b0b"></path><path d="M856.79 227.66L878.23 227.66L878.23 249.1L856.79 249.1z" fill="#d3b714"></path><path d="M365.06 418.35a18.51 18.51 0 1 0-15.4-33.67z" stroke="#e73635"></path><path d="M1131.69 266.25 a20.9 20.9 0 1 0 41.8 0 a20.9 20.9 0 1 0 -41.8 0z" fill="#037b0b"></path><path d="M1047.99 95.93L1061.93 95.93L1061.93 109.87L1047.99 109.87z" stroke="rgba(66, 68, 90, 1)"></path><path d="M484.62 444.38L517.27 444.38L517.27 449.03L484.62 449.03z" fill="#037b0b"></path><path d="M955.46 2.52 a32.89 32.89 0 1 0 65.78 0 a32.89 32.89 0 1 0 -65.78 0z" fill="rgba(66, 68, 90, 1)"></path><path d="M1242.84 488.24L1262.81 488.24L1262.81 508.21L1242.84 508.21z" stroke="#d3b714"></path><path d="M34.51 173.84 a9.63 9.63 0 1 0 19.26 0 a9.63 9.63 0 1 0 -19.26 0z" fill="#d3b714"></path><path d="M1077.66 430.36a38.27 38.27 0 1 0-72.54 24.43z" stroke="#d3b714"></path><path d="M294.67 26.42 a49.68 49.68 0 1 0 99.36 0 a49.68 49.68 0 1 0 -99.36 0z" stroke="rgba(66, 68, 90, 1)"></path><path d="M861.47 509.17 a54.91 54.91 0 1 0 109.82 0 a54.91 54.91 0 1 0 -109.82 0z" fill="#037b0b"></path><path d="M335.1 446.12 a26.02 26.02 0 1 0 52.04 0 a26.02 26.02 0 1 0 -52.04 0z" stroke="#e73635"></path><path d="M1169.6 447.2L1215.63 447.2L1215.63 466.55L1169.6 466.55z" stroke="#d3b714"></path><path d="M948.99 282.48L957.24 282.48L957.24 290.73L948.99 290.73z" fill="#037b0b"></path><path d="M509.54 240.83 a50.75 50.75 0 1 0 101.5 0 a50.75 50.75 0 1 0 -101.5 0z" stroke="rgba(66, 68, 90, 1)"></path><path d="M1333.48 264.07L1352.55 264.07L1352.55 283.14L1333.48 283.14z" stroke="#d3b714"></path><path d="M56.86 8.18L59.97 8.18L59.97 22.32L56.86 22.32z" stroke="#037b0b"></path><path d="M1367.82 187.33L1397.35 187.33L1397.35 216.86L1367.82 216.86z" stroke="#d3b714"></path><path d="M1234.83 32.43L1243.71 32.43L1243.71 41.31L1234.83 41.31z" stroke="rgba(66, 68, 90, 1)"></path><path d="M800.42 356.99 a39.81 39.81 0 1 0 79.62 0 a39.81 39.81 0 1 0 -79.62 0z" stroke="#e73635"></path><path d="M1009.73 367.54L1048.44 367.54L1048.44 406.25L1009.73 406.25z" stroke="#d3b714"></path><path d="M0.02 131.83L0.34 131.83L0.34 132.15L0.02 132.15z" fill="rgba(66, 68, 90, 1)"></path><path d="M602.41 424.5L613.88 424.5L613.88 453.28L602.41 453.28z" stroke="#d3b714"></path><path d="M278.35 7.21 a10.84 10.84 0 1 0 21.68 0 a10.84 10.84 0 1 0 -21.68 0z" fill="#e73635"></path><path d="M789 490.11 a52.92 52.92 0 1 0 105.84 0 a52.92 52.92 0 1 0 -105.84 0z" stroke="rgba(66, 68, 90, 1)"></path><path d="M-42.77 410.28 a49.84 49.84 0 1 0 99.68 0 a49.84 49.84 0 1 0 -99.68 0z" fill="#d3b714"></path><path d="M523.17 371.07L531.55 371.07L531.55 423.2L523.17 423.2z" fill="#e73635"></path><path d="M429.03 194.9L469.19 194.9L469.19 197.19L429.03 197.19z" stroke="#037b0b"></path></g><defs><mask id="SvgjsMask1020"><rect width="1440" height="560" fill="#ffffff"></rect></mask></defs></svg>