<svg xmlns="http://www.w3.org/2000/svg" version="1.1" xmlns:xlink="http://www.w3.org/1999/xlink" xmlns:svgjs="http://svgjs.dev/svgjs" width="1440" height="560" preserveAspectRatio="none" viewBox="0 0 1440 560"><g mask="url(&quot;#SvgjsMask1012&quot;)" fill="none"><path d="M56.16 73.27L90.88 73.27L90.88 97.82L56.16 97.82z" stroke="rgba(66, 68, 90, 1)"></path><path d="M770.94 384.76 a5.16 5.16 0 1 0 10.32 0 a5.16 5.16 0 1 0 -10.32 0z" stroke="#e73635"></path><path d="M460.93 335.32L482.4 335.32L482.4 365.72L460.93 365.72z" stroke="rgba(66, 68, 90, 1)"></path><path d="M207.43 546.65L257.83 546.65L257.83 597.05L207.43 597.05z" fill="#d3b714"></path><path d="M530.98 71.87 a46.62 46.62 0 1 0 93.24 0 a46.62 46.62 0 1 0 -93.24 0z" fill="rgba(66, 68, 90, 1)"></path><path d="M703.2 522.32L712.33 522.32L712.33 531.45L703.2 531.45z" stroke="#037b0b"></path><path d="M136.86 363 a38.18 38.18 0 1 0 76.36 0 a38.18 38.18 0 1 0 -76.36 0z" stroke="#d3b714"></path><path d="M1152.47 216.02a26.87 26.87 0 1 0 15.5-51.45z" stroke="#e73635"></path><path d="M56.56 66.76 a25.17 25.17 0 1 0 50.34 0 a25.17 25.17 0 1 0 -50.34 0z" fill="#e73635"></path><path d="M1145.55 548.88L1171.64 548.88L1171.64 597.47L1145.55 597.47z" stroke="#e73635"></path><path d="M1114.08 65.34L1117.67 65.34L1117.67 108.37L1114.08 108.37z" stroke="rgba(66, 68, 90, 1)"></path><path d="M1168.61 64.63 a34.28 34.28 0 1 0 68.56 0 a34.28 34.28 0 1 0 -68.56 0z" stroke="#037b0b"></path><path d="M1090.55 452.44L1113.91 452.44L1113.91 475.8L1090.55 475.8z" fill="#e73635"></path><path d="M1387.79 182.62 a14.85 14.85 0 1 0 29.7 0 a14.85 14.85 0 1 0 -29.7 0z" stroke="rgba(66, 68, 90, 1)"></path><path d="M1127.05 247.08L1139.36 247.08L1139.36 301.54L1127.05 301.54z" stroke="#037b0b"></path><path d="M1236.68 304.56a28.45 28.45 0 1 0-16.49 54.46z" stroke="#e73635"></path><path d="M481.86 45.55L526.48 45.55L526.48 89.39L481.86 89.39z" fill="rgba(66, 68, 90, 1)"></path><path d="M131.34 92.04a48.07 48.07 0 1 0-32.32-90.54z" stroke="rgba(66, 68, 90, 1)"></path><path d="M225.63 418.39L232.14 418.39L232.14 454.23L225.63 454.23z" stroke="#e73635"></path><path d="M1346.99 184.07 a46.1 46.1 0 1 0 92.2 0 a46.1 46.1 0 1 0 -92.2 0z" fill="#037b0b"></path><path d="M498.9 221.67a36.86 36.86 0 1 0 27.76-68.29z" fill="#037b0b"></path><path d="M1172.5 446.19a35.29 35.29 0 1 0-70.24 7z" stroke="rgba(66, 68, 90, 1)"></path><path d="M136.43 230.75L138.43 230.75L138.43 255.93L136.43 255.93z" stroke="#e73635"></path><path d="M117.21 508.1a40.41 40.41 0 1 0 67.9 43.83z" stroke="rgba(66, 68, 90, 1)"></path><path d="M911.66 123.49L935.49 123.49L935.49 147.32L911.66 147.32z" fill="#d3b714"></path><path d="M259.56 472.65a17.31 17.31 0 1 0 6.91 33.92z" fill="#d3b714"></path><path d="M939.96 8.84L991.22 8.84L991.22 10.42L939.96 10.42z" fill="rgba(66, 68, 90, 1)"></path><path d="M1396.76 572.7a17.15 17.15 0 1 0 9.72-32.89z" stroke="#e73635"></path><path d="M720.88 245.29L771.38 245.29L771.38 295.79L720.88 295.79z" stroke="#037b0b"></path><path d="M284.18 234.93a18.68 18.68 0 1 0 31.82-19.59z" fill="#037b0b"></path><path d="M1044.73 350.42L1076.4 350.42L1076.4 382.09L1044.73 382.09z" fill="#037b0b"></path><path d="M82.85 98.94a27.67 27.67 0 1 0 7.61-54.81z" stroke="#e73635"></path><path d="M428.88 391.28a17.35 17.35 0 1 0 12.54 32.36z" fill="#e73635"></path></g><defs><mask id="SvgjsMask1012"><rect width="1440" height="560" fill="#ffffff"></rect></mask></defs></svg>