<svg xmlns="http://www.w3.org/2000/svg" version="1.1" xmlns:xlink="http://www.w3.org/1999/xlink" xmlns:svgjs="http://svgjs.dev/svgjs" width="1440" height="560" preserveAspectRatio="none" viewBox="0 0 1440 560"><g mask="url(&quot;#SvgjsMask1027&quot;)" fill="none"><path d="M1060.66 210.73L1100.46 210.73L1100.46 235.97L1060.66 235.97z" stroke="rgba(66, 68, 90, 1)"></path><path d="M132.38 462.37a22.47 22.47 0 1 0 11.9 43.33z" fill="#e73635"></path><path d="M1176.13 536.41L1217.85 536.41L1217.85 578.13L1176.13 578.13z" fill="rgba(66, 68, 90, 1)"></path><path d="M481.42 140.05 a22.81 22.81 0 1 0 45.62 0 a22.81 22.81 0 1 0 -45.62 0z" fill="#d3b714"></path><path d="M1338.85 337.97L1342.84 337.97L1342.84 341.96L1338.85 341.96z" fill="#037b0b"></path><path d="M456.43 392.81L476.69 392.81L476.69 424.54L456.43 424.54z" stroke="#e73635"></path><path d="M422.93 476.62L478.56 476.62L478.56 487.24L422.93 487.24z" fill="#037b0b"></path><path d="M1003.81 383.01 a3.18 3.18 0 1 0 6.36 0 a3.18 3.18 0 1 0 -6.36 0z" fill="#e73635"></path><path d="M688.82 137.12L695.93 137.12L695.93 144.23L688.82 144.23z" fill="#e73635"></path><path d="M1300.91 189.47L1305.07 189.47L1305.07 193.63L1300.91 193.63z" stroke="#e73635"></path><path d="M1304.44 273.99L1337.32 273.99L1337.32 306.87L1304.44 306.87z" stroke="#e73635"></path><path d="M576.74 101.56 a43.47 43.47 0 1 0 86.94 0 a43.47 43.47 0 1 0 -86.94 0z" fill="#d3b714"></path><path d="M655.72 348.05a19.54 19.54 0 1 0-15.58-35.84z" stroke="#d3b714"></path><path d="M382.44 344.48a46.21 46.21 0 1 0 81.58 43.43z" fill="#037b0b"></path><path d="M541.02 473.61 a43.35 43.35 0 1 0 86.7 0 a43.35 43.35 0 1 0 -86.7 0z" stroke="#d3b714"></path><path d="M1081.75 529.4L1114.73 529.4L1114.73 562.38L1081.75 562.38z" stroke="#d3b714"></path><path d="M1380.31 272.62 a10.56 10.56 0 1 0 21.12 0 a10.56 10.56 0 1 0 -21.12 0z" stroke="#d3b714"></path><path d="M1124.34 199.6L1166.22 199.6L1166.22 207.64L1124.34 207.64z" stroke="rgba(66, 68, 90, 1)"></path><path d="M742.82 293.2L776.96 293.2L776.96 346.89L742.82 346.89z" stroke="rgba(66, 68, 90, 1)"></path><path d="M161.52 47.5L200.09 47.5L200.09 86.07L161.52 86.07z" stroke="#d3b714"></path><path d="M105.62 514.43L120.08 514.43L120.08 528.89L105.62 528.89z" fill="#037b0b"></path><path d="M671.63 192.12L722.56 192.12L722.56 204.03L671.63 204.03z" stroke="#d3b714"></path><path d="M281.59 411.6a36.54 36.54 0 1 0 0.65 73.08z" stroke="rgba(66, 68, 90, 1)"></path><path d="M695.94 179.26a24.47 24.47 0 1 0 47.72-10.86z" stroke="#e73635"></path><path d="M1321.41 46.35L1354.46 46.35L1354.46 79.4L1321.41 79.4z" stroke="#037b0b"></path><path d="M4.46 484.42a8.51 8.51 0 1 0 11.54 12.51z" fill="#d3b714"></path><path d="M68.15 46a32.56 32.56 0 1 0-64.66-7.73z" fill="#d3b714"></path><path d="M204.01 239.8L256.95 239.8L256.95 267.17L204.01 267.17z" fill="#d3b714"></path><path d="M696.39 35.55a7.97 7.97 0 1 0-15.91 1.04z" fill="#037b0b"></path><path d="M1041.22 502.77a38.65 38.65 0 1 0-52.15-57.06z" stroke="#d3b714"></path><path d="M745.22 526.12L751.85 526.12L751.85 532.75L745.22 532.75z" fill="#d3b714"></path><path d="M746.02 343.55L754.69 343.55L754.69 352.22L746.02 352.22z" stroke="#037b0b"></path><path d="M707.87 132.51a21.15 21.15 0 1 0 16.46 38.96z" stroke="#d3b714"></path></g><defs><mask id="SvgjsMask1027"><rect width="1440" height="560" fill="#ffffff"></rect></mask></defs></svg>