<svg xmlns="http://www.w3.org/2000/svg" version="1.1" xmlns:xlink="http://www.w3.org/1999/xlink" xmlns:svgjs="http://svgjs.dev/svgjs" width="1440" height="560" preserveAspectRatio="none" viewBox="0 0 1440 560"><g mask="url(&quot;#SvgjsMask1019&quot;)" fill="none"><path d="M1104.73 299.6a22.62 22.62 0 1 0-26.71 36.51z" fill="#037b0b"></path><path d="M1130.57 401.88L1154.4 401.88L1154.4 425.71L1130.57 425.71z" stroke="#037b0b"></path><path d="M269.27 245.67 a8.56 8.56 0 1 0 17.12 0 a8.56 8.56 0 1 0 -17.12 0z" stroke="#d3b714"></path><path d="M380.59 291.47L387.38 291.47L387.38 306.24L380.59 306.24z" fill="#d3b714"></path><path d="M346.06 543.05L381.99 543.05L381.99 579.58L346.06 579.58z" stroke="#d3b714"></path><path d="M489.71 481.19L499.73 481.19L499.73 531.71L489.71 531.71z" fill="#e73635"></path><path d="M71.26 267.43L80.27 267.43L80.27 317.68L71.26 317.68z" stroke="#d3b714"></path><path d="M1397.44 60.51 a25.63 25.63 0 1 0 51.26 0 a25.63 25.63 0 1 0 -51.26 0z" fill="#e73635"></path><path d="M1291.43 262.61L1335.07 262.61L1335.07 275.82L1291.43 275.82z" fill="rgba(66, 68, 90, 1)"></path><path d="M1193.94 273.08L1223.3 273.08L1223.3 302.44L1193.94 302.44z" stroke="#037b0b"></path><path d="M823.41 564.54a17.4 17.4 0 1 0 32.54-12.32z" fill="#d3b714"></path><path d="M1002.63 283.38 a38.75 38.75 0 1 0 77.5 0 a38.75 38.75 0 1 0 -77.5 0z" fill="#e73635"></path><path d="M882.58 134.59L896.36 134.59L896.36 148.37L882.58 148.37z" stroke="#037b0b"></path><path d="M914.68 387.57a53.25 53.25 0 1 0 42.01 97.86z" stroke="#d3b714"></path><path d="M466.1 239.96 a21.2 21.2 0 1 0 42.4 0 a21.2 21.2 0 1 0 -42.4 0z" fill="rgba(66, 68, 90, 1)"></path><path d="M1298.82 343.83 a26.72 26.72 0 1 0 53.44 0 a26.72 26.72 0 1 0 -53.44 0z" stroke="#d3b714"></path><path d="M1268.65 77.27L1288.07 77.27L1288.07 96.69L1268.65 96.69z" stroke="#e73635"></path><path d="M1187.71 549.6L1209.04 549.6L1209.04 570.93L1187.71 570.93z" stroke="#e73635"></path><path d="M1052.78 57.65a49.43 49.43 0 1 0-93.84-31.1z" stroke="#d3b714"></path><path d="M107.9 302.65 a27.78 27.78 0 1 0 55.56 0 a27.78 27.78 0 1 0 -55.56 0z" fill="#e73635"></path><path d="M1300.31 355.83L1317.73 355.83L1317.73 373.25L1300.31 373.25z" stroke="#e73635"></path><path d="M155.02 452.1L182.57 452.1L182.57 497.96L155.02 497.96z" stroke="#d3b714"></path><path d="M1177.28 361.43L1224 361.43L1224 393.88L1177.28 393.88z" fill="#d3b714"></path><path d="M576.43 351.24L618.2 351.24L618.2 393.01L576.43 393.01z" fill="#e73635"></path><path d="M1425.51 100.81L1430.88 100.81L1430.88 106.18L1425.51 106.18z" fill="rgba(66, 68, 90, 1)"></path><path d="M606.74 415.42a49.67 49.67 0 1 0-99.33 0.96z" stroke="#e73635"></path><path d="M217.79 502.95L244.38 502.95L244.38 536.08L217.79 536.08z" stroke="#e73635"></path><path d="M608.23 417.81 a11.27 11.27 0 1 0 22.54 0 a11.27 11.27 0 1 0 -22.54 0z" stroke="#d3b714"></path><path d="M849.32 453.45 a53.04 53.04 0 1 0 106.08 0 a53.04 53.04 0 1 0 -106.08 0z" stroke="#d3b714"></path><path d="M1139.71 549.43a39.25 39.25 0 1 0 0.41-78.5z" stroke="#d3b714"></path><path d="M901.64 372.89L948.54 372.89L948.54 418.37L901.64 418.37z" stroke="#d3b714"></path><path d="M238.62 428.7a47.03 47.03 0 1 0 87.38-34.8z" stroke="rgba(66, 68, 90, 1)"></path><path d="M747.16 388.35a23.78 23.78 0 1 0-42.68-20.98z" fill="#037b0b"></path></g><defs><mask id="SvgjsMask1019"><rect width="1440" height="560" fill="#ffffff"></rect></mask></defs></svg>