<svg xmlns="http://www.w3.org/2000/svg" version="1.1" xmlns:xlink="http://www.w3.org/1999/xlink" xmlns:svgjs="http://svgjs.dev/svgjs" width="1440" height="560" preserveAspectRatio="none" viewBox="0 0 1440 560"><g mask="url(&quot;#SvgjsMask1103&quot;)" fill="none"><circle r="64.65158279818762" cx="1367.69" cy="479.06" fill="#d3b714"></circle><rect width="272.15999999999997" height="272.15999999999997" clip-path="url(&quot;#SvgjsClipPath1104&quot;)" x="926.41" y="-11.3" fill="url(&quot;#SvgjsPattern1105&quot;)" transform="rotate(117.43, 1062.49, 124.78)"></rect><path d="M578.96 211.46 L540.53 369.45000000000005L456.18939169901023 186.8993916990103z" stroke="#d3b714" stroke-width="2.82" stroke-dasharray="4, 4"></path><path d="M765.5999999999999 526.29 L735.3499999999999 414.95L814.6849867118932 406.41001328810665z" fill="#d3b714"></path><rect width="97.2" height="97.2" clip-path="url(&quot;#SvgjsClipPath1106&quot;)" x="993.48" y="410.06" fill="url(&quot;#SvgjsPattern1107&quot;)" transform="rotate(246.55, 1042.08, 458.66)"></rect><circle r="46.666666666666664" cx="1354.48" cy="174.52" stroke="#d3b714" stroke-width="2.99"></circle><path d="M894.22 67.72 L833.98 17.189999999999998L815.8532445262657 90.70175547373435z" stroke="#037b0b" stroke-width="2.95" stroke-dasharray="3, 2"></path><rect width="288" height="288" clip-path="url(&quot;#SvgjsClipPath1108&quot;)" x="845.93" y="16.17" fill="url(&quot;#SvgjsPattern1109&quot;)" transform="rotate(227.06, 989.93, 160.17)"></rect><rect width="60" height="60" clip-path="url(&quot;#SvgjsClipPath1110&quot;)" x="783.31" y="176.02" fill="url(&quot;#SvgjsPattern1111&quot;)" transform="rotate(4.41, 813.31, 206.02)"></rect><rect width="104.8" height="104.8" clip-path="url(&quot;#SvgjsClipPath1112&quot;)" x="866.34" y="378.59" fill="url(&quot;#SvgjsPattern1113&quot;)" transform="rotate(143.31, 918.74, 430.99)"></rect><path d="M584.31 220.96 L454.83 84.5L629.343463538519 42.956536461480894z" fill="#e73635"></path><rect width="156.96" height="156.96" clip-path="url(&quot;#SvgjsClipPath1114&quot;)" x="587.24" y="323.42" fill="url(&quot;#SvgjsPattern1115&quot;)" transform="rotate(207.88, 665.72, 401.9)"></rect></g><defs><mask id="SvgjsMask1103"><rect width="1440" height="560" fill="#ffffff"></rect></mask><pattern x="0" y="0" width="7.56" height="7.56" patternUnits="userSpaceOnUse" id="SvgjsPattern1105"><path d="M0 7.56L3.78 0L7.56 7.56" stroke="#037b0b" fill="none"></path></pattern><clipPath id="SvgjsClipPath1104"><circle r="68.03999999999999" cx="1062.49" cy="124.78"></circle></clipPath><pattern x="0" y="0" width="9.72" height="9.72" patternUnits="userSpaceOnUse" id="SvgjsPattern1107"><path d="M0 9.72L4.86 0L9.72 9.72" stroke="#e73635" fill="none"></path></pattern><clipPath id="SvgjsClipPath1106"><circle r="24.3" cx="1042.08" cy="458.66"></circle></clipPath><pattern x="0" y="0" width="288" height="6" patternUnits="userSpaceOnUse" id="SvgjsPattern1109"><rect width="288" height="3" x="0" y="0" fill="#037b0b"></rect><rect width="288" height="3" x="0" y="3" fill="rgba(0, 0, 0, 0)"></rect></pattern><clipPath id="SvgjsClipPath1108"><circle r="72" cx="989.93" cy="160.17"></circle></clipPath><pattern x="0" y="0" width="6" height="6" patternUnits="userSpaceOnUse" id="SvgjsPattern1111"><path d="M3 1L3 5M1 3L5 3" stroke="#e73635" fill="none" stroke-width="1"></path></pattern><clipPath id="SvgjsClipPath1110"><circle r="15" cx="813.31" cy="206.02"></circle></clipPath><pattern x="0" y="0" width="104.8" height="10.48" patternUnits="userSpaceOnUse" id="SvgjsPattern1113"><rect width="104.8" height="5.24" x="0" y="0" fill="#e73635"></rect><rect width="104.8" height="5.24" x="0" y="5.24" fill="rgba(0, 0, 0, 0)"></rect></pattern><clipPath id="SvgjsClipPath1112"><circle r="26.2" cx="918.74" cy="430.99"></circle></clipPath><pattern x="0" y="0" width="13.08" height="13.08" patternUnits="userSpaceOnUse" id="SvgjsPattern1115"><path d="M0 13.08L6.54 0L13.08 13.08" stroke="#e73635" fill="none"></path></pattern><clipPath id="SvgjsClipPath1114"><circle r="39.24" cx="665.72" cy="401.9"></circle></clipPath></defs></svg>