<svg xmlns="http://www.w3.org/2000/svg" version="1.1" xmlns:xlink="http://www.w3.org/1999/xlink" xmlns:svgjs="http://svgjs.dev/svgjs" width="1440" height="560" preserveAspectRatio="none" viewBox="0 0 1440 560"><g mask="url(&quot;#SvgjsMask1031&quot;)" fill="none"><path d="M914.55 362.42 a0.41 0.41 0 1 0 0.82 0 a0.41 0.41 0 1 0 -0.82 0z" fill="#e73635"></path><path d="M362.75 371.86L363.34 371.86L363.34 409.83L362.75 409.83z" fill="#037b0b"></path><path d="M88.05 15.5L108.76 15.5L108.76 47.19L88.05 47.19z" stroke="#037b0b"></path><path d="M1179.24 452.86a41.25 41.25 0 1 0-4.03 82.4z" fill="#d3b714"></path><path d="M1158.73 118.85 a43.88 43.88 0 1 0 87.76 0 a43.88 43.88 0 1 0 -87.76 0z" fill="#e73635"></path><path d="M1146.73 68.78L1172.22 68.78L1172.22 108.74L1146.73 108.74z" stroke="#037b0b"></path><path d="M759.96 114.91a54.38 54.38 0 1 0-81.4 72.14z" stroke="rgba(66, 68, 90, 1)"></path><path d="M814.06 372.19L868.73 372.19L868.73 426.86L814.06 426.86z" stroke="#d3b714"></path><path d="M536.09 161.14L556.57 161.14L556.57 204.19L536.09 204.19z" fill="#e73635"></path><path d="M1014.69 92.55L1046.05 92.55L1046.05 138.04L1014.69 138.04z" fill="rgba(66, 68, 90, 1)"></path><path d="M146.04 371.11L155.96 371.11L155.96 396.39L146.04 396.39z" stroke="#e73635"></path><path d="M164.64 561.66a49.98 49.98 0 1 0-99.07-13.31z" stroke="#037b0b"></path><path d="M443.42 363.8 a42.37 42.37 0 1 0 84.74 0 a42.37 42.37 0 1 0 -84.74 0z" stroke="rgba(66, 68, 90, 1)"></path><path d="M860.08 372.54 a15.6 15.6 0 1 0 31.2 0 a15.6 15.6 0 1 0 -31.2 0z" stroke="rgba(66, 68, 90, 1)"></path><path d="M428.14 31.94a37.37 37.37 0 1 0 17.51 72.66z" stroke="#e73635"></path><path d="M623.79 245.46a10.3 10.3 0 1 0-7.79 19.07z" stroke="#037b0b"></path><path d="M158.53 275.02L168.34 275.02L168.34 284.83L158.53 284.83z" stroke="rgba(66, 68, 90, 1)"></path><path d="M52.55 420.71L85.9 420.71L85.9 435.88L52.55 435.88z" fill="#d3b714"></path><path d="M280.42 341.44 a11.65 11.65 0 1 0 23.3 0 a11.65 11.65 0 1 0 -23.3 0z" fill="rgba(66, 68, 90, 1)"></path><path d="M1427.98 238.83L1430.64 238.83L1430.64 240.32L1427.98 240.32z" stroke="rgba(66, 68, 90, 1)"></path><path d="M157.86 419.25 a19.4 19.4 0 1 0 38.8 0 a19.4 19.4 0 1 0 -38.8 0z" fill="#037b0b"></path><path d="M1063.57 14.09a16.13 16.13 0 1 0-30.89 9.29z" fill="rgba(66, 68, 90, 1)"></path><path d="M841.59 139.05L858.82 139.05L858.82 155.21L841.59 155.21z" stroke="#d3b714"></path><path d="M496.51 424.64 a2.59 2.59 0 1 0 5.18 0 a2.59 2.59 0 1 0 -5.18 0z" stroke="#e73635"></path><path d="M1037.35 426.48L1051.28 426.48L1051.28 461.77L1037.35 461.77z" stroke="#037b0b"></path><path d="M514.36 394.29a55.24 55.24 0 1 0-37.43 103.95z" stroke="#037b0b"></path><path d="M183.97 175.02a55.3 55.3 0 1 0-110.54 3.81z" stroke="#d3b714"></path><path d="M32.75 292.53L79.53 292.53L79.53 327.41L32.75 327.41z" stroke="#e73635"></path><path d="M1086.75 540.93L1136.87 540.93L1136.87 566.64L1086.75 566.64z" stroke="rgba(66, 68, 90, 1)"></path><path d="M1055.28 9.42 a33.72 33.72 0 1 0 67.44 0 a33.72 33.72 0 1 0 -67.44 0z" fill="rgba(66, 68, 90, 1)"></path><path d="M695.2 25.07L738.67 25.07L738.67 47.76L695.2 47.76z" stroke="rgba(66, 68, 90, 1)"></path><path d="M148.79 149L187.62 149L187.62 170.09L148.79 170.09z" fill="#e73635"></path><path d="M279.95 331.13a33.08 33.08 0 1 0-1.54 66.15z" fill="#d3b714"></path></g><defs><mask id="SvgjsMask1031"><rect width="1440" height="560" fill="#ffffff"></rect></mask></defs></svg>