<svg xmlns="http://www.w3.org/2000/svg" version="1.1" xmlns:xlink="http://www.w3.org/1999/xlink" xmlns:svgjs="http://svgjs.dev/svgjs" width="1440" height="560" preserveAspectRatio="none" viewBox="0 0 1440 560"><g mask="url(&quot;#SvgjsMask1014&quot;)" fill="none"><path d="M1364.51 499.21L1369.42 499.21L1369.42 534.48L1364.51 534.48z" fill="#037b0b"></path><path d="M208.09 515.57a30.54 30.54 0 1 0 52.6-31.04z" fill="#d3b714"></path><path d="M383.19 150.76 a53.92 53.92 0 1 0 107.84 0 a53.92 53.92 0 1 0 -107.84 0z" stroke="rgba(66, 68, 90, 1)"></path><path d="M1189.01 284.05 a13.33 13.33 0 1 0 26.66 0 a13.33 13.33 0 1 0 -26.66 0z" fill="#037b0b"></path><path d="M880.22 503.13L915.88 503.13L915.88 538.79L880.22 538.79z" fill="#e73635"></path><path d="M1025.82 361.92a54.9 54.9 0 1 0-78.82-76.44z" stroke="#d3b714"></path><path d="M1061.6 219.05 a17 17 0 1 0 34 0 a17 17 0 1 0 -34 0z" stroke="rgba(66, 68, 90, 1)"></path><path d="M814.45 447.4L831.25 447.4L831.25 464.2L814.45 464.2z" fill="#037b0b"></path><path d="M467 474.88L507.76 474.88L507.76 515.64L467 515.64z" fill="#e73635"></path><path d="M1085.61 394.2L1124.92 394.2L1124.92 433L1085.61 433z" fill="#d3b714"></path><path d="M1085.82 225.48 a27.02 27.02 0 1 0 54.04 0 a27.02 27.02 0 1 0 -54.04 0z" fill="rgba(66, 68, 90, 1)"></path><path d="M221.53 322.37 a22.33 22.33 0 1 0 44.66 0 a22.33 22.33 0 1 0 -44.66 0z" stroke="#e73635"></path><path d="M314.04 331.32L322.26 331.32L322.26 379.89L314.04 379.89z" stroke="#d3b714"></path><path d="M1061.36 388.65 a4.27 4.27 0 1 0 8.54 0 a4.27 4.27 0 1 0 -8.54 0z" stroke="#037b0b"></path><path d="M1439.45 260.82L1440.15 260.82L1440.15 261.52L1439.45 261.52z" fill="#e73635"></path><path d="M1073.74 365.9a8.73 8.73 0 1 0-14.33-9.98z" stroke="#e73635"></path><path d="M546.01 318.9a38.14 38.14 0 1 0 38.85 65.65z" fill="rgba(66, 68, 90, 1)"></path><path d="M1331.39 249.34a41.89 41.89 0 1 0-82.26-15.87z" stroke="#037b0b"></path><path d="M513.64 424.74 a55.82 55.82 0 1 0 111.64 0 a55.82 55.82 0 1 0 -111.64 0z" fill="#037b0b"></path><path d="M611.32 178.55 a38.94 38.94 0 1 0 77.88 0 a38.94 38.94 0 1 0 -77.88 0z" stroke="rgba(66, 68, 90, 1)"></path><path d="M222.93 20.78 a7.73 7.73 0 1 0 15.46 0 a7.73 7.73 0 1 0 -15.46 0z" fill="rgba(66, 68, 90, 1)"></path><path d="M691.82 121.25L730.47 121.25L730.47 159.9L691.82 159.9z" stroke="#e73635"></path><path d="M1281.4 318.02a10.89 10.89 0 1 0-11.02-18.79z" fill="rgba(66, 68, 90, 1)"></path><path d="M1239.88 95a16.34 16.34 0 1 0 32.1 6.16z" fill="#e73635"></path><path d="M130.27 118.77L140.21 118.77L140.21 124.28L130.27 124.28z" fill="#e73635"></path><path d="M211.47 24.15L255.62 24.15L255.62 79L211.47 79z" stroke="#e73635"></path><path d="M179.77 341.06a3.97 3.97 0 1 0 3.78-6.98z" fill="#d3b714"></path><path d="M986.69 498.28L1011.97 498.28L1011.97 523.56L986.69 523.56z" stroke="#d3b714"></path><path d="M1352.71 505.83L1381.4 505.83L1381.4 536.74L1352.71 536.74z" stroke="#037b0b"></path><path d="M985.78 272.35a10.59 10.59 0 1 0-7.16-19.93z" stroke="rgba(66, 68, 90, 1)"></path><path d="M498.27 207.99 a19.42 19.42 0 1 0 38.84 0 a19.42 19.42 0 1 0 -38.84 0z" stroke="#037b0b"></path><path d="M870.88 453.54L879.57 453.54L879.57 501.69L870.88 501.69z" fill="rgba(66, 68, 90, 1)"></path><path d="M162.31 525.31a17.42 17.42 0 1 0-31.68-14.49z" stroke="#e73635"></path></g><defs><mask id="SvgjsMask1014"><rect width="1440" height="560" fill="#ffffff"></rect></mask></defs></svg>