<svg xmlns="http://www.w3.org/2000/svg" version="1.1" xmlns:xlink="http://www.w3.org/1999/xlink" xmlns:svgjs="http://svgjs.dev/svgjs" width="1440" height="560" preserveAspectRatio="none" viewBox="0 0 1440 560"><g mask="url(&quot;#SvgjsMask1008&quot;)" fill="none"><path d="M31.72 341.67 a27.03 27.03 0 1 0 54.06 0 a27.03 27.03 0 1 0 -54.06 0z" fill="#e73635"></path><path d="M927.56 324.39L939.64 324.39L939.64 336.47L927.56 336.47z" stroke="#d3b714"></path><path d="M101.07 186.02 a32.97 32.97 0 1 0 65.94 0 a32.97 32.97 0 1 0 -65.94 0z" stroke="rgba(66, 68, 90, 1)"></path><path d="M73.16 499.76a32.29 32.29 0 1 0-33.87-54.98z" fill="#037b0b"></path><path d="M1203.8 261.13a23.3 23.3 0 1 0-43.94-15.54z" fill="rgba(66, 68, 90, 1)"></path><path d="M520.81 93.25L528.91 93.25L528.91 101.35L520.81 101.35z" stroke="#d3b714"></path><path d="M887.44 175.3 a18.57 18.57 0 1 0 37.14 0 a18.57 18.57 0 1 0 -37.14 0z" fill="#037b0b"></path><path d="M159.85 529.89L206.32 529.89L206.32 576.36L159.85 576.36z" stroke="#d3b714"></path><path d="M1316.33 377.74a41.76 41.76 0 1 0-63.29-54.5z" fill="#e73635"></path><path d="M35.3 411.8 a9 9 0 1 0 18 0 a9 9 0 1 0 -18 0z" stroke="#037b0b"></path><path d="M1165.27 447.83L1203.25 447.83L1203.25 457.55L1165.27 457.55z" stroke="#037b0b"></path><path d="M297.03 353.57L319.63 353.57L319.63 385.03L297.03 385.03z" stroke="#e73635"></path><path d="M779.02 157.4 a34.83 34.83 0 1 0 69.66 0 a34.83 34.83 0 1 0 -69.66 0z" stroke="#d3b714"></path><path d="M681.47 12.93L699.48 12.93L699.48 30.94L681.47 30.94z" fill="#d3b714"></path><path d="M1391.57 433.88 a22.65 22.65 0 1 0 45.3 0 a22.65 22.65 0 1 0 -45.3 0z" stroke="rgba(66, 68, 90, 1)"></path><path d="M931.82 11.75 a6.53 6.53 0 1 0 13.06 0 a6.53 6.53 0 1 0 -13.06 0z" fill="rgba(66, 68, 90, 1)"></path><path d="M481.66 48.75 a32.34 32.34 0 1 0 64.68 0 a32.34 32.34 0 1 0 -64.68 0z" stroke="#d3b714"></path><path d="M304.62 96.71L312.28 96.71L312.28 118.95L304.62 118.95z" stroke="#d3b714"></path><path d="M748.88 325.37 a18.14 18.14 0 1 0 36.28 0 a18.14 18.14 0 1 0 -36.28 0z" stroke="#e73635"></path><path d="M763.46 38.31 a45.31 45.31 0 1 0 90.62 0 a45.31 45.31 0 1 0 -90.62 0z" stroke="#e73635"></path><path d="M501.2 514.59 a1.22 1.22 0 1 0 2.44 0 a1.22 1.22 0 1 0 -2.44 0z" stroke="rgba(66, 68, 90, 1)"></path><path d="M358.95 274.39 a32.09 32.09 0 1 0 64.18 0 a32.09 32.09 0 1 0 -64.18 0z" fill="#e73635"></path><path d="M313.14 198.3L364.61 198.3L364.61 214.59L313.14 214.59z" fill="#e73635"></path><path d="M105.58 11.03 a37.43 37.43 0 1 0 74.86 0 a37.43 37.43 0 1 0 -74.86 0z" fill="rgba(66, 68, 90, 1)"></path><path d="M1033.25 199.38a30.84 30.84 0 1 0 61.64 1.98z" stroke="rgba(66, 68, 90, 1)"></path><path d="M622.52 543.29L676.51 543.29L676.51 543.87L622.52 543.87z" fill="#d3b714"></path><path d="M1288.02 160.69 a54.73 54.73 0 1 0 109.46 0 a54.73 54.73 0 1 0 -109.46 0z" stroke="#e73635"></path><path d="M224.9 494.29a24.26 24.26 0 1 0 39.72-27.87z" fill="#d3b714"></path><path d="M1382.99 388.19a34.22 34.22 0 1 0-30.28-61.37z" fill="#e73635"></path><path d="M29.32 256.25 a20.76 20.76 0 1 0 41.52 0 a20.76 20.76 0 1 0 -41.52 0z" fill="rgba(66, 68, 90, 1)"></path><path d="M1042.79 251.87a54.49 54.49 0 1 0-53.81-94.77z" fill="#e73635"></path><path d="M311.11 374.3a32.84 32.84 0 1 0-47.99 44.85z" stroke="#d3b714"></path><path d="M351.03 258.97L353.65 258.97L353.65 291.51L351.03 291.51z" stroke="rgba(66, 68, 90, 1)"></path></g><defs><mask id="SvgjsMask1008"><rect width="1440" height="560" fill="#ffffff"></rect></mask></defs></svg>