<svg xmlns="http://www.w3.org/2000/svg" version="1.1" xmlns:xlink="http://www.w3.org/1999/xlink" xmlns:svgjs="http://svgjs.dev/svgjs" width="1440" height="560" preserveAspectRatio="none" viewBox="0 0 1440 560"><g mask="url(&quot;#SvgjsMask1015&quot;)" fill="none"><path d="M351.51 501.63L378.7 501.63L378.7 529.15L351.51 529.15z" stroke="#037b0b"></path><path d="M991.93 136.8a28.1 28.1 0 1 0 52.74-19.42z" stroke="#d3b714"></path><path d="M821.02 183.25L840.01 183.25L840.01 210.49L821.02 210.49z" fill="#d3b714"></path><path d="M573.95 381.8 a55.54 55.54 0 1 0 111.08 0 a55.54 55.54 0 1 0 -111.08 0z" stroke="rgba(66, 68, 90, 1)"></path><path d="M409.98 119.21a54.57 54.57 0 1 0-75.99-78.34z" stroke="rgba(66, 68, 90, 1)"></path><path d="M1399.26 394.29a2.02 2.02 0 1 0-1.78-3.62z" stroke="rgba(66, 68, 90, 1)"></path><path d="M319.64 258.23a20.48 20.48 0 1 0 40.72 4.34z" fill="rgba(66, 68, 90, 1)"></path><path d="M1163.84 16.3 a14.28 14.28 0 1 0 28.56 0 a14.28 14.28 0 1 0 -28.56 0z" fill="#037b0b"></path><path d="M1362.85 229.6L1373.25 229.6L1373.25 240L1362.85 240z" fill="#037b0b"></path><path d="M468.19 492.08L520.21 492.08L520.21 516L468.19 516z" stroke="#037b0b"></path><path d="M1366.97 427.59a23.07 23.07 0 1 0 13.83 44.02z" stroke="#d3b714"></path><path d="M640.16 25.26L690.76 25.26L690.76 43.2L640.16 43.2z" stroke="#e73635"></path><path d="M237.24 364.2L269.8 364.2L269.8 379.32L237.24 379.32z" fill="#e73635"></path><path d="M541.16 337.89L588.78 337.89L588.78 349.45L541.16 349.45z" fill="rgba(66, 68, 90, 1)"></path><path d="M856.1 153.88a44.87 44.87 0 1 0-62.67 64.23z" stroke="rgba(66, 68, 90, 1)"></path><path d="M1217.81 169.09L1245.96 169.09L1245.96 197.24L1217.81 197.24z" fill="rgba(66, 68, 90, 1)"></path><path d="M296.16 443.82a26.2 26.2 0 1 0 24.95-46.08z" fill="#e73635"></path><path d="M891.81 505.63 a7.83 7.83 0 1 0 15.66 0 a7.83 7.83 0 1 0 -15.66 0z" fill="#e73635"></path><path d="M1018.98 360.81L1069.66 360.81L1069.66 406.33L1018.98 406.33z" fill="#d3b714"></path><path d="M1264.85 399.84a53.42 53.42 0 1 0 79.14 71.78z" stroke="rgba(66, 68, 90, 1)"></path><path d="M1186.02 242.2a41.61 41.61 0 1 0 80.24 22.08z" stroke="rgba(66, 68, 90, 1)"></path><path d="M794.07 364.21L804.65 364.21L804.65 374.97L794.07 374.97z" fill="#e73635"></path><path d="M136.96 328.04L161.83 328.04L161.83 378.75L136.96 378.75z" fill="#037b0b"></path><path d="M400.37 348.32L453.46 348.32L453.46 372.2L400.37 372.2z" stroke="#e73635"></path><path d="M6.88 535.98L9.94 535.98L9.94 556.02L6.88 556.02z" stroke="#e73635"></path><path d="M1137.04 482.9 a31.28 31.28 0 1 0 62.56 0 a31.28 31.28 0 1 0 -62.56 0z" fill="rgba(66, 68, 90, 1)"></path><path d="M951.18 521.41L980.46 521.41L980.46 550.69L951.18 550.69z" fill="#037b0b"></path><path d="M85.46 352.76L99.07 352.76L99.07 366.37L85.46 366.37z" stroke="#d3b714"></path><path d="M1133.62 198.58a32.54 32.54 0 1 0-17.35 62.73z" stroke="#d3b714"></path><path d="M1102.13 180.88L1137.96 180.88L1137.96 216.71L1102.13 216.71z" fill="#d3b714"></path><path d="M67.42 409.32L123.39 409.32L123.39 465.29L67.42 465.29z" fill="#e73635"></path><path d="M744.89 76.17L798.36 76.17L798.36 129.13L744.89 129.13z" fill="#037b0b"></path><path d="M185.86 214.3a12.59 12.59 0 1 0 25.12-1.62z" stroke="rgba(66, 68, 90, 1)"></path></g><defs><mask id="SvgjsMask1015"><rect width="1440" height="560" fill="#ffffff"></rect></mask></defs></svg>