<svg xmlns="http://www.w3.org/2000/svg" version="1.1" xmlns:xlink="http://www.w3.org/1999/xlink" xmlns:svgjs="http://svgjs.dev/svgjs" width="1440" height="560" preserveAspectRatio="none" viewBox="0 0 1440 560"><g mask="url(&quot;#SvgjsMask1116&quot;)" fill="none"><path d="M55.22 11.64L45.54 20.03 35.23 12.43 25.56 20.82 15.25 13.22 5.57 21.61-4.74 14.01M54.9 3.65L45.22 12.04 34.92 4.44 25.24 12.83 14.93 5.23 5.26 13.62-5.05 6.02" stroke="#e73635" stroke-width="1" stroke-dasharray="3, 2"></path><rect width="311.88" height="311.88" clip-path="url(&quot;#SvgjsClipPath1117&quot;)" x="108.29" y="-74.03" fill="url(&quot;#SvgjsPattern1118&quot;)" transform="rotate(338.95, 264.23, 81.91)"></rect><rect width="220.32" height="220.32" clip-path="url(&quot;#SvgjsClipPath1119&quot;)" x="970.49" y="70.8" fill="url(&quot;#SvgjsPattern1120&quot;)" transform="rotate(123.56, 1080.65, 180.96)"></rect><path d="M719.47 284.40999999999997 L756.6800000000001 372.06L676.1798738202748 390.13012617972527z" stroke="#037b0b" stroke-width="1.12"></path><path d="M885.95 235.82a5.6 5.6 0 1 0-7.38-8.43 5.6 5.6 0 1 0 7.38 8.43zM875.41 223.78a5.6 5.6 0 1 0-7.38-8.43 5.6 5.6 0 1 0 7.38 8.43zM864.87 211.74a5.6 5.6 0 1 0-7.37-8.43 5.6 5.6 0 1 0 7.37 8.43zM854.33 199.7a5.6 5.6 0 1 0-7.37-8.43 5.6 5.6 0 1 0 7.37 8.43zM919.06 249.36a5.6 5.6 0 1 0-7.38-8.42 5.6 5.6 0 1 0 7.38 8.42zM908.52 237.32a5.6 5.6 0 1 0-7.37-8.42 5.6 5.6 0 1 0 7.37 8.42zM897.99 225.28a5.6 5.6 0 1 0-7.38-8.42 5.6 5.6 0 1 0 7.38 8.42zM887.45 213.24a5.6 5.6 0 1 0-7.38-8.42 5.6 5.6 0 1 0 7.38 8.42z" fill="#e73635"></path><rect width="358.28" height="358.28" clip-path="url(&quot;#SvgjsClipPath1121&quot;)" x="659.1" y="-67.09" fill="url(&quot;#SvgjsPattern1122&quot;)" transform="rotate(121.28, 838.24, 112.05)"></rect><rect width="60" height="60" clip-path="url(&quot;#SvgjsClipPath1123&quot;)" x="214.38" y="223.96" fill="url(&quot;#SvgjsPattern1124&quot;)" transform="rotate(334.06, 244.38, 253.96)"></rect><rect width="225.28" height="225.28" clip-path="url(&quot;#SvgjsClipPath1125&quot;)" x="180.19" y="-25.57" fill="url(&quot;#SvgjsPattern1126&quot;)" transform="rotate(355.21, 292.83, 87.07)"></rect><rect width="135.8" height="135.8" clip-path="url(&quot;#SvgjsClipPath1127&quot;)" x="1197.12" y="40.85" fill="url(&quot;#SvgjsPattern1128&quot;)" transform="rotate(23.05, 1265.02, 108.75)"></rect><rect width="274.56" height="274.56" clip-path="url(&quot;#SvgjsClipPath1129&quot;)" x="621.56" y="-30.34" fill="url(&quot;#SvgjsPattern1130&quot;)" transform="rotate(270.95, 758.84, 106.94)"></rect><rect width="264" height="264" clip-path="url(&quot;#SvgjsClipPath1131&quot;)" x="1146.74" y="169.66" fill="url(&quot;#SvgjsPattern1132&quot;)" transform="rotate(180.67, 1278.74, 301.66)"></rect><rect width="248" height="248" clip-path="url(&quot;#SvgjsClipPath1133&quot;)" x="278.4" y="49.84" fill="url(&quot;#SvgjsPattern1134&quot;)" transform="rotate(161.93, 402.4, 173.84)"></rect></g><defs><mask id="SvgjsMask1116"><rect width="1440" height="560" fill="#ffffff"></rect></mask><pattern x="0" y="0" width="311.88" height="6.78" patternUnits="userSpaceOnUse" id="SvgjsPattern1118"><rect width="311.88" height="3.39" x="0" y="0" fill="#d3b714"></rect><rect width="311.88" height="3.39" x="0" y="3.39" fill="rgba(0, 0, 0, 0)"></rect></pattern><clipPath id="SvgjsClipPath1117"><circle r="77.97" cx="264.23" cy="81.91"></circle></clipPath><pattern x="0" y="0" width="9.18" height="9.18" patternUnits="userSpaceOnUse" id="SvgjsPattern1120"><path d="M4.59 1L4.59 8.18M1 4.59L8.18 4.59" stroke="#d3b714" fill="none" stroke-width="3.19"></path></pattern><clipPath id="SvgjsClipPath1119"><circle r="55.08" cx="1080.65" cy="180.96"></circle></clipPath><pattern x="0" y="0" width="13.78" height="13.78" patternUnits="userSpaceOnUse" id="SvgjsPattern1122"><path d="M6.89 1L6.89 12.78M1 6.89L12.78 6.89" stroke="#037b0b" fill="none" stroke-width="1.32"></path></pattern><clipPath id="SvgjsClipPath1121"><circle r="89.57" cx="838.24" cy="112.05"></circle></clipPath><pattern x="0" y="0" width="60" height="6" patternUnits="userSpaceOnUse" id="SvgjsPattern1124"><rect width="60" height="3" x="0" y="0" fill="#e73635"></rect><rect width="60" height="3" x="0" y="3" fill="rgba(0, 0, 0, 0)"></rect></pattern><clipPath id="SvgjsClipPath1123"><circle r="15" cx="244.38" cy="253.96"></circle></clipPath><pattern x="0" y="0" width="7.04" height="7.04" patternUnits="userSpaceOnUse" id="SvgjsPattern1126"><path d="M0 7.04L3.52 0L7.04 7.04" stroke="#e73635" fill="none"></path></pattern><clipPath id="SvgjsClipPath1125"><circle r="56.32" cx="292.83" cy="87.07"></circle></clipPath><pattern x="0" y="0" width="13.58" height="13.58" patternUnits="userSpaceOnUse" id="SvgjsPattern1128"><path d="M6.79 1L6.79 12.58M1 6.79L12.58 6.79" stroke="#037b0b" fill="none" stroke-width="4.01"></path></pattern><clipPath id="SvgjsClipPath1127"><circle r="33.95" cx="1265.02" cy="108.75"></circle></clipPath><pattern x="0" y="0" width="274.56" height="8.58" patternUnits="userSpaceOnUse" id="SvgjsPattern1130"><rect width="274.56" height="4.29" x="0" y="0" fill="#d3b714"></rect><rect width="274.56" height="4.29" x="0" y="4.29" fill="rgba(0, 0, 0, 0)"></rect></pattern><clipPath id="SvgjsClipPath1129"><circle r="68.64" cx="758.84" cy="106.94"></circle></clipPath><pattern x="0" y="0" width="264" height="6" patternUnits="userSpaceOnUse" id="SvgjsPattern1132"><rect width="264" height="3" x="0" y="0" fill="#037b0b"></rect><rect width="264" height="3" x="0" y="3" fill="rgba(0, 0, 0, 0)"></rect></pattern><clipPath id="SvgjsClipPath1131"><circle r="66" cx="1278.74" cy="301.66"></circle></clipPath><pattern x="0" y="0" width="12.4" height="12.4" patternUnits="userSpaceOnUse" id="SvgjsPattern1134"><path d="M6.2 1L6.2 11.4M1 6.2L11.4 6.2" stroke="#e73635" fill="none" stroke-width="1"></path></pattern><clipPath id="SvgjsClipPath1133"><circle r="62" cx="402.4" cy="173.84"></circle></clipPath></defs></svg>