<svg xmlns="http://www.w3.org/2000/svg" version="1.1" xmlns:xlink="http://www.w3.org/1999/xlink" xmlns:svgjs="http://svgjs.dev/svgjs" width="1440" height="560" preserveAspectRatio="none" viewBox="0 0 1440 560"><g mask="url(&quot;#SvgjsMask1026&quot;)" fill="none"><path d="M964.79 221.62a38.32 38.32 0 1 0-73.65 21.22z" fill="#d3b714"></path><path d="M662.18 296.51L689.19 296.51L689.19 303.46L662.18 303.46z" stroke="#e73635"></path><path d="M252.53 356.07L264.77 356.07L264.77 368.31L252.53 368.31z" fill="#e73635"></path><path d="M623.71 140.1L623.89 140.1L623.89 185.97L623.71 185.97z" stroke="#e73635"></path><path d="M155.67 336.04a20.77 20.77 0 1 0-28.11-30.59z" stroke="#e73635"></path><path d="M1025.64 268.11L1046.77 268.11L1046.77 306.76L1025.64 306.76z" fill="rgba(66, 68, 90, 1)"></path><path d="M1181.92 12.22L1182.37 12.22L1182.37 62.74L1181.92 62.74z" stroke="rgba(66, 68, 90, 1)"></path><path d="M606.75 213.2 a39.4 39.4 0 1 0 78.8 0 a39.4 39.4 0 1 0 -78.8 0z" fill="#037b0b"></path><path d="M1202.34 501.39 a6.19 6.19 0 1 0 12.38 0 a6.19 6.19 0 1 0 -12.38 0z" fill="#d3b714"></path><path d="M610.11 438.29a17.1 17.1 0 1 0 8.06-33.24z" fill="#e73635"></path><path d="M1223.6 135.64a27.86 27.86 0 1 0 15.09-53.64z" stroke="#d3b714"></path><path d="M1254.7 346.23a38.7 38.7 0 1 0 30.84-70.99z" fill="#037b0b"></path><path d="M738.99 513.87L759.7 513.87L759.7 534.58L738.99 534.58z" fill="#d3b714"></path><path d="M1269.26 537.31a6.52 6.52 0 1 0 2.5 12.8z" stroke="#d3b714"></path><path d="M1125.79 486.25L1157.37 486.25L1157.37 517.83L1125.79 517.83z" stroke="rgba(66, 68, 90, 1)"></path><path d="M847.16 370.19L873.16 370.19L873.16 396.19L847.16 396.19z" stroke="#d3b714"></path><path d="M-37.7 35.85a45.19 45.19 0 1 0 81.28 39.53z" stroke="#037b0b"></path><path d="M1259.15 297.45L1309.05 297.45L1309.05 317.87L1259.15 317.87z" fill="#037b0b"></path><path d="M245.28 471.18 a46.42 46.42 0 1 0 92.84 0 a46.42 46.42 0 1 0 -92.84 0z" fill="#d3b714"></path><path d="M577.18 461.68 a47.28 47.28 0 1 0 94.56 0 a47.28 47.28 0 1 0 -94.56 0z" stroke="#037b0b"></path><path d="M415.25 418.62L447.9 418.62L447.9 451.27L415.25 451.27z" fill="#d3b714"></path><path d="M335.91 325.3L359.49 325.3L359.49 376.65L335.91 376.65z" stroke="#e73635"></path><path d="M1109.39 47.34L1119.24 47.34L1119.24 62.19L1109.39 62.19z" stroke="rgba(66, 68, 90, 1)"></path><path d="M593.84 163.22L610.49 163.22L610.49 179.87L593.84 179.87z" fill="#037b0b"></path><path d="M427.79 45.94L439.74 45.94L439.74 57.89L427.79 57.89z" stroke="#037b0b"></path><path d="M1145.11 519.06L1159.89 519.06L1159.89 569.94L1145.11 569.94z" fill="#037b0b"></path><path d="M864.83 196.9L891.95 196.9L891.95 224.29L864.83 224.29z" fill="#037b0b"></path><path d="M182.26 361.25L209.25 361.25L209.25 388.24L182.26 388.24z" stroke="#e73635"></path><path d="M1313.17 406.47L1331.4 406.47L1331.4 430.2L1313.17 430.2z" fill="rgba(66, 68, 90, 1)"></path><path d="M443.27 377.53a38.58 38.58 0 1 0-47.37 60.91z" stroke="#d3b714"></path><path d="M1063.66 394.83a15.38 15.38 0 1 0 1.69 30.71z" stroke="#d3b714"></path><path d="M877.07 456.83L905.14 456.83L905.14 484.9L877.07 484.9z" stroke="#e73635"></path><path d="M47.99 365.33 a24.9 24.9 0 1 0 49.8 0 a24.9 24.9 0 1 0 -49.8 0z" stroke="rgba(66, 68, 90, 1)"></path></g><defs><mask id="SvgjsMask1026"><rect width="1440" height="560" fill="#ffffff"></rect></mask></defs></svg>