<svg xmlns="http://www.w3.org/2000/svg" version="1.1" xmlns:xlink="http://www.w3.org/1999/xlink" xmlns:svgjs="http://svgjs.dev/svgjs" width="1440" height="560" preserveAspectRatio="none" viewBox="0 0 1440 560"><g mask="url(&quot;#SvgjsMask1029&quot;)" fill="none"><path d="M1052.24 318.47 a41.5 41.5 0 1 0 83 0 a41.5 41.5 0 1 0 -83 0z" stroke="rgba(66, 68, 90, 1)"></path><path d="M1056.14 206.8a31.27 31.27 0 1 0-62.47 2.9z" fill="#e73635"></path><path d="M791.89 96.76L823.9 96.76L823.9 145.89L791.89 145.89z" fill="#d3b714"></path><path d="M561.75 265.54 a47.87 47.87 0 1 0 95.74 0 a47.87 47.87 0 1 0 -95.74 0z" stroke="#037b0b"></path><path d="M1196.17 246.49L1234.56 246.49L1234.56 252.53L1196.17 252.53z" fill="#e73635"></path><path d="M1198.86 236.23L1231.4 236.23L1231.4 268.77L1198.86 268.77z" stroke="#d3b714"></path><path d="M407.08 528.8L417.6 528.8L417.6 559.87L407.08 559.87z" stroke="#037b0b"></path><path d="M1342 546.33 a31.82 31.82 0 1 0 63.64 0 a31.82 31.82 0 1 0 -63.64 0z" fill="rgba(66, 68, 90, 1)"></path><path d="M603.66 529.37a23.38 23.38 0 1 0 34.26 31.82z" stroke="#d3b714"></path><path d="M27.36 74.12 a33.03 33.03 0 1 0 66.06 0 a33.03 33.03 0 1 0 -66.06 0z" stroke="rgba(66, 68, 90, 1)"></path><path d="M1410.66 256.88L1463.19 256.88L1463.19 309.41L1410.66 309.41z" fill="#e73635"></path><path d="M1154.56 492.36a52.58 52.58 0 1 0 75.84 72.84z" fill="#d3b714"></path><path d="M67.08 178.2a13.08 13.08 0 1 0 24.04-10.34z" fill="#e73635"></path><path d="M120.89 43.04a15.07 15.07 0 1 0 25.6 15.9z" stroke="rgba(66, 68, 90, 1)"></path><path d="M22.57 144.38L39.06 144.38L39.06 153.38L22.57 153.38z" fill="#037b0b"></path><path d="M1177.16 443.05L1199.92 443.05L1199.92 465.81L1177.16 465.81z" fill="#d3b714"></path><path d="M842.12 211.62L872.22 211.62L872.22 241.89L842.12 241.89z" stroke="rgba(66, 68, 90, 1)"></path><path d="M745.86 465.79 a39.75 39.75 0 1 0 79.5 0 a39.75 39.75 0 1 0 -79.5 0z" stroke="#d3b714"></path><path d="M737.24 451.36L774.41 451.36L774.41 488.53L737.24 488.53z" stroke="#d3b714"></path><path d="M749.77 141.7L788.05 141.7L788.05 179.98L749.77 179.98z" stroke="#e73635"></path><path d="M746.15 333.28L774.01 333.28L774.01 380.92L746.15 380.92z" fill="rgba(66, 68, 90, 1)"></path><path d="M824.48 444.84L877 444.84L877 466.91L824.48 466.91z" stroke="rgba(66, 68, 90, 1)"></path><path d="M1017.39 161.02a20.4 20.4 0 1 0 17.37 36.91z" fill="rgba(66, 68, 90, 1)"></path><path d="M616.51 514.56a26.41 26.41 0 1 0 52.82 0.14z" stroke="#d3b714"></path><path d="M138.21 79.6L190.89 79.6L190.89 132.28L138.21 132.28z" stroke="#e73635"></path><path d="M496.64 112.61a35.21 35.21 0 1 0-54.97-44.01z" fill="rgba(66, 68, 90, 1)"></path><path d="M1399.57 111.18L1420.19 111.18L1420.19 131.8L1399.57 131.8z" stroke="#d3b714"></path><path d="M826.43 311.99L873.3 311.99L873.3 358.86L826.43 358.86z" fill="rgba(66, 68, 90, 1)"></path><path d="M635.29 534.7a51.12 51.12 0 1 0 95.82 35.67z" fill="#d3b714"></path><path d="M1219.14 215.72L1265.63 215.72L1265.63 262.21L1219.14 262.21z" stroke="#d3b714"></path><path d="M453.44 80.79L481.64 80.79L481.64 110.67L453.44 110.67z" fill="#e73635"></path><path d="M1336.14 527.14a38.71 38.71 0 1 0-76.02 14.68z" stroke="#e73635"></path><path d="M809.52 205.13 a13.58 13.58 0 1 0 27.16 0 a13.58 13.58 0 1 0 -27.16 0z" stroke="rgba(66, 68, 90, 1)"></path></g><defs><mask id="SvgjsMask1029"><rect width="1440" height="560" fill="#ffffff"></rect></mask></defs></svg>