<svg xmlns="http://www.w3.org/2000/svg" version="1.1" xmlns:xlink="http://www.w3.org/1999/xlink" xmlns:svgjs="http://svgjs.dev/svgjs" width="1440" height="560" preserveAspectRatio="none" viewBox="0 0 1440 560"><g mask="url(&quot;#SvgjsMask1025&quot;)" fill="none"><path d="M-18.49 98.42a42.93 42.93 0 1 0 45.96-72.52z" fill="rgba(66, 68, 90, 1)"></path><path d="M161.25 232.19 a53.15 53.15 0 1 0 106.3 0 a53.15 53.15 0 1 0 -106.3 0z" stroke="rgba(66, 68, 90, 1)"></path><path d="M1176.26 90L1221.21 90L1221.21 105.85L1176.26 105.85z" stroke="rgba(66, 68, 90, 1)"></path><path d="M1329.53 513.21 a19.91 19.91 0 1 0 39.82 0 a19.91 19.91 0 1 0 -39.82 0z" fill="#037b0b"></path><path d="M1099.07 60.54L1141.24 60.54L1141.24 102.71L1099.07 102.71z" stroke="#e73635"></path><path d="M1009.34 296.46L1011.69 296.46L1011.69 298.81L1009.34 298.81z" fill="#d3b714"></path><path d="M1098.8 168.52L1134.49 168.52L1134.49 218.25L1098.8 218.25z" stroke="#d3b714"></path><path d="M450.71 8.09 a15.21 15.21 0 1 0 30.42 0 a15.21 15.21 0 1 0 -30.42 0z" fill="#037b0b"></path><path d="M1062.55 381.52a22.62 22.62 0 1 0 22.66-39.16z" fill="#037b0b"></path><path d="M781.92 23.41L789.71 23.41L789.71 40.82L781.92 40.82z" stroke="#037b0b"></path><path d="M995.83 6.14L1004.46 6.14L1004.46 17.2L995.83 17.2z" fill="#037b0b"></path><path d="M471.04 488.5L474.86 488.5L474.86 517.62L471.04 517.62z" fill="#d3b714"></path><path d="M800.87 132.34a9.03 9.03 0 1 0-3.79 17.65z" fill="#d3b714"></path><path d="M353.82 409.72 a49.14 49.14 0 1 0 98.28 0 a49.14 49.14 0 1 0 -98.28 0z" stroke="rgba(66, 68, 90, 1)"></path><path d="M1428.36 28.2L1463.86 28.2L1463.86 63.7L1428.36 63.7z" stroke="#d3b714"></path><path d="M396.2 383.68a28.19 28.19 0 1 0 50.6 24.88z" fill="#e73635"></path><path d="M640.55 538.71a22.96 22.96 0 1 0 14.35-43.62z" fill="#d3b714"></path><path d="M681.07 407.99 a41.59 41.59 0 1 0 83.18 0 a41.59 41.59 0 1 0 -83.18 0z" stroke="#e73635"></path><path d="M669.89 178.57a52.83 52.83 0 1 0 17.63 104.18z" fill="#e73635"></path><path d="M78.84 63.49L97.57 63.49L97.57 76.28L78.84 76.28z" stroke="#d3b714"></path><path d="M1226.76 128.52 a50.03 50.03 0 1 0 100.06 0 a50.03 50.03 0 1 0 -100.06 0z" stroke="rgba(66, 68, 90, 1)"></path><path d="M705.9 145.54 a19.23 19.23 0 1 0 38.46 0 a19.23 19.23 0 1 0 -38.46 0z" fill="rgba(66, 68, 90, 1)"></path><path d="M1381.94-4.82a47.5 47.5 0 1 0 58.69 74.7z" stroke="rgba(66, 68, 90, 1)"></path><path d="M508.12 416.39L558.99 416.39L558.99 467.26L508.12 467.26z" stroke="rgba(66, 68, 90, 1)"></path><path d="M485.82 375.57 a31.18 31.18 0 1 0 62.36 0 a31.18 31.18 0 1 0 -62.36 0z" fill="#037b0b"></path><path d="M238.36 353.22L240.66 353.22L240.66 355.52L238.36 355.52z" stroke="rgba(66, 68, 90, 1)"></path><path d="M262.66 89.67L300.12 89.67L300.12 127.13L262.66 127.13z" stroke="#d3b714"></path><path d="M130.84 90.58 a27.48 27.48 0 1 0 54.96 0 a27.48 27.48 0 1 0 -54.96 0z" stroke="#037b0b"></path><path d="M400.96 164.15L409.55 164.15L409.55 172.74L400.96 172.74z" fill="rgba(66, 68, 90, 1)"></path><path d="M697.2 455.95L704.49 455.95L704.49 463.24L697.2 463.24z" stroke="rgba(66, 68, 90, 1)"></path><path d="M949.36 294.81L960.09 294.81L960.09 305.54L949.36 305.54z" stroke="#037b0b"></path><path d="M818.39 315.19L826.59 315.19L826.59 323.39L818.39 323.39z" fill="#e73635"></path><path d="M350.13 236.36a54.95 54.95 0 1 0 20.67 107.94z" fill="#e73635"></path></g><defs><mask id="SvgjsMask1025"><rect width="1440" height="560" fill="#ffffff"></rect></mask></defs></svg>