<svg xmlns="http://www.w3.org/2000/svg" version="1.1" xmlns:xlink="http://www.w3.org/1999/xlink" xmlns:svgjs="http://svgjs.dev/svgjs" width="1440" height="560" preserveAspectRatio="none" viewBox="0 0 1440 560"><g mask="url(&quot;#SvgjsMask1007&quot;)" fill="none"><path d="M643.32 299.29L696.71 299.29L696.71 352.68L643.32 352.68z" fill="#e73635"></path><path d="M979.56 58.43 a23.9 23.9 0 1 0 47.8 0 a23.9 23.9 0 1 0 -47.8 0z" stroke="#d3b714"></path><path d="M1255.05 320.95 a1.48 1.48 0 1 0 2.96 0 a1.48 1.48 0 1 0 -2.96 0z" stroke="#d3b714"></path><path d="M731.52 282.41 a29.51 29.51 0 1 0 59.02 0 a29.51 29.51 0 1 0 -59.02 0z" stroke="#d3b714"></path><path d="M464.23 334.47a6.84 6.84 0 1 0 2.6-13.44z" fill="#e73635"></path><path d="M734.57 320.86a26.76 26.76 0 1 0-50.88 16.6z" fill="rgba(66, 68, 90, 1)"></path><path d="M778.7 551.81 a20.5 20.5 0 1 0 41 0 a20.5 20.5 0 1 0 -41 0z" fill="rgba(66, 68, 90, 1)"></path><path d="M636.78 420.52 a49.87 49.87 0 1 0 99.74 0 a49.87 49.87 0 1 0 -99.74 0z" stroke="#037b0b"></path><path d="M916.83 16.36L965.39 16.36L965.39 70.71L916.83 70.71z" fill="#037b0b"></path><path d="M1162.52 474.65L1201.9 474.65L1201.9 497.55L1162.52 497.55z" stroke="rgba(66, 68, 90, 1)"></path><path d="M972.41 78.75L1014.49 78.75L1014.49 134.31L972.41 134.31z" stroke="#037b0b"></path><path d="M19.2 120.08a16.68 16.68 0 1 0 23.68-23.49z" stroke="#e73635"></path><path d="M1045.85 57.03L1081.07 57.03L1081.07 85.8L1045.85 85.8z" fill="#d3b714"></path><path d="M764.95 450.61L781.67 450.61L781.67 467.33L764.95 467.33z" fill="#037b0b"></path><path d="M259.14 325.94 a32.08 32.08 0 1 0 64.16 0 a32.08 32.08 0 1 0 -64.16 0z" fill="#d3b714"></path><path d="M1305.46 448.4 a25.5 25.5 0 1 0 51 0 a25.5 25.5 0 1 0 -51 0z" fill="#d3b714"></path><path d="M307.55 417.53L340.59 417.53L340.59 472.3L307.55 472.3z" stroke="#037b0b"></path><path d="M968.35 317.9L1002.81 317.9L1002.81 372.94L968.35 372.94z" fill="#d3b714"></path><path d="M1255.12 255.84a49.7 49.7 0 1 0-78.07 61.53z" stroke="#d3b714"></path><path d="M375.57 516.1 a53.61 53.61 0 1 0 107.22 0 a53.61 53.61 0 1 0 -107.22 0z" stroke="rgba(66, 68, 90, 1)"></path><path d="M802.3 41.29L831.71 41.29L831.71 56.61L802.3 56.61z" stroke="#037b0b"></path><path d="M1431.49 347.86L1447.14 347.86L1447.14 363.51L1431.49 363.51z" stroke="#037b0b"></path><path d="M36.24 240.6L40.61 240.6L40.61 244.97L36.24 244.97z" fill="#037b0b"></path><path d="M602.35 287.43L612.3 287.43L612.3 337.58L602.35 337.58z" fill="#e73635"></path><path d="M1231.04 259.45a7.27 7.27 0 1 0-13.16 6.17z" fill="rgba(66, 68, 90, 1)"></path><path d="M59.76 291.98 a51.03 51.03 0 1 0 102.06 0 a51.03 51.03 0 1 0 -102.06 0z" fill="#037b0b"></path><path d="M1422.2 298.4L1461.73 298.4L1461.73 306.15L1422.2 306.15z" stroke="#d3b714"></path><path d="M561.25 69.38L593.43 69.38L593.43 89.54L561.25 89.54z" stroke="#e73635"></path><path d="M484.21 372.44L498.84 372.44L498.84 387.07L484.21 387.07z" stroke="rgba(66, 68, 90, 1)"></path><path d="M27 534.76 a30.38 30.38 0 1 0 60.76 0 a30.38 30.38 0 1 0 -60.76 0z" stroke="#e73635"></path><path d="M407.91 259.81L439.7 259.81L439.7 291.6L407.91 291.6z" stroke="rgba(66, 68, 90, 1)"></path><path d="M953.25 448.54L1003.23 448.54L1003.23 498.52L953.25 498.52z" fill="#037b0b"></path><path d="M1407.27 160.82L1410.64 160.82L1410.64 164.19L1407.27 164.19z" stroke="#e73635"></path></g><defs><mask id="SvgjsMask1007"><rect width="1440" height="560" fill="#ffffff"></rect></mask></defs></svg>