<svg xmlns="http://www.w3.org/2000/svg" version="1.1" xmlns:xlink="http://www.w3.org/1999/xlink" xmlns:svgjs="http://svgjs.dev/svgjs" width="1440" height="560" preserveAspectRatio="none" viewBox="0 0 1440 560"><g mask="url(&quot;#SvgjsMask1092&quot;)" fill="none"><rect width="136.6" height="136.6" clip-path="url(&quot;#SvgjsClipPath1093&quot;)" x="1133.5" y="218.75" fill="url(&quot;#SvgjsPattern1094&quot;)" transform="rotate(324.09, 1201.8, 287.05)"></rect><path d="M338.45 412.54a5.6 5.6 0 1 0-10.98 2.21 5.6 5.6 0 1 0 10.98-2.21zM322.77 415.69a5.6 5.6 0 1 0-10.99 2.21 5.6 5.6 0 1 0 10.99-2.21zM307.08 418.84a5.6 5.6 0 1 0-10.98 2.21 5.6 5.6 0 1 0 10.98-2.21zM291.39 421.99a5.6 5.6 0 1 0-10.98 2.21 5.6 5.6 0 1 0 10.98-2.21z" stroke="#037b0b" stroke-width="1.05"></path><path d="M123.69 527.68a5.6 5.6 0 1 0 5.37 9.83 5.6 5.6 0 1 0-5.37-9.83zM131.36 541.72a5.6 5.6 0 1 0 5.37 9.83 5.6 5.6 0 1 0-5.37-9.83zM139.04 555.77a5.6 5.6 0 1 0 5.37 9.82 5.6 5.6 0 1 0-5.37-9.82zM146.71 569.81a5.6 5.6 0 1 0 5.37 9.83 5.6 5.6 0 1 0-5.37-9.83z" stroke="#037b0b" stroke-width="2.37" stroke-dasharray="4, 4"></path><path d="M1179.05 124.67a5.6 5.6 0 1 0 10.69 3.32 5.6 5.6 0 1 0-10.69-3.32zM1194.33 129.41a5.6 5.6 0 1 0 10.69 3.32 5.6 5.6 0 1 0-10.69-3.32zM1209.61 134.15a5.6 5.6 0 1 0 10.69 3.32 5.6 5.6 0 1 0-10.69-3.32zM1224.89 138.89a5.6 5.6 0 1 0 10.7 3.32 5.6 5.6 0 1 0-10.7-3.32zM1143.74 130.47a5.6 5.6 0 1 0 10.7 3.32 5.6 5.6 0 1 0-10.7-3.32zM1159.02 135.21a5.6 5.6 0 1 0 10.7 3.32 5.6 5.6 0 1 0-10.7-3.32zM1174.3 139.95a5.6 5.6 0 1 0 10.7 3.32 5.6 5.6 0 1 0-10.7-3.32zM1189.58 144.69a5.6 5.6 0 1 0 10.7 3.32 5.6 5.6 0 1 0-10.7-3.32z" fill="#d3b714"></path><rect width="219.6" height="219.6" clip-path="url(&quot;#SvgjsClipPath1095&quot;)" x="441.14" y="93.27" fill="url(&quot;#SvgjsPattern1096&quot;)" transform="rotate(355.51, 550.94, 203.07)"></rect><rect width="60" height="60" clip-path="url(&quot;#SvgjsClipPath1097&quot;)" x="1010.14" y="506.45" fill="url(&quot;#SvgjsPattern1098&quot;)" transform="rotate(308.61, 1040.14, 536.45)"></rect><rect width="348" height="348" clip-path="url(&quot;#SvgjsClipPath1099&quot;)" x="942.86" y="-153.61" fill="url(&quot;#SvgjsPattern1100&quot;)" transform="rotate(123.43, 1116.86, 20.39)"></rect><path d="M823.45 345.92a5.6 5.6 0 1 0 11.19 0.6 5.6 5.6 0 1 0-11.19-0.6zM839.43 346.77a5.6 5.6 0 1 0 11.19 0.59 5.6 5.6 0 1 0-11.19-0.59zM855.41 347.62a5.6 5.6 0 1 0 11.18 0.59 5.6 5.6 0 1 0-11.18-0.59zM871.39 348.47a5.6 5.6 0 1 0 11.18 0.59 5.6 5.6 0 1 0-11.18-0.59zM790.65 360.2a5.6 5.6 0 1 0 11.18 0.6 5.6 5.6 0 1 0-11.18-0.6zM806.63 361.05a5.6 5.6 0 1 0 11.18 0.59 5.6 5.6 0 1 0-11.18-0.59zM822.61 361.9a5.6 5.6 0 1 0 11.18 0.59 5.6 5.6 0 1 0-11.18-0.59zM838.58 362.75a5.6 5.6 0 1 0 11.19 0.59 5.6 5.6 0 1 0-11.19-0.59z" fill="#d3b714"></path><path d="M788.83 400.52a5.6 5.6 0 1 0-10.26 4.49 5.6 5.6 0 1 0 10.26-4.49zM774.17 406.94a5.6 5.6 0 1 0-10.26 4.49 5.6 5.6 0 1 0 10.26-4.49zM759.51 413.36a5.6 5.6 0 1 0-10.26 4.49 5.6 5.6 0 1 0 10.26-4.49zM744.85 419.77a5.6 5.6 0 1 0-10.26 4.49 5.6 5.6 0 1 0 10.26-4.49zM811.72 373.03a5.6 5.6 0 1 0-10.26 4.5 5.6 5.6 0 1 0 10.26-4.5zM797.07 379.45a5.6 5.6 0 1 0-10.26 4.49 5.6 5.6 0 1 0 10.26-4.49zM782.41 385.87a5.6 5.6 0 1 0-10.26 4.49 5.6 5.6 0 1 0 10.26-4.49zM767.75 392.28a5.6 5.6 0 1 0-10.26 4.49 5.6 5.6 0 1 0 10.26-4.49zM834.62 345.55a5.6 5.6 0 1 0-10.26 4.49 5.6 5.6 0 1 0 10.26-4.49zM819.97 351.96a5.6 5.6 0 1 0-10.26 4.49 5.6 5.6 0 1 0 10.26-4.49zM805.31 358.38a5.6 5.6 0 1 0-10.26 4.49 5.6 5.6 0 1 0 10.26-4.49zM790.65 364.79a5.6 5.6 0 1 0-10.26 4.49 5.6 5.6 0 1 0 10.26-4.49z" stroke="#037b0b" stroke-width="1" stroke-dasharray="3, 2"></path><path d="M95.93 452.01a5.6 5.6 0 1 0 0.9-11.17 5.6 5.6 0 1 0-0.9 11.17zM97.22 436.06a5.6 5.6 0 1 0 0.91-11.17 5.6 5.6 0 1 0-0.91 11.17zM98.51 420.11a5.6 5.6 0 1 0 0.91-11.16 5.6 5.6 0 1 0-0.91 11.16zM99.8 404.16a5.6 5.6 0 1 0 0.91-11.16 5.6 5.6 0 1 0-0.91 11.16z" fill="#d3b714"></path><rect width="163.08" height="163.08" clip-path="url(&quot;#SvgjsClipPath1101&quot;)" x="544.49" y="329.85" fill="url(&quot;#SvgjsPattern1102&quot;)" transform="rotate(117.55, 626.03, 411.39)"></rect><circle r="52.10517920745698" cx="70.29" cy="364.23" stroke="#d3b714" stroke-width="1.45" stroke-dasharray="3, 2"></circle></g><defs><mask id="SvgjsMask1092"><rect width="1440" height="560" fill="#ffffff"></rect></mask><pattern x="0" y="0" width="136.6" height="13.66" patternUnits="userSpaceOnUse" id="SvgjsPattern1094"><rect width="136.6" height="6.83" x="0" y="0" fill="#037b0b"></rect><rect width="136.6" height="6.83" x="0" y="6.83" fill="rgba(0, 0, 0, 0)"></rect></pattern><clipPath id="SvgjsClipPath1093"><circle r="34.15" cx="1201.8" cy="287.05"></circle></clipPath><pattern x="0" y="0" width="219.6" height="10.98" patternUnits="userSpaceOnUse" id="SvgjsPattern1096"><rect width="219.6" height="5.49" x="0" y="0" fill="#037b0b"></rect><rect width="219.6" height="5.49" x="0" y="5.49" fill="rgba(0, 0, 0, 0)"></rect></pattern><clipPath id="SvgjsClipPath1095"><circle r="54.9" cx="550.94" cy="203.07"></circle></clipPath><pattern x="0" y="0" width="60" height="6" patternUnits="userSpaceOnUse" id="SvgjsPattern1098"><rect width="60" height="3" x="0" y="0" fill="#d3b714"></rect><rect width="60" height="3" x="0" y="3" fill="rgba(0, 0, 0, 0)"></rect></pattern><clipPath id="SvgjsClipPath1097"><circle r="15" cx="1040.14" cy="536.45"></circle></clipPath><pattern x="0" y="0" width="6" height="6" patternUnits="userSpaceOnUse" id="SvgjsPattern1100"><path d="M3 1L3 5M1 3L5 3" stroke="#037b0b" fill="none" stroke-width="1.39"></path></pattern><clipPath id="SvgjsClipPath1099"><circle r="87" cx="1116.86" cy="20.39"></circle></clipPath><pattern x="0" y="0" width="9.06" height="9.06" patternUnits="userSpaceOnUse" id="SvgjsPattern1102"><path d="M4.53 1L4.53 8.06M1 4.53L8.06 4.53" stroke="#d3b714" fill="none" stroke-width="1.35"></path></pattern><clipPath id="SvgjsClipPath1101"><circle r="40.77" cx="626.03" cy="411.39"></circle></clipPath></defs></svg>