<svg xmlns="http://www.w3.org/2000/svg" version="1.1" xmlns:xlink="http://www.w3.org/1999/xlink" xmlns:svgjs="http://svgjs.dev/svgjs" width="1440" height="560" preserveAspectRatio="none" viewBox="0 0 1440 560"><g mask="url(&quot;#SvgjsMask1011&quot;)" fill="none"><path d="M294.74 89.81 a17.71 17.71 0 1 0 35.42 0 a17.71 17.71 0 1 0 -35.42 0z" fill="rgba(66, 68, 90, 1)"></path><path d="M1083.95 420.7L1132.34 420.7L1132.34 469.09L1083.95 469.09z" fill="#037b0b"></path><path d="M365.11 363.02L388.92 363.02L388.92 386.83L365.11 386.83z" stroke="#e73635"></path><path d="M1044.74 266.18a37.28 37.28 0 1 0-60.88-43.06z" fill="rgba(66, 68, 90, 1)"></path><path d="M68.32 174.79a55.57 55.57 0 1 0-109.5-19z" fill="#037b0b"></path><path d="M1320.42 313.27 a16.75 16.75 0 1 0 33.5 0 a16.75 16.75 0 1 0 -33.5 0z" stroke="rgba(66, 68, 90, 1)"></path><path d="M744.56 411.01L772.13 411.01L772.13 438.58L744.56 438.58z" stroke="#e73635"></path><path d="M662.62 60.77 a12.24 12.24 0 1 0 24.48 0 a12.24 12.24 0 1 0 -24.48 0z" stroke="#e73635"></path><path d="M225.96 406.13a20.25 20.25 0 1 0 13.7-38.12z" stroke="#037b0b"></path><path d="M769.78 43.92L784.01 43.92L784.01 58.15L769.78 58.15z" stroke="#037b0b"></path><path d="M544.43 493.44a28.55 28.55 0 1 0 30.86-48.04z" stroke="#e73635"></path><path d="M675.94 290.44a30.83 30.83 0 1 0 18.69-58.76z" fill="rgba(66, 68, 90, 1)"></path><path d="M1134.37 205.93a42.19 42.19 0 1 0 81.88 20.4z" stroke="#e73635"></path><path d="M733.33 355.81a2.7 2.7 0 1 0-4.26-3.32z" stroke="#d3b714"></path><path d="M500.9 406.63 a39.79 39.79 0 1 0 79.58 0 a39.79 39.79 0 1 0 -79.58 0z" fill="#037b0b"></path><path d="M326.56 447.26a28.14 28.14 0 1 0 56.18 3.36z" stroke="rgba(66, 68, 90, 1)"></path><path d="M886.04 102.06a36.92 36.92 0 1 0-32.83-66.14z" fill="#037b0b"></path><path d="M527.94 458.88L574.65 458.88L574.65 505.59L527.94 505.59z" fill="rgba(66, 68, 90, 1)"></path><path d="M352.57 445.1L381.65 445.1L381.65 452.08L352.57 452.08z" stroke="#e73635"></path><path d="M412.5 414.59a46.02 46.02 0 1 0 81.98-41.84z" fill="#037b0b"></path><path d="M1277.55 121.92a34.79 34.79 0 1 0-3.43 69.49z" fill="rgba(66, 68, 90, 1)"></path><path d="M1201.07 298.51L1215.02 298.51L1215.02 320.75L1201.07 320.75z" stroke="#d3b714"></path><path d="M845.37 295.33 a8.88 8.88 0 1 0 17.76 0 a8.88 8.88 0 1 0 -17.76 0z" fill="rgba(66, 68, 90, 1)"></path><path d="M349.99 560.01a15.58 15.58 0 1 0 29.98-8.51z" stroke="#037b0b"></path><path d="M426.33 365.84L447.48 365.84L447.48 382.57L426.33 382.57z" stroke="#037b0b"></path><path d="M738.8 515.79 a49.57 49.57 0 1 0 99.14 0 a49.57 49.57 0 1 0 -99.14 0z" stroke="#d3b714"></path><path d="M285.45 153.67a48.72 48.72 0 1 0-97.02-9z" fill="#037b0b"></path><path d="M44.31 460.31a14.49 14.49 0 1 0 24.73-15.1z" stroke="rgba(66, 68, 90, 1)"></path><path d="M1303.67 99.77L1323.6 99.77L1323.6 119.7L1303.67 119.7z" stroke="rgba(66, 68, 90, 1)"></path><path d="M1147.52 393.27a19.68 19.68 0 1 0 20.16 33.8z" fill="#e73635"></path><path d="M1047.48 76.31 a14.97 14.97 0 1 0 29.94 0 a14.97 14.97 0 1 0 -29.94 0z" stroke="rgba(66, 68, 90, 1)"></path><path d="M243.13 445.98a11.9 11.9 0 1 0 11.97-20.57z" stroke="#e73635"></path><path d="M677.8 22.55 a6.69 6.69 0 1 0 13.38 0 a6.69 6.69 0 1 0 -13.38 0z" fill="rgba(66, 68, 90, 1)"></path></g><defs><mask id="SvgjsMask1011"><rect width="1440" height="560" fill="#ffffff"></rect></mask></defs></svg>