<svg xmlns="http://www.w3.org/2000/svg" version="1.1" xmlns:xlink="http://www.w3.org/1999/xlink" xmlns:svgjs="http://svgjs.dev/svgjs" width="1440" height="560" preserveAspectRatio="none" viewBox="0 0 1440 560"><g mask="url(&quot;#SvgjsMask1023&quot;)" fill="none"><path d="M67.93 526.85 a16.45 16.45 0 1 0 32.9 0 a16.45 16.45 0 1 0 -32.9 0z" stroke="rgba(66, 68, 90, 1)"></path><path d="M1017.45 349.11 a3.73 3.73 0 1 0 7.46 0 a3.73 3.73 0 1 0 -7.46 0z" fill="rgba(66, 68, 90, 1)"></path><path d="M1133.02 341.7L1135.1 341.7L1135.1 343.78L1133.02 343.78z" fill="#037b0b"></path><path d="M117.72 58.89 a50.72 50.72 0 1 0 101.44 0 a50.72 50.72 0 1 0 -101.44 0z" fill="#d3b714"></path><path d="M1402.34 34.43a21.33 21.33 0 1 0 41.22 10.96z" stroke="#e73635"></path><path d="M455.52 30.51L456.69 30.51L456.69 69.83L455.52 69.83z" stroke="#d3b714"></path><path d="M414.38 547.25a42.15 42.15 0 1 0 56.79-62.3z" fill="rgba(66, 68, 90, 1)"></path><path d="M1103.44 329a28.72 28.72 0 1 0-27.66-50.34z" fill="#e73635"></path><path d="M271.33 535.33L304.27 535.33L304.27 568.27L271.33 568.27z" stroke="rgba(66, 68, 90, 1)"></path><path d="M995.68 95.33a42.93 42.93 0 1 0 31.13-80.02z" stroke="#d3b714"></path><path d="M411.85 433.73 a53.57 53.57 0 1 0 107.14 0 a53.57 53.57 0 1 0 -107.14 0z" fill="#d3b714"></path><path d="M198.49 21.93L199.95 21.93L199.95 44.1L198.49 44.1z" fill="#037b0b"></path><path d="M1204.81 209.48L1215.19 209.48L1215.19 252.96L1204.81 252.96z" stroke="#d3b714"></path><path d="M607.16 295.28 a20.48 20.48 0 1 0 40.96 0 a20.48 20.48 0 1 0 -40.96 0z" stroke="#d3b714"></path><path d="M503.62 199.23L536.26 199.23L536.26 231.87L503.62 231.87z" fill="#e73635"></path><path d="M1025.75 229.88a16.35 16.35 0 1 0 32.48 3.84z" stroke="#d3b714"></path><path d="M896.8 348.3 a26.49 26.49 0 1 0 52.98 0 a26.49 26.49 0 1 0 -52.98 0z" fill="#037b0b"></path><path d="M1435.56 112.83L1436.64 112.83L1436.64 163.82L1435.56 163.82z" stroke="#e73635"></path><path d="M745.36 81.9L751.12 81.9L751.12 137.78L745.36 137.78z" fill="#d3b714"></path><path d="M421.31 401.12 a18.02 18.02 0 1 0 36.04 0 a18.02 18.02 0 1 0 -36.04 0z" fill="#e73635"></path><path d="M1211.74-29.84a54.51 54.51 0 1 0-2.69 108.99z" fill="rgba(66, 68, 90, 1)"></path><path d="M864.19 419.33L889.01 419.33L889.01 444.15L864.19 444.15z" fill="#d3b714"></path><path d="M976.89 417.57L1019.75 417.57L1019.75 460.43L976.89 460.43z" stroke="#d3b714"></path><path d="M726.29 70.79 a19.96 19.96 0 1 0 39.92 0 a19.96 19.96 0 1 0 -39.92 0z" fill="#037b0b"></path><path d="M848.73 160.1a50.3 50.3 0 1 0 81.75 58.62z" fill="rgba(66, 68, 90, 1)"></path><path d="M536.88 486.23L554.51 486.23L554.51 503.86L536.88 503.86z" stroke="#e73635"></path><path d="M1291.75 89.52L1338.8 89.52L1338.8 136.57L1291.75 136.57z" fill="#037b0b"></path><path d="M452.3 327.04a26.77 26.77 0 1 0-7.16 53.06z" fill="#d3b714"></path><path d="M1181.64 200.87 a37.01 37.01 0 1 0 74.02 0 a37.01 37.01 0 1 0 -74.02 0z" fill="rgba(66, 68, 90, 1)"></path><path d="M573.06 324.53L604.75 324.53L604.75 373.3L573.06 373.3z" stroke="#037b0b"></path><path d="M992.48 209L1038.35 209L1038.35 261.78L992.48 261.78z" fill="rgba(66, 68, 90, 1)"></path><path d="M351.11 142.66 a53.89 53.89 0 1 0 107.78 0 a53.89 53.89 0 1 0 -107.78 0z" stroke="#d3b714"></path><path d="M709.32 530.1 a36.72 36.72 0 1 0 73.44 0 a36.72 36.72 0 1 0 -73.44 0z" stroke="rgba(66, 68, 90, 1)"></path></g><defs><mask id="SvgjsMask1023"><rect width="1440" height="560" fill="#ffffff"></rect></mask></defs></svg>