<svg xmlns="http://www.w3.org/2000/svg" version="1.1" xmlns:xlink="http://www.w3.org/1999/xlink" xmlns:svgjs="http://svgjs.dev/svgjs" width="1440" height="560" preserveAspectRatio="none" viewBox="0 0 1440 560"><g mask="url(&quot;#SvgjsMask1003&quot;)" fill="none"><path d="M1055.72 91.97L1066.02 91.97L1066.02 123.86L1055.72 123.86z" stroke="rgba(66, 68, 90, 1)"></path><path d="M418.3 319.87a8.73 8.73 0 1 0 5.17 16.67z" fill="#037b0b"></path><path d="M1396.3 350.63 a22.51 22.51 0 1 0 45.02 0 a22.51 22.51 0 1 0 -45.02 0z" fill="#037b0b"></path><path d="M1253.91 246.57L1279.89 246.57L1279.89 270.12L1253.91 270.12z" fill="#d3b714"></path><path d="M993.74 582.3a35.47 35.47 0 1 0 11.33-70.03z" fill="#d3b714"></path><path d="M350.02 538.78 a47.12 47.12 0 1 0 94.24 0 a47.12 47.12 0 1 0 -94.24 0z" fill="rgba(66, 68, 90, 1)"></path><path d="M-20.77 356.51 a34.82 34.82 0 1 0 69.64 0 a34.82 34.82 0 1 0 -69.64 0z" stroke="#037b0b"></path><path d="M1264.26 348.36L1314.46 348.36L1314.46 351L1264.26 351z" stroke="#037b0b"></path><path d="M183.33 537.88L233.43 537.88L233.43 561.53L183.33 561.53z" fill="#037b0b"></path><path d="M1223.84 318.79L1272.26 318.79L1272.26 367.21L1223.84 367.21z" stroke="#e73635"></path><path d="M1078.8 88.34 a30.31 30.31 0 1 0 60.62 0 a30.31 30.31 0 1 0 -60.62 0z" fill="#037b0b"></path><path d="M512.92 196.77 a14.34 14.34 0 1 0 28.68 0 a14.34 14.34 0 1 0 -28.68 0z" stroke="#d3b714"></path><path d="M1166.13 68.32L1187.93 68.32L1187.93 105.66L1166.13 105.66z" stroke="#037b0b"></path><path d="M692.22 195.06L708.87 195.06L708.87 239.35L692.22 239.35z" stroke="#e73635"></path><path d="M1013.19 137.33a29.8 29.8 0 1 0 7.75 59.09z" stroke="#d3b714"></path><path d="M980.5 144.2a54.84 54.84 0 1 0 58.17-92.98z" fill="#037b0b"></path><path d="M1102.77 542.97L1105.15 542.97L1105.15 598.45L1102.77 598.45z" fill="#e73635"></path><path d="M1004.22 384.97L1050.62 384.97L1050.62 386.33L1004.22 386.33z" fill="#e73635"></path><path d="M1283.13 206.7 a42.62 42.62 0 1 0 85.24 0 a42.62 42.62 0 1 0 -85.24 0z" fill="rgba(66, 68, 90, 1)"></path><path d="M72.93 404.67L128.58 404.67L128.58 460.32L72.93 460.32z" fill="#e73635"></path><path d="M170.25 9.55L208.29 9.55L208.29 47.59L170.25 47.59z" fill="#d3b714"></path><path d="M94.65 453.06 a9.78 9.78 0 1 0 19.56 0 a9.78 9.78 0 1 0 -19.56 0z" stroke="#e73635"></path><path d="M1147.06 313.46L1186.87 313.46L1186.87 353.27L1147.06 353.27z" stroke="rgba(66, 68, 90, 1)"></path><path d="M188.86 96.59a16.77 16.77 0 1 0 33.54-0.12z" fill="#d3b714"></path><path d="M156.02 332.5L168.12 332.5L168.12 344.6L156.02 344.6z" fill="#d3b714"></path><path d="M1043.35 302.25a50.26 50.26 0 1 0-20.69 98.37z" fill="rgba(66, 68, 90, 1)"></path><path d="M71.66 470.91L88.83 470.91L88.83 488.08L71.66 488.08z" fill="#d3b714"></path><path d="M851.27 316.1a41.71 41.71 0 1 0 33.77-76.28z" stroke="#d3b714"></path><path d="M1026.52 232.93a0.66 0.66 0 1 0-0.05 1.32z" stroke="rgba(66, 68, 90, 1)"></path><path d="M111.52 549.7 a49.14 49.14 0 1 0 98.28 0 a49.14 49.14 0 1 0 -98.28 0z" fill="#d3b714"></path><path d="M842.69 70.36 a26.41 26.41 0 1 0 52.82 0 a26.41 26.41 0 1 0 -52.82 0z" stroke="#037b0b"></path><path d="M839.64 309.99L873.3 309.99L873.3 356.04L839.64 356.04z" stroke="#d3b714"></path><path d="M1111.15 420.09L1161.19 420.09L1161.19 470.13L1111.15 470.13z" stroke="rgba(66, 68, 90, 1)"></path></g><defs><mask id="SvgjsMask1003"><rect width="1440" height="560" fill="#ffffff"></rect></mask></defs></svg>