<svg xmlns="http://www.w3.org/2000/svg" version="1.1" xmlns:xlink="http://www.w3.org/1999/xlink" xmlns:svgjs="http://svgjs.dev/svgjs" width="1440" height="560" preserveAspectRatio="none" viewBox="0 0 1440 560"><g mask="url(&quot;#SvgjsMask1010&quot;)" fill="none"><path d="M1217.04 510.85 a6.84 6.84 0 1 0 13.68 0 a6.84 6.84 0 1 0 -13.68 0z" fill="#d3b714"></path><path d="M971.71 133.63L1019.17 133.63L1019.17 181.09L971.71 181.09z" stroke="#037b0b"></path><path d="M854.76 398.58L862.52 398.58L862.52 406.34L854.76 406.34z" stroke="rgba(66, 68, 90, 1)"></path><path d="M1066.36 78.29 a36.52 36.52 0 1 0 73.04 0 a36.52 36.52 0 1 0 -73.04 0z" fill="#e73635"></path><path d="M1253.29 497.56L1288.39 497.56L1288.39 551.81L1253.29 551.81z" stroke="#e73635"></path><path d="M965.16 558.13L1014.31 558.13L1014.31 607.28L965.16 607.28z" stroke="#d3b714"></path><path d="M216.44 488.4 a17.42 17.42 0 1 0 34.84 0 a17.42 17.42 0 1 0 -34.84 0z" stroke="#e73635"></path><path d="M252.14 453.02 a12.01 12.01 0 1 0 24.02 0 a12.01 12.01 0 1 0 -24.02 0z" stroke="rgba(66, 68, 90, 1)"></path><path d="M437.14 8.07L462.73 8.07L462.73 57.7L437.14 57.7z" fill="rgba(66, 68, 90, 1)"></path><path d="M494.83 338.86a6.94 6.94 0 1 0-6.54 12.24z" stroke="#e73635"></path><path d="M1220.28 128.96a0.57 0.57 0 1 0-1.04-0.46z" stroke="#e73635"></path><path d="M604.38 263.71a45.23 45.23 0 1 0-27.53 86.17z" stroke="#d3b714"></path><path d="M975.72 82.37L1029.75 82.37L1029.75 108.44L975.72 108.44z" fill="#d3b714"></path><path d="M1062.54 239.4a52.95 52.95 0 1 0 105.84 3.68z" stroke="#037b0b"></path><path d="M410.38 182.8a2.27 2.27 0 1 0-1.85-4.14z" fill="#037b0b"></path><path d="M1094.34 547.03L1119.64 547.03L1119.64 572.81L1094.34 572.81z" fill="rgba(66, 68, 90, 1)"></path><path d="M1150.36 412.85a8.59 8.59 0 1 0-17.09 1.77z" stroke="#d3b714"></path><path d="M766.05 468.6 a4.61 4.61 0 1 0 9.22 0 a4.61 4.61 0 1 0 -9.22 0z" fill="#e73635"></path><path d="M292.07 201.11a37.82 37.82 0 1 0 75.49-4.76z" fill="#e73635"></path><path d="M695.09 62.03 a49.57 49.57 0 1 0 99.14 0 a49.57 49.57 0 1 0 -99.14 0z" stroke="#e73635"></path><path d="M681.76 210.8L691.92 210.8L691.92 261.3L681.76 261.3z" stroke="#037b0b"></path><path d="M631.38 140.46L678.99 140.46L678.99 168.56L631.38 168.56z" stroke="#e73635"></path><path d="M250.86 0.84a24.74 24.74 0 1 0 27.37 41.22z" fill="rgba(66, 68, 90, 1)"></path><path d="M627.64 266.46L651.97 266.46L651.97 306.5L627.64 306.5z" fill="#037b0b"></path><path d="M408.33 59.71L409.11 59.71L409.11 94.87L408.33 94.87z" fill="rgba(66, 68, 90, 1)"></path><path d="M121.89 117.1 a31.95 31.95 0 1 0 63.9 0 a31.95 31.95 0 1 0 -63.9 0z" stroke="#037b0b"></path><path d="M1430.43 533.63L1444.66 533.63L1444.66 547.86L1430.43 547.86z" stroke="#e73635"></path><path d="M236.77 30.43a26.59 26.59 0 1 0 45.06-28.24z" fill="#e73635"></path><path d="M1282.12 425.16L1311.88 425.16L1311.88 454.92L1282.12 454.92z" stroke="#e73635"></path><path d="M61.13 123.16L63.61 123.16L63.61 158.98L61.13 158.98z" fill="#037b0b"></path><path d="M1339.52 123.66L1365.5 123.66L1365.5 160.6L1339.52 160.6z" fill="#e73635"></path><path d="M349.97 265.33a36.09 36.09 0 1 0 67.72-24.96z" fill="#d3b714"></path><path d="M555.64 536.98L601.97 536.98L601.97 556.28L555.64 556.28z" fill="#037b0b"></path></g><defs><mask id="SvgjsMask1010"><rect width="1440" height="560" fill="#ffffff"></rect></mask></defs></svg>