<svg xmlns="http://www.w3.org/2000/svg" version="1.1" xmlns:xlink="http://www.w3.org/1999/xlink" xmlns:svgjs="http://svgjs.dev/svgjs" width="1440" height="560" preserveAspectRatio="none" viewBox="0 0 1440 560"><g mask="url(&quot;#SvgjsMask1004&quot;)" fill="none"><path d="M584.09 504.44a26.38 26.38 0 1 0 40.26-34.11z" fill="rgba(66, 68, 90, 1)"></path><path d="M891.32 182.45a38.07 38.07 0 1 0-76.04 3.79z" stroke="#d3b714"></path><path d="M52.53 184.4 a2.28 2.28 0 1 0 4.56 0 a2.28 2.28 0 1 0 -4.56 0z" fill="#037b0b"></path><path d="M199.78 119.79a35.63 35.63 0 1 0 20.66-68.2z" stroke="#037b0b"></path><path d="M801.38 210.81L820.15 210.81L820.15 213.76L801.38 213.76z" fill="#d3b714"></path><path d="M752.26 463.56L770.64 463.56L770.64 492.49L752.26 492.49z" stroke="#e73635"></path><path d="M641.14 125.17a30.37 30.37 0 1 0-50.03 34.45z" stroke="#037b0b"></path><path d="M143.3 353.79a54.22 54.22 0 1 0 9.25 108.05z" fill="#e73635"></path><path d="M640.29 305.91a14.65 14.65 0 1 0 14.17 25.65z" stroke="#037b0b"></path><path d="M1315.12 357.55a37.53 37.53 0 1 0 75.02 2.42z" fill="#d3b714"></path><path d="M1174.16 424.77L1193.3 424.77L1193.3 431.12L1174.16 431.12z" stroke="#d3b714"></path><path d="M396.05 126.39L448.41 126.39L448.41 178.75L396.05 178.75z" fill="#d3b714"></path><path d="M539.95 369.43L594.77 369.43L594.77 424.25L539.95 424.25z" stroke="#d3b714"></path><path d="M347.94 128.65a38.58 38.58 0 1 0 75.62 15.32z" fill="#037b0b"></path><path d="M836.44 113.9a8.9 8.9 0 1 0-16.96-5.4z" stroke="#d3b714"></path><path d="M982.41 544.59 a21.85 21.85 0 1 0 43.7 0 a21.85 21.85 0 1 0 -43.7 0z" stroke="rgba(66, 68, 90, 1)"></path><path d="M859.63 28.97 a24.47 24.47 0 1 0 48.94 0 a24.47 24.47 0 1 0 -48.94 0z" stroke="rgba(66, 68, 90, 1)"></path><path d="M769.55 32.14L811.55 32.14L811.55 74.14L769.55 74.14z" stroke="#037b0b"></path><path d="M340.04 215.18a29.52 29.52 0 1 0 9.24-58.31z" stroke="#d3b714"></path><path d="M332.19 228.63 a1.76 1.76 0 1 0 3.52 0 a1.76 1.76 0 1 0 -3.52 0z" stroke="#d3b714"></path><path d="M164.19 552.41 a44.82 44.82 0 1 0 89.64 0 a44.82 44.82 0 1 0 -89.64 0z" fill="#e73635"></path><path d="M1088.27 150.33 a37.53 37.53 0 1 0 75.06 0 a37.53 37.53 0 1 0 -75.06 0z" stroke="#d3b714"></path><path d="M1406.38 415.74a34.7 34.7 0 1 0 21.94-65.84z" stroke="#d3b714"></path><path d="M1115.34 447.81L1134.14 447.81L1134.14 493.38L1115.34 493.38z" stroke="rgba(66, 68, 90, 1)"></path><path d="M663.51 410.05 a18.75 18.75 0 1 0 37.5 0 a18.75 18.75 0 1 0 -37.5 0z" fill="rgba(66, 68, 90, 1)"></path><path d="M522.36 57.14a54.37 54.37 0 1 0-96.51 50.08z" stroke="rgba(66, 68, 90, 1)"></path><path d="M535.4 43.89 a27.85 27.85 0 1 0 55.7 0 a27.85 27.85 0 1 0 -55.7 0z" stroke="#037b0b"></path><path d="M324.77 22.48 a35.72 35.72 0 1 0 71.44 0 a35.72 35.72 0 1 0 -71.44 0z" stroke="#d3b714"></path><path d="M532.77 329.94a32.79 32.79 0 1 0-63.11 17.81z" stroke="rgba(66, 68, 90, 1)"></path><path d="M1040.28 47.52a20.75 20.75 0 1 0-39.62-12.33z" stroke="rgba(66, 68, 90, 1)"></path><path d="M1222.57 63.67 a34.08 34.08 0 1 0 68.16 0 a34.08 34.08 0 1 0 -68.16 0z" fill="rgba(66, 68, 90, 1)"></path><path d="M822.89 321.05 a50.78 50.78 0 1 0 101.56 0 a50.78 50.78 0 1 0 -101.56 0z" stroke="#e73635"></path><path d="M567.56 307.08 a33.07 33.07 0 1 0 66.14 0 a33.07 33.07 0 1 0 -66.14 0z" fill="#e73635"></path></g><defs><mask id="SvgjsMask1004"><rect width="1440" height="560" fill="#ffffff"></rect></mask></defs></svg>