<svg xmlns="http://www.w3.org/2000/svg" version="1.1" xmlns:xlink="http://www.w3.org/1999/xlink" xmlns:svgjs="http://svgjs.dev/svgjs" width="1440" height="560" preserveAspectRatio="none" viewBox="0 0 1440 560"><g mask="url(&quot;#SvgjsMask1016&quot;)" fill="none"><path d="M1417.04 452.36L1446.01 452.36L1446.01 452.62L1417.04 452.62z" fill="#e73635"></path><path d="M555.23 278.79a1.17 1.17 0 1 0 0.39 2.31z" fill="#037b0b"></path><path d="M895.22 384.71L915.56 384.71L915.56 418.85L895.22 418.85z" stroke="#037b0b"></path><path d="M795.42 176.32L841.02 176.32L841.02 221.92L795.42 221.92z" stroke="rgba(66, 68, 90, 1)"></path><path d="M999.69 450.29L1021.56 450.29L1021.56 471.38L999.69 471.38z" stroke="#d3b714"></path><path d="M1301.83 230.83a17.93 17.93 0 1 0-16.31-31.94z" stroke="#d3b714"></path><path d="M511.03 302.45 a12.5 12.5 0 1 0 25 0 a12.5 12.5 0 1 0 -25 0z" stroke="#037b0b"></path><path d="M1282.94 281.64L1294.38 281.64L1294.38 295.68L1282.94 295.68z" fill="#e73635"></path><path d="M103.86 32.68L109.76 32.68L109.76 75.78L103.86 75.78z" fill="#d3b714"></path><path d="M465.45 382.62 a23.41 23.41 0 1 0 46.82 0 a23.41 23.41 0 1 0 -46.82 0z" stroke="rgba(66, 68, 90, 1)"></path><path d="M415.85 340.3a14.25 14.25 0 1 0 5.7 27.93z" fill="rgba(66, 68, 90, 1)"></path><path d="M1320.29 175.13L1371.7 175.13L1371.7 226.54L1320.29 226.54z" stroke="#d3b714"></path><path d="M57.95 245.48a7.37 7.37 0 1 0 14.44 2.92z" fill="#e73635"></path><path d="M345.56 204.14a31.13 31.13 0 1 0 1.55-62.24z" fill="rgba(66, 68, 90, 1)"></path><path d="M601.58 210.4L620.91 210.4L620.91 216.6L601.58 216.6z" stroke="rgba(66, 68, 90, 1)"></path><path d="M159.77 76.39a19.73 19.73 0 1 0 7.1-38.81z" stroke="rgba(66, 68, 90, 1)"></path><path d="M827.92 331.68L853.73 331.68L853.73 386.13L827.92 386.13z" fill="#037b0b"></path><path d="M1372.81 537.78L1416.03 537.78L1416.03 586.1L1372.81 586.1z" fill="#e73635"></path><path d="M1171.88 401.12 a36.68 36.68 0 1 0 73.36 0 a36.68 36.68 0 1 0 -73.36 0z" stroke="#d3b714"></path><path d="M1154.36 102.6L1189.39 102.6L1189.39 137.63L1154.36 137.63z" fill="#037b0b"></path><path d="M1332.02 272.41L1382.64 272.41L1382.64 323.03L1332.02 323.03z" stroke="#d3b714"></path><path d="M927.61 372.3L929.11 372.3L929.11 373.8L927.61 373.8z" stroke="rgba(66, 68, 90, 1)"></path><path d="M6.63 265.07L24.64 265.07L24.64 283.08L6.63 283.08z" fill="rgba(66, 68, 90, 1)"></path><path d="M655.9 321.02a39.4 39.4 0 1 0-23.01 75.36z" fill="#037b0b"></path><path d="M975.93 26.35 a42.86 42.86 0 1 0 85.72 0 a42.86 42.86 0 1 0 -85.72 0z" stroke="rgba(66, 68, 90, 1)"></path><path d="M128.49 99.75L175.89 99.75L175.89 122.05L128.49 122.05z" fill="rgba(66, 68, 90, 1)"></path><path d="M306.83 447.63L338.91 447.63L338.91 479.71L306.83 479.71z" fill="#e73635"></path><path d="M311.08 357.63a0.04 0.04 0 1 0-0.06 0.06z" stroke="#037b0b"></path><path d="M1165.36 55.24 a26.18 26.18 0 1 0 52.36 0 a26.18 26.18 0 1 0 -52.36 0z" fill="rgba(66, 68, 90, 1)"></path><path d="M19.4 440.88L43.08 440.88L43.08 464.56L19.4 464.56z" stroke="#037b0b"></path><path d="M469.04 432.02a46.31 46.31 0 1 0-74.95-54.43z" fill="rgba(66, 68, 90, 1)"></path><path d="M358.34 7.92L381.45 7.92L381.45 31.03L358.34 31.03z" stroke="rgba(66, 68, 90, 1)"></path><path d="M431.5 165.86L487.34 165.86L487.34 198.73L431.5 198.73z" stroke="#e73635"></path></g><defs><mask id="SvgjsMask1016"><rect width="1440" height="560" fill="#ffffff"></rect></mask></defs></svg>