<svg xmlns="http://www.w3.org/2000/svg" version="1.1" xmlns:xlink="http://www.w3.org/1999/xlink" xmlns:svgjs="http://svgjs.dev/svgjs" width="1440" height="560" preserveAspectRatio="none" viewBox="0 0 1440 560"><g mask="url(&quot;#SvgjsMask1006&quot;)" fill="none"><path d="M1053.16 127.72 a8.2 8.2 0 1 0 16.4 0 a8.2 8.2 0 1 0 -16.4 0z" fill="#e73635"></path><path d="M858.7 319.91 a27.44 27.44 0 1 0 54.88 0 a27.44 27.44 0 1 0 -54.88 0z" stroke="#d3b714"></path><path d="M479.31 236.11 a40.03 40.03 0 1 0 80.06 0 a40.03 40.03 0 1 0 -80.06 0z" fill="#d3b714"></path><path d="M495.47 313.45a8.53 8.53 0 1 0 15.38-7.38z" stroke="#037b0b"></path><path d="M506.95 491.02L523.07 491.02L523.07 532.8L506.95 532.8z" stroke="#037b0b"></path><path d="M353.95 75.86L365.23 75.86L365.23 87.14L353.95 87.14z" fill="#037b0b"></path><path d="M371.1 163.36 a44.39 44.39 0 1 0 88.78 0 a44.39 44.39 0 1 0 -88.78 0z" stroke="#037b0b"></path><path d="M92.14 218.63a45.26 45.26 0 1 0 36.19-82.97z" stroke="rgba(66, 68, 90, 1)"></path><path d="M296.49 19.14 a30.5 30.5 0 1 0 61 0 a30.5 30.5 0 1 0 -61 0z" stroke="#037b0b"></path><path d="M650.1 245.26 a10.87 10.87 0 1 0 21.74 0 a10.87 10.87 0 1 0 -21.74 0z" stroke="#d3b714"></path><path d="M1060.91 72.71L1090.33 72.71L1090.33 102.13L1060.91 102.13z" fill="#e73635"></path><path d="M860.53 426.73a3.41 3.41 0 1 0 0.77 6.78z" fill="rgba(66, 68, 90, 1)"></path><path d="M983.22 166.56a37.82 37.82 0 1 0-60.5 45.4z" fill="#e73635"></path><path d="M470.19 327.64a38.11 38.11 0 1 0 75.88-7.28z" fill="#e73635"></path><path d="M437.28 421.29a31.13 31.13 0 1 0 56.75 25.6z" fill="rgba(66, 68, 90, 1)"></path><path d="M196.38 56.51L203.63 56.51L203.63 63.76L196.38 63.76z" fill="#e73635"></path><path d="M1271.11 152.58L1289.11 152.58L1289.11 170.58L1271.11 170.58z" stroke="rgba(66, 68, 90, 1)"></path><path d="M51.59 109.53 a3.73 3.73 0 1 0 7.46 0 a3.73 3.73 0 1 0 -7.46 0z" stroke="#d3b714"></path><path d="M524.78 125.31L554.99 125.31L554.99 155.52L524.78 155.52z" fill="rgba(66, 68, 90, 1)"></path><path d="M199.38 157.91 a26.59 26.59 0 1 0 53.18 0 a26.59 26.59 0 1 0 -53.18 0z" stroke="#037b0b"></path><path d="M196.48 377.91L204.1 377.91L204.1 385.53L196.48 385.53z" stroke="#d3b714"></path><path d="M322.03 52.67 a34.53 34.53 0 1 0 69.06 0 a34.53 34.53 0 1 0 -69.06 0z" stroke="#e73635"></path><path d="M394.9 25.9L437.6 25.9L437.6 77.05L394.9 77.05z" fill="#e73635"></path><path d="M1411.74 320.53L1429.02 320.53L1429.02 337.81L1411.74 337.81z" fill="#e73635"></path><path d="M170.49 210.01L211.96 210.01L211.96 212.81L170.49 212.81z" stroke="#037b0b"></path><path d="M458.44 152.02 a41.56 41.56 0 1 0 83.12 0 a41.56 41.56 0 1 0 -83.12 0z" stroke="#037b0b"></path><path d="M697.37 10.52L749.37 10.52L749.37 62.52L697.37 62.52z" fill="rgba(66, 68, 90, 1)"></path><path d="M305.81 327.27a0.85 0.85 0 1 0 1.48 0.84z" fill="#d3b714"></path><path d="M256.88 387.15L310.43 387.15L310.43 428.3L256.88 428.3z" fill="#d3b714"></path><path d="M362.09 99.25L382.94 99.25L382.94 120.1L362.09 120.1z" fill="rgba(66, 68, 90, 1)"></path><path d="M618.58 283.91L664.47 283.91L664.47 298.73L618.58 298.73z" fill="#037b0b"></path><path d="M967.64 443.24L972.76 443.24L972.76 448.36L967.64 448.36z" fill="rgba(66, 68, 90, 1)"></path><path d="M311.58 189.45L332.47 189.45L332.47 233.59L311.58 233.59z" fill="#037b0b"></path></g><defs><mask id="SvgjsMask1006"><rect width="1440" height="560" fill="#ffffff"></rect></mask></defs></svg>