<svg xmlns="http://www.w3.org/2000/svg" version="1.1" xmlns:xlink="http://www.w3.org/1999/xlink" xmlns:svgjs="http://svgjs.dev/svgjs" width="1440" height="560" preserveAspectRatio="none" viewBox="0 0 1440 560"><g mask="url(&quot;#SvgjsMask1135&quot;)" fill="none"><rect width="79.6" height="79.6" clip-path="url(&quot;#SvgjsClipPath1136&quot;)" x="1004.39" y="494.07" fill="url(&quot;#SvgjsPattern1137&quot;)" transform="rotate(22.29, 1044.19, 533.87)"></rect><path d="M545.72 496.15a5.6 5.6 0 1 0 3.55 10.62 5.6 5.6 0 1 0-3.55-10.62zM550.79 511.32a5.6 5.6 0 1 0 3.55 10.62 5.6 5.6 0 1 0-3.55-10.62zM555.86 526.5a5.6 5.6 0 1 0 3.55 10.62 5.6 5.6 0 1 0-3.55-10.62zM560.93 541.67a5.6 5.6 0 1 0 3.55 10.62 5.6 5.6 0 1 0-3.55-10.62zM520.4 470.87a5.6 5.6 0 1 0 3.55 10.62 5.6 5.6 0 1 0-3.55-10.62zM525.47 486.04a5.6 5.6 0 1 0 3.55 10.63 5.6 5.6 0 1 0-3.55-10.63zM530.54 501.22a5.6 5.6 0 1 0 3.55 10.62 5.6 5.6 0 1 0-3.55-10.62zM535.61 516.39a5.6 5.6 0 1 0 3.55 10.63 5.6 5.6 0 1 0-3.55-10.63zM495.08 445.59a5.6 5.6 0 1 0 3.55 10.62 5.6 5.6 0 1 0-3.55-10.62zM500.15 460.77a5.6 5.6 0 1 0 3.55 10.62 5.6 5.6 0 1 0-3.55-10.62zM505.22 475.94a5.6 5.6 0 1 0 3.55 10.62 5.6 5.6 0 1 0-3.55-10.62zM510.3 491.12a5.6 5.6 0 1 0 3.55 10.62 5.6 5.6 0 1 0-3.55-10.62z" fill="#e73635"></path><rect width="167.04" height="167.04" clip-path="url(&quot;#SvgjsClipPath1138&quot;)" x="1301.6" y="428.21" fill="url(&quot;#SvgjsPattern1139&quot;)" transform="rotate(334.24, 1385.12, 511.73)"></rect><path d="M1110.18 202.78a5.6 5.6 0 1 0 10.95 2.35 5.6 5.6 0 1 0-10.95-2.35zM1125.82 206.14a5.6 5.6 0 1 0 10.95 2.36 5.6 5.6 0 1 0-10.95-2.36zM1141.46 209.51a5.6 5.6 0 1 0 10.95 2.36 5.6 5.6 0 1 0-10.95-2.36zM1157.1 212.88a5.6 5.6 0 1 0 10.95 2.36 5.6 5.6 0 1 0-10.95-2.36zM1075.53 211.68a5.6 5.6 0 1 0 10.95 2.36 5.6 5.6 0 1 0-10.95-2.36zM1091.17 215.05a5.6 5.6 0 1 0 10.95 2.36 5.6 5.6 0 1 0-10.95-2.36zM1106.81 218.42a5.6 5.6 0 1 0 10.95 2.36 5.6 5.6 0 1 0-10.95-2.36zM1122.45 221.79a5.6 5.6 0 1 0 10.95 2.35 5.6 5.6 0 1 0-10.95-2.35zM1040.88 220.59a5.6 5.6 0 1 0 10.95 2.36 5.6 5.6 0 1 0-10.95-2.36zM1056.52 223.96a5.6 5.6 0 1 0 10.95 2.36 5.6 5.6 0 1 0-10.95-2.36zM1072.16 227.33a5.6 5.6 0 1 0 10.95 2.35 5.6 5.6 0 1 0-10.95-2.35zM1087.8 230.69a5.6 5.6 0 1 0 10.95 2.36 5.6 5.6 0 1 0-10.95-2.36z" stroke="#e73635" stroke-width="2.86" stroke-dasharray="3, 3"></path><path d="M2.28 520.65L15.09 520.88 17.67 533.42 30.48 533.65 33.06 546.2 45.87 546.43 48.45 558.97M-2.83 526.81L9.98 527.04 12.56 539.58 25.37 539.81 27.95 552.35 40.76 552.58 43.34 565.13M-7.94 532.96L4.87 533.19 7.45 545.74 20.26 545.97 22.84 558.51 35.65 558.74 38.23 571.28" stroke="#e73635" stroke-width="1.16" stroke-dasharray="3, 3"></path><circle r="46.666666666666664" cx="1391.48" cy="47.18" fill="#d3b714"></circle><path d="M917.43 81.28a5.6 5.6 0 1 0-9.37-6.13 5.6 5.6 0 1 0 9.37 6.13zM904.04 72.52a5.6 5.6 0 1 0-9.37-6.13 5.6 5.6 0 1 0 9.37 6.13zM890.65 63.76a5.6 5.6 0 1 0-9.37-6.13 5.6 5.6 0 1 0 9.37 6.13zM877.26 55a5.6 5.6 0 1 0-9.37-6.13 5.6 5.6 0 1 0 9.37 6.13z" fill="#e73635"></path><rect width="96" height="96" clip-path="url(&quot;#SvgjsClipPath1140&quot;)" x="782.82" y="248.4" fill="url(&quot;#SvgjsPattern1141&quot;)" transform="rotate(111.45, 830.82, 296.4)"></rect><path d="M1400.85 82.46L1388.26 84.81 1383.21 73.04 1370.62 75.39 1365.56 63.62 1352.97 65.97 1347.92 54.21M1404.62 75.4L1392.03 77.75 1386.97 65.98 1374.39 68.33 1369.33 56.57 1356.74 58.91 1351.69 47.15M1408.39 68.34L1395.8 70.69 1390.74 58.92 1378.15 61.27 1373.1 49.51 1360.51 51.86 1355.45 40.09" stroke="#d3b714" stroke-width="2.56" stroke-dasharray="2, 2"></path><path d="M1455.23 60.980000000000004 L1431.06 178.02L1505.0445039401325 181.3995039401324z" stroke="#e73635" stroke-width="2.29" stroke-dasharray="3, 3"></path><path d="M879.6 536.94a5.6 5.6 0 1 0-11.1-1.55 5.6 5.6 0 1 0 11.1 1.55zM863.75 534.73a5.6 5.6 0 1 0-11.09-1.56 5.6 5.6 0 1 0 11.09 1.56zM847.9 532.51a5.6 5.6 0 1 0-11.09-1.55 5.6 5.6 0 1 0 11.09 1.55zM832.06 530.29a5.6 5.6 0 1 0-11.09-1.55 5.6 5.6 0 1 0 11.09 1.55z" fill="#d3b714"></path><rect width="296.40000000000003" height="296.40000000000003" clip-path="url(&quot;#SvgjsClipPath1142&quot;)" x="698.68" y="321.26" fill="url(&quot;#SvgjsPattern1143&quot;)" transform="rotate(172.77, 846.88, 469.46)"></rect></g><defs><mask id="SvgjsMask1135"><rect width="1440" height="560" fill="#ffffff"></rect></mask><pattern x="0" y="0" width="79.6" height="7.96" patternUnits="userSpaceOnUse" id="SvgjsPattern1137"><rect width="79.6" height="3.98" x="0" y="0" fill="#037b0b"></rect><rect width="79.6" height="3.98" x="0" y="3.98" fill="rgba(0, 0, 0, 0)"></rect></pattern><clipPath id="SvgjsClipPath1136"><circle r="19.9" cx="1044.19" cy="533.87"></circle></clipPath><pattern x="0" y="0" width="6.96" height="6.96" patternUnits="userSpaceOnUse" id="SvgjsPattern1139"><path d="M0 6.96L3.48 0L6.96 6.96" stroke="#e73635" fill="none"></path></pattern><clipPath id="SvgjsClipPath1138"><circle r="41.76" cx="1385.12" cy="511.73"></circle></clipPath><pattern x="0" y="0" width="96" height="6" patternUnits="userSpaceOnUse" id="SvgjsPattern1141"><rect width="96" height="3" x="0" y="0" fill="#d3b714"></rect><rect width="96" height="3" x="0" y="3" fill="rgba(0, 0, 0, 0)"></rect></pattern><clipPath id="SvgjsClipPath1140"><circle r="24" cx="830.82" cy="296.4"></circle></clipPath><pattern x="0" y="0" width="9.88" height="9.88" patternUnits="userSpaceOnUse" id="SvgjsPattern1143"><path d="M0 9.88L4.94 0L9.88 9.88" stroke="#d3b714" fill="none"></path></pattern><clipPath id="SvgjsClipPath1142"><circle r="74.10000000000001" cx="846.88" cy="469.46"></circle></clipPath></defs></svg>