<svg xmlns="http://www.w3.org/2000/svg" version="1.1" xmlns:xlink="http://www.w3.org/1999/xlink" xmlns:svgjs="http://svgjs.dev/svgjs" width="1440" height="560" preserveAspectRatio="none" viewBox="0 0 1440 560"><g mask="url(&quot;#SvgjsMask1005&quot;)" fill="none"><path d="M1199.8 406.16L1223.82 406.16L1223.82 430.18L1199.8 430.18z" fill="#e73635"></path><path d="M996.24 480.88L1035.22 480.88L1035.22 519.86L996.24 519.86z" stroke="rgba(66, 68, 90, 1)"></path><path d="M-27.8 62.03 a50.61 50.61 0 1 0 101.22 0 a50.61 50.61 0 1 0 -101.22 0z" fill="#e73635"></path><path d="M1417.43 493.33a36.1 36.1 0 1 0-28.4-66.38z" fill="#d3b714"></path><path d="M1042.56 316.74L1070.49 316.74L1070.49 341.73L1042.56 341.73z" fill="#037b0b"></path><path d="M1156.46 445.6a49.37 49.37 0 1 0-58.6-79.47z" fill="rgba(66, 68, 90, 1)"></path><path d="M971.6 326.03a19.26 19.26 0 1 0-38.52-0.12z" fill="rgba(66, 68, 90, 1)"></path><path d="M696.24 83.21L730.31 83.21L730.31 128.12L696.24 128.12z" stroke="#d3b714"></path><path d="M332.28 409.27 a41.87 41.87 0 1 0 83.74 0 a41.87 41.87 0 1 0 -83.74 0z" fill="#037b0b"></path><path d="M952.01 40.44a5.29 5.29 0 1 0-2.34 10.32z" stroke="#d3b714"></path><path d="M859.85 290.68a29.08 29.08 0 1 0 57.24-10.28z" fill="#037b0b"></path><path d="M1359.75 365.57 a40.48 40.48 0 1 0 80.96 0 a40.48 40.48 0 1 0 -80.96 0z" stroke="#d3b714"></path><path d="M1346.23 340.02 a40.04 40.04 0 1 0 80.08 0 a40.04 40.04 0 1 0 -80.08 0z" stroke="rgba(66, 68, 90, 1)"></path><path d="M1432.77 262.18L1479.05 262.18L1479.05 308.46L1432.77 308.46z" fill="#037b0b"></path><path d="M564.32 76.01a7.04 7.04 0 1 0-4.48-13.34z" fill="#037b0b"></path><path d="M647.97 298.15L701.2 298.15L701.2 351.38L647.97 351.38z" stroke="#d3b714"></path><path d="M641.05 34.4a8.3 8.3 0 1 0 15.34 6.34z" stroke="#037b0b"></path><path d="M787.7 410.74L800.27 410.74L800.27 423.31L787.7 423.31z" stroke="rgba(66, 68, 90, 1)"></path><path d="M644.53 214.47 a27.32 27.32 0 1 0 54.64 0 a27.32 27.32 0 1 0 -54.64 0z" stroke="#d3b714"></path><path d="M1166.22 556.35 a12.18 12.18 0 1 0 24.36 0 a12.18 12.18 0 1 0 -24.36 0z" fill="#e73635"></path><path d="M245.3 140.67L266.37 140.67L266.37 146.09L245.3 146.09z" fill="#e73635"></path><path d="M613.78 130.61 a26.97 26.97 0 1 0 53.94 0 a26.97 26.97 0 1 0 -53.94 0z" fill="rgba(66, 68, 90, 1)"></path><path d="M832.69 533.52L853.05 533.52L853.05 553.88L832.69 553.88z" stroke="#e73635"></path><path d="M744.99 130.7L784.88 130.7L784.88 166.7L744.99 166.7z" stroke="#d3b714"></path><path d="M1410.12 295.87a23.21 23.21 0 1 0 20.39 41.7z" stroke="rgba(66, 68, 90, 1)"></path><path d="M359.41 118.66 a41.74 41.74 0 1 0 83.48 0 a41.74 41.74 0 1 0 -83.48 0z" stroke="#d3b714"></path><path d="M491.87 472.48 a15.06 15.06 0 1 0 30.12 0 a15.06 15.06 0 1 0 -30.12 0z" stroke="#037b0b"></path><path d="M209.51 424.57L229.21 424.57L229.21 479.45L209.51 479.45z" fill="#d3b714"></path><path d="M189.86 95.12L238.94 95.12L238.94 144.2L189.86 144.2z" fill="rgba(66, 68, 90, 1)"></path><path d="M221.96 201.13 a16.83 16.83 0 1 0 33.66 0 a16.83 16.83 0 1 0 -33.66 0z" stroke="#e73635"></path><path d="M866.78 401.99L900.39 401.99L900.39 435.6L866.78 435.6z" fill="rgba(66, 68, 90, 1)"></path><path d="M1053.32 56.01a17.91 17.91 0 1 0 17.05 31.5z" fill="#d3b714"></path><path d="M460.16 537.84L515.06 537.84L515.06 554.84L460.16 554.84z" stroke="#d3b714"></path></g><defs><mask id="SvgjsMask1005"><rect width="1440" height="560" fill="#ffffff"></rect></mask></defs></svg>