<svg xmlns="http://www.w3.org/2000/svg" version="1.1" xmlns:xlink="http://www.w3.org/1999/xlink" xmlns:svgjs="http://svgjs.dev/svgjs" width="1440" height="560" preserveAspectRatio="none" viewBox="0 0 1440 560"><g mask="url(&quot;#SvgjsMask1017&quot;)" fill="none"><path d="M1325 423L944 42" stroke-width="6" stroke="url(&quot;#SvgjsLinearGradient1018&quot;)" stroke-linecap="round" class="BottomRight"></path><path d="M693 255L849 411" stroke-width="8" stroke="url(&quot;#SvgjsLinearGradient1018&quot;)" stroke-linecap="round" class="BottomRight"></path><path d="M1168 21L923 -224" stroke-width="8" stroke="url(&quot;#SvgjsLinearGradient1018&quot;)" stroke-linecap="round" class="BottomRight"></path><path d="M45 344L-137 162" stroke-width="6" stroke="url(&quot;#SvgjsLinearGradient1019&quot;)" stroke-linecap="round" class="TopLeft"></path><path d="M161 357L459 655" stroke-width="8" stroke="url(&quot;#SvgjsLinearGradient1019&quot;)" stroke-linecap="round" class="TopLeft"></path><path d="M873 516L693 336" stroke-width="8" stroke="url(&quot;#SvgjsLinearGradient1018&quot;)" stroke-linecap="round" class="BottomRight"></path><path d="M107 229L339 461" stroke-width="6" stroke="url(&quot;#SvgjsLinearGradient1018&quot;)" stroke-linecap="round" class="BottomRight"></path><path d="M1048 543L1366 861" stroke-width="10" stroke="url(&quot;#SvgjsLinearGradient1018&quot;)" stroke-linecap="round" class="BottomRight"></path><path d="M1055 236L755 -64" stroke-width="6" stroke="url(&quot;#SvgjsLinearGradient1018&quot;)" stroke-linecap="round" class="BottomRight"></path><path d="M464 56L81 -327" stroke-width="10" stroke="url(&quot;#SvgjsLinearGradient1019&quot;)" stroke-linecap="round" class="TopLeft"></path><path d="M1169 105L895 -169" stroke-width="10" stroke="url(&quot;#SvgjsLinearGradient1019&quot;)" stroke-linecap="round" class="TopLeft"></path><path d="M69 111L-94 -52" stroke-width="8" stroke="url(&quot;#SvgjsLinearGradient1019&quot;)" stroke-linecap="round" class="TopLeft"></path><path d="M1361 222L1766 627" stroke-width="6" stroke="url(&quot;#SvgjsLinearGradient1018&quot;)" stroke-linecap="round" class="BottomRight"></path><path d="M227 217L624 614" stroke-width="8" stroke="url(&quot;#SvgjsLinearGradient1019&quot;)" stroke-linecap="round" class="TopLeft"></path><path d="M132 40L-247 -339" stroke-width="10" stroke="url(&quot;#SvgjsLinearGradient1018&quot;)" stroke-linecap="round" class="BottomRight"></path><path d="M427 297L190 60" stroke-width="6" stroke="url(&quot;#SvgjsLinearGradient1018&quot;)" stroke-linecap="round" class="BottomRight"></path><path d="M105 279L-205 -31" stroke-width="8" stroke="url(&quot;#SvgjsLinearGradient1019&quot;)" stroke-linecap="round" class="TopLeft"></path><path d="M1434 318L1796 680" stroke-width="8" stroke="url(&quot;#SvgjsLinearGradient1018&quot;)" stroke-linecap="round" class="BottomRight"></path><path d="M617 357L469 209" stroke-width="10" stroke="url(&quot;#SvgjsLinearGradient1019&quot;)" stroke-linecap="round" class="TopLeft"></path><path d="M884 253L1241 610" stroke-width="6" stroke="url(&quot;#SvgjsLinearGradient1019&quot;)" stroke-linecap="round" class="TopLeft"></path><path d="M488 315L877 704" stroke-width="6" stroke="url(&quot;#SvgjsLinearGradient1019&quot;)" stroke-linecap="round" class="TopLeft"></path><path d="M1309 316L1098 105" stroke-width="10" stroke="url(&quot;#SvgjsLinearGradient1018&quot;)" stroke-linecap="round" class="BottomRight"></path><path d="M1283 95L972 -216" stroke-width="10" stroke="url(&quot;#SvgjsLinearGradient1018&quot;)" stroke-linecap="round" class="BottomRight"></path><path d="M1161 489L885 213" stroke-width="10" stroke="url(&quot;#SvgjsLinearGradient1018&quot;)" stroke-linecap="round" class="BottomRight"></path><path d="M1175 143L1547 515" stroke-width="8" stroke="url(&quot;#SvgjsLinearGradient1019&quot;)" stroke-linecap="round" class="TopLeft"></path><path d="M624 167L376 -81" stroke-width="8" stroke="url(&quot;#SvgjsLinearGradient1018&quot;)" stroke-linecap="round" class="BottomRight"></path><path d="M1142 230L1309 397" stroke-width="8" stroke="url(&quot;#SvgjsLinearGradient1018&quot;)" stroke-linecap="round" class="BottomRight"></path><path d="M667 412L305 50" stroke-width="8" stroke="url(&quot;#SvgjsLinearGradient1019&quot;)" stroke-linecap="round" class="TopLeft"></path><path d="M1222 436L916 130" stroke-width="8" stroke="url(&quot;#SvgjsLinearGradient1018&quot;)" stroke-linecap="round" class="BottomRight"></path><path d="M586 71L792 277" stroke-width="6" stroke="url(&quot;#SvgjsLinearGradient1019&quot;)" stroke-linecap="round" class="TopLeft"></path><path d="M165 83L-130 -212" stroke-width="10" stroke="url(&quot;#SvgjsLinearGradient1018&quot;)" stroke-linecap="round" class="BottomRight"></path><path d="M1089 294L739 -56" stroke-width="10" stroke="url(&quot;#SvgjsLinearGradient1019&quot;)" stroke-linecap="round" class="TopLeft"></path><path d="M1131 299L756 -76" stroke-width="6" stroke="url(&quot;#SvgjsLinearGradient1019&quot;)" stroke-linecap="round" class="TopLeft"></path><path d="M254 247L481 474" stroke-width="8" stroke="url(&quot;#SvgjsLinearGradient1018&quot;)" stroke-linecap="round" class="BottomRight"></path><path d="M513 86L186 -241" stroke-width="8" stroke="url(&quot;#SvgjsLinearGradient1018&quot;)" stroke-linecap="round" class="BottomRight"></path><path d="M643 156L790 303" stroke-width="6" stroke="url(&quot;#SvgjsLinearGradient1018&quot;)" stroke-linecap="round" class="BottomRight"></path><path d="M556 146L412 2" stroke-width="10" stroke="url(&quot;#SvgjsLinearGradient1019&quot;)" stroke-linecap="round" class="TopLeft"></path><path d="M535 115L869 449" stroke-width="10" stroke="url(&quot;#SvgjsLinearGradient1018&quot;)" stroke-linecap="round" class="BottomRight"></path><path d="M1418 508L1251 341" stroke-width="6" stroke="url(&quot;#SvgjsLinearGradient1019&quot;)" stroke-linecap="round" class="TopLeft"></path></g><defs><mask id="SvgjsMask1017"><rect width="1440" height="560" fill="#ffffff"></rect></mask><linearGradient x1="0%" y1="0%" x2="100%" y2="100%" id="SvgjsLinearGradient1018"><stop stop-color="rgba(28, 83, 142, 0)" offset="0"></stop><stop stop-color="#1c538e" offset="1"></stop></linearGradient><linearGradient x1="100%" y1="100%" x2="0%" y2="0%" id="SvgjsLinearGradient1019"><stop stop-color="rgba(28, 83, 142, 0)" offset="0"></stop><stop stop-color="#1c538e" offset="1"></stop></linearGradient></defs></svg>