<svg xmlns="http://www.w3.org/2000/svg" version="1.1" xmlns:xlink="http://www.w3.org/1999/xlink" xmlns:svgjs="http://svgjs.dev/svgjs" width="1440" height="560" preserveAspectRatio="none" viewBox="0 0 1440 560"><g mask="url(&quot;#SvgjsMask1011&quot;)" fill="none"><path d="M818 30L1199 411" stroke-width="10" stroke="url(&quot;#SvgjsLinearGradient1012&quot;)" stroke-linecap="round" class="TopLeft"></path><path d="M1300 19L1646 365" stroke-width="10" stroke="url(&quot;#SvgjsLinearGradient1013&quot;)" stroke-linecap="round" class="BottomRight"></path><path d="M870 83L458 -329" stroke-width="10" stroke="url(&quot;#SvgjsLinearGradient1013&quot;)" stroke-linecap="round" class="BottomRight"></path><path d="M199 333L56 190" stroke-width="6" stroke="url(&quot;#SvgjsLinearGradient1012&quot;)" stroke-linecap="round" class="TopLeft"></path><path d="M675 117L883 325" stroke-width="6" stroke="url(&quot;#SvgjsLinearGradient1012&quot;)" stroke-linecap="round" class="TopLeft"></path><path d="M515 110L828 423" stroke-width="10" stroke="url(&quot;#SvgjsLinearGradient1013&quot;)" stroke-linecap="round" class="BottomRight"></path><path d="M786 498L1013 725" stroke-width="8" stroke="url(&quot;#SvgjsLinearGradient1012&quot;)" stroke-linecap="round" class="TopLeft"></path><path d="M436 54L606 224" stroke-width="8" stroke="url(&quot;#SvgjsLinearGradient1013&quot;)" stroke-linecap="round" class="BottomRight"></path><path d="M1304 215L996 -93" stroke-width="10" stroke="url(&quot;#SvgjsLinearGradient1012&quot;)" stroke-linecap="round" class="TopLeft"></path><path d="M358 57L539 238" stroke-width="10" stroke="url(&quot;#SvgjsLinearGradient1013&quot;)" stroke-linecap="round" class="BottomRight"></path><path d="M673 161L255 -257" stroke-width="10" stroke="url(&quot;#SvgjsLinearGradient1013&quot;)" stroke-linecap="round" class="BottomRight"></path><path d="M47 266L-207 12" stroke-width="10" stroke="url(&quot;#SvgjsLinearGradient1013&quot;)" stroke-linecap="round" class="BottomRight"></path><path d="M740 424L330 14" stroke-width="6" stroke="url(&quot;#SvgjsLinearGradient1012&quot;)" stroke-linecap="round" class="TopLeft"></path><path d="M1270 217L933 -120" stroke-width="10" stroke="url(&quot;#SvgjsLinearGradient1012&quot;)" stroke-linecap="round" class="TopLeft"></path><path d="M1328 484L1574 730" stroke-width="6" stroke="url(&quot;#SvgjsLinearGradient1012&quot;)" stroke-linecap="round" class="TopLeft"></path><path d="M1 496L381 876" stroke-width="6" stroke="url(&quot;#SvgjsLinearGradient1012&quot;)" stroke-linecap="round" class="TopLeft"></path><path d="M1098 487L829 218" stroke-width="10" stroke="url(&quot;#SvgjsLinearGradient1013&quot;)" stroke-linecap="round" class="BottomRight"></path><path d="M261 65L459 263" stroke-width="10" stroke="url(&quot;#SvgjsLinearGradient1013&quot;)" stroke-linecap="round" class="BottomRight"></path><path d="M1291 67L1630 406" stroke-width="8" stroke="url(&quot;#SvgjsLinearGradient1012&quot;)" stroke-linecap="round" class="TopLeft"></path><path d="M895 387L718 210" stroke-width="10" stroke="url(&quot;#SvgjsLinearGradient1013&quot;)" stroke-linecap="round" class="BottomRight"></path><path d="M894 130L1089 325" stroke-width="8" stroke="url(&quot;#SvgjsLinearGradient1012&quot;)" stroke-linecap="round" class="TopLeft"></path><path d="M453 230L223 0" stroke-width="8" stroke="url(&quot;#SvgjsLinearGradient1012&quot;)" stroke-linecap="round" class="TopLeft"></path><path d="M308 501L498 691" stroke-width="8" stroke="url(&quot;#SvgjsLinearGradient1012&quot;)" stroke-linecap="round" class="TopLeft"></path><path d="M1373 285L1131 43" stroke-width="8" stroke="url(&quot;#SvgjsLinearGradient1013&quot;)" stroke-linecap="round" class="BottomRight"></path><path d="M719 124L501 -94" stroke-width="8" stroke="url(&quot;#SvgjsLinearGradient1013&quot;)" stroke-linecap="round" class="BottomRight"></path><path d="M120 163L400 443" stroke-width="8" stroke="url(&quot;#SvgjsLinearGradient1013&quot;)" stroke-linecap="round" class="BottomRight"></path><path d="M460 187L45 -228" stroke-width="6" stroke="url(&quot;#SvgjsLinearGradient1013&quot;)" stroke-linecap="round" class="BottomRight"></path><path d="M1091 61L918 -112" stroke-width="10" stroke="url(&quot;#SvgjsLinearGradient1013&quot;)" stroke-linecap="round" class="BottomRight"></path><path d="M229 166L641 578" stroke-width="10" stroke="url(&quot;#SvgjsLinearGradient1012&quot;)" stroke-linecap="round" class="TopLeft"></path><path d="M374 497L666 789" stroke-width="8" stroke="url(&quot;#SvgjsLinearGradient1012&quot;)" stroke-linecap="round" class="TopLeft"></path><path d="M1077 269L873 65" stroke-width="10" stroke="url(&quot;#SvgjsLinearGradient1013&quot;)" stroke-linecap="round" class="BottomRight"></path><path d="M490 428L217 155" stroke-width="10" stroke="url(&quot;#SvgjsLinearGradient1012&quot;)" stroke-linecap="round" class="TopLeft"></path><path d="M6 116L243 353" stroke-width="10" stroke="url(&quot;#SvgjsLinearGradient1012&quot;)" stroke-linecap="round" class="TopLeft"></path><path d="M570 91L912 433" stroke-width="8" stroke="url(&quot;#SvgjsLinearGradient1012&quot;)" stroke-linecap="round" class="TopLeft"></path><path d="M19 3L-296 -312" stroke-width="10" stroke="url(&quot;#SvgjsLinearGradient1013&quot;)" stroke-linecap="round" class="BottomRight"></path><path d="M728 261L483 16" stroke-width="10" stroke="url(&quot;#SvgjsLinearGradient1013&quot;)" stroke-linecap="round" class="BottomRight"></path><path d="M476 340L716 580" stroke-width="6" stroke="url(&quot;#SvgjsLinearGradient1012&quot;)" stroke-linecap="round" class="TopLeft"></path><path d="M999 112L703 -184" stroke-width="10" stroke="url(&quot;#SvgjsLinearGradient1013&quot;)" stroke-linecap="round" class="BottomRight"></path><path d="M1159 9L1491 341" stroke-width="10" stroke="url(&quot;#SvgjsLinearGradient1013&quot;)" stroke-linecap="round" class="BottomRight"></path></g><defs><mask id="SvgjsMask1011"><rect width="1440" height="560" fill="#ffffff"></rect></mask><linearGradient x1="100%" y1="100%" x2="0%" y2="0%" id="SvgjsLinearGradient1012"><stop stop-color="rgba(28, 83, 142, 0)" offset="0"></stop><stop stop-color="#1c538e" offset="1"></stop></linearGradient><linearGradient x1="0%" y1="0%" x2="100%" y2="100%" id="SvgjsLinearGradient1013"><stop stop-color="rgba(28, 83, 142, 0)" offset="0"></stop><stop stop-color="#1c538e" offset="1"></stop></linearGradient></defs></svg>