<svg xmlns="http://www.w3.org/2000/svg" version="1.1" xmlns:xlink="http://www.w3.org/1999/xlink" xmlns:svgjs="http://svgjs.dev/svgjs" width="1440" height="560" preserveAspectRatio="none" viewBox="0 0 1440 560"><g mask="url(&quot;#SvgjsMask1023&quot;)" fill="none"><path d="M211 306L-93 2" stroke-width="6" stroke="url(&quot;#SvgjsLinearGradient1024&quot;)" stroke-linecap="round" class="BottomRight"></path><path d="M232 515L650 933" stroke-width="8" stroke="url(&quot;#SvgjsLinearGradient1025&quot;)" stroke-linecap="round" class="TopLeft"></path><path d="M540 20L821 301" stroke-width="6" stroke="url(&quot;#SvgjsLinearGradient1025&quot;)" stroke-linecap="round" class="TopLeft"></path><path d="M1043 557L745 259" stroke-width="8" stroke="url(&quot;#SvgjsLinearGradient1024&quot;)" stroke-linecap="round" class="BottomRight"></path><path d="M713 68L411 -234" stroke-width="10" stroke="url(&quot;#SvgjsLinearGradient1024&quot;)" stroke-linecap="round" class="BottomRight"></path><path d="M300 231L449 380" stroke-width="8" stroke="url(&quot;#SvgjsLinearGradient1025&quot;)" stroke-linecap="round" class="TopLeft"></path><path d="M55 265L432 642" stroke-width="10" stroke="url(&quot;#SvgjsLinearGradient1024&quot;)" stroke-linecap="round" class="BottomRight"></path><path d="M859 99L441 -319" stroke-width="10" stroke="url(&quot;#SvgjsLinearGradient1025&quot;)" stroke-linecap="round" class="TopLeft"></path><path d="M38 538L444 944" stroke-width="10" stroke="url(&quot;#SvgjsLinearGradient1024&quot;)" stroke-linecap="round" class="BottomRight"></path><path d="M424 181L228 -15" stroke-width="8" stroke="url(&quot;#SvgjsLinearGradient1025&quot;)" stroke-linecap="round" class="TopLeft"></path><path d="M1079 37L913 -129" stroke-width="6" stroke="url(&quot;#SvgjsLinearGradient1024&quot;)" stroke-linecap="round" class="BottomRight"></path><path d="M1209 254L946 -9" stroke-width="8" stroke="url(&quot;#SvgjsLinearGradient1025&quot;)" stroke-linecap="round" class="TopLeft"></path><path d="M1291 472L1124 305" stroke-width="10" stroke="url(&quot;#SvgjsLinearGradient1025&quot;)" stroke-linecap="round" class="TopLeft"></path><path d="M987 450L799 262" stroke-width="8" stroke="url(&quot;#SvgjsLinearGradient1024&quot;)" stroke-linecap="round" class="BottomRight"></path><path d="M198 145L-207 -260" stroke-width="6" stroke="url(&quot;#SvgjsLinearGradient1024&quot;)" stroke-linecap="round" class="BottomRight"></path><path d="M313 447L-74 60" stroke-width="6" stroke="url(&quot;#SvgjsLinearGradient1025&quot;)" stroke-linecap="round" class="TopLeft"></path><path d="M1045 353L851 159" stroke-width="10" stroke="url(&quot;#SvgjsLinearGradient1024&quot;)" stroke-linecap="round" class="BottomRight"></path><path d="M1287 504L1075 292" stroke-width="8" stroke="url(&quot;#SvgjsLinearGradient1025&quot;)" stroke-linecap="round" class="TopLeft"></path><path d="M574 205L331 -38" stroke-width="8" stroke="url(&quot;#SvgjsLinearGradient1025&quot;)" stroke-linecap="round" class="TopLeft"></path><path d="M925 47L1152 274" stroke-width="8" stroke="url(&quot;#SvgjsLinearGradient1024&quot;)" stroke-linecap="round" class="BottomRight"></path><path d="M79 425L330 676" stroke-width="10" stroke="url(&quot;#SvgjsLinearGradient1025&quot;)" stroke-linecap="round" class="TopLeft"></path><path d="M106 472L-309 57" stroke-width="10" stroke="url(&quot;#SvgjsLinearGradient1025&quot;)" stroke-linecap="round" class="TopLeft"></path><path d="M61 261L476 676" stroke-width="8" stroke="url(&quot;#SvgjsLinearGradient1025&quot;)" stroke-linecap="round" class="TopLeft"></path><path d="M1405 452L1108 155" stroke-width="10" stroke="url(&quot;#SvgjsLinearGradient1025&quot;)" stroke-linecap="round" class="TopLeft"></path><path d="M777 340L628 191" stroke-width="10" stroke="url(&quot;#SvgjsLinearGradient1024&quot;)" stroke-linecap="round" class="BottomRight"></path><path d="M1286 437L1491 642" stroke-width="10" stroke="url(&quot;#SvgjsLinearGradient1025&quot;)" stroke-linecap="round" class="TopLeft"></path><path d="M822 335L1138 651" stroke-width="6" stroke="url(&quot;#SvgjsLinearGradient1024&quot;)" stroke-linecap="round" class="BottomRight"></path><path d="M458 254L116 -88" stroke-width="10" stroke="url(&quot;#SvgjsLinearGradient1025&quot;)" stroke-linecap="round" class="TopLeft"></path><path d="M388 192L-5 -201" stroke-width="6" stroke="url(&quot;#SvgjsLinearGradient1025&quot;)" stroke-linecap="round" class="TopLeft"></path><path d="M382 373L224 215" stroke-width="6" stroke="url(&quot;#SvgjsLinearGradient1025&quot;)" stroke-linecap="round" class="TopLeft"></path><path d="M926 287L1267 628" stroke-width="6" stroke="url(&quot;#SvgjsLinearGradient1024&quot;)" stroke-linecap="round" class="BottomRight"></path><path d="M857 45L1007 195" stroke-width="8" stroke="url(&quot;#SvgjsLinearGradient1025&quot;)" stroke-linecap="round" class="TopLeft"></path><path d="M316 426L479 589" stroke-width="6" stroke="url(&quot;#SvgjsLinearGradient1025&quot;)" stroke-linecap="round" class="TopLeft"></path><path d="M1119 501L1477 859" stroke-width="6" stroke="url(&quot;#SvgjsLinearGradient1025&quot;)" stroke-linecap="round" class="TopLeft"></path><path d="M625 123L463 -39" stroke-width="10" stroke="url(&quot;#SvgjsLinearGradient1025&quot;)" stroke-linecap="round" class="TopLeft"></path><path d="M1105 554L1470 919" stroke-width="10" stroke="url(&quot;#SvgjsLinearGradient1024&quot;)" stroke-linecap="round" class="BottomRight"></path><path d="M1056 543L903 390" stroke-width="6" stroke="url(&quot;#SvgjsLinearGradient1025&quot;)" stroke-linecap="round" class="TopLeft"></path><path d="M665 79L1035 449" stroke-width="10" stroke="url(&quot;#SvgjsLinearGradient1025&quot;)" stroke-linecap="round" class="TopLeft"></path><path d="M422 10L79 -333" stroke-width="6" stroke="url(&quot;#SvgjsLinearGradient1024&quot;)" stroke-linecap="round" class="BottomRight"></path></g><defs><mask id="SvgjsMask1023"><rect width="1440" height="560" fill="#ffffff"></rect></mask><linearGradient x1="0%" y1="0%" x2="100%" y2="100%" id="SvgjsLinearGradient1024"><stop stop-color="rgba(28, 83, 142, 0)" offset="0"></stop><stop stop-color="#1c538e" offset="1"></stop></linearGradient><linearGradient x1="100%" y1="100%" x2="0%" y2="0%" id="SvgjsLinearGradient1025"><stop stop-color="rgba(28, 83, 142, 0)" offset="0"></stop><stop stop-color="#1c538e" offset="1"></stop></linearGradient></defs></svg>