<svg xmlns="http://www.w3.org/2000/svg" version="1.1" xmlns:xlink="http://www.w3.org/1999/xlink" xmlns:svgjs="http://svgjs.dev/svgjs" width="1440" height="560" preserveAspectRatio="none" viewBox="0 0 1440 560"><g mask="url(&quot;#SvgjsMask1014&quot;)" fill="none"><path d="M389 107L238 -44" stroke-width="10" stroke="url(&quot;#SvgjsLinearGradient1015&quot;)" stroke-linecap="round" class="TopLeft"></path><path d="M1331 90L1655 414" stroke-width="6" stroke="url(&quot;#SvgjsLinearGradient1016&quot;)" stroke-linecap="round" class="BottomRight"></path><path d="M1397 84L1704 391" stroke-width="10" stroke="url(&quot;#SvgjsLinearGradient1015&quot;)" stroke-linecap="round" class="TopLeft"></path><path d="M1185 513L1465 793" stroke-width="10" stroke="url(&quot;#SvgjsLinearGradient1015&quot;)" stroke-linecap="round" class="TopLeft"></path><path d="M1317 358L1517 558" stroke-width="6" stroke="url(&quot;#SvgjsLinearGradient1015&quot;)" stroke-linecap="round" class="TopLeft"></path><path d="M960 26L746 -188" stroke-width="6" stroke="url(&quot;#SvgjsLinearGradient1016&quot;)" stroke-linecap="round" class="BottomRight"></path><path d="M1123 502L1437 816" stroke-width="6" stroke="url(&quot;#SvgjsLinearGradient1016&quot;)" stroke-linecap="round" class="BottomRight"></path><path d="M687 424L1027 764" stroke-width="8" stroke="url(&quot;#SvgjsLinearGradient1016&quot;)" stroke-linecap="round" class="BottomRight"></path><path d="M109 550L437 878" stroke-width="8" stroke="url(&quot;#SvgjsLinearGradient1015&quot;)" stroke-linecap="round" class="TopLeft"></path><path d="M22 463L323 764" stroke-width="10" stroke="url(&quot;#SvgjsLinearGradient1016&quot;)" stroke-linecap="round" class="BottomRight"></path><path d="M817 534L441 158" stroke-width="10" stroke="url(&quot;#SvgjsLinearGradient1015&quot;)" stroke-linecap="round" class="TopLeft"></path><path d="M1080 329L1359 608" stroke-width="6" stroke="url(&quot;#SvgjsLinearGradient1015&quot;)" stroke-linecap="round" class="TopLeft"></path><path d="M644 423L836 615" stroke-width="8" stroke="url(&quot;#SvgjsLinearGradient1015&quot;)" stroke-linecap="round" class="TopLeft"></path><path d="M166 392L21 247" stroke-width="10" stroke="url(&quot;#SvgjsLinearGradient1015&quot;)" stroke-linecap="round" class="TopLeft"></path><path d="M493 341L774 622" stroke-width="8" stroke="url(&quot;#SvgjsLinearGradient1016&quot;)" stroke-linecap="round" class="BottomRight"></path><path d="M445 132L103 -210" stroke-width="6" stroke="url(&quot;#SvgjsLinearGradient1015&quot;)" stroke-linecap="round" class="TopLeft"></path><path d="M485 152L122 -211" stroke-width="10" stroke="url(&quot;#SvgjsLinearGradient1016&quot;)" stroke-linecap="round" class="BottomRight"></path><path d="M521 462L810 751" stroke-width="8" stroke="url(&quot;#SvgjsLinearGradient1015&quot;)" stroke-linecap="round" class="TopLeft"></path><path d="M1288 158L1520 390" stroke-width="10" stroke="url(&quot;#SvgjsLinearGradient1015&quot;)" stroke-linecap="round" class="TopLeft"></path><path d="M8 2L-287 -293" stroke-width="6" stroke="url(&quot;#SvgjsLinearGradient1015&quot;)" stroke-linecap="round" class="TopLeft"></path><path d="M860 541L1016 697" stroke-width="10" stroke="url(&quot;#SvgjsLinearGradient1016&quot;)" stroke-linecap="round" class="BottomRight"></path><path d="M1360 285L1054 -21" stroke-width="10" stroke="url(&quot;#SvgjsLinearGradient1016&quot;)" stroke-linecap="round" class="BottomRight"></path><path d="M402 45L257 -100" stroke-width="8" stroke="url(&quot;#SvgjsLinearGradient1016&quot;)" stroke-linecap="round" class="BottomRight"></path><path d="M999 436L1381 818" stroke-width="6" stroke="url(&quot;#SvgjsLinearGradient1015&quot;)" stroke-linecap="round" class="TopLeft"></path><path d="M1399 442L1673 716" stroke-width="6" stroke="url(&quot;#SvgjsLinearGradient1016&quot;)" stroke-linecap="round" class="BottomRight"></path><path d="M822 502L1182 862" stroke-width="10" stroke="url(&quot;#SvgjsLinearGradient1016&quot;)" stroke-linecap="round" class="BottomRight"></path><path d="M898 72L693 -133" stroke-width="6" stroke="url(&quot;#SvgjsLinearGradient1015&quot;)" stroke-linecap="round" class="TopLeft"></path><path d="M85 138L322 375" stroke-width="10" stroke="url(&quot;#SvgjsLinearGradient1016&quot;)" stroke-linecap="round" class="BottomRight"></path><path d="M656 59L438 -159" stroke-width="6" stroke="url(&quot;#SvgjsLinearGradient1016&quot;)" stroke-linecap="round" class="BottomRight"></path><path d="M942 22L1260 340" stroke-width="10" stroke="url(&quot;#SvgjsLinearGradient1015&quot;)" stroke-linecap="round" class="TopLeft"></path><path d="M841 367L452 -22" stroke-width="10" stroke="url(&quot;#SvgjsLinearGradient1016&quot;)" stroke-linecap="round" class="BottomRight"></path><path d="M321 400L17 96" stroke-width="8" stroke="url(&quot;#SvgjsLinearGradient1016&quot;)" stroke-linecap="round" class="BottomRight"></path><path d="M304 83L536 315" stroke-width="8" stroke="url(&quot;#SvgjsLinearGradient1015&quot;)" stroke-linecap="round" class="TopLeft"></path><path d="M1369 492L1655 778" stroke-width="10" stroke="url(&quot;#SvgjsLinearGradient1016&quot;)" stroke-linecap="round" class="BottomRight"></path><path d="M172 541L517 886" stroke-width="10" stroke="url(&quot;#SvgjsLinearGradient1015&quot;)" stroke-linecap="round" class="TopLeft"></path><path d="M280 55L28 -197" stroke-width="8" stroke="url(&quot;#SvgjsLinearGradient1015&quot;)" stroke-linecap="round" class="TopLeft"></path><path d="M429 121L721 413" stroke-width="10" stroke="url(&quot;#SvgjsLinearGradient1016&quot;)" stroke-linecap="round" class="BottomRight"></path><path d="M721 477L888 644" stroke-width="10" stroke="url(&quot;#SvgjsLinearGradient1016&quot;)" stroke-linecap="round" class="BottomRight"></path><path d="M750 41L1106 397" stroke-width="6" stroke="url(&quot;#SvgjsLinearGradient1016&quot;)" stroke-linecap="round" class="BottomRight"></path></g><defs><mask id="SvgjsMask1014"><rect width="1440" height="560" fill="#ffffff"></rect></mask><linearGradient x1="100%" y1="100%" x2="0%" y2="0%" id="SvgjsLinearGradient1015"><stop stop-color="rgba(28, 83, 142, 0)" offset="0"></stop><stop stop-color="#1c538e" offset="1"></stop></linearGradient><linearGradient x1="0%" y1="0%" x2="100%" y2="100%" id="SvgjsLinearGradient1016"><stop stop-color="rgba(28, 83, 142, 0)" offset="0"></stop><stop stop-color="#1c538e" offset="1"></stop></linearGradient></defs></svg>