<svg xmlns="http://www.w3.org/2000/svg" version="1.1" xmlns:xlink="http://www.w3.org/1999/xlink" xmlns:svgjs="http://svgjs.dev/svgjs" width="1440" height="560" preserveAspectRatio="none" viewBox="0 0 1440 560"><g mask="url(&quot;#SvgjsMask1020&quot;)" fill="none"><path d="M391 70L603 282" stroke-width="6" stroke="url(&quot;#SvgjsLinearGradient1021&quot;)" stroke-linecap="round" class="TopLeft"></path><path d="M973 46L711 -216" stroke-width="8" stroke="url(&quot;#SvgjsLinearGradient1022&quot;)" stroke-linecap="round" class="BottomRight"></path><path d="M647 168L835 356" stroke-width="10" stroke="url(&quot;#SvgjsLinearGradient1021&quot;)" stroke-linecap="round" class="TopLeft"></path><path d="M119 38L-162 -243" stroke-width="8" stroke="url(&quot;#SvgjsLinearGradient1021&quot;)" stroke-linecap="round" class="TopLeft"></path><path d="M280 269L7 -4" stroke-width="8" stroke="url(&quot;#SvgjsLinearGradient1022&quot;)" stroke-linecap="round" class="BottomRight"></path><path d="M1001 532L1329 860" stroke-width="10" stroke="url(&quot;#SvgjsLinearGradient1022&quot;)" stroke-linecap="round" class="BottomRight"></path><path d="M345 252L530 437" stroke-width="10" stroke="url(&quot;#SvgjsLinearGradient1022&quot;)" stroke-linecap="round" class="BottomRight"></path><path d="M1083 477L848 242" stroke-width="10" stroke="url(&quot;#SvgjsLinearGradient1022&quot;)" stroke-linecap="round" class="BottomRight"></path><path d="M1029 366L1393 730" stroke-width="6" stroke="url(&quot;#SvgjsLinearGradient1021&quot;)" stroke-linecap="round" class="TopLeft"></path><path d="M785 250L496 -39" stroke-width="8" stroke="url(&quot;#SvgjsLinearGradient1022&quot;)" stroke-linecap="round" class="BottomRight"></path><path d="M48 107L-226 -167" stroke-width="10" stroke="url(&quot;#SvgjsLinearGradient1021&quot;)" stroke-linecap="round" class="TopLeft"></path><path d="M845 187L1130 472" stroke-width="6" stroke="url(&quot;#SvgjsLinearGradient1021&quot;)" stroke-linecap="round" class="TopLeft"></path><path d="M719 90L1086 457" stroke-width="10" stroke="url(&quot;#SvgjsLinearGradient1022&quot;)" stroke-linecap="round" class="BottomRight"></path><path d="M664 118L1012 466" stroke-width="6" stroke="url(&quot;#SvgjsLinearGradient1021&quot;)" stroke-linecap="round" class="TopLeft"></path><path d="M524 106L895 477" stroke-width="10" stroke="url(&quot;#SvgjsLinearGradient1021&quot;)" stroke-linecap="round" class="TopLeft"></path><path d="M1179 55L780 -344" stroke-width="8" stroke="url(&quot;#SvgjsLinearGradient1022&quot;)" stroke-linecap="round" class="BottomRight"></path><path d="M290 341L-44 7" stroke-width="10" stroke="url(&quot;#SvgjsLinearGradient1021&quot;)" stroke-linecap="round" class="TopLeft"></path><path d="M410 408L702 700" stroke-width="6" stroke="url(&quot;#SvgjsLinearGradient1021&quot;)" stroke-linecap="round" class="TopLeft"></path><path d="M1355 309L1772 726" stroke-width="8" stroke="url(&quot;#SvgjsLinearGradient1022&quot;)" stroke-linecap="round" class="BottomRight"></path><path d="M1027 222L668 -137" stroke-width="10" stroke="url(&quot;#SvgjsLinearGradient1021&quot;)" stroke-linecap="round" class="TopLeft"></path><path d="M1009 70L826 -113" stroke-width="8" stroke="url(&quot;#SvgjsLinearGradient1021&quot;)" stroke-linecap="round" class="TopLeft"></path><path d="M215 40L571 396" stroke-width="6" stroke="url(&quot;#SvgjsLinearGradient1022&quot;)" stroke-linecap="round" class="BottomRight"></path><path d="M619 124L847 352" stroke-width="6" stroke="url(&quot;#SvgjsLinearGradient1022&quot;)" stroke-linecap="round" class="BottomRight"></path><path d="M1127 114L943 -70" stroke-width="10" stroke="url(&quot;#SvgjsLinearGradient1022&quot;)" stroke-linecap="round" class="BottomRight"></path><path d="M763 291L1084 612" stroke-width="6" stroke="url(&quot;#SvgjsLinearGradient1022&quot;)" stroke-linecap="round" class="BottomRight"></path><path d="M249 135L-7 -121" stroke-width="6" stroke="url(&quot;#SvgjsLinearGradient1021&quot;)" stroke-linecap="round" class="TopLeft"></path><path d="M1047 14L1325 292" stroke-width="6" stroke="url(&quot;#SvgjsLinearGradient1022&quot;)" stroke-linecap="round" class="BottomRight"></path><path d="M767 260L486 -21" stroke-width="8" stroke="url(&quot;#SvgjsLinearGradient1022&quot;)" stroke-linecap="round" class="BottomRight"></path><path d="M1297 187L1012 -98" stroke-width="8" stroke="url(&quot;#SvgjsLinearGradient1022&quot;)" stroke-linecap="round" class="BottomRight"></path><path d="M160 297L-179 -42" stroke-width="8" stroke="url(&quot;#SvgjsLinearGradient1021&quot;)" stroke-linecap="round" class="TopLeft"></path><path d="M242 387L-130 15" stroke-width="6" stroke="url(&quot;#SvgjsLinearGradient1021&quot;)" stroke-linecap="round" class="TopLeft"></path><path d="M741 547L518 324" stroke-width="6" stroke="url(&quot;#SvgjsLinearGradient1021&quot;)" stroke-linecap="round" class="TopLeft"></path><path d="M1391 129L1068 -194" stroke-width="6" stroke="url(&quot;#SvgjsLinearGradient1022&quot;)" stroke-linecap="round" class="BottomRight"></path><path d="M62 511L-240 209" stroke-width="8" stroke="url(&quot;#SvgjsLinearGradient1022&quot;)" stroke-linecap="round" class="BottomRight"></path><path d="M1219 501L1017 299" stroke-width="6" stroke="url(&quot;#SvgjsLinearGradient1021&quot;)" stroke-linecap="round" class="TopLeft"></path><path d="M1107 259L1478 630" stroke-width="8" stroke="url(&quot;#SvgjsLinearGradient1022&quot;)" stroke-linecap="round" class="BottomRight"></path><path d="M900 407L712 219" stroke-width="6" stroke="url(&quot;#SvgjsLinearGradient1022&quot;)" stroke-linecap="round" class="BottomRight"></path><path d="M1395 143L1559 307" stroke-width="10" stroke="url(&quot;#SvgjsLinearGradient1021&quot;)" stroke-linecap="round" class="TopLeft"></path><path d="M1339 432L940 33" stroke-width="10" stroke="url(&quot;#SvgjsLinearGradient1021&quot;)" stroke-linecap="round" class="TopLeft"></path></g><defs><mask id="SvgjsMask1020"><rect width="1440" height="560" fill="#ffffff"></rect></mask><linearGradient x1="100%" y1="100%" x2="0%" y2="0%" id="SvgjsLinearGradient1021"><stop stop-color="rgba(28, 83, 142, 0)" offset="0"></stop><stop stop-color="#1c538e" offset="1"></stop></linearGradient><linearGradient x1="0%" y1="0%" x2="100%" y2="100%" id="SvgjsLinearGradient1022"><stop stop-color="rgba(28, 83, 142, 0)" offset="0"></stop><stop stop-color="#1c538e" offset="1"></stop></linearGradient></defs></svg>