<svg xmlns="http://www.w3.org/2000/svg" version="1.1" xmlns:xlink="http://www.w3.org/1999/xlink" xmlns:svgjs="http://svgjs.dev/svgjs" width="1440" height="560" preserveAspectRatio="none" viewBox="0 0 1440 560"><g mask="url(&quot;#SvgjsMask1006&quot;)" fill="none"><path d="M-83.85 398.55L-83.85 398.55" stroke="#132e65" stroke-width="1.5"></path><path d="M-83.85 398.55L-95.74 499.06" stroke="#132e65" stroke-width="1.5"></path><path d="M-83.85 398.55L45.37 360.08" stroke="#132e65" stroke-width="1.5"></path><path d="M-83.85 398.55L82.14 533.64" stroke="#132e65" stroke-width="1.5"></path><path d="M-83.85 398.55L-76.14 656.31" stroke="#132e65" stroke-width="1.5"></path><path d="M-83.85 398.55L48.96 701.83" stroke="#132e65" stroke-width="1.5"></path><path d="M-95.74 499.06L-95.74 499.06" stroke="#132e65" stroke-width="1.5"></path><path d="M-95.74 499.06L-76.14 656.31" stroke="#132e65" stroke-width="1.5"></path><path d="M-76.14 656.31L-76.14 656.31" stroke="#132e65" stroke-width="1.5"></path><path d="M-76.14 656.31L48.96 701.83" stroke="#132e65" stroke-width="1.5"></path><path d="M-76.14 656.31L82.14 533.64" stroke="#132e65" stroke-width="1.5"></path><path d="M45.37 360.08L45.37 360.08" stroke="#132e65" stroke-width="1.5"></path><path d="M45.37 360.08L82.14 533.64" stroke="#132e65" stroke-width="1.5"></path><path d="M45.37 360.08L-95.74 499.06" stroke="#132e65" stroke-width="1.5"></path><path d="M45.37 360.08L251.57 376.91" stroke="#132e65" stroke-width="1.5"></path><path d="M82.14 533.64L82.14 533.64" stroke="#132e65" stroke-width="1.5"></path><path d="M82.14 533.64L48.96 701.83" stroke="#132e65" stroke-width="1.5"></path><path d="M48.96 701.83L48.96 701.83" stroke="#132e65" stroke-width="1.5"></path><path d="M48.96 701.83L224.81 687.99" stroke="#132e65" stroke-width="1.5"></path><path d="M48.96 701.83L-95.74 499.06" stroke="#132e65" stroke-width="1.5"></path><path d="M48.96 701.83L252.29 501.34" stroke="#132e65" stroke-width="1.5"></path><path d="M251.57 376.91L251.57 376.91" stroke="#132e65" stroke-width="1.5"></path><path d="M251.57 376.91L252.29 501.34" stroke="#132e65" stroke-width="1.5"></path><path d="M251.57 376.91L403.88 366.82" stroke="#132e65" stroke-width="1.5"></path><path d="M252.29 501.34L252.29 501.34" stroke="#132e65" stroke-width="1.5"></path><path d="M252.29 501.34L385.88 507.95" stroke="#132e65" stroke-width="1.5"></path><path d="M252.29 501.34L82.14 533.64" stroke="#132e65" stroke-width="1.5"></path><path d="M252.29 501.34L224.81 687.99" stroke="#132e65" stroke-width="1.5"></path><path d="M224.81 687.99L224.81 687.99" stroke="#132e65" stroke-width="1.5"></path><path d="M224.81 687.99L82.14 533.64" stroke="#132e65" stroke-width="1.5"></path><path d="M224.81 687.99L385.88 507.95" stroke="#132e65" stroke-width="1.5"></path><path d="M224.81 687.99L494.68 683.29" stroke="#132e65" stroke-width="1.5"></path><path d="M224.81 687.99L-76.14 656.31" stroke="#132e65" stroke-width="1.5"></path><path d="M403.88 366.82L403.88 366.82" stroke="#132e65" stroke-width="1.5"></path><path d="M403.88 366.82L540.67 350.79" stroke="#132e65" stroke-width="1.5"></path><path d="M403.88 366.82L385.88 507.95" stroke="#132e65" stroke-width="1.5"></path><path d="M403.88 366.82L522.82 493.97" stroke="#132e65" stroke-width="1.5"></path><path d="M403.88 366.82L252.29 501.34" stroke="#132e65" stroke-width="1.5"></path><path d="M385.88 507.95L385.88 507.95" stroke="#132e65" stroke-width="1.5"></path><path d="M385.88 507.95L522.82 493.97" stroke="#132e65" stroke-width="1.5"></path><path d="M385.88 507.95L251.57 376.91" stroke="#132e65" stroke-width="1.5"></path><path d="M385.88 507.95L494.68 683.29" stroke="#132e65" stroke-width="1.5"></path><path d="M540.67 350.79L540.67 350.79" stroke="#132e65" stroke-width="1.5"></path><path d="M540.67 350.79L522.82 493.97" stroke="#132e65" stroke-width="1.5"></path><path d="M540.67 350.79L695.18 398.08" stroke="#132e65" stroke-width="1.5"></path><path d="M522.82 493.97L522.82 493.97" stroke="#132e65" stroke-width="1.5"></path><path d="M522.82 493.97L664.48 531.46" stroke="#132e65" stroke-width="1.5"></path><path d="M522.82 493.97L494.68 683.29" stroke="#132e65" stroke-width="1.5"></path><path d="M494.68 683.29L494.68 683.29" stroke="#132e65" stroke-width="1.5"></path><path d="M494.68 683.29L677.71 670.9" stroke="#132e65" stroke-width="1.5"></path><path d="M494.68 683.29L664.48 531.46" stroke="#132e65" stroke-width="1.5"></path><path d="M494.68 683.29L252.29 501.34" stroke="#132e65" stroke-width="1.5"></path><path d="M695.18 398.08L695.18 398.08" stroke="#132e65" stroke-width="1.5"></path><path d="M695.18 398.08L664.48 531.46" stroke="#132e65" stroke-width="1.5"></path><path d="M695.18 398.08L832.23 375.22" stroke="#132e65" stroke-width="1.5"></path><path d="M664.48 531.46L664.48 531.46" stroke="#132e65" stroke-width="1.5"></path><path d="M664.48 531.46L677.71 670.9" stroke="#132e65" stroke-width="1.5"></path><path d="M664.48 531.46L835.16 487.9" stroke="#132e65" stroke-width="1.5"></path><path d="M664.48 531.46L840.18 658.49" stroke="#132e65" stroke-width="1.5"></path><path d="M677.71 670.9L677.71 670.9" stroke="#132e65" stroke-width="1.5"></path><path d="M677.71 670.9L840.18 658.49" stroke="#132e65" stroke-width="1.5"></path><path d="M803.51 195.23L803.51 195.23" stroke="#132e65" stroke-width="1.5"></path><path d="M803.51 195.23L941.68 201.53" stroke="#132e65" stroke-width="1.5"></path><path d="M803.51 195.23L832.23 375.22" stroke="#132e65" stroke-width="1.5"></path><path d="M832.23 375.22L832.23 375.22" stroke="#132e65" stroke-width="1.5"></path><path d="M832.23 375.22L835.16 487.9" stroke="#132e65" stroke-width="1.5"></path><path d="M835.16 487.9L835.16 487.9" stroke="#132e65" stroke-width="1.5"></path><path d="M835.16 487.9L951.11 387.94" stroke="#132e65" stroke-width="1.5"></path><path d="M835.16 487.9L999.21 504.08" stroke="#132e65" stroke-width="1.5"></path><path d="M835.16 487.9L695.18 398.08" stroke="#132e65" stroke-width="1.5"></path><path d="M835.16 487.9L840.18 658.49" stroke="#132e65" stroke-width="1.5"></path><path d="M840.18 658.49L840.18 658.49" stroke="#132e65" stroke-width="1.5"></path><path d="M840.18 658.49L981.52 704.53" stroke="#132e65" stroke-width="1.5"></path><path d="M840.18 658.49L999.21 504.08" stroke="#132e65" stroke-width="1.5"></path><path d="M840.18 658.49L832.23 375.22" stroke="#132e65" stroke-width="1.5"></path><path d="M937.63 -46.26L937.63 -46.26" stroke="#132e65" stroke-width="1.5"></path><path d="M937.63 -46.26L961.12 43.45" stroke="#132e65" stroke-width="1.5"></path><path d="M937.63 -46.26L1114.24 54.78" stroke="#132e65" stroke-width="1.5"></path><path d="M937.63 -46.26L1154.37 -68.3" stroke="#132e65" stroke-width="1.5"></path><path d="M961.12 43.45L961.12 43.45" stroke="#132e65" stroke-width="1.5"></path><path d="M961.12 43.45L1114.24 54.78" stroke="#132e65" stroke-width="1.5"></path><path d="M961.12 43.45L941.68 201.53" stroke="#132e65" stroke-width="1.5"></path><path d="M941.68 201.53L941.68 201.53" stroke="#132e65" stroke-width="1.5"></path><path d="M951.11 387.94L951.11 387.94" stroke="#132e65" stroke-width="1.5"></path><path d="M951.11 387.94L832.23 375.22" stroke="#132e65" stroke-width="1.5"></path><path d="M951.11 387.94L999.21 504.08" stroke="#132e65" stroke-width="1.5"></path><path d="M951.11 387.94L1100.28 343.1" stroke="#132e65" stroke-width="1.5"></path><path d="M951.11 387.94L941.68 201.53" stroke="#132e65" stroke-width="1.5"></path><path d="M951.11 387.94L803.51 195.23" stroke="#132e65" stroke-width="1.5"></path><path d="M999.21 504.08L999.21 504.08" stroke="#132e65" stroke-width="1.5"></path><path d="M999.21 504.08L1100.28 343.1" stroke="#132e65" stroke-width="1.5"></path><path d="M999.21 504.08L981.52 704.53" stroke="#132e65" stroke-width="1.5"></path><path d="M999.21 504.08L832.23 375.22" stroke="#132e65" stroke-width="1.5"></path><path d="M981.52 704.53L981.52 704.53" stroke="#132e65" stroke-width="1.5"></path><path d="M1154.37 -68.3L1154.37 -68.3" stroke="#132e65" stroke-width="1.5"></path><path d="M1154.37 -68.3L1253.95 -81.02" stroke="#132e65" stroke-width="1.5"></path><path d="M1154.37 -68.3L1114.24 54.78" stroke="#132e65" stroke-width="1.5"></path><path d="M1154.37 -68.3L1252.97 58.96" stroke="#132e65" stroke-width="1.5"></path><path d="M1154.37 -68.3L961.12 43.45" stroke="#132e65" stroke-width="1.5"></path><path d="M1154.37 -68.3L1441.35 -82.81" stroke="#132e65" stroke-width="1.5"></path><path d="M1114.24 54.78L1114.24 54.78" stroke="#132e65" stroke-width="1.5"></path><path d="M1114.24 54.78L1252.97 58.96" stroke="#132e65" stroke-width="1.5"></path><path d="M1100.28 343.1L1100.28 343.1" stroke="#132e65" stroke-width="1.5"></path><path d="M1100.28 343.1L1291.9 362.33" stroke="#132e65" stroke-width="1.5"></path><path d="M1253.95 -81.02L1253.95 -81.02" stroke="#132e65" stroke-width="1.5"></path><path d="M1253.95 -81.02L1252.97 58.96" stroke="#132e65" stroke-width="1.5"></path><path d="M1253.95 -81.02L1441.35 -82.81" stroke="#132e65" stroke-width="1.5"></path><path d="M1252.97 58.96L1252.97 58.96" stroke="#132e65" stroke-width="1.5"></path><path d="M1252.97 58.96L1255.26 203.28" stroke="#132e65" stroke-width="1.5"></path><path d="M1252.97 58.96L1433.37 71.05" stroke="#132e65" stroke-width="1.5"></path><path d="M1252.97 58.96L1416.36 211.42" stroke="#132e65" stroke-width="1.5"></path><path d="M1255.26 203.28L1255.26 203.28" stroke="#132e65" stroke-width="1.5"></path><path d="M1255.26 203.28L1416.36 211.42" stroke="#132e65" stroke-width="1.5"></path><path d="M1255.26 203.28L1291.9 362.33" stroke="#132e65" stroke-width="1.5"></path><path d="M1291.9 362.33L1291.9 362.33" stroke="#132e65" stroke-width="1.5"></path><path d="M1291.9 362.33L1431.86 364.17" stroke="#132e65" stroke-width="1.5"></path><path d="M1291.9 362.33L1270.59 511.77" stroke="#132e65" stroke-width="1.5"></path><path d="M1270.59 511.77L1270.59 511.77" stroke="#132e65" stroke-width="1.5"></path><path d="M1270.59 511.77L1308.59 668.87" stroke="#132e65" stroke-width="1.5"></path><path d="M1270.59 511.77L1443.07 538.29" stroke="#132e65" stroke-width="1.5"></path><path d="M1270.59 511.77L1431.86 364.17" stroke="#132e65" stroke-width="1.5"></path><path d="M1270.59 511.77L1100.28 343.1" stroke="#132e65" stroke-width="1.5"></path><path d="M1270.59 511.77L1452.54 669.85" stroke="#132e65" stroke-width="1.5"></path><path d="M1308.59 668.87L1308.59 668.87" stroke="#132e65" stroke-width="1.5"></path><path d="M1308.59 668.87L1452.54 669.85" stroke="#132e65" stroke-width="1.5"></path><path d="M1308.59 668.87L1443.07 538.29" stroke="#132e65" stroke-width="1.5"></path><path d="M1441.35 -82.81L1441.35 -82.81" stroke="#132e65" stroke-width="1.5"></path><path d="M1441.35 -82.81L1548.95 -58.5" stroke="#132e65" stroke-width="1.5"></path><path d="M1441.35 -82.81L1433.37 71.05" stroke="#132e65" stroke-width="1.5"></path><path d="M1441.35 -82.81L1252.97 58.96" stroke="#132e65" stroke-width="1.5"></path><path d="M1441.35 -82.81L1601.91 108.42" stroke="#132e65" stroke-width="1.5"></path><path d="M1433.37 71.05L1433.37 71.05" stroke="#132e65" stroke-width="1.5"></path><path d="M1433.37 71.05L1416.36 211.42" stroke="#132e65" stroke-width="1.5"></path><path d="M1416.36 211.42L1416.36 211.42" stroke="#132e65" stroke-width="1.5"></path><path d="M1416.36 211.42L1546.78 245.27" stroke="#132e65" stroke-width="1.5"></path><path d="M1416.36 211.42L1431.86 364.17" stroke="#132e65" stroke-width="1.5"></path><path d="M1431.86 364.17L1431.86 364.17" stroke="#132e65" stroke-width="1.5"></path><path d="M1431.86 364.17L1553.19 385.3" stroke="#132e65" stroke-width="1.5"></path><path d="M1431.86 364.17L1546.78 245.27" stroke="#132e65" stroke-width="1.5"></path><path d="M1431.86 364.17L1443.07 538.29" stroke="#132e65" stroke-width="1.5"></path><path d="M1443.07 538.29L1443.07 538.29" stroke="#132e65" stroke-width="1.5"></path><path d="M1443.07 538.29L1566.81 526.67" stroke="#132e65" stroke-width="1.5"></path><path d="M1443.07 538.29L1452.54 669.85" stroke="#132e65" stroke-width="1.5"></path><path d="M1443.07 538.29L1559.75 667.19" stroke="#132e65" stroke-width="1.5"></path><path d="M1452.54 669.85L1452.54 669.85" stroke="#132e65" stroke-width="1.5"></path><path d="M1452.54 669.85L1559.75 667.19" stroke="#132e65" stroke-width="1.5"></path><path d="M1548.95 -58.5L1548.95 -58.5" stroke="#132e65" stroke-width="1.5"></path><path d="M1601.91 108.42L1601.91 108.42" stroke="#132e65" stroke-width="1.5"></path><path d="M1601.91 108.42L1546.78 245.27" stroke="#132e65" stroke-width="1.5"></path><path d="M1601.91 108.42L1433.37 71.05" stroke="#132e65" stroke-width="1.5"></path><path d="M1601.91 108.42L1548.95 -58.5" stroke="#132e65" stroke-width="1.5"></path><path d="M1601.91 108.42L1416.36 211.42" stroke="#132e65" stroke-width="1.5"></path><path d="M1546.78 245.27L1546.78 245.27" stroke="#132e65" stroke-width="1.5"></path><path d="M1546.78 245.27L1553.19 385.3" stroke="#132e65" stroke-width="1.5"></path><path d="M1546.78 245.27L1433.37 71.05" stroke="#132e65" stroke-width="1.5"></path><path d="M1553.19 385.3L1553.19 385.3" stroke="#132e65" stroke-width="1.5"></path><path d="M1553.19 385.3L1566.81 526.67" stroke="#132e65" stroke-width="1.5"></path><path d="M1553.19 385.3L1443.07 538.29" stroke="#132e65" stroke-width="1.5"></path><path d="M1553.19 385.3L1416.36 211.42" stroke="#132e65" stroke-width="1.5"></path><path d="M1566.81 526.67L1566.81 526.67" stroke="#132e65" stroke-width="1.5"></path><path d="M1566.81 526.67L1559.75 667.19" stroke="#132e65" stroke-width="1.5"></path><path d="M1566.81 526.67L1452.54 669.85" stroke="#132e65" stroke-width="1.5"></path><path d="M1566.81 526.67L1431.86 364.17" stroke="#132e65" stroke-width="1.5"></path><path d="M1559.75 667.19L1559.75 667.19" stroke="#132e65" stroke-width="1.5"></path><path d="M1559.75 667.19L1308.59 668.87" stroke="#132e65" stroke-width="1.5"></path><circle r="5" cx="-83.85" cy="398.55" fill="#132e65"></circle><circle r="5" cx="-95.74" cy="499.06" fill="#132e65"></circle><circle r="5" cx="-76.14" cy="656.31" fill="#132e65"></circle><circle r="5" cx="45.37" cy="360.08" fill="#132e65"></circle><circle r="5" cx="82.14" cy="533.64" fill="#132e65"></circle><circle r="5" cx="48.96" cy="701.83" fill="#132e65"></circle><circle r="5" cx="251.57" cy="376.91" fill="#132e65"></circle><circle r="5" cx="252.29" cy="501.34" fill="#132e65"></circle><circle r="5" cx="224.81" cy="687.99" fill="#132e65"></circle><circle r="5" cx="403.88" cy="366.82" fill="#132e65"></circle><circle r="5" cx="385.88" cy="507.95" fill="#132e65"></circle><circle r="5" cx="540.67" cy="350.79" fill="#132e65"></circle><circle r="5" cx="522.82" cy="493.97" fill="#132e65"></circle><circle r="5" cx="494.68" cy="683.29" fill="#132e65"></circle><circle r="5" cx="695.18" cy="398.08" fill="#132e65"></circle><circle r="5" cx="664.48" cy="531.46" fill="#132e65"></circle><circle r="5" cx="677.71" cy="670.9" fill="#132e65"></circle><circle r="5" cx="803.51" cy="195.23" fill="#132e65"></circle><circle r="5" cx="832.23" cy="375.22" fill="#132e65"></circle><circle r="5" cx="835.16" cy="487.9" fill="#132e65"></circle><circle r="5" cx="840.18" cy="658.49" fill="#132e65"></circle><circle r="5" cx="937.63" cy="-46.26" fill="#132e65"></circle><circle r="5" cx="961.12" cy="43.45" fill="#132e65"></circle><circle r="5" cx="941.68" cy="201.53" fill="#132e65"></circle><circle r="5" cx="951.11" cy="387.94" fill="#132e65"></circle><circle r="5" cx="999.21" cy="504.08" fill="#132e65"></circle><circle r="5" cx="981.52" cy="704.53" fill="#132e65"></circle><circle r="5" cx="1154.37" cy="-68.3" fill="#132e65"></circle><circle r="5" cx="1114.24" cy="54.78" fill="#132e65"></circle><circle r="5" cx="1100.28" cy="343.1" fill="#132e65"></circle><circle r="5" cx="1253.95" cy="-81.02" fill="#132e65"></circle><circle r="5" cx="1252.97" cy="58.96" fill="#132e65"></circle><circle r="5" cx="1255.26" cy="203.28" fill="#132e65"></circle><circle r="5" cx="1291.9" cy="362.33" fill="#132e65"></circle><circle r="5" cx="1270.59" cy="511.77" fill="#132e65"></circle><circle r="5" cx="1308.59" cy="668.87" fill="#132e65"></circle><circle r="5" cx="1441.35" cy="-82.81" fill="#132e65"></circle><circle r="5" cx="1433.37" cy="71.05" fill="#132e65"></circle><circle r="5" cx="1416.36" cy="211.42" fill="#132e65"></circle><circle r="5" cx="1431.86" cy="364.17" fill="#132e65"></circle><circle r="5" cx="1443.07" cy="538.29" fill="#132e65"></circle><circle r="5" cx="1452.54" cy="669.85" fill="#132e65"></circle><circle r="5" cx="1548.95" cy="-58.5" fill="#132e65"></circle><circle r="5" cx="1601.91" cy="108.42" fill="#132e65"></circle><circle r="5" cx="1546.78" cy="245.27" fill="#132e65"></circle><circle r="5" cx="1553.19" cy="385.3" fill="#132e65"></circle><circle r="5" cx="1566.81" cy="526.67" fill="#132e65"></circle><circle r="5" cx="1559.75" cy="667.19" fill="#132e65"></circle><path d="M256.33 531.09L256.33 531.09" stroke="hsl(228.5, 77.2%, 51.5%)" stroke-width="1.5"></path><path d="M256.33 531.09L259.41 661.32" stroke="hsl(228.5, 77.2%, 51.5%)" stroke-width="1.5"></path><path d="M256.33 531.09L345.36 684.14" stroke="hsl(228.5, 77.2%, 51.5%)" stroke-width="1.5"></path><path d="M256.33 531.09L65.1 531.64" stroke="hsl(228.5, 77.2%, 51.5%)" stroke-width="1.5"></path><path d="M256.33 531.09L100.92 700.07" stroke="hsl(228.5, 77.2%, 51.5%)" stroke-width="1.5"></path><path d="M256.33 531.09L489.95 648.13" stroke="hsl(228.5, 77.2%, 51.5%)" stroke-width="1.5"></path><path d="M256.33 531.09L525.01 503.77" stroke="hsl(228.5, 77.2%, 51.5%)" stroke-width="1.5"></path><path d="M525.01 503.77L525.01 503.77" stroke="hsl(228.5, 77.2%, 51.5%)" stroke-width="1.5"></path><path d="M525.01 503.77L489.95 648.13" stroke="hsl(228.5, 77.2%, 51.5%)" stroke-width="1.5"></path><path d="M525.01 503.77L684.01 558.17" stroke="hsl(228.5, 77.2%, 51.5%)" stroke-width="1.5"></path><path d="M525.01 503.77L683.05 363.32" stroke="hsl(228.5, 77.2%, 51.5%)" stroke-width="1.5"></path><path d="M525.01 503.77L687.7 668.38" stroke="hsl(228.5, 77.2%, 51.5%)" stroke-width="1.5"></path><path d="M525.01 503.77L345.36 684.14" stroke="hsl(228.5, 77.2%, 51.5%)" stroke-width="1.5"></path><path d="M687.7 668.38L687.7 668.38" stroke="hsl(228.5, 77.2%, 51.5%)" stroke-width="1.5"></path><path d="M687.7 668.38L684.01 558.17" stroke="hsl(228.5, 77.2%, 51.5%)" stroke-width="1.5"></path><path d="M687.7 668.38L856.04 637.97" stroke="hsl(228.5, 77.2%, 51.5%)" stroke-width="1.5"></path><path d="M687.7 668.38L801.79 527.81" stroke="hsl(228.5, 77.2%, 51.5%)" stroke-width="1.5"></path><path d="M687.7 668.38L489.95 648.13" stroke="hsl(228.5, 77.2%, 51.5%)" stroke-width="1.5"></path><path d="M687.7 668.38L683.05 363.32" stroke="hsl(228.5, 77.2%, 51.5%)" stroke-width="1.5"></path><path d="M1256.09 230.22L1256.09 230.22" stroke="hsl(228.5, 77.2%, 51.5%)" stroke-width="1.5"></path><path d="M1256.09 230.22L1137.82 238.44" stroke="hsl(228.5, 77.2%, 51.5%)" stroke-width="1.5"></path><path d="M1256.09 230.22L1266.9 45.28" stroke="hsl(228.5, 77.2%, 51.5%)" stroke-width="1.5"></path><path d="M1610.52 -93.42L1610.52 -93.42" stroke="hsl(228.5, 77.2%, 51.5%)" stroke-width="1.5"></path><path d="M1610.52 -93.42L1566.96 94.14" stroke="hsl(228.5, 77.2%, 51.5%)" stroke-width="1.5"></path><path d="M1610.52 -93.42L1455.88 100.8" stroke="hsl(228.5, 77.2%, 51.5%)" stroke-width="1.5"></path><path d="M1553.33 695.83L1553.33 695.83" stroke="hsl(228.5, 77.2%, 51.5%)" stroke-width="1.5"></path><path d="M1553.33 695.83L1425.43 683.22" stroke="hsl(228.5, 77.2%, 51.5%)" stroke-width="1.5"></path><path d="M1553.33 695.83L1602.84 496.69" stroke="hsl(228.5, 77.2%, 51.5%)" stroke-width="1.5"></path><path d="M-108.64 558.59L-108.64 558.59" stroke="hsl(228.5, 77.2%, 51.5%)" stroke-width="1.5"></path><path d="M-108.64 558.59L-103.08 638.7" stroke="hsl(228.5, 77.2%, 51.5%)" stroke-width="1.5"></path><path d="M-108.64 558.59L65.1 531.64" stroke="hsl(228.5, 77.2%, 51.5%)" stroke-width="1.5"></path><path d="M-103.08 638.7L-103.08 638.7" stroke="hsl(228.5, 77.2%, 51.5%)" stroke-width="1.5"></path><path d="M-103.08 638.7L65.1 531.64" stroke="hsl(228.5, 77.2%, 51.5%)" stroke-width="1.5"></path><path d="M-103.08 638.7L100.92 700.07" stroke="hsl(228.5, 77.2%, 51.5%)" stroke-width="1.5"></path><path d="M65.1 531.64L65.1 531.64" stroke="hsl(228.5, 77.2%, 51.5%)" stroke-width="1.5"></path><path d="M65.1 531.64L100.92 700.07" stroke="hsl(228.5, 77.2%, 51.5%)" stroke-width="1.5"></path><path d="M100.92 700.07L100.92 700.07" stroke="hsl(228.5, 77.2%, 51.5%)" stroke-width="1.5"></path><path d="M100.92 700.07L259.41 661.32" stroke="hsl(228.5, 77.2%, 51.5%)" stroke-width="1.5"></path><path d="M100.92 700.07L345.36 684.14" stroke="hsl(228.5, 77.2%, 51.5%)" stroke-width="1.5"></path><path d="M259.41 661.32L259.41 661.32" stroke="hsl(228.5, 77.2%, 51.5%)" stroke-width="1.5"></path><path d="M259.41 661.32L345.36 684.14" stroke="hsl(228.5, 77.2%, 51.5%)" stroke-width="1.5"></path><path d="M259.41 661.32L489.95 648.13" stroke="hsl(228.5, 77.2%, 51.5%)" stroke-width="1.5"></path><path d="M259.41 661.32L65.1 531.64" stroke="hsl(228.5, 77.2%, 51.5%)" stroke-width="1.5"></path><path d="M345.36 684.14L345.36 684.14" stroke="hsl(228.5, 77.2%, 51.5%)" stroke-width="1.5"></path><path d="M345.36 684.14L489.95 648.13" stroke="hsl(228.5, 77.2%, 51.5%)" stroke-width="1.5"></path><path d="M489.95 648.13L489.95 648.13" stroke="hsl(228.5, 77.2%, 51.5%)" stroke-width="1.5"></path><path d="M683.05 363.32L683.05 363.32" stroke="hsl(228.5, 77.2%, 51.5%)" stroke-width="1.5"></path><path d="M683.05 363.32L825.56 368.84" stroke="hsl(228.5, 77.2%, 51.5%)" stroke-width="1.5"></path><path d="M683.05 363.32L684.01 558.17" stroke="hsl(228.5, 77.2%, 51.5%)" stroke-width="1.5"></path><path d="M683.05 363.32L801.79 527.81" stroke="hsl(228.5, 77.2%, 51.5%)" stroke-width="1.5"></path><path d="M684.01 558.17L684.01 558.17" stroke="hsl(228.5, 77.2%, 51.5%)" stroke-width="1.5"></path><path d="M684.01 558.17L801.79 527.81" stroke="hsl(228.5, 77.2%, 51.5%)" stroke-width="1.5"></path><path d="M684.01 558.17L856.04 637.97" stroke="hsl(228.5, 77.2%, 51.5%)" stroke-width="1.5"></path><path d="M825.56 368.84L825.56 368.84" stroke="hsl(228.5, 77.2%, 51.5%)" stroke-width="1.5"></path><path d="M825.56 368.84L963.83 339.07" stroke="hsl(228.5, 77.2%, 51.5%)" stroke-width="1.5"></path><path d="M801.79 527.81L801.79 527.81" stroke="hsl(228.5, 77.2%, 51.5%)" stroke-width="1.5"></path><path d="M801.79 527.81L856.04 637.97" stroke="hsl(228.5, 77.2%, 51.5%)" stroke-width="1.5"></path><path d="M856.04 637.97L856.04 637.97" stroke="hsl(228.5, 77.2%, 51.5%)" stroke-width="1.5"></path><path d="M856.04 637.97L999.17 694.11" stroke="hsl(228.5, 77.2%, 51.5%)" stroke-width="1.5"></path><path d="M963.83 339.07L963.83 339.07" stroke="hsl(228.5, 77.2%, 51.5%)" stroke-width="1.5"></path><path d="M963.83 339.07L1101.81 404.31" stroke="hsl(228.5, 77.2%, 51.5%)" stroke-width="1.5"></path><path d="M963.83 339.07L992.33 528.44" stroke="hsl(228.5, 77.2%, 51.5%)" stroke-width="1.5"></path><path d="M963.83 339.07L1137.82 238.44" stroke="hsl(228.5, 77.2%, 51.5%)" stroke-width="1.5"></path><path d="M963.83 339.07L1149.77 489.68" stroke="hsl(228.5, 77.2%, 51.5%)" stroke-width="1.5"></path><path d="M992.33 528.44L992.33 528.44" stroke="hsl(228.5, 77.2%, 51.5%)" stroke-width="1.5"></path><path d="M992.33 528.44L1149.77 489.68" stroke="hsl(228.5, 77.2%, 51.5%)" stroke-width="1.5"></path><path d="M992.33 528.44L1101.81 404.31" stroke="hsl(228.5, 77.2%, 51.5%)" stroke-width="1.5"></path><path d="M992.33 528.44L999.17 694.11" stroke="hsl(228.5, 77.2%, 51.5%)" stroke-width="1.5"></path><path d="M992.33 528.44L856.04 637.97" stroke="hsl(228.5, 77.2%, 51.5%)" stroke-width="1.5"></path><path d="M999.17 694.11L999.17 694.11" stroke="hsl(228.5, 77.2%, 51.5%)" stroke-width="1.5"></path><path d="M999.17 694.11L1111.26 690.94" stroke="hsl(228.5, 77.2%, 51.5%)" stroke-width="1.5"></path><path d="M999.17 694.11L1244.97 638.73" stroke="hsl(228.5, 77.2%, 51.5%)" stroke-width="1.5"></path><path d="M999.17 694.11L1149.77 489.68" stroke="hsl(228.5, 77.2%, 51.5%)" stroke-width="1.5"></path><path d="M1137.82 238.44L1137.82 238.44" stroke="hsl(228.5, 77.2%, 51.5%)" stroke-width="1.5"></path><path d="M1137.82 238.44L1101.81 404.31" stroke="hsl(228.5, 77.2%, 51.5%)" stroke-width="1.5"></path><path d="M1137.82 238.44L1266.9 45.28" stroke="hsl(228.5, 77.2%, 51.5%)" stroke-width="1.5"></path><path d="M1137.82 238.44L1149.77 489.68" stroke="hsl(228.5, 77.2%, 51.5%)" stroke-width="1.5"></path><path d="M1101.81 404.31L1101.81 404.31" stroke="hsl(228.5, 77.2%, 51.5%)" stroke-width="1.5"></path><path d="M1101.81 404.31L1149.77 489.68" stroke="hsl(228.5, 77.2%, 51.5%)" stroke-width="1.5"></path><path d="M1101.81 404.31L1312.16 490.58" stroke="hsl(228.5, 77.2%, 51.5%)" stroke-width="1.5"></path><path d="M1149.77 489.68L1149.77 489.68" stroke="hsl(228.5, 77.2%, 51.5%)" stroke-width="1.5"></path><path d="M1149.77 489.68L1312.16 490.58" stroke="hsl(228.5, 77.2%, 51.5%)" stroke-width="1.5"></path><path d="M1149.77 489.68L1244.97 638.73" stroke="hsl(228.5, 77.2%, 51.5%)" stroke-width="1.5"></path><path d="M1111.26 690.94L1111.26 690.94" stroke="hsl(228.5, 77.2%, 51.5%)" stroke-width="1.5"></path><path d="M1111.26 690.94L1244.97 638.73" stroke="hsl(228.5, 77.2%, 51.5%)" stroke-width="1.5"></path><path d="M1111.26 690.94L992.33 528.44" stroke="hsl(228.5, 77.2%, 51.5%)" stroke-width="1.5"></path><path d="M1267.92 -88.18L1267.92 -88.18" stroke="hsl(228.5, 77.2%, 51.5%)" stroke-width="1.5"></path><path d="M1267.92 -88.18L1266.9 45.28" stroke="hsl(228.5, 77.2%, 51.5%)" stroke-width="1.5"></path><path d="M1267.92 -88.18L1455.88 100.8" stroke="hsl(228.5, 77.2%, 51.5%)" stroke-width="1.5"></path><path d="M1267.92 -88.18L1256.09 230.22" stroke="hsl(228.5, 77.2%, 51.5%)" stroke-width="1.5"></path><path d="M1267.92 -88.18L1610.52 -93.42" stroke="hsl(228.5, 77.2%, 51.5%)" stroke-width="1.5"></path><path d="M1267.92 -88.18L1566.96 94.14" stroke="hsl(228.5, 77.2%, 51.5%)" stroke-width="1.5"></path><path d="M1266.9 45.28L1266.9 45.28" stroke="hsl(228.5, 77.2%, 51.5%)" stroke-width="1.5"></path><path d="M1266.9 45.28L1455.88 100.8" stroke="hsl(228.5, 77.2%, 51.5%)" stroke-width="1.5"></path><path d="M1312.16 490.58L1312.16 490.58" stroke="hsl(228.5, 77.2%, 51.5%)" stroke-width="1.5"></path><path d="M1312.16 490.58L1394.68 401.97" stroke="hsl(228.5, 77.2%, 51.5%)" stroke-width="1.5"></path><path d="M1312.16 490.58L1438.59 500.58" stroke="hsl(228.5, 77.2%, 51.5%)" stroke-width="1.5"></path><path d="M1312.16 490.58L1244.97 638.73" stroke="hsl(228.5, 77.2%, 51.5%)" stroke-width="1.5"></path><path d="M1312.16 490.58L1425.43 683.22" stroke="hsl(228.5, 77.2%, 51.5%)" stroke-width="1.5"></path><path d="M1244.97 638.73L1244.97 638.73" stroke="hsl(228.5, 77.2%, 51.5%)" stroke-width="1.5"></path><path d="M1455.88 100.8L1455.88 100.8" stroke="hsl(228.5, 77.2%, 51.5%)" stroke-width="1.5"></path><path d="M1455.88 100.8L1566.96 94.14" stroke="hsl(228.5, 77.2%, 51.5%)" stroke-width="1.5"></path><path d="M1455.88 100.8L1553.04 193.48" stroke="hsl(228.5, 77.2%, 51.5%)" stroke-width="1.5"></path><path d="M1394.68 401.97L1394.68 401.97" stroke="hsl(228.5, 77.2%, 51.5%)" stroke-width="1.5"></path><path d="M1394.68 401.97L1438.59 500.58" stroke="hsl(228.5, 77.2%, 51.5%)" stroke-width="1.5"></path><path d="M1394.68 401.97L1604.64 339.39" stroke="hsl(228.5, 77.2%, 51.5%)" stroke-width="1.5"></path><path d="M1394.68 401.97L1256.09 230.22" stroke="hsl(228.5, 77.2%, 51.5%)" stroke-width="1.5"></path><path d="M1438.59 500.58L1438.59 500.58" stroke="hsl(228.5, 77.2%, 51.5%)" stroke-width="1.5"></path><path d="M1438.59 500.58L1602.84 496.69" stroke="hsl(228.5, 77.2%, 51.5%)" stroke-width="1.5"></path><path d="M1438.59 500.58L1425.43 683.22" stroke="hsl(228.5, 77.2%, 51.5%)" stroke-width="1.5"></path><path d="M1438.59 500.58L1553.33 695.83" stroke="hsl(228.5, 77.2%, 51.5%)" stroke-width="1.5"></path><path d="M1425.43 683.22L1425.43 683.22" stroke="hsl(228.5, 77.2%, 51.5%)" stroke-width="1.5"></path><path d="M1425.43 683.22L1244.97 638.73" stroke="hsl(228.5, 77.2%, 51.5%)" stroke-width="1.5"></path><path d="M1425.43 683.22L1602.84 496.69" stroke="hsl(228.5, 77.2%, 51.5%)" stroke-width="1.5"></path><path d="M1425.43 683.22L1394.68 401.97" stroke="hsl(228.5, 77.2%, 51.5%)" stroke-width="1.5"></path><path d="M1566.96 94.14L1566.96 94.14" stroke="hsl(228.5, 77.2%, 51.5%)" stroke-width="1.5"></path><path d="M1566.96 94.14L1553.04 193.48" stroke="hsl(228.5, 77.2%, 51.5%)" stroke-width="1.5"></path><path d="M1566.96 94.14L1604.64 339.39" stroke="hsl(228.5, 77.2%, 51.5%)" stroke-width="1.5"></path><path d="M1566.96 94.14L1266.9 45.28" stroke="hsl(228.5, 77.2%, 51.5%)" stroke-width="1.5"></path><path d="M1566.96 94.14L1256.09 230.22" stroke="hsl(228.5, 77.2%, 51.5%)" stroke-width="1.5"></path><path d="M1553.04 193.48L1553.04 193.48" stroke="hsl(228.5, 77.2%, 51.5%)" stroke-width="1.5"></path><path d="M1553.04 193.48L1604.64 339.39" stroke="hsl(228.5, 77.2%, 51.5%)" stroke-width="1.5"></path><path d="M1604.64 339.39L1604.64 339.39" stroke="hsl(228.5, 77.2%, 51.5%)" stroke-width="1.5"></path><path d="M1604.64 339.39L1602.84 496.69" stroke="hsl(228.5, 77.2%, 51.5%)" stroke-width="1.5"></path><path d="M1604.64 339.39L1438.59 500.58" stroke="hsl(228.5, 77.2%, 51.5%)" stroke-width="1.5"></path><path d="M1602.84 496.69L1602.84 496.69" stroke="hsl(228.5, 77.2%, 51.5%)" stroke-width="1.5"></path><path d="M1602.84 496.69L1394.68 401.97" stroke="hsl(228.5, 77.2%, 51.5%)" stroke-width="1.5"></path><circle r="25" cx="256.33" cy="531.09" fill="url(&quot;#SvgjsRadialGradient1007&quot;)"></circle><circle r="25" cx="525.01" cy="503.77" fill="url(&quot;#SvgjsRadialGradient1007&quot;)"></circle><circle r="25" cx="687.7" cy="668.38" fill="url(&quot;#SvgjsRadialGradient1007&quot;)"></circle><circle r="25" cx="1256.09" cy="230.22" fill="url(&quot;#SvgjsRadialGradient1007&quot;)"></circle><circle r="25" cx="1610.52" cy="-93.42" fill="url(&quot;#SvgjsRadialGradient1007&quot;)"></circle><circle r="25" cx="1553.33" cy="695.83" fill="url(&quot;#SvgjsRadialGradient1007&quot;)"></circle><circle r="5" cx="-108.64" cy="558.59" fill="#8b9ad9"></circle><circle r="5" cx="-103.08" cy="638.7" fill="#8b9ad9"></circle><circle r="5" cx="65.1" cy="531.64" fill="#8b9ad9"></circle><circle r="5" cx="100.92" cy="700.07" fill="#8b9ad9"></circle><circle r="5" cx="259.41" cy="661.32" fill="#8b9ad9"></circle><circle r="5" cx="345.36" cy="684.14" fill="#8b9ad9"></circle><circle r="5" cx="489.95" cy="648.13" fill="#8b9ad9"></circle><circle r="5" cx="683.05" cy="363.32" fill="#8b9ad9"></circle><circle r="5" cx="684.01" cy="558.17" fill="#8b9ad9"></circle><circle r="5" cx="825.56" cy="368.84" fill="#8b9ad9"></circle><circle r="5" cx="801.79" cy="527.81" fill="#8b9ad9"></circle><circle r="5" cx="856.04" cy="637.97" fill="#8b9ad9"></circle><circle r="5" cx="963.83" cy="339.07" fill="#8b9ad9"></circle><circle r="5" cx="992.33" cy="528.44" fill="#8b9ad9"></circle><circle r="5" cx="999.17" cy="694.11" fill="#8b9ad9"></circle><circle r="5" cx="1137.82" cy="238.44" fill="#8b9ad9"></circle><circle r="5" cx="1101.81" cy="404.31" fill="#8b9ad9"></circle><circle r="5" cx="1149.77" cy="489.68" fill="#8b9ad9"></circle><circle r="5" cx="1111.26" cy="690.94" fill="#8b9ad9"></circle><circle r="5" cx="1267.92" cy="-88.18" fill="#8b9ad9"></circle><circle r="5" cx="1266.9" cy="45.28" fill="#8b9ad9"></circle><circle r="5" cx="1312.16" cy="490.58" fill="#8b9ad9"></circle><circle r="5" cx="1244.97" cy="638.73" fill="#8b9ad9"></circle><circle r="5" cx="1455.88" cy="100.8" fill="#8b9ad9"></circle><circle r="5" cx="1394.68" cy="401.97" fill="#8b9ad9"></circle><circle r="5" cx="1438.59" cy="500.58" fill="#8b9ad9"></circle><circle r="5" cx="1425.43" cy="683.22" fill="#8b9ad9"></circle><circle r="5" cx="1566.96" cy="94.14" fill="#8b9ad9"></circle><circle r="5" cx="1553.04" cy="193.48" fill="#8b9ad9"></circle><circle r="5" cx="1604.64" cy="339.39" fill="#8b9ad9"></circle><circle r="5" cx="1602.84" cy="496.69" fill="#8b9ad9"></circle></g><defs><mask id="SvgjsMask1006"><rect width="1440" height="560" fill="#ffffff"></rect></mask><radialGradient id="SvgjsRadialGradient1007"><stop stop-color="#ffffff" offset="0.1"></stop><stop stop-color="#1735b3" offset="0.2"></stop><stop stop-color="rgba(23, 53, 179, 0)" offset="1"></stop></radialGradient></defs></svg>