<svg xmlns="http://www.w3.org/2000/svg" version="1.1" xmlns:xlink="http://www.w3.org/1999/xlink" xmlns:svgjs="http://svgjs.dev/svgjs" width="1440" height="560" preserveAspectRatio="none" viewBox="0 0 1440 560"><g mask="url(&quot;#SvgjsMask1047&quot;)" fill="none"><path d="M-69.81 368.02L-69.81 368.02" stroke="#132e65" stroke-width="1.5"></path><path d="M-69.81 368.02L49.9 384.97" stroke="#132e65" stroke-width="1.5"></path><path d="M-69.81 368.02L-84.15 553.1" stroke="#132e65" stroke-width="1.5"></path><path d="M-69.81 368.02L61.73 554.83" stroke="#132e65" stroke-width="1.5"></path><path d="M-69.81 368.02L-87.58 679.61" stroke="#132e65" stroke-width="1.5"></path><path d="M-69.81 368.02L242.57 370.67" stroke="#132e65" stroke-width="1.5"></path><path d="M-84.15 553.1L-84.15 553.1" stroke="#132e65" stroke-width="1.5"></path><path d="M-84.15 553.1L-87.58 679.61" stroke="#132e65" stroke-width="1.5"></path><path d="M-84.15 553.1L61.73 554.83" stroke="#132e65" stroke-width="1.5"></path><path d="M-84.15 553.1L50.1 692.01" stroke="#132e65" stroke-width="1.5"></path><path d="M-84.15 553.1L49.9 384.97" stroke="#132e65" stroke-width="1.5"></path><path d="M-84.15 553.1L240.7 491.03" stroke="#132e65" stroke-width="1.5"></path><path d="M-87.58 679.61L-87.58 679.61" stroke="#132e65" stroke-width="1.5"></path><path d="M-87.58 679.61L50.1 692.01" stroke="#132e65" stroke-width="1.5"></path><path d="M-87.58 679.61L61.73 554.83" stroke="#132e65" stroke-width="1.5"></path><path d="M-87.58 679.61L234.74 711.44" stroke="#132e65" stroke-width="1.5"></path><path d="M-87.58 679.61L49.9 384.97" stroke="#132e65" stroke-width="1.5"></path><path d="M49.9 384.97L49.9 384.97" stroke="#132e65" stroke-width="1.5"></path><path d="M49.9 384.97L61.73 554.83" stroke="#132e65" stroke-width="1.5"></path><path d="M61.73 554.83L61.73 554.83" stroke="#132e65" stroke-width="1.5"></path><path d="M61.73 554.83L50.1 692.01" stroke="#132e65" stroke-width="1.5"></path><path d="M50.1 692.01L50.1 692.01" stroke="#132e65" stroke-width="1.5"></path><path d="M50.1 692.01L234.74 711.44" stroke="#132e65" stroke-width="1.5"></path><path d="M50.1 692.01L240.7 491.03" stroke="#132e65" stroke-width="1.5"></path><path d="M50.1 692.01L344.44 688.25" stroke="#132e65" stroke-width="1.5"></path><path d="M242.57 370.67L242.57 370.67" stroke="#132e65" stroke-width="1.5"></path><path d="M242.57 370.67L355.52 347.12" stroke="#132e65" stroke-width="1.5"></path><path d="M242.57 370.67L240.7 491.03" stroke="#132e65" stroke-width="1.5"></path><path d="M242.57 370.67L49.9 384.97" stroke="#132e65" stroke-width="1.5"></path><path d="M242.57 370.67L411.13 508.52" stroke="#132e65" stroke-width="1.5"></path><path d="M240.7 491.03L240.7 491.03" stroke="#132e65" stroke-width="1.5"></path><path d="M240.7 491.03L411.13 508.52" stroke="#132e65" stroke-width="1.5"></path><path d="M240.7 491.03L355.52 347.12" stroke="#132e65" stroke-width="1.5"></path><path d="M240.7 491.03L61.73 554.83" stroke="#132e65" stroke-width="1.5"></path><path d="M240.7 491.03L49.9 384.97" stroke="#132e65" stroke-width="1.5"></path><path d="M240.7 491.03L234.74 711.44" stroke="#132e65" stroke-width="1.5"></path><path d="M234.74 711.44L234.74 711.44" stroke="#132e65" stroke-width="1.5"></path><path d="M234.74 711.44L344.44 688.25" stroke="#132e65" stroke-width="1.5"></path><path d="M355.52 347.12L355.52 347.12" stroke="#132e65" stroke-width="1.5"></path><path d="M355.52 347.12L508.32 365.11" stroke="#132e65" stroke-width="1.5"></path><path d="M411.13 508.52L411.13 508.52" stroke="#132e65" stroke-width="1.5"></path><path d="M411.13 508.52L490.51 527.29" stroke="#132e65" stroke-width="1.5"></path><path d="M411.13 508.52L355.52 347.12" stroke="#132e65" stroke-width="1.5"></path><path d="M344.44 688.25L344.44 688.25" stroke="#132e65" stroke-width="1.5"></path><path d="M344.44 688.25L525.26 657.29" stroke="#132e65" stroke-width="1.5"></path><path d="M344.44 688.25L411.13 508.52" stroke="#132e65" stroke-width="1.5"></path><path d="M344.44 688.25L490.51 527.29" stroke="#132e65" stroke-width="1.5"></path><path d="M508.32 365.11L508.32 365.11" stroke="#132e65" stroke-width="1.5"></path><path d="M508.32 365.11L641.82 409.54" stroke="#132e65" stroke-width="1.5"></path><path d="M508.32 365.11L490.51 527.29" stroke="#132e65" stroke-width="1.5"></path><path d="M508.32 365.11L411.13 508.52" stroke="#132e65" stroke-width="1.5"></path><path d="M490.51 527.29L490.51 527.29" stroke="#132e65" stroke-width="1.5"></path><path d="M490.51 527.29L525.26 657.29" stroke="#132e65" stroke-width="1.5"></path><path d="M525.26 657.29L525.26 657.29" stroke="#132e65" stroke-width="1.5"></path><path d="M525.26 657.29L651.28 682.32" stroke="#132e65" stroke-width="1.5"></path><path d="M525.26 657.29L411.13 508.52" stroke="#132e65" stroke-width="1.5"></path><path d="M525.26 657.29L685.28 521" stroke="#132e65" stroke-width="1.5"></path><path d="M641.82 409.54L641.82 409.54" stroke="#132e65" stroke-width="1.5"></path><path d="M641.82 409.54L685.28 521" stroke="#132e65" stroke-width="1.5"></path><path d="M641.82 409.54L817.16 358.15" stroke="#132e65" stroke-width="1.5"></path><path d="M641.82 409.54L490.51 527.29" stroke="#132e65" stroke-width="1.5"></path><path d="M685.28 521L685.28 521" stroke="#132e65" stroke-width="1.5"></path><path d="M685.28 521L651.28 682.32" stroke="#132e65" stroke-width="1.5"></path><path d="M685.28 521L490.51 527.29" stroke="#132e65" stroke-width="1.5"></path><path d="M685.28 521L817.16 358.15" stroke="#132e65" stroke-width="1.5"></path><path d="M651.28 682.32L651.28 682.32" stroke="#132e65" stroke-width="1.5"></path><path d="M651.28 682.32L490.51 527.29" stroke="#132e65" stroke-width="1.5"></path><path d="M651.28 682.32L641.82 409.54" stroke="#132e65" stroke-width="1.5"></path><path d="M651.28 682.32L411.13 508.52" stroke="#132e65" stroke-width="1.5"></path><path d="M651.28 682.32L344.44 688.25" stroke="#132e65" stroke-width="1.5"></path><path d="M830.64 107.13L830.64 107.13" stroke="#132e65" stroke-width="1.5"></path><path d="M830.64 107.13L804.66 221.2" stroke="#132e65" stroke-width="1.5"></path><path d="M830.64 107.13L947.42 251.42" stroke="#132e65" stroke-width="1.5"></path><path d="M830.64 107.13L958.09 -77.03" stroke="#132e65" stroke-width="1.5"></path><path d="M830.64 107.13L817.16 358.15" stroke="#132e65" stroke-width="1.5"></path><path d="M804.66 221.2L804.66 221.2" stroke="#132e65" stroke-width="1.5"></path><path d="M804.66 221.2L817.16 358.15" stroke="#132e65" stroke-width="1.5"></path><path d="M804.66 221.2L947.42 251.42" stroke="#132e65" stroke-width="1.5"></path><path d="M804.66 221.2L967.64 383.16" stroke="#132e65" stroke-width="1.5"></path><path d="M817.16 358.15L817.16 358.15" stroke="#132e65" stroke-width="1.5"></path><path d="M958.09 -77.03L958.09 -77.03" stroke="#132e65" stroke-width="1.5"></path><path d="M958.09 -77.03L1145.81 -52.08" stroke="#132e65" stroke-width="1.5"></path><path d="M958.09 -77.03L1147.43 87.59" stroke="#132e65" stroke-width="1.5"></path><path d="M958.09 -77.03L947.42 251.42" stroke="#132e65" stroke-width="1.5"></path><path d="M958.09 -77.03L804.66 221.2" stroke="#132e65" stroke-width="1.5"></path><path d="M958.09 -77.03L1302.67 -97" stroke="#132e65" stroke-width="1.5"></path><path d="M947.42 251.42L947.42 251.42" stroke="#132e65" stroke-width="1.5"></path><path d="M947.42 251.42L967.64 383.16" stroke="#132e65" stroke-width="1.5"></path><path d="M947.42 251.42L817.16 358.15" stroke="#132e65" stroke-width="1.5"></path><path d="M967.64 383.16L967.64 383.16" stroke="#132e65" stroke-width="1.5"></path><path d="M967.64 383.16L1091.18 343.16" stroke="#132e65" stroke-width="1.5"></path><path d="M1006.37 689.53L1006.37 689.53" stroke="#132e65" stroke-width="1.5"></path><path d="M1006.37 689.53L1142.47 687.96" stroke="#132e65" stroke-width="1.5"></path><path d="M1006.37 689.53L1091.94 548.24" stroke="#132e65" stroke-width="1.5"></path><path d="M1145.81 -52.08L1145.81 -52.08" stroke="#132e65" stroke-width="1.5"></path><path d="M1145.81 -52.08L1147.43 87.59" stroke="#132e65" stroke-width="1.5"></path><path d="M1145.81 -52.08L1302.67 -97" stroke="#132e65" stroke-width="1.5"></path><path d="M1145.81 -52.08L1298.19 52.17" stroke="#132e65" stroke-width="1.5"></path><path d="M1145.81 -52.08L1405.48 -60.19" stroke="#132e65" stroke-width="1.5"></path><path d="M1147.43 87.59L1147.43 87.59" stroke="#132e65" stroke-width="1.5"></path><path d="M1147.43 87.59L1298.19 52.17" stroke="#132e65" stroke-width="1.5"></path><path d="M1153.29 248.9L1153.29 248.9" stroke="#132e65" stroke-width="1.5"></path><path d="M1153.29 248.9L1262.24 253.38" stroke="#132e65" stroke-width="1.5"></path><path d="M1153.29 248.9L1091.18 343.16" stroke="#132e65" stroke-width="1.5"></path><path d="M1153.29 248.9L1147.43 87.59" stroke="#132e65" stroke-width="1.5"></path><path d="M1153.29 248.9L1272.44 409.71" stroke="#132e65" stroke-width="1.5"></path><path d="M1153.29 248.9L947.42 251.42" stroke="#132e65" stroke-width="1.5"></path><path d="M1091.18 343.16L1091.18 343.16" stroke="#132e65" stroke-width="1.5"></path><path d="M1091.18 343.16L947.42 251.42" stroke="#132e65" stroke-width="1.5"></path><path d="M1091.18 343.16L1272.44 409.71" stroke="#132e65" stroke-width="1.5"></path><path d="M1091.94 548.24L1091.94 548.24" stroke="#132e65" stroke-width="1.5"></path><path d="M1091.94 548.24L1142.47 687.96" stroke="#132e65" stroke-width="1.5"></path><path d="M1091.94 548.24L1091.18 343.16" stroke="#132e65" stroke-width="1.5"></path><path d="M1091.94 548.24L967.64 383.16" stroke="#132e65" stroke-width="1.5"></path><path d="M1091.94 548.24L1306.11 496" stroke="#132e65" stroke-width="1.5"></path><path d="M1142.47 687.96L1142.47 687.96" stroke="#132e65" stroke-width="1.5"></path><path d="M1142.47 687.96L1302.8 691.6" stroke="#132e65" stroke-width="1.5"></path><path d="M1142.47 687.96L1306.11 496" stroke="#132e65" stroke-width="1.5"></path><path d="M1142.47 687.96L1272.44 409.71" stroke="#132e65" stroke-width="1.5"></path><path d="M1302.67 -97L1302.67 -97" stroke="#132e65" stroke-width="1.5"></path><path d="M1302.67 -97L1405.48 -60.19" stroke="#132e65" stroke-width="1.5"></path><path d="M1302.67 -97L1298.19 52.17" stroke="#132e65" stroke-width="1.5"></path><path d="M1302.67 -97L1147.43 87.59" stroke="#132e65" stroke-width="1.5"></path><path d="M1302.67 -97L1570.32 -51.73" stroke="#132e65" stroke-width="1.5"></path><path d="M1302.67 -97L1577.96 81.61" stroke="#132e65" stroke-width="1.5"></path><path d="M1298.19 52.17L1298.19 52.17" stroke="#132e65" stroke-width="1.5"></path><path d="M1298.19 52.17L1405.48 -60.19" stroke="#132e65" stroke-width="1.5"></path><path d="M1262.24 253.38L1262.24 253.38" stroke="#132e65" stroke-width="1.5"></path><path d="M1262.24 253.38L1272.44 409.71" stroke="#132e65" stroke-width="1.5"></path><path d="M1262.24 253.38L1430.09 344.7" stroke="#132e65" stroke-width="1.5"></path><path d="M1262.24 253.38L1091.18 343.16" stroke="#132e65" stroke-width="1.5"></path><path d="M1272.44 409.71L1272.44 409.71" stroke="#132e65" stroke-width="1.5"></path><path d="M1272.44 409.71L1306.11 496" stroke="#132e65" stroke-width="1.5"></path><path d="M1306.11 496L1306.11 496" stroke="#132e65" stroke-width="1.5"></path><path d="M1306.11 496L1399.76 489.55" stroke="#132e65" stroke-width="1.5"></path><path d="M1302.8 691.6L1302.8 691.6" stroke="#132e65" stroke-width="1.5"></path><path d="M1302.8 691.6L1306.11 496" stroke="#132e65" stroke-width="1.5"></path><path d="M1302.8 691.6L1399.76 489.55" stroke="#132e65" stroke-width="1.5"></path><path d="M1302.8 691.6L1091.94 548.24" stroke="#132e65" stroke-width="1.5"></path><path d="M1302.8 691.6L1557.18 652.02" stroke="#132e65" stroke-width="1.5"></path><path d="M1302.8 691.6L1272.44 409.71" stroke="#132e65" stroke-width="1.5"></path><path d="M1405.48 -60.19L1405.48 -60.19" stroke="#132e65" stroke-width="1.5"></path><path d="M1405.48 -60.19L1570.32 -51.73" stroke="#132e65" stroke-width="1.5"></path><path d="M1405.48 -60.19L1577.96 81.61" stroke="#132e65" stroke-width="1.5"></path><path d="M1430.09 344.7L1430.09 344.7" stroke="#132e65" stroke-width="1.5"></path><path d="M1430.09 344.7L1569.22 384.32" stroke="#132e65" stroke-width="1.5"></path><path d="M1430.09 344.7L1399.76 489.55" stroke="#132e65" stroke-width="1.5"></path><path d="M1430.09 344.7L1559.94 249.08" stroke="#132e65" stroke-width="1.5"></path><path d="M1430.09 344.7L1272.44 409.71" stroke="#132e65" stroke-width="1.5"></path><path d="M1399.76 489.55L1399.76 489.55" stroke="#132e65" stroke-width="1.5"></path><path d="M1399.76 489.55L1272.44 409.71" stroke="#132e65" stroke-width="1.5"></path><path d="M1399.76 489.55L1569.22 384.32" stroke="#132e65" stroke-width="1.5"></path><path d="M1570.32 -51.73L1570.32 -51.73" stroke="#132e65" stroke-width="1.5"></path><path d="M1570.32 -51.73L1577.96 81.61" stroke="#132e65" stroke-width="1.5"></path><path d="M1577.96 81.61L1577.96 81.61" stroke="#132e65" stroke-width="1.5"></path><path d="M1577.96 81.61L1559.94 249.08" stroke="#132e65" stroke-width="1.5"></path><path d="M1577.96 81.61L1298.19 52.17" stroke="#132e65" stroke-width="1.5"></path><path d="M1577.96 81.61L1430.09 344.7" stroke="#132e65" stroke-width="1.5"></path><path d="M1559.94 249.08L1559.94 249.08" stroke="#132e65" stroke-width="1.5"></path><path d="M1559.94 249.08L1569.22 384.32" stroke="#132e65" stroke-width="1.5"></path><path d="M1559.94 249.08L1609.18 489.73" stroke="#132e65" stroke-width="1.5"></path><path d="M1559.94 249.08L1399.76 489.55" stroke="#132e65" stroke-width="1.5"></path><path d="M1569.22 384.32L1569.22 384.32" stroke="#132e65" stroke-width="1.5"></path><path d="M1569.22 384.32L1609.18 489.73" stroke="#132e65" stroke-width="1.5"></path><path d="M1609.18 489.73L1609.18 489.73" stroke="#132e65" stroke-width="1.5"></path><path d="M1609.18 489.73L1557.18 652.02" stroke="#132e65" stroke-width="1.5"></path><path d="M1609.18 489.73L1399.76 489.55" stroke="#132e65" stroke-width="1.5"></path><path d="M1609.18 489.73L1430.09 344.7" stroke="#132e65" stroke-width="1.5"></path><path d="M1557.18 652.02L1557.18 652.02" stroke="#132e65" stroke-width="1.5"></path><path d="M1557.18 652.02L1399.76 489.55" stroke="#132e65" stroke-width="1.5"></path><circle r="5" cx="-69.81" cy="368.02" fill="#132e65"></circle><circle r="5" cx="-84.15" cy="553.1" fill="#132e65"></circle><circle r="5" cx="-87.58" cy="679.61" fill="#132e65"></circle><circle r="5" cx="49.9" cy="384.97" fill="#132e65"></circle><circle r="5" cx="61.73" cy="554.83" fill="#132e65"></circle><circle r="5" cx="50.1" cy="692.01" fill="#132e65"></circle><circle r="5" cx="242.57" cy="370.67" fill="#132e65"></circle><circle r="5" cx="240.7" cy="491.03" fill="#132e65"></circle><circle r="5" cx="234.74" cy="711.44" fill="#132e65"></circle><circle r="5" cx="355.52" cy="347.12" fill="#132e65"></circle><circle r="5" cx="411.13" cy="508.52" fill="#132e65"></circle><circle r="5" cx="344.44" cy="688.25" fill="#132e65"></circle><circle r="5" cx="508.32" cy="365.11" fill="#132e65"></circle><circle r="5" cx="490.51" cy="527.29" fill="#132e65"></circle><circle r="5" cx="525.26" cy="657.29" fill="#132e65"></circle><circle r="5" cx="641.82" cy="409.54" fill="#132e65"></circle><circle r="5" cx="685.28" cy="521" fill="#132e65"></circle><circle r="5" cx="651.28" cy="682.32" fill="#132e65"></circle><circle r="5" cx="830.64" cy="107.13" fill="#132e65"></circle><circle r="5" cx="804.66" cy="221.2" fill="#132e65"></circle><circle r="5" cx="817.16" cy="358.15" fill="#132e65"></circle><circle r="5" cx="958.09" cy="-77.03" fill="#132e65"></circle><circle r="5" cx="947.42" cy="251.42" fill="#132e65"></circle><circle r="5" cx="967.64" cy="383.16" fill="#132e65"></circle><circle r="5" cx="1006.37" cy="689.53" fill="#132e65"></circle><circle r="5" cx="1145.81" cy="-52.08" fill="#132e65"></circle><circle r="5" cx="1147.43" cy="87.59" fill="#132e65"></circle><circle r="5" cx="1153.29" cy="248.9" fill="#132e65"></circle><circle r="5" cx="1091.18" cy="343.16" fill="#132e65"></circle><circle r="5" cx="1091.94" cy="548.24" fill="#132e65"></circle><circle r="5" cx="1142.47" cy="687.96" fill="#132e65"></circle><circle r="5" cx="1302.67" cy="-97" fill="#132e65"></circle><circle r="5" cx="1298.19" cy="52.17" fill="#132e65"></circle><circle r="5" cx="1262.24" cy="253.38" fill="#132e65"></circle><circle r="5" cx="1272.44" cy="409.71" fill="#132e65"></circle><circle r="5" cx="1306.11" cy="496" fill="#132e65"></circle><circle r="5" cx="1302.8" cy="691.6" fill="#132e65"></circle><circle r="5" cx="1405.48" cy="-60.19" fill="#132e65"></circle><circle r="5" cx="1430.09" cy="344.7" fill="#132e65"></circle><circle r="5" cx="1399.76" cy="489.55" fill="#132e65"></circle><circle r="5" cx="1570.32" cy="-51.73" fill="#132e65"></circle><circle r="5" cx="1577.96" cy="81.61" fill="#132e65"></circle><circle r="5" cx="1559.94" cy="249.08" fill="#132e65"></circle><circle r="5" cx="1569.22" cy="384.32" fill="#132e65"></circle><circle r="5" cx="1609.18" cy="489.73" fill="#132e65"></circle><circle r="5" cx="1557.18" cy="652.02" fill="#132e65"></circle><path d="M537.79 533.1L537.79 533.1" stroke="hsl(228.5, 77.2%, 51.5%)" stroke-width="1.5"></path><path d="M537.79 533.1L651.89 505.91" stroke="hsl(228.5, 77.2%, 51.5%)" stroke-width="1.5"></path><path d="M537.79 533.1L512.2 672.58" stroke="hsl(228.5, 77.2%, 51.5%)" stroke-width="1.5"></path><path d="M537.79 533.1L379.7 524.88" stroke="hsl(228.5, 77.2%, 51.5%)" stroke-width="1.5"></path><path d="M792.4 367.25L792.4 367.25" stroke="hsl(228.5, 77.2%, 51.5%)" stroke-width="1.5"></path><path d="M792.4 367.25L709.46 401.48" stroke="hsl(228.5, 77.2%, 51.5%)" stroke-width="1.5"></path><path d="M792.4 367.25L832.47 521.44" stroke="hsl(228.5, 77.2%, 51.5%)" stroke-width="1.5"></path><path d="M982.1 378.46L982.1 378.46" stroke="hsl(228.5, 77.2%, 51.5%)" stroke-width="1.5"></path><path d="M982.1 378.46L994.12 250.33" stroke="hsl(228.5, 77.2%, 51.5%)" stroke-width="1.5"></path><path d="M982.1 378.46L1140.1 399.55" stroke="hsl(228.5, 77.2%, 51.5%)" stroke-width="1.5"></path><path d="M982.1 378.46L954.38 535.86" stroke="hsl(228.5, 77.2%, 51.5%)" stroke-width="1.5"></path><path d="M982.1 378.46L1107.71 494.9" stroke="hsl(228.5, 77.2%, 51.5%)" stroke-width="1.5"></path><path d="M982.1 378.46L792.4 367.25" stroke="hsl(228.5, 77.2%, 51.5%)" stroke-width="1.5"></path><path d="M982.1 378.46L1109.34 220.46" stroke="hsl(228.5, 77.2%, 51.5%)" stroke-width="1.5"></path><path d="M1109.34 220.46L1109.34 220.46" stroke="hsl(228.5, 77.2%, 51.5%)" stroke-width="1.5"></path><path d="M1109.34 220.46L994.12 250.33" stroke="hsl(228.5, 77.2%, 51.5%)" stroke-width="1.5"></path><path d="M1109.34 220.46L1140.1 399.55" stroke="hsl(228.5, 77.2%, 51.5%)" stroke-width="1.5"></path><path d="M1109.34 220.46L1296.97 242.83" stroke="hsl(228.5, 77.2%, 51.5%)" stroke-width="1.5"></path><path d="M1107.71 494.9L1107.71 494.9" stroke="hsl(228.5, 77.2%, 51.5%)" stroke-width="1.5"></path><path d="M1107.71 494.9L1140.1 399.55" stroke="hsl(228.5, 77.2%, 51.5%)" stroke-width="1.5"></path><path d="M1107.71 494.9L954.38 535.86" stroke="hsl(228.5, 77.2%, 51.5%)" stroke-width="1.5"></path><path d="M1141.26 668.12L1141.26 668.12" stroke="hsl(228.5, 77.2%, 51.5%)" stroke-width="1.5"></path><path d="M1141.26 668.12L1247.35 675.48" stroke="hsl(228.5, 77.2%, 51.5%)" stroke-width="1.5"></path><path d="M1141.26 668.12L976.35 705.4" stroke="hsl(228.5, 77.2%, 51.5%)" stroke-width="1.5"></path><path d="M1141.26 668.12L1107.71 494.9" stroke="hsl(228.5, 77.2%, 51.5%)" stroke-width="1.5"></path><path d="M1141.26 668.12L1291.52 530.96" stroke="hsl(228.5, 77.2%, 51.5%)" stroke-width="1.5"></path><path d="M1278.17 79.54L1278.17 79.54" stroke="hsl(228.5, 77.2%, 51.5%)" stroke-width="1.5"></path><path d="M1278.17 79.54L1290.77 -66.95" stroke="hsl(228.5, 77.2%, 51.5%)" stroke-width="1.5"></path><path d="M1278.17 79.54L1436.51 79.61" stroke="hsl(228.5, 77.2%, 51.5%)" stroke-width="1.5"></path><path d="M1278.17 79.54L1296.97 242.83" stroke="hsl(228.5, 77.2%, 51.5%)" stroke-width="1.5"></path><path d="M1278.17 79.54L1109.34 220.46" stroke="hsl(228.5, 77.2%, 51.5%)" stroke-width="1.5"></path><path d="M1278.17 79.54L1421.81 -89.73" stroke="hsl(228.5, 77.2%, 51.5%)" stroke-width="1.5"></path><path d="M1278.17 79.54L1410.49 260.77" stroke="hsl(228.5, 77.2%, 51.5%)" stroke-width="1.5"></path><path d="M1296.97 242.83L1296.97 242.83" stroke="hsl(228.5, 77.2%, 51.5%)" stroke-width="1.5"></path><path d="M1296.97 242.83L1410.49 260.77" stroke="hsl(228.5, 77.2%, 51.5%)" stroke-width="1.5"></path><path d="M1296.97 242.83L1272 381.23" stroke="hsl(228.5, 77.2%, 51.5%)" stroke-width="1.5"></path><path d="M1296.97 242.83L1399.38 361.12" stroke="hsl(228.5, 77.2%, 51.5%)" stroke-width="1.5"></path><path d="M1296.97 242.83L1436.51 79.61" stroke="hsl(228.5, 77.2%, 51.5%)" stroke-width="1.5"></path><path d="M1291.52 530.96L1291.52 530.96" stroke="hsl(228.5, 77.2%, 51.5%)" stroke-width="1.5"></path><path d="M1291.52 530.96L1416.59 520.71" stroke="hsl(228.5, 77.2%, 51.5%)" stroke-width="1.5"></path><path d="M1291.52 530.96L1272 381.23" stroke="hsl(228.5, 77.2%, 51.5%)" stroke-width="1.5"></path><path d="M1291.52 530.96L1247.35 675.48" stroke="hsl(228.5, 77.2%, 51.5%)" stroke-width="1.5"></path><path d="M1291.52 530.96L1107.71 494.9" stroke="hsl(228.5, 77.2%, 51.5%)" stroke-width="1.5"></path><path d="M1291.52 530.96L1140.1 399.55" stroke="hsl(228.5, 77.2%, 51.5%)" stroke-width="1.5"></path><path d="M1247.35 675.48L1247.35 675.48" stroke="hsl(228.5, 77.2%, 51.5%)" stroke-width="1.5"></path><path d="M1247.35 675.48L1107.71 494.9" stroke="hsl(228.5, 77.2%, 51.5%)" stroke-width="1.5"></path><path d="M1247.35 675.48L1416.59 520.71" stroke="hsl(228.5, 77.2%, 51.5%)" stroke-width="1.5"></path><path d="M1247.35 675.48L976.35 705.4" stroke="hsl(228.5, 77.2%, 51.5%)" stroke-width="1.5"></path><path d="M1538.85 38.52L1538.85 38.52" stroke="hsl(228.5, 77.2%, 51.5%)" stroke-width="1.5"></path><path d="M1538.85 38.52L1436.51 79.61" stroke="hsl(228.5, 77.2%, 51.5%)" stroke-width="1.5"></path><path d="M1538.85 38.52L1572.13 194.01" stroke="hsl(228.5, 77.2%, 51.5%)" stroke-width="1.5"></path><path d="M1538.85 38.52L1421.81 -89.73" stroke="hsl(228.5, 77.2%, 51.5%)" stroke-width="1.5"></path><path d="M1538.85 38.52L1410.49 260.77" stroke="hsl(228.5, 77.2%, 51.5%)" stroke-width="1.5"></path><path d="M1572.13 194.01L1572.13 194.01" stroke="hsl(228.5, 77.2%, 51.5%)" stroke-width="1.5"></path><path d="M1572.13 194.01L1410.49 260.77" stroke="hsl(228.5, 77.2%, 51.5%)" stroke-width="1.5"></path><path d="M1572.13 194.01L1436.51 79.61" stroke="hsl(228.5, 77.2%, 51.5%)" stroke-width="1.5"></path><path d="M1572.13 194.01L1599.74 378.02" stroke="hsl(228.5, 77.2%, 51.5%)" stroke-width="1.5"></path><path d="M1572.13 194.01L1399.38 361.12" stroke="hsl(228.5, 77.2%, 51.5%)" stroke-width="1.5"></path><path d="M1572.13 194.01L1296.97 242.83" stroke="hsl(228.5, 77.2%, 51.5%)" stroke-width="1.5"></path><path d="M1556.04 686.73L1556.04 686.73" stroke="hsl(228.5, 77.2%, 51.5%)" stroke-width="1.5"></path><path d="M1556.04 686.73L1560.67 512.41" stroke="hsl(228.5, 77.2%, 51.5%)" stroke-width="1.5"></path><path d="M1556.04 686.73L1416.59 520.71" stroke="hsl(228.5, 77.2%, 51.5%)" stroke-width="1.5"></path><path d="M1556.04 686.73L1291.52 530.96" stroke="hsl(228.5, 77.2%, 51.5%)" stroke-width="1.5"></path><path d="M1556.04 686.73L1247.35 675.48" stroke="hsl(228.5, 77.2%, 51.5%)" stroke-width="1.5"></path><path d="M1556.04 686.73L1599.74 378.02" stroke="hsl(228.5, 77.2%, 51.5%)" stroke-width="1.5"></path><path d="M-108.5 492.46L-108.5 492.46" stroke="hsl(228.5, 77.2%, 51.5%)" stroke-width="1.5"></path><path d="M-108.5 492.46L-42.34 704.56" stroke="hsl(228.5, 77.2%, 51.5%)" stroke-width="1.5"></path><path d="M-108.5 492.46L73.37 698.5" stroke="hsl(228.5, 77.2%, 51.5%)" stroke-width="1.5"></path><path d="M-108.5 492.46L208.3 664.37" stroke="hsl(228.5, 77.2%, 51.5%)" stroke-width="1.5"></path><path d="M-108.5 492.46L253.58 537.17" stroke="hsl(228.5, 77.2%, 51.5%)" stroke-width="1.5"></path><path d="M-108.5 492.46L379.7 524.88" stroke="hsl(228.5, 77.2%, 51.5%)" stroke-width="1.5"></path><path d="M-42.34 704.56L-42.34 704.56" stroke="hsl(228.5, 77.2%, 51.5%)" stroke-width="1.5"></path><path d="M-42.34 704.56L73.37 698.5" stroke="hsl(228.5, 77.2%, 51.5%)" stroke-width="1.5"></path><path d="M-42.34 704.56L208.3 664.37" stroke="hsl(228.5, 77.2%, 51.5%)" stroke-width="1.5"></path><path d="M-42.34 704.56L253.58 537.17" stroke="hsl(228.5, 77.2%, 51.5%)" stroke-width="1.5"></path><path d="M-42.34 704.56L393.9 691.84" stroke="hsl(228.5, 77.2%, 51.5%)" stroke-width="1.5"></path><path d="M-42.34 704.56L379.7 524.88" stroke="hsl(228.5, 77.2%, 51.5%)" stroke-width="1.5"></path><path d="M73.37 698.5L73.37 698.5" stroke="hsl(228.5, 77.2%, 51.5%)" stroke-width="1.5"></path><path d="M73.37 698.5L208.3 664.37" stroke="hsl(228.5, 77.2%, 51.5%)" stroke-width="1.5"></path><path d="M73.37 698.5L253.58 537.17" stroke="hsl(228.5, 77.2%, 51.5%)" stroke-width="1.5"></path><path d="M253.58 537.17L253.58 537.17" stroke="hsl(228.5, 77.2%, 51.5%)" stroke-width="1.5"></path><path d="M253.58 537.17L379.7 524.88" stroke="hsl(228.5, 77.2%, 51.5%)" stroke-width="1.5"></path><path d="M253.58 537.17L208.3 664.37" stroke="hsl(228.5, 77.2%, 51.5%)" stroke-width="1.5"></path><path d="M253.58 537.17L393.9 691.84" stroke="hsl(228.5, 77.2%, 51.5%)" stroke-width="1.5"></path><path d="M253.58 537.17L537.79 533.1" stroke="hsl(228.5, 77.2%, 51.5%)" stroke-width="1.5"></path><path d="M208.3 664.37L208.3 664.37" stroke="hsl(228.5, 77.2%, 51.5%)" stroke-width="1.5"></path><path d="M208.3 664.37L393.9 691.84" stroke="hsl(228.5, 77.2%, 51.5%)" stroke-width="1.5"></path><path d="M208.3 664.37L379.7 524.88" stroke="hsl(228.5, 77.2%, 51.5%)" stroke-width="1.5"></path><path d="M379.7 524.88L379.7 524.88" stroke="hsl(228.5, 77.2%, 51.5%)" stroke-width="1.5"></path><path d="M379.7 524.88L393.9 691.84" stroke="hsl(228.5, 77.2%, 51.5%)" stroke-width="1.5"></path><path d="M379.7 524.88L512.2 672.58" stroke="hsl(228.5, 77.2%, 51.5%)" stroke-width="1.5"></path><path d="M393.9 691.84L393.9 691.84" stroke="hsl(228.5, 77.2%, 51.5%)" stroke-width="1.5"></path><path d="M393.9 691.84L512.2 672.58" stroke="hsl(228.5, 77.2%, 51.5%)" stroke-width="1.5"></path><path d="M393.9 691.84L537.79 533.1" stroke="hsl(228.5, 77.2%, 51.5%)" stroke-width="1.5"></path><path d="M512.2 672.58L512.2 672.58" stroke="hsl(228.5, 77.2%, 51.5%)" stroke-width="1.5"></path><path d="M512.2 672.58L694.52 686.05" stroke="hsl(228.5, 77.2%, 51.5%)" stroke-width="1.5"></path><path d="M709.46 401.48L709.46 401.48" stroke="hsl(228.5, 77.2%, 51.5%)" stroke-width="1.5"></path><path d="M709.46 401.48L651.89 505.91" stroke="hsl(228.5, 77.2%, 51.5%)" stroke-width="1.5"></path><path d="M709.46 401.48L832.47 521.44" stroke="hsl(228.5, 77.2%, 51.5%)" stroke-width="1.5"></path><path d="M651.89 505.91L651.89 505.91" stroke="hsl(228.5, 77.2%, 51.5%)" stroke-width="1.5"></path><path d="M694.52 686.05L694.52 686.05" stroke="hsl(228.5, 77.2%, 51.5%)" stroke-width="1.5"></path><path d="M694.52 686.05L829.4 700.8" stroke="hsl(228.5, 77.2%, 51.5%)" stroke-width="1.5"></path><path d="M694.52 686.05L651.89 505.91" stroke="hsl(228.5, 77.2%, 51.5%)" stroke-width="1.5"></path><path d="M832.47 521.44L832.47 521.44" stroke="hsl(228.5, 77.2%, 51.5%)" stroke-width="1.5"></path><path d="M832.47 521.44L954.38 535.86" stroke="hsl(228.5, 77.2%, 51.5%)" stroke-width="1.5"></path><path d="M829.4 700.8L829.4 700.8" stroke="hsl(228.5, 77.2%, 51.5%)" stroke-width="1.5"></path><path d="M829.4 700.8L976.35 705.4" stroke="hsl(228.5, 77.2%, 51.5%)" stroke-width="1.5"></path><path d="M994.12 250.33L994.12 250.33" stroke="hsl(228.5, 77.2%, 51.5%)" stroke-width="1.5"></path><path d="M994.12 250.33L1140.1 399.55" stroke="hsl(228.5, 77.2%, 51.5%)" stroke-width="1.5"></path><path d="M954.38 535.86L954.38 535.86" stroke="hsl(228.5, 77.2%, 51.5%)" stroke-width="1.5"></path><path d="M954.38 535.86L976.35 705.4" stroke="hsl(228.5, 77.2%, 51.5%)" stroke-width="1.5"></path><path d="M954.38 535.86L829.4 700.8" stroke="hsl(228.5, 77.2%, 51.5%)" stroke-width="1.5"></path><path d="M976.35 705.4L976.35 705.4" stroke="hsl(228.5, 77.2%, 51.5%)" stroke-width="1.5"></path><path d="M976.35 705.4L832.47 521.44" stroke="hsl(228.5, 77.2%, 51.5%)" stroke-width="1.5"></path><path d="M1140.1 399.55L1140.1 399.55" stroke="hsl(228.5, 77.2%, 51.5%)" stroke-width="1.5"></path><path d="M1140.1 399.55L1272 381.23" stroke="hsl(228.5, 77.2%, 51.5%)" stroke-width="1.5"></path><path d="M1290.77 -66.95L1290.77 -66.95" stroke="hsl(228.5, 77.2%, 51.5%)" stroke-width="1.5"></path><path d="M1290.77 -66.95L1421.81 -89.73" stroke="hsl(228.5, 77.2%, 51.5%)" stroke-width="1.5"></path><path d="M1272 381.23L1272 381.23" stroke="hsl(228.5, 77.2%, 51.5%)" stroke-width="1.5"></path><path d="M1272 381.23L1399.38 361.12" stroke="hsl(228.5, 77.2%, 51.5%)" stroke-width="1.5"></path><path d="M1272 381.23L1410.49 260.77" stroke="hsl(228.5, 77.2%, 51.5%)" stroke-width="1.5"></path><path d="M1272 381.23L1107.71 494.9" stroke="hsl(228.5, 77.2%, 51.5%)" stroke-width="1.5"></path><path d="M1421.81 -89.73L1421.81 -89.73" stroke="hsl(228.5, 77.2%, 51.5%)" stroke-width="1.5"></path><path d="M1421.81 -89.73L1436.51 79.61" stroke="hsl(228.5, 77.2%, 51.5%)" stroke-width="1.5"></path><path d="M1436.51 79.61L1436.51 79.61" stroke="hsl(228.5, 77.2%, 51.5%)" stroke-width="1.5"></path><path d="M1436.51 79.61L1410.49 260.77" stroke="hsl(228.5, 77.2%, 51.5%)" stroke-width="1.5"></path><path d="M1436.51 79.61L1290.77 -66.95" stroke="hsl(228.5, 77.2%, 51.5%)" stroke-width="1.5"></path><path d="M1410.49 260.77L1410.49 260.77" stroke="hsl(228.5, 77.2%, 51.5%)" stroke-width="1.5"></path><path d="M1410.49 260.77L1399.38 361.12" stroke="hsl(228.5, 77.2%, 51.5%)" stroke-width="1.5"></path><path d="M1410.49 260.77L1599.74 378.02" stroke="hsl(228.5, 77.2%, 51.5%)" stroke-width="1.5"></path><path d="M1399.38 361.12L1399.38 361.12" stroke="hsl(228.5, 77.2%, 51.5%)" stroke-width="1.5"></path><path d="M1399.38 361.12L1416.59 520.71" stroke="hsl(228.5, 77.2%, 51.5%)" stroke-width="1.5"></path><path d="M1399.38 361.12L1599.74 378.02" stroke="hsl(228.5, 77.2%, 51.5%)" stroke-width="1.5"></path><path d="M1416.59 520.71L1416.59 520.71" stroke="hsl(228.5, 77.2%, 51.5%)" stroke-width="1.5"></path><path d="M1416.59 520.71L1560.67 512.41" stroke="hsl(228.5, 77.2%, 51.5%)" stroke-width="1.5"></path><path d="M1416.59 520.71L1272 381.23" stroke="hsl(228.5, 77.2%, 51.5%)" stroke-width="1.5"></path><path d="M1599.74 378.02L1599.74 378.02" stroke="hsl(228.5, 77.2%, 51.5%)" stroke-width="1.5"></path><path d="M1599.74 378.02L1560.67 512.41" stroke="hsl(228.5, 77.2%, 51.5%)" stroke-width="1.5"></path><path d="M1560.67 512.41L1560.67 512.41" stroke="hsl(228.5, 77.2%, 51.5%)" stroke-width="1.5"></path><circle r="25" cx="537.79" cy="533.1" fill="url(&quot;#SvgjsRadialGradient1048&quot;)"></circle><circle r="25" cx="792.4" cy="367.25" fill="url(&quot;#SvgjsRadialGradient1048&quot;)"></circle><circle r="25" cx="982.1" cy="378.46" fill="url(&quot;#SvgjsRadialGradient1048&quot;)"></circle><circle r="25" cx="1109.34" cy="220.46" fill="url(&quot;#SvgjsRadialGradient1048&quot;)"></circle><circle r="25" cx="1107.71" cy="494.9" fill="url(&quot;#SvgjsRadialGradient1048&quot;)"></circle><circle r="25" cx="1141.26" cy="668.12" fill="url(&quot;#SvgjsRadialGradient1048&quot;)"></circle><circle r="25" cx="1278.17" cy="79.54" fill="url(&quot;#SvgjsRadialGradient1048&quot;)"></circle><circle r="25" cx="1296.97" cy="242.83" fill="url(&quot;#SvgjsRadialGradient1048&quot;)"></circle><circle r="25" cx="1291.52" cy="530.96" fill="url(&quot;#SvgjsRadialGradient1048&quot;)"></circle><circle r="25" cx="1247.35" cy="675.48" fill="url(&quot;#SvgjsRadialGradient1048&quot;)"></circle><circle r="25" cx="1538.85" cy="38.52" fill="url(&quot;#SvgjsRadialGradient1048&quot;)"></circle><circle r="25" cx="1572.13" cy="194.01" fill="url(&quot;#SvgjsRadialGradient1048&quot;)"></circle><circle r="25" cx="1556.04" cy="686.73" fill="url(&quot;#SvgjsRadialGradient1048&quot;)"></circle><circle r="5" cx="-108.5" cy="492.46" fill="#8b9ad9"></circle><circle r="5" cx="-42.34" cy="704.56" fill="#8b9ad9"></circle><circle r="5" cx="73.37" cy="698.5" fill="#8b9ad9"></circle><circle r="5" cx="253.58" cy="537.17" fill="#8b9ad9"></circle><circle r="5" cx="208.3" cy="664.37" fill="#8b9ad9"></circle><circle r="5" cx="379.7" cy="524.88" fill="#8b9ad9"></circle><circle r="5" cx="393.9" cy="691.84" fill="#8b9ad9"></circle><circle r="5" cx="512.2" cy="672.58" fill="#8b9ad9"></circle><circle r="5" cx="709.46" cy="401.48" fill="#8b9ad9"></circle><circle r="5" cx="651.89" cy="505.91" fill="#8b9ad9"></circle><circle r="5" cx="694.52" cy="686.05" fill="#8b9ad9"></circle><circle r="5" cx="832.47" cy="521.44" fill="#8b9ad9"></circle><circle r="5" cx="829.4" cy="700.8" fill="#8b9ad9"></circle><circle r="5" cx="994.12" cy="250.33" fill="#8b9ad9"></circle><circle r="5" cx="954.38" cy="535.86" fill="#8b9ad9"></circle><circle r="5" cx="976.35" cy="705.4" fill="#8b9ad9"></circle><circle r="5" cx="1140.1" cy="399.55" fill="#8b9ad9"></circle><circle r="5" cx="1290.77" cy="-66.95" fill="#8b9ad9"></circle><circle r="5" cx="1272" cy="381.23" fill="#8b9ad9"></circle><circle r="5" cx="1421.81" cy="-89.73" fill="#8b9ad9"></circle><circle r="5" cx="1436.51" cy="79.61" fill="#8b9ad9"></circle><circle r="5" cx="1410.49" cy="260.77" fill="#8b9ad9"></circle><circle r="5" cx="1399.38" cy="361.12" fill="#8b9ad9"></circle><circle r="5" cx="1416.59" cy="520.71" fill="#8b9ad9"></circle><circle r="5" cx="1599.74" cy="378.02" fill="#8b9ad9"></circle><circle r="5" cx="1560.67" cy="512.41" fill="#8b9ad9"></circle></g><defs><mask id="SvgjsMask1047"><rect width="1440" height="560" fill="#ffffff"></rect></mask><radialGradient id="SvgjsRadialGradient1048"><stop stop-color="#ffffff" offset="0.1"></stop><stop stop-color="#1735b3" offset="0.2"></stop><stop stop-color="rgba(23, 53, 179, 0)" offset="1"></stop></radialGradient></defs></svg>