<svg xmlns="http://www.w3.org/2000/svg" version="1.1" xmlns:xlink="http://www.w3.org/1999/xlink" xmlns:svgjs="http://svgjs.dev/svgjs" width="1440" height="560" preserveAspectRatio="none" viewBox="0 0 1440 560"><g mask="url(&quot;#SvgjsMask1037&quot;)" fill="none"><path d="M-54.86 374.15L-54.86 374.15" stroke="#132e65" stroke-width="1.5"></path><path d="M-54.86 374.15L-50.41 524.49" stroke="#132e65" stroke-width="1.5"></path><path d="M-54.86 374.15L100.5 354.3" stroke="#132e65" stroke-width="1.5"></path><path d="M-54.86 374.15L47.51 522.17" stroke="#132e65" stroke-width="1.5"></path><path d="M-54.86 374.15L215.64 377.53" stroke="#132e65" stroke-width="1.5"></path><path d="M-54.86 374.15L232.73 522.09" stroke="#132e65" stroke-width="1.5"></path><path d="M-50.41 524.49L-50.41 524.49" stroke="#132e65" stroke-width="1.5"></path><path d="M-50.41 524.49L47.51 522.17" stroke="#132e65" stroke-width="1.5"></path><path d="M-50.41 524.49L78.29 680.18" stroke="#132e65" stroke-width="1.5"></path><path d="M100.5 354.3L100.5 354.3" stroke="#132e65" stroke-width="1.5"></path><path d="M100.5 354.3L215.64 377.53" stroke="#132e65" stroke-width="1.5"></path><path d="M100.5 354.3L47.51 522.17" stroke="#132e65" stroke-width="1.5"></path><path d="M100.5 354.3L232.73 522.09" stroke="#132e65" stroke-width="1.5"></path><path d="M100.5 354.3L-50.41 524.49" stroke="#132e65" stroke-width="1.5"></path><path d="M47.51 522.17L47.51 522.17" stroke="#132e65" stroke-width="1.5"></path><path d="M47.51 522.17L78.29 680.18" stroke="#132e65" stroke-width="1.5"></path><path d="M78.29 680.18L78.29 680.18" stroke="#132e65" stroke-width="1.5"></path><path d="M78.29 680.18L193.1 690.06" stroke="#132e65" stroke-width="1.5"></path><path d="M78.29 680.18L232.73 522.09" stroke="#132e65" stroke-width="1.5"></path><path d="M78.29 680.18L363.58 695.41" stroke="#132e65" stroke-width="1.5"></path><path d="M215.64 377.53L215.64 377.53" stroke="#132e65" stroke-width="1.5"></path><path d="M215.64 377.53L232.73 522.09" stroke="#132e65" stroke-width="1.5"></path><path d="M232.73 522.09L232.73 522.09" stroke="#132e65" stroke-width="1.5"></path><path d="M232.73 522.09L376.32 543.23" stroke="#132e65" stroke-width="1.5"></path><path d="M232.73 522.09L193.1 690.06" stroke="#132e65" stroke-width="1.5"></path><path d="M193.1 690.06L193.1 690.06" stroke="#132e65" stroke-width="1.5"></path><path d="M193.1 690.06L363.58 695.41" stroke="#132e65" stroke-width="1.5"></path><path d="M193.1 690.06L47.51 522.17" stroke="#132e65" stroke-width="1.5"></path><path d="M193.1 690.06L376.32 543.23" stroke="#132e65" stroke-width="1.5"></path><path d="M193.1 690.06L-50.41 524.49" stroke="#132e65" stroke-width="1.5"></path><path d="M376.32 543.23L376.32 543.23" stroke="#132e65" stroke-width="1.5"></path><path d="M376.32 543.23L363.58 695.41" stroke="#132e65" stroke-width="1.5"></path><path d="M376.32 543.23L519.14 685.3" stroke="#132e65" stroke-width="1.5"></path><path d="M376.32 543.23L512.45 365.43" stroke="#132e65" stroke-width="1.5"></path><path d="M363.58 695.41L363.58 695.41" stroke="#132e65" stroke-width="1.5"></path><path d="M363.58 695.41L519.14 685.3" stroke="#132e65" stroke-width="1.5"></path><path d="M363.58 695.41L232.73 522.09" stroke="#132e65" stroke-width="1.5"></path><path d="M363.58 695.41L639.86 689.05" stroke="#132e65" stroke-width="1.5"></path><path d="M512.45 365.43L512.45 365.43" stroke="#132e65" stroke-width="1.5"></path><path d="M512.45 365.43L652.98 378.15" stroke="#132e65" stroke-width="1.5"></path><path d="M512.45 365.43L687.38 533.7" stroke="#132e65" stroke-width="1.5"></path><path d="M512.45 365.43L215.64 377.53" stroke="#132e65" stroke-width="1.5"></path><path d="M512.45 365.43L519.14 685.3" stroke="#132e65" stroke-width="1.5"></path><path d="M519.14 685.3L519.14 685.3" stroke="#132e65" stroke-width="1.5"></path><path d="M519.14 685.3L639.86 689.05" stroke="#132e65" stroke-width="1.5"></path><path d="M519.14 685.3L687.38 533.7" stroke="#132e65" stroke-width="1.5"></path><path d="M519.14 685.3L813.17 647.5" stroke="#132e65" stroke-width="1.5"></path><path d="M652.98 378.15L652.98 378.15" stroke="#132e65" stroke-width="1.5"></path><path d="M652.98 378.15L687.38 533.7" stroke="#132e65" stroke-width="1.5"></path><path d="M687.38 533.7L687.38 533.7" stroke="#132e65" stroke-width="1.5"></path><path d="M687.38 533.7L814.87 515.55" stroke="#132e65" stroke-width="1.5"></path><path d="M687.38 533.7L639.86 689.05" stroke="#132e65" stroke-width="1.5"></path><path d="M687.38 533.7L813.17 647.5" stroke="#132e65" stroke-width="1.5"></path><path d="M687.38 533.7L836.14 396.33" stroke="#132e65" stroke-width="1.5"></path><path d="M639.86 689.05L639.86 689.05" stroke="#132e65" stroke-width="1.5"></path><path d="M804.01 206.82L804.01 206.82" stroke="#132e65" stroke-width="1.5"></path><path d="M804.01 206.82L955.18 210.51" stroke="#132e65" stroke-width="1.5"></path><path d="M804.01 206.82L836.14 396.33" stroke="#132e65" stroke-width="1.5"></path><path d="M804.01 206.82L652.98 378.15" stroke="#132e65" stroke-width="1.5"></path><path d="M804.01 206.82L998.98 61.67" stroke="#132e65" stroke-width="1.5"></path><path d="M836.14 396.33L836.14 396.33" stroke="#132e65" stroke-width="1.5"></path><path d="M836.14 396.33L814.87 515.55" stroke="#132e65" stroke-width="1.5"></path><path d="M836.14 396.33L949.2 510.68" stroke="#132e65" stroke-width="1.5"></path><path d="M836.14 396.33L652.98 378.15" stroke="#132e65" stroke-width="1.5"></path><path d="M836.14 396.33L955.18 210.51" stroke="#132e65" stroke-width="1.5"></path><path d="M814.87 515.55L814.87 515.55" stroke="#132e65" stroke-width="1.5"></path><path d="M813.17 647.5L813.17 647.5" stroke="#132e65" stroke-width="1.5"></path><path d="M813.17 647.5L814.87 515.55" stroke="#132e65" stroke-width="1.5"></path><path d="M1009.23 -47.28L1009.23 -47.28" stroke="#132e65" stroke-width="1.5"></path><path d="M1009.23 -47.28L998.98 61.67" stroke="#132e65" stroke-width="1.5"></path><path d="M1009.23 -47.28L1153.91 -105.56" stroke="#132e65" stroke-width="1.5"></path><path d="M1009.23 -47.28L1135.42 62.12" stroke="#132e65" stroke-width="1.5"></path><path d="M1009.23 -47.28L955.18 210.51" stroke="#132e65" stroke-width="1.5"></path><path d="M1009.23 -47.28L1116.23 225.72" stroke="#132e65" stroke-width="1.5"></path><path d="M998.98 61.67L998.98 61.67" stroke="#132e65" stroke-width="1.5"></path><path d="M998.98 61.67L1135.42 62.12" stroke="#132e65" stroke-width="1.5"></path><path d="M998.98 61.67L955.18 210.51" stroke="#132e65" stroke-width="1.5"></path><path d="M998.98 61.67L1116.23 225.72" stroke="#132e65" stroke-width="1.5"></path><path d="M998.98 61.67L1153.91 -105.56" stroke="#132e65" stroke-width="1.5"></path><path d="M955.18 210.51L955.18 210.51" stroke="#132e65" stroke-width="1.5"></path><path d="M949.2 510.68L949.2 510.68" stroke="#132e65" stroke-width="1.5"></path><path d="M949.2 510.68L814.87 515.55" stroke="#132e65" stroke-width="1.5"></path><path d="M949.2 510.68L976.71 651.83" stroke="#132e65" stroke-width="1.5"></path><path d="M949.2 510.68L813.17 647.5" stroke="#132e65" stroke-width="1.5"></path><path d="M976.71 651.83L976.71 651.83" stroke="#132e65" stroke-width="1.5"></path><path d="M976.71 651.83L813.17 647.5" stroke="#132e65" stroke-width="1.5"></path><path d="M976.71 651.83L1153.01 655.84" stroke="#132e65" stroke-width="1.5"></path><path d="M976.71 651.83L814.87 515.55" stroke="#132e65" stroke-width="1.5"></path><path d="M976.71 651.83L1257.71 690.37" stroke="#132e65" stroke-width="1.5"></path><path d="M976.71 651.83L836.14 396.33" stroke="#132e65" stroke-width="1.5"></path><path d="M1153.91 -105.56L1153.91 -105.56" stroke="#132e65" stroke-width="1.5"></path><path d="M1153.91 -105.56L1301.88 -102.13" stroke="#132e65" stroke-width="1.5"></path><path d="M1153.91 -105.56L1135.42 62.12" stroke="#132e65" stroke-width="1.5"></path><path d="M1153.91 -105.56L1305 92.22" stroke="#132e65" stroke-width="1.5"></path><path d="M1153.91 -105.56L1414.2 85.03" stroke="#132e65" stroke-width="1.5"></path><path d="M1135.42 62.12L1135.42 62.12" stroke="#132e65" stroke-width="1.5"></path><path d="M1135.42 62.12L1116.23 225.72" stroke="#132e65" stroke-width="1.5"></path><path d="M1135.42 62.12L1305 92.22" stroke="#132e65" stroke-width="1.5"></path><path d="M1135.42 62.12L1263.13 248.46" stroke="#132e65" stroke-width="1.5"></path><path d="M1116.23 225.72L1116.23 225.72" stroke="#132e65" stroke-width="1.5"></path><path d="M1116.23 225.72L1107 354.21" stroke="#132e65" stroke-width="1.5"></path><path d="M1116.23 225.72L1263.13 248.46" stroke="#132e65" stroke-width="1.5"></path><path d="M1116.23 225.72L955.18 210.51" stroke="#132e65" stroke-width="1.5"></path><path d="M1116.23 225.72L1297.53 338.94" stroke="#132e65" stroke-width="1.5"></path><path d="M1107 354.21L1107 354.21" stroke="#132e65" stroke-width="1.5"></path><path d="M1107 354.21L1263.13 248.46" stroke="#132e65" stroke-width="1.5"></path><path d="M1107 354.21L1297.53 338.94" stroke="#132e65" stroke-width="1.5"></path><path d="M1107 354.21L955.18 210.51" stroke="#132e65" stroke-width="1.5"></path><path d="M1107 354.21L949.2 510.68" stroke="#132e65" stroke-width="1.5"></path><path d="M1107 354.21L1309.55 512.57" stroke="#132e65" stroke-width="1.5"></path><path d="M1153.01 655.84L1153.01 655.84" stroke="#132e65" stroke-width="1.5"></path><path d="M1153.01 655.84L1257.71 690.37" stroke="#132e65" stroke-width="1.5"></path><path d="M1153.01 655.84L1309.55 512.57" stroke="#132e65" stroke-width="1.5"></path><path d="M1153.01 655.84L949.2 510.68" stroke="#132e65" stroke-width="1.5"></path><path d="M1153.01 655.84L1107 354.21" stroke="#132e65" stroke-width="1.5"></path><path d="M1301.88 -102.13L1301.88 -102.13" stroke="#132e65" stroke-width="1.5"></path><path d="M1301.88 -102.13L1305 92.22" stroke="#132e65" stroke-width="1.5"></path><path d="M1305 92.22L1305 92.22" stroke="#132e65" stroke-width="1.5"></path><path d="M1305 92.22L1414.2 85.03" stroke="#132e65" stroke-width="1.5"></path><path d="M1305 92.22L1407 203.94" stroke="#132e65" stroke-width="1.5"></path><path d="M1263.13 248.46L1263.13 248.46" stroke="#132e65" stroke-width="1.5"></path><path d="M1263.13 248.46L1297.53 338.94" stroke="#132e65" stroke-width="1.5"></path><path d="M1297.53 338.94L1297.53 338.94" stroke="#132e65" stroke-width="1.5"></path><path d="M1297.53 338.94L1459.74 348.42" stroke="#132e65" stroke-width="1.5"></path><path d="M1309.55 512.57L1309.55 512.57" stroke="#132e65" stroke-width="1.5"></path><path d="M1309.55 512.57L1451.42 534.87" stroke="#132e65" stroke-width="1.5"></path><path d="M1309.55 512.57L1297.53 338.94" stroke="#132e65" stroke-width="1.5"></path><path d="M1257.71 690.37L1257.71 690.37" stroke="#132e65" stroke-width="1.5"></path><path d="M1257.71 690.37L1309.55 512.57" stroke="#132e65" stroke-width="1.5"></path><path d="M1257.71 690.37L1455.54 703.96" stroke="#132e65" stroke-width="1.5"></path><path d="M1257.71 690.37L1451.42 534.87" stroke="#132e65" stroke-width="1.5"></path><path d="M1257.71 690.37L1545.35 709.1" stroke="#132e65" stroke-width="1.5"></path><path d="M1414.2 85.03L1414.2 85.03" stroke="#132e65" stroke-width="1.5"></path><path d="M1414.2 85.03L1407 203.94" stroke="#132e65" stroke-width="1.5"></path><path d="M1414.2 85.03L1568.44 65.77" stroke="#132e65" stroke-width="1.5"></path><path d="M1414.2 85.03L1566.31 211.55" stroke="#132e65" stroke-width="1.5"></path><path d="M1414.2 85.03L1301.88 -102.13" stroke="#132e65" stroke-width="1.5"></path><path d="M1407 203.94L1407 203.94" stroke="#132e65" stroke-width="1.5"></path><path d="M1407 203.94L1263.13 248.46" stroke="#132e65" stroke-width="1.5"></path><path d="M1459.74 348.42L1459.74 348.42" stroke="#132e65" stroke-width="1.5"></path><path d="M1459.74 348.42L1578.79 362.68" stroke="#132e65" stroke-width="1.5"></path><path d="M1459.74 348.42L1407 203.94" stroke="#132e65" stroke-width="1.5"></path><path d="M1459.74 348.42L1566.31 211.55" stroke="#132e65" stroke-width="1.5"></path><path d="M1459.74 348.42L1451.42 534.87" stroke="#132e65" stroke-width="1.5"></path><path d="M1451.42 534.87L1451.42 534.87" stroke="#132e65" stroke-width="1.5"></path><path d="M1451.42 534.87L1585.33 500.9" stroke="#132e65" stroke-width="1.5"></path><path d="M1451.42 534.87L1455.54 703.96" stroke="#132e65" stroke-width="1.5"></path><path d="M1455.54 703.96L1455.54 703.96" stroke="#132e65" stroke-width="1.5"></path><path d="M1455.54 703.96L1545.35 709.1" stroke="#132e65" stroke-width="1.5"></path><path d="M1455.54 703.96L1309.55 512.57" stroke="#132e65" stroke-width="1.5"></path><path d="M1455.54 703.96L1585.33 500.9" stroke="#132e65" stroke-width="1.5"></path><path d="M1568.44 65.77L1568.44 65.77" stroke="#132e65" stroke-width="1.5"></path><path d="M1568.44 65.77L1566.31 211.55" stroke="#132e65" stroke-width="1.5"></path><path d="M1568.44 65.77L1407 203.94" stroke="#132e65" stroke-width="1.5"></path><path d="M1568.44 65.77L1305 92.22" stroke="#132e65" stroke-width="1.5"></path><path d="M1568.44 65.77L1578.79 362.68" stroke="#132e65" stroke-width="1.5"></path><path d="M1568.44 65.77L1459.74 348.42" stroke="#132e65" stroke-width="1.5"></path><path d="M1566.31 211.55L1566.31 211.55" stroke="#132e65" stroke-width="1.5"></path><path d="M1566.31 211.55L1578.79 362.68" stroke="#132e65" stroke-width="1.5"></path><path d="M1566.31 211.55L1407 203.94" stroke="#132e65" stroke-width="1.5"></path><path d="M1578.79 362.68L1578.79 362.68" stroke="#132e65" stroke-width="1.5"></path><path d="M1578.79 362.68L1585.33 500.9" stroke="#132e65" stroke-width="1.5"></path><path d="M1578.79 362.68L1451.42 534.87" stroke="#132e65" stroke-width="1.5"></path><path d="M1578.79 362.68L1407 203.94" stroke="#132e65" stroke-width="1.5"></path><path d="M1578.79 362.68L1297.53 338.94" stroke="#132e65" stroke-width="1.5"></path><path d="M1585.33 500.9L1585.33 500.9" stroke="#132e65" stroke-width="1.5"></path><path d="M1585.33 500.9L1459.74 348.42" stroke="#132e65" stroke-width="1.5"></path><path d="M1585.33 500.9L1545.35 709.1" stroke="#132e65" stroke-width="1.5"></path><path d="M1545.35 709.1L1545.35 709.1" stroke="#132e65" stroke-width="1.5"></path><path d="M1545.35 709.1L1451.42 534.87" stroke="#132e65" stroke-width="1.5"></path><path d="M1545.35 709.1L1309.55 512.57" stroke="#132e65" stroke-width="1.5"></path><circle r="5" cx="-54.86" cy="374.15" fill="#132e65"></circle><circle r="5" cx="-50.41" cy="524.49" fill="#132e65"></circle><circle r="5" cx="100.5" cy="354.3" fill="#132e65"></circle><circle r="5" cx="47.51" cy="522.17" fill="#132e65"></circle><circle r="5" cx="78.29" cy="680.18" fill="#132e65"></circle><circle r="5" cx="215.64" cy="377.53" fill="#132e65"></circle><circle r="5" cx="232.73" cy="522.09" fill="#132e65"></circle><circle r="5" cx="193.1" cy="690.06" fill="#132e65"></circle><circle r="5" cx="376.32" cy="543.23" fill="#132e65"></circle><circle r="5" cx="363.58" cy="695.41" fill="#132e65"></circle><circle r="5" cx="512.45" cy="365.43" fill="#132e65"></circle><circle r="5" cx="519.14" cy="685.3" fill="#132e65"></circle><circle r="5" cx="652.98" cy="378.15" fill="#132e65"></circle><circle r="5" cx="687.38" cy="533.7" fill="#132e65"></circle><circle r="5" cx="639.86" cy="689.05" fill="#132e65"></circle><circle r="5" cx="804.01" cy="206.82" fill="#132e65"></circle><circle r="5" cx="836.14" cy="396.33" fill="#132e65"></circle><circle r="5" cx="814.87" cy="515.55" fill="#132e65"></circle><circle r="5" cx="813.17" cy="647.5" fill="#132e65"></circle><circle r="5" cx="1009.23" cy="-47.28" fill="#132e65"></circle><circle r="5" cx="998.98" cy="61.67" fill="#132e65"></circle><circle r="5" cx="955.18" cy="210.51" fill="#132e65"></circle><circle r="5" cx="949.2" cy="510.68" fill="#132e65"></circle><circle r="5" cx="976.71" cy="651.83" fill="#132e65"></circle><circle r="5" cx="1153.91" cy="-105.56" fill="#132e65"></circle><circle r="5" cx="1135.42" cy="62.12" fill="#132e65"></circle><circle r="5" cx="1116.23" cy="225.72" fill="#132e65"></circle><circle r="5" cx="1107" cy="354.21" fill="#132e65"></circle><circle r="5" cx="1153.01" cy="655.84" fill="#132e65"></circle><circle r="5" cx="1301.88" cy="-102.13" fill="#132e65"></circle><circle r="5" cx="1305" cy="92.22" fill="#132e65"></circle><circle r="5" cx="1263.13" cy="248.46" fill="#132e65"></circle><circle r="5" cx="1297.53" cy="338.94" fill="#132e65"></circle><circle r="5" cx="1309.55" cy="512.57" fill="#132e65"></circle><circle r="5" cx="1257.71" cy="690.37" fill="#132e65"></circle><circle r="5" cx="1414.2" cy="85.03" fill="#132e65"></circle><circle r="5" cx="1407" cy="203.94" fill="#132e65"></circle><circle r="5" cx="1459.74" cy="348.42" fill="#132e65"></circle><circle r="5" cx="1451.42" cy="534.87" fill="#132e65"></circle><circle r="5" cx="1455.54" cy="703.96" fill="#132e65"></circle><circle r="5" cx="1568.44" cy="65.77" fill="#132e65"></circle><circle r="5" cx="1566.31" cy="211.55" fill="#132e65"></circle><circle r="5" cx="1578.79" cy="362.68" fill="#132e65"></circle><circle r="5" cx="1585.33" cy="500.9" fill="#132e65"></circle><circle r="5" cx="1545.35" cy="709.1" fill="#132e65"></circle><path d="M-69.5 519.46L-69.5 519.46" stroke="hsl(228.5, 77.2%, 51.5%)" stroke-width="1.5"></path><path d="M-69.5 519.46L95.54 550.48" stroke="hsl(228.5, 77.2%, 51.5%)" stroke-width="1.5"></path><path d="M-69.5 519.46L43.49 680.31" stroke="hsl(228.5, 77.2%, 51.5%)" stroke-width="1.5"></path><path d="M-69.5 519.46L206.47 700.6" stroke="hsl(228.5, 77.2%, 51.5%)" stroke-width="1.5"></path><path d="M-69.5 519.46L261.93 495.32" stroke="hsl(228.5, 77.2%, 51.5%)" stroke-width="1.5"></path><path d="M-69.5 519.46L357.87 494.66" stroke="hsl(228.5, 77.2%, 51.5%)" stroke-width="1.5"></path><path d="M357.87 494.66L357.87 494.66" stroke="hsl(228.5, 77.2%, 51.5%)" stroke-width="1.5"></path><path d="M357.87 494.66L261.93 495.32" stroke="hsl(228.5, 77.2%, 51.5%)" stroke-width="1.5"></path><path d="M556.79 709.48L556.79 709.48" stroke="hsl(228.5, 77.2%, 51.5%)" stroke-width="1.5"></path><path d="M556.79 709.48L686.57 688.19" stroke="hsl(228.5, 77.2%, 51.5%)" stroke-width="1.5"></path><path d="M556.79 709.48L391.9 700.07" stroke="hsl(228.5, 77.2%, 51.5%)" stroke-width="1.5"></path><path d="M556.79 709.48L492.18 548.87" stroke="hsl(228.5, 77.2%, 51.5%)" stroke-width="1.5"></path><path d="M556.79 709.48L680.7 550.12" stroke="hsl(228.5, 77.2%, 51.5%)" stroke-width="1.5"></path><path d="M680.7 550.12L680.7 550.12" stroke="hsl(228.5, 77.2%, 51.5%)" stroke-width="1.5"></path><path d="M680.7 550.12L686.57 688.19" stroke="hsl(228.5, 77.2%, 51.5%)" stroke-width="1.5"></path><path d="M680.7 550.12L650.06 404.43" stroke="hsl(228.5, 77.2%, 51.5%)" stroke-width="1.5"></path><path d="M680.7 550.12L821.35 499.65" stroke="hsl(228.5, 77.2%, 51.5%)" stroke-width="1.5"></path><path d="M680.7 550.12L806.8 656.7" stroke="hsl(228.5, 77.2%, 51.5%)" stroke-width="1.5"></path><path d="M680.7 550.12L492.18 548.87" stroke="hsl(228.5, 77.2%, 51.5%)" stroke-width="1.5"></path><path d="M686.57 688.19L686.57 688.19" stroke="hsl(228.5, 77.2%, 51.5%)" stroke-width="1.5"></path><path d="M686.57 688.19L806.8 656.7" stroke="hsl(228.5, 77.2%, 51.5%)" stroke-width="1.5"></path><path d="M845.7 394.93L845.7 394.93" stroke="hsl(228.5, 77.2%, 51.5%)" stroke-width="1.5"></path><path d="M845.7 394.93L821.35 499.65" stroke="hsl(228.5, 77.2%, 51.5%)" stroke-width="1.5"></path><path d="M845.7 394.93L966.55 361.11" stroke="hsl(228.5, 77.2%, 51.5%)" stroke-width="1.5"></path><path d="M845.7 394.93L650.06 404.43" stroke="hsl(228.5, 77.2%, 51.5%)" stroke-width="1.5"></path><path d="M806.8 656.7L806.8 656.7" stroke="hsl(228.5, 77.2%, 51.5%)" stroke-width="1.5"></path><path d="M806.8 656.7L943.66 686.81" stroke="hsl(228.5, 77.2%, 51.5%)" stroke-width="1.5"></path><path d="M806.8 656.7L821.35 499.65" stroke="hsl(228.5, 77.2%, 51.5%)" stroke-width="1.5"></path><path d="M806.8 656.7L556.79 709.48" stroke="hsl(228.5, 77.2%, 51.5%)" stroke-width="1.5"></path><path d="M806.8 656.7L845.7 394.93" stroke="hsl(228.5, 77.2%, 51.5%)" stroke-width="1.5"></path><path d="M1258.38 653.17L1258.38 653.17" stroke="hsl(228.5, 77.2%, 51.5%)" stroke-width="1.5"></path><path d="M1258.38 653.17L1147 666.02" stroke="hsl(228.5, 77.2%, 51.5%)" stroke-width="1.5"></path><path d="M1258.38 653.17L1247.58 511.25" stroke="hsl(228.5, 77.2%, 51.5%)" stroke-width="1.5"></path><path d="M1258.38 653.17L1442.34 650.87" stroke="hsl(228.5, 77.2%, 51.5%)" stroke-width="1.5"></path><path d="M1442.34 650.87L1442.34 650.87" stroke="hsl(228.5, 77.2%, 51.5%)" stroke-width="1.5"></path><path d="M1442.34 650.87L1553.7 692.97" stroke="hsl(228.5, 77.2%, 51.5%)" stroke-width="1.5"></path><path d="M1442.34 650.87L1409.14 530.21" stroke="hsl(228.5, 77.2%, 51.5%)" stroke-width="1.5"></path><path d="M1442.34 650.87L1589.59 526.15" stroke="hsl(228.5, 77.2%, 51.5%)" stroke-width="1.5"></path><path d="M1442.34 650.87L1247.58 511.25" stroke="hsl(228.5, 77.2%, 51.5%)" stroke-width="1.5"></path><path d="M1442.34 650.87L1402.18 375.66" stroke="hsl(228.5, 77.2%, 51.5%)" stroke-width="1.5"></path><path d="M1602.72 227.77L1602.72 227.77" stroke="hsl(228.5, 77.2%, 51.5%)" stroke-width="1.5"></path><path d="M1602.72 227.77L1586.55 109.37" stroke="hsl(228.5, 77.2%, 51.5%)" stroke-width="1.5"></path><path d="M1602.72 227.77L1551.79 389.17" stroke="hsl(228.5, 77.2%, 51.5%)" stroke-width="1.5"></path><path d="M1602.72 227.77L1400.97 235.92" stroke="hsl(228.5, 77.2%, 51.5%)" stroke-width="1.5"></path><path d="M1602.72 227.77L1457.86 45.14" stroke="hsl(228.5, 77.2%, 51.5%)" stroke-width="1.5"></path><path d="M1602.72 227.77L1402.18 375.66" stroke="hsl(228.5, 77.2%, 51.5%)" stroke-width="1.5"></path><path d="M1602.72 227.77L1589.59 526.15" stroke="hsl(228.5, 77.2%, 51.5%)" stroke-width="1.5"></path><path d="M95.54 550.48L95.54 550.48" stroke="hsl(228.5, 77.2%, 51.5%)" stroke-width="1.5"></path><path d="M95.54 550.48L43.49 680.31" stroke="hsl(228.5, 77.2%, 51.5%)" stroke-width="1.5"></path><path d="M95.54 550.48L261.93 495.32" stroke="hsl(228.5, 77.2%, 51.5%)" stroke-width="1.5"></path><path d="M95.54 550.48L206.47 700.6" stroke="hsl(228.5, 77.2%, 51.5%)" stroke-width="1.5"></path><path d="M95.54 550.48L357.87 494.66" stroke="hsl(228.5, 77.2%, 51.5%)" stroke-width="1.5"></path><path d="M43.49 680.31L43.49 680.31" stroke="hsl(228.5, 77.2%, 51.5%)" stroke-width="1.5"></path><path d="M43.49 680.31L206.47 700.6" stroke="hsl(228.5, 77.2%, 51.5%)" stroke-width="1.5"></path><path d="M43.49 680.31L261.93 495.32" stroke="hsl(228.5, 77.2%, 51.5%)" stroke-width="1.5"></path><path d="M43.49 680.31L391.9 700.07" stroke="hsl(228.5, 77.2%, 51.5%)" stroke-width="1.5"></path><path d="M43.49 680.31L357.87 494.66" stroke="hsl(228.5, 77.2%, 51.5%)" stroke-width="1.5"></path><path d="M261.93 495.32L261.93 495.32" stroke="hsl(228.5, 77.2%, 51.5%)" stroke-width="1.5"></path><path d="M261.93 495.32L206.47 700.6" stroke="hsl(228.5, 77.2%, 51.5%)" stroke-width="1.5"></path><path d="M261.93 495.32L492.18 548.87" stroke="hsl(228.5, 77.2%, 51.5%)" stroke-width="1.5"></path><path d="M261.93 495.32L391.9 700.07" stroke="hsl(228.5, 77.2%, 51.5%)" stroke-width="1.5"></path><path d="M206.47 700.6L206.47 700.6" stroke="hsl(228.5, 77.2%, 51.5%)" stroke-width="1.5"></path><path d="M206.47 700.6L391.9 700.07" stroke="hsl(228.5, 77.2%, 51.5%)" stroke-width="1.5"></path><path d="M206.47 700.6L357.87 494.66" stroke="hsl(228.5, 77.2%, 51.5%)" stroke-width="1.5"></path><path d="M206.47 700.6L492.18 548.87" stroke="hsl(228.5, 77.2%, 51.5%)" stroke-width="1.5"></path><path d="M391.9 700.07L391.9 700.07" stroke="hsl(228.5, 77.2%, 51.5%)" stroke-width="1.5"></path><path d="M391.9 700.07L492.18 548.87" stroke="hsl(228.5, 77.2%, 51.5%)" stroke-width="1.5"></path><path d="M492.18 548.87L492.18 548.87" stroke="hsl(228.5, 77.2%, 51.5%)" stroke-width="1.5"></path><path d="M492.18 548.87L357.87 494.66" stroke="hsl(228.5, 77.2%, 51.5%)" stroke-width="1.5"></path><path d="M492.18 548.87L650.06 404.43" stroke="hsl(228.5, 77.2%, 51.5%)" stroke-width="1.5"></path><path d="M650.06 404.43L650.06 404.43" stroke="hsl(228.5, 77.2%, 51.5%)" stroke-width="1.5"></path><path d="M650.06 404.43L821.35 499.65" stroke="hsl(228.5, 77.2%, 51.5%)" stroke-width="1.5"></path><path d="M821.35 499.65L821.35 499.65" stroke="hsl(228.5, 77.2%, 51.5%)" stroke-width="1.5"></path><path d="M966.55 361.11L966.55 361.11" stroke="hsl(228.5, 77.2%, 51.5%)" stroke-width="1.5"></path><path d="M943.66 686.81L943.66 686.81" stroke="hsl(228.5, 77.2%, 51.5%)" stroke-width="1.5"></path><path d="M943.66 686.81L1147 666.02" stroke="hsl(228.5, 77.2%, 51.5%)" stroke-width="1.5"></path><path d="M943.66 686.81L821.35 499.65" stroke="hsl(228.5, 77.2%, 51.5%)" stroke-width="1.5"></path><path d="M943.66 686.81L686.57 688.19" stroke="hsl(228.5, 77.2%, 51.5%)" stroke-width="1.5"></path><path d="M943.66 686.81L1143.74 489.32" stroke="hsl(228.5, 77.2%, 51.5%)" stroke-width="1.5"></path><path d="M943.66 686.81L680.7 550.12" stroke="hsl(228.5, 77.2%, 51.5%)" stroke-width="1.5"></path><path d="M1115.85 226L1115.85 226" stroke="hsl(228.5, 77.2%, 51.5%)" stroke-width="1.5"></path><path d="M1115.85 226L1150.08 344.35" stroke="hsl(228.5, 77.2%, 51.5%)" stroke-width="1.5"></path><path d="M1115.85 226L1248.52 201.48" stroke="hsl(228.5, 77.2%, 51.5%)" stroke-width="1.5"></path><path d="M1115.85 226L1242.73 100.49" stroke="hsl(228.5, 77.2%, 51.5%)" stroke-width="1.5"></path><path d="M1115.85 226L966.55 361.11" stroke="hsl(228.5, 77.2%, 51.5%)" stroke-width="1.5"></path><path d="M1115.85 226L1308.76 397.03" stroke="hsl(228.5, 77.2%, 51.5%)" stroke-width="1.5"></path><path d="M1115.85 226L1143.74 489.32" stroke="hsl(228.5, 77.2%, 51.5%)" stroke-width="1.5"></path><path d="M1150.08 344.35L1150.08 344.35" stroke="hsl(228.5, 77.2%, 51.5%)" stroke-width="1.5"></path><path d="M1150.08 344.35L1143.74 489.32" stroke="hsl(228.5, 77.2%, 51.5%)" stroke-width="1.5"></path><path d="M1143.74 489.32L1143.74 489.32" stroke="hsl(228.5, 77.2%, 51.5%)" stroke-width="1.5"></path><path d="M1143.74 489.32L1247.58 511.25" stroke="hsl(228.5, 77.2%, 51.5%)" stroke-width="1.5"></path><path d="M1143.74 489.32L1147 666.02" stroke="hsl(228.5, 77.2%, 51.5%)" stroke-width="1.5"></path><path d="M1143.74 489.32L1308.76 397.03" stroke="hsl(228.5, 77.2%, 51.5%)" stroke-width="1.5"></path><path d="M1143.74 489.32L1258.38 653.17" stroke="hsl(228.5, 77.2%, 51.5%)" stroke-width="1.5"></path><path d="M1143.74 489.32L966.55 361.11" stroke="hsl(228.5, 77.2%, 51.5%)" stroke-width="1.5"></path><path d="M1147 666.02L1147 666.02" stroke="hsl(228.5, 77.2%, 51.5%)" stroke-width="1.5"></path><path d="M1147 666.02L1247.58 511.25" stroke="hsl(228.5, 77.2%, 51.5%)" stroke-width="1.5"></path><path d="M1279.58 -93.92L1279.58 -93.92" stroke="hsl(228.5, 77.2%, 51.5%)" stroke-width="1.5"></path><path d="M1279.58 -93.92L1427.62 -105.98" stroke="hsl(228.5, 77.2%, 51.5%)" stroke-width="1.5"></path><path d="M1279.58 -93.92L1242.73 100.49" stroke="hsl(228.5, 77.2%, 51.5%)" stroke-width="1.5"></path><path d="M1279.58 -93.92L1457.86 45.14" stroke="hsl(228.5, 77.2%, 51.5%)" stroke-width="1.5"></path><path d="M1279.58 -93.92L1248.52 201.48" stroke="hsl(228.5, 77.2%, 51.5%)" stroke-width="1.5"></path><path d="M1279.58 -93.92L1610.52 -100.25" stroke="hsl(228.5, 77.2%, 51.5%)" stroke-width="1.5"></path><path d="M1242.73 100.49L1242.73 100.49" stroke="hsl(228.5, 77.2%, 51.5%)" stroke-width="1.5"></path><path d="M1242.73 100.49L1248.52 201.48" stroke="hsl(228.5, 77.2%, 51.5%)" stroke-width="1.5"></path><path d="M1248.52 201.48L1248.52 201.48" stroke="hsl(228.5, 77.2%, 51.5%)" stroke-width="1.5"></path><path d="M1248.52 201.48L1400.97 235.92" stroke="hsl(228.5, 77.2%, 51.5%)" stroke-width="1.5"></path><path d="M1308.76 397.03L1308.76 397.03" stroke="hsl(228.5, 77.2%, 51.5%)" stroke-width="1.5"></path><path d="M1308.76 397.03L1402.18 375.66" stroke="hsl(228.5, 77.2%, 51.5%)" stroke-width="1.5"></path><path d="M1308.76 397.03L1247.58 511.25" stroke="hsl(228.5, 77.2%, 51.5%)" stroke-width="1.5"></path><path d="M1308.76 397.03L1409.14 530.21" stroke="hsl(228.5, 77.2%, 51.5%)" stroke-width="1.5"></path><path d="M1308.76 397.03L1150.08 344.35" stroke="hsl(228.5, 77.2%, 51.5%)" stroke-width="1.5"></path><path d="M1308.76 397.03L1400.97 235.92" stroke="hsl(228.5, 77.2%, 51.5%)" stroke-width="1.5"></path><path d="M1247.58 511.25L1247.58 511.25" stroke="hsl(228.5, 77.2%, 51.5%)" stroke-width="1.5"></path><path d="M1247.58 511.25L1409.14 530.21" stroke="hsl(228.5, 77.2%, 51.5%)" stroke-width="1.5"></path><path d="M1427.62 -105.98L1427.62 -105.98" stroke="hsl(228.5, 77.2%, 51.5%)" stroke-width="1.5"></path><path d="M1427.62 -105.98L1457.86 45.14" stroke="hsl(228.5, 77.2%, 51.5%)" stroke-width="1.5"></path><path d="M1427.62 -105.98L1610.52 -100.25" stroke="hsl(228.5, 77.2%, 51.5%)" stroke-width="1.5"></path><path d="M1457.86 45.14L1457.86 45.14" stroke="hsl(228.5, 77.2%, 51.5%)" stroke-width="1.5"></path><path d="M1457.86 45.14L1586.55 109.37" stroke="hsl(228.5, 77.2%, 51.5%)" stroke-width="1.5"></path><path d="M1457.86 45.14L1400.97 235.92" stroke="hsl(228.5, 77.2%, 51.5%)" stroke-width="1.5"></path><path d="M1457.86 45.14L1610.52 -100.25" stroke="hsl(228.5, 77.2%, 51.5%)" stroke-width="1.5"></path><path d="M1457.86 45.14L1242.73 100.49" stroke="hsl(228.5, 77.2%, 51.5%)" stroke-width="1.5"></path><path d="M1400.97 235.92L1400.97 235.92" stroke="hsl(228.5, 77.2%, 51.5%)" stroke-width="1.5"></path><path d="M1400.97 235.92L1402.18 375.66" stroke="hsl(228.5, 77.2%, 51.5%)" stroke-width="1.5"></path><path d="M1402.18 375.66L1402.18 375.66" stroke="hsl(228.5, 77.2%, 51.5%)" stroke-width="1.5"></path><path d="M1402.18 375.66L1551.79 389.17" stroke="hsl(228.5, 77.2%, 51.5%)" stroke-width="1.5"></path><path d="M1402.18 375.66L1409.14 530.21" stroke="hsl(228.5, 77.2%, 51.5%)" stroke-width="1.5"></path><path d="M1402.18 375.66L1247.58 511.25" stroke="hsl(228.5, 77.2%, 51.5%)" stroke-width="1.5"></path><path d="M1409.14 530.21L1409.14 530.21" stroke="hsl(228.5, 77.2%, 51.5%)" stroke-width="1.5"></path><path d="M1610.52 -100.25L1610.52 -100.25" stroke="hsl(228.5, 77.2%, 51.5%)" stroke-width="1.5"></path><path d="M1610.52 -100.25L1586.55 109.37" stroke="hsl(228.5, 77.2%, 51.5%)" stroke-width="1.5"></path><path d="M1610.52 -100.25L1602.72 227.77" stroke="hsl(228.5, 77.2%, 51.5%)" stroke-width="1.5"></path><path d="M1586.55 109.37L1586.55 109.37" stroke="hsl(228.5, 77.2%, 51.5%)" stroke-width="1.5"></path><path d="M1586.55 109.37L1400.97 235.92" stroke="hsl(228.5, 77.2%, 51.5%)" stroke-width="1.5"></path><path d="M1586.55 109.37L1427.62 -105.98" stroke="hsl(228.5, 77.2%, 51.5%)" stroke-width="1.5"></path><path d="M1586.55 109.37L1551.79 389.17" stroke="hsl(228.5, 77.2%, 51.5%)" stroke-width="1.5"></path><path d="M1551.79 389.17L1551.79 389.17" stroke="hsl(228.5, 77.2%, 51.5%)" stroke-width="1.5"></path><path d="M1551.79 389.17L1589.59 526.15" stroke="hsl(228.5, 77.2%, 51.5%)" stroke-width="1.5"></path><path d="M1551.79 389.17L1409.14 530.21" stroke="hsl(228.5, 77.2%, 51.5%)" stroke-width="1.5"></path><path d="M1551.79 389.17L1400.97 235.92" stroke="hsl(228.5, 77.2%, 51.5%)" stroke-width="1.5"></path><path d="M1551.79 389.17L1308.76 397.03" stroke="hsl(228.5, 77.2%, 51.5%)" stroke-width="1.5"></path><path d="M1589.59 526.15L1589.59 526.15" stroke="hsl(228.5, 77.2%, 51.5%)" stroke-width="1.5"></path><path d="M1589.59 526.15L1553.7 692.97" stroke="hsl(228.5, 77.2%, 51.5%)" stroke-width="1.5"></path><path d="M1589.59 526.15L1409.14 530.21" stroke="hsl(228.5, 77.2%, 51.5%)" stroke-width="1.5"></path><path d="M1553.7 692.97L1553.7 692.97" stroke="hsl(228.5, 77.2%, 51.5%)" stroke-width="1.5"></path><path d="M1553.7 692.97L1409.14 530.21" stroke="hsl(228.5, 77.2%, 51.5%)" stroke-width="1.5"></path><path d="M1553.7 692.97L1258.38 653.17" stroke="hsl(228.5, 77.2%, 51.5%)" stroke-width="1.5"></path><path d="M1553.7 692.97L1551.79 389.17" stroke="hsl(228.5, 77.2%, 51.5%)" stroke-width="1.5"></path><circle r="25" cx="-69.5" cy="519.46" fill="url(&quot;#SvgjsRadialGradient1038&quot;)"></circle><circle r="25" cx="357.87" cy="494.66" fill="url(&quot;#SvgjsRadialGradient1038&quot;)"></circle><circle r="25" cx="556.79" cy="709.48" fill="url(&quot;#SvgjsRadialGradient1038&quot;)"></circle><circle r="25" cx="680.7" cy="550.12" fill="url(&quot;#SvgjsRadialGradient1038&quot;)"></circle><circle r="25" cx="686.57" cy="688.19" fill="url(&quot;#SvgjsRadialGradient1038&quot;)"></circle><circle r="25" cx="845.7" cy="394.93" fill="url(&quot;#SvgjsRadialGradient1038&quot;)"></circle><circle r="25" cx="806.8" cy="656.7" fill="url(&quot;#SvgjsRadialGradient1038&quot;)"></circle><circle r="25" cx="1258.38" cy="653.17" fill="url(&quot;#SvgjsRadialGradient1038&quot;)"></circle><circle r="25" cx="1442.34" cy="650.87" fill="url(&quot;#SvgjsRadialGradient1038&quot;)"></circle><circle r="25" cx="1602.72" cy="227.77" fill="url(&quot;#SvgjsRadialGradient1038&quot;)"></circle><circle r="5" cx="95.54" cy="550.48" fill="#8b9ad9"></circle><circle r="5" cx="43.49" cy="680.31" fill="#8b9ad9"></circle><circle r="5" cx="261.93" cy="495.32" fill="#8b9ad9"></circle><circle r="5" cx="206.47" cy="700.6" fill="#8b9ad9"></circle><circle r="5" cx="391.9" cy="700.07" fill="#8b9ad9"></circle><circle r="5" cx="492.18" cy="548.87" fill="#8b9ad9"></circle><circle r="5" cx="650.06" cy="404.43" fill="#8b9ad9"></circle><circle r="5" cx="821.35" cy="499.65" fill="#8b9ad9"></circle><circle r="5" cx="966.55" cy="361.11" fill="#8b9ad9"></circle><circle r="5" cx="943.66" cy="686.81" fill="#8b9ad9"></circle><circle r="5" cx="1115.85" cy="226" fill="#8b9ad9"></circle><circle r="5" cx="1150.08" cy="344.35" fill="#8b9ad9"></circle><circle r="5" cx="1143.74" cy="489.32" fill="#8b9ad9"></circle><circle r="5" cx="1147" cy="666.02" fill="#8b9ad9"></circle><circle r="5" cx="1279.58" cy="-93.92" fill="#8b9ad9"></circle><circle r="5" cx="1242.73" cy="100.49" fill="#8b9ad9"></circle><circle r="5" cx="1248.52" cy="201.48" fill="#8b9ad9"></circle><circle r="5" cx="1308.76" cy="397.03" fill="#8b9ad9"></circle><circle r="5" cx="1247.58" cy="511.25" fill="#8b9ad9"></circle><circle r="5" cx="1427.62" cy="-105.98" fill="#8b9ad9"></circle><circle r="5" cx="1457.86" cy="45.14" fill="#8b9ad9"></circle><circle r="5" cx="1400.97" cy="235.92" fill="#8b9ad9"></circle><circle r="5" cx="1402.18" cy="375.66" fill="#8b9ad9"></circle><circle r="5" cx="1409.14" cy="530.21" fill="#8b9ad9"></circle><circle r="5" cx="1610.52" cy="-100.25" fill="#8b9ad9"></circle><circle r="5" cx="1586.55" cy="109.37" fill="#8b9ad9"></circle><circle r="5" cx="1551.79" cy="389.17" fill="#8b9ad9"></circle><circle r="5" cx="1589.59" cy="526.15" fill="#8b9ad9"></circle><circle r="5" cx="1553.7" cy="692.97" fill="#8b9ad9"></circle></g><defs><mask id="SvgjsMask1037"><rect width="1440" height="560" fill="#ffffff"></rect></mask><radialGradient id="SvgjsRadialGradient1038"><stop stop-color="#ffffff" offset="0.1"></stop><stop stop-color="#1735b3" offset="0.2"></stop><stop stop-color="rgba(23, 53, 179, 0)" offset="1"></stop></radialGradient></defs></svg>