<svg xmlns="http://www.w3.org/2000/svg" version="1.1" xmlns:xlink="http://www.w3.org/1999/xlink" xmlns:svgjs="http://svgjs.dev/svgjs" width="1440" height="560" preserveAspectRatio="none" viewBox="0 0 1440 560"><g mask="url(&quot;#SvgjsMask1002&quot;)" fill="none"><path d="M-92.45 371.8L-92.45 371.8" stroke="#132e65" stroke-width="1.5"></path><path d="M-92.45 371.8L45.35 345.63" stroke="#132e65" stroke-width="1.5"></path><path d="M-92.45 371.8L-87.34 550.95" stroke="#132e65" stroke-width="1.5"></path><path d="M-92.45 371.8L71.66 503.45" stroke="#132e65" stroke-width="1.5"></path><path d="M-92.45 371.8L-107.6 655.75" stroke="#132e65" stroke-width="1.5"></path><path d="M-87.34 550.95L-87.34 550.95" stroke="#132e65" stroke-width="1.5"></path><path d="M-87.34 550.95L-107.6 655.75" stroke="#132e65" stroke-width="1.5"></path><path d="M-87.34 550.95L71.66 503.45" stroke="#132e65" stroke-width="1.5"></path><path d="M-107.6 655.75L-107.6 655.75" stroke="#132e65" stroke-width="1.5"></path><path d="M-107.6 655.75L60.74 693.72" stroke="#132e65" stroke-width="1.5"></path><path d="M-107.6 655.75L71.66 503.45" stroke="#132e65" stroke-width="1.5"></path><path d="M45.35 345.63L45.35 345.63" stroke="#132e65" stroke-width="1.5"></path><path d="M45.35 345.63L71.66 503.45" stroke="#132e65" stroke-width="1.5"></path><path d="M45.35 345.63L217.89 404.28" stroke="#132e65" stroke-width="1.5"></path><path d="M45.35 345.63L201.11 508.91" stroke="#132e65" stroke-width="1.5"></path><path d="M45.35 345.63L-87.34 550.95" stroke="#132e65" stroke-width="1.5"></path><path d="M45.35 345.63L346.87 491.67" stroke="#132e65" stroke-width="1.5"></path><path d="M71.66 503.45L71.66 503.45" stroke="#132e65" stroke-width="1.5"></path><path d="M71.66 503.45L201.11 508.91" stroke="#132e65" stroke-width="1.5"></path><path d="M60.74 693.72L60.74 693.72" stroke="#132e65" stroke-width="1.5"></path><path d="M60.74 693.72L187.67 678.56" stroke="#132e65" stroke-width="1.5"></path><path d="M60.74 693.72L71.66 503.45" stroke="#132e65" stroke-width="1.5"></path><path d="M60.74 693.72L-87.34 550.95" stroke="#132e65" stroke-width="1.5"></path><path d="M217.89 404.28L217.89 404.28" stroke="#132e65" stroke-width="1.5"></path><path d="M217.89 404.28L201.11 508.91" stroke="#132e65" stroke-width="1.5"></path><path d="M217.89 404.28L346.87 491.67" stroke="#132e65" stroke-width="1.5"></path><path d="M217.89 404.28L385.9 352.41" stroke="#132e65" stroke-width="1.5"></path><path d="M217.89 404.28L71.66 503.45" stroke="#132e65" stroke-width="1.5"></path><path d="M217.89 404.28L491.77 408.51" stroke="#132e65" stroke-width="1.5"></path><path d="M201.11 508.91L201.11 508.91" stroke="#132e65" stroke-width="1.5"></path><path d="M201.11 508.91L346.87 491.67" stroke="#132e65" stroke-width="1.5"></path><path d="M187.67 678.56L187.67 678.56" stroke="#132e65" stroke-width="1.5"></path><path d="M187.67 678.56L201.11 508.91" stroke="#132e65" stroke-width="1.5"></path><path d="M187.67 678.56L71.66 503.45" stroke="#132e65" stroke-width="1.5"></path><path d="M187.67 678.56L346.87 491.67" stroke="#132e65" stroke-width="1.5"></path><path d="M385.9 352.41L385.9 352.41" stroke="#132e65" stroke-width="1.5"></path><path d="M385.9 352.41L491.77 408.51" stroke="#132e65" stroke-width="1.5"></path><path d="M385.9 352.41L346.87 491.67" stroke="#132e65" stroke-width="1.5"></path><path d="M346.87 491.67L346.87 491.67" stroke="#132e65" stroke-width="1.5"></path><path d="M491.77 408.51L491.77 408.51" stroke="#132e65" stroke-width="1.5"></path><path d="M491.77 408.51L548.21 504.76" stroke="#132e65" stroke-width="1.5"></path><path d="M491.77 408.51L346.87 491.67" stroke="#132e65" stroke-width="1.5"></path><path d="M491.77 408.51L667.87 364.86" stroke="#132e65" stroke-width="1.5"></path><path d="M548.21 504.76L548.21 504.76" stroke="#132e65" stroke-width="1.5"></path><path d="M548.21 504.76L647.91 656.7" stroke="#132e65" stroke-width="1.5"></path><path d="M548.21 504.76L667.87 364.86" stroke="#132e65" stroke-width="1.5"></path><path d="M548.21 504.76L492.81 698.21" stroke="#132e65" stroke-width="1.5"></path><path d="M548.21 504.76L346.87 491.67" stroke="#132e65" stroke-width="1.5"></path><path d="M492.81 698.21L492.81 698.21" stroke="#132e65" stroke-width="1.5"></path><path d="M492.81 698.21L647.91 656.7" stroke="#132e65" stroke-width="1.5"></path><path d="M708.51 225.66L708.51 225.66" stroke="#132e65" stroke-width="1.5"></path><path d="M708.51 225.66L667.87 364.86" stroke="#132e65" stroke-width="1.5"></path><path d="M708.51 225.66L861.52 251.79" stroke="#132e65" stroke-width="1.5"></path><path d="M708.51 225.66L862.34 72.31" stroke="#132e65" stroke-width="1.5"></path><path d="M708.51 225.66L823.17 411.62" stroke="#132e65" stroke-width="1.5"></path><path d="M667.87 364.86L667.87 364.86" stroke="#132e65" stroke-width="1.5"></path><path d="M647.91 656.7L647.91 656.7" stroke="#132e65" stroke-width="1.5"></path><path d="M647.91 656.7L805.15 669.01" stroke="#132e65" stroke-width="1.5"></path><path d="M647.91 656.7L797.51 505.74" stroke="#132e65" stroke-width="1.5"></path><path d="M647.91 656.7L667.87 364.86" stroke="#132e65" stroke-width="1.5"></path><path d="M862.34 72.31L862.34 72.31" stroke="#132e65" stroke-width="1.5"></path><path d="M862.34 72.31L988.93 107.22" stroke="#132e65" stroke-width="1.5"></path><path d="M862.34 72.31L967.63 195.36" stroke="#132e65" stroke-width="1.5"></path><path d="M862.34 72.31L861.52 251.79" stroke="#132e65" stroke-width="1.5"></path><path d="M862.34 72.31L1002.17 -56.7" stroke="#132e65" stroke-width="1.5"></path><path d="M861.52 251.79L861.52 251.79" stroke="#132e65" stroke-width="1.5"></path><path d="M861.52 251.79L967.63 195.36" stroke="#132e65" stroke-width="1.5"></path><path d="M861.52 251.79L823.17 411.62" stroke="#132e65" stroke-width="1.5"></path><path d="M861.52 251.79L988.93 107.22" stroke="#132e65" stroke-width="1.5"></path><path d="M823.17 411.62L823.17 411.62" stroke="#132e65" stroke-width="1.5"></path><path d="M823.17 411.62L797.51 505.74" stroke="#132e65" stroke-width="1.5"></path><path d="M823.17 411.62L667.87 364.86" stroke="#132e65" stroke-width="1.5"></path><path d="M823.17 411.62L805.15 669.01" stroke="#132e65" stroke-width="1.5"></path><path d="M823.17 411.62L967.63 195.36" stroke="#132e65" stroke-width="1.5"></path><path d="M797.51 505.74L797.51 505.74" stroke="#132e65" stroke-width="1.5"></path><path d="M797.51 505.74L805.15 669.01" stroke="#132e65" stroke-width="1.5"></path><path d="M797.51 505.74L667.87 364.86" stroke="#132e65" stroke-width="1.5"></path><path d="M797.51 505.74L548.21 504.76" stroke="#132e65" stroke-width="1.5"></path><path d="M805.15 669.01L805.15 669.01" stroke="#132e65" stroke-width="1.5"></path><path d="M805.15 669.01L548.21 504.76" stroke="#132e65" stroke-width="1.5"></path><path d="M805.15 669.01L492.81 698.21" stroke="#132e65" stroke-width="1.5"></path><path d="M1002.17 -56.7L1002.17 -56.7" stroke="#132e65" stroke-width="1.5"></path><path d="M1002.17 -56.7L1127.84 -89.35" stroke="#132e65" stroke-width="1.5"></path><path d="M1002.17 -56.7L1121.15 43.74" stroke="#132e65" stroke-width="1.5"></path><path d="M1002.17 -56.7L988.93 107.22" stroke="#132e65" stroke-width="1.5"></path><path d="M1002.17 -56.7L967.63 195.36" stroke="#132e65" stroke-width="1.5"></path><path d="M988.93 107.22L988.93 107.22" stroke="#132e65" stroke-width="1.5"></path><path d="M988.93 107.22L967.63 195.36" stroke="#132e65" stroke-width="1.5"></path><path d="M988.93 107.22L1121.15 43.74" stroke="#132e65" stroke-width="1.5"></path><path d="M988.93 107.22L1127.07 225.37" stroke="#132e65" stroke-width="1.5"></path><path d="M967.63 195.36L967.63 195.36" stroke="#132e65" stroke-width="1.5"></path><path d="M967.63 195.36L1127.07 225.37" stroke="#132e65" stroke-width="1.5"></path><path d="M1127.84 -89.35L1127.84 -89.35" stroke="#132e65" stroke-width="1.5"></path><path d="M1127.84 -89.35L1121.15 43.74" stroke="#132e65" stroke-width="1.5"></path><path d="M1127.84 -89.35L1274.66 -47.13" stroke="#132e65" stroke-width="1.5"></path><path d="M1127.84 -89.35L1299.69 37.89" stroke="#132e65" stroke-width="1.5"></path><path d="M1127.84 -89.35L988.93 107.22" stroke="#132e65" stroke-width="1.5"></path><path d="M1127.84 -89.35L1390.17 -79.11" stroke="#132e65" stroke-width="1.5"></path><path d="M1121.15 43.74L1121.15 43.74" stroke="#132e65" stroke-width="1.5"></path><path d="M1127.07 225.37L1127.07 225.37" stroke="#132e65" stroke-width="1.5"></path><path d="M1127.07 225.37L1160.06 367.8" stroke="#132e65" stroke-width="1.5"></path><path d="M1127.07 225.37L1292.11 190.02" stroke="#132e65" stroke-width="1.5"></path><path d="M1127.07 225.37L1121.15 43.74" stroke="#132e65" stroke-width="1.5"></path><path d="M1127.07 225.37L1299.2 410.43" stroke="#132e65" stroke-width="1.5"></path><path d="M1160.06 367.8L1160.06 367.8" stroke="#132e65" stroke-width="1.5"></path><path d="M1160.06 367.8L1133.18 507.97" stroke="#132e65" stroke-width="1.5"></path><path d="M1160.06 367.8L1299.2 410.43" stroke="#132e65" stroke-width="1.5"></path><path d="M1133.18 507.97L1133.18 507.97" stroke="#132e65" stroke-width="1.5"></path><path d="M1133.18 507.97L1248.03 497.4" stroke="#132e65" stroke-width="1.5"></path><path d="M1133.18 507.97L1299.2 410.43" stroke="#132e65" stroke-width="1.5"></path><path d="M1133.18 507.97L1128.31 710.03" stroke="#132e65" stroke-width="1.5"></path><path d="M1133.18 507.97L1273.13 685.98" stroke="#132e65" stroke-width="1.5"></path><path d="M1133.18 507.97L1127.07 225.37" stroke="#132e65" stroke-width="1.5"></path><path d="M1128.31 710.03L1128.31 710.03" stroke="#132e65" stroke-width="1.5"></path><path d="M1128.31 710.03L1273.13 685.98" stroke="#132e65" stroke-width="1.5"></path><path d="M1128.31 710.03L1248.03 497.4" stroke="#132e65" stroke-width="1.5"></path><path d="M1128.31 710.03L1395.41 639.16" stroke="#132e65" stroke-width="1.5"></path><path d="M1274.66 -47.13L1274.66 -47.13" stroke="#132e65" stroke-width="1.5"></path><path d="M1274.66 -47.13L1299.69 37.89" stroke="#132e65" stroke-width="1.5"></path><path d="M1274.66 -47.13L1390.17 -79.11" stroke="#132e65" stroke-width="1.5"></path><path d="M1299.69 37.89L1299.69 37.89" stroke="#132e65" stroke-width="1.5"></path><path d="M1299.69 37.89L1390.17 -79.11" stroke="#132e65" stroke-width="1.5"></path><path d="M1299.69 37.89L1292.11 190.02" stroke="#132e65" stroke-width="1.5"></path><path d="M1299.69 37.89L1462.28 61.24" stroke="#132e65" stroke-width="1.5"></path><path d="M1299.69 37.89L1121.15 43.74" stroke="#132e65" stroke-width="1.5"></path><path d="M1292.11 190.02L1292.11 190.02" stroke="#132e65" stroke-width="1.5"></path><path d="M1292.11 190.02L1388.23 374.28" stroke="#132e65" stroke-width="1.5"></path><path d="M1299.2 410.43L1299.2 410.43" stroke="#132e65" stroke-width="1.5"></path><path d="M1299.2 410.43L1388.23 374.28" stroke="#132e65" stroke-width="1.5"></path><path d="M1299.2 410.43L1248.03 497.4" stroke="#132e65" stroke-width="1.5"></path><path d="M1299.2 410.43L1416.16 517.73" stroke="#132e65" stroke-width="1.5"></path><path d="M1299.2 410.43L1292.11 190.02" stroke="#132e65" stroke-width="1.5"></path><path d="M1248.03 497.4L1248.03 497.4" stroke="#132e65" stroke-width="1.5"></path><path d="M1248.03 497.4L1160.06 367.8" stroke="#132e65" stroke-width="1.5"></path><path d="M1248.03 497.4L1416.16 517.73" stroke="#132e65" stroke-width="1.5"></path><path d="M1248.03 497.4L1388.23 374.28" stroke="#132e65" stroke-width="1.5"></path><path d="M1273.13 685.98L1273.13 685.98" stroke="#132e65" stroke-width="1.5"></path><path d="M1273.13 685.98L1395.41 639.16" stroke="#132e65" stroke-width="1.5"></path><path d="M1390.17 -79.11L1390.17 -79.11" stroke="#132e65" stroke-width="1.5"></path><path d="M1462.28 61.24L1462.28 61.24" stroke="#132e65" stroke-width="1.5"></path><path d="M1462.28 61.24L1563.98 94.67" stroke="#132e65" stroke-width="1.5"></path><path d="M1462.28 61.24L1390.17 -79.11" stroke="#132e65" stroke-width="1.5"></path><path d="M1462.28 61.24L1554.06 -102.92" stroke="#132e65" stroke-width="1.5"></path><path d="M1388.23 374.28L1388.23 374.28" stroke="#132e65" stroke-width="1.5"></path><path d="M1388.23 374.28L1416.16 517.73" stroke="#132e65" stroke-width="1.5"></path><path d="M1388.23 374.28L1563.34 394.59" stroke="#132e65" stroke-width="1.5"></path><path d="M1416.16 517.73L1416.16 517.73" stroke="#132e65" stroke-width="1.5"></path><path d="M1416.16 517.73L1395.41 639.16" stroke="#132e65" stroke-width="1.5"></path><path d="M1416.16 517.73L1586.71 555.58" stroke="#132e65" stroke-width="1.5"></path><path d="M1416.16 517.73L1563.34 394.59" stroke="#132e65" stroke-width="1.5"></path><path d="M1395.41 639.16L1395.41 639.16" stroke="#132e65" stroke-width="1.5"></path><path d="M1395.41 639.16L1573.6 651.44" stroke="#132e65" stroke-width="1.5"></path><path d="M1395.41 639.16L1248.03 497.4" stroke="#132e65" stroke-width="1.5"></path><path d="M1554.06 -102.92L1554.06 -102.92" stroke="#132e65" stroke-width="1.5"></path><path d="M1554.06 -102.92L1390.17 -79.11" stroke="#132e65" stroke-width="1.5"></path><path d="M1554.06 -102.92L1563.98 94.67" stroke="#132e65" stroke-width="1.5"></path><path d="M1554.06 -102.92L1274.66 -47.13" stroke="#132e65" stroke-width="1.5"></path><path d="M1554.06 -102.92L1299.69 37.89" stroke="#132e65" stroke-width="1.5"></path><path d="M1563.98 94.67L1563.98 94.67" stroke="#132e65" stroke-width="1.5"></path><path d="M1563.98 94.67L1611.83 237.36" stroke="#132e65" stroke-width="1.5"></path><path d="M1563.98 94.67L1390.17 -79.11" stroke="#132e65" stroke-width="1.5"></path><path d="M1563.98 94.67L1299.69 37.89" stroke="#132e65" stroke-width="1.5"></path><path d="M1611.83 237.36L1611.83 237.36" stroke="#132e65" stroke-width="1.5"></path><path d="M1611.83 237.36L1563.34 394.59" stroke="#132e65" stroke-width="1.5"></path><path d="M1611.83 237.36L1462.28 61.24" stroke="#132e65" stroke-width="1.5"></path><path d="M1563.34 394.59L1563.34 394.59" stroke="#132e65" stroke-width="1.5"></path><path d="M1563.34 394.59L1586.71 555.58" stroke="#132e65" stroke-width="1.5"></path><path d="M1563.34 394.59L1573.6 651.44" stroke="#132e65" stroke-width="1.5"></path><path d="M1563.34 394.59L1299.2 410.43" stroke="#132e65" stroke-width="1.5"></path><path d="M1586.71 555.58L1586.71 555.58" stroke="#132e65" stroke-width="1.5"></path><path d="M1586.71 555.58L1573.6 651.44" stroke="#132e65" stroke-width="1.5"></path><path d="M1586.71 555.58L1395.41 639.16" stroke="#132e65" stroke-width="1.5"></path><path d="M1586.71 555.58L1388.23 374.28" stroke="#132e65" stroke-width="1.5"></path><path d="M1586.71 555.58L1611.83 237.36" stroke="#132e65" stroke-width="1.5"></path><path d="M1573.6 651.44L1573.6 651.44" stroke="#132e65" stroke-width="1.5"></path><path d="M1573.6 651.44L1416.16 517.73" stroke="#132e65" stroke-width="1.5"></path><circle r="5" cx="-92.45" cy="371.8" fill="#132e65"></circle><circle r="5" cx="-87.34" cy="550.95" fill="#132e65"></circle><circle r="5" cx="-107.6" cy="655.75" fill="#132e65"></circle><circle r="5" cx="45.35" cy="345.63" fill="#132e65"></circle><circle r="5" cx="71.66" cy="503.45" fill="#132e65"></circle><circle r="5" cx="60.74" cy="693.72" fill="#132e65"></circle><circle r="5" cx="217.89" cy="404.28" fill="#132e65"></circle><circle r="5" cx="201.11" cy="508.91" fill="#132e65"></circle><circle r="5" cx="187.67" cy="678.56" fill="#132e65"></circle><circle r="5" cx="385.9" cy="352.41" fill="#132e65"></circle><circle r="5" cx="346.87" cy="491.67" fill="#132e65"></circle><circle r="5" cx="491.77" cy="408.51" fill="#132e65"></circle><circle r="5" cx="548.21" cy="504.76" fill="#132e65"></circle><circle r="5" cx="492.81" cy="698.21" fill="#132e65"></circle><circle r="5" cx="708.51" cy="225.66" fill="#132e65"></circle><circle r="5" cx="667.87" cy="364.86" fill="#132e65"></circle><circle r="5" cx="647.91" cy="656.7" fill="#132e65"></circle><circle r="5" cx="862.34" cy="72.31" fill="#132e65"></circle><circle r="5" cx="861.52" cy="251.79" fill="#132e65"></circle><circle r="5" cx="823.17" cy="411.62" fill="#132e65"></circle><circle r="5" cx="797.51" cy="505.74" fill="#132e65"></circle><circle r="5" cx="805.15" cy="669.01" fill="#132e65"></circle><circle r="5" cx="1002.17" cy="-56.7" fill="#132e65"></circle><circle r="5" cx="988.93" cy="107.22" fill="#132e65"></circle><circle r="5" cx="967.63" cy="195.36" fill="#132e65"></circle><circle r="5" cx="1127.84" cy="-89.35" fill="#132e65"></circle><circle r="5" cx="1121.15" cy="43.74" fill="#132e65"></circle><circle r="5" cx="1127.07" cy="225.37" fill="#132e65"></circle><circle r="5" cx="1160.06" cy="367.8" fill="#132e65"></circle><circle r="5" cx="1133.18" cy="507.97" fill="#132e65"></circle><circle r="5" cx="1128.31" cy="710.03" fill="#132e65"></circle><circle r="5" cx="1274.66" cy="-47.13" fill="#132e65"></circle><circle r="5" cx="1299.69" cy="37.89" fill="#132e65"></circle><circle r="5" cx="1292.11" cy="190.02" fill="#132e65"></circle><circle r="5" cx="1299.2" cy="410.43" fill="#132e65"></circle><circle r="5" cx="1248.03" cy="497.4" fill="#132e65"></circle><circle r="5" cx="1273.13" cy="685.98" fill="#132e65"></circle><circle r="5" cx="1390.17" cy="-79.11" fill="#132e65"></circle><circle r="5" cx="1462.28" cy="61.24" fill="#132e65"></circle><circle r="5" cx="1388.23" cy="374.28" fill="#132e65"></circle><circle r="5" cx="1416.16" cy="517.73" fill="#132e65"></circle><circle r="5" cx="1395.41" cy="639.16" fill="#132e65"></circle><circle r="5" cx="1554.06" cy="-102.92" fill="#132e65"></circle><circle r="5" cx="1563.98" cy="94.67" fill="#132e65"></circle><circle r="5" cx="1611.83" cy="237.36" fill="#132e65"></circle><circle r="5" cx="1563.34" cy="394.59" fill="#132e65"></circle><circle r="5" cx="1586.71" cy="555.58" fill="#132e65"></circle><circle r="5" cx="1573.6" cy="651.44" fill="#132e65"></circle><path d="M380.18 697.67L380.18 697.67" stroke="hsl(228.5, 77.2%, 51.5%)" stroke-width="1.5"></path><path d="M380.18 697.67L378.8 549.47" stroke="hsl(228.5, 77.2%, 51.5%)" stroke-width="1.5"></path><path d="M380.18 697.67L559.27 696.65" stroke="hsl(228.5, 77.2%, 51.5%)" stroke-width="1.5"></path><path d="M380.18 697.67L192.87 662.57" stroke="hsl(228.5, 77.2%, 51.5%)" stroke-width="1.5"></path><path d="M380.18 697.67L259.9 535.28" stroke="hsl(228.5, 77.2%, 51.5%)" stroke-width="1.5"></path><path d="M559.27 696.65L559.27 696.65" stroke="hsl(228.5, 77.2%, 51.5%)" stroke-width="1.5"></path><path d="M559.27 696.65L491.38 503.85" stroke="hsl(228.5, 77.2%, 51.5%)" stroke-width="1.5"></path><path d="M559.27 696.65L378.8 549.47" stroke="hsl(228.5, 77.2%, 51.5%)" stroke-width="1.5"></path><path d="M1299.26 71.2L1299.26 71.2" stroke="hsl(228.5, 77.2%, 51.5%)" stroke-width="1.5"></path><path d="M1299.26 71.2L1266.43 -50.28" stroke="hsl(228.5, 77.2%, 51.5%)" stroke-width="1.5"></path><path d="M1299.26 71.2L1309.43 202.76" stroke="hsl(228.5, 77.2%, 51.5%)" stroke-width="1.5"></path><path d="M1299.26 71.2L1462.41 49.53" stroke="hsl(228.5, 77.2%, 51.5%)" stroke-width="1.5"></path><path d="M1270.69 404L1270.69 404" stroke="hsl(228.5, 77.2%, 51.5%)" stroke-width="1.5"></path><path d="M1270.69 404L1391.09 348.8" stroke="hsl(228.5, 77.2%, 51.5%)" stroke-width="1.5"></path><path d="M1270.69 404L1389.46 542.42" stroke="hsl(228.5, 77.2%, 51.5%)" stroke-width="1.5"></path><path d="M1270.69 404L1117.18 517.79" stroke="hsl(228.5, 77.2%, 51.5%)" stroke-width="1.5"></path><path d="M1411.2 234.19L1411.2 234.19" stroke="hsl(228.5, 77.2%, 51.5%)" stroke-width="1.5"></path><path d="M1411.2 234.19L1309.43 202.76" stroke="hsl(228.5, 77.2%, 51.5%)" stroke-width="1.5"></path><path d="M1411.2 234.19L1391.09 348.8" stroke="hsl(228.5, 77.2%, 51.5%)" stroke-width="1.5"></path><path d="M1411.2 234.19L1579.73 258.69" stroke="hsl(228.5, 77.2%, 51.5%)" stroke-width="1.5"></path><path d="M1411.2 234.19L1462.41 49.53" stroke="hsl(228.5, 77.2%, 51.5%)" stroke-width="1.5"></path><path d="M1411.2 234.19L1553.48 368.4" stroke="hsl(228.5, 77.2%, 51.5%)" stroke-width="1.5"></path><path d="M1411.2 234.19L1299.26 71.2" stroke="hsl(228.5, 77.2%, 51.5%)" stroke-width="1.5"></path><path d="M1584.37 112.03L1584.37 112.03" stroke="hsl(228.5, 77.2%, 51.5%)" stroke-width="1.5"></path><path d="M1584.37 112.03L1462.41 49.53" stroke="hsl(228.5, 77.2%, 51.5%)" stroke-width="1.5"></path><path d="M1584.37 112.03L1579.73 258.69" stroke="hsl(228.5, 77.2%, 51.5%)" stroke-width="1.5"></path><path d="M-91.05 532.45L-91.05 532.45" stroke="hsl(228.5, 77.2%, 51.5%)" stroke-width="1.5"></path><path d="M-91.05 532.45L-107.84 643.45" stroke="hsl(228.5, 77.2%, 51.5%)" stroke-width="1.5"></path><path d="M-91.05 532.45L99.01 514.92" stroke="hsl(228.5, 77.2%, 51.5%)" stroke-width="1.5"></path><path d="M-91.05 532.45L55.74 707.9" stroke="hsl(228.5, 77.2%, 51.5%)" stroke-width="1.5"></path><path d="M-91.05 532.45L192.87 662.57" stroke="hsl(228.5, 77.2%, 51.5%)" stroke-width="1.5"></path><path d="M-107.84 643.45L-107.84 643.45" stroke="hsl(228.5, 77.2%, 51.5%)" stroke-width="1.5"></path><path d="M-107.84 643.45L55.74 707.9" stroke="hsl(228.5, 77.2%, 51.5%)" stroke-width="1.5"></path><path d="M-107.84 643.45L99.01 514.92" stroke="hsl(228.5, 77.2%, 51.5%)" stroke-width="1.5"></path><path d="M99.01 514.92L99.01 514.92" stroke="hsl(228.5, 77.2%, 51.5%)" stroke-width="1.5"></path><path d="M99.01 514.92L259.9 535.28" stroke="hsl(228.5, 77.2%, 51.5%)" stroke-width="1.5"></path><path d="M99.01 514.92L192.87 662.57" stroke="hsl(228.5, 77.2%, 51.5%)" stroke-width="1.5"></path><path d="M55.74 707.9L55.74 707.9" stroke="hsl(228.5, 77.2%, 51.5%)" stroke-width="1.5"></path><path d="M55.74 707.9L192.87 662.57" stroke="hsl(228.5, 77.2%, 51.5%)" stroke-width="1.5"></path><path d="M55.74 707.9L99.01 514.92" stroke="hsl(228.5, 77.2%, 51.5%)" stroke-width="1.5"></path><path d="M55.74 707.9L259.9 535.28" stroke="hsl(228.5, 77.2%, 51.5%)" stroke-width="1.5"></path><path d="M55.74 707.9L380.18 697.67" stroke="hsl(228.5, 77.2%, 51.5%)" stroke-width="1.5"></path><path d="M259.9 535.28L259.9 535.28" stroke="hsl(228.5, 77.2%, 51.5%)" stroke-width="1.5"></path><path d="M259.9 535.28L378.8 549.47" stroke="hsl(228.5, 77.2%, 51.5%)" stroke-width="1.5"></path><path d="M259.9 535.28L192.87 662.57" stroke="hsl(228.5, 77.2%, 51.5%)" stroke-width="1.5"></path><path d="M259.9 535.28L491.38 503.85" stroke="hsl(228.5, 77.2%, 51.5%)" stroke-width="1.5"></path><path d="M192.87 662.57L192.87 662.57" stroke="hsl(228.5, 77.2%, 51.5%)" stroke-width="1.5"></path><path d="M378.8 549.47L378.8 549.47" stroke="hsl(228.5, 77.2%, 51.5%)" stroke-width="1.5"></path><path d="M378.8 549.47L491.38 503.85" stroke="hsl(228.5, 77.2%, 51.5%)" stroke-width="1.5"></path><path d="M378.8 549.47L192.87 662.57" stroke="hsl(228.5, 77.2%, 51.5%)" stroke-width="1.5"></path><path d="M378.8 549.47L99.01 514.92" stroke="hsl(228.5, 77.2%, 51.5%)" stroke-width="1.5"></path><path d="M491.38 503.85L491.38 503.85" stroke="hsl(228.5, 77.2%, 51.5%)" stroke-width="1.5"></path><path d="M491.38 503.85L380.18 697.67" stroke="hsl(228.5, 77.2%, 51.5%)" stroke-width="1.5"></path><path d="M491.38 503.85L680.22 370.79" stroke="hsl(228.5, 77.2%, 51.5%)" stroke-width="1.5"></path><path d="M680.22 370.79L680.22 370.79" stroke="hsl(228.5, 77.2%, 51.5%)" stroke-width="1.5"></path><path d="M680.22 370.79L814.57 398.89" stroke="hsl(228.5, 77.2%, 51.5%)" stroke-width="1.5"></path><path d="M680.22 370.79L828.88 535.99" stroke="hsl(228.5, 77.2%, 51.5%)" stroke-width="1.5"></path><path d="M680.22 370.79L990.84 372.37" stroke="hsl(228.5, 77.2%, 51.5%)" stroke-width="1.5"></path><path d="M680.22 370.79L983.17 502.02" stroke="hsl(228.5, 77.2%, 51.5%)" stroke-width="1.5"></path><path d="M814.57 398.89L814.57 398.89" stroke="hsl(228.5, 77.2%, 51.5%)" stroke-width="1.5"></path><path d="M814.57 398.89L828.88 535.99" stroke="hsl(228.5, 77.2%, 51.5%)" stroke-width="1.5"></path><path d="M828.88 535.99L828.88 535.99" stroke="hsl(228.5, 77.2%, 51.5%)" stroke-width="1.5"></path><path d="M828.88 535.99L983.17 502.02" stroke="hsl(228.5, 77.2%, 51.5%)" stroke-width="1.5"></path><path d="M828.88 535.99L815.16 706.43" stroke="hsl(228.5, 77.2%, 51.5%)" stroke-width="1.5"></path><path d="M815.16 706.43L815.16 706.43" stroke="hsl(228.5, 77.2%, 51.5%)" stroke-width="1.5"></path><path d="M815.16 706.43L970.89 700.98" stroke="hsl(228.5, 77.2%, 51.5%)" stroke-width="1.5"></path><path d="M990.84 372.37L990.84 372.37" stroke="hsl(228.5, 77.2%, 51.5%)" stroke-width="1.5"></path><path d="M990.84 372.37L983.17 502.02" stroke="hsl(228.5, 77.2%, 51.5%)" stroke-width="1.5"></path><path d="M990.84 372.37L1120.76 253.91" stroke="hsl(228.5, 77.2%, 51.5%)" stroke-width="1.5"></path><path d="M990.84 372.37L814.57 398.89" stroke="hsl(228.5, 77.2%, 51.5%)" stroke-width="1.5"></path><path d="M983.17 502.02L983.17 502.02" stroke="hsl(228.5, 77.2%, 51.5%)" stroke-width="1.5"></path><path d="M983.17 502.02L1117.18 517.79" stroke="hsl(228.5, 77.2%, 51.5%)" stroke-width="1.5"></path><path d="M970.89 700.98L970.89 700.98" stroke="hsl(228.5, 77.2%, 51.5%)" stroke-width="1.5"></path><path d="M970.89 700.98L1141.51 647.86" stroke="hsl(228.5, 77.2%, 51.5%)" stroke-width="1.5"></path><path d="M970.89 700.98L983.17 502.02" stroke="hsl(228.5, 77.2%, 51.5%)" stroke-width="1.5"></path><path d="M970.89 700.98L828.88 535.99" stroke="hsl(228.5, 77.2%, 51.5%)" stroke-width="1.5"></path><path d="M970.89 700.98L1117.18 517.79" stroke="hsl(228.5, 77.2%, 51.5%)" stroke-width="1.5"></path><path d="M970.89 700.98L1269.55 639.31" stroke="hsl(228.5, 77.2%, 51.5%)" stroke-width="1.5"></path><path d="M1120.76 253.91L1120.76 253.91" stroke="hsl(228.5, 77.2%, 51.5%)" stroke-width="1.5"></path><path d="M1120.76 253.91L1309.43 202.76" stroke="hsl(228.5, 77.2%, 51.5%)" stroke-width="1.5"></path><path d="M1117.18 517.79L1117.18 517.79" stroke="hsl(228.5, 77.2%, 51.5%)" stroke-width="1.5"></path><path d="M1117.18 517.79L1141.51 647.86" stroke="hsl(228.5, 77.2%, 51.5%)" stroke-width="1.5"></path><path d="M1141.51 647.86L1141.51 647.86" stroke="hsl(228.5, 77.2%, 51.5%)" stroke-width="1.5"></path><path d="M1141.51 647.86L1269.55 639.31" stroke="hsl(228.5, 77.2%, 51.5%)" stroke-width="1.5"></path><path d="M1266.43 -50.28L1266.43 -50.28" stroke="hsl(228.5, 77.2%, 51.5%)" stroke-width="1.5"></path><path d="M1266.43 -50.28L1453.9 -94.62" stroke="hsl(228.5, 77.2%, 51.5%)" stroke-width="1.5"></path><path d="M1266.43 -50.28L1462.41 49.53" stroke="hsl(228.5, 77.2%, 51.5%)" stroke-width="1.5"></path><path d="M1266.43 -50.28L1309.43 202.76" stroke="hsl(228.5, 77.2%, 51.5%)" stroke-width="1.5"></path><path d="M1266.43 -50.28L1411.2 234.19" stroke="hsl(228.5, 77.2%, 51.5%)" stroke-width="1.5"></path><path d="M1266.43 -50.28L1120.76 253.91" stroke="hsl(228.5, 77.2%, 51.5%)" stroke-width="1.5"></path><path d="M1309.43 202.76L1309.43 202.76" stroke="hsl(228.5, 77.2%, 51.5%)" stroke-width="1.5"></path><path d="M1309.43 202.76L1391.09 348.8" stroke="hsl(228.5, 77.2%, 51.5%)" stroke-width="1.5"></path><path d="M1269.55 639.31L1269.55 639.31" stroke="hsl(228.5, 77.2%, 51.5%)" stroke-width="1.5"></path><path d="M1269.55 639.31L1415.82 680.59" stroke="hsl(228.5, 77.2%, 51.5%)" stroke-width="1.5"></path><path d="M1269.55 639.31L1389.46 542.42" stroke="hsl(228.5, 77.2%, 51.5%)" stroke-width="1.5"></path><path d="M1269.55 639.31L1117.18 517.79" stroke="hsl(228.5, 77.2%, 51.5%)" stroke-width="1.5"></path><path d="M1269.55 639.31L1270.69 404" stroke="hsl(228.5, 77.2%, 51.5%)" stroke-width="1.5"></path><path d="M1453.9 -94.62L1453.9 -94.62" stroke="hsl(228.5, 77.2%, 51.5%)" stroke-width="1.5"></path><path d="M1453.9 -94.62L1462.41 49.53" stroke="hsl(228.5, 77.2%, 51.5%)" stroke-width="1.5"></path><path d="M1453.9 -94.62L1602.13 -99.85" stroke="hsl(228.5, 77.2%, 51.5%)" stroke-width="1.5"></path><path d="M1453.9 -94.62L1299.26 71.2" stroke="hsl(228.5, 77.2%, 51.5%)" stroke-width="1.5"></path><path d="M1453.9 -94.62L1584.37 112.03" stroke="hsl(228.5, 77.2%, 51.5%)" stroke-width="1.5"></path><path d="M1462.41 49.53L1462.41 49.53" stroke="hsl(228.5, 77.2%, 51.5%)" stroke-width="1.5"></path><path d="M1462.41 49.53L1602.13 -99.85" stroke="hsl(228.5, 77.2%, 51.5%)" stroke-width="1.5"></path><path d="M1391.09 348.8L1391.09 348.8" stroke="hsl(228.5, 77.2%, 51.5%)" stroke-width="1.5"></path><path d="M1389.46 542.42L1389.46 542.42" stroke="hsl(228.5, 77.2%, 51.5%)" stroke-width="1.5"></path><path d="M1389.46 542.42L1415.82 680.59" stroke="hsl(228.5, 77.2%, 51.5%)" stroke-width="1.5"></path><path d="M1415.82 680.59L1415.82 680.59" stroke="hsl(228.5, 77.2%, 51.5%)" stroke-width="1.5"></path><path d="M1602.13 -99.85L1602.13 -99.85" stroke="hsl(228.5, 77.2%, 51.5%)" stroke-width="1.5"></path><path d="M1602.13 -99.85L1584.37 112.03" stroke="hsl(228.5, 77.2%, 51.5%)" stroke-width="1.5"></path><path d="M1602.13 -99.85L1266.43 -50.28" stroke="hsl(228.5, 77.2%, 51.5%)" stroke-width="1.5"></path><path d="M1602.13 -99.85L1299.26 71.2" stroke="hsl(228.5, 77.2%, 51.5%)" stroke-width="1.5"></path><path d="M1579.73 258.69L1579.73 258.69" stroke="hsl(228.5, 77.2%, 51.5%)" stroke-width="1.5"></path><path d="M1579.73 258.69L1553.48 368.4" stroke="hsl(228.5, 77.2%, 51.5%)" stroke-width="1.5"></path><path d="M1553.48 368.4L1553.48 368.4" stroke="hsl(228.5, 77.2%, 51.5%)" stroke-width="1.5"></path><path d="M1553.48 368.4L1391.09 348.8" stroke="hsl(228.5, 77.2%, 51.5%)" stroke-width="1.5"></path><path d="M1553.48 368.4L1559.65 533.15" stroke="hsl(228.5, 77.2%, 51.5%)" stroke-width="1.5"></path><path d="M1553.48 368.4L1389.46 542.42" stroke="hsl(228.5, 77.2%, 51.5%)" stroke-width="1.5"></path><path d="M1553.48 368.4L1584.37 112.03" stroke="hsl(228.5, 77.2%, 51.5%)" stroke-width="1.5"></path><path d="M1559.65 533.15L1559.65 533.15" stroke="hsl(228.5, 77.2%, 51.5%)" stroke-width="1.5"></path><circle r="25" cx="380.18" cy="697.67" fill="url(&quot;#SvgjsRadialGradient1003&quot;)"></circle><circle r="25" cx="559.27" cy="696.65" fill="url(&quot;#SvgjsRadialGradient1003&quot;)"></circle><circle r="25" cx="1299.26" cy="71.2" fill="url(&quot;#SvgjsRadialGradient1003&quot;)"></circle><circle r="25" cx="1270.69" cy="404" fill="url(&quot;#SvgjsRadialGradient1003&quot;)"></circle><circle r="25" cx="1411.2" cy="234.19" fill="url(&quot;#SvgjsRadialGradient1003&quot;)"></circle><circle r="25" cx="1584.37" cy="112.03" fill="url(&quot;#SvgjsRadialGradient1003&quot;)"></circle><circle r="5" cx="-91.05" cy="532.45" fill="#8b9ad9"></circle><circle r="5" cx="-107.84" cy="643.45" fill="#8b9ad9"></circle><circle r="5" cx="99.01" cy="514.92" fill="#8b9ad9"></circle><circle r="5" cx="55.74" cy="707.9" fill="#8b9ad9"></circle><circle r="5" cx="259.9" cy="535.28" fill="#8b9ad9"></circle><circle r="5" cx="192.87" cy="662.57" fill="#8b9ad9"></circle><circle r="5" cx="378.8" cy="549.47" fill="#8b9ad9"></circle><circle r="5" cx="491.38" cy="503.85" fill="#8b9ad9"></circle><circle r="5" cx="680.22" cy="370.79" fill="#8b9ad9"></circle><circle r="5" cx="814.57" cy="398.89" fill="#8b9ad9"></circle><circle r="5" cx="828.88" cy="535.99" fill="#8b9ad9"></circle><circle r="5" cx="815.16" cy="706.43" fill="#8b9ad9"></circle><circle r="5" cx="990.84" cy="372.37" fill="#8b9ad9"></circle><circle r="5" cx="983.17" cy="502.02" fill="#8b9ad9"></circle><circle r="5" cx="970.89" cy="700.98" fill="#8b9ad9"></circle><circle r="5" cx="1120.76" cy="253.91" fill="#8b9ad9"></circle><circle r="5" cx="1117.18" cy="517.79" fill="#8b9ad9"></circle><circle r="5" cx="1141.51" cy="647.86" fill="#8b9ad9"></circle><circle r="5" cx="1266.43" cy="-50.28" fill="#8b9ad9"></circle><circle r="5" cx="1309.43" cy="202.76" fill="#8b9ad9"></circle><circle r="5" cx="1269.55" cy="639.31" fill="#8b9ad9"></circle><circle r="5" cx="1453.9" cy="-94.62" fill="#8b9ad9"></circle><circle r="5" cx="1462.41" cy="49.53" fill="#8b9ad9"></circle><circle r="5" cx="1391.09" cy="348.8" fill="#8b9ad9"></circle><circle r="5" cx="1389.46" cy="542.42" fill="#8b9ad9"></circle><circle r="5" cx="1415.82" cy="680.59" fill="#8b9ad9"></circle><circle r="5" cx="1602.13" cy="-99.85" fill="#8b9ad9"></circle><circle r="5" cx="1579.73" cy="258.69" fill="#8b9ad9"></circle><circle r="5" cx="1553.48" cy="368.4" fill="#8b9ad9"></circle><circle r="5" cx="1559.65" cy="533.15" fill="#8b9ad9"></circle></g><defs><mask id="SvgjsMask1002"><rect width="1440" height="560" fill="#ffffff"></rect></mask><radialGradient id="SvgjsRadialGradient1003"><stop stop-color="#ffffff" offset="0.1"></stop><stop stop-color="#1735b3" offset="0.2"></stop><stop stop-color="rgba(23, 53, 179, 0)" offset="1"></stop></radialGradient></defs></svg>