<svg xmlns="http://www.w3.org/2000/svg" version="1.1" xmlns:xlink="http://www.w3.org/1999/xlink" xmlns:svgjs="http://svgjs.dev/svgjs" width="1440" height="560" preserveAspectRatio="none" viewBox="0 0 1440 560"><g mask="url(&quot;#SvgjsMask1045&quot;)" fill="none"><path d="M-79.8 411.31L-79.8 411.31" stroke="#132e65" stroke-width="1.5"></path><path d="M-79.8 411.31L-83.52 526.6" stroke="#132e65" stroke-width="1.5"></path><path d="M-79.8 411.31L60.69 508.91" stroke="#132e65" stroke-width="1.5"></path><path d="M-79.8 411.31L197.27 348.56" stroke="#132e65" stroke-width="1.5"></path><path d="M-79.8 411.31L-101.74 704.66" stroke="#132e65" stroke-width="1.5"></path><path d="M-83.52 526.6L-83.52 526.6" stroke="#132e65" stroke-width="1.5"></path><path d="M-83.52 526.6L60.69 508.91" stroke="#132e65" stroke-width="1.5"></path><path d="M-83.52 526.6L-101.74 704.66" stroke="#132e65" stroke-width="1.5"></path><path d="M-83.52 526.6L197.27 348.56" stroke="#132e65" stroke-width="1.5"></path><path d="M-83.52 526.6L213.35 682.28" stroke="#132e65" stroke-width="1.5"></path><path d="M-83.52 526.6L358.93 518.98" stroke="#132e65" stroke-width="1.5"></path><path d="M-101.74 704.66L-101.74 704.66" stroke="#132e65" stroke-width="1.5"></path><path d="M-101.74 704.66L60.69 508.91" stroke="#132e65" stroke-width="1.5"></path><path d="M-101.74 704.66L213.35 682.28" stroke="#132e65" stroke-width="1.5"></path><path d="M60.69 508.91L60.69 508.91" stroke="#132e65" stroke-width="1.5"></path><path d="M60.69 508.91L197.27 348.56" stroke="#132e65" stroke-width="1.5"></path><path d="M60.69 508.91L213.35 682.28" stroke="#132e65" stroke-width="1.5"></path><path d="M197.27 348.56L197.27 348.56" stroke="#132e65" stroke-width="1.5"></path><path d="M197.27 348.56L340.09 360.97" stroke="#132e65" stroke-width="1.5"></path><path d="M197.27 348.56L358.93 518.98" stroke="#132e65" stroke-width="1.5"></path><path d="M213.35 682.28L213.35 682.28" stroke="#132e65" stroke-width="1.5"></path><path d="M213.35 682.28L380.18 676.56" stroke="#132e65" stroke-width="1.5"></path><path d="M213.35 682.28L358.93 518.98" stroke="#132e65" stroke-width="1.5"></path><path d="M213.35 682.28L512.91 641.28" stroke="#132e65" stroke-width="1.5"></path><path d="M340.09 360.97L340.09 360.97" stroke="#132e65" stroke-width="1.5"></path><path d="M340.09 360.97L358.93 518.98" stroke="#132e65" stroke-width="1.5"></path><path d="M340.09 360.97L562.45 370.81" stroke="#132e65" stroke-width="1.5"></path><path d="M340.09 360.97L505.17 511.77" stroke="#132e65" stroke-width="1.5"></path><path d="M340.09 360.97L60.69 508.91" stroke="#132e65" stroke-width="1.5"></path><path d="M340.09 360.97L380.18 676.56" stroke="#132e65" stroke-width="1.5"></path><path d="M358.93 518.98L358.93 518.98" stroke="#132e65" stroke-width="1.5"></path><path d="M358.93 518.98L505.17 511.77" stroke="#132e65" stroke-width="1.5"></path><path d="M358.93 518.98L380.18 676.56" stroke="#132e65" stroke-width="1.5"></path><path d="M358.93 518.98L512.91 641.28" stroke="#132e65" stroke-width="1.5"></path><path d="M380.18 676.56L380.18 676.56" stroke="#132e65" stroke-width="1.5"></path><path d="M380.18 676.56L512.91 641.28" stroke="#132e65" stroke-width="1.5"></path><path d="M380.18 676.56L505.17 511.77" stroke="#132e65" stroke-width="1.5"></path><path d="M380.18 676.56L644.36 515.74" stroke="#132e65" stroke-width="1.5"></path><path d="M562.45 370.81L562.45 370.81" stroke="#132e65" stroke-width="1.5"></path><path d="M562.45 370.81L679.47 345.05" stroke="#132e65" stroke-width="1.5"></path><path d="M562.45 370.81L505.17 511.77" stroke="#132e65" stroke-width="1.5"></path><path d="M562.45 370.81L644.36 515.74" stroke="#132e65" stroke-width="1.5"></path><path d="M562.45 370.81L701.02 202.3" stroke="#132e65" stroke-width="1.5"></path><path d="M505.17 511.77L505.17 511.77" stroke="#132e65" stroke-width="1.5"></path><path d="M505.17 511.77L512.91 641.28" stroke="#132e65" stroke-width="1.5"></path><path d="M505.17 511.77L644.36 515.74" stroke="#132e65" stroke-width="1.5"></path><path d="M512.91 641.28L512.91 641.28" stroke="#132e65" stroke-width="1.5"></path><path d="M512.91 641.28L644.36 515.74" stroke="#132e65" stroke-width="1.5"></path><path d="M512.91 641.28L701.79 638.56" stroke="#132e65" stroke-width="1.5"></path><path d="M512.91 641.28L562.45 370.81" stroke="#132e65" stroke-width="1.5"></path><path d="M701.02 202.3L701.02 202.3" stroke="#132e65" stroke-width="1.5"></path><path d="M701.02 202.3L828.75 215.5" stroke="#132e65" stroke-width="1.5"></path><path d="M701.02 202.3L679.47 345.05" stroke="#132e65" stroke-width="1.5"></path><path d="M701.02 202.3L855.02 406.09" stroke="#132e65" stroke-width="1.5"></path><path d="M701.02 202.3L967.75 238.79" stroke="#132e65" stroke-width="1.5"></path><path d="M679.47 345.05L679.47 345.05" stroke="#132e65" stroke-width="1.5"></path><path d="M679.47 345.05L644.36 515.74" stroke="#132e65" stroke-width="1.5"></path><path d="M644.36 515.74L644.36 515.74" stroke="#132e65" stroke-width="1.5"></path><path d="M644.36 515.74L701.79 638.56" stroke="#132e65" stroke-width="1.5"></path><path d="M644.36 515.74L809.84 557.93" stroke="#132e65" stroke-width="1.5"></path><path d="M701.79 638.56L701.79 638.56" stroke="#132e65" stroke-width="1.5"></path><path d="M701.79 638.56L809.84 557.93" stroke="#132e65" stroke-width="1.5"></path><path d="M701.79 638.56L848.04 665.67" stroke="#132e65" stroke-width="1.5"></path><path d="M828.75 215.5L828.75 215.5" stroke="#132e65" stroke-width="1.5"></path><path d="M828.75 215.5L967.75 238.79" stroke="#132e65" stroke-width="1.5"></path><path d="M828.75 215.5L855.02 406.09" stroke="#132e65" stroke-width="1.5"></path><path d="M828.75 215.5L679.47 345.05" stroke="#132e65" stroke-width="1.5"></path><path d="M828.75 215.5L978.99 371.57" stroke="#132e65" stroke-width="1.5"></path><path d="M828.75 215.5L1010.85 86.78" stroke="#132e65" stroke-width="1.5"></path><path d="M855.02 406.09L855.02 406.09" stroke="#132e65" stroke-width="1.5"></path><path d="M855.02 406.09L978.99 371.57" stroke="#132e65" stroke-width="1.5"></path><path d="M855.02 406.09L809.84 557.93" stroke="#132e65" stroke-width="1.5"></path><path d="M855.02 406.09L679.47 345.05" stroke="#132e65" stroke-width="1.5"></path><path d="M809.84 557.93L809.84 557.93" stroke="#132e65" stroke-width="1.5"></path><path d="M809.84 557.93L848.04 665.67" stroke="#132e65" stroke-width="1.5"></path><path d="M809.84 557.93L983.75 557.61" stroke="#132e65" stroke-width="1.5"></path><path d="M848.04 665.67L848.04 665.67" stroke="#132e65" stroke-width="1.5"></path><path d="M848.04 665.67L971 687.06" stroke="#132e65" stroke-width="1.5"></path><path d="M961.2 -64.24L961.2 -64.24" stroke="#132e65" stroke-width="1.5"></path><path d="M961.2 -64.24L1098.53 -78.88" stroke="#132e65" stroke-width="1.5"></path><path d="M961.2 -64.24L1010.85 86.78" stroke="#132e65" stroke-width="1.5"></path><path d="M961.2 -64.24L1144.48 65.24" stroke="#132e65" stroke-width="1.5"></path><path d="M1010.85 86.78L1010.85 86.78" stroke="#132e65" stroke-width="1.5"></path><path d="M1010.85 86.78L1144.48 65.24" stroke="#132e65" stroke-width="1.5"></path><path d="M1010.85 86.78L967.75 238.79" stroke="#132e65" stroke-width="1.5"></path><path d="M967.75 238.79L967.75 238.79" stroke="#132e65" stroke-width="1.5"></path><path d="M967.75 238.79L978.99 371.57" stroke="#132e65" stroke-width="1.5"></path><path d="M978.99 371.57L978.99 371.57" stroke="#132e65" stroke-width="1.5"></path><path d="M978.99 371.57L1103.55 389.86" stroke="#132e65" stroke-width="1.5"></path><path d="M983.75 557.61L983.75 557.61" stroke="#132e65" stroke-width="1.5"></path><path d="M983.75 557.61L971 687.06" stroke="#132e65" stroke-width="1.5"></path><path d="M983.75 557.61L1101.81 488.26" stroke="#132e65" stroke-width="1.5"></path><path d="M983.75 557.61L848.04 665.67" stroke="#132e65" stroke-width="1.5"></path><path d="M971 687.06L971 687.06" stroke="#132e65" stroke-width="1.5"></path><path d="M971 687.06L1089.48 699.21" stroke="#132e65" stroke-width="1.5"></path><path d="M971 687.06L809.84 557.93" stroke="#132e65" stroke-width="1.5"></path><path d="M971 687.06L1101.81 488.26" stroke="#132e65" stroke-width="1.5"></path><path d="M971 687.06L701.79 638.56" stroke="#132e65" stroke-width="1.5"></path><path d="M1098.53 -78.88L1098.53 -78.88" stroke="#132e65" stroke-width="1.5"></path><path d="M1098.53 -78.88L1144.48 65.24" stroke="#132e65" stroke-width="1.5"></path><path d="M1098.53 -78.88L1010.85 86.78" stroke="#132e65" stroke-width="1.5"></path><path d="M1144.48 65.24L1144.48 65.24" stroke="#132e65" stroke-width="1.5"></path><path d="M1144.48 65.24L1159.97 193.06" stroke="#132e65" stroke-width="1.5"></path><path d="M1159.97 193.06L1159.97 193.06" stroke="#132e65" stroke-width="1.5"></path><path d="M1159.97 193.06L1241.24 227.29" stroke="#132e65" stroke-width="1.5"></path><path d="M1159.97 193.06L1010.85 86.78" stroke="#132e65" stroke-width="1.5"></path><path d="M1103.55 389.86L1103.55 389.86" stroke="#132e65" stroke-width="1.5"></path><path d="M1103.55 389.86L1101.81 488.26" stroke="#132e65" stroke-width="1.5"></path><path d="M1103.55 389.86L967.75 238.79" stroke="#132e65" stroke-width="1.5"></path><path d="M1103.55 389.86L1159.97 193.06" stroke="#132e65" stroke-width="1.5"></path><path d="M1101.81 488.26L1101.81 488.26" stroke="#132e65" stroke-width="1.5"></path><path d="M1101.81 488.26L978.99 371.57" stroke="#132e65" stroke-width="1.5"></path><path d="M1089.48 699.21L1089.48 699.21" stroke="#132e65" stroke-width="1.5"></path><path d="M1089.48 699.21L983.75 557.61" stroke="#132e65" stroke-width="1.5"></path><path d="M1089.48 699.21L1268.82 637.61" stroke="#132e65" stroke-width="1.5"></path><path d="M1286.33 -49.99L1286.33 -49.99" stroke="#132e65" stroke-width="1.5"></path><path d="M1286.33 -49.99L1400.71 -49.7" stroke="#132e65" stroke-width="1.5"></path><path d="M1286.33 -49.99L1144.48 65.24" stroke="#132e65" stroke-width="1.5"></path><path d="M1286.33 -49.99L1098.53 -78.88" stroke="#132e65" stroke-width="1.5"></path><path d="M1286.33 -49.99L1429.86 86.26" stroke="#132e65" stroke-width="1.5"></path><path d="M1241.24 227.29L1241.24 227.29" stroke="#132e65" stroke-width="1.5"></path><path d="M1241.24 227.29L1415.88 214.64" stroke="#132e65" stroke-width="1.5"></path><path d="M1241.24 227.29L1144.48 65.24" stroke="#132e65" stroke-width="1.5"></path><path d="M1241.24 227.29L1103.55 389.86" stroke="#132e65" stroke-width="1.5"></path><path d="M1241.24 227.29L1440.41 338.36" stroke="#132e65" stroke-width="1.5"></path><path d="M1268.82 637.61L1268.82 637.61" stroke="#132e65" stroke-width="1.5"></path><path d="M1268.82 637.61L1433.38 638.48" stroke="#132e65" stroke-width="1.5"></path><path d="M1400.71 -49.7L1400.71 -49.7" stroke="#132e65" stroke-width="1.5"></path><path d="M1400.71 -49.7L1429.86 86.26" stroke="#132e65" stroke-width="1.5"></path><path d="M1400.71 -49.7L1593.62 -87.09" stroke="#132e65" stroke-width="1.5"></path><path d="M1400.71 -49.7L1415.88 214.64" stroke="#132e65" stroke-width="1.5"></path><path d="M1400.71 -49.7L1144.48 65.24" stroke="#132e65" stroke-width="1.5"></path><path d="M1400.71 -49.7L1098.53 -78.88" stroke="#132e65" stroke-width="1.5"></path><path d="M1429.86 86.26L1429.86 86.26" stroke="#132e65" stroke-width="1.5"></path><path d="M1429.86 86.26L1415.88 214.64" stroke="#132e65" stroke-width="1.5"></path><path d="M1429.86 86.26L1586.82 196.35" stroke="#132e65" stroke-width="1.5"></path><path d="M1429.86 86.26L1241.24 227.29" stroke="#132e65" stroke-width="1.5"></path><path d="M1429.86 86.26L1593.62 -87.09" stroke="#132e65" stroke-width="1.5"></path><path d="M1415.88 214.64L1415.88 214.64" stroke="#132e65" stroke-width="1.5"></path><path d="M1415.88 214.64L1440.41 338.36" stroke="#132e65" stroke-width="1.5"></path><path d="M1415.88 214.64L1586.82 196.35" stroke="#132e65" stroke-width="1.5"></path><path d="M1415.88 214.64L1159.97 193.06" stroke="#132e65" stroke-width="1.5"></path><path d="M1440.41 338.36L1440.41 338.36" stroke="#132e65" stroke-width="1.5"></path><path d="M1440.41 338.36L1441.87 508.89" stroke="#132e65" stroke-width="1.5"></path><path d="M1440.41 338.36L1586.82 196.35" stroke="#132e65" stroke-width="1.5"></path><path d="M1440.41 338.36L1429.86 86.26" stroke="#132e65" stroke-width="1.5"></path><path d="M1440.41 338.36L1602.09 561.63" stroke="#132e65" stroke-width="1.5"></path><path d="M1441.87 508.89L1441.87 508.89" stroke="#132e65" stroke-width="1.5"></path><path d="M1441.87 508.89L1433.38 638.48" stroke="#132e65" stroke-width="1.5"></path><path d="M1441.87 508.89L1602.09 561.63" stroke="#132e65" stroke-width="1.5"></path><path d="M1441.87 508.89L1582.67 662.71" stroke="#132e65" stroke-width="1.5"></path><path d="M1433.38 638.48L1433.38 638.48" stroke="#132e65" stroke-width="1.5"></path><path d="M1433.38 638.48L1582.67 662.71" stroke="#132e65" stroke-width="1.5"></path><path d="M1593.62 -87.09L1593.62 -87.09" stroke="#132e65" stroke-width="1.5"></path><path d="M1593.62 -87.09L1586.82 196.35" stroke="#132e65" stroke-width="1.5"></path><path d="M1593.62 -87.09L1286.33 -49.99" stroke="#132e65" stroke-width="1.5"></path><path d="M1593.62 -87.09L1415.88 214.64" stroke="#132e65" stroke-width="1.5"></path><path d="M1593.62 -87.09L1440.41 338.36" stroke="#132e65" stroke-width="1.5"></path><path d="M1586.82 196.35L1586.82 196.35" stroke="#132e65" stroke-width="1.5"></path><path d="M1586.82 196.35L1400.71 -49.7" stroke="#132e65" stroke-width="1.5"></path><path d="M1602.09 561.63L1602.09 561.63" stroke="#132e65" stroke-width="1.5"></path><path d="M1602.09 561.63L1582.67 662.71" stroke="#132e65" stroke-width="1.5"></path><path d="M1602.09 561.63L1433.38 638.48" stroke="#132e65" stroke-width="1.5"></path><path d="M1602.09 561.63L1268.82 637.61" stroke="#132e65" stroke-width="1.5"></path><path d="M1602.09 561.63L1586.82 196.35" stroke="#132e65" stroke-width="1.5"></path><path d="M1582.67 662.71L1582.67 662.71" stroke="#132e65" stroke-width="1.5"></path><path d="M1582.67 662.71L1268.82 637.61" stroke="#132e65" stroke-width="1.5"></path><path d="M1582.67 662.71L1440.41 338.36" stroke="#132e65" stroke-width="1.5"></path><circle r="5" cx="-79.8" cy="411.31" fill="#132e65"></circle><circle r="5" cx="-83.52" cy="526.6" fill="#132e65"></circle><circle r="5" cx="-101.74" cy="704.66" fill="#132e65"></circle><circle r="5" cx="60.69" cy="508.91" fill="#132e65"></circle><circle r="5" cx="197.27" cy="348.56" fill="#132e65"></circle><circle r="5" cx="213.35" cy="682.28" fill="#132e65"></circle><circle r="5" cx="340.09" cy="360.97" fill="#132e65"></circle><circle r="5" cx="358.93" cy="518.98" fill="#132e65"></circle><circle r="5" cx="380.18" cy="676.56" fill="#132e65"></circle><circle r="5" cx="562.45" cy="370.81" fill="#132e65"></circle><circle r="5" cx="505.17" cy="511.77" fill="#132e65"></circle><circle r="5" cx="512.91" cy="641.28" fill="#132e65"></circle><circle r="5" cx="701.02" cy="202.3" fill="#132e65"></circle><circle r="5" cx="679.47" cy="345.05" fill="#132e65"></circle><circle r="5" cx="644.36" cy="515.74" fill="#132e65"></circle><circle r="5" cx="701.79" cy="638.56" fill="#132e65"></circle><circle r="5" cx="828.75" cy="215.5" fill="#132e65"></circle><circle r="5" cx="855.02" cy="406.09" fill="#132e65"></circle><circle r="5" cx="809.84" cy="557.93" fill="#132e65"></circle><circle r="5" cx="848.04" cy="665.67" fill="#132e65"></circle><circle r="5" cx="961.2" cy="-64.24" fill="#132e65"></circle><circle r="5" cx="1010.85" cy="86.78" fill="#132e65"></circle><circle r="5" cx="967.75" cy="238.79" fill="#132e65"></circle><circle r="5" cx="978.99" cy="371.57" fill="#132e65"></circle><circle r="5" cx="983.75" cy="557.61" fill="#132e65"></circle><circle r="5" cx="971" cy="687.06" fill="#132e65"></circle><circle r="5" cx="1098.53" cy="-78.88" fill="#132e65"></circle><circle r="5" cx="1144.48" cy="65.24" fill="#132e65"></circle><circle r="5" cx="1159.97" cy="193.06" fill="#132e65"></circle><circle r="5" cx="1103.55" cy="389.86" fill="#132e65"></circle><circle r="5" cx="1101.81" cy="488.26" fill="#132e65"></circle><circle r="5" cx="1089.48" cy="699.21" fill="#132e65"></circle><circle r="5" cx="1286.33" cy="-49.99" fill="#132e65"></circle><circle r="5" cx="1241.24" cy="227.29" fill="#132e65"></circle><circle r="5" cx="1268.82" cy="637.61" fill="#132e65"></circle><circle r="5" cx="1400.71" cy="-49.7" fill="#132e65"></circle><circle r="5" cx="1429.86" cy="86.26" fill="#132e65"></circle><circle r="5" cx="1415.88" cy="214.64" fill="#132e65"></circle><circle r="5" cx="1440.41" cy="338.36" fill="#132e65"></circle><circle r="5" cx="1441.87" cy="508.89" fill="#132e65"></circle><circle r="5" cx="1433.38" cy="638.48" fill="#132e65"></circle><circle r="5" cx="1593.62" cy="-87.09" fill="#132e65"></circle><circle r="5" cx="1586.82" cy="196.35" fill="#132e65"></circle><circle r="5" cx="1602.09" cy="561.63" fill="#132e65"></circle><circle r="5" cx="1582.67" cy="662.71" fill="#132e65"></circle><path d="M-96.53 675.71L-96.53 675.71" stroke="hsl(228.5, 77.2%, 51.5%)" stroke-width="1.5"></path><path d="M-96.53 675.71L-46.77 525.1" stroke="hsl(228.5, 77.2%, 51.5%)" stroke-width="1.5"></path><path d="M-96.53 675.71L92.57 684.74" stroke="hsl(228.5, 77.2%, 51.5%)" stroke-width="1.5"></path><path d="M-96.53 675.71L79.33 548.32" stroke="hsl(228.5, 77.2%, 51.5%)" stroke-width="1.5"></path><path d="M-96.53 675.71L213.09 536.05" stroke="hsl(228.5, 77.2%, 51.5%)" stroke-width="1.5"></path><path d="M79.33 548.32L79.33 548.32" stroke="hsl(228.5, 77.2%, 51.5%)" stroke-width="1.5"></path><path d="M79.33 548.32L-46.77 525.1" stroke="hsl(228.5, 77.2%, 51.5%)" stroke-width="1.5"></path><path d="M79.33 548.32L213.09 536.05" stroke="hsl(228.5, 77.2%, 51.5%)" stroke-width="1.5"></path><path d="M79.33 548.32L92.57 684.74" stroke="hsl(228.5, 77.2%, 51.5%)" stroke-width="1.5"></path><path d="M370.76 705.98L370.76 705.98" stroke="hsl(228.5, 77.2%, 51.5%)" stroke-width="1.5"></path><path d="M370.76 705.98L251.99 684.91" stroke="hsl(228.5, 77.2%, 51.5%)" stroke-width="1.5"></path><path d="M370.76 705.98L498.59 645.8" stroke="hsl(228.5, 77.2%, 51.5%)" stroke-width="1.5"></path><path d="M370.76 705.98L399.84 498.09" stroke="hsl(228.5, 77.2%, 51.5%)" stroke-width="1.5"></path><path d="M370.76 705.98L502.84 525.53" stroke="hsl(228.5, 77.2%, 51.5%)" stroke-width="1.5"></path><path d="M1244.26 98.42L1244.26 98.42" stroke="hsl(228.5, 77.2%, 51.5%)" stroke-width="1.5"></path><path d="M1244.26 98.42L1259.77 224.09" stroke="hsl(228.5, 77.2%, 51.5%)" stroke-width="1.5"></path><path d="M1244.26 98.42L1152.24 261.29" stroke="hsl(228.5, 77.2%, 51.5%)" stroke-width="1.5"></path><path d="M1244.26 98.42L1418.54 190.98" stroke="hsl(228.5, 77.2%, 51.5%)" stroke-width="1.5"></path><path d="M1244.26 98.42L1310.36 -91.65" stroke="hsl(228.5, 77.2%, 51.5%)" stroke-width="1.5"></path><path d="M1244.26 98.42L1458.09 109.09" stroke="hsl(228.5, 77.2%, 51.5%)" stroke-width="1.5"></path><path d="M1244.26 98.42L1284.75 346.9" stroke="hsl(228.5, 77.2%, 51.5%)" stroke-width="1.5"></path><path d="M1458.09 109.09L1458.09 109.09" stroke="hsl(228.5, 77.2%, 51.5%)" stroke-width="1.5"></path><path d="M1458.09 109.09L1418.54 190.98" stroke="hsl(228.5, 77.2%, 51.5%)" stroke-width="1.5"></path><path d="M1458.09 109.09L1568.09 93.13" stroke="hsl(228.5, 77.2%, 51.5%)" stroke-width="1.5"></path><path d="M1458.09 109.09L1564.43 256.33" stroke="hsl(228.5, 77.2%, 51.5%)" stroke-width="1.5"></path><path d="M-46.77 525.1L-46.77 525.1" stroke="hsl(228.5, 77.2%, 51.5%)" stroke-width="1.5"></path><path d="M92.57 684.74L92.57 684.74" stroke="hsl(228.5, 77.2%, 51.5%)" stroke-width="1.5"></path><path d="M92.57 684.74L251.99 684.91" stroke="hsl(228.5, 77.2%, 51.5%)" stroke-width="1.5"></path><path d="M92.57 684.74L213.09 536.05" stroke="hsl(228.5, 77.2%, 51.5%)" stroke-width="1.5"></path><path d="M213.09 536.05L213.09 536.05" stroke="hsl(228.5, 77.2%, 51.5%)" stroke-width="1.5"></path><path d="M213.09 536.05L251.99 684.91" stroke="hsl(228.5, 77.2%, 51.5%)" stroke-width="1.5"></path><path d="M213.09 536.05L399.84 498.09" stroke="hsl(228.5, 77.2%, 51.5%)" stroke-width="1.5"></path><path d="M251.99 684.91L251.99 684.91" stroke="hsl(228.5, 77.2%, 51.5%)" stroke-width="1.5"></path><path d="M399.84 498.09L399.84 498.09" stroke="hsl(228.5, 77.2%, 51.5%)" stroke-width="1.5"></path><path d="M399.84 498.09L502.84 525.53" stroke="hsl(228.5, 77.2%, 51.5%)" stroke-width="1.5"></path><path d="M399.84 498.09L532.2 407.23" stroke="hsl(228.5, 77.2%, 51.5%)" stroke-width="1.5"></path><path d="M532.2 407.23L532.2 407.23" stroke="hsl(228.5, 77.2%, 51.5%)" stroke-width="1.5"></path><path d="M532.2 407.23L502.84 525.53" stroke="hsl(228.5, 77.2%, 51.5%)" stroke-width="1.5"></path><path d="M502.84 525.53L502.84 525.53" stroke="hsl(228.5, 77.2%, 51.5%)" stroke-width="1.5"></path><path d="M502.84 525.53L498.59 645.8" stroke="hsl(228.5, 77.2%, 51.5%)" stroke-width="1.5"></path><path d="M502.84 525.53L679.98 538.87" stroke="hsl(228.5, 77.2%, 51.5%)" stroke-width="1.5"></path><path d="M498.59 645.8L498.59 645.8" stroke="hsl(228.5, 77.2%, 51.5%)" stroke-width="1.5"></path><path d="M711.96 360.52L711.96 360.52" stroke="hsl(228.5, 77.2%, 51.5%)" stroke-width="1.5"></path><path d="M711.96 360.52L803.21 397.71" stroke="hsl(228.5, 77.2%, 51.5%)" stroke-width="1.5"></path><path d="M711.96 360.52L679.98 538.87" stroke="hsl(228.5, 77.2%, 51.5%)" stroke-width="1.5"></path><path d="M711.96 360.52L532.2 407.23" stroke="hsl(228.5, 77.2%, 51.5%)" stroke-width="1.5"></path><path d="M711.96 360.52L841.43 506.33" stroke="hsl(228.5, 77.2%, 51.5%)" stroke-width="1.5"></path><path d="M679.98 538.87L679.98 538.87" stroke="hsl(228.5, 77.2%, 51.5%)" stroke-width="1.5"></path><path d="M679.98 538.87L638.28 652.23" stroke="hsl(228.5, 77.2%, 51.5%)" stroke-width="1.5"></path><path d="M679.98 538.87L841.43 506.33" stroke="hsl(228.5, 77.2%, 51.5%)" stroke-width="1.5"></path><path d="M638.28 652.23L638.28 652.23" stroke="hsl(228.5, 77.2%, 51.5%)" stroke-width="1.5"></path><path d="M638.28 652.23L498.59 645.8" stroke="hsl(228.5, 77.2%, 51.5%)" stroke-width="1.5"></path><path d="M803.21 397.71L803.21 397.71" stroke="hsl(228.5, 77.2%, 51.5%)" stroke-width="1.5"></path><path d="M803.21 397.71L841.43 506.33" stroke="hsl(228.5, 77.2%, 51.5%)" stroke-width="1.5"></path><path d="M841.43 506.33L841.43 506.33" stroke="hsl(228.5, 77.2%, 51.5%)" stroke-width="1.5"></path><path d="M841.43 506.33L989.14 555.47" stroke="hsl(228.5, 77.2%, 51.5%)" stroke-width="1.5"></path><path d="M856.21 702.56L856.21 702.56" stroke="hsl(228.5, 77.2%, 51.5%)" stroke-width="1.5"></path><path d="M856.21 702.56L937.91 695.07" stroke="hsl(228.5, 77.2%, 51.5%)" stroke-width="1.5"></path><path d="M856.21 702.56L841.43 506.33" stroke="hsl(228.5, 77.2%, 51.5%)" stroke-width="1.5"></path><path d="M971.56 403.96L971.56 403.96" stroke="hsl(228.5, 77.2%, 51.5%)" stroke-width="1.5"></path><path d="M971.56 403.96L989.14 555.47" stroke="hsl(228.5, 77.2%, 51.5%)" stroke-width="1.5"></path><path d="M971.56 403.96L841.43 506.33" stroke="hsl(228.5, 77.2%, 51.5%)" stroke-width="1.5"></path><path d="M971.56 403.96L803.21 397.71" stroke="hsl(228.5, 77.2%, 51.5%)" stroke-width="1.5"></path><path d="M971.56 403.96L1145.05 360.85" stroke="hsl(228.5, 77.2%, 51.5%)" stroke-width="1.5"></path><path d="M971.56 403.96L1161.79 532.51" stroke="hsl(228.5, 77.2%, 51.5%)" stroke-width="1.5"></path><path d="M971.56 403.96L1152.24 261.29" stroke="hsl(228.5, 77.2%, 51.5%)" stroke-width="1.5"></path><path d="M989.14 555.47L989.14 555.47" stroke="hsl(228.5, 77.2%, 51.5%)" stroke-width="1.5"></path><path d="M989.14 555.47L937.91 695.07" stroke="hsl(228.5, 77.2%, 51.5%)" stroke-width="1.5"></path><path d="M937.91 695.07L937.91 695.07" stroke="hsl(228.5, 77.2%, 51.5%)" stroke-width="1.5"></path><path d="M1152.24 261.29L1152.24 261.29" stroke="hsl(228.5, 77.2%, 51.5%)" stroke-width="1.5"></path><path d="M1152.24 261.29L1145.05 360.85" stroke="hsl(228.5, 77.2%, 51.5%)" stroke-width="1.5"></path><path d="M1152.24 261.29L1259.77 224.09" stroke="hsl(228.5, 77.2%, 51.5%)" stroke-width="1.5"></path><path d="M1152.24 261.29L1284.75 346.9" stroke="hsl(228.5, 77.2%, 51.5%)" stroke-width="1.5"></path><path d="M1145.05 360.85L1145.05 360.85" stroke="hsl(228.5, 77.2%, 51.5%)" stroke-width="1.5"></path><path d="M1145.05 360.85L1284.75 346.9" stroke="hsl(228.5, 77.2%, 51.5%)" stroke-width="1.5"></path><path d="M1145.05 360.85L1161.79 532.51" stroke="hsl(228.5, 77.2%, 51.5%)" stroke-width="1.5"></path><path d="M1145.05 360.85L1259.77 224.09" stroke="hsl(228.5, 77.2%, 51.5%)" stroke-width="1.5"></path><path d="M1145.05 360.85L1307.44 547.28" stroke="hsl(228.5, 77.2%, 51.5%)" stroke-width="1.5"></path><path d="M1161.79 532.51L1161.79 532.51" stroke="hsl(228.5, 77.2%, 51.5%)" stroke-width="1.5"></path><path d="M1161.79 532.51L1307.44 547.28" stroke="hsl(228.5, 77.2%, 51.5%)" stroke-width="1.5"></path><path d="M1161.79 532.51L1089.3 681.81" stroke="hsl(228.5, 77.2%, 51.5%)" stroke-width="1.5"></path><path d="M1161.79 532.51L989.14 555.47" stroke="hsl(228.5, 77.2%, 51.5%)" stroke-width="1.5"></path><path d="M1161.79 532.51L1295.97 645.32" stroke="hsl(228.5, 77.2%, 51.5%)" stroke-width="1.5"></path><path d="M1089.3 681.81L1089.3 681.81" stroke="hsl(228.5, 77.2%, 51.5%)" stroke-width="1.5"></path><path d="M1089.3 681.81L937.91 695.07" stroke="hsl(228.5, 77.2%, 51.5%)" stroke-width="1.5"></path><path d="M1089.3 681.81L989.14 555.47" stroke="hsl(228.5, 77.2%, 51.5%)" stroke-width="1.5"></path><path d="M1089.3 681.81L1295.97 645.32" stroke="hsl(228.5, 77.2%, 51.5%)" stroke-width="1.5"></path><path d="M1310.36 -91.65L1310.36 -91.65" stroke="hsl(228.5, 77.2%, 51.5%)" stroke-width="1.5"></path><path d="M1310.36 -91.65L1457.21 -89.14" stroke="hsl(228.5, 77.2%, 51.5%)" stroke-width="1.5"></path><path d="M1310.36 -91.65L1458.09 109.09" stroke="hsl(228.5, 77.2%, 51.5%)" stroke-width="1.5"></path><path d="M1310.36 -91.65L1573.89 -110.78" stroke="hsl(228.5, 77.2%, 51.5%)" stroke-width="1.5"></path><path d="M1259.77 224.09L1259.77 224.09" stroke="hsl(228.5, 77.2%, 51.5%)" stroke-width="1.5"></path><path d="M1259.77 224.09L1284.75 346.9" stroke="hsl(228.5, 77.2%, 51.5%)" stroke-width="1.5"></path><path d="M1259.77 224.09L1418.54 190.98" stroke="hsl(228.5, 77.2%, 51.5%)" stroke-width="1.5"></path><path d="M1284.75 346.9L1284.75 346.9" stroke="hsl(228.5, 77.2%, 51.5%)" stroke-width="1.5"></path><path d="M1284.75 346.9L1416.7 395.37" stroke="hsl(228.5, 77.2%, 51.5%)" stroke-width="1.5"></path><path d="M1284.75 346.9L1307.44 547.28" stroke="hsl(228.5, 77.2%, 51.5%)" stroke-width="1.5"></path><path d="M1307.44 547.28L1307.44 547.28" stroke="hsl(228.5, 77.2%, 51.5%)" stroke-width="1.5"></path><path d="M1307.44 547.28L1295.97 645.32" stroke="hsl(228.5, 77.2%, 51.5%)" stroke-width="1.5"></path><path d="M1307.44 547.28L1440.83 545.89" stroke="hsl(228.5, 77.2%, 51.5%)" stroke-width="1.5"></path><path d="M1307.44 547.28L1430.22 654.22" stroke="hsl(228.5, 77.2%, 51.5%)" stroke-width="1.5"></path><path d="M1307.44 547.28L1416.7 395.37" stroke="hsl(228.5, 77.2%, 51.5%)" stroke-width="1.5"></path><path d="M1295.97 645.32L1295.97 645.32" stroke="hsl(228.5, 77.2%, 51.5%)" stroke-width="1.5"></path><path d="M1295.97 645.32L1430.22 654.22" stroke="hsl(228.5, 77.2%, 51.5%)" stroke-width="1.5"></path><path d="M1295.97 645.32L1440.83 545.89" stroke="hsl(228.5, 77.2%, 51.5%)" stroke-width="1.5"></path><path d="M1457.21 -89.14L1457.21 -89.14" stroke="hsl(228.5, 77.2%, 51.5%)" stroke-width="1.5"></path><path d="M1457.21 -89.14L1573.89 -110.78" stroke="hsl(228.5, 77.2%, 51.5%)" stroke-width="1.5"></path><path d="M1418.54 190.98L1418.54 190.98" stroke="hsl(228.5, 77.2%, 51.5%)" stroke-width="1.5"></path><path d="M1418.54 190.98L1564.43 256.33" stroke="hsl(228.5, 77.2%, 51.5%)" stroke-width="1.5"></path><path d="M1418.54 190.98L1568.09 93.13" stroke="hsl(228.5, 77.2%, 51.5%)" stroke-width="1.5"></path><path d="M1416.7 395.37L1416.7 395.37" stroke="hsl(228.5, 77.2%, 51.5%)" stroke-width="1.5"></path><path d="M1416.7 395.37L1440.83 545.89" stroke="hsl(228.5, 77.2%, 51.5%)" stroke-width="1.5"></path><path d="M1416.7 395.37L1583.95 384.11" stroke="hsl(228.5, 77.2%, 51.5%)" stroke-width="1.5"></path><path d="M1440.83 545.89L1440.83 545.89" stroke="hsl(228.5, 77.2%, 51.5%)" stroke-width="1.5"></path><path d="M1440.83 545.89L1430.22 654.22" stroke="hsl(228.5, 77.2%, 51.5%)" stroke-width="1.5"></path><path d="M1440.83 545.89L1600.47 545.34" stroke="hsl(228.5, 77.2%, 51.5%)" stroke-width="1.5"></path><path d="M1440.83 545.89L1569.59 667.54" stroke="hsl(228.5, 77.2%, 51.5%)" stroke-width="1.5"></path><path d="M1430.22 654.22L1430.22 654.22" stroke="hsl(228.5, 77.2%, 51.5%)" stroke-width="1.5"></path><path d="M1430.22 654.22L1569.59 667.54" stroke="hsl(228.5, 77.2%, 51.5%)" stroke-width="1.5"></path><path d="M1573.89 -110.78L1573.89 -110.78" stroke="hsl(228.5, 77.2%, 51.5%)" stroke-width="1.5"></path><path d="M1573.89 -110.78L1568.09 93.13" stroke="hsl(228.5, 77.2%, 51.5%)" stroke-width="1.5"></path><path d="M1573.89 -110.78L1458.09 109.09" stroke="hsl(228.5, 77.2%, 51.5%)" stroke-width="1.5"></path><path d="M1568.09 93.13L1568.09 93.13" stroke="hsl(228.5, 77.2%, 51.5%)" stroke-width="1.5"></path><path d="M1568.09 93.13L1564.43 256.33" stroke="hsl(228.5, 77.2%, 51.5%)" stroke-width="1.5"></path><path d="M1568.09 93.13L1457.21 -89.14" stroke="hsl(228.5, 77.2%, 51.5%)" stroke-width="1.5"></path><path d="M1564.43 256.33L1564.43 256.33" stroke="hsl(228.5, 77.2%, 51.5%)" stroke-width="1.5"></path><path d="M1564.43 256.33L1583.95 384.11" stroke="hsl(228.5, 77.2%, 51.5%)" stroke-width="1.5"></path><path d="M1564.43 256.33L1416.7 395.37" stroke="hsl(228.5, 77.2%, 51.5%)" stroke-width="1.5"></path><path d="M1583.95 384.11L1583.95 384.11" stroke="hsl(228.5, 77.2%, 51.5%)" stroke-width="1.5"></path><path d="M1583.95 384.11L1600.47 545.34" stroke="hsl(228.5, 77.2%, 51.5%)" stroke-width="1.5"></path><path d="M1583.95 384.11L1440.83 545.89" stroke="hsl(228.5, 77.2%, 51.5%)" stroke-width="1.5"></path><path d="M1600.47 545.34L1600.47 545.34" stroke="hsl(228.5, 77.2%, 51.5%)" stroke-width="1.5"></path><path d="M1600.47 545.34L1569.59 667.54" stroke="hsl(228.5, 77.2%, 51.5%)" stroke-width="1.5"></path><path d="M1600.47 545.34L1430.22 654.22" stroke="hsl(228.5, 77.2%, 51.5%)" stroke-width="1.5"></path><path d="M1600.47 545.34L1416.7 395.37" stroke="hsl(228.5, 77.2%, 51.5%)" stroke-width="1.5"></path><path d="M1569.59 667.54L1569.59 667.54" stroke="hsl(228.5, 77.2%, 51.5%)" stroke-width="1.5"></path><circle r="25" cx="-96.53" cy="675.71" fill="url(&quot;#SvgjsRadialGradient1046&quot;)"></circle><circle r="25" cx="79.33" cy="548.32" fill="url(&quot;#SvgjsRadialGradient1046&quot;)"></circle><circle r="25" cx="370.76" cy="705.98" fill="url(&quot;#SvgjsRadialGradient1046&quot;)"></circle><circle r="25" cx="1244.26" cy="98.42" fill="url(&quot;#SvgjsRadialGradient1046&quot;)"></circle><circle r="25" cx="1458.09" cy="109.09" fill="url(&quot;#SvgjsRadialGradient1046&quot;)"></circle><circle r="5" cx="-46.77" cy="525.1" fill="#8b9ad9"></circle><circle r="5" cx="92.57" cy="684.74" fill="#8b9ad9"></circle><circle r="5" cx="213.09" cy="536.05" fill="#8b9ad9"></circle><circle r="5" cx="251.99" cy="684.91" fill="#8b9ad9"></circle><circle r="5" cx="399.84" cy="498.09" fill="#8b9ad9"></circle><circle r="5" cx="532.2" cy="407.23" fill="#8b9ad9"></circle><circle r="5" cx="502.84" cy="525.53" fill="#8b9ad9"></circle><circle r="5" cx="498.59" cy="645.8" fill="#8b9ad9"></circle><circle r="5" cx="711.96" cy="360.52" fill="#8b9ad9"></circle><circle r="5" cx="679.98" cy="538.87" fill="#8b9ad9"></circle><circle r="5" cx="638.28" cy="652.23" fill="#8b9ad9"></circle><circle r="5" cx="803.21" cy="397.71" fill="#8b9ad9"></circle><circle r="5" cx="841.43" cy="506.33" fill="#8b9ad9"></circle><circle r="5" cx="856.21" cy="702.56" fill="#8b9ad9"></circle><circle r="5" cx="971.56" cy="403.96" fill="#8b9ad9"></circle><circle r="5" cx="989.14" cy="555.47" fill="#8b9ad9"></circle><circle r="5" cx="937.91" cy="695.07" fill="#8b9ad9"></circle><circle r="5" cx="1152.24" cy="261.29" fill="#8b9ad9"></circle><circle r="5" cx="1145.05" cy="360.85" fill="#8b9ad9"></circle><circle r="5" cx="1161.79" cy="532.51" fill="#8b9ad9"></circle><circle r="5" cx="1089.3" cy="681.81" fill="#8b9ad9"></circle><circle r="5" cx="1310.36" cy="-91.65" fill="#8b9ad9"></circle><circle r="5" cx="1259.77" cy="224.09" fill="#8b9ad9"></circle><circle r="5" cx="1284.75" cy="346.9" fill="#8b9ad9"></circle><circle r="5" cx="1307.44" cy="547.28" fill="#8b9ad9"></circle><circle r="5" cx="1295.97" cy="645.32" fill="#8b9ad9"></circle><circle r="5" cx="1457.21" cy="-89.14" fill="#8b9ad9"></circle><circle r="5" cx="1418.54" cy="190.98" fill="#8b9ad9"></circle><circle r="5" cx="1416.7" cy="395.37" fill="#8b9ad9"></circle><circle r="5" cx="1440.83" cy="545.89" fill="#8b9ad9"></circle><circle r="5" cx="1430.22" cy="654.22" fill="#8b9ad9"></circle><circle r="5" cx="1573.89" cy="-110.78" fill="#8b9ad9"></circle><circle r="5" cx="1568.09" cy="93.13" fill="#8b9ad9"></circle><circle r="5" cx="1564.43" cy="256.33" fill="#8b9ad9"></circle><circle r="5" cx="1583.95" cy="384.11" fill="#8b9ad9"></circle><circle r="5" cx="1600.47" cy="545.34" fill="#8b9ad9"></circle><circle r="5" cx="1569.59" cy="667.54" fill="#8b9ad9"></circle></g><defs><mask id="SvgjsMask1045"><rect width="1440" height="560" fill="#ffffff"></rect></mask><radialGradient id="SvgjsRadialGradient1046"><stop stop-color="#ffffff" offset="0.1"></stop><stop stop-color="#1735b3" offset="0.2"></stop><stop stop-color="rgba(23, 53, 179, 0)" offset="1"></stop></radialGradient></defs></svg>