<svg xmlns="http://www.w3.org/2000/svg" version="1.1" xmlns:xlink="http://www.w3.org/1999/xlink" xmlns:svgjs="http://svgjs.dev/svgjs" width="1440" height="560" preserveAspectRatio="none" viewBox="0 0 1440 560"><g mask="url(&quot;#SvgjsMask1002&quot;)" fill="none"><path d="M-66.29 556.35L-66.29 556.35" stroke="#132e65" stroke-width="1.5"></path><path d="M-66.29 556.35L-99.34 663.01" stroke="#132e65" stroke-width="1.5"></path><path d="M-66.29 556.35L65.51 510.22" stroke="#132e65" stroke-width="1.5"></path><path d="M-66.29 556.35L61.38 399.51" stroke="#132e65" stroke-width="1.5"></path><path d="M-66.29 556.35L188.07 506.3" stroke="#132e65" stroke-width="1.5"></path><path d="M-99.34 663.01L-99.34 663.01" stroke="#132e65" stroke-width="1.5"></path><path d="M-99.34 663.01L65.51 510.22" stroke="#132e65" stroke-width="1.5"></path><path d="M61.38 399.51L61.38 399.51" stroke="#132e65" stroke-width="1.5"></path><path d="M61.38 399.51L65.51 510.22" stroke="#132e65" stroke-width="1.5"></path><path d="M61.38 399.51L188.07 506.3" stroke="#132e65" stroke-width="1.5"></path><path d="M65.51 510.22L65.51 510.22" stroke="#132e65" stroke-width="1.5"></path><path d="M65.51 510.22L188.07 506.3" stroke="#132e65" stroke-width="1.5"></path><path d="M227.59 396.96L227.59 396.96" stroke="#132e65" stroke-width="1.5"></path><path d="M227.59 396.96L188.07 506.3" stroke="#132e65" stroke-width="1.5"></path><path d="M227.59 396.96L61.38 399.51" stroke="#132e65" stroke-width="1.5"></path><path d="M188.07 506.3L188.07 506.3" stroke="#132e65" stroke-width="1.5"></path><path d="M223.02 685.16L223.02 685.16" stroke="#132e65" stroke-width="1.5"></path><path d="M223.02 685.16L339.07 662.22" stroke="#132e65" stroke-width="1.5"></path><path d="M223.02 685.16L188.07 506.3" stroke="#132e65" stroke-width="1.5"></path><path d="M223.02 685.16L345.4 520.23" stroke="#132e65" stroke-width="1.5"></path><path d="M411.44 387.23L411.44 387.23" stroke="#132e65" stroke-width="1.5"></path><path d="M411.44 387.23L345.4 520.23" stroke="#132e65" stroke-width="1.5"></path><path d="M411.44 387.23L525.47 502.85" stroke="#132e65" stroke-width="1.5"></path><path d="M411.44 387.23L227.59 396.96" stroke="#132e65" stroke-width="1.5"></path><path d="M411.44 387.23L652.89 364.35" stroke="#132e65" stroke-width="1.5"></path><path d="M411.44 387.23L188.07 506.3" stroke="#132e65" stroke-width="1.5"></path><path d="M411.44 387.23L339.07 662.22" stroke="#132e65" stroke-width="1.5"></path><path d="M345.4 520.23L345.4 520.23" stroke="#132e65" stroke-width="1.5"></path><path d="M345.4 520.23L339.07 662.22" stroke="#132e65" stroke-width="1.5"></path><path d="M345.4 520.23L188.07 506.3" stroke="#132e65" stroke-width="1.5"></path><path d="M339.07 662.22L339.07 662.22" stroke="#132e65" stroke-width="1.5"></path><path d="M525.47 502.85L525.47 502.85" stroke="#132e65" stroke-width="1.5"></path><path d="M525.47 502.85L345.4 520.23" stroke="#132e65" stroke-width="1.5"></path><path d="M525.47 502.85L531.21 686.72" stroke="#132e65" stroke-width="1.5"></path><path d="M525.47 502.85L703.7 548.96" stroke="#132e65" stroke-width="1.5"></path><path d="M525.47 502.85L652.89 364.35" stroke="#132e65" stroke-width="1.5"></path><path d="M531.21 686.72L531.21 686.72" stroke="#132e65" stroke-width="1.5"></path><path d="M531.21 686.72L684.71 642.59" stroke="#132e65" stroke-width="1.5"></path><path d="M531.21 686.72L339.07 662.22" stroke="#132e65" stroke-width="1.5"></path><path d="M531.21 686.72L703.7 548.96" stroke="#132e65" stroke-width="1.5"></path><path d="M652.89 364.35L652.89 364.35" stroke="#132e65" stroke-width="1.5"></path><path d="M652.89 364.35L842.32 372.12" stroke="#132e65" stroke-width="1.5"></path><path d="M703.7 548.96L703.7 548.96" stroke="#132e65" stroke-width="1.5"></path><path d="M703.7 548.96L788.53 524.64" stroke="#132e65" stroke-width="1.5"></path><path d="M703.7 548.96L684.71 642.59" stroke="#132e65" stroke-width="1.5"></path><path d="M684.71 642.59L684.71 642.59" stroke="#132e65" stroke-width="1.5"></path><path d="M684.71 642.59L788.53 524.64" stroke="#132e65" stroke-width="1.5"></path><path d="M684.71 642.59L525.47 502.85" stroke="#132e65" stroke-width="1.5"></path><path d="M684.71 642.59L939.65 664.29" stroke="#132e65" stroke-width="1.5"></path><path d="M684.71 642.59L652.89 364.35" stroke="#132e65" stroke-width="1.5"></path><path d="M827.36 107.68L827.36 107.68" stroke="#132e65" stroke-width="1.5"></path><path d="M827.36 107.68L847.89 201.91" stroke="#132e65" stroke-width="1.5"></path><path d="M827.36 107.68L980.41 80.21" stroke="#132e65" stroke-width="1.5"></path><path d="M827.36 107.68L987.83 -40.82" stroke="#132e65" stroke-width="1.5"></path><path d="M827.36 107.68L1006.97 241.07" stroke="#132e65" stroke-width="1.5"></path><path d="M827.36 107.68L842.32 372.12" stroke="#132e65" stroke-width="1.5"></path><path d="M847.89 201.91L847.89 201.91" stroke="#132e65" stroke-width="1.5"></path><path d="M847.89 201.91L1006.97 241.07" stroke="#132e65" stroke-width="1.5"></path><path d="M847.89 201.91L842.32 372.12" stroke="#132e65" stroke-width="1.5"></path><path d="M847.89 201.91L980.41 80.21" stroke="#132e65" stroke-width="1.5"></path><path d="M842.32 372.12L842.32 372.12" stroke="#132e65" stroke-width="1.5"></path><path d="M842.32 372.12L971.76 386.04" stroke="#132e65" stroke-width="1.5"></path><path d="M842.32 372.12L788.53 524.64" stroke="#132e65" stroke-width="1.5"></path><path d="M842.32 372.12L1005.69 498.32" stroke="#132e65" stroke-width="1.5"></path><path d="M842.32 372.12L1006.97 241.07" stroke="#132e65" stroke-width="1.5"></path><path d="M788.53 524.64L788.53 524.64" stroke="#132e65" stroke-width="1.5"></path><path d="M788.53 524.64L939.65 664.29" stroke="#132e65" stroke-width="1.5"></path><path d="M788.53 524.64L652.89 364.35" stroke="#132e65" stroke-width="1.5"></path><path d="M987.83 -40.82L987.83 -40.82" stroke="#132e65" stroke-width="1.5"></path><path d="M987.83 -40.82L980.41 80.21" stroke="#132e65" stroke-width="1.5"></path><path d="M987.83 -40.82L1100.61 49.68" stroke="#132e65" stroke-width="1.5"></path><path d="M987.83 -40.82L1142.56 -55.55" stroke="#132e65" stroke-width="1.5"></path><path d="M980.41 80.21L980.41 80.21" stroke="#132e65" stroke-width="1.5"></path><path d="M980.41 80.21L1100.61 49.68" stroke="#132e65" stroke-width="1.5"></path><path d="M980.41 80.21L1006.97 241.07" stroke="#132e65" stroke-width="1.5"></path><path d="M1006.97 241.07L1006.97 241.07" stroke="#132e65" stroke-width="1.5"></path><path d="M1006.97 241.07L1114.52 219.38" stroke="#132e65" stroke-width="1.5"></path><path d="M1006.97 241.07L971.76 386.04" stroke="#132e65" stroke-width="1.5"></path><path d="M1006.97 241.07L1115.76 381.19" stroke="#132e65" stroke-width="1.5"></path><path d="M971.76 386.04L971.76 386.04" stroke="#132e65" stroke-width="1.5"></path><path d="M971.76 386.04L1005.69 498.32" stroke="#132e65" stroke-width="1.5"></path><path d="M1005.69 498.32L1005.69 498.32" stroke="#132e65" stroke-width="1.5"></path><path d="M1005.69 498.32L1138.48 507.86" stroke="#132e65" stroke-width="1.5"></path><path d="M1005.69 498.32L1115.76 381.19" stroke="#132e65" stroke-width="1.5"></path><path d="M939.65 664.29L939.65 664.29" stroke="#132e65" stroke-width="1.5"></path><path d="M939.65 664.29L1095.32 674.53" stroke="#132e65" stroke-width="1.5"></path><path d="M939.65 664.29L1005.69 498.32" stroke="#132e65" stroke-width="1.5"></path><path d="M1142.56 -55.55L1142.56 -55.55" stroke="#132e65" stroke-width="1.5"></path><path d="M1142.56 -55.55L1100.61 49.68" stroke="#132e65" stroke-width="1.5"></path><path d="M1100.61 49.68L1100.61 49.68" stroke="#132e65" stroke-width="1.5"></path><path d="M1100.61 49.68L1114.52 219.38" stroke="#132e65" stroke-width="1.5"></path><path d="M1100.61 49.68L1291.41 82.05" stroke="#132e65" stroke-width="1.5"></path><path d="M1100.61 49.68L1277.14 -52.46" stroke="#132e65" stroke-width="1.5"></path><path d="M1114.52 219.38L1114.52 219.38" stroke="#132e65" stroke-width="1.5"></path><path d="M1114.52 219.38L1251.54 203.53" stroke="#132e65" stroke-width="1.5"></path><path d="M1115.76 381.19L1115.76 381.19" stroke="#132e65" stroke-width="1.5"></path><path d="M1115.76 381.19L1138.48 507.86" stroke="#132e65" stroke-width="1.5"></path><path d="M1115.76 381.19L971.76 386.04" stroke="#132e65" stroke-width="1.5"></path><path d="M1115.76 381.19L1114.52 219.38" stroke="#132e65" stroke-width="1.5"></path><path d="M1115.76 381.19L1286.3 339.69" stroke="#132e65" stroke-width="1.5"></path><path d="M1138.48 507.86L1138.48 507.86" stroke="#132e65" stroke-width="1.5"></path><path d="M1095.32 674.53L1095.32 674.53" stroke="#132e65" stroke-width="1.5"></path><path d="M1095.32 674.53L1138.48 507.86" stroke="#132e65" stroke-width="1.5"></path><path d="M1095.32 674.53L1005.69 498.32" stroke="#132e65" stroke-width="1.5"></path><path d="M1095.32 674.53L1292.14 652.17" stroke="#132e65" stroke-width="1.5"></path><path d="M1095.32 674.53L1282.51 508.19" stroke="#132e65" stroke-width="1.5"></path><path d="M1095.32 674.53L1115.76 381.19" stroke="#132e65" stroke-width="1.5"></path><path d="M1277.14 -52.46L1277.14 -52.46" stroke="#132e65" stroke-width="1.5"></path><path d="M1277.14 -52.46L1395.82 -41.01" stroke="#132e65" stroke-width="1.5"></path><path d="M1277.14 -52.46L1142.56 -55.55" stroke="#132e65" stroke-width="1.5"></path><path d="M1277.14 -52.46L1291.41 82.05" stroke="#132e65" stroke-width="1.5"></path><path d="M1277.14 -52.46L1424.33 49.9" stroke="#132e65" stroke-width="1.5"></path><path d="M1291.41 82.05L1291.41 82.05" stroke="#132e65" stroke-width="1.5"></path><path d="M1291.41 82.05L1251.54 203.53" stroke="#132e65" stroke-width="1.5"></path><path d="M1291.41 82.05L1424.33 49.9" stroke="#132e65" stroke-width="1.5"></path><path d="M1291.41 82.05L1395.82 -41.01" stroke="#132e65" stroke-width="1.5"></path><path d="M1291.41 82.05L1142.56 -55.55" stroke="#132e65" stroke-width="1.5"></path><path d="M1251.54 203.53L1251.54 203.53" stroke="#132e65" stroke-width="1.5"></path><path d="M1251.54 203.53L1286.3 339.69" stroke="#132e65" stroke-width="1.5"></path><path d="M1286.3 339.69L1286.3 339.69" stroke="#132e65" stroke-width="1.5"></path><path d="M1286.3 339.69L1403.94 367.04" stroke="#132e65" stroke-width="1.5"></path><path d="M1286.3 339.69L1282.51 508.19" stroke="#132e65" stroke-width="1.5"></path><path d="M1286.3 339.69L1114.52 219.38" stroke="#132e65" stroke-width="1.5"></path><path d="M1286.3 339.69L1418.03 511.5" stroke="#132e65" stroke-width="1.5"></path><path d="M1282.51 508.19L1282.51 508.19" stroke="#132e65" stroke-width="1.5"></path><path d="M1282.51 508.19L1418.03 511.5" stroke="#132e65" stroke-width="1.5"></path><path d="M1282.51 508.19L1138.48 507.86" stroke="#132e65" stroke-width="1.5"></path><path d="M1282.51 508.19L1292.14 652.17" stroke="#132e65" stroke-width="1.5"></path><path d="M1282.51 508.19L1403.94 367.04" stroke="#132e65" stroke-width="1.5"></path><path d="M1292.14 652.17L1292.14 652.17" stroke="#132e65" stroke-width="1.5"></path><path d="M1292.14 652.17L1441.02 651.22" stroke="#132e65" stroke-width="1.5"></path><path d="M1292.14 652.17L1418.03 511.5" stroke="#132e65" stroke-width="1.5"></path><path d="M1292.14 652.17L1138.48 507.86" stroke="#132e65" stroke-width="1.5"></path><path d="M1395.82 -41.01L1395.82 -41.01" stroke="#132e65" stroke-width="1.5"></path><path d="M1395.82 -41.01L1424.33 49.9" stroke="#132e65" stroke-width="1.5"></path><path d="M1395.82 -41.01L1542.77 81.65" stroke="#132e65" stroke-width="1.5"></path><path d="M1395.82 -41.01L1605.42 -82.17" stroke="#132e65" stroke-width="1.5"></path><path d="M1424.33 49.9L1424.33 49.9" stroke="#132e65" stroke-width="1.5"></path><path d="M1424.33 49.9L1542.77 81.65" stroke="#132e65" stroke-width="1.5"></path><path d="M1403.94 367.04L1403.94 367.04" stroke="#132e65" stroke-width="1.5"></path><path d="M1403.94 367.04L1418.03 511.5" stroke="#132e65" stroke-width="1.5"></path><path d="M1403.94 367.04L1560.53 388.09" stroke="#132e65" stroke-width="1.5"></path><path d="M1403.94 367.04L1251.54 203.53" stroke="#132e65" stroke-width="1.5"></path><path d="M1418.03 511.5L1418.03 511.5" stroke="#132e65" stroke-width="1.5"></path><path d="M1418.03 511.5L1441.02 651.22" stroke="#132e65" stroke-width="1.5"></path><path d="M1418.03 511.5L1560.53 388.09" stroke="#132e65" stroke-width="1.5"></path><path d="M1441.02 651.22L1441.02 651.22" stroke="#132e65" stroke-width="1.5"></path><path d="M1441.02 651.22L1581.2 658.67" stroke="#132e65" stroke-width="1.5"></path><path d="M1441.02 651.22L1282.51 508.19" stroke="#132e65" stroke-width="1.5"></path><path d="M1441.02 651.22L1608.84 502.85" stroke="#132e65" stroke-width="1.5"></path><path d="M1605.42 -82.17L1605.42 -82.17" stroke="#132e65" stroke-width="1.5"></path><path d="M1605.42 -82.17L1542.77 81.65" stroke="#132e65" stroke-width="1.5"></path><path d="M1605.42 -82.17L1424.33 49.9" stroke="#132e65" stroke-width="1.5"></path><path d="M1542.77 81.65L1542.77 81.65" stroke="#132e65" stroke-width="1.5"></path><path d="M1542.77 81.65L1589.8 228.82" stroke="#132e65" stroke-width="1.5"></path><path d="M1542.77 81.65L1291.41 82.05" stroke="#132e65" stroke-width="1.5"></path><path d="M1542.77 81.65L1277.14 -52.46" stroke="#132e65" stroke-width="1.5"></path><path d="M1589.8 228.82L1589.8 228.82" stroke="#132e65" stroke-width="1.5"></path><path d="M1589.8 228.82L1560.53 388.09" stroke="#132e65" stroke-width="1.5"></path><path d="M1589.8 228.82L1403.94 367.04" stroke="#132e65" stroke-width="1.5"></path><path d="M1589.8 228.82L1424.33 49.9" stroke="#132e65" stroke-width="1.5"></path><path d="M1560.53 388.09L1560.53 388.09" stroke="#132e65" stroke-width="1.5"></path><path d="M1560.53 388.09L1608.84 502.85" stroke="#132e65" stroke-width="1.5"></path><path d="M1608.84 502.85L1608.84 502.85" stroke="#132e65" stroke-width="1.5"></path><path d="M1608.84 502.85L1581.2 658.67" stroke="#132e65" stroke-width="1.5"></path><path d="M1608.84 502.85L1418.03 511.5" stroke="#132e65" stroke-width="1.5"></path><path d="M1581.2 658.67L1581.2 658.67" stroke="#132e65" stroke-width="1.5"></path><path d="M1581.2 658.67L1418.03 511.5" stroke="#132e65" stroke-width="1.5"></path><path d="M1581.2 658.67L1560.53 388.09" stroke="#132e65" stroke-width="1.5"></path><path d="M1581.2 658.67L1292.14 652.17" stroke="#132e65" stroke-width="1.5"></path><circle r="5" cx="-66.29" cy="556.35" fill="#132e65"></circle><circle r="5" cx="-99.34" cy="663.01" fill="#132e65"></circle><circle r="5" cx="61.38" cy="399.51" fill="#132e65"></circle><circle r="5" cx="65.51" cy="510.22" fill="#132e65"></circle><circle r="5" cx="227.59" cy="396.96" fill="#132e65"></circle><circle r="5" cx="188.07" cy="506.3" fill="#132e65"></circle><circle r="5" cx="223.02" cy="685.16" fill="#132e65"></circle><circle r="5" cx="411.44" cy="387.23" fill="#132e65"></circle><circle r="5" cx="345.4" cy="520.23" fill="#132e65"></circle><circle r="5" cx="339.07" cy="662.22" fill="#132e65"></circle><circle r="5" cx="525.47" cy="502.85" fill="#132e65"></circle><circle r="5" cx="531.21" cy="686.72" fill="#132e65"></circle><circle r="5" cx="652.89" cy="364.35" fill="#132e65"></circle><circle r="5" cx="703.7" cy="548.96" fill="#132e65"></circle><circle r="5" cx="684.71" cy="642.59" fill="#132e65"></circle><circle r="5" cx="827.36" cy="107.68" fill="#132e65"></circle><circle r="5" cx="847.89" cy="201.91" fill="#132e65"></circle><circle r="5" cx="842.32" cy="372.12" fill="#132e65"></circle><circle r="5" cx="788.53" cy="524.64" fill="#132e65"></circle><circle r="5" cx="987.83" cy="-40.82" fill="#132e65"></circle><circle r="5" cx="980.41" cy="80.21" fill="#132e65"></circle><circle r="5" cx="1006.97" cy="241.07" fill="#132e65"></circle><circle r="5" cx="971.76" cy="386.04" fill="#132e65"></circle><circle r="5" cx="1005.69" cy="498.32" fill="#132e65"></circle><circle r="5" cx="939.65" cy="664.29" fill="#132e65"></circle><circle r="5" cx="1142.56" cy="-55.55" fill="#132e65"></circle><circle r="5" cx="1100.61" cy="49.68" fill="#132e65"></circle><circle r="5" cx="1114.52" cy="219.38" fill="#132e65"></circle><circle r="5" cx="1115.76" cy="381.19" fill="#132e65"></circle><circle r="5" cx="1138.48" cy="507.86" fill="#132e65"></circle><circle r="5" cx="1095.32" cy="674.53" fill="#132e65"></circle><circle r="5" cx="1277.14" cy="-52.46" fill="#132e65"></circle><circle r="5" cx="1291.41" cy="82.05" fill="#132e65"></circle><circle r="5" cx="1251.54" cy="203.53" fill="#132e65"></circle><circle r="5" cx="1286.3" cy="339.69" fill="#132e65"></circle><circle r="5" cx="1282.51" cy="508.19" fill="#132e65"></circle><circle r="5" cx="1292.14" cy="652.17" fill="#132e65"></circle><circle r="5" cx="1395.82" cy="-41.01" fill="#132e65"></circle><circle r="5" cx="1424.33" cy="49.9" fill="#132e65"></circle><circle r="5" cx="1403.94" cy="367.04" fill="#132e65"></circle><circle r="5" cx="1418.03" cy="511.5" fill="#132e65"></circle><circle r="5" cx="1441.02" cy="651.22" fill="#132e65"></circle><circle r="5" cx="1605.42" cy="-82.17" fill="#132e65"></circle><circle r="5" cx="1542.77" cy="81.65" fill="#132e65"></circle><circle r="5" cx="1589.8" cy="228.82" fill="#132e65"></circle><circle r="5" cx="1560.53" cy="388.09" fill="#132e65"></circle><circle r="5" cx="1608.84" cy="502.85" fill="#132e65"></circle><circle r="5" cx="1581.2" cy="658.67" fill="#132e65"></circle><path d="M-72.01 672.1L-72.01 672.1" stroke="hsl(228.5, 77.2%, 51.5%)" stroke-width="1.5"></path><path d="M-72.01 672.1L-73.2 549.3" stroke="hsl(228.5, 77.2%, 51.5%)" stroke-width="1.5"></path><path d="M-72.01 672.1L68.14 695.31" stroke="hsl(228.5, 77.2%, 51.5%)" stroke-width="1.5"></path><path d="M-72.01 672.1L97.16 526.51" stroke="hsl(228.5, 77.2%, 51.5%)" stroke-width="1.5"></path><path d="M-72.01 672.1L195.7 675.22" stroke="hsl(228.5, 77.2%, 51.5%)" stroke-width="1.5"></path><path d="M516.73 678.98L516.73 678.98" stroke="hsl(228.5, 77.2%, 51.5%)" stroke-width="1.5"></path><path d="M516.73 678.98L381.4 651.4" stroke="hsl(228.5, 77.2%, 51.5%)" stroke-width="1.5"></path><path d="M516.73 678.98L519.92 518.3" stroke="hsl(228.5, 77.2%, 51.5%)" stroke-width="1.5"></path><path d="M516.73 678.98L704.87 700.34" stroke="hsl(228.5, 77.2%, 51.5%)" stroke-width="1.5"></path><path d="M516.73 678.98L368.64 498.7" stroke="hsl(228.5, 77.2%, 51.5%)" stroke-width="1.5"></path><path d="M516.73 678.98L790.94 692.7" stroke="hsl(228.5, 77.2%, 51.5%)" stroke-width="1.5"></path><path d="M516.73 678.98L195.7 675.22" stroke="hsl(228.5, 77.2%, 51.5%)" stroke-width="1.5"></path><path d="M695.56 370.06L695.56 370.06" stroke="hsl(228.5, 77.2%, 51.5%)" stroke-width="1.5"></path><path d="M695.56 370.06L833.04 488.56" stroke="hsl(228.5, 77.2%, 51.5%)" stroke-width="1.5"></path><path d="M695.56 370.06L519.92 518.3" stroke="hsl(228.5, 77.2%, 51.5%)" stroke-width="1.5"></path><path d="M695.56 370.06L944.93 383.27" stroke="hsl(228.5, 77.2%, 51.5%)" stroke-width="1.5"></path><path d="M695.56 370.06L950.91 509.31" stroke="hsl(228.5, 77.2%, 51.5%)" stroke-width="1.5"></path><path d="M695.56 370.06L987.93 257.65" stroke="hsl(228.5, 77.2%, 51.5%)" stroke-width="1.5"></path><path d="M695.56 370.06L704.87 700.34" stroke="hsl(228.5, 77.2%, 51.5%)" stroke-width="1.5"></path><path d="M1276.55 406.11L1276.55 406.11" stroke="hsl(228.5, 77.2%, 51.5%)" stroke-width="1.5"></path><path d="M1276.55 406.11L1388.37 392.18" stroke="hsl(228.5, 77.2%, 51.5%)" stroke-width="1.5"></path><path d="M1276.55 406.11L1304.77 552.18" stroke="hsl(228.5, 77.2%, 51.5%)" stroke-width="1.5"></path><path d="M1276.55 406.11L1394.18 511.53" stroke="hsl(228.5, 77.2%, 51.5%)" stroke-width="1.5"></path><path d="M1276.55 406.11L1121.48 365.26" stroke="hsl(228.5, 77.2%, 51.5%)" stroke-width="1.5"></path><path d="M1304.77 552.18L1304.77 552.18" stroke="hsl(228.5, 77.2%, 51.5%)" stroke-width="1.5"></path><path d="M1304.77 552.18L1394.18 511.53" stroke="hsl(228.5, 77.2%, 51.5%)" stroke-width="1.5"></path><path d="M1304.77 552.18L1297.2 706.76" stroke="hsl(228.5, 77.2%, 51.5%)" stroke-width="1.5"></path><path d="M1304.77 552.18L1388.37 392.18" stroke="hsl(228.5, 77.2%, 51.5%)" stroke-width="1.5"></path><path d="M1450.36 96.87L1450.36 96.87" stroke="hsl(228.5, 77.2%, 51.5%)" stroke-width="1.5"></path><path d="M1450.36 96.87L1561.27 83.15" stroke="hsl(228.5, 77.2%, 51.5%)" stroke-width="1.5"></path><path d="M1450.36 96.87L1405.74 200.41" stroke="hsl(228.5, 77.2%, 51.5%)" stroke-width="1.5"></path><path d="M1450.36 96.87L1305.01 98.78" stroke="hsl(228.5, 77.2%, 51.5%)" stroke-width="1.5"></path><path d="M1450.36 96.87L1420.67 -88.52" stroke="hsl(228.5, 77.2%, 51.5%)" stroke-width="1.5"></path><path d="M1450.36 96.87L1545.31 261.65" stroke="hsl(228.5, 77.2%, 51.5%)" stroke-width="1.5"></path><path d="M1561.27 83.15L1561.27 83.15" stroke="hsl(228.5, 77.2%, 51.5%)" stroke-width="1.5"></path><path d="M1561.27 83.15L1545.31 261.65" stroke="hsl(228.5, 77.2%, 51.5%)" stroke-width="1.5"></path><path d="M1561.27 83.15L1405.74 200.41" stroke="hsl(228.5, 77.2%, 51.5%)" stroke-width="1.5"></path><path d="M1561.27 83.15L1609.9 -110.06" stroke="hsl(228.5, 77.2%, 51.5%)" stroke-width="1.5"></path><path d="M1561.27 83.15L1420.67 -88.52" stroke="hsl(228.5, 77.2%, 51.5%)" stroke-width="1.5"></path><path d="M-73.2 549.3L-73.2 549.3" stroke="hsl(228.5, 77.2%, 51.5%)" stroke-width="1.5"></path><path d="M-73.2 549.3L97.16 526.51" stroke="hsl(228.5, 77.2%, 51.5%)" stroke-width="1.5"></path><path d="M-73.2 549.3L68.14 695.31" stroke="hsl(228.5, 77.2%, 51.5%)" stroke-width="1.5"></path><path d="M-73.2 549.3L207.1 489.82" stroke="hsl(228.5, 77.2%, 51.5%)" stroke-width="1.5"></path><path d="M-73.2 549.3L195.7 675.22" stroke="hsl(228.5, 77.2%, 51.5%)" stroke-width="1.5"></path><path d="M97.16 526.51L97.16 526.51" stroke="hsl(228.5, 77.2%, 51.5%)" stroke-width="1.5"></path><path d="M97.16 526.51L207.1 489.82" stroke="hsl(228.5, 77.2%, 51.5%)" stroke-width="1.5"></path><path d="M97.16 526.51L68.14 695.31" stroke="hsl(228.5, 77.2%, 51.5%)" stroke-width="1.5"></path><path d="M68.14 695.31L68.14 695.31" stroke="hsl(228.5, 77.2%, 51.5%)" stroke-width="1.5"></path><path d="M68.14 695.31L195.7 675.22" stroke="hsl(228.5, 77.2%, 51.5%)" stroke-width="1.5"></path><path d="M207.1 489.82L207.1 489.82" stroke="hsl(228.5, 77.2%, 51.5%)" stroke-width="1.5"></path><path d="M207.1 489.82L368.64 498.7" stroke="hsl(228.5, 77.2%, 51.5%)" stroke-width="1.5"></path><path d="M207.1 489.82L195.7 675.22" stroke="hsl(228.5, 77.2%, 51.5%)" stroke-width="1.5"></path><path d="M207.1 489.82L381.4 651.4" stroke="hsl(228.5, 77.2%, 51.5%)" stroke-width="1.5"></path><path d="M195.7 675.22L195.7 675.22" stroke="hsl(228.5, 77.2%, 51.5%)" stroke-width="1.5"></path><path d="M195.7 675.22L97.16 526.51" stroke="hsl(228.5, 77.2%, 51.5%)" stroke-width="1.5"></path><path d="M368.64 498.7L368.64 498.7" stroke="hsl(228.5, 77.2%, 51.5%)" stroke-width="1.5"></path><path d="M368.64 498.7L519.92 518.3" stroke="hsl(228.5, 77.2%, 51.5%)" stroke-width="1.5"></path><path d="M368.64 498.7L381.4 651.4" stroke="hsl(228.5, 77.2%, 51.5%)" stroke-width="1.5"></path><path d="M381.4 651.4L381.4 651.4" stroke="hsl(228.5, 77.2%, 51.5%)" stroke-width="1.5"></path><path d="M381.4 651.4L195.7 675.22" stroke="hsl(228.5, 77.2%, 51.5%)" stroke-width="1.5"></path><path d="M519.92 518.3L519.92 518.3" stroke="hsl(228.5, 77.2%, 51.5%)" stroke-width="1.5"></path><path d="M704.87 700.34L704.87 700.34" stroke="hsl(228.5, 77.2%, 51.5%)" stroke-width="1.5"></path><path d="M704.87 700.34L790.94 692.7" stroke="hsl(228.5, 77.2%, 51.5%)" stroke-width="1.5"></path><path d="M704.87 700.34L833.04 488.56" stroke="hsl(228.5, 77.2%, 51.5%)" stroke-width="1.5"></path><path d="M704.87 700.34L519.92 518.3" stroke="hsl(228.5, 77.2%, 51.5%)" stroke-width="1.5"></path><path d="M704.87 700.34L950.91 509.31" stroke="hsl(228.5, 77.2%, 51.5%)" stroke-width="1.5"></path><path d="M833.04 488.56L833.04 488.56" stroke="hsl(228.5, 77.2%, 51.5%)" stroke-width="1.5"></path><path d="M833.04 488.56L950.91 509.31" stroke="hsl(228.5, 77.2%, 51.5%)" stroke-width="1.5"></path><path d="M833.04 488.56L944.93 383.27" stroke="hsl(228.5, 77.2%, 51.5%)" stroke-width="1.5"></path><path d="M833.04 488.56L790.94 692.7" stroke="hsl(228.5, 77.2%, 51.5%)" stroke-width="1.5"></path><path d="M790.94 692.7L790.94 692.7" stroke="hsl(228.5, 77.2%, 51.5%)" stroke-width="1.5"></path><path d="M790.94 692.7L950.91 509.31" stroke="hsl(228.5, 77.2%, 51.5%)" stroke-width="1.5"></path><path d="M790.94 692.7L519.92 518.3" stroke="hsl(228.5, 77.2%, 51.5%)" stroke-width="1.5"></path><path d="M790.94 692.7L1113.63 668.89" stroke="hsl(228.5, 77.2%, 51.5%)" stroke-width="1.5"></path><path d="M987.93 257.65L987.93 257.65" stroke="hsl(228.5, 77.2%, 51.5%)" stroke-width="1.5"></path><path d="M987.93 257.65L944.93 383.27" stroke="hsl(228.5, 77.2%, 51.5%)" stroke-width="1.5"></path><path d="M987.93 257.65L1137.09 213.93" stroke="hsl(228.5, 77.2%, 51.5%)" stroke-width="1.5"></path><path d="M987.93 257.65L1121.48 365.26" stroke="hsl(228.5, 77.2%, 51.5%)" stroke-width="1.5"></path><path d="M987.93 257.65L1142.71 99.49" stroke="hsl(228.5, 77.2%, 51.5%)" stroke-width="1.5"></path><path d="M944.93 383.27L944.93 383.27" stroke="hsl(228.5, 77.2%, 51.5%)" stroke-width="1.5"></path><path d="M944.93 383.27L950.91 509.31" stroke="hsl(228.5, 77.2%, 51.5%)" stroke-width="1.5"></path><path d="M950.91 509.31L950.91 509.31" stroke="hsl(228.5, 77.2%, 51.5%)" stroke-width="1.5"></path><path d="M950.91 509.31L1121.48 365.26" stroke="hsl(228.5, 77.2%, 51.5%)" stroke-width="1.5"></path><path d="M950.91 509.31L1113.63 668.89" stroke="hsl(228.5, 77.2%, 51.5%)" stroke-width="1.5"></path><path d="M1161.59 -103.86L1161.59 -103.86" stroke="hsl(228.5, 77.2%, 51.5%)" stroke-width="1.5"></path><path d="M1161.59 -103.86L1142.71 99.49" stroke="hsl(228.5, 77.2%, 51.5%)" stroke-width="1.5"></path><path d="M1161.59 -103.86L1305.01 98.78" stroke="hsl(228.5, 77.2%, 51.5%)" stroke-width="1.5"></path><path d="M1142.71 99.49L1142.71 99.49" stroke="hsl(228.5, 77.2%, 51.5%)" stroke-width="1.5"></path><path d="M1142.71 99.49L1137.09 213.93" stroke="hsl(228.5, 77.2%, 51.5%)" stroke-width="1.5"></path><path d="M1142.71 99.49L1305.01 98.78" stroke="hsl(228.5, 77.2%, 51.5%)" stroke-width="1.5"></path><path d="M1142.71 99.49L1245.24 238.31" stroke="hsl(228.5, 77.2%, 51.5%)" stroke-width="1.5"></path><path d="M1137.09 213.93L1137.09 213.93" stroke="hsl(228.5, 77.2%, 51.5%)" stroke-width="1.5"></path><path d="M1137.09 213.93L1245.24 238.31" stroke="hsl(228.5, 77.2%, 51.5%)" stroke-width="1.5"></path><path d="M1121.48 365.26L1121.48 365.26" stroke="hsl(228.5, 77.2%, 51.5%)" stroke-width="1.5"></path><path d="M1121.48 365.26L1137.09 213.93" stroke="hsl(228.5, 77.2%, 51.5%)" stroke-width="1.5"></path><path d="M1121.48 365.26L1245.24 238.31" stroke="hsl(228.5, 77.2%, 51.5%)" stroke-width="1.5"></path><path d="M1113.63 668.89L1113.63 668.89" stroke="hsl(228.5, 77.2%, 51.5%)" stroke-width="1.5"></path><path d="M1113.63 668.89L1297.2 706.76" stroke="hsl(228.5, 77.2%, 51.5%)" stroke-width="1.5"></path><path d="M1113.63 668.89L1304.77 552.18" stroke="hsl(228.5, 77.2%, 51.5%)" stroke-width="1.5"></path><path d="M1113.63 668.89L1121.48 365.26" stroke="hsl(228.5, 77.2%, 51.5%)" stroke-width="1.5"></path><path d="M1305.01 98.78L1305.01 98.78" stroke="hsl(228.5, 77.2%, 51.5%)" stroke-width="1.5"></path><path d="M1305.01 98.78L1405.74 200.41" stroke="hsl(228.5, 77.2%, 51.5%)" stroke-width="1.5"></path><path d="M1245.24 238.31L1245.24 238.31" stroke="hsl(228.5, 77.2%, 51.5%)" stroke-width="1.5"></path><path d="M1245.24 238.31L1305.01 98.78" stroke="hsl(228.5, 77.2%, 51.5%)" stroke-width="1.5"></path><path d="M1297.2 706.76L1297.2 706.76" stroke="hsl(228.5, 77.2%, 51.5%)" stroke-width="1.5"></path><path d="M1297.2 706.76L1461.13 693.57" stroke="hsl(228.5, 77.2%, 51.5%)" stroke-width="1.5"></path><path d="M1297.2 706.76L1394.18 511.53" stroke="hsl(228.5, 77.2%, 51.5%)" stroke-width="1.5"></path><path d="M1420.67 -88.52L1420.67 -88.52" stroke="hsl(228.5, 77.2%, 51.5%)" stroke-width="1.5"></path><path d="M1420.67 -88.52L1609.9 -110.06" stroke="hsl(228.5, 77.2%, 51.5%)" stroke-width="1.5"></path><path d="M1420.67 -88.52L1305.01 98.78" stroke="hsl(228.5, 77.2%, 51.5%)" stroke-width="1.5"></path><path d="M1405.74 200.41L1405.74 200.41" stroke="hsl(228.5, 77.2%, 51.5%)" stroke-width="1.5"></path><path d="M1405.74 200.41L1545.31 261.65" stroke="hsl(228.5, 77.2%, 51.5%)" stroke-width="1.5"></path><path d="M1405.74 200.41L1245.24 238.31" stroke="hsl(228.5, 77.2%, 51.5%)" stroke-width="1.5"></path><path d="M1405.74 200.41L1388.37 392.18" stroke="hsl(228.5, 77.2%, 51.5%)" stroke-width="1.5"></path><path d="M1388.37 392.18L1388.37 392.18" stroke="hsl(228.5, 77.2%, 51.5%)" stroke-width="1.5"></path><path d="M1388.37 392.18L1394.18 511.53" stroke="hsl(228.5, 77.2%, 51.5%)" stroke-width="1.5"></path><path d="M1388.37 392.18L1550.94 499.44" stroke="hsl(228.5, 77.2%, 51.5%)" stroke-width="1.5"></path><path d="M1394.18 511.53L1394.18 511.53" stroke="hsl(228.5, 77.2%, 51.5%)" stroke-width="1.5"></path><path d="M1394.18 511.53L1550.94 499.44" stroke="hsl(228.5, 77.2%, 51.5%)" stroke-width="1.5"></path><path d="M1394.18 511.53L1461.13 693.57" stroke="hsl(228.5, 77.2%, 51.5%)" stroke-width="1.5"></path><path d="M1461.13 693.57L1461.13 693.57" stroke="hsl(228.5, 77.2%, 51.5%)" stroke-width="1.5"></path><path d="M1461.13 693.57L1551.45 699.49" stroke="hsl(228.5, 77.2%, 51.5%)" stroke-width="1.5"></path><path d="M1609.9 -110.06L1609.9 -110.06" stroke="hsl(228.5, 77.2%, 51.5%)" stroke-width="1.5"></path><path d="M1609.9 -110.06L1450.36 96.87" stroke="hsl(228.5, 77.2%, 51.5%)" stroke-width="1.5"></path><path d="M1609.9 -110.06L1305.01 98.78" stroke="hsl(228.5, 77.2%, 51.5%)" stroke-width="1.5"></path><path d="M1545.31 261.65L1545.31 261.65" stroke="hsl(228.5, 77.2%, 51.5%)" stroke-width="1.5"></path><path d="M1545.31 261.65L1597.55 363.38" stroke="hsl(228.5, 77.2%, 51.5%)" stroke-width="1.5"></path><path d="M1597.55 363.38L1597.55 363.38" stroke="hsl(228.5, 77.2%, 51.5%)" stroke-width="1.5"></path><path d="M1597.55 363.38L1550.94 499.44" stroke="hsl(228.5, 77.2%, 51.5%)" stroke-width="1.5"></path><path d="M1550.94 499.44L1550.94 499.44" stroke="hsl(228.5, 77.2%, 51.5%)" stroke-width="1.5"></path><path d="M1551.45 699.49L1551.45 699.49" stroke="hsl(228.5, 77.2%, 51.5%)" stroke-width="1.5"></path><path d="M1551.45 699.49L1550.94 499.44" stroke="hsl(228.5, 77.2%, 51.5%)" stroke-width="1.5"></path><path d="M1551.45 699.49L1394.18 511.53" stroke="hsl(228.5, 77.2%, 51.5%)" stroke-width="1.5"></path><path d="M1551.45 699.49L1297.2 706.76" stroke="hsl(228.5, 77.2%, 51.5%)" stroke-width="1.5"></path><path d="M1551.45 699.49L1304.77 552.18" stroke="hsl(228.5, 77.2%, 51.5%)" stroke-width="1.5"></path><circle r="25" cx="-72.01" cy="672.1" fill="url(&quot;#SvgjsRadialGradient1003&quot;)"></circle><circle r="25" cx="516.73" cy="678.98" fill="url(&quot;#SvgjsRadialGradient1003&quot;)"></circle><circle r="25" cx="695.56" cy="370.06" fill="url(&quot;#SvgjsRadialGradient1003&quot;)"></circle><circle r="25" cx="1276.55" cy="406.11" fill="url(&quot;#SvgjsRadialGradient1003&quot;)"></circle><circle r="25" cx="1304.77" cy="552.18" fill="url(&quot;#SvgjsRadialGradient1003&quot;)"></circle><circle r="25" cx="1450.36" cy="96.87" fill="url(&quot;#SvgjsRadialGradient1003&quot;)"></circle><circle r="25" cx="1561.27" cy="83.15" fill="url(&quot;#SvgjsRadialGradient1003&quot;)"></circle><circle r="5" cx="-73.2" cy="549.3" fill="#8b9ad9"></circle><circle r="5" cx="97.16" cy="526.51" fill="#8b9ad9"></circle><circle r="5" cx="68.14" cy="695.31" fill="#8b9ad9"></circle><circle r="5" cx="207.1" cy="489.82" fill="#8b9ad9"></circle><circle r="5" cx="195.7" cy="675.22" fill="#8b9ad9"></circle><circle r="5" cx="368.64" cy="498.7" fill="#8b9ad9"></circle><circle r="5" cx="381.4" cy="651.4" fill="#8b9ad9"></circle><circle r="5" cx="519.92" cy="518.3" fill="#8b9ad9"></circle><circle r="5" cx="704.87" cy="700.34" fill="#8b9ad9"></circle><circle r="5" cx="833.04" cy="488.56" fill="#8b9ad9"></circle><circle r="5" cx="790.94" cy="692.7" fill="#8b9ad9"></circle><circle r="5" cx="987.93" cy="257.65" fill="#8b9ad9"></circle><circle r="5" cx="944.93" cy="383.27" fill="#8b9ad9"></circle><circle r="5" cx="950.91" cy="509.31" fill="#8b9ad9"></circle><circle r="5" cx="1161.59" cy="-103.86" fill="#8b9ad9"></circle><circle r="5" cx="1142.71" cy="99.49" fill="#8b9ad9"></circle><circle r="5" cx="1137.09" cy="213.93" fill="#8b9ad9"></circle><circle r="5" cx="1121.48" cy="365.26" fill="#8b9ad9"></circle><circle r="5" cx="1113.63" cy="668.89" fill="#8b9ad9"></circle><circle r="5" cx="1305.01" cy="98.78" fill="#8b9ad9"></circle><circle r="5" cx="1245.24" cy="238.31" fill="#8b9ad9"></circle><circle r="5" cx="1297.2" cy="706.76" fill="#8b9ad9"></circle><circle r="5" cx="1420.67" cy="-88.52" fill="#8b9ad9"></circle><circle r="5" cx="1405.74" cy="200.41" fill="#8b9ad9"></circle><circle r="5" cx="1388.37" cy="392.18" fill="#8b9ad9"></circle><circle r="5" cx="1394.18" cy="511.53" fill="#8b9ad9"></circle><circle r="5" cx="1461.13" cy="693.57" fill="#8b9ad9"></circle><circle r="5" cx="1609.9" cy="-110.06" fill="#8b9ad9"></circle><circle r="5" cx="1545.31" cy="261.65" fill="#8b9ad9"></circle><circle r="5" cx="1597.55" cy="363.38" fill="#8b9ad9"></circle><circle r="5" cx="1550.94" cy="499.44" fill="#8b9ad9"></circle><circle r="5" cx="1551.45" cy="699.49" fill="#8b9ad9"></circle></g><defs><mask id="SvgjsMask1002"><rect width="1440" height="560" fill="#ffffff"></rect></mask><radialGradient id="SvgjsRadialGradient1003"><stop stop-color="#ffffff" offset="0.1"></stop><stop stop-color="#1735b3" offset="0.2"></stop><stop stop-color="rgba(23, 53, 179, 0)" offset="1"></stop></radialGradient></defs></svg>