<svg xmlns="http://www.w3.org/2000/svg" version="1.1" xmlns:xlink="http://www.w3.org/1999/xlink" xmlns:svgjs="http://svgjs.dev/svgjs" width="1440" height="560" preserveAspectRatio="none" viewBox="0 0 1440 560"><g mask="url(&quot;#SvgjsMask1049&quot;)" fill="none"><path d="M-105.21 530.27L-105.21 530.27" stroke="#132e65" stroke-width="1.5"></path><path d="M-105.21 530.27L61.92 560.71" stroke="#132e65" stroke-width="1.5"></path><path d="M-105.21 530.27L-86.97 711.18" stroke="#132e65" stroke-width="1.5"></path><path d="M-105.21 530.27L104.41 374.33" stroke="#132e65" stroke-width="1.5"></path><path d="M-86.97 711.18L-86.97 711.18" stroke="#132e65" stroke-width="1.5"></path><path d="M-86.97 711.18L110.43 694.68" stroke="#132e65" stroke-width="1.5"></path><path d="M-86.97 711.18L61.92 560.71" stroke="#132e65" stroke-width="1.5"></path><path d="M-86.97 711.18L215.65 667.67" stroke="#132e65" stroke-width="1.5"></path><path d="M-86.97 711.18L244.54 541.31" stroke="#132e65" stroke-width="1.5"></path><path d="M104.41 374.33L104.41 374.33" stroke="#132e65" stroke-width="1.5"></path><path d="M104.41 374.33L61.92 560.71" stroke="#132e65" stroke-width="1.5"></path><path d="M104.41 374.33L244.54 541.31" stroke="#132e65" stroke-width="1.5"></path><path d="M104.41 374.33L410.8 340.1" stroke="#132e65" stroke-width="1.5"></path><path d="M104.41 374.33L215.65 667.67" stroke="#132e65" stroke-width="1.5"></path><path d="M61.92 560.71L61.92 560.71" stroke="#132e65" stroke-width="1.5"></path><path d="M61.92 560.71L110.43 694.68" stroke="#132e65" stroke-width="1.5"></path><path d="M61.92 560.71L244.54 541.31" stroke="#132e65" stroke-width="1.5"></path><path d="M110.43 694.68L110.43 694.68" stroke="#132e65" stroke-width="1.5"></path><path d="M110.43 694.68L215.65 667.67" stroke="#132e65" stroke-width="1.5"></path><path d="M110.43 694.68L244.54 541.31" stroke="#132e65" stroke-width="1.5"></path><path d="M110.43 694.68L-105.21 530.27" stroke="#132e65" stroke-width="1.5"></path><path d="M110.43 694.68L403.69 692.69" stroke="#132e65" stroke-width="1.5"></path><path d="M244.54 541.31L244.54 541.31" stroke="#132e65" stroke-width="1.5"></path><path d="M244.54 541.31L215.65 667.67" stroke="#132e65" stroke-width="1.5"></path><path d="M244.54 541.31L392.15 533.24" stroke="#132e65" stroke-width="1.5"></path><path d="M215.65 667.67L215.65 667.67" stroke="#132e65" stroke-width="1.5"></path><path d="M410.8 340.1L410.8 340.1" stroke="#132e65" stroke-width="1.5"></path><path d="M410.8 340.1L512.48 346.9" stroke="#132e65" stroke-width="1.5"></path><path d="M410.8 340.1L392.15 533.24" stroke="#132e65" stroke-width="1.5"></path><path d="M410.8 340.1L544.78 502.48" stroke="#132e65" stroke-width="1.5"></path><path d="M410.8 340.1L649.28 404.2" stroke="#132e65" stroke-width="1.5"></path><path d="M410.8 340.1L244.54 541.31" stroke="#132e65" stroke-width="1.5"></path><path d="M392.15 533.24L392.15 533.24" stroke="#132e65" stroke-width="1.5"></path><path d="M392.15 533.24L544.78 502.48" stroke="#132e65" stroke-width="1.5"></path><path d="M392.15 533.24L403.69 692.69" stroke="#132e65" stroke-width="1.5"></path><path d="M392.15 533.24L556.13 681.33" stroke="#132e65" stroke-width="1.5"></path><path d="M392.15 533.24L512.48 346.9" stroke="#132e65" stroke-width="1.5"></path><path d="M403.69 692.69L403.69 692.69" stroke="#132e65" stroke-width="1.5"></path><path d="M403.69 692.69L556.13 681.33" stroke="#132e65" stroke-width="1.5"></path><path d="M403.69 692.69L215.65 667.67" stroke="#132e65" stroke-width="1.5"></path><path d="M403.69 692.69L244.54 541.31" stroke="#132e65" stroke-width="1.5"></path><path d="M403.69 692.69L544.78 502.48" stroke="#132e65" stroke-width="1.5"></path><path d="M512.48 346.9L512.48 346.9" stroke="#132e65" stroke-width="1.5"></path><path d="M512.48 346.9L649.28 404.2" stroke="#132e65" stroke-width="1.5"></path><path d="M512.48 346.9L544.78 502.48" stroke="#132e65" stroke-width="1.5"></path><path d="M512.48 346.9L647.27 512.2" stroke="#132e65" stroke-width="1.5"></path><path d="M512.48 346.9L820.29 246.53" stroke="#132e65" stroke-width="1.5"></path><path d="M544.78 502.48L544.78 502.48" stroke="#132e65" stroke-width="1.5"></path><path d="M544.78 502.48L647.27 512.2" stroke="#132e65" stroke-width="1.5"></path><path d="M544.78 502.48L649.28 404.2" stroke="#132e65" stroke-width="1.5"></path><path d="M544.78 502.48L556.13 681.33" stroke="#132e65" stroke-width="1.5"></path><path d="M556.13 681.33L556.13 681.33" stroke="#132e65" stroke-width="1.5"></path><path d="M556.13 681.33L648.43 677.12" stroke="#132e65" stroke-width="1.5"></path><path d="M556.13 681.33L647.27 512.2" stroke="#132e65" stroke-width="1.5"></path><path d="M649.28 404.2L649.28 404.2" stroke="#132e65" stroke-width="1.5"></path><path d="M649.28 404.2L647.27 512.2" stroke="#132e65" stroke-width="1.5"></path><path d="M649.28 404.2L795.34 520.02" stroke="#132e65" stroke-width="1.5"></path><path d="M649.28 404.2L840.07 376.77" stroke="#132e65" stroke-width="1.5"></path><path d="M649.28 404.2L820.29 246.53" stroke="#132e65" stroke-width="1.5"></path><path d="M647.27 512.2L647.27 512.2" stroke="#132e65" stroke-width="1.5"></path><path d="M648.43 677.12L648.43 677.12" stroke="#132e65" stroke-width="1.5"></path><path d="M648.43 677.12L807.48 690.51" stroke="#132e65" stroke-width="1.5"></path><path d="M841.57 95.27L841.57 95.27" stroke="#132e65" stroke-width="1.5"></path><path d="M841.57 95.27L976.37 41.16" stroke="#132e65" stroke-width="1.5"></path><path d="M841.57 95.27L820.29 246.53" stroke="#132e65" stroke-width="1.5"></path><path d="M841.57 95.27L960.28 259.72" stroke="#132e65" stroke-width="1.5"></path><path d="M820.29 246.53L820.29 246.53" stroke="#132e65" stroke-width="1.5"></path><path d="M820.29 246.53L840.07 376.77" stroke="#132e65" stroke-width="1.5"></path><path d="M820.29 246.53L960.28 259.72" stroke="#132e65" stroke-width="1.5"></path><path d="M820.29 246.53L964.24 349.06" stroke="#132e65" stroke-width="1.5"></path><path d="M840.07 376.77L840.07 376.77" stroke="#132e65" stroke-width="1.5"></path><path d="M840.07 376.77L964.24 349.06" stroke="#132e65" stroke-width="1.5"></path><path d="M840.07 376.77L795.34 520.02" stroke="#132e65" stroke-width="1.5"></path><path d="M840.07 376.77L960.28 259.72" stroke="#132e65" stroke-width="1.5"></path><path d="M840.07 376.77L981.57 528.74" stroke="#132e65" stroke-width="1.5"></path><path d="M795.34 520.02L795.34 520.02" stroke="#132e65" stroke-width="1.5"></path><path d="M795.34 520.02L647.27 512.2" stroke="#132e65" stroke-width="1.5"></path><path d="M795.34 520.02L807.48 690.51" stroke="#132e65" stroke-width="1.5"></path><path d="M795.34 520.02L981.57 528.74" stroke="#132e65" stroke-width="1.5"></path><path d="M807.48 690.51L807.48 690.51" stroke="#132e65" stroke-width="1.5"></path><path d="M994.44 -43.88L994.44 -43.88" stroke="#132e65" stroke-width="1.5"></path><path d="M994.44 -43.88L976.37 41.16" stroke="#132e65" stroke-width="1.5"></path><path d="M994.44 -43.88L1115.21 -94.35" stroke="#132e65" stroke-width="1.5"></path><path d="M994.44 -43.88L841.57 95.27" stroke="#132e65" stroke-width="1.5"></path><path d="M976.37 41.16L976.37 41.16" stroke="#132e65" stroke-width="1.5"></path><path d="M960.28 259.72L960.28 259.72" stroke="#132e65" stroke-width="1.5"></path><path d="M960.28 259.72L964.24 349.06" stroke="#132e65" stroke-width="1.5"></path><path d="M960.28 259.72L1092.31 230.83" stroke="#132e65" stroke-width="1.5"></path><path d="M960.28 259.72L976.37 41.16" stroke="#132e65" stroke-width="1.5"></path><path d="M964.24 349.06L964.24 349.06" stroke="#132e65" stroke-width="1.5"></path><path d="M981.57 528.74L981.57 528.74" stroke="#132e65" stroke-width="1.5"></path><path d="M981.57 528.74L1119.42 561.5" stroke="#132e65" stroke-width="1.5"></path><path d="M981.57 528.74L1012.04 681.72" stroke="#132e65" stroke-width="1.5"></path><path d="M981.57 528.74L964.24 349.06" stroke="#132e65" stroke-width="1.5"></path><path d="M1012.04 681.72L1012.04 681.72" stroke="#132e65" stroke-width="1.5"></path><path d="M1012.04 681.72L1135.36 674.76" stroke="#132e65" stroke-width="1.5"></path><path d="M1012.04 681.72L1119.42 561.5" stroke="#132e65" stroke-width="1.5"></path><path d="M1115.21 -94.35L1115.21 -94.35" stroke="#132e65" stroke-width="1.5"></path><path d="M1115.21 -94.35L1293.89 -54.13" stroke="#132e65" stroke-width="1.5"></path><path d="M1115.21 -94.35L976.37 41.16" stroke="#132e65" stroke-width="1.5"></path><path d="M1150.52 111.86L1150.52 111.86" stroke="#132e65" stroke-width="1.5"></path><path d="M1150.52 111.86L1092.31 230.83" stroke="#132e65" stroke-width="1.5"></path><path d="M1150.52 111.86L976.37 41.16" stroke="#132e65" stroke-width="1.5"></path><path d="M1150.52 111.86L1289.97 245.1" stroke="#132e65" stroke-width="1.5"></path><path d="M1150.52 111.86L1115.21 -94.35" stroke="#132e65" stroke-width="1.5"></path><path d="M1150.52 111.86L1293.89 -54.13" stroke="#132e65" stroke-width="1.5"></path><path d="M1150.52 111.86L994.44 -43.88" stroke="#132e65" stroke-width="1.5"></path><path d="M1092.31 230.83L1092.31 230.83" stroke="#132e65" stroke-width="1.5"></path><path d="M1092.31 230.83L1155.23 379.49" stroke="#132e65" stroke-width="1.5"></path><path d="M1092.31 230.83L964.24 349.06" stroke="#132e65" stroke-width="1.5"></path><path d="M1155.23 379.49L1155.23 379.49" stroke="#132e65" stroke-width="1.5"></path><path d="M1155.23 379.49L1270.46 397.23" stroke="#132e65" stroke-width="1.5"></path><path d="M1155.23 379.49L1119.42 561.5" stroke="#132e65" stroke-width="1.5"></path><path d="M1155.23 379.49L1289.97 245.1" stroke="#132e65" stroke-width="1.5"></path><path d="M1119.42 561.5L1119.42 561.5" stroke="#132e65" stroke-width="1.5"></path><path d="M1119.42 561.5L1135.36 674.76" stroke="#132e65" stroke-width="1.5"></path><path d="M1119.42 561.5L1267.58 548.29" stroke="#132e65" stroke-width="1.5"></path><path d="M1135.36 674.76L1135.36 674.76" stroke="#132e65" stroke-width="1.5"></path><path d="M1293.89 -54.13L1293.89 -54.13" stroke="#132e65" stroke-width="1.5"></path><path d="M1293.89 -54.13L1391.95 -96.7" stroke="#132e65" stroke-width="1.5"></path><path d="M1289.97 245.1L1289.97 245.1" stroke="#132e65" stroke-width="1.5"></path><path d="M1289.97 245.1L1437.32 257" stroke="#132e65" stroke-width="1.5"></path><path d="M1289.97 245.1L1270.46 397.23" stroke="#132e65" stroke-width="1.5"></path><path d="M1270.46 397.23L1270.46 397.23" stroke="#132e65" stroke-width="1.5"></path><path d="M1270.46 397.23L1393.68 384.31" stroke="#132e65" stroke-width="1.5"></path><path d="M1267.58 548.29L1267.58 548.29" stroke="#132e65" stroke-width="1.5"></path><path d="M1267.58 548.29L1416.57 543.02" stroke="#132e65" stroke-width="1.5"></path><path d="M1267.58 548.29L1270.46 397.23" stroke="#132e65" stroke-width="1.5"></path><path d="M1267.58 548.29L1135.36 674.76" stroke="#132e65" stroke-width="1.5"></path><path d="M1267.58 548.29L1400.08 698.52" stroke="#132e65" stroke-width="1.5"></path><path d="M1267.58 548.29L1155.23 379.49" stroke="#132e65" stroke-width="1.5"></path><path d="M1391.95 -96.7L1391.95 -96.7" stroke="#132e65" stroke-width="1.5"></path><path d="M1391.95 -96.7L1442.18 93.58" stroke="#132e65" stroke-width="1.5"></path><path d="M1391.95 -96.7L1600.62 -48.73" stroke="#132e65" stroke-width="1.5"></path><path d="M1391.95 -96.7L1540.35 62.1" stroke="#132e65" stroke-width="1.5"></path><path d="M1391.95 -96.7L1115.21 -94.35" stroke="#132e65" stroke-width="1.5"></path><path d="M1442.18 93.58L1442.18 93.58" stroke="#132e65" stroke-width="1.5"></path><path d="M1442.18 93.58L1540.35 62.1" stroke="#132e65" stroke-width="1.5"></path><path d="M1442.18 93.58L1556.81 195.06" stroke="#132e65" stroke-width="1.5"></path><path d="M1442.18 93.58L1437.32 257" stroke="#132e65" stroke-width="1.5"></path><path d="M1437.32 257L1437.32 257" stroke="#132e65" stroke-width="1.5"></path><path d="M1437.32 257L1393.68 384.31" stroke="#132e65" stroke-width="1.5"></path><path d="M1437.32 257L1556.81 195.06" stroke="#132e65" stroke-width="1.5"></path><path d="M1393.68 384.31L1393.68 384.31" stroke="#132e65" stroke-width="1.5"></path><path d="M1416.57 543.02L1416.57 543.02" stroke="#132e65" stroke-width="1.5"></path><path d="M1416.57 543.02L1400.08 698.52" stroke="#132e65" stroke-width="1.5"></path><path d="M1416.57 543.02L1393.68 384.31" stroke="#132e65" stroke-width="1.5"></path><path d="M1400.08 698.52L1400.08 698.52" stroke="#132e65" stroke-width="1.5"></path><path d="M1400.08 698.52L1610.47 669.45" stroke="#132e65" stroke-width="1.5"></path><path d="M1400.08 698.52L1135.36 674.76" stroke="#132e65" stroke-width="1.5"></path><path d="M1400.08 698.52L1119.42 561.5" stroke="#132e65" stroke-width="1.5"></path><path d="M1400.08 698.52L1393.68 384.31" stroke="#132e65" stroke-width="1.5"></path><path d="M1600.62 -48.73L1600.62 -48.73" stroke="#132e65" stroke-width="1.5"></path><path d="M1600.62 -48.73L1540.35 62.1" stroke="#132e65" stroke-width="1.5"></path><path d="M1600.62 -48.73L1442.18 93.58" stroke="#132e65" stroke-width="1.5"></path><path d="M1600.62 -48.73L1556.81 195.06" stroke="#132e65" stroke-width="1.5"></path><path d="M1540.35 62.1L1540.35 62.1" stroke="#132e65" stroke-width="1.5"></path><path d="M1540.35 62.1L1556.81 195.06" stroke="#132e65" stroke-width="1.5"></path><path d="M1556.81 195.06L1556.81 195.06" stroke="#132e65" stroke-width="1.5"></path><path d="M1609.03 339.87L1609.03 339.87" stroke="#132e65" stroke-width="1.5"></path><path d="M1609.03 339.87L1556.81 195.06" stroke="#132e65" stroke-width="1.5"></path><path d="M1609.03 339.87L1437.32 257" stroke="#132e65" stroke-width="1.5"></path><path d="M1609.03 339.87L1393.68 384.31" stroke="#132e65" stroke-width="1.5"></path><path d="M1609.03 339.87L1416.57 543.02" stroke="#132e65" stroke-width="1.5"></path><path d="M1610.47 669.45L1610.47 669.45" stroke="#132e65" stroke-width="1.5"></path><path d="M1610.47 669.45L1416.57 543.02" stroke="#132e65" stroke-width="1.5"></path><path d="M1610.47 669.45L1609.03 339.87" stroke="#132e65" stroke-width="1.5"></path><path d="M1610.47 669.45L1393.68 384.31" stroke="#132e65" stroke-width="1.5"></path><circle r="5" cx="-105.21" cy="530.27" fill="#132e65"></circle><circle r="5" cx="-86.97" cy="711.18" fill="#132e65"></circle><circle r="5" cx="104.41" cy="374.33" fill="#132e65"></circle><circle r="5" cx="61.92" cy="560.71" fill="#132e65"></circle><circle r="5" cx="110.43" cy="694.68" fill="#132e65"></circle><circle r="5" cx="244.54" cy="541.31" fill="#132e65"></circle><circle r="5" cx="215.65" cy="667.67" fill="#132e65"></circle><circle r="5" cx="410.8" cy="340.1" fill="#132e65"></circle><circle r="5" cx="392.15" cy="533.24" fill="#132e65"></circle><circle r="5" cx="403.69" cy="692.69" fill="#132e65"></circle><circle r="5" cx="512.48" cy="346.9" fill="#132e65"></circle><circle r="5" cx="544.78" cy="502.48" fill="#132e65"></circle><circle r="5" cx="556.13" cy="681.33" fill="#132e65"></circle><circle r="5" cx="649.28" cy="404.2" fill="#132e65"></circle><circle r="5" cx="647.27" cy="512.2" fill="#132e65"></circle><circle r="5" cx="648.43" cy="677.12" fill="#132e65"></circle><circle r="5" cx="841.57" cy="95.27" fill="#132e65"></circle><circle r="5" cx="820.29" cy="246.53" fill="#132e65"></circle><circle r="5" cx="840.07" cy="376.77" fill="#132e65"></circle><circle r="5" cx="795.34" cy="520.02" fill="#132e65"></circle><circle r="5" cx="807.48" cy="690.51" fill="#132e65"></circle><circle r="5" cx="994.44" cy="-43.88" fill="#132e65"></circle><circle r="5" cx="976.37" cy="41.16" fill="#132e65"></circle><circle r="5" cx="960.28" cy="259.72" fill="#132e65"></circle><circle r="5" cx="964.24" cy="349.06" fill="#132e65"></circle><circle r="5" cx="981.57" cy="528.74" fill="#132e65"></circle><circle r="5" cx="1012.04" cy="681.72" fill="#132e65"></circle><circle r="5" cx="1115.21" cy="-94.35" fill="#132e65"></circle><circle r="5" cx="1150.52" cy="111.86" fill="#132e65"></circle><circle r="5" cx="1092.31" cy="230.83" fill="#132e65"></circle><circle r="5" cx="1155.23" cy="379.49" fill="#132e65"></circle><circle r="5" cx="1119.42" cy="561.5" fill="#132e65"></circle><circle r="5" cx="1135.36" cy="674.76" fill="#132e65"></circle><circle r="5" cx="1293.89" cy="-54.13" fill="#132e65"></circle><circle r="5" cx="1289.97" cy="245.1" fill="#132e65"></circle><circle r="5" cx="1270.46" cy="397.23" fill="#132e65"></circle><circle r="5" cx="1267.58" cy="548.29" fill="#132e65"></circle><circle r="5" cx="1391.95" cy="-96.7" fill="#132e65"></circle><circle r="5" cx="1442.18" cy="93.58" fill="#132e65"></circle><circle r="5" cx="1437.32" cy="257" fill="#132e65"></circle><circle r="5" cx="1393.68" cy="384.31" fill="#132e65"></circle><circle r="5" cx="1416.57" cy="543.02" fill="#132e65"></circle><circle r="5" cx="1400.08" cy="698.52" fill="#132e65"></circle><circle r="5" cx="1600.62" cy="-48.73" fill="#132e65"></circle><circle r="5" cx="1540.35" cy="62.1" fill="#132e65"></circle><circle r="5" cx="1556.81" cy="195.06" fill="#132e65"></circle><circle r="5" cx="1609.03" cy="339.87" fill="#132e65"></circle><circle r="5" cx="1610.47" cy="669.45" fill="#132e65"></circle><path d="M342.64 550.75L342.64 550.75" stroke="hsl(228.5, 77.2%, 51.5%)" stroke-width="1.5"></path><path d="M342.64 550.75L388.37 685.2" stroke="hsl(228.5, 77.2%, 51.5%)" stroke-width="1.5"></path><path d="M342.64 550.75L198.08 512.24" stroke="hsl(228.5, 77.2%, 51.5%)" stroke-width="1.5"></path><path d="M342.64 550.75L514.6 488.52" stroke="hsl(228.5, 77.2%, 51.5%)" stroke-width="1.5"></path><path d="M342.64 550.75L207.16 681.56" stroke="hsl(228.5, 77.2%, 51.5%)" stroke-width="1.5"></path><path d="M342.64 550.75L499.76 707.68" stroke="hsl(228.5, 77.2%, 51.5%)" stroke-width="1.5"></path><path d="M342.64 550.75L97.83 497.86" stroke="hsl(228.5, 77.2%, 51.5%)" stroke-width="1.5"></path><path d="M1292.28 339.28L1292.28 339.28" stroke="hsl(228.5, 77.2%, 51.5%)" stroke-width="1.5"></path><path d="M1292.28 339.28L1307.4 222.58" stroke="hsl(228.5, 77.2%, 51.5%)" stroke-width="1.5"></path><path d="M1292.28 339.28L1429.65 260.4" stroke="hsl(228.5, 77.2%, 51.5%)" stroke-width="1.5"></path><path d="M1292.28 339.28L1126.65 354.94" stroke="hsl(228.5, 77.2%, 51.5%)" stroke-width="1.5"></path><path d="M1292.28 339.28L1451.61 391.99" stroke="hsl(228.5, 77.2%, 51.5%)" stroke-width="1.5"></path><path d="M1292.28 339.28L1280.11 511.76" stroke="hsl(228.5, 77.2%, 51.5%)" stroke-width="1.5"></path><path d="M-90.85 496.61L-90.85 496.61" stroke="hsl(228.5, 77.2%, 51.5%)" stroke-width="1.5"></path><path d="M-90.85 496.61L-81.86 676.66" stroke="hsl(228.5, 77.2%, 51.5%)" stroke-width="1.5"></path><path d="M-90.85 496.61L97.83 497.86" stroke="hsl(228.5, 77.2%, 51.5%)" stroke-width="1.5"></path><path d="M-90.85 496.61L97.1 650.84" stroke="hsl(228.5, 77.2%, 51.5%)" stroke-width="1.5"></path><path d="M-81.86 676.66L-81.86 676.66" stroke="hsl(228.5, 77.2%, 51.5%)" stroke-width="1.5"></path><path d="M-81.86 676.66L97.1 650.84" stroke="hsl(228.5, 77.2%, 51.5%)" stroke-width="1.5"></path><path d="M97.83 497.86L97.83 497.86" stroke="hsl(228.5, 77.2%, 51.5%)" stroke-width="1.5"></path><path d="M97.83 497.86L198.08 512.24" stroke="hsl(228.5, 77.2%, 51.5%)" stroke-width="1.5"></path><path d="M97.83 497.86L97.1 650.84" stroke="hsl(228.5, 77.2%, 51.5%)" stroke-width="1.5"></path><path d="M97.83 497.86L207.16 681.56" stroke="hsl(228.5, 77.2%, 51.5%)" stroke-width="1.5"></path><path d="M97.1 650.84L97.1 650.84" stroke="hsl(228.5, 77.2%, 51.5%)" stroke-width="1.5"></path><path d="M97.1 650.84L207.16 681.56" stroke="hsl(228.5, 77.2%, 51.5%)" stroke-width="1.5"></path><path d="M97.1 650.84L198.08 512.24" stroke="hsl(228.5, 77.2%, 51.5%)" stroke-width="1.5"></path><path d="M97.1 650.84L342.64 550.75" stroke="hsl(228.5, 77.2%, 51.5%)" stroke-width="1.5"></path><path d="M198.08 512.24L198.08 512.24" stroke="hsl(228.5, 77.2%, 51.5%)" stroke-width="1.5"></path><path d="M198.08 512.24L207.16 681.56" stroke="hsl(228.5, 77.2%, 51.5%)" stroke-width="1.5"></path><path d="M207.16 681.56L207.16 681.56" stroke="hsl(228.5, 77.2%, 51.5%)" stroke-width="1.5"></path><path d="M207.16 681.56L388.37 685.2" stroke="hsl(228.5, 77.2%, 51.5%)" stroke-width="1.5"></path><path d="M388.37 685.2L388.37 685.2" stroke="hsl(228.5, 77.2%, 51.5%)" stroke-width="1.5"></path><path d="M388.37 685.2L499.76 707.68" stroke="hsl(228.5, 77.2%, 51.5%)" stroke-width="1.5"></path><path d="M388.37 685.2L514.6 488.52" stroke="hsl(228.5, 77.2%, 51.5%)" stroke-width="1.5"></path><path d="M388.37 685.2L198.08 512.24" stroke="hsl(228.5, 77.2%, 51.5%)" stroke-width="1.5"></path><path d="M514.6 488.52L514.6 488.52" stroke="hsl(228.5, 77.2%, 51.5%)" stroke-width="1.5"></path><path d="M514.6 488.52L675.82 551.43" stroke="hsl(228.5, 77.2%, 51.5%)" stroke-width="1.5"></path><path d="M514.6 488.52L669.55 398.76" stroke="hsl(228.5, 77.2%, 51.5%)" stroke-width="1.5"></path><path d="M499.76 707.68L499.76 707.68" stroke="hsl(228.5, 77.2%, 51.5%)" stroke-width="1.5"></path><path d="M499.76 707.68L651.68 641.81" stroke="hsl(228.5, 77.2%, 51.5%)" stroke-width="1.5"></path><path d="M499.76 707.68L514.6 488.52" stroke="hsl(228.5, 77.2%, 51.5%)" stroke-width="1.5"></path><path d="M499.76 707.68L675.82 551.43" stroke="hsl(228.5, 77.2%, 51.5%)" stroke-width="1.5"></path><path d="M499.76 707.68L207.16 681.56" stroke="hsl(228.5, 77.2%, 51.5%)" stroke-width="1.5"></path><path d="M669.55 398.76L669.55 398.76" stroke="hsl(228.5, 77.2%, 51.5%)" stroke-width="1.5"></path><path d="M669.55 398.76L797.63 382.33" stroke="hsl(228.5, 77.2%, 51.5%)" stroke-width="1.5"></path><path d="M669.55 398.76L675.82 551.43" stroke="hsl(228.5, 77.2%, 51.5%)" stroke-width="1.5"></path><path d="M669.55 398.76L799.21 552.94" stroke="hsl(228.5, 77.2%, 51.5%)" stroke-width="1.5"></path><path d="M669.55 398.76L651.68 641.81" stroke="hsl(228.5, 77.2%, 51.5%)" stroke-width="1.5"></path><path d="M669.55 398.76L813.81 669.81" stroke="hsl(228.5, 77.2%, 51.5%)" stroke-width="1.5"></path><path d="M675.82 551.43L675.82 551.43" stroke="hsl(228.5, 77.2%, 51.5%)" stroke-width="1.5"></path><path d="M675.82 551.43L651.68 641.81" stroke="hsl(228.5, 77.2%, 51.5%)" stroke-width="1.5"></path><path d="M651.68 641.81L651.68 641.81" stroke="hsl(228.5, 77.2%, 51.5%)" stroke-width="1.5"></path><path d="M651.68 641.81L813.81 669.81" stroke="hsl(228.5, 77.2%, 51.5%)" stroke-width="1.5"></path><path d="M797.63 382.33L797.63 382.33" stroke="hsl(228.5, 77.2%, 51.5%)" stroke-width="1.5"></path><path d="M797.63 382.33L799.21 552.94" stroke="hsl(228.5, 77.2%, 51.5%)" stroke-width="1.5"></path><path d="M797.63 382.33L997.83 372.38" stroke="hsl(228.5, 77.2%, 51.5%)" stroke-width="1.5"></path><path d="M797.63 382.33L675.82 551.43" stroke="hsl(228.5, 77.2%, 51.5%)" stroke-width="1.5"></path><path d="M797.63 382.33L813.81 669.81" stroke="hsl(228.5, 77.2%, 51.5%)" stroke-width="1.5"></path><path d="M797.63 382.33L651.68 641.81" stroke="hsl(228.5, 77.2%, 51.5%)" stroke-width="1.5"></path><path d="M799.21 552.94L799.21 552.94" stroke="hsl(228.5, 77.2%, 51.5%)" stroke-width="1.5"></path><path d="M799.21 552.94L813.81 669.81" stroke="hsl(228.5, 77.2%, 51.5%)" stroke-width="1.5"></path><path d="M799.21 552.94L675.82 551.43" stroke="hsl(228.5, 77.2%, 51.5%)" stroke-width="1.5"></path><path d="M813.81 669.81L813.81 669.81" stroke="hsl(228.5, 77.2%, 51.5%)" stroke-width="1.5"></path><path d="M813.81 669.81L953.31 681.85" stroke="hsl(228.5, 77.2%, 51.5%)" stroke-width="1.5"></path><path d="M813.81 669.81L675.82 551.43" stroke="hsl(228.5, 77.2%, 51.5%)" stroke-width="1.5"></path><path d="M997.83 372.38L997.83 372.38" stroke="hsl(228.5, 77.2%, 51.5%)" stroke-width="1.5"></path><path d="M997.83 372.38L1126.65 354.94" stroke="hsl(228.5, 77.2%, 51.5%)" stroke-width="1.5"></path><path d="M997.83 372.38L1095.48 518.61" stroke="hsl(228.5, 77.2%, 51.5%)" stroke-width="1.5"></path><path d="M997.83 372.38L1090.78 217.15" stroke="hsl(228.5, 77.2%, 51.5%)" stroke-width="1.5"></path><path d="M997.83 372.38L799.21 552.94" stroke="hsl(228.5, 77.2%, 51.5%)" stroke-width="1.5"></path><path d="M953.31 681.85L953.31 681.85" stroke="hsl(228.5, 77.2%, 51.5%)" stroke-width="1.5"></path><path d="M953.31 681.85L1135.25 663.59" stroke="hsl(228.5, 77.2%, 51.5%)" stroke-width="1.5"></path><path d="M1142.18 65.08L1142.18 65.08" stroke="hsl(228.5, 77.2%, 51.5%)" stroke-width="1.5"></path><path d="M1142.18 65.08L1241.77 68.56" stroke="hsl(228.5, 77.2%, 51.5%)" stroke-width="1.5"></path><path d="M1142.18 65.08L1090.78 217.15" stroke="hsl(228.5, 77.2%, 51.5%)" stroke-width="1.5"></path><path d="M1142.18 65.08L1307.4 222.58" stroke="hsl(228.5, 77.2%, 51.5%)" stroke-width="1.5"></path><path d="M1142.18 65.08L1407.11 -46.16" stroke="hsl(228.5, 77.2%, 51.5%)" stroke-width="1.5"></path><path d="M1142.18 65.08L1126.65 354.94" stroke="hsl(228.5, 77.2%, 51.5%)" stroke-width="1.5"></path><path d="M1142.18 65.08L1452.92 59.7" stroke="hsl(228.5, 77.2%, 51.5%)" stroke-width="1.5"></path><path d="M1090.78 217.15L1090.78 217.15" stroke="hsl(228.5, 77.2%, 51.5%)" stroke-width="1.5"></path><path d="M1090.78 217.15L1126.65 354.94" stroke="hsl(228.5, 77.2%, 51.5%)" stroke-width="1.5"></path><path d="M1126.65 354.94L1126.65 354.94" stroke="hsl(228.5, 77.2%, 51.5%)" stroke-width="1.5"></path><path d="M1126.65 354.94L1095.48 518.61" stroke="hsl(228.5, 77.2%, 51.5%)" stroke-width="1.5"></path><path d="M1126.65 354.94L1280.11 511.76" stroke="hsl(228.5, 77.2%, 51.5%)" stroke-width="1.5"></path><path d="M1095.48 518.61L1095.48 518.61" stroke="hsl(228.5, 77.2%, 51.5%)" stroke-width="1.5"></path><path d="M1095.48 518.61L1135.25 663.59" stroke="hsl(228.5, 77.2%, 51.5%)" stroke-width="1.5"></path><path d="M1135.25 663.59L1135.25 663.59" stroke="hsl(228.5, 77.2%, 51.5%)" stroke-width="1.5"></path><path d="M1135.25 663.59L1265.75 638.98" stroke="hsl(228.5, 77.2%, 51.5%)" stroke-width="1.5"></path><path d="M1241.77 68.56L1241.77 68.56" stroke="hsl(228.5, 77.2%, 51.5%)" stroke-width="1.5"></path><path d="M1241.77 68.56L1307.4 222.58" stroke="hsl(228.5, 77.2%, 51.5%)" stroke-width="1.5"></path><path d="M1241.77 68.56L1407.11 -46.16" stroke="hsl(228.5, 77.2%, 51.5%)" stroke-width="1.5"></path><path d="M1241.77 68.56L1452.92 59.7" stroke="hsl(228.5, 77.2%, 51.5%)" stroke-width="1.5"></path><path d="M1307.4 222.58L1307.4 222.58" stroke="hsl(228.5, 77.2%, 51.5%)" stroke-width="1.5"></path><path d="M1307.4 222.58L1429.65 260.4" stroke="hsl(228.5, 77.2%, 51.5%)" stroke-width="1.5"></path><path d="M1280.11 511.76L1280.11 511.76" stroke="hsl(228.5, 77.2%, 51.5%)" stroke-width="1.5"></path><path d="M1280.11 511.76L1265.75 638.98" stroke="hsl(228.5, 77.2%, 51.5%)" stroke-width="1.5"></path><path d="M1280.11 511.76L1445.4 500.56" stroke="hsl(228.5, 77.2%, 51.5%)" stroke-width="1.5"></path><path d="M1280.11 511.76L1410.41 640.28" stroke="hsl(228.5, 77.2%, 51.5%)" stroke-width="1.5"></path><path d="M1265.75 638.98L1265.75 638.98" stroke="hsl(228.5, 77.2%, 51.5%)" stroke-width="1.5"></path><path d="M1265.75 638.98L1410.41 640.28" stroke="hsl(228.5, 77.2%, 51.5%)" stroke-width="1.5"></path><path d="M1265.75 638.98L1095.48 518.61" stroke="hsl(228.5, 77.2%, 51.5%)" stroke-width="1.5"></path><path d="M1265.75 638.98L1445.4 500.56" stroke="hsl(228.5, 77.2%, 51.5%)" stroke-width="1.5"></path><path d="M1407.11 -46.16L1407.11 -46.16" stroke="hsl(228.5, 77.2%, 51.5%)" stroke-width="1.5"></path><path d="M1407.11 -46.16L1452.92 59.7" stroke="hsl(228.5, 77.2%, 51.5%)" stroke-width="1.5"></path><path d="M1407.11 -46.16L1565.42 -51.86" stroke="hsl(228.5, 77.2%, 51.5%)" stroke-width="1.5"></path><path d="M1407.11 -46.16L1589.62 70.54" stroke="hsl(228.5, 77.2%, 51.5%)" stroke-width="1.5"></path><path d="M1407.11 -46.16L1307.4 222.58" stroke="hsl(228.5, 77.2%, 51.5%)" stroke-width="1.5"></path><path d="M1452.92 59.7L1452.92 59.7" stroke="hsl(228.5, 77.2%, 51.5%)" stroke-width="1.5"></path><path d="M1452.92 59.7L1589.62 70.54" stroke="hsl(228.5, 77.2%, 51.5%)" stroke-width="1.5"></path><path d="M1429.65 260.4L1429.65 260.4" stroke="hsl(228.5, 77.2%, 51.5%)" stroke-width="1.5"></path><path d="M1429.65 260.4L1542.13 224.54" stroke="hsl(228.5, 77.2%, 51.5%)" stroke-width="1.5"></path><path d="M1429.65 260.4L1451.61 391.99" stroke="hsl(228.5, 77.2%, 51.5%)" stroke-width="1.5"></path><path d="M1429.65 260.4L1602.33 341.8" stroke="hsl(228.5, 77.2%, 51.5%)" stroke-width="1.5"></path><path d="M1429.65 260.4L1452.92 59.7" stroke="hsl(228.5, 77.2%, 51.5%)" stroke-width="1.5"></path><path d="M1451.61 391.99L1451.61 391.99" stroke="hsl(228.5, 77.2%, 51.5%)" stroke-width="1.5"></path><path d="M1451.61 391.99L1445.4 500.56" stroke="hsl(228.5, 77.2%, 51.5%)" stroke-width="1.5"></path><path d="M1451.61 391.99L1602.33 341.8" stroke="hsl(228.5, 77.2%, 51.5%)" stroke-width="1.5"></path><path d="M1451.61 391.99L1542.13 224.54" stroke="hsl(228.5, 77.2%, 51.5%)" stroke-width="1.5"></path><path d="M1445.4 500.56L1445.4 500.56" stroke="hsl(228.5, 77.2%, 51.5%)" stroke-width="1.5"></path><path d="M1445.4 500.56L1580.7 538.45" stroke="hsl(228.5, 77.2%, 51.5%)" stroke-width="1.5"></path><path d="M1445.4 500.56L1410.41 640.28" stroke="hsl(228.5, 77.2%, 51.5%)" stroke-width="1.5"></path><path d="M1410.41 640.28L1410.41 640.28" stroke="hsl(228.5, 77.2%, 51.5%)" stroke-width="1.5"></path><path d="M1410.41 640.28L1580.7 538.45" stroke="hsl(228.5, 77.2%, 51.5%)" stroke-width="1.5"></path><path d="M1410.41 640.28L1451.61 391.99" stroke="hsl(228.5, 77.2%, 51.5%)" stroke-width="1.5"></path><path d="M1565.42 -51.86L1565.42 -51.86" stroke="hsl(228.5, 77.2%, 51.5%)" stroke-width="1.5"></path><path d="M1565.42 -51.86L1589.62 70.54" stroke="hsl(228.5, 77.2%, 51.5%)" stroke-width="1.5"></path><path d="M1565.42 -51.86L1452.92 59.7" stroke="hsl(228.5, 77.2%, 51.5%)" stroke-width="1.5"></path><path d="M1565.42 -51.86L1542.13 224.54" stroke="hsl(228.5, 77.2%, 51.5%)" stroke-width="1.5"></path><path d="M1565.42 -51.86L1429.65 260.4" stroke="hsl(228.5, 77.2%, 51.5%)" stroke-width="1.5"></path><path d="M1589.62 70.54L1589.62 70.54" stroke="hsl(228.5, 77.2%, 51.5%)" stroke-width="1.5"></path><path d="M1589.62 70.54L1542.13 224.54" stroke="hsl(228.5, 77.2%, 51.5%)" stroke-width="1.5"></path><path d="M1589.62 70.54L1429.65 260.4" stroke="hsl(228.5, 77.2%, 51.5%)" stroke-width="1.5"></path><path d="M1589.62 70.54L1602.33 341.8" stroke="hsl(228.5, 77.2%, 51.5%)" stroke-width="1.5"></path><path d="M1542.13 224.54L1542.13 224.54" stroke="hsl(228.5, 77.2%, 51.5%)" stroke-width="1.5"></path><path d="M1542.13 224.54L1602.33 341.8" stroke="hsl(228.5, 77.2%, 51.5%)" stroke-width="1.5"></path><path d="M1602.33 341.8L1602.33 341.8" stroke="hsl(228.5, 77.2%, 51.5%)" stroke-width="1.5"></path><path d="M1602.33 341.8L1580.7 538.45" stroke="hsl(228.5, 77.2%, 51.5%)" stroke-width="1.5"></path><path d="M1580.7 538.45L1580.7 538.45" stroke="hsl(228.5, 77.2%, 51.5%)" stroke-width="1.5"></path><path d="M1580.7 538.45L1451.61 391.99" stroke="hsl(228.5, 77.2%, 51.5%)" stroke-width="1.5"></path><circle r="25" cx="342.64" cy="550.75" fill="url(&quot;#SvgjsRadialGradient1050&quot;)"></circle><circle r="25" cx="1292.28" cy="339.28" fill="url(&quot;#SvgjsRadialGradient1050&quot;)"></circle><circle r="5" cx="-90.85" cy="496.61" fill="#8b9ad9"></circle><circle r="5" cx="-81.86" cy="676.66" fill="#8b9ad9"></circle><circle r="5" cx="97.83" cy="497.86" fill="#8b9ad9"></circle><circle r="5" cx="97.1" cy="650.84" fill="#8b9ad9"></circle><circle r="5" cx="198.08" cy="512.24" fill="#8b9ad9"></circle><circle r="5" cx="207.16" cy="681.56" fill="#8b9ad9"></circle><circle r="5" cx="388.37" cy="685.2" fill="#8b9ad9"></circle><circle r="5" cx="514.6" cy="488.52" fill="#8b9ad9"></circle><circle r="5" cx="499.76" cy="707.68" fill="#8b9ad9"></circle><circle r="5" cx="669.55" cy="398.76" fill="#8b9ad9"></circle><circle r="5" cx="675.82" cy="551.43" fill="#8b9ad9"></circle><circle r="5" cx="651.68" cy="641.81" fill="#8b9ad9"></circle><circle r="5" cx="797.63" cy="382.33" fill="#8b9ad9"></circle><circle r="5" cx="799.21" cy="552.94" fill="#8b9ad9"></circle><circle r="5" cx="813.81" cy="669.81" fill="#8b9ad9"></circle><circle r="5" cx="997.83" cy="372.38" fill="#8b9ad9"></circle><circle r="5" cx="953.31" cy="681.85" fill="#8b9ad9"></circle><circle r="5" cx="1142.18" cy="65.08" fill="#8b9ad9"></circle><circle r="5" cx="1090.78" cy="217.15" fill="#8b9ad9"></circle><circle r="5" cx="1126.65" cy="354.94" fill="#8b9ad9"></circle><circle r="5" cx="1095.48" cy="518.61" fill="#8b9ad9"></circle><circle r="5" cx="1135.25" cy="663.59" fill="#8b9ad9"></circle><circle r="5" cx="1241.77" cy="68.56" fill="#8b9ad9"></circle><circle r="5" cx="1307.4" cy="222.58" fill="#8b9ad9"></circle><circle r="5" cx="1280.11" cy="511.76" fill="#8b9ad9"></circle><circle r="5" cx="1265.75" cy="638.98" fill="#8b9ad9"></circle><circle r="5" cx="1407.11" cy="-46.16" fill="#8b9ad9"></circle><circle r="5" cx="1452.92" cy="59.7" fill="#8b9ad9"></circle><circle r="5" cx="1429.65" cy="260.4" fill="#8b9ad9"></circle><circle r="5" cx="1451.61" cy="391.99" fill="#8b9ad9"></circle><circle r="5" cx="1445.4" cy="500.56" fill="#8b9ad9"></circle><circle r="5" cx="1410.41" cy="640.28" fill="#8b9ad9"></circle><circle r="5" cx="1565.42" cy="-51.86" fill="#8b9ad9"></circle><circle r="5" cx="1589.62" cy="70.54" fill="#8b9ad9"></circle><circle r="5" cx="1542.13" cy="224.54" fill="#8b9ad9"></circle><circle r="5" cx="1602.33" cy="341.8" fill="#8b9ad9"></circle><circle r="5" cx="1580.7" cy="538.45" fill="#8b9ad9"></circle></g><defs><mask id="SvgjsMask1049"><rect width="1440" height="560" fill="#ffffff"></rect></mask><radialGradient id="SvgjsRadialGradient1050"><stop stop-color="#ffffff" offset="0.1"></stop><stop stop-color="#1735b3" offset="0.2"></stop><stop stop-color="rgba(23, 53, 179, 0)" offset="1"></stop></radialGradient></defs></svg>