<svg xmlns="http://www.w3.org/2000/svg" version="1.1" xmlns:xlink="http://www.w3.org/1999/xlink" xmlns:svgjs="http://svgjs.dev/svgjs" width="1440" height="560" preserveAspectRatio="none" viewBox="0 0 1440 560"><g mask="url(&quot;#SvgjsMask1033&quot;)" fill="none"><path d="M-55.53 546.01L-55.53 546.01" stroke="#132e65" stroke-width="1.5"></path><path d="M-55.53 546.01L57.43 525.7" stroke="#132e65" stroke-width="1.5"></path><path d="M-55.53 546.01L-112.41 646.49" stroke="#132e65" stroke-width="1.5"></path><path d="M-55.53 546.01L76.62 677.81" stroke="#132e65" stroke-width="1.5"></path><path d="M-112.41 646.49L-112.41 646.49" stroke="#132e65" stroke-width="1.5"></path><path d="M-112.41 646.49L76.62 677.81" stroke="#132e65" stroke-width="1.5"></path><path d="M-112.41 646.49L57.43 525.7" stroke="#132e65" stroke-width="1.5"></path><path d="M76.85 383.8L76.85 383.8" stroke="#132e65" stroke-width="1.5"></path><path d="M76.85 383.8L57.43 525.7" stroke="#132e65" stroke-width="1.5"></path><path d="M57.43 525.7L57.43 525.7" stroke="#132e65" stroke-width="1.5"></path><path d="M57.43 525.7L209.12 535.24" stroke="#132e65" stroke-width="1.5"></path><path d="M57.43 525.7L76.62 677.81" stroke="#132e65" stroke-width="1.5"></path><path d="M57.43 525.7L227.44 647.8" stroke="#132e65" stroke-width="1.5"></path><path d="M76.62 677.81L76.62 677.81" stroke="#132e65" stroke-width="1.5"></path><path d="M76.62 677.81L227.44 647.8" stroke="#132e65" stroke-width="1.5"></path><path d="M76.62 677.81L209.12 535.24" stroke="#132e65" stroke-width="1.5"></path><path d="M242.43 412.19L242.43 412.19" stroke="#132e65" stroke-width="1.5"></path><path d="M242.43 412.19L209.12 535.24" stroke="#132e65" stroke-width="1.5"></path><path d="M242.43 412.19L407.51 402.76" stroke="#132e65" stroke-width="1.5"></path><path d="M242.43 412.19L76.85 383.8" stroke="#132e65" stroke-width="1.5"></path><path d="M242.43 412.19L57.43 525.7" stroke="#132e65" stroke-width="1.5"></path><path d="M242.43 412.19L227.44 647.8" stroke="#132e65" stroke-width="1.5"></path><path d="M242.43 412.19L492.28 377.17" stroke="#132e65" stroke-width="1.5"></path><path d="M209.12 535.24L209.12 535.24" stroke="#132e65" stroke-width="1.5"></path><path d="M209.12 535.24L227.44 647.8" stroke="#132e65" stroke-width="1.5"></path><path d="M227.44 647.8L227.44 647.8" stroke="#132e65" stroke-width="1.5"></path><path d="M227.44 647.8L409.18 667.88" stroke="#132e65" stroke-width="1.5"></path><path d="M227.44 647.8L488.62 687.09" stroke="#132e65" stroke-width="1.5"></path><path d="M407.51 402.76L407.51 402.76" stroke="#132e65" stroke-width="1.5"></path><path d="M407.51 402.76L492.28 377.17" stroke="#132e65" stroke-width="1.5"></path><path d="M409.18 667.88L409.18 667.88" stroke="#132e65" stroke-width="1.5"></path><path d="M409.18 667.88L488.62 687.09" stroke="#132e65" stroke-width="1.5"></path><path d="M409.18 667.88L534.57 556.87" stroke="#132e65" stroke-width="1.5"></path><path d="M492.28 377.17L492.28 377.17" stroke="#132e65" stroke-width="1.5"></path><path d="M492.28 377.17L534.57 556.87" stroke="#132e65" stroke-width="1.5"></path><path d="M492.28 377.17L686.07 359.69" stroke="#132e65" stroke-width="1.5"></path><path d="M492.28 377.17L669.78 254.61" stroke="#132e65" stroke-width="1.5"></path><path d="M492.28 377.17L669.67 527.15" stroke="#132e65" stroke-width="1.5"></path><path d="M534.57 556.87L534.57 556.87" stroke="#132e65" stroke-width="1.5"></path><path d="M534.57 556.87L488.62 687.09" stroke="#132e65" stroke-width="1.5"></path><path d="M534.57 556.87L669.67 527.15" stroke="#132e65" stroke-width="1.5"></path><path d="M534.57 556.87L407.51 402.76" stroke="#132e65" stroke-width="1.5"></path><path d="M488.62 687.09L488.62 687.09" stroke="#132e65" stroke-width="1.5"></path><path d="M488.62 687.09L681.78 710.19" stroke="#132e65" stroke-width="1.5"></path><path d="M488.62 687.09L669.67 527.15" stroke="#132e65" stroke-width="1.5"></path><path d="M669.78 254.61L669.78 254.61" stroke="#132e65" stroke-width="1.5"></path><path d="M669.78 254.61L686.07 359.69" stroke="#132e65" stroke-width="1.5"></path><path d="M669.78 254.61L791.69 231.82" stroke="#132e65" stroke-width="1.5"></path><path d="M669.78 254.61L847.39 357.83" stroke="#132e65" stroke-width="1.5"></path><path d="M686.07 359.69L686.07 359.69" stroke="#132e65" stroke-width="1.5"></path><path d="M686.07 359.69L847.39 357.83" stroke="#132e65" stroke-width="1.5"></path><path d="M686.07 359.69L791.69 231.82" stroke="#132e65" stroke-width="1.5"></path><path d="M686.07 359.69L669.67 527.15" stroke="#132e65" stroke-width="1.5"></path><path d="M686.07 359.69L788.6 514.14" stroke="#132e65" stroke-width="1.5"></path><path d="M669.67 527.15L669.67 527.15" stroke="#132e65" stroke-width="1.5"></path><path d="M669.67 527.15L788.6 514.14" stroke="#132e65" stroke-width="1.5"></path><path d="M669.67 527.15L681.78 710.19" stroke="#132e65" stroke-width="1.5"></path><path d="M669.67 527.15L831.27 675.86" stroke="#132e65" stroke-width="1.5"></path><path d="M681.78 710.19L681.78 710.19" stroke="#132e65" stroke-width="1.5"></path><path d="M681.78 710.19L831.27 675.86" stroke="#132e65" stroke-width="1.5"></path><path d="M681.78 710.19L534.57 556.87" stroke="#132e65" stroke-width="1.5"></path><path d="M681.78 710.19L788.6 514.14" stroke="#132e65" stroke-width="1.5"></path><path d="M681.78 710.19L409.18 667.88" stroke="#132e65" stroke-width="1.5"></path><path d="M848.83 101.28L848.83 101.28" stroke="#132e65" stroke-width="1.5"></path><path d="M848.83 101.28L956.48 54.57" stroke="#132e65" stroke-width="1.5"></path><path d="M848.83 101.28L791.69 231.82" stroke="#132e65" stroke-width="1.5"></path><path d="M848.83 101.28L976.42 222.23" stroke="#132e65" stroke-width="1.5"></path><path d="M791.69 231.82L791.69 231.82" stroke="#132e65" stroke-width="1.5"></path><path d="M791.69 231.82L847.39 357.83" stroke="#132e65" stroke-width="1.5"></path><path d="M847.39 357.83L847.39 357.83" stroke="#132e65" stroke-width="1.5"></path><path d="M847.39 357.83L978.05 394.08" stroke="#132e65" stroke-width="1.5"></path><path d="M847.39 357.83L788.6 514.14" stroke="#132e65" stroke-width="1.5"></path><path d="M847.39 357.83L976.42 222.23" stroke="#132e65" stroke-width="1.5"></path><path d="M788.6 514.14L788.6 514.14" stroke="#132e65" stroke-width="1.5"></path><path d="M788.6 514.14L831.27 675.86" stroke="#132e65" stroke-width="1.5"></path><path d="M788.6 514.14L1003.56 498.54" stroke="#132e65" stroke-width="1.5"></path><path d="M831.27 675.86L831.27 675.86" stroke="#132e65" stroke-width="1.5"></path><path d="M831.27 675.86L967.02 709.5" stroke="#132e65" stroke-width="1.5"></path><path d="M956.48 54.57L956.48 54.57" stroke="#132e65" stroke-width="1.5"></path><path d="M956.48 54.57L1104.99 45.04" stroke="#132e65" stroke-width="1.5"></path><path d="M976.42 222.23L976.42 222.23" stroke="#132e65" stroke-width="1.5"></path><path d="M976.42 222.23L956.48 54.57" stroke="#132e65" stroke-width="1.5"></path><path d="M976.42 222.23L978.05 394.08" stroke="#132e65" stroke-width="1.5"></path><path d="M978.05 394.08L978.05 394.08" stroke="#132e65" stroke-width="1.5"></path><path d="M978.05 394.08L1003.56 498.54" stroke="#132e65" stroke-width="1.5"></path><path d="M978.05 394.08L1096.31 353.69" stroke="#132e65" stroke-width="1.5"></path><path d="M1003.56 498.54L1003.56 498.54" stroke="#132e65" stroke-width="1.5"></path><path d="M1003.56 498.54L1130.04 517.74" stroke="#132e65" stroke-width="1.5"></path><path d="M1003.56 498.54L1096.31 353.69" stroke="#132e65" stroke-width="1.5"></path><path d="M967.02 709.5L967.02 709.5" stroke="#132e65" stroke-width="1.5"></path><path d="M967.02 709.5L1003.56 498.54" stroke="#132e65" stroke-width="1.5"></path><path d="M1105.33 -74.15L1105.33 -74.15" stroke="#132e65" stroke-width="1.5"></path><path d="M1105.33 -74.15L1104.99 45.04" stroke="#132e65" stroke-width="1.5"></path><path d="M1105.33 -74.15L1247.13 -56.08" stroke="#132e65" stroke-width="1.5"></path><path d="M1104.99 45.04L1104.99 45.04" stroke="#132e65" stroke-width="1.5"></path><path d="M1104.99 45.04L1247.13 -56.08" stroke="#132e65" stroke-width="1.5"></path><path d="M1096.31 353.69L1096.31 353.69" stroke="#132e65" stroke-width="1.5"></path><path d="M1096.31 353.69L1130.04 517.74" stroke="#132e65" stroke-width="1.5"></path><path d="M1130.04 517.74L1130.04 517.74" stroke="#132e65" stroke-width="1.5"></path><path d="M1130.04 517.74L1280.27 530.84" stroke="#132e65" stroke-width="1.5"></path><path d="M1247.13 -56.08L1247.13 -56.08" stroke="#132e65" stroke-width="1.5"></path><path d="M1247.13 -56.08L1287.77 81.8" stroke="#132e65" stroke-width="1.5"></path><path d="M1287.77 81.8L1287.77 81.8" stroke="#132e65" stroke-width="1.5"></path><path d="M1287.77 81.8L1417.29 50.14" stroke="#132e65" stroke-width="1.5"></path><path d="M1287.77 81.8L1247.04 243.58" stroke="#132e65" stroke-width="1.5"></path><path d="M1287.77 81.8L1104.99 45.04" stroke="#132e65" stroke-width="1.5"></path><path d="M1287.77 81.8L1392.88 242.86" stroke="#132e65" stroke-width="1.5"></path><path d="M1287.77 81.8L1450.81 -38.47" stroke="#132e65" stroke-width="1.5"></path><path d="M1247.04 243.58L1247.04 243.58" stroke="#132e65" stroke-width="1.5"></path><path d="M1247.04 243.58L1392.88 242.86" stroke="#132e65" stroke-width="1.5"></path><path d="M1247.04 243.58L1096.31 353.69" stroke="#132e65" stroke-width="1.5"></path><path d="M1247.04 243.58L1104.99 45.04" stroke="#132e65" stroke-width="1.5"></path><path d="M1280.27 530.84L1280.27 530.84" stroke="#132e65" stroke-width="1.5"></path><path d="M1280.27 530.84L1287.78 692.08" stroke="#132e65" stroke-width="1.5"></path><path d="M1280.27 530.84L1407.41 667.02" stroke="#132e65" stroke-width="1.5"></path><path d="M1280.27 530.84L1459.54 382.99" stroke="#132e65" stroke-width="1.5"></path><path d="M1280.27 530.84L1096.31 353.69" stroke="#132e65" stroke-width="1.5"></path><path d="M1287.78 692.08L1287.78 692.08" stroke="#132e65" stroke-width="1.5"></path><path d="M1287.78 692.08L1407.41 667.02" stroke="#132e65" stroke-width="1.5"></path><path d="M1287.78 692.08L1130.04 517.74" stroke="#132e65" stroke-width="1.5"></path><path d="M1287.78 692.08L1561.32 641.87" stroke="#132e65" stroke-width="1.5"></path><path d="M1287.78 692.08L967.02 709.5" stroke="#132e65" stroke-width="1.5"></path><path d="M1287.78 692.08L1003.56 498.54" stroke="#132e65" stroke-width="1.5"></path><path d="M1450.81 -38.47L1450.81 -38.47" stroke="#132e65" stroke-width="1.5"></path><path d="M1450.81 -38.47L1417.29 50.14" stroke="#132e65" stroke-width="1.5"></path><path d="M1450.81 -38.47L1599.4 -51.25" stroke="#132e65" stroke-width="1.5"></path><path d="M1450.81 -38.47L1577.55 90.84" stroke="#132e65" stroke-width="1.5"></path><path d="M1450.81 -38.47L1247.13 -56.08" stroke="#132e65" stroke-width="1.5"></path><path d="M1417.29 50.14L1417.29 50.14" stroke="#132e65" stroke-width="1.5"></path><path d="M1417.29 50.14L1577.55 90.84" stroke="#132e65" stroke-width="1.5"></path><path d="M1392.88 242.86L1392.88 242.86" stroke="#132e65" stroke-width="1.5"></path><path d="M1392.88 242.86L1459.54 382.99" stroke="#132e65" stroke-width="1.5"></path><path d="M1459.54 382.99L1459.54 382.99" stroke="#132e65" stroke-width="1.5"></path><path d="M1459.54 382.99L1575.6 357.04" stroke="#132e65" stroke-width="1.5"></path><path d="M1459.54 382.99L1597.59 534.64" stroke="#132e65" stroke-width="1.5"></path><path d="M1459.54 382.99L1566.4 205.84" stroke="#132e65" stroke-width="1.5"></path><path d="M1407.41 667.02L1407.41 667.02" stroke="#132e65" stroke-width="1.5"></path><path d="M1407.41 667.02L1561.32 641.87" stroke="#132e65" stroke-width="1.5"></path><path d="M1599.4 -51.25L1599.4 -51.25" stroke="#132e65" stroke-width="1.5"></path><path d="M1599.4 -51.25L1577.55 90.84" stroke="#132e65" stroke-width="1.5"></path><path d="M1577.55 90.84L1577.55 90.84" stroke="#132e65" stroke-width="1.5"></path><path d="M1577.55 90.84L1566.4 205.84" stroke="#132e65" stroke-width="1.5"></path><path d="M1566.4 205.84L1566.4 205.84" stroke="#132e65" stroke-width="1.5"></path><path d="M1575.6 357.04L1575.6 357.04" stroke="#132e65" stroke-width="1.5"></path><path d="M1575.6 357.04L1566.4 205.84" stroke="#132e65" stroke-width="1.5"></path><path d="M1597.59 534.64L1597.59 534.64" stroke="#132e65" stroke-width="1.5"></path><path d="M1597.59 534.64L1561.32 641.87" stroke="#132e65" stroke-width="1.5"></path><path d="M1597.59 534.64L1575.6 357.04" stroke="#132e65" stroke-width="1.5"></path><path d="M1561.32 641.87L1561.32 641.87" stroke="#132e65" stroke-width="1.5"></path><path d="M1561.32 641.87L1459.54 382.99" stroke="#132e65" stroke-width="1.5"></path><path d="M1561.32 641.87L1575.6 357.04" stroke="#132e65" stroke-width="1.5"></path><circle r="5" cx="-55.53" cy="546.01" fill="#132e65"></circle><circle r="5" cx="-112.41" cy="646.49" fill="#132e65"></circle><circle r="5" cx="76.85" cy="383.8" fill="#132e65"></circle><circle r="5" cx="57.43" cy="525.7" fill="#132e65"></circle><circle r="5" cx="76.62" cy="677.81" fill="#132e65"></circle><circle r="5" cx="242.43" cy="412.19" fill="#132e65"></circle><circle r="5" cx="209.12" cy="535.24" fill="#132e65"></circle><circle r="5" cx="227.44" cy="647.8" fill="#132e65"></circle><circle r="5" cx="407.51" cy="402.76" fill="#132e65"></circle><circle r="5" cx="409.18" cy="667.88" fill="#132e65"></circle><circle r="5" cx="492.28" cy="377.17" fill="#132e65"></circle><circle r="5" cx="534.57" cy="556.87" fill="#132e65"></circle><circle r="5" cx="488.62" cy="687.09" fill="#132e65"></circle><circle r="5" cx="669.78" cy="254.61" fill="#132e65"></circle><circle r="5" cx="686.07" cy="359.69" fill="#132e65"></circle><circle r="5" cx="669.67" cy="527.15" fill="#132e65"></circle><circle r="5" cx="681.78" cy="710.19" fill="#132e65"></circle><circle r="5" cx="848.83" cy="101.28" fill="#132e65"></circle><circle r="5" cx="791.69" cy="231.82" fill="#132e65"></circle><circle r="5" cx="847.39" cy="357.83" fill="#132e65"></circle><circle r="5" cx="788.6" cy="514.14" fill="#132e65"></circle><circle r="5" cx="831.27" cy="675.86" fill="#132e65"></circle><circle r="5" cx="956.48" cy="54.57" fill="#132e65"></circle><circle r="5" cx="976.42" cy="222.23" fill="#132e65"></circle><circle r="5" cx="978.05" cy="394.08" fill="#132e65"></circle><circle r="5" cx="1003.56" cy="498.54" fill="#132e65"></circle><circle r="5" cx="967.02" cy="709.5" fill="#132e65"></circle><circle r="5" cx="1105.33" cy="-74.15" fill="#132e65"></circle><circle r="5" cx="1104.99" cy="45.04" fill="#132e65"></circle><circle r="5" cx="1096.31" cy="353.69" fill="#132e65"></circle><circle r="5" cx="1130.04" cy="517.74" fill="#132e65"></circle><circle r="5" cx="1247.13" cy="-56.08" fill="#132e65"></circle><circle r="5" cx="1287.77" cy="81.8" fill="#132e65"></circle><circle r="5" cx="1247.04" cy="243.58" fill="#132e65"></circle><circle r="5" cx="1280.27" cy="530.84" fill="#132e65"></circle><circle r="5" cx="1287.78" cy="692.08" fill="#132e65"></circle><circle r="5" cx="1450.81" cy="-38.47" fill="#132e65"></circle><circle r="5" cx="1417.29" cy="50.14" fill="#132e65"></circle><circle r="5" cx="1392.88" cy="242.86" fill="#132e65"></circle><circle r="5" cx="1459.54" cy="382.99" fill="#132e65"></circle><circle r="5" cx="1407.41" cy="667.02" fill="#132e65"></circle><circle r="5" cx="1599.4" cy="-51.25" fill="#132e65"></circle><circle r="5" cx="1577.55" cy="90.84" fill="#132e65"></circle><circle r="5" cx="1566.4" cy="205.84" fill="#132e65"></circle><circle r="5" cx="1575.6" cy="357.04" fill="#132e65"></circle><circle r="5" cx="1597.59" cy="534.64" fill="#132e65"></circle><circle r="5" cx="1561.32" cy="641.87" fill="#132e65"></circle><path d="M703.13 549.04L703.13 549.04" stroke="hsl(228.5, 77.2%, 51.5%)" stroke-width="1.5"></path><path d="M703.13 549.04L640.62 674.05" stroke="hsl(228.5, 77.2%, 51.5%)" stroke-width="1.5"></path><path d="M703.13 549.04L839.96 513.41" stroke="hsl(228.5, 77.2%, 51.5%)" stroke-width="1.5"></path><path d="M703.13 549.04L538.74 506.42" stroke="hsl(228.5, 77.2%, 51.5%)" stroke-width="1.5"></path><path d="M703.13 549.04L676.3 370.87" stroke="hsl(228.5, 77.2%, 51.5%)" stroke-width="1.5"></path><path d="M703.13 549.04L862.28 665.72" stroke="hsl(228.5, 77.2%, 51.5%)" stroke-width="1.5"></path><path d="M988.15 375.66L988.15 375.66" stroke="hsl(228.5, 77.2%, 51.5%)" stroke-width="1.5"></path><path d="M988.15 375.66L1089.94 407.06" stroke="hsl(228.5, 77.2%, 51.5%)" stroke-width="1.5"></path><path d="M988.15 375.66L950.46 541.88" stroke="hsl(228.5, 77.2%, 51.5%)" stroke-width="1.5"></path><path d="M988.15 375.66L798.31 362.6" stroke="hsl(228.5, 77.2%, 51.5%)" stroke-width="1.5"></path><path d="M988.15 375.66L839.96 513.41" stroke="hsl(228.5, 77.2%, 51.5%)" stroke-width="1.5"></path><path d="M1089.94 407.06L1089.94 407.06" stroke="hsl(228.5, 77.2%, 51.5%)" stroke-width="1.5"></path><path d="M1089.94 407.06L1161.85 530.85" stroke="hsl(228.5, 77.2%, 51.5%)" stroke-width="1.5"></path><path d="M1281.51 356.54L1281.51 356.54" stroke="hsl(228.5, 77.2%, 51.5%)" stroke-width="1.5"></path><path d="M1281.51 356.54L1403.5 354.86" stroke="hsl(228.5, 77.2%, 51.5%)" stroke-width="1.5"></path><path d="M1281.51 356.54L1269.5 189.2" stroke="hsl(228.5, 77.2%, 51.5%)" stroke-width="1.5"></path><path d="M1281.51 356.54L1395.55 231.53" stroke="hsl(228.5, 77.2%, 51.5%)" stroke-width="1.5"></path><path d="M1281.51 356.54L1089.94 407.06" stroke="hsl(228.5, 77.2%, 51.5%)" stroke-width="1.5"></path><path d="M1281.51 356.54L1279.75 556.71" stroke="hsl(228.5, 77.2%, 51.5%)" stroke-width="1.5"></path><path d="M1281.51 356.54L1161.85 530.85" stroke="hsl(228.5, 77.2%, 51.5%)" stroke-width="1.5"></path><path d="M1410.47 -37.81L1410.47 -37.81" stroke="hsl(228.5, 77.2%, 51.5%)" stroke-width="1.5"></path><path d="M1410.47 -37.81L1451.7 102.12" stroke="hsl(228.5, 77.2%, 51.5%)" stroke-width="1.5"></path><path d="M1410.47 -37.81L1248.51 -101.37" stroke="hsl(228.5, 77.2%, 51.5%)" stroke-width="1.5"></path><path d="M1410.47 -37.81L1546.25 75.08" stroke="hsl(228.5, 77.2%, 51.5%)" stroke-width="1.5"></path><path d="M1410.47 -37.81L1609.14 -90.91" stroke="hsl(228.5, 77.2%, 51.5%)" stroke-width="1.5"></path><path d="M1410.47 -37.81L1269.5 189.2" stroke="hsl(228.5, 77.2%, 51.5%)" stroke-width="1.5"></path><path d="M1410.47 -37.81L1395.55 231.53" stroke="hsl(228.5, 77.2%, 51.5%)" stroke-width="1.5"></path><path d="M1395.55 231.53L1395.55 231.53" stroke="hsl(228.5, 77.2%, 51.5%)" stroke-width="1.5"></path><path d="M1395.55 231.53L1403.5 354.86" stroke="hsl(228.5, 77.2%, 51.5%)" stroke-width="1.5"></path><path d="M1449.24 514.82L1449.24 514.82" stroke="hsl(228.5, 77.2%, 51.5%)" stroke-width="1.5"></path><path d="M1449.24 514.82L1609.33 525.43" stroke="hsl(228.5, 77.2%, 51.5%)" stroke-width="1.5"></path><path d="M1449.24 514.82L1449.75 678.84" stroke="hsl(228.5, 77.2%, 51.5%)" stroke-width="1.5"></path><path d="M1449.24 514.82L1403.5 354.86" stroke="hsl(228.5, 77.2%, 51.5%)" stroke-width="1.5"></path><path d="M1449.24 514.82L1279.75 556.71" stroke="hsl(228.5, 77.2%, 51.5%)" stroke-width="1.5"></path><path d="M1449.24 514.82L1566.29 341.21" stroke="hsl(228.5, 77.2%, 51.5%)" stroke-width="1.5"></path><path d="M-59.6 516.47L-59.6 516.47" stroke="hsl(228.5, 77.2%, 51.5%)" stroke-width="1.5"></path><path d="M-59.6 516.47L68.73 531.72" stroke="hsl(228.5, 77.2%, 51.5%)" stroke-width="1.5"></path><path d="M-59.6 516.47L-77.96 650.15" stroke="hsl(228.5, 77.2%, 51.5%)" stroke-width="1.5"></path><path d="M-77.96 650.15L-77.96 650.15" stroke="hsl(228.5, 77.2%, 51.5%)" stroke-width="1.5"></path><path d="M-77.96 650.15L82.7 655.21" stroke="hsl(228.5, 77.2%, 51.5%)" stroke-width="1.5"></path><path d="M68.73 531.72L68.73 531.72" stroke="hsl(228.5, 77.2%, 51.5%)" stroke-width="1.5"></path><path d="M68.73 531.72L82.7 655.21" stroke="hsl(228.5, 77.2%, 51.5%)" stroke-width="1.5"></path><path d="M68.73 531.72L204.41 536.88" stroke="hsl(228.5, 77.2%, 51.5%)" stroke-width="1.5"></path><path d="M68.73 531.72L-77.96 650.15" stroke="hsl(228.5, 77.2%, 51.5%)" stroke-width="1.5"></path><path d="M68.73 531.72L256.79 658.4" stroke="hsl(228.5, 77.2%, 51.5%)" stroke-width="1.5"></path><path d="M82.7 655.21L82.7 655.21" stroke="hsl(228.5, 77.2%, 51.5%)" stroke-width="1.5"></path><path d="M82.7 655.21L204.41 536.88" stroke="hsl(228.5, 77.2%, 51.5%)" stroke-width="1.5"></path><path d="M204.41 536.88L204.41 536.88" stroke="hsl(228.5, 77.2%, 51.5%)" stroke-width="1.5"></path><path d="M204.41 536.88L256.79 658.4" stroke="hsl(228.5, 77.2%, 51.5%)" stroke-width="1.5"></path><path d="M204.41 536.88L344.75 558.61" stroke="hsl(228.5, 77.2%, 51.5%)" stroke-width="1.5"></path><path d="M204.41 536.88L351.76 658.67" stroke="hsl(228.5, 77.2%, 51.5%)" stroke-width="1.5"></path><path d="M204.41 536.88L-59.6 516.47" stroke="hsl(228.5, 77.2%, 51.5%)" stroke-width="1.5"></path><path d="M256.79 658.4L256.79 658.4" stroke="hsl(228.5, 77.2%, 51.5%)" stroke-width="1.5"></path><path d="M256.79 658.4L351.76 658.67" stroke="hsl(228.5, 77.2%, 51.5%)" stroke-width="1.5"></path><path d="M256.79 658.4L344.75 558.61" stroke="hsl(228.5, 77.2%, 51.5%)" stroke-width="1.5"></path><path d="M256.79 658.4L82.7 655.21" stroke="hsl(228.5, 77.2%, 51.5%)" stroke-width="1.5"></path><path d="M344.75 558.61L344.75 558.61" stroke="hsl(228.5, 77.2%, 51.5%)" stroke-width="1.5"></path><path d="M344.75 558.61L351.76 658.67" stroke="hsl(228.5, 77.2%, 51.5%)" stroke-width="1.5"></path><path d="M351.76 658.67L351.76 658.67" stroke="hsl(228.5, 77.2%, 51.5%)" stroke-width="1.5"></path><path d="M351.76 658.67L538.74 506.42" stroke="hsl(228.5, 77.2%, 51.5%)" stroke-width="1.5"></path><path d="M351.76 658.67L82.7 655.21" stroke="hsl(228.5, 77.2%, 51.5%)" stroke-width="1.5"></path><path d="M351.76 658.67L640.62 674.05" stroke="hsl(228.5, 77.2%, 51.5%)" stroke-width="1.5"></path><path d="M538.74 506.42L538.74 506.42" stroke="hsl(228.5, 77.2%, 51.5%)" stroke-width="1.5"></path><path d="M538.74 506.42L676.3 370.87" stroke="hsl(228.5, 77.2%, 51.5%)" stroke-width="1.5"></path><path d="M538.74 506.42L640.62 674.05" stroke="hsl(228.5, 77.2%, 51.5%)" stroke-width="1.5"></path><path d="M538.74 506.42L344.75 558.61" stroke="hsl(228.5, 77.2%, 51.5%)" stroke-width="1.5"></path><path d="M676.3 370.87L676.3 370.87" stroke="hsl(228.5, 77.2%, 51.5%)" stroke-width="1.5"></path><path d="M676.3 370.87L798.31 362.6" stroke="hsl(228.5, 77.2%, 51.5%)" stroke-width="1.5"></path><path d="M676.3 370.87L839.96 513.41" stroke="hsl(228.5, 77.2%, 51.5%)" stroke-width="1.5"></path><path d="M676.3 370.87L640.62 674.05" stroke="hsl(228.5, 77.2%, 51.5%)" stroke-width="1.5"></path><path d="M676.3 370.87L988.15 375.66" stroke="hsl(228.5, 77.2%, 51.5%)" stroke-width="1.5"></path><path d="M640.62 674.05L640.62 674.05" stroke="hsl(228.5, 77.2%, 51.5%)" stroke-width="1.5"></path><path d="M640.62 674.05L862.28 665.72" stroke="hsl(228.5, 77.2%, 51.5%)" stroke-width="1.5"></path><path d="M640.62 674.05L839.96 513.41" stroke="hsl(228.5, 77.2%, 51.5%)" stroke-width="1.5"></path><path d="M640.62 674.05L940.66 680.45" stroke="hsl(228.5, 77.2%, 51.5%)" stroke-width="1.5"></path><path d="M798.31 362.6L798.31 362.6" stroke="hsl(228.5, 77.2%, 51.5%)" stroke-width="1.5"></path><path d="M798.31 362.6L839.96 513.41" stroke="hsl(228.5, 77.2%, 51.5%)" stroke-width="1.5"></path><path d="M839.96 513.41L839.96 513.41" stroke="hsl(228.5, 77.2%, 51.5%)" stroke-width="1.5"></path><path d="M839.96 513.41L950.46 541.88" stroke="hsl(228.5, 77.2%, 51.5%)" stroke-width="1.5"></path><path d="M862.28 665.72L862.28 665.72" stroke="hsl(228.5, 77.2%, 51.5%)" stroke-width="1.5"></path><path d="M862.28 665.72L940.66 680.45" stroke="hsl(228.5, 77.2%, 51.5%)" stroke-width="1.5"></path><path d="M862.28 665.72L950.46 541.88" stroke="hsl(228.5, 77.2%, 51.5%)" stroke-width="1.5"></path><path d="M862.28 665.72L839.96 513.41" stroke="hsl(228.5, 77.2%, 51.5%)" stroke-width="1.5"></path><path d="M950.46 541.88L950.46 541.88" stroke="hsl(228.5, 77.2%, 51.5%)" stroke-width="1.5"></path><path d="M950.46 541.88L940.66 680.45" stroke="hsl(228.5, 77.2%, 51.5%)" stroke-width="1.5"></path><path d="M950.46 541.88L1089.94 407.06" stroke="hsl(228.5, 77.2%, 51.5%)" stroke-width="1.5"></path><path d="M950.46 541.88L1133.85 644.15" stroke="hsl(228.5, 77.2%, 51.5%)" stroke-width="1.5"></path><path d="M940.66 680.45L940.66 680.45" stroke="hsl(228.5, 77.2%, 51.5%)" stroke-width="1.5"></path><path d="M940.66 680.45L839.96 513.41" stroke="hsl(228.5, 77.2%, 51.5%)" stroke-width="1.5"></path><path d="M940.66 680.45L1133.85 644.15" stroke="hsl(228.5, 77.2%, 51.5%)" stroke-width="1.5"></path><path d="M940.66 680.45L1161.85 530.85" stroke="hsl(228.5, 77.2%, 51.5%)" stroke-width="1.5"></path><path d="M1135.06 96.72L1135.06 96.72" stroke="hsl(228.5, 77.2%, 51.5%)" stroke-width="1.5"></path><path d="M1135.06 96.72L1269.5 189.2" stroke="hsl(228.5, 77.2%, 51.5%)" stroke-width="1.5"></path><path d="M1135.06 96.72L1248.51 -101.37" stroke="hsl(228.5, 77.2%, 51.5%)" stroke-width="1.5"></path><path d="M1135.06 96.72L1395.55 231.53" stroke="hsl(228.5, 77.2%, 51.5%)" stroke-width="1.5"></path><path d="M1135.06 96.72L1281.51 356.54" stroke="hsl(228.5, 77.2%, 51.5%)" stroke-width="1.5"></path><path d="M1135.06 96.72L1410.47 -37.81" stroke="hsl(228.5, 77.2%, 51.5%)" stroke-width="1.5"></path><path d="M1135.06 96.72L1089.94 407.06" stroke="hsl(228.5, 77.2%, 51.5%)" stroke-width="1.5"></path><path d="M1161.85 530.85L1161.85 530.85" stroke="hsl(228.5, 77.2%, 51.5%)" stroke-width="1.5"></path><path d="M1161.85 530.85L1133.85 644.15" stroke="hsl(228.5, 77.2%, 51.5%)" stroke-width="1.5"></path><path d="M1161.85 530.85L1279.75 556.71" stroke="hsl(228.5, 77.2%, 51.5%)" stroke-width="1.5"></path><path d="M1133.85 644.15L1133.85 644.15" stroke="hsl(228.5, 77.2%, 51.5%)" stroke-width="1.5"></path><path d="M1133.85 644.15L1241.02 672.86" stroke="hsl(228.5, 77.2%, 51.5%)" stroke-width="1.5"></path><path d="M1133.85 644.15L1279.75 556.71" stroke="hsl(228.5, 77.2%, 51.5%)" stroke-width="1.5"></path><path d="M1248.51 -101.37L1248.51 -101.37" stroke="hsl(228.5, 77.2%, 51.5%)" stroke-width="1.5"></path><path d="M1248.51 -101.37L1451.7 102.12" stroke="hsl(228.5, 77.2%, 51.5%)" stroke-width="1.5"></path><path d="M1248.51 -101.37L1269.5 189.2" stroke="hsl(228.5, 77.2%, 51.5%)" stroke-width="1.5"></path><path d="M1248.51 -101.37L1546.25 75.08" stroke="hsl(228.5, 77.2%, 51.5%)" stroke-width="1.5"></path><path d="M1269.5 189.2L1269.5 189.2" stroke="hsl(228.5, 77.2%, 51.5%)" stroke-width="1.5"></path><path d="M1269.5 189.2L1395.55 231.53" stroke="hsl(228.5, 77.2%, 51.5%)" stroke-width="1.5"></path><path d="M1279.75 556.71L1279.75 556.71" stroke="hsl(228.5, 77.2%, 51.5%)" stroke-width="1.5"></path><path d="M1279.75 556.71L1241.02 672.86" stroke="hsl(228.5, 77.2%, 51.5%)" stroke-width="1.5"></path><path d="M1279.75 556.71L1449.75 678.84" stroke="hsl(228.5, 77.2%, 51.5%)" stroke-width="1.5"></path><path d="M1241.02 672.86L1241.02 672.86" stroke="hsl(228.5, 77.2%, 51.5%)" stroke-width="1.5"></path><path d="M1241.02 672.86L1161.85 530.85" stroke="hsl(228.5, 77.2%, 51.5%)" stroke-width="1.5"></path><path d="M1241.02 672.86L1449.75 678.84" stroke="hsl(228.5, 77.2%, 51.5%)" stroke-width="1.5"></path><path d="M1451.7 102.12L1451.7 102.12" stroke="hsl(228.5, 77.2%, 51.5%)" stroke-width="1.5"></path><path d="M1451.7 102.12L1546.25 75.08" stroke="hsl(228.5, 77.2%, 51.5%)" stroke-width="1.5"></path><path d="M1451.7 102.12L1395.55 231.53" stroke="hsl(228.5, 77.2%, 51.5%)" stroke-width="1.5"></path><path d="M1451.7 102.12L1269.5 189.2" stroke="hsl(228.5, 77.2%, 51.5%)" stroke-width="1.5"></path><path d="M1451.7 102.12L1609.14 -90.91" stroke="hsl(228.5, 77.2%, 51.5%)" stroke-width="1.5"></path><path d="M1451.7 102.12L1403.5 354.86" stroke="hsl(228.5, 77.2%, 51.5%)" stroke-width="1.5"></path><path d="M1403.5 354.86L1403.5 354.86" stroke="hsl(228.5, 77.2%, 51.5%)" stroke-width="1.5"></path><path d="M1403.5 354.86L1566.29 341.21" stroke="hsl(228.5, 77.2%, 51.5%)" stroke-width="1.5"></path><path d="M1449.75 678.84L1449.75 678.84" stroke="hsl(228.5, 77.2%, 51.5%)" stroke-width="1.5"></path><path d="M1449.75 678.84L1550.4 709.23" stroke="hsl(228.5, 77.2%, 51.5%)" stroke-width="1.5"></path><path d="M1449.75 678.84L1609.33 525.43" stroke="hsl(228.5, 77.2%, 51.5%)" stroke-width="1.5"></path><path d="M1609.14 -90.91L1609.14 -90.91" stroke="hsl(228.5, 77.2%, 51.5%)" stroke-width="1.5"></path><path d="M1609.14 -90.91L1546.25 75.08" stroke="hsl(228.5, 77.2%, 51.5%)" stroke-width="1.5"></path><path d="M1546.25 75.08L1546.25 75.08" stroke="hsl(228.5, 77.2%, 51.5%)" stroke-width="1.5"></path><path d="M1566.29 341.21L1566.29 341.21" stroke="hsl(228.5, 77.2%, 51.5%)" stroke-width="1.5"></path><path d="M1566.29 341.21L1609.33 525.43" stroke="hsl(228.5, 77.2%, 51.5%)" stroke-width="1.5"></path><path d="M1566.29 341.21L1395.55 231.53" stroke="hsl(228.5, 77.2%, 51.5%)" stroke-width="1.5"></path><path d="M1609.33 525.43L1609.33 525.43" stroke="hsl(228.5, 77.2%, 51.5%)" stroke-width="1.5"></path><path d="M1609.33 525.43L1550.4 709.23" stroke="hsl(228.5, 77.2%, 51.5%)" stroke-width="1.5"></path><path d="M1550.4 709.23L1550.4 709.23" stroke="hsl(228.5, 77.2%, 51.5%)" stroke-width="1.5"></path><path d="M1550.4 709.23L1449.24 514.82" stroke="hsl(228.5, 77.2%, 51.5%)" stroke-width="1.5"></path><circle r="25" cx="703.13" cy="549.04" fill="url(&quot;#SvgjsRadialGradient1034&quot;)"></circle><circle r="25" cx="988.15" cy="375.66" fill="url(&quot;#SvgjsRadialGradient1034&quot;)"></circle><circle r="25" cx="1089.94" cy="407.06" fill="url(&quot;#SvgjsRadialGradient1034&quot;)"></circle><circle r="25" cx="1281.51" cy="356.54" fill="url(&quot;#SvgjsRadialGradient1034&quot;)"></circle><circle r="25" cx="1410.47" cy="-37.81" fill="url(&quot;#SvgjsRadialGradient1034&quot;)"></circle><circle r="25" cx="1395.55" cy="231.53" fill="url(&quot;#SvgjsRadialGradient1034&quot;)"></circle><circle r="25" cx="1449.24" cy="514.82" fill="url(&quot;#SvgjsRadialGradient1034&quot;)"></circle><circle r="5" cx="-59.6" cy="516.47" fill="#8b9ad9"></circle><circle r="5" cx="-77.96" cy="650.15" fill="#8b9ad9"></circle><circle r="5" cx="68.73" cy="531.72" fill="#8b9ad9"></circle><circle r="5" cx="82.7" cy="655.21" fill="#8b9ad9"></circle><circle r="5" cx="204.41" cy="536.88" fill="#8b9ad9"></circle><circle r="5" cx="256.79" cy="658.4" fill="#8b9ad9"></circle><circle r="5" cx="344.75" cy="558.61" fill="#8b9ad9"></circle><circle r="5" cx="351.76" cy="658.67" fill="#8b9ad9"></circle><circle r="5" cx="538.74" cy="506.42" fill="#8b9ad9"></circle><circle r="5" cx="676.3" cy="370.87" fill="#8b9ad9"></circle><circle r="5" cx="640.62" cy="674.05" fill="#8b9ad9"></circle><circle r="5" cx="798.31" cy="362.6" fill="#8b9ad9"></circle><circle r="5" cx="839.96" cy="513.41" fill="#8b9ad9"></circle><circle r="5" cx="862.28" cy="665.72" fill="#8b9ad9"></circle><circle r="5" cx="950.46" cy="541.88" fill="#8b9ad9"></circle><circle r="5" cx="940.66" cy="680.45" fill="#8b9ad9"></circle><circle r="5" cx="1135.06" cy="96.72" fill="#8b9ad9"></circle><circle r="5" cx="1161.85" cy="530.85" fill="#8b9ad9"></circle><circle r="5" cx="1133.85" cy="644.15" fill="#8b9ad9"></circle><circle r="5" cx="1248.51" cy="-101.37" fill="#8b9ad9"></circle><circle r="5" cx="1269.5" cy="189.2" fill="#8b9ad9"></circle><circle r="5" cx="1279.75" cy="556.71" fill="#8b9ad9"></circle><circle r="5" cx="1241.02" cy="672.86" fill="#8b9ad9"></circle><circle r="5" cx="1451.7" cy="102.12" fill="#8b9ad9"></circle><circle r="5" cx="1403.5" cy="354.86" fill="#8b9ad9"></circle><circle r="5" cx="1449.75" cy="678.84" fill="#8b9ad9"></circle><circle r="5" cx="1609.14" cy="-90.91" fill="#8b9ad9"></circle><circle r="5" cx="1546.25" cy="75.08" fill="#8b9ad9"></circle><circle r="5" cx="1566.29" cy="341.21" fill="#8b9ad9"></circle><circle r="5" cx="1609.33" cy="525.43" fill="#8b9ad9"></circle><circle r="5" cx="1550.4" cy="709.23" fill="#8b9ad9"></circle></g><defs><mask id="SvgjsMask1033"><rect width="1440" height="560" fill="#ffffff"></rect></mask><radialGradient id="SvgjsRadialGradient1034"><stop stop-color="#ffffff" offset="0.1"></stop><stop stop-color="#1735b3" offset="0.2"></stop><stop stop-color="rgba(23, 53, 179, 0)" offset="1"></stop></radialGradient></defs></svg>