<svg xmlns="http://www.w3.org/2000/svg" version="1.1" xmlns:xlink="http://www.w3.org/1999/xlink" xmlns:svgjs="http://svgjs.dev/svgjs" width="1440" height="560" preserveAspectRatio="none" viewBox="0 0 1440 560"><g mask="url(&quot;#SvgjsMask1039&quot;)" fill="none"><path d="M-43.58 374.39L-43.58 374.39" stroke="#132e65" stroke-width="1.5"></path><path d="M-43.58 374.39L42.87 342.97" stroke="#132e65" stroke-width="1.5"></path><path d="M-43.58 374.39L-86.64 512.81" stroke="#132e65" stroke-width="1.5"></path><path d="M-86.64 512.81L-86.64 512.81" stroke="#132e65" stroke-width="1.5"></path><path d="M-86.64 512.81L72.79 507.12" stroke="#132e65" stroke-width="1.5"></path><path d="M-86.64 512.81L47.79 641.66" stroke="#132e65" stroke-width="1.5"></path><path d="M-86.64 512.81L42.87 342.97" stroke="#132e65" stroke-width="1.5"></path><path d="M42.87 342.97L42.87 342.97" stroke="#132e65" stroke-width="1.5"></path><path d="M42.87 342.97L72.79 507.12" stroke="#132e65" stroke-width="1.5"></path><path d="M42.87 342.97L235.87 342.89" stroke="#132e65" stroke-width="1.5"></path><path d="M42.87 342.97L253.51 542.16" stroke="#132e65" stroke-width="1.5"></path><path d="M72.79 507.12L72.79 507.12" stroke="#132e65" stroke-width="1.5"></path><path d="M72.79 507.12L47.79 641.66" stroke="#132e65" stroke-width="1.5"></path><path d="M72.79 507.12L-43.58 374.39" stroke="#132e65" stroke-width="1.5"></path><path d="M72.79 507.12L253.51 542.16" stroke="#132e65" stroke-width="1.5"></path><path d="M72.79 507.12L223.2 638.63" stroke="#132e65" stroke-width="1.5"></path><path d="M47.79 641.66L47.79 641.66" stroke="#132e65" stroke-width="1.5"></path><path d="M47.79 641.66L223.2 638.63" stroke="#132e65" stroke-width="1.5"></path><path d="M47.79 641.66L253.51 542.16" stroke="#132e65" stroke-width="1.5"></path><path d="M47.79 641.66L-43.58 374.39" stroke="#132e65" stroke-width="1.5"></path><path d="M47.79 641.66L42.87 342.97" stroke="#132e65" stroke-width="1.5"></path><path d="M235.87 342.89L235.87 342.89" stroke="#132e65" stroke-width="1.5"></path><path d="M235.87 342.89L356.1 377.43" stroke="#132e65" stroke-width="1.5"></path><path d="M235.87 342.89L253.51 542.16" stroke="#132e65" stroke-width="1.5"></path><path d="M235.87 342.89L72.79 507.12" stroke="#132e65" stroke-width="1.5"></path><path d="M235.87 342.89L391.04 529.27" stroke="#132e65" stroke-width="1.5"></path><path d="M253.51 542.16L253.51 542.16" stroke="#132e65" stroke-width="1.5"></path><path d="M253.51 542.16L223.2 638.63" stroke="#132e65" stroke-width="1.5"></path><path d="M253.51 542.16L391.04 529.27" stroke="#132e65" stroke-width="1.5"></path><path d="M253.51 542.16L345.45 679.19" stroke="#132e65" stroke-width="1.5"></path><path d="M253.51 542.16L356.1 377.43" stroke="#132e65" stroke-width="1.5"></path><path d="M223.2 638.63L223.2 638.63" stroke="#132e65" stroke-width="1.5"></path><path d="M223.2 638.63L345.45 679.19" stroke="#132e65" stroke-width="1.5"></path><path d="M356.1 377.43L356.1 377.43" stroke="#132e65" stroke-width="1.5"></path><path d="M356.1 377.43L391.04 529.27" stroke="#132e65" stroke-width="1.5"></path><path d="M356.1 377.43L534.01 391.84" stroke="#132e65" stroke-width="1.5"></path><path d="M356.1 377.43L548.77 520.75" stroke="#132e65" stroke-width="1.5"></path><path d="M391.04 529.27L391.04 529.27" stroke="#132e65" stroke-width="1.5"></path><path d="M391.04 529.27L345.45 679.19" stroke="#132e65" stroke-width="1.5"></path><path d="M391.04 529.27L548.77 520.75" stroke="#132e65" stroke-width="1.5"></path><path d="M391.04 529.27L534.01 391.84" stroke="#132e65" stroke-width="1.5"></path><path d="M345.45 679.19L345.45 679.19" stroke="#132e65" stroke-width="1.5"></path><path d="M345.45 679.19L505.06 702.54" stroke="#132e65" stroke-width="1.5"></path><path d="M345.45 679.19L548.77 520.75" stroke="#132e65" stroke-width="1.5"></path><path d="M534.01 391.84L534.01 391.84" stroke="#132e65" stroke-width="1.5"></path><path d="M534.01 391.84L548.77 520.75" stroke="#132e65" stroke-width="1.5"></path><path d="M534.01 391.84L679.59 391.56" stroke="#132e65" stroke-width="1.5"></path><path d="M534.01 391.84L673.77 254.52" stroke="#132e65" stroke-width="1.5"></path><path d="M534.01 391.84L818.07 355.37" stroke="#132e65" stroke-width="1.5"></path><path d="M548.77 520.75L548.77 520.75" stroke="#132e65" stroke-width="1.5"></path><path d="M548.77 520.75L679.59 391.56" stroke="#132e65" stroke-width="1.5"></path><path d="M505.06 702.54L505.06 702.54" stroke="#132e65" stroke-width="1.5"></path><path d="M505.06 702.54L548.77 520.75" stroke="#132e65" stroke-width="1.5"></path><path d="M505.06 702.54L690.53 643.67" stroke="#132e65" stroke-width="1.5"></path><path d="M505.06 702.54L391.04 529.27" stroke="#132e65" stroke-width="1.5"></path><path d="M673.77 254.52L673.77 254.52" stroke="#132e65" stroke-width="1.5"></path><path d="M673.77 254.52L679.59 391.56" stroke="#132e65" stroke-width="1.5"></path><path d="M679.59 391.56L679.59 391.56" stroke="#132e65" stroke-width="1.5"></path><path d="M679.59 391.56L818.07 355.37" stroke="#132e65" stroke-width="1.5"></path><path d="M690.53 643.67L690.53 643.67" stroke="#132e65" stroke-width="1.5"></path><path d="M690.53 643.67L805.77 657.43" stroke="#132e65" stroke-width="1.5"></path><path d="M690.53 643.67L548.77 520.75" stroke="#132e65" stroke-width="1.5"></path><path d="M690.53 643.67L679.59 391.56" stroke="#132e65" stroke-width="1.5"></path><path d="M855.54 257.39L855.54 257.39" stroke="#132e65" stroke-width="1.5"></path><path d="M855.54 257.39L818.07 355.37" stroke="#132e65" stroke-width="1.5"></path><path d="M855.54 257.39L973.62 366.25" stroke="#132e65" stroke-width="1.5"></path><path d="M855.54 257.39L1010.47 213.86" stroke="#132e65" stroke-width="1.5"></path><path d="M855.54 257.39L673.77 254.52" stroke="#132e65" stroke-width="1.5"></path><path d="M818.07 355.37L818.07 355.37" stroke="#132e65" stroke-width="1.5"></path><path d="M805.77 657.43L805.77 657.43" stroke="#132e65" stroke-width="1.5"></path><path d="M805.77 657.43L966.1 491.02" stroke="#132e65" stroke-width="1.5"></path><path d="M805.77 657.43L548.77 520.75" stroke="#132e65" stroke-width="1.5"></path><path d="M999.03 -59.67L999.03 -59.67" stroke="#132e65" stroke-width="1.5"></path><path d="M999.03 -59.67L956 74.26" stroke="#132e65" stroke-width="1.5"></path><path d="M956 74.26L956 74.26" stroke="#132e65" stroke-width="1.5"></path><path d="M956 74.26L1010.47 213.86" stroke="#132e65" stroke-width="1.5"></path><path d="M956 74.26L1143.17 50.06" stroke="#132e65" stroke-width="1.5"></path><path d="M1010.47 213.86L1010.47 213.86" stroke="#132e65" stroke-width="1.5"></path><path d="M1010.47 213.86L1123.87 188.23" stroke="#132e65" stroke-width="1.5"></path><path d="M973.62 366.25L973.62 366.25" stroke="#132e65" stroke-width="1.5"></path><path d="M973.62 366.25L1089.54 410.6" stroke="#132e65" stroke-width="1.5"></path><path d="M973.62 366.25L966.1 491.02" stroke="#132e65" stroke-width="1.5"></path><path d="M966.1 491.02L966.1 491.02" stroke="#132e65" stroke-width="1.5"></path><path d="M966.1 491.02L1089.54 410.6" stroke="#132e65" stroke-width="1.5"></path><path d="M966.1 491.02L1104.67 545.7" stroke="#132e65" stroke-width="1.5"></path><path d="M966.1 491.02L818.07 355.37" stroke="#132e65" stroke-width="1.5"></path><path d="M1153.03 -60.14L1153.03 -60.14" stroke="#132e65" stroke-width="1.5"></path><path d="M1153.03 -60.14L1245.44 -86.87" stroke="#132e65" stroke-width="1.5"></path><path d="M1153.03 -60.14L1143.17 50.06" stroke="#132e65" stroke-width="1.5"></path><path d="M1153.03 -60.14L999.03 -59.67" stroke="#132e65" stroke-width="1.5"></path><path d="M1153.03 -60.14L1288.52 39.54" stroke="#132e65" stroke-width="1.5"></path><path d="M1153.03 -60.14L956 74.26" stroke="#132e65" stroke-width="1.5"></path><path d="M1143.17 50.06L1143.17 50.06" stroke="#132e65" stroke-width="1.5"></path><path d="M1143.17 50.06L1123.87 188.23" stroke="#132e65" stroke-width="1.5"></path><path d="M1143.17 50.06L1288.52 39.54" stroke="#132e65" stroke-width="1.5"></path><path d="M1123.87 188.23L1123.87 188.23" stroke="#132e65" stroke-width="1.5"></path><path d="M1123.87 188.23L1259.19 212.71" stroke="#132e65" stroke-width="1.5"></path><path d="M1123.87 188.23L956 74.26" stroke="#132e65" stroke-width="1.5"></path><path d="M1123.87 188.23L1288.52 39.54" stroke="#132e65" stroke-width="1.5"></path><path d="M1123.87 188.23L1089.54 410.6" stroke="#132e65" stroke-width="1.5"></path><path d="M1089.54 410.6L1089.54 410.6" stroke="#132e65" stroke-width="1.5"></path><path d="M1089.54 410.6L1104.67 545.7" stroke="#132e65" stroke-width="1.5"></path><path d="M1104.67 545.7L1104.67 545.7" stroke="#132e65" stroke-width="1.5"></path><path d="M1104.67 545.7L1125.18 670.46" stroke="#132e65" stroke-width="1.5"></path><path d="M1104.67 545.7L1258.88 641.95" stroke="#132e65" stroke-width="1.5"></path><path d="M1104.67 545.7L973.62 366.25" stroke="#132e65" stroke-width="1.5"></path><path d="M1104.67 545.7L1281.61 392.44" stroke="#132e65" stroke-width="1.5"></path><path d="M1125.18 670.46L1125.18 670.46" stroke="#132e65" stroke-width="1.5"></path><path d="M1125.18 670.46L1258.88 641.95" stroke="#132e65" stroke-width="1.5"></path><path d="M1125.18 670.46L966.1 491.02" stroke="#132e65" stroke-width="1.5"></path><path d="M1125.18 670.46L1089.54 410.6" stroke="#132e65" stroke-width="1.5"></path><path d="M1125.18 670.46L1281.61 392.44" stroke="#132e65" stroke-width="1.5"></path><path d="M1125.18 670.46L805.77 657.43" stroke="#132e65" stroke-width="1.5"></path><path d="M1245.44 -86.87L1245.44 -86.87" stroke="#132e65" stroke-width="1.5"></path><path d="M1245.44 -86.87L1288.52 39.54" stroke="#132e65" stroke-width="1.5"></path><path d="M1245.44 -86.87L1399.6 -58.2" stroke="#132e65" stroke-width="1.5"></path><path d="M1288.52 39.54L1288.52 39.54" stroke="#132e65" stroke-width="1.5"></path><path d="M1288.52 39.54L1393.14 39.32" stroke="#132e65" stroke-width="1.5"></path><path d="M1259.19 212.71L1259.19 212.71" stroke="#132e65" stroke-width="1.5"></path><path d="M1259.19 212.71L1398.49 214.02" stroke="#132e65" stroke-width="1.5"></path><path d="M1259.19 212.71L1288.52 39.54" stroke="#132e65" stroke-width="1.5"></path><path d="M1259.19 212.71L1281.61 392.44" stroke="#132e65" stroke-width="1.5"></path><path d="M1259.19 212.71L1143.17 50.06" stroke="#132e65" stroke-width="1.5"></path><path d="M1281.61 392.44L1281.61 392.44" stroke="#132e65" stroke-width="1.5"></path><path d="M1281.61 392.44L1407.68 389.52" stroke="#132e65" stroke-width="1.5"></path><path d="M1258.88 641.95L1258.88 641.95" stroke="#132e65" stroke-width="1.5"></path><path d="M1258.88 641.95L1451.91 673.15" stroke="#132e65" stroke-width="1.5"></path><path d="M1399.6 -58.2L1399.6 -58.2" stroke="#132e65" stroke-width="1.5"></path><path d="M1399.6 -58.2L1393.14 39.32" stroke="#132e65" stroke-width="1.5"></path><path d="M1399.6 -58.2L1288.52 39.54" stroke="#132e65" stroke-width="1.5"></path><path d="M1399.6 -58.2L1576.24 -46.72" stroke="#132e65" stroke-width="1.5"></path><path d="M1393.14 39.32L1393.14 39.32" stroke="#132e65" stroke-width="1.5"></path><path d="M1398.49 214.02L1398.49 214.02" stroke="#132e65" stroke-width="1.5"></path><path d="M1398.49 214.02L1567.17 251.58" stroke="#132e65" stroke-width="1.5"></path><path d="M1398.49 214.02L1393.14 39.32" stroke="#132e65" stroke-width="1.5"></path><path d="M1398.49 214.02L1407.68 389.52" stroke="#132e65" stroke-width="1.5"></path><path d="M1398.49 214.02L1549.78 79.93" stroke="#132e65" stroke-width="1.5"></path><path d="M1407.68 389.52L1407.68 389.52" stroke="#132e65" stroke-width="1.5"></path><path d="M1407.68 389.52L1441.37 488.33" stroke="#132e65" stroke-width="1.5"></path><path d="M1407.68 389.52L1582.33 376.06" stroke="#132e65" stroke-width="1.5"></path><path d="M1441.37 488.33L1441.37 488.33" stroke="#132e65" stroke-width="1.5"></path><path d="M1451.91 673.15L1451.91 673.15" stroke="#132e65" stroke-width="1.5"></path><path d="M1451.91 673.15L1565.69 677.13" stroke="#132e65" stroke-width="1.5"></path><path d="M1451.91 673.15L1441.37 488.33" stroke="#132e65" stroke-width="1.5"></path><path d="M1451.91 673.15L1560.3 521.12" stroke="#132e65" stroke-width="1.5"></path><path d="M1451.91 673.15L1407.68 389.52" stroke="#132e65" stroke-width="1.5"></path><path d="M1451.91 673.15L1582.33 376.06" stroke="#132e65" stroke-width="1.5"></path><path d="M1576.24 -46.72L1576.24 -46.72" stroke="#132e65" stroke-width="1.5"></path><path d="M1576.24 -46.72L1549.78 79.93" stroke="#132e65" stroke-width="1.5"></path><path d="M1576.24 -46.72L1393.14 39.32" stroke="#132e65" stroke-width="1.5"></path><path d="M1576.24 -46.72L1567.17 251.58" stroke="#132e65" stroke-width="1.5"></path><path d="M1549.78 79.93L1549.78 79.93" stroke="#132e65" stroke-width="1.5"></path><path d="M1549.78 79.93L1393.14 39.32" stroke="#132e65" stroke-width="1.5"></path><path d="M1549.78 79.93L1567.17 251.58" stroke="#132e65" stroke-width="1.5"></path><path d="M1549.78 79.93L1399.6 -58.2" stroke="#132e65" stroke-width="1.5"></path><path d="M1567.17 251.58L1567.17 251.58" stroke="#132e65" stroke-width="1.5"></path><path d="M1567.17 251.58L1582.33 376.06" stroke="#132e65" stroke-width="1.5"></path><path d="M1567.17 251.58L1407.68 389.52" stroke="#132e65" stroke-width="1.5"></path><path d="M1567.17 251.58L1441.37 488.33" stroke="#132e65" stroke-width="1.5"></path><path d="M1582.33 376.06L1582.33 376.06" stroke="#132e65" stroke-width="1.5"></path><path d="M1582.33 376.06L1560.3 521.12" stroke="#132e65" stroke-width="1.5"></path><path d="M1560.3 521.12L1560.3 521.12" stroke="#132e65" stroke-width="1.5"></path><path d="M1560.3 521.12L1441.37 488.33" stroke="#132e65" stroke-width="1.5"></path><path d="M1565.69 677.13L1565.69 677.13" stroke="#132e65" stroke-width="1.5"></path><path d="M1565.69 677.13L1560.3 521.12" stroke="#132e65" stroke-width="1.5"></path><path d="M1565.69 677.13L1441.37 488.33" stroke="#132e65" stroke-width="1.5"></path><circle r="5" cx="-43.58" cy="374.39" fill="#132e65"></circle><circle r="5" cx="-86.64" cy="512.81" fill="#132e65"></circle><circle r="5" cx="42.87" cy="342.97" fill="#132e65"></circle><circle r="5" cx="72.79" cy="507.12" fill="#132e65"></circle><circle r="5" cx="47.79" cy="641.66" fill="#132e65"></circle><circle r="5" cx="235.87" cy="342.89" fill="#132e65"></circle><circle r="5" cx="253.51" cy="542.16" fill="#132e65"></circle><circle r="5" cx="223.2" cy="638.63" fill="#132e65"></circle><circle r="5" cx="356.1" cy="377.43" fill="#132e65"></circle><circle r="5" cx="391.04" cy="529.27" fill="#132e65"></circle><circle r="5" cx="345.45" cy="679.19" fill="#132e65"></circle><circle r="5" cx="534.01" cy="391.84" fill="#132e65"></circle><circle r="5" cx="548.77" cy="520.75" fill="#132e65"></circle><circle r="5" cx="505.06" cy="702.54" fill="#132e65"></circle><circle r="5" cx="673.77" cy="254.52" fill="#132e65"></circle><circle r="5" cx="679.59" cy="391.56" fill="#132e65"></circle><circle r="5" cx="690.53" cy="643.67" fill="#132e65"></circle><circle r="5" cx="855.54" cy="257.39" fill="#132e65"></circle><circle r="5" cx="818.07" cy="355.37" fill="#132e65"></circle><circle r="5" cx="805.77" cy="657.43" fill="#132e65"></circle><circle r="5" cx="999.03" cy="-59.67" fill="#132e65"></circle><circle r="5" cx="956" cy="74.26" fill="#132e65"></circle><circle r="5" cx="1010.47" cy="213.86" fill="#132e65"></circle><circle r="5" cx="973.62" cy="366.25" fill="#132e65"></circle><circle r="5" cx="966.1" cy="491.02" fill="#132e65"></circle><circle r="5" cx="1153.03" cy="-60.14" fill="#132e65"></circle><circle r="5" cx="1143.17" cy="50.06" fill="#132e65"></circle><circle r="5" cx="1123.87" cy="188.23" fill="#132e65"></circle><circle r="5" cx="1089.54" cy="410.6" fill="#132e65"></circle><circle r="5" cx="1104.67" cy="545.7" fill="#132e65"></circle><circle r="5" cx="1125.18" cy="670.46" fill="#132e65"></circle><circle r="5" cx="1245.44" cy="-86.87" fill="#132e65"></circle><circle r="5" cx="1288.52" cy="39.54" fill="#132e65"></circle><circle r="5" cx="1259.19" cy="212.71" fill="#132e65"></circle><circle r="5" cx="1281.61" cy="392.44" fill="#132e65"></circle><circle r="5" cx="1258.88" cy="641.95" fill="#132e65"></circle><circle r="5" cx="1399.6" cy="-58.2" fill="#132e65"></circle><circle r="5" cx="1393.14" cy="39.32" fill="#132e65"></circle><circle r="5" cx="1398.49" cy="214.02" fill="#132e65"></circle><circle r="5" cx="1407.68" cy="389.52" fill="#132e65"></circle><circle r="5" cx="1441.37" cy="488.33" fill="#132e65"></circle><circle r="5" cx="1451.91" cy="673.15" fill="#132e65"></circle><circle r="5" cx="1576.24" cy="-46.72" fill="#132e65"></circle><circle r="5" cx="1549.78" cy="79.93" fill="#132e65"></circle><circle r="5" cx="1567.17" cy="251.58" fill="#132e65"></circle><circle r="5" cx="1582.33" cy="376.06" fill="#132e65"></circle><circle r="5" cx="1560.3" cy="521.12" fill="#132e65"></circle><circle r="5" cx="1565.69" cy="677.13" fill="#132e65"></circle><path d="M637.83 402.98L637.83 402.98" stroke="hsl(228.5, 77.2%, 51.5%)" stroke-width="1.5"></path><path d="M637.83 402.98L522.4 488.43" stroke="hsl(228.5, 77.2%, 51.5%)" stroke-width="1.5"></path><path d="M637.83 402.98L663.55 561.96" stroke="hsl(228.5, 77.2%, 51.5%)" stroke-width="1.5"></path><path d="M637.83 402.98L839.29 508.65" stroke="hsl(228.5, 77.2%, 51.5%)" stroke-width="1.5"></path><path d="M637.83 402.98L861 343.19" stroke="hsl(228.5, 77.2%, 51.5%)" stroke-width="1.5"></path><path d="M637.83 402.98L672.62 694.84" stroke="hsl(228.5, 77.2%, 51.5%)" stroke-width="1.5"></path><path d="M637.83 402.98L944.03 372.33" stroke="hsl(228.5, 77.2%, 51.5%)" stroke-width="1.5"></path><path d="M839.29 508.65L839.29 508.65" stroke="hsl(228.5, 77.2%, 51.5%)" stroke-width="1.5"></path><path d="M839.29 508.65L861 343.19" stroke="hsl(228.5, 77.2%, 51.5%)" stroke-width="1.5"></path><path d="M839.29 508.65L1005.59 524.32" stroke="hsl(228.5, 77.2%, 51.5%)" stroke-width="1.5"></path><path d="M839.29 508.65L944.03 372.33" stroke="hsl(228.5, 77.2%, 51.5%)" stroke-width="1.5"></path><path d="M839.29 508.65L663.55 561.96" stroke="hsl(228.5, 77.2%, 51.5%)" stroke-width="1.5"></path><path d="M839.29 508.65L844.9 698.98" stroke="hsl(228.5, 77.2%, 51.5%)" stroke-width="1.5"></path><path d="M1104.07 241.93L1104.07 241.93" stroke="hsl(228.5, 77.2%, 51.5%)" stroke-width="1.5"></path><path d="M1104.07 241.93L1250.04 262.05" stroke="hsl(228.5, 77.2%, 51.5%)" stroke-width="1.5"></path><path d="M1104.07 241.93L955.8 258.05" stroke="hsl(228.5, 77.2%, 51.5%)" stroke-width="1.5"></path><path d="M1122.25 662.39L1122.25 662.39" stroke="hsl(228.5, 77.2%, 51.5%)" stroke-width="1.5"></path><path d="M1122.25 662.39L996.99 651.02" stroke="hsl(228.5, 77.2%, 51.5%)" stroke-width="1.5"></path><path d="M1122.25 662.39L1273.4 698.11" stroke="hsl(228.5, 77.2%, 51.5%)" stroke-width="1.5"></path><path d="M1122.25 662.39L1005.59 524.32" stroke="hsl(228.5, 77.2%, 51.5%)" stroke-width="1.5"></path><path d="M1122.25 662.39L1297.98 499.53" stroke="hsl(228.5, 77.2%, 51.5%)" stroke-width="1.5"></path><path d="M1122.25 662.39L1146.45 407.08" stroke="hsl(228.5, 77.2%, 51.5%)" stroke-width="1.5"></path><path d="M1268.76 101.8L1268.76 101.8" stroke="hsl(228.5, 77.2%, 51.5%)" stroke-width="1.5"></path><path d="M1268.76 101.8L1141.83 87.41" stroke="hsl(228.5, 77.2%, 51.5%)" stroke-width="1.5"></path><path d="M1268.76 101.8L1255.85 -50.24" stroke="hsl(228.5, 77.2%, 51.5%)" stroke-width="1.5"></path><path d="M1268.76 101.8L1250.04 262.05" stroke="hsl(228.5, 77.2%, 51.5%)" stroke-width="1.5"></path><path d="M1570.34 409.09L1570.34 409.09" stroke="hsl(228.5, 77.2%, 51.5%)" stroke-width="1.5"></path><path d="M1570.34 409.09L1552.38 532.99" stroke="hsl(228.5, 77.2%, 51.5%)" stroke-width="1.5"></path><path d="M1570.34 409.09L1450.32 373.38" stroke="hsl(228.5, 77.2%, 51.5%)" stroke-width="1.5"></path><path d="M1570.34 409.09L1559.07 255.23" stroke="hsl(228.5, 77.2%, 51.5%)" stroke-width="1.5"></path><path d="M1570.34 409.09L1417.64 520.49" stroke="hsl(228.5, 77.2%, 51.5%)" stroke-width="1.5"></path><path d="M1570.34 409.09L1441.16 198.67" stroke="hsl(228.5, 77.2%, 51.5%)" stroke-width="1.5"></path><path d="M1552.38 532.99L1552.38 532.99" stroke="hsl(228.5, 77.2%, 51.5%)" stroke-width="1.5"></path><path d="M1552.38 532.99L1417.64 520.49" stroke="hsl(228.5, 77.2%, 51.5%)" stroke-width="1.5"></path><path d="M1552.38 532.99L1565.35 682.17" stroke="hsl(228.5, 77.2%, 51.5%)" stroke-width="1.5"></path><path d="M1552.38 532.99L1450.32 373.38" stroke="hsl(228.5, 77.2%, 51.5%)" stroke-width="1.5"></path><path d="M1552.38 532.99L1398.73 697.04" stroke="hsl(228.5, 77.2%, 51.5%)" stroke-width="1.5"></path><path d="M1552.38 532.99L1297.98 499.53" stroke="hsl(228.5, 77.2%, 51.5%)" stroke-width="1.5"></path><path d="M-77.17 544.46L-77.17 544.46" stroke="hsl(228.5, 77.2%, 51.5%)" stroke-width="1.5"></path><path d="M-77.17 544.46L-47.53 648.23" stroke="hsl(228.5, 77.2%, 51.5%)" stroke-width="1.5"></path><path d="M-77.17 544.46L52.23 641.68" stroke="hsl(228.5, 77.2%, 51.5%)" stroke-width="1.5"></path><path d="M-47.53 648.23L-47.53 648.23" stroke="hsl(228.5, 77.2%, 51.5%)" stroke-width="1.5"></path><path d="M-47.53 648.23L52.23 641.68" stroke="hsl(228.5, 77.2%, 51.5%)" stroke-width="1.5"></path><path d="M-47.53 648.23L86.83 507.91" stroke="hsl(228.5, 77.2%, 51.5%)" stroke-width="1.5"></path><path d="M-47.53 648.23L217.75 660.58" stroke="hsl(228.5, 77.2%, 51.5%)" stroke-width="1.5"></path><path d="M-47.53 648.23L249.32 518.45" stroke="hsl(228.5, 77.2%, 51.5%)" stroke-width="1.5"></path><path d="M86.83 507.91L86.83 507.91" stroke="hsl(228.5, 77.2%, 51.5%)" stroke-width="1.5"></path><path d="M86.83 507.91L52.23 641.68" stroke="hsl(228.5, 77.2%, 51.5%)" stroke-width="1.5"></path><path d="M86.83 507.91L249.32 518.45" stroke="hsl(228.5, 77.2%, 51.5%)" stroke-width="1.5"></path><path d="M86.83 507.91L-77.17 544.46" stroke="hsl(228.5, 77.2%, 51.5%)" stroke-width="1.5"></path><path d="M52.23 641.68L52.23 641.68" stroke="hsl(228.5, 77.2%, 51.5%)" stroke-width="1.5"></path><path d="M52.23 641.68L217.75 660.58" stroke="hsl(228.5, 77.2%, 51.5%)" stroke-width="1.5"></path><path d="M249.32 518.45L249.32 518.45" stroke="hsl(228.5, 77.2%, 51.5%)" stroke-width="1.5"></path><path d="M249.32 518.45L351.16 551.6" stroke="hsl(228.5, 77.2%, 51.5%)" stroke-width="1.5"></path><path d="M249.32 518.45L217.75 660.58" stroke="hsl(228.5, 77.2%, 51.5%)" stroke-width="1.5"></path><path d="M249.32 518.45L405.81 672.23" stroke="hsl(228.5, 77.2%, 51.5%)" stroke-width="1.5"></path><path d="M249.32 518.45L52.23 641.68" stroke="hsl(228.5, 77.2%, 51.5%)" stroke-width="1.5"></path><path d="M249.32 518.45L522.4 488.43" stroke="hsl(228.5, 77.2%, 51.5%)" stroke-width="1.5"></path><path d="M217.75 660.58L217.75 660.58" stroke="hsl(228.5, 77.2%, 51.5%)" stroke-width="1.5"></path><path d="M217.75 660.58L351.16 551.6" stroke="hsl(228.5, 77.2%, 51.5%)" stroke-width="1.5"></path><path d="M351.16 551.6L351.16 551.6" stroke="hsl(228.5, 77.2%, 51.5%)" stroke-width="1.5"></path><path d="M351.16 551.6L405.81 672.23" stroke="hsl(228.5, 77.2%, 51.5%)" stroke-width="1.5"></path><path d="M405.81 672.23L405.81 672.23" stroke="hsl(228.5, 77.2%, 51.5%)" stroke-width="1.5"></path><path d="M405.81 672.23L501.07 691.9" stroke="hsl(228.5, 77.2%, 51.5%)" stroke-width="1.5"></path><path d="M405.81 672.23L217.75 660.58" stroke="hsl(228.5, 77.2%, 51.5%)" stroke-width="1.5"></path><path d="M522.4 488.43L522.4 488.43" stroke="hsl(228.5, 77.2%, 51.5%)" stroke-width="1.5"></path><path d="M522.4 488.43L663.55 561.96" stroke="hsl(228.5, 77.2%, 51.5%)" stroke-width="1.5"></path><path d="M501.07 691.9L501.07 691.9" stroke="hsl(228.5, 77.2%, 51.5%)" stroke-width="1.5"></path><path d="M501.07 691.9L672.62 694.84" stroke="hsl(228.5, 77.2%, 51.5%)" stroke-width="1.5"></path><path d="M501.07 691.9L522.4 488.43" stroke="hsl(228.5, 77.2%, 51.5%)" stroke-width="1.5"></path><path d="M501.07 691.9L351.16 551.6" stroke="hsl(228.5, 77.2%, 51.5%)" stroke-width="1.5"></path><path d="M501.07 691.9L663.55 561.96" stroke="hsl(228.5, 77.2%, 51.5%)" stroke-width="1.5"></path><path d="M501.07 691.9L217.75 660.58" stroke="hsl(228.5, 77.2%, 51.5%)" stroke-width="1.5"></path><path d="M663.55 561.96L663.55 561.96" stroke="hsl(228.5, 77.2%, 51.5%)" stroke-width="1.5"></path><path d="M663.55 561.96L672.62 694.84" stroke="hsl(228.5, 77.2%, 51.5%)" stroke-width="1.5"></path><path d="M663.55 561.96L844.9 698.98" stroke="hsl(228.5, 77.2%, 51.5%)" stroke-width="1.5"></path><path d="M672.62 694.84L672.62 694.84" stroke="hsl(228.5, 77.2%, 51.5%)" stroke-width="1.5"></path><path d="M861 343.19L861 343.19" stroke="hsl(228.5, 77.2%, 51.5%)" stroke-width="1.5"></path><path d="M861 343.19L944.03 372.33" stroke="hsl(228.5, 77.2%, 51.5%)" stroke-width="1.5"></path><path d="M861 343.19L955.8 258.05" stroke="hsl(228.5, 77.2%, 51.5%)" stroke-width="1.5"></path><path d="M861 343.19L1005.59 524.32" stroke="hsl(228.5, 77.2%, 51.5%)" stroke-width="1.5"></path><path d="M844.9 698.98L844.9 698.98" stroke="hsl(228.5, 77.2%, 51.5%)" stroke-width="1.5"></path><path d="M844.9 698.98L996.99 651.02" stroke="hsl(228.5, 77.2%, 51.5%)" stroke-width="1.5"></path><path d="M844.9 698.98L672.62 694.84" stroke="hsl(228.5, 77.2%, 51.5%)" stroke-width="1.5"></path><path d="M844.9 698.98L1005.59 524.32" stroke="hsl(228.5, 77.2%, 51.5%)" stroke-width="1.5"></path><path d="M955.8 258.05L955.8 258.05" stroke="hsl(228.5, 77.2%, 51.5%)" stroke-width="1.5"></path><path d="M955.8 258.05L944.03 372.33" stroke="hsl(228.5, 77.2%, 51.5%)" stroke-width="1.5"></path><path d="M955.8 258.05L1146.45 407.08" stroke="hsl(228.5, 77.2%, 51.5%)" stroke-width="1.5"></path><path d="M955.8 258.05L1141.83 87.41" stroke="hsl(228.5, 77.2%, 51.5%)" stroke-width="1.5"></path><path d="M955.8 258.05L1005.59 524.32" stroke="hsl(228.5, 77.2%, 51.5%)" stroke-width="1.5"></path><path d="M944.03 372.33L944.03 372.33" stroke="hsl(228.5, 77.2%, 51.5%)" stroke-width="1.5"></path><path d="M944.03 372.33L1005.59 524.32" stroke="hsl(228.5, 77.2%, 51.5%)" stroke-width="1.5"></path><path d="M1005.59 524.32L1005.59 524.32" stroke="hsl(228.5, 77.2%, 51.5%)" stroke-width="1.5"></path><path d="M1005.59 524.32L996.99 651.02" stroke="hsl(228.5, 77.2%, 51.5%)" stroke-width="1.5"></path><path d="M1005.59 524.32L1146.45 407.08" stroke="hsl(228.5, 77.2%, 51.5%)" stroke-width="1.5"></path><path d="M996.99 651.02L996.99 651.02" stroke="hsl(228.5, 77.2%, 51.5%)" stroke-width="1.5"></path><path d="M996.99 651.02L839.29 508.65" stroke="hsl(228.5, 77.2%, 51.5%)" stroke-width="1.5"></path><path d="M996.99 651.02L1273.4 698.11" stroke="hsl(228.5, 77.2%, 51.5%)" stroke-width="1.5"></path><path d="M1141.83 87.41L1141.83 87.41" stroke="hsl(228.5, 77.2%, 51.5%)" stroke-width="1.5"></path><path d="M1141.83 87.41L1104.07 241.93" stroke="hsl(228.5, 77.2%, 51.5%)" stroke-width="1.5"></path><path d="M1141.83 87.41L1255.85 -50.24" stroke="hsl(228.5, 77.2%, 51.5%)" stroke-width="1.5"></path><path d="M1141.83 87.41L1250.04 262.05" stroke="hsl(228.5, 77.2%, 51.5%)" stroke-width="1.5"></path><path d="M1146.45 407.08L1146.45 407.08" stroke="hsl(228.5, 77.2%, 51.5%)" stroke-width="1.5"></path><path d="M1146.45 407.08L1238.8 359.17" stroke="hsl(228.5, 77.2%, 51.5%)" stroke-width="1.5"></path><path d="M1146.45 407.08L1104.07 241.93" stroke="hsl(228.5, 77.2%, 51.5%)" stroke-width="1.5"></path><path d="M1255.85 -50.24L1255.85 -50.24" stroke="hsl(228.5, 77.2%, 51.5%)" stroke-width="1.5"></path><path d="M1255.85 -50.24L1400.26 -54.52" stroke="hsl(228.5, 77.2%, 51.5%)" stroke-width="1.5"></path><path d="M1255.85 -50.24L1448.96 43.7" stroke="hsl(228.5, 77.2%, 51.5%)" stroke-width="1.5"></path><path d="M1255.85 -50.24L1441.16 198.67" stroke="hsl(228.5, 77.2%, 51.5%)" stroke-width="1.5"></path><path d="M1250.04 262.05L1250.04 262.05" stroke="hsl(228.5, 77.2%, 51.5%)" stroke-width="1.5"></path><path d="M1250.04 262.05L1238.8 359.17" stroke="hsl(228.5, 77.2%, 51.5%)" stroke-width="1.5"></path><path d="M1250.04 262.05L1146.45 407.08" stroke="hsl(228.5, 77.2%, 51.5%)" stroke-width="1.5"></path><path d="M1250.04 262.05L1441.16 198.67" stroke="hsl(228.5, 77.2%, 51.5%)" stroke-width="1.5"></path><path d="M1238.8 359.17L1238.8 359.17" stroke="hsl(228.5, 77.2%, 51.5%)" stroke-width="1.5"></path><path d="M1297.98 499.53L1297.98 499.53" stroke="hsl(228.5, 77.2%, 51.5%)" stroke-width="1.5"></path><path d="M1297.98 499.53L1417.64 520.49" stroke="hsl(228.5, 77.2%, 51.5%)" stroke-width="1.5"></path><path d="M1297.98 499.53L1238.8 359.17" stroke="hsl(228.5, 77.2%, 51.5%)" stroke-width="1.5"></path><path d="M1297.98 499.53L1146.45 407.08" stroke="hsl(228.5, 77.2%, 51.5%)" stroke-width="1.5"></path><path d="M1297.98 499.53L1450.32 373.38" stroke="hsl(228.5, 77.2%, 51.5%)" stroke-width="1.5"></path><path d="M1297.98 499.53L1273.4 698.11" stroke="hsl(228.5, 77.2%, 51.5%)" stroke-width="1.5"></path><path d="M1273.4 698.11L1273.4 698.11" stroke="hsl(228.5, 77.2%, 51.5%)" stroke-width="1.5"></path><path d="M1273.4 698.11L1398.73 697.04" stroke="hsl(228.5, 77.2%, 51.5%)" stroke-width="1.5"></path><path d="M1400.26 -54.52L1400.26 -54.52" stroke="hsl(228.5, 77.2%, 51.5%)" stroke-width="1.5"></path><path d="M1400.26 -54.52L1448.96 43.7" stroke="hsl(228.5, 77.2%, 51.5%)" stroke-width="1.5"></path><path d="M1400.26 -54.52L1602 -80.84" stroke="hsl(228.5, 77.2%, 51.5%)" stroke-width="1.5"></path><path d="M1400.26 -54.52L1268.76 101.8" stroke="hsl(228.5, 77.2%, 51.5%)" stroke-width="1.5"></path><path d="M1400.26 -54.52L1601.16 78.84" stroke="hsl(228.5, 77.2%, 51.5%)" stroke-width="1.5"></path><path d="M1448.96 43.7L1448.96 43.7" stroke="hsl(228.5, 77.2%, 51.5%)" stroke-width="1.5"></path><path d="M1448.96 43.7L1441.16 198.67" stroke="hsl(228.5, 77.2%, 51.5%)" stroke-width="1.5"></path><path d="M1448.96 43.7L1601.16 78.84" stroke="hsl(228.5, 77.2%, 51.5%)" stroke-width="1.5"></path><path d="M1448.96 43.7L1268.76 101.8" stroke="hsl(228.5, 77.2%, 51.5%)" stroke-width="1.5"></path><path d="M1448.96 43.7L1602 -80.84" stroke="hsl(228.5, 77.2%, 51.5%)" stroke-width="1.5"></path><path d="M1441.16 198.67L1441.16 198.67" stroke="hsl(228.5, 77.2%, 51.5%)" stroke-width="1.5"></path><path d="M1441.16 198.67L1559.07 255.23" stroke="hsl(228.5, 77.2%, 51.5%)" stroke-width="1.5"></path><path d="M1450.32 373.38L1450.32 373.38" stroke="hsl(228.5, 77.2%, 51.5%)" stroke-width="1.5"></path><path d="M1450.32 373.38L1417.64 520.49" stroke="hsl(228.5, 77.2%, 51.5%)" stroke-width="1.5"></path><path d="M1450.32 373.38L1559.07 255.23" stroke="hsl(228.5, 77.2%, 51.5%)" stroke-width="1.5"></path><path d="M1417.64 520.49L1417.64 520.49" stroke="hsl(228.5, 77.2%, 51.5%)" stroke-width="1.5"></path><path d="M1398.73 697.04L1398.73 697.04" stroke="hsl(228.5, 77.2%, 51.5%)" stroke-width="1.5"></path><path d="M1602 -80.84L1602 -80.84" stroke="hsl(228.5, 77.2%, 51.5%)" stroke-width="1.5"></path><path d="M1602 -80.84L1601.16 78.84" stroke="hsl(228.5, 77.2%, 51.5%)" stroke-width="1.5"></path><path d="M1601.16 78.84L1601.16 78.84" stroke="hsl(228.5, 77.2%, 51.5%)" stroke-width="1.5"></path><path d="M1601.16 78.84L1559.07 255.23" stroke="hsl(228.5, 77.2%, 51.5%)" stroke-width="1.5"></path><path d="M1601.16 78.84L1441.16 198.67" stroke="hsl(228.5, 77.2%, 51.5%)" stroke-width="1.5"></path><path d="M1601.16 78.84L1450.32 373.38" stroke="hsl(228.5, 77.2%, 51.5%)" stroke-width="1.5"></path><path d="M1559.07 255.23L1559.07 255.23" stroke="hsl(228.5, 77.2%, 51.5%)" stroke-width="1.5"></path><path d="M1565.35 682.17L1565.35 682.17" stroke="hsl(228.5, 77.2%, 51.5%)" stroke-width="1.5"></path><path d="M1565.35 682.17L1398.73 697.04" stroke="hsl(228.5, 77.2%, 51.5%)" stroke-width="1.5"></path><path d="M1565.35 682.17L1417.64 520.49" stroke="hsl(228.5, 77.2%, 51.5%)" stroke-width="1.5"></path><path d="M1565.35 682.17L1570.34 409.09" stroke="hsl(228.5, 77.2%, 51.5%)" stroke-width="1.5"></path><circle r="25" cx="637.83" cy="402.98" fill="url(&quot;#SvgjsRadialGradient1040&quot;)"></circle><circle r="25" cx="839.29" cy="508.65" fill="url(&quot;#SvgjsRadialGradient1040&quot;)"></circle><circle r="25" cx="1104.07" cy="241.93" fill="url(&quot;#SvgjsRadialGradient1040&quot;)"></circle><circle r="25" cx="1122.25" cy="662.39" fill="url(&quot;#SvgjsRadialGradient1040&quot;)"></circle><circle r="25" cx="1268.76" cy="101.8" fill="url(&quot;#SvgjsRadialGradient1040&quot;)"></circle><circle r="25" cx="1570.34" cy="409.09" fill="url(&quot;#SvgjsRadialGradient1040&quot;)"></circle><circle r="25" cx="1552.38" cy="532.99" fill="url(&quot;#SvgjsRadialGradient1040&quot;)"></circle><circle r="5" cx="-77.17" cy="544.46" fill="#8b9ad9"></circle><circle r="5" cx="-47.53" cy="648.23" fill="#8b9ad9"></circle><circle r="5" cx="86.83" cy="507.91" fill="#8b9ad9"></circle><circle r="5" cx="52.23" cy="641.68" fill="#8b9ad9"></circle><circle r="5" cx="249.32" cy="518.45" fill="#8b9ad9"></circle><circle r="5" cx="217.75" cy="660.58" fill="#8b9ad9"></circle><circle r="5" cx="351.16" cy="551.6" fill="#8b9ad9"></circle><circle r="5" cx="405.81" cy="672.23" fill="#8b9ad9"></circle><circle r="5" cx="522.4" cy="488.43" fill="#8b9ad9"></circle><circle r="5" cx="501.07" cy="691.9" fill="#8b9ad9"></circle><circle r="5" cx="663.55" cy="561.96" fill="#8b9ad9"></circle><circle r="5" cx="672.62" cy="694.84" fill="#8b9ad9"></circle><circle r="5" cx="861" cy="343.19" fill="#8b9ad9"></circle><circle r="5" cx="844.9" cy="698.98" fill="#8b9ad9"></circle><circle r="5" cx="955.8" cy="258.05" fill="#8b9ad9"></circle><circle r="5" cx="944.03" cy="372.33" fill="#8b9ad9"></circle><circle r="5" cx="1005.59" cy="524.32" fill="#8b9ad9"></circle><circle r="5" cx="996.99" cy="651.02" fill="#8b9ad9"></circle><circle r="5" cx="1141.83" cy="87.41" fill="#8b9ad9"></circle><circle r="5" cx="1146.45" cy="407.08" fill="#8b9ad9"></circle><circle r="5" cx="1255.85" cy="-50.24" fill="#8b9ad9"></circle><circle r="5" cx="1250.04" cy="262.05" fill="#8b9ad9"></circle><circle r="5" cx="1238.8" cy="359.17" fill="#8b9ad9"></circle><circle r="5" cx="1297.98" cy="499.53" fill="#8b9ad9"></circle><circle r="5" cx="1273.4" cy="698.11" fill="#8b9ad9"></circle><circle r="5" cx="1400.26" cy="-54.52" fill="#8b9ad9"></circle><circle r="5" cx="1448.96" cy="43.7" fill="#8b9ad9"></circle><circle r="5" cx="1441.16" cy="198.67" fill="#8b9ad9"></circle><circle r="5" cx="1450.32" cy="373.38" fill="#8b9ad9"></circle><circle r="5" cx="1417.64" cy="520.49" fill="#8b9ad9"></circle><circle r="5" cx="1398.73" cy="697.04" fill="#8b9ad9"></circle><circle r="5" cx="1602" cy="-80.84" fill="#8b9ad9"></circle><circle r="5" cx="1601.16" cy="78.84" fill="#8b9ad9"></circle><circle r="5" cx="1559.07" cy="255.23" fill="#8b9ad9"></circle><circle r="5" cx="1565.35" cy="682.17" fill="#8b9ad9"></circle></g><defs><mask id="SvgjsMask1039"><rect width="1440" height="560" fill="#ffffff"></rect></mask><radialGradient id="SvgjsRadialGradient1040"><stop stop-color="#ffffff" offset="0.1"></stop><stop stop-color="#1735b3" offset="0.2"></stop><stop stop-color="rgba(23, 53, 179, 0)" offset="1"></stop></radialGradient></defs></svg>