<svg xmlns="http://www.w3.org/2000/svg" version="1.1" xmlns:xlink="http://www.w3.org/1999/xlink" xmlns:svgjs="http://svgjs.dev/svgjs" width="1440" height="560" preserveAspectRatio="none" viewBox="0 0 1440 560"><g mask="url(&quot;#SvgjsMask1010&quot;)" fill="none"><path d="M-65.68 339.01L-65.68 339.01" stroke="#132e65" stroke-width="1.5"></path><path d="M-65.68 339.01L91.67 340.08" stroke="#132e65" stroke-width="1.5"></path><path d="M-65.68 339.01L-82.72 529.79" stroke="#132e65" stroke-width="1.5"></path><path d="M-65.68 339.01L81.97 559.36" stroke="#132e65" stroke-width="1.5"></path><path d="M-82.72 529.79L-82.72 529.79" stroke="#132e65" stroke-width="1.5"></path><path d="M-82.72 529.79L-81.56 691.63" stroke="#132e65" stroke-width="1.5"></path><path d="M-82.72 529.79L81.97 559.36" stroke="#132e65" stroke-width="1.5"></path><path d="M-81.56 691.63L-81.56 691.63" stroke="#132e65" stroke-width="1.5"></path><path d="M-81.56 691.63L78.34 661.67" stroke="#132e65" stroke-width="1.5"></path><path d="M91.67 340.08L91.67 340.08" stroke="#132e65" stroke-width="1.5"></path><path d="M91.67 340.08L201.08 399.95" stroke="#132e65" stroke-width="1.5"></path><path d="M91.67 340.08L81.97 559.36" stroke="#132e65" stroke-width="1.5"></path><path d="M91.67 340.08L224.88 526.66" stroke="#132e65" stroke-width="1.5"></path><path d="M91.67 340.08L-82.72 529.79" stroke="#132e65" stroke-width="1.5"></path><path d="M81.97 559.36L81.97 559.36" stroke="#132e65" stroke-width="1.5"></path><path d="M81.97 559.36L78.34 661.67" stroke="#132e65" stroke-width="1.5"></path><path d="M81.97 559.36L224.88 526.66" stroke="#132e65" stroke-width="1.5"></path><path d="M81.97 559.36L201.08 399.95" stroke="#132e65" stroke-width="1.5"></path><path d="M81.97 559.36L-81.56 691.63" stroke="#132e65" stroke-width="1.5"></path><path d="M78.34 661.67L78.34 661.67" stroke="#132e65" stroke-width="1.5"></path><path d="M78.34 661.67L224.88 526.66" stroke="#132e65" stroke-width="1.5"></path><path d="M78.34 661.67L-82.72 529.79" stroke="#132e65" stroke-width="1.5"></path><path d="M78.34 661.67L201.08 399.95" stroke="#132e65" stroke-width="1.5"></path><path d="M78.34 661.67L398.98 670.78" stroke="#132e65" stroke-width="1.5"></path><path d="M201.08 399.95L201.08 399.95" stroke="#132e65" stroke-width="1.5"></path><path d="M201.08 399.95L224.88 526.66" stroke="#132e65" stroke-width="1.5"></path><path d="M224.88 526.66L224.88 526.66" stroke="#132e65" stroke-width="1.5"></path><path d="M404.11 550.72L404.11 550.72" stroke="#132e65" stroke-width="1.5"></path><path d="M404.11 550.72L398.98 670.78" stroke="#132e65" stroke-width="1.5"></path><path d="M404.11 550.72L561.86 538.18" stroke="#132e65" stroke-width="1.5"></path><path d="M404.11 550.72L535.98 647.86" stroke="#132e65" stroke-width="1.5"></path><path d="M404.11 550.72L224.88 526.66" stroke="#132e65" stroke-width="1.5"></path><path d="M404.11 550.72L561.75 381.11" stroke="#132e65" stroke-width="1.5"></path><path d="M398.98 670.78L398.98 670.78" stroke="#132e65" stroke-width="1.5"></path><path d="M398.98 670.78L535.98 647.86" stroke="#132e65" stroke-width="1.5"></path><path d="M398.98 670.78L561.86 538.18" stroke="#132e65" stroke-width="1.5"></path><path d="M561.75 381.11L561.75 381.11" stroke="#132e65" stroke-width="1.5"></path><path d="M561.75 381.11L690.25 370.26" stroke="#132e65" stroke-width="1.5"></path><path d="M561.75 381.11L561.86 538.18" stroke="#132e65" stroke-width="1.5"></path><path d="M561.75 381.11L694.91 512.95" stroke="#132e65" stroke-width="1.5"></path><path d="M561.75 381.11L682.7 229.53" stroke="#132e65" stroke-width="1.5"></path><path d="M561.86 538.18L561.86 538.18" stroke="#132e65" stroke-width="1.5"></path><path d="M561.86 538.18L535.98 647.86" stroke="#132e65" stroke-width="1.5"></path><path d="M561.86 538.18L694.91 512.95" stroke="#132e65" stroke-width="1.5"></path><path d="M561.86 538.18L684.06 666.02" stroke="#132e65" stroke-width="1.5"></path><path d="M535.98 647.86L535.98 647.86" stroke="#132e65" stroke-width="1.5"></path><path d="M682.7 229.53L682.7 229.53" stroke="#132e65" stroke-width="1.5"></path><path d="M682.7 229.53L801.14 189.44" stroke="#132e65" stroke-width="1.5"></path><path d="M682.7 229.53L690.25 370.26" stroke="#132e65" stroke-width="1.5"></path><path d="M682.7 229.53L854.79 390.8" stroke="#132e65" stroke-width="1.5"></path><path d="M682.7 229.53L945.35 205.23" stroke="#132e65" stroke-width="1.5"></path><path d="M682.7 229.53L694.91 512.95" stroke="#132e65" stroke-width="1.5"></path><path d="M690.25 370.26L690.25 370.26" stroke="#132e65" stroke-width="1.5"></path><path d="M694.91 512.95L694.91 512.95" stroke="#132e65" stroke-width="1.5"></path><path d="M694.91 512.95L797.79 511.51" stroke="#132e65" stroke-width="1.5"></path><path d="M694.91 512.95L690.25 370.26" stroke="#132e65" stroke-width="1.5"></path><path d="M684.06 666.02L684.06 666.02" stroke="#132e65" stroke-width="1.5"></path><path d="M684.06 666.02L800.25 645.28" stroke="#132e65" stroke-width="1.5"></path><path d="M684.06 666.02L535.98 647.86" stroke="#132e65" stroke-width="1.5"></path><path d="M684.06 666.02L694.91 512.95" stroke="#132e65" stroke-width="1.5"></path><path d="M801.14 189.44L801.14 189.44" stroke="#132e65" stroke-width="1.5"></path><path d="M801.14 189.44L945.35 205.23" stroke="#132e65" stroke-width="1.5"></path><path d="M854.79 390.8L854.79 390.8" stroke="#132e65" stroke-width="1.5"></path><path d="M854.79 390.8L965.74 405.09" stroke="#132e65" stroke-width="1.5"></path><path d="M854.79 390.8L797.79 511.51" stroke="#132e65" stroke-width="1.5"></path><path d="M797.79 511.51L797.79 511.51" stroke="#132e65" stroke-width="1.5"></path><path d="M800.25 645.28L800.25 645.28" stroke="#132e65" stroke-width="1.5"></path><path d="M800.25 645.28L797.79 511.51" stroke="#132e65" stroke-width="1.5"></path><path d="M800.25 645.28L942.28 676.2" stroke="#132e65" stroke-width="1.5"></path><path d="M800.25 645.28L694.91 512.95" stroke="#132e65" stroke-width="1.5"></path><path d="M800.25 645.28L978.38 493.92" stroke="#132e65" stroke-width="1.5"></path><path d="M800.25 645.28L854.79 390.8" stroke="#132e65" stroke-width="1.5"></path><path d="M971.49 -104.9L971.49 -104.9" stroke="#132e65" stroke-width="1.5"></path><path d="M971.49 -104.9L1101.22 -39.55" stroke="#132e65" stroke-width="1.5"></path><path d="M971.49 -104.9L940.23 53.72" stroke="#132e65" stroke-width="1.5"></path><path d="M971.49 -104.9L1132.22 64.33" stroke="#132e65" stroke-width="1.5"></path><path d="M971.49 -104.9L945.35 205.23" stroke="#132e65" stroke-width="1.5"></path><path d="M971.49 -104.9L801.14 189.44" stroke="#132e65" stroke-width="1.5"></path><path d="M940.23 53.72L940.23 53.72" stroke="#132e65" stroke-width="1.5"></path><path d="M940.23 53.72L945.35 205.23" stroke="#132e65" stroke-width="1.5"></path><path d="M940.23 53.72L1101.22 -39.55" stroke="#132e65" stroke-width="1.5"></path><path d="M940.23 53.72L1132.22 64.33" stroke="#132e65" stroke-width="1.5"></path><path d="M940.23 53.72L801.14 189.44" stroke="#132e65" stroke-width="1.5"></path><path d="M945.35 205.23L945.35 205.23" stroke="#132e65" stroke-width="1.5"></path><path d="M945.35 205.23L1092.87 219.57" stroke="#132e65" stroke-width="1.5"></path><path d="M965.74 405.09L965.74 405.09" stroke="#132e65" stroke-width="1.5"></path><path d="M965.74 405.09L978.38 493.92" stroke="#132e65" stroke-width="1.5"></path><path d="M965.74 405.09L1102.33 404.99" stroke="#132e65" stroke-width="1.5"></path><path d="M978.38 493.92L978.38 493.92" stroke="#132e65" stroke-width="1.5"></path><path d="M978.38 493.92L1113.73 492.49" stroke="#132e65" stroke-width="1.5"></path><path d="M978.38 493.92L1102.33 404.99" stroke="#132e65" stroke-width="1.5"></path><path d="M978.38 493.92L854.79 390.8" stroke="#132e65" stroke-width="1.5"></path><path d="M942.28 676.2L942.28 676.2" stroke="#132e65" stroke-width="1.5"></path><path d="M942.28 676.2L1098.8 700.36" stroke="#132e65" stroke-width="1.5"></path><path d="M1101.22 -39.55L1101.22 -39.55" stroke="#132e65" stroke-width="1.5"></path><path d="M1101.22 -39.55L1132.22 64.33" stroke="#132e65" stroke-width="1.5"></path><path d="M1101.22 -39.55L1295.32 40.67" stroke="#132e65" stroke-width="1.5"></path><path d="M1101.22 -39.55L1312.3 -43.63" stroke="#132e65" stroke-width="1.5"></path><path d="M1132.22 64.33L1132.22 64.33" stroke="#132e65" stroke-width="1.5"></path><path d="M1132.22 64.33L1092.87 219.57" stroke="#132e65" stroke-width="1.5"></path><path d="M1132.22 64.33L1295.32 40.67" stroke="#132e65" stroke-width="1.5"></path><path d="M1132.22 64.33L1312.3 -43.63" stroke="#132e65" stroke-width="1.5"></path><path d="M1092.87 219.57L1092.87 219.57" stroke="#132e65" stroke-width="1.5"></path><path d="M1092.87 219.57L1102.33 404.99" stroke="#132e65" stroke-width="1.5"></path><path d="M1102.33 404.99L1102.33 404.99" stroke="#132e65" stroke-width="1.5"></path><path d="M1102.33 404.99L1113.73 492.49" stroke="#132e65" stroke-width="1.5"></path><path d="M1113.73 492.49L1113.73 492.49" stroke="#132e65" stroke-width="1.5"></path><path d="M1113.73 492.49L965.74 405.09" stroke="#132e65" stroke-width="1.5"></path><path d="M1113.73 492.49L1309.22 556.2" stroke="#132e65" stroke-width="1.5"></path><path d="M1113.73 492.49L1259.89 347.4" stroke="#132e65" stroke-width="1.5"></path><path d="M1098.8 700.36L1098.8 700.36" stroke="#132e65" stroke-width="1.5"></path><path d="M1098.8 700.36L1280.48 675.79" stroke="#132e65" stroke-width="1.5"></path><path d="M1312.3 -43.63L1312.3 -43.63" stroke="#132e65" stroke-width="1.5"></path><path d="M1312.3 -43.63L1295.32 40.67" stroke="#132e65" stroke-width="1.5"></path><path d="M1312.3 -43.63L1439.3 -47.67" stroke="#132e65" stroke-width="1.5"></path><path d="M1312.3 -43.63L1409.71 78.86" stroke="#132e65" stroke-width="1.5"></path><path d="M1295.32 40.67L1295.32 40.67" stroke="#132e65" stroke-width="1.5"></path><path d="M1295.32 40.67L1409.71 78.86" stroke="#132e65" stroke-width="1.5"></path><path d="M1308.72 233.9L1308.72 233.9" stroke="#132e65" stroke-width="1.5"></path><path d="M1308.72 233.9L1259.89 347.4" stroke="#132e65" stroke-width="1.5"></path><path d="M1308.72 233.9L1433.1 194.57" stroke="#132e65" stroke-width="1.5"></path><path d="M1308.72 233.9L1426.88 362.73" stroke="#132e65" stroke-width="1.5"></path><path d="M1259.89 347.4L1259.89 347.4" stroke="#132e65" stroke-width="1.5"></path><path d="M1259.89 347.4L1426.88 362.73" stroke="#132e65" stroke-width="1.5"></path><path d="M1309.22 556.2L1309.22 556.2" stroke="#132e65" stroke-width="1.5"></path><path d="M1309.22 556.2L1395.64 521.68" stroke="#132e65" stroke-width="1.5"></path><path d="M1309.22 556.2L1280.48 675.79" stroke="#132e65" stroke-width="1.5"></path><path d="M1309.22 556.2L1259.89 347.4" stroke="#132e65" stroke-width="1.5"></path><path d="M1309.22 556.2L1426.88 362.73" stroke="#132e65" stroke-width="1.5"></path><path d="M1309.22 556.2L1098.8 700.36" stroke="#132e65" stroke-width="1.5"></path><path d="M1280.48 675.79L1280.48 675.79" stroke="#132e65" stroke-width="1.5"></path><path d="M1280.48 675.79L1395.64 521.68" stroke="#132e65" stroke-width="1.5"></path><path d="M1280.48 675.79L1113.73 492.49" stroke="#132e65" stroke-width="1.5"></path><path d="M1280.48 675.79L1560.79 638.07" stroke="#132e65" stroke-width="1.5"></path><path d="M1280.48 675.79L1102.33 404.99" stroke="#132e65" stroke-width="1.5"></path><path d="M1439.3 -47.67L1439.3 -47.67" stroke="#132e65" stroke-width="1.5"></path><path d="M1439.3 -47.67L1409.71 78.86" stroke="#132e65" stroke-width="1.5"></path><path d="M1439.3 -47.67L1295.32 40.67" stroke="#132e65" stroke-width="1.5"></path><path d="M1439.3 -47.67L1572.93 91.02" stroke="#132e65" stroke-width="1.5"></path><path d="M1439.3 -47.67L1433.1 194.57" stroke="#132e65" stroke-width="1.5"></path><path d="M1409.71 78.86L1409.71 78.86" stroke="#132e65" stroke-width="1.5"></path><path d="M1409.71 78.86L1433.1 194.57" stroke="#132e65" stroke-width="1.5"></path><path d="M1409.71 78.86L1572.93 91.02" stroke="#132e65" stroke-width="1.5"></path><path d="M1409.71 78.86L1308.72 233.9" stroke="#132e65" stroke-width="1.5"></path><path d="M1433.1 194.57L1433.1 194.57" stroke="#132e65" stroke-width="1.5"></path><path d="M1433.1 194.57L1553.85 230.43" stroke="#132e65" stroke-width="1.5"></path><path d="M1433.1 194.57L1426.88 362.73" stroke="#132e65" stroke-width="1.5"></path><path d="M1426.88 362.73L1426.88 362.73" stroke="#132e65" stroke-width="1.5"></path><path d="M1426.88 362.73L1568.85 399.12" stroke="#132e65" stroke-width="1.5"></path><path d="M1426.88 362.73L1395.64 521.68" stroke="#132e65" stroke-width="1.5"></path><path d="M1395.64 521.68L1395.64 521.68" stroke="#132e65" stroke-width="1.5"></path><path d="M1395.64 521.68L1560.79 638.07" stroke="#132e65" stroke-width="1.5"></path><path d="M1395.64 521.68L1568.85 399.12" stroke="#132e65" stroke-width="1.5"></path><path d="M1395.64 521.68L1612 546.16" stroke="#132e65" stroke-width="1.5"></path><path d="M1572.93 91.02L1572.93 91.02" stroke="#132e65" stroke-width="1.5"></path><path d="M1572.93 91.02L1553.85 230.43" stroke="#132e65" stroke-width="1.5"></path><path d="M1572.93 91.02L1433.1 194.57" stroke="#132e65" stroke-width="1.5"></path><path d="M1572.93 91.02L1295.32 40.67" stroke="#132e65" stroke-width="1.5"></path><path d="M1572.93 91.02L1312.3 -43.63" stroke="#132e65" stroke-width="1.5"></path><path d="M1553.85 230.43L1553.85 230.43" stroke="#132e65" stroke-width="1.5"></path><path d="M1553.85 230.43L1568.85 399.12" stroke="#132e65" stroke-width="1.5"></path><path d="M1553.85 230.43L1426.88 362.73" stroke="#132e65" stroke-width="1.5"></path><path d="M1568.85 399.12L1568.85 399.12" stroke="#132e65" stroke-width="1.5"></path><path d="M1568.85 399.12L1612 546.16" stroke="#132e65" stroke-width="1.5"></path><path d="M1568.85 399.12L1560.79 638.07" stroke="#132e65" stroke-width="1.5"></path><path d="M1612 546.16L1612 546.16" stroke="#132e65" stroke-width="1.5"></path><path d="M1612 546.16L1560.79 638.07" stroke="#132e65" stroke-width="1.5"></path><path d="M1560.79 638.07L1560.79 638.07" stroke="#132e65" stroke-width="1.5"></path><path d="M1560.79 638.07L1309.22 556.2" stroke="#132e65" stroke-width="1.5"></path><path d="M1560.79 638.07L1426.88 362.73" stroke="#132e65" stroke-width="1.5"></path><circle r="5" cx="-65.68" cy="339.01" fill="#132e65"></circle><circle r="5" cx="-82.72" cy="529.79" fill="#132e65"></circle><circle r="5" cx="-81.56" cy="691.63" fill="#132e65"></circle><circle r="5" cx="91.67" cy="340.08" fill="#132e65"></circle><circle r="5" cx="81.97" cy="559.36" fill="#132e65"></circle><circle r="5" cx="78.34" cy="661.67" fill="#132e65"></circle><circle r="5" cx="201.08" cy="399.95" fill="#132e65"></circle><circle r="5" cx="224.88" cy="526.66" fill="#132e65"></circle><circle r="5" cx="404.11" cy="550.72" fill="#132e65"></circle><circle r="5" cx="398.98" cy="670.78" fill="#132e65"></circle><circle r="5" cx="561.75" cy="381.11" fill="#132e65"></circle><circle r="5" cx="561.86" cy="538.18" fill="#132e65"></circle><circle r="5" cx="535.98" cy="647.86" fill="#132e65"></circle><circle r="5" cx="682.7" cy="229.53" fill="#132e65"></circle><circle r="5" cx="690.25" cy="370.26" fill="#132e65"></circle><circle r="5" cx="694.91" cy="512.95" fill="#132e65"></circle><circle r="5" cx="684.06" cy="666.02" fill="#132e65"></circle><circle r="5" cx="801.14" cy="189.44" fill="#132e65"></circle><circle r="5" cx="854.79" cy="390.8" fill="#132e65"></circle><circle r="5" cx="797.79" cy="511.51" fill="#132e65"></circle><circle r="5" cx="800.25" cy="645.28" fill="#132e65"></circle><circle r="5" cx="971.49" cy="-104.9" fill="#132e65"></circle><circle r="5" cx="940.23" cy="53.72" fill="#132e65"></circle><circle r="5" cx="945.35" cy="205.23" fill="#132e65"></circle><circle r="5" cx="965.74" cy="405.09" fill="#132e65"></circle><circle r="5" cx="978.38" cy="493.92" fill="#132e65"></circle><circle r="5" cx="942.28" cy="676.2" fill="#132e65"></circle><circle r="5" cx="1101.22" cy="-39.55" fill="#132e65"></circle><circle r="5" cx="1132.22" cy="64.33" fill="#132e65"></circle><circle r="5" cx="1092.87" cy="219.57" fill="#132e65"></circle><circle r="5" cx="1102.33" cy="404.99" fill="#132e65"></circle><circle r="5" cx="1113.73" cy="492.49" fill="#132e65"></circle><circle r="5" cx="1098.8" cy="700.36" fill="#132e65"></circle><circle r="5" cx="1312.3" cy="-43.63" fill="#132e65"></circle><circle r="5" cx="1295.32" cy="40.67" fill="#132e65"></circle><circle r="5" cx="1308.72" cy="233.9" fill="#132e65"></circle><circle r="5" cx="1259.89" cy="347.4" fill="#132e65"></circle><circle r="5" cx="1309.22" cy="556.2" fill="#132e65"></circle><circle r="5" cx="1280.48" cy="675.79" fill="#132e65"></circle><circle r="5" cx="1439.3" cy="-47.67" fill="#132e65"></circle><circle r="5" cx="1409.71" cy="78.86" fill="#132e65"></circle><circle r="5" cx="1433.1" cy="194.57" fill="#132e65"></circle><circle r="5" cx="1426.88" cy="362.73" fill="#132e65"></circle><circle r="5" cx="1395.64" cy="521.68" fill="#132e65"></circle><circle r="5" cx="1572.93" cy="91.02" fill="#132e65"></circle><circle r="5" cx="1553.85" cy="230.43" fill="#132e65"></circle><circle r="5" cx="1568.85" cy="399.12" fill="#132e65"></circle><circle r="5" cx="1612" cy="546.16" fill="#132e65"></circle><circle r="5" cx="1560.79" cy="638.07" fill="#132e65"></circle><path d="M-87.74 668.31L-87.74 668.31" stroke="hsl(228.5, 77.2%, 51.5%)" stroke-width="1.5"></path><path d="M-87.74 668.31L61.28 701.44" stroke="hsl(228.5, 77.2%, 51.5%)" stroke-width="1.5"></path><path d="M-87.74 668.31L-40.71 522.82" stroke="hsl(228.5, 77.2%, 51.5%)" stroke-width="1.5"></path><path d="M-87.74 668.31L52.32 515.21" stroke="hsl(228.5, 77.2%, 51.5%)" stroke-width="1.5"></path><path d="M-87.74 668.31L215.27 676" stroke="hsl(228.5, 77.2%, 51.5%)" stroke-width="1.5"></path><path d="M-87.74 668.31L225.93 545.57" stroke="hsl(228.5, 77.2%, 51.5%)" stroke-width="1.5"></path><path d="M-87.74 668.31L372.34 710.11" stroke="hsl(228.5, 77.2%, 51.5%)" stroke-width="1.5"></path><path d="M52.32 515.21L52.32 515.21" stroke="hsl(228.5, 77.2%, 51.5%)" stroke-width="1.5"></path><path d="M52.32 515.21L-40.71 522.82" stroke="hsl(228.5, 77.2%, 51.5%)" stroke-width="1.5"></path><path d="M52.32 515.21L225.93 545.57" stroke="hsl(228.5, 77.2%, 51.5%)" stroke-width="1.5"></path><path d="M52.32 515.21L61.28 701.44" stroke="hsl(228.5, 77.2%, 51.5%)" stroke-width="1.5"></path><path d="M52.32 515.21L215.27 676" stroke="hsl(228.5, 77.2%, 51.5%)" stroke-width="1.5"></path><path d="M52.32 515.21L372.34 710.11" stroke="hsl(228.5, 77.2%, 51.5%)" stroke-width="1.5"></path><path d="M372.34 710.11L372.34 710.11" stroke="hsl(228.5, 77.2%, 51.5%)" stroke-width="1.5"></path><path d="M372.34 710.11L497.36 650.11" stroke="hsl(228.5, 77.2%, 51.5%)" stroke-width="1.5"></path><path d="M372.34 710.11L215.27 676" stroke="hsl(228.5, 77.2%, 51.5%)" stroke-width="1.5"></path><path d="M372.34 710.11L225.93 545.57" stroke="hsl(228.5, 77.2%, 51.5%)" stroke-width="1.5"></path><path d="M647.88 407.62L647.88 407.62" stroke="hsl(228.5, 77.2%, 51.5%)" stroke-width="1.5"></path><path d="M647.88 407.62L684.32 553.41" stroke="hsl(228.5, 77.2%, 51.5%)" stroke-width="1.5"></path><path d="M647.88 407.62L493.97 489.12" stroke="hsl(228.5, 77.2%, 51.5%)" stroke-width="1.5"></path><path d="M647.88 407.62L822.82 362.07" stroke="hsl(228.5, 77.2%, 51.5%)" stroke-width="1.5"></path><path d="M647.88 407.62L812.78 557.65" stroke="hsl(228.5, 77.2%, 51.5%)" stroke-width="1.5"></path><path d="M647.88 407.62L687.48 648.57" stroke="hsl(228.5, 77.2%, 51.5%)" stroke-width="1.5"></path><path d="M647.88 407.62L497.36 650.11" stroke="hsl(228.5, 77.2%, 51.5%)" stroke-width="1.5"></path><path d="M993.07 242.69L993.07 242.69" stroke="hsl(228.5, 77.2%, 51.5%)" stroke-width="1.5"></path><path d="M993.07 242.69L1010.22 359.92" stroke="hsl(228.5, 77.2%, 51.5%)" stroke-width="1.5"></path><path d="M993.07 242.69L1160.05 259.57" stroke="hsl(228.5, 77.2%, 51.5%)" stroke-width="1.5"></path><path d="M993.07 242.69L1124.49 351.32" stroke="hsl(228.5, 77.2%, 51.5%)" stroke-width="1.5"></path><path d="M993.07 242.69L822.82 362.07" stroke="hsl(228.5, 77.2%, 51.5%)" stroke-width="1.5"></path><path d="M945.54 663.58L945.54 663.58" stroke="hsl(228.5, 77.2%, 51.5%)" stroke-width="1.5"></path><path d="M945.54 663.58L1007.74 543.03" stroke="hsl(228.5, 77.2%, 51.5%)" stroke-width="1.5"></path><path d="M945.54 663.58L812.78 557.65" stroke="hsl(228.5, 77.2%, 51.5%)" stroke-width="1.5"></path><path d="M945.54 663.58L1104.4 558.04" stroke="hsl(228.5, 77.2%, 51.5%)" stroke-width="1.5"></path><path d="M945.54 663.58L687.48 648.57" stroke="hsl(228.5, 77.2%, 51.5%)" stroke-width="1.5"></path><path d="M-40.71 522.82L-40.71 522.82" stroke="hsl(228.5, 77.2%, 51.5%)" stroke-width="1.5"></path><path d="M61.28 701.44L61.28 701.44" stroke="hsl(228.5, 77.2%, 51.5%)" stroke-width="1.5"></path><path d="M61.28 701.44L215.27 676" stroke="hsl(228.5, 77.2%, 51.5%)" stroke-width="1.5"></path><path d="M225.93 545.57L225.93 545.57" stroke="hsl(228.5, 77.2%, 51.5%)" stroke-width="1.5"></path><path d="M225.93 545.57L215.27 676" stroke="hsl(228.5, 77.2%, 51.5%)" stroke-width="1.5"></path><path d="M215.27 676L215.27 676" stroke="hsl(228.5, 77.2%, 51.5%)" stroke-width="1.5"></path><path d="M215.27 676L497.36 650.11" stroke="hsl(228.5, 77.2%, 51.5%)" stroke-width="1.5"></path><path d="M493.97 489.12L493.97 489.12" stroke="hsl(228.5, 77.2%, 51.5%)" stroke-width="1.5"></path><path d="M493.97 489.12L497.36 650.11" stroke="hsl(228.5, 77.2%, 51.5%)" stroke-width="1.5"></path><path d="M493.97 489.12L684.32 553.41" stroke="hsl(228.5, 77.2%, 51.5%)" stroke-width="1.5"></path><path d="M493.97 489.12L687.48 648.57" stroke="hsl(228.5, 77.2%, 51.5%)" stroke-width="1.5"></path><path d="M493.97 489.12L372.34 710.11" stroke="hsl(228.5, 77.2%, 51.5%)" stroke-width="1.5"></path><path d="M497.36 650.11L497.36 650.11" stroke="hsl(228.5, 77.2%, 51.5%)" stroke-width="1.5"></path><path d="M684.32 553.41L684.32 553.41" stroke="hsl(228.5, 77.2%, 51.5%)" stroke-width="1.5"></path><path d="M684.32 553.41L687.48 648.57" stroke="hsl(228.5, 77.2%, 51.5%)" stroke-width="1.5"></path><path d="M684.32 553.41L812.78 557.65" stroke="hsl(228.5, 77.2%, 51.5%)" stroke-width="1.5"></path><path d="M687.48 648.57L687.48 648.57" stroke="hsl(228.5, 77.2%, 51.5%)" stroke-width="1.5"></path><path d="M687.48 648.57L812.78 557.65" stroke="hsl(228.5, 77.2%, 51.5%)" stroke-width="1.5"></path><path d="M687.48 648.57L497.36 650.11" stroke="hsl(228.5, 77.2%, 51.5%)" stroke-width="1.5"></path><path d="M822.82 362.07L822.82 362.07" stroke="hsl(228.5, 77.2%, 51.5%)" stroke-width="1.5"></path><path d="M822.82 362.07L1010.22 359.92" stroke="hsl(228.5, 77.2%, 51.5%)" stroke-width="1.5"></path><path d="M822.82 362.07L812.78 557.65" stroke="hsl(228.5, 77.2%, 51.5%)" stroke-width="1.5"></path><path d="M812.78 557.65L812.78 557.65" stroke="hsl(228.5, 77.2%, 51.5%)" stroke-width="1.5"></path><path d="M1010.22 359.92L1010.22 359.92" stroke="hsl(228.5, 77.2%, 51.5%)" stroke-width="1.5"></path><path d="M1010.22 359.92L1124.49 351.32" stroke="hsl(228.5, 77.2%, 51.5%)" stroke-width="1.5"></path><path d="M1010.22 359.92L1160.05 259.57" stroke="hsl(228.5, 77.2%, 51.5%)" stroke-width="1.5"></path><path d="M1010.22 359.92L1007.74 543.03" stroke="hsl(228.5, 77.2%, 51.5%)" stroke-width="1.5"></path><path d="M1007.74 543.03L1007.74 543.03" stroke="hsl(228.5, 77.2%, 51.5%)" stroke-width="1.5"></path><path d="M1007.74 543.03L1104.4 558.04" stroke="hsl(228.5, 77.2%, 51.5%)" stroke-width="1.5"></path><path d="M1160.05 259.57L1160.05 259.57" stroke="hsl(228.5, 77.2%, 51.5%)" stroke-width="1.5"></path><path d="M1160.05 259.57L1124.49 351.32" stroke="hsl(228.5, 77.2%, 51.5%)" stroke-width="1.5"></path><path d="M1160.05 259.57L1289.94 363.37" stroke="hsl(228.5, 77.2%, 51.5%)" stroke-width="1.5"></path><path d="M1124.49 351.32L1124.49 351.32" stroke="hsl(228.5, 77.2%, 51.5%)" stroke-width="1.5"></path><path d="M1124.49 351.32L1289.94 363.37" stroke="hsl(228.5, 77.2%, 51.5%)" stroke-width="1.5"></path><path d="M1124.49 351.32L1104.4 558.04" stroke="hsl(228.5, 77.2%, 51.5%)" stroke-width="1.5"></path><path d="M1124.49 351.32L1279.96 509.3" stroke="hsl(228.5, 77.2%, 51.5%)" stroke-width="1.5"></path><path d="M1104.4 558.04L1104.4 558.04" stroke="hsl(228.5, 77.2%, 51.5%)" stroke-width="1.5"></path><path d="M1104.4 558.04L1279.96 509.3" stroke="hsl(228.5, 77.2%, 51.5%)" stroke-width="1.5"></path><path d="M1260.4 -59.16L1260.4 -59.16" stroke="hsl(228.5, 77.2%, 51.5%)" stroke-width="1.5"></path><path d="M1260.4 -59.16L1271.5 39.25" stroke="hsl(228.5, 77.2%, 51.5%)" stroke-width="1.5"></path><path d="M1260.4 -59.16L1406.29 -59.85" stroke="hsl(228.5, 77.2%, 51.5%)" stroke-width="1.5"></path><path d="M1260.4 -59.16L1446.02 83.32" stroke="hsl(228.5, 77.2%, 51.5%)" stroke-width="1.5"></path><path d="M1260.4 -59.16L1432.29 200.62" stroke="hsl(228.5, 77.2%, 51.5%)" stroke-width="1.5"></path><path d="M1260.4 -59.16L1160.05 259.57" stroke="hsl(228.5, 77.2%, 51.5%)" stroke-width="1.5"></path><path d="M1271.5 39.25L1271.5 39.25" stroke="hsl(228.5, 77.2%, 51.5%)" stroke-width="1.5"></path><path d="M1271.5 39.25L1406.29 -59.85" stroke="hsl(228.5, 77.2%, 51.5%)" stroke-width="1.5"></path><path d="M1271.5 39.25L1446.02 83.32" stroke="hsl(228.5, 77.2%, 51.5%)" stroke-width="1.5"></path><path d="M1271.5 39.25L1432.29 200.62" stroke="hsl(228.5, 77.2%, 51.5%)" stroke-width="1.5"></path><path d="M1271.5 39.25L1160.05 259.57" stroke="hsl(228.5, 77.2%, 51.5%)" stroke-width="1.5"></path><path d="M1271.5 39.25L1586.54 110.13" stroke="hsl(228.5, 77.2%, 51.5%)" stroke-width="1.5"></path><path d="M1289.94 363.37L1289.94 363.37" stroke="hsl(228.5, 77.2%, 51.5%)" stroke-width="1.5"></path><path d="M1289.94 363.37L1279.96 509.3" stroke="hsl(228.5, 77.2%, 51.5%)" stroke-width="1.5"></path><path d="M1289.94 363.37L1432.29 200.62" stroke="hsl(228.5, 77.2%, 51.5%)" stroke-width="1.5"></path><path d="M1289.94 363.37L1445.02 516.19" stroke="hsl(228.5, 77.2%, 51.5%)" stroke-width="1.5"></path><path d="M1289.94 363.37L1104.4 558.04" stroke="hsl(228.5, 77.2%, 51.5%)" stroke-width="1.5"></path><path d="M1279.96 509.3L1279.96 509.3" stroke="hsl(228.5, 77.2%, 51.5%)" stroke-width="1.5"></path><path d="M1279.96 509.3L1445.02 516.19" stroke="hsl(228.5, 77.2%, 51.5%)" stroke-width="1.5"></path><path d="M1279.96 509.3L1260.41 707.05" stroke="hsl(228.5, 77.2%, 51.5%)" stroke-width="1.5"></path><path d="M1260.41 707.05L1260.41 707.05" stroke="hsl(228.5, 77.2%, 51.5%)" stroke-width="1.5"></path><path d="M1260.41 707.05L1447.35 681.55" stroke="hsl(228.5, 77.2%, 51.5%)" stroke-width="1.5"></path><path d="M1260.41 707.05L1104.4 558.04" stroke="hsl(228.5, 77.2%, 51.5%)" stroke-width="1.5"></path><path d="M1260.41 707.05L1445.02 516.19" stroke="hsl(228.5, 77.2%, 51.5%)" stroke-width="1.5"></path><path d="M1260.41 707.05L1007.74 543.03" stroke="hsl(228.5, 77.2%, 51.5%)" stroke-width="1.5"></path><path d="M1406.29 -59.85L1406.29 -59.85" stroke="hsl(228.5, 77.2%, 51.5%)" stroke-width="1.5"></path><path d="M1406.29 -59.85L1446.02 83.32" stroke="hsl(228.5, 77.2%, 51.5%)" stroke-width="1.5"></path><path d="M1446.02 83.32L1446.02 83.32" stroke="hsl(228.5, 77.2%, 51.5%)" stroke-width="1.5"></path><path d="M1446.02 83.32L1432.29 200.62" stroke="hsl(228.5, 77.2%, 51.5%)" stroke-width="1.5"></path><path d="M1446.02 83.32L1586.54 110.13" stroke="hsl(228.5, 77.2%, 51.5%)" stroke-width="1.5"></path><path d="M1446.02 83.32L1611.52 -59.84" stroke="hsl(228.5, 77.2%, 51.5%)" stroke-width="1.5"></path><path d="M1446.02 83.32L1596.89 253.71" stroke="hsl(228.5, 77.2%, 51.5%)" stroke-width="1.5"></path><path d="M1432.29 200.62L1432.29 200.62" stroke="hsl(228.5, 77.2%, 51.5%)" stroke-width="1.5"></path><path d="M1432.29 200.62L1596.89 253.71" stroke="hsl(228.5, 77.2%, 51.5%)" stroke-width="1.5"></path><path d="M1432.29 200.62L1586.54 110.13" stroke="hsl(228.5, 77.2%, 51.5%)" stroke-width="1.5"></path><path d="M1445.02 516.19L1445.02 516.19" stroke="hsl(228.5, 77.2%, 51.5%)" stroke-width="1.5"></path><path d="M1445.02 516.19L1591.16 553.02" stroke="hsl(228.5, 77.2%, 51.5%)" stroke-width="1.5"></path><path d="M1445.02 516.19L1447.35 681.55" stroke="hsl(228.5, 77.2%, 51.5%)" stroke-width="1.5"></path><path d="M1445.02 516.19L1584.79 386.96" stroke="hsl(228.5, 77.2%, 51.5%)" stroke-width="1.5"></path><path d="M1445.02 516.19L1597.12 673.74" stroke="hsl(228.5, 77.2%, 51.5%)" stroke-width="1.5"></path><path d="M1447.35 681.55L1447.35 681.55" stroke="hsl(228.5, 77.2%, 51.5%)" stroke-width="1.5"></path><path d="M1447.35 681.55L1597.12 673.74" stroke="hsl(228.5, 77.2%, 51.5%)" stroke-width="1.5"></path><path d="M1447.35 681.55L1591.16 553.02" stroke="hsl(228.5, 77.2%, 51.5%)" stroke-width="1.5"></path><path d="M1611.52 -59.84L1611.52 -59.84" stroke="hsl(228.5, 77.2%, 51.5%)" stroke-width="1.5"></path><path d="M1611.52 -59.84L1586.54 110.13" stroke="hsl(228.5, 77.2%, 51.5%)" stroke-width="1.5"></path><path d="M1611.52 -59.84L1406.29 -59.85" stroke="hsl(228.5, 77.2%, 51.5%)" stroke-width="1.5"></path><path d="M1611.52 -59.84L1596.89 253.71" stroke="hsl(228.5, 77.2%, 51.5%)" stroke-width="1.5"></path><path d="M1586.54 110.13L1586.54 110.13" stroke="hsl(228.5, 77.2%, 51.5%)" stroke-width="1.5"></path><path d="M1586.54 110.13L1596.89 253.71" stroke="hsl(228.5, 77.2%, 51.5%)" stroke-width="1.5"></path><path d="M1586.54 110.13L1406.29 -59.85" stroke="hsl(228.5, 77.2%, 51.5%)" stroke-width="1.5"></path><path d="M1596.89 253.71L1596.89 253.71" stroke="hsl(228.5, 77.2%, 51.5%)" stroke-width="1.5"></path><path d="M1596.89 253.71L1584.79 386.96" stroke="hsl(228.5, 77.2%, 51.5%)" stroke-width="1.5"></path><path d="M1584.79 386.96L1584.79 386.96" stroke="hsl(228.5, 77.2%, 51.5%)" stroke-width="1.5"></path><path d="M1584.79 386.96L1591.16 553.02" stroke="hsl(228.5, 77.2%, 51.5%)" stroke-width="1.5"></path><path d="M1584.79 386.96L1432.29 200.62" stroke="hsl(228.5, 77.2%, 51.5%)" stroke-width="1.5"></path><path d="M1584.79 386.96L1586.54 110.13" stroke="hsl(228.5, 77.2%, 51.5%)" stroke-width="1.5"></path><path d="M1591.16 553.02L1591.16 553.02" stroke="hsl(228.5, 77.2%, 51.5%)" stroke-width="1.5"></path><path d="M1591.16 553.02L1597.12 673.74" stroke="hsl(228.5, 77.2%, 51.5%)" stroke-width="1.5"></path><path d="M1597.12 673.74L1597.12 673.74" stroke="hsl(228.5, 77.2%, 51.5%)" stroke-width="1.5"></path><path d="M1597.12 673.74L1584.79 386.96" stroke="hsl(228.5, 77.2%, 51.5%)" stroke-width="1.5"></path><circle r="25" cx="-87.74" cy="668.31" fill="url(&quot;#SvgjsRadialGradient1011&quot;)"></circle><circle r="25" cx="52.32" cy="515.21" fill="url(&quot;#SvgjsRadialGradient1011&quot;)"></circle><circle r="25" cx="372.34" cy="710.11" fill="url(&quot;#SvgjsRadialGradient1011&quot;)"></circle><circle r="25" cx="647.88" cy="407.62" fill="url(&quot;#SvgjsRadialGradient1011&quot;)"></circle><circle r="25" cx="993.07" cy="242.69" fill="url(&quot;#SvgjsRadialGradient1011&quot;)"></circle><circle r="25" cx="945.54" cy="663.58" fill="url(&quot;#SvgjsRadialGradient1011&quot;)"></circle><circle r="5" cx="-40.71" cy="522.82" fill="#8b9ad9"></circle><circle r="5" cx="61.28" cy="701.44" fill="#8b9ad9"></circle><circle r="5" cx="225.93" cy="545.57" fill="#8b9ad9"></circle><circle r="5" cx="215.27" cy="676" fill="#8b9ad9"></circle><circle r="5" cx="493.97" cy="489.12" fill="#8b9ad9"></circle><circle r="5" cx="497.36" cy="650.11" fill="#8b9ad9"></circle><circle r="5" cx="684.32" cy="553.41" fill="#8b9ad9"></circle><circle r="5" cx="687.48" cy="648.57" fill="#8b9ad9"></circle><circle r="5" cx="822.82" cy="362.07" fill="#8b9ad9"></circle><circle r="5" cx="812.78" cy="557.65" fill="#8b9ad9"></circle><circle r="5" cx="1010.22" cy="359.92" fill="#8b9ad9"></circle><circle r="5" cx="1007.74" cy="543.03" fill="#8b9ad9"></circle><circle r="5" cx="1160.05" cy="259.57" fill="#8b9ad9"></circle><circle r="5" cx="1124.49" cy="351.32" fill="#8b9ad9"></circle><circle r="5" cx="1104.4" cy="558.04" fill="#8b9ad9"></circle><circle r="5" cx="1260.4" cy="-59.16" fill="#8b9ad9"></circle><circle r="5" cx="1271.5" cy="39.25" fill="#8b9ad9"></circle><circle r="5" cx="1289.94" cy="363.37" fill="#8b9ad9"></circle><circle r="5" cx="1279.96" cy="509.3" fill="#8b9ad9"></circle><circle r="5" cx="1260.41" cy="707.05" fill="#8b9ad9"></circle><circle r="5" cx="1406.29" cy="-59.85" fill="#8b9ad9"></circle><circle r="5" cx="1446.02" cy="83.32" fill="#8b9ad9"></circle><circle r="5" cx="1432.29" cy="200.62" fill="#8b9ad9"></circle><circle r="5" cx="1445.02" cy="516.19" fill="#8b9ad9"></circle><circle r="5" cx="1447.35" cy="681.55" fill="#8b9ad9"></circle><circle r="5" cx="1611.52" cy="-59.84" fill="#8b9ad9"></circle><circle r="5" cx="1586.54" cy="110.13" fill="#8b9ad9"></circle><circle r="5" cx="1596.89" cy="253.71" fill="#8b9ad9"></circle><circle r="5" cx="1584.79" cy="386.96" fill="#8b9ad9"></circle><circle r="5" cx="1591.16" cy="553.02" fill="#8b9ad9"></circle><circle r="5" cx="1597.12" cy="673.74" fill="#8b9ad9"></circle></g><defs><mask id="SvgjsMask1010"><rect width="1440" height="560" fill="#ffffff"></rect></mask><radialGradient id="SvgjsRadialGradient1011"><stop stop-color="#ffffff" offset="0.1"></stop><stop stop-color="#1735b3" offset="0.2"></stop><stop stop-color="rgba(23, 53, 179, 0)" offset="1"></stop></radialGradient></defs></svg>