<svg xmlns="http://www.w3.org/2000/svg" version="1.1" xmlns:xlink="http://www.w3.org/1999/xlink" xmlns:svgjs="http://svgjs.dev/svgjs" width="1452" height="565" preserveAspectRatio="none" viewBox="0 0 1452 565"><g mask="url(&quot;#SvgjsMask1040&quot;)" fill="none"><path d="M-76.83 408.18L-76.83 408.18" stroke="#132e65" stroke-width="1.5"></path><path d="M-76.83 408.18L-104.71 535.55" stroke="#132e65" stroke-width="1.5"></path><path d="M-76.83 408.18L80.48 381.27" stroke="#132e65" stroke-width="1.5"></path><path d="M-104.71 535.55L-104.71 535.55" stroke="#132e65" stroke-width="1.5"></path><path d="M-104.71 535.55L-102.77 684.69" stroke="#132e65" stroke-width="1.5"></path><path d="M-104.71 535.55L63.89 527.39" stroke="#132e65" stroke-width="1.5"></path><path d="M-102.77 684.69L-102.77 684.69" stroke="#132e65" stroke-width="1.5"></path><path d="M-102.77 684.69L108.73 660.44" stroke="#132e65" stroke-width="1.5"></path><path d="M-102.77 684.69L63.89 527.39" stroke="#132e65" stroke-width="1.5"></path><path d="M-102.77 684.69L-76.83 408.18" stroke="#132e65" stroke-width="1.5"></path><path d="M80.48 381.27L80.48 381.27" stroke="#132e65" stroke-width="1.5"></path><path d="M80.48 381.27L204.62 386.7" stroke="#132e65" stroke-width="1.5"></path><path d="M80.48 381.27L63.89 527.39" stroke="#132e65" stroke-width="1.5"></path><path d="M80.48 381.27L240.29 494.65" stroke="#132e65" stroke-width="1.5"></path><path d="M80.48 381.27L-104.71 535.55" stroke="#132e65" stroke-width="1.5"></path><path d="M80.48 381.27L355.94 391.35" stroke="#132e65" stroke-width="1.5"></path><path d="M63.89 527.39L63.89 527.39" stroke="#132e65" stroke-width="1.5"></path><path d="M63.89 527.39L108.73 660.44" stroke="#132e65" stroke-width="1.5"></path><path d="M108.73 660.44L108.73 660.44" stroke="#132e65" stroke-width="1.5"></path><path d="M108.73 660.44L191.57 673.05" stroke="#132e65" stroke-width="1.5"></path><path d="M108.73 660.44L240.29 494.65" stroke="#132e65" stroke-width="1.5"></path><path d="M204.62 386.7L204.62 386.7" stroke="#132e65" stroke-width="1.5"></path><path d="M204.62 386.7L240.29 494.65" stroke="#132e65" stroke-width="1.5"></path><path d="M204.62 386.7L355.94 391.35" stroke="#132e65" stroke-width="1.5"></path><path d="M204.62 386.7L63.89 527.39" stroke="#132e65" stroke-width="1.5"></path><path d="M204.62 386.7L377.76 535.95" stroke="#132e65" stroke-width="1.5"></path><path d="M204.62 386.7L-76.83 408.18" stroke="#132e65" stroke-width="1.5"></path><path d="M240.29 494.65L240.29 494.65" stroke="#132e65" stroke-width="1.5"></path><path d="M240.29 494.65L377.76 535.95" stroke="#132e65" stroke-width="1.5"></path><path d="M240.29 494.65L355.94 391.35" stroke="#132e65" stroke-width="1.5"></path><path d="M240.29 494.65L63.89 527.39" stroke="#132e65" stroke-width="1.5"></path><path d="M191.57 673.05L191.57 673.05" stroke="#132e65" stroke-width="1.5"></path><path d="M191.57 673.05L373.42 663.87" stroke="#132e65" stroke-width="1.5"></path><path d="M191.57 673.05L240.29 494.65" stroke="#132e65" stroke-width="1.5"></path><path d="M191.57 673.05L63.89 527.39" stroke="#132e65" stroke-width="1.5"></path><path d="M191.57 673.05L377.76 535.95" stroke="#132e65" stroke-width="1.5"></path><path d="M355.94 391.35L355.94 391.35" stroke="#132e65" stroke-width="1.5"></path><path d="M355.94 391.35L377.76 535.95" stroke="#132e65" stroke-width="1.5"></path><path d="M377.76 535.95L377.76 535.95" stroke="#132e65" stroke-width="1.5"></path><path d="M377.76 535.95L373.42 663.87" stroke="#132e65" stroke-width="1.5"></path><path d="M377.76 535.95L516.19 498.57" stroke="#132e65" stroke-width="1.5"></path><path d="M373.42 663.87L373.42 663.87" stroke="#132e65" stroke-width="1.5"></path><path d="M373.42 663.87L491.99 685.51" stroke="#132e65" stroke-width="1.5"></path><path d="M534.2 393.34L534.2 393.34" stroke="#132e65" stroke-width="1.5"></path><path d="M534.2 393.34L516.19 498.57" stroke="#132e65" stroke-width="1.5"></path><path d="M534.2 393.34L646.65 407.7" stroke="#132e65" stroke-width="1.5"></path><path d="M516.19 498.57L516.19 498.57" stroke="#132e65" stroke-width="1.5"></path><path d="M516.19 498.57L652.43 528.42" stroke="#132e65" stroke-width="1.5"></path><path d="M516.19 498.57L646.65 407.7" stroke="#132e65" stroke-width="1.5"></path><path d="M491.99 685.51L491.99 685.51" stroke="#132e65" stroke-width="1.5"></path><path d="M491.99 685.51L377.76 535.95" stroke="#132e65" stroke-width="1.5"></path><path d="M491.99 685.51L516.19 498.57" stroke="#132e65" stroke-width="1.5"></path><path d="M491.99 685.51L700.73 704.24" stroke="#132e65" stroke-width="1.5"></path><path d="M491.99 685.51L652.43 528.42" stroke="#132e65" stroke-width="1.5"></path><path d="M491.99 685.51L534.2 393.34" stroke="#132e65" stroke-width="1.5"></path><path d="M645.89 247.39L645.89 247.39" stroke="#132e65" stroke-width="1.5"></path><path d="M645.89 247.39L646.65 407.7" stroke="#132e65" stroke-width="1.5"></path><path d="M645.89 247.39L534.2 393.34" stroke="#132e65" stroke-width="1.5"></path><path d="M645.89 247.39L856.89 210.3" stroke="#132e65" stroke-width="1.5"></path><path d="M645.89 247.39L831.58 401.84" stroke="#132e65" stroke-width="1.5"></path><path d="M645.89 247.39L652.43 528.42" stroke="#132e65" stroke-width="1.5"></path><path d="M646.65 407.7L646.65 407.7" stroke="#132e65" stroke-width="1.5"></path><path d="M646.65 407.7L652.43 528.42" stroke="#132e65" stroke-width="1.5"></path><path d="M652.43 528.42L652.43 528.42" stroke="#132e65" stroke-width="1.5"></path><path d="M652.43 528.42L808.2 517.74" stroke="#132e65" stroke-width="1.5"></path><path d="M652.43 528.42L534.2 393.34" stroke="#132e65" stroke-width="1.5"></path><path d="M652.43 528.42L700.73 704.24" stroke="#132e65" stroke-width="1.5"></path><path d="M700.73 704.24L700.73 704.24" stroke="#132e65" stroke-width="1.5"></path><path d="M700.73 704.24L807.19 665.81" stroke="#132e65" stroke-width="1.5"></path><path d="M856.89 210.3L856.89 210.3" stroke="#132e65" stroke-width="1.5"></path><path d="M856.89 210.3L994.26 229.87" stroke="#132e65" stroke-width="1.5"></path><path d="M856.89 210.3L973.58 344.16" stroke="#132e65" stroke-width="1.5"></path><path d="M856.89 210.3L972.79 73.3" stroke="#132e65" stroke-width="1.5"></path><path d="M831.58 401.84L831.58 401.84" stroke="#132e65" stroke-width="1.5"></path><path d="M831.58 401.84L808.2 517.74" stroke="#132e65" stroke-width="1.5"></path><path d="M831.58 401.84L973.58 344.16" stroke="#132e65" stroke-width="1.5"></path><path d="M831.58 401.84L646.65 407.7" stroke="#132e65" stroke-width="1.5"></path><path d="M808.2 517.74L808.2 517.74" stroke="#132e65" stroke-width="1.5"></path><path d="M808.2 517.74L807.19 665.81" stroke="#132e65" stroke-width="1.5"></path><path d="M808.2 517.74L994.44 529.78" stroke="#132e65" stroke-width="1.5"></path><path d="M808.2 517.74L646.65 407.7" stroke="#132e65" stroke-width="1.5"></path><path d="M808.2 517.74L700.73 704.24" stroke="#132e65" stroke-width="1.5"></path><path d="M807.19 665.81L807.19 665.81" stroke="#132e65" stroke-width="1.5"></path><path d="M807.19 665.81L974.42 672.03" stroke="#132e65" stroke-width="1.5"></path><path d="M807.19 665.81L652.43 528.42" stroke="#132e65" stroke-width="1.5"></path><path d="M807.19 665.81L994.44 529.78" stroke="#132e65" stroke-width="1.5"></path><path d="M807.19 665.81L831.58 401.84" stroke="#132e65" stroke-width="1.5"></path><path d="M974.06 -75.6L974.06 -75.6" stroke="#132e65" stroke-width="1.5"></path><path d="M974.06 -75.6L972.79 73.3" stroke="#132e65" stroke-width="1.5"></path><path d="M974.06 -75.6L1135.1 -74.99" stroke="#132e65" stroke-width="1.5"></path><path d="M974.06 -75.6L1094.55 107.58" stroke="#132e65" stroke-width="1.5"></path><path d="M974.06 -75.6L1250.65 -48.84" stroke="#132e65" stroke-width="1.5"></path><path d="M974.06 -75.6L994.26 229.87" stroke="#132e65" stroke-width="1.5"></path><path d="M972.79 73.3L972.79 73.3" stroke="#132e65" stroke-width="1.5"></path><path d="M972.79 73.3L1094.55 107.58" stroke="#132e65" stroke-width="1.5"></path><path d="M972.79 73.3L994.26 229.87" stroke="#132e65" stroke-width="1.5"></path><path d="M972.79 73.3L1135.1 -74.99" stroke="#132e65" stroke-width="1.5"></path><path d="M972.79 73.3L973.58 344.16" stroke="#132e65" stroke-width="1.5"></path><path d="M994.26 229.87L994.26 229.87" stroke="#132e65" stroke-width="1.5"></path><path d="M994.26 229.87L973.58 344.16" stroke="#132e65" stroke-width="1.5"></path><path d="M973.58 344.16L973.58 344.16" stroke="#132e65" stroke-width="1.5"></path><path d="M994.44 529.78L994.44 529.78" stroke="#132e65" stroke-width="1.5"></path><path d="M994.44 529.78L1133.5 518.95" stroke="#132e65" stroke-width="1.5"></path><path d="M994.44 529.78L974.42 672.03" stroke="#132e65" stroke-width="1.5"></path><path d="M994.44 529.78L1096.58 641.02" stroke="#132e65" stroke-width="1.5"></path><path d="M974.42 672.03L974.42 672.03" stroke="#132e65" stroke-width="1.5"></path><path d="M974.42 672.03L1096.58 641.02" stroke="#132e65" stroke-width="1.5"></path><path d="M974.42 672.03L1133.5 518.95" stroke="#132e65" stroke-width="1.5"></path><path d="M1135.1 -74.99L1135.1 -74.99" stroke="#132e65" stroke-width="1.5"></path><path d="M1135.1 -74.99L1250.65 -48.84" stroke="#132e65" stroke-width="1.5"></path><path d="M1135.1 -74.99L1094.55 107.58" stroke="#132e65" stroke-width="1.5"></path><path d="M1135.1 -74.99L1246.2 94.01" stroke="#132e65" stroke-width="1.5"></path><path d="M1094.55 107.58L1094.55 107.58" stroke="#132e65" stroke-width="1.5"></path><path d="M1094.55 107.58L1246.2 94.01" stroke="#132e65" stroke-width="1.5"></path><path d="M1094.55 107.58L994.26 229.87" stroke="#132e65" stroke-width="1.5"></path><path d="M1156.29 385.49L1156.29 385.49" stroke="#132e65" stroke-width="1.5"></path><path d="M1156.29 385.49L1260.25 411.56" stroke="#132e65" stroke-width="1.5"></path><path d="M1156.29 385.49L1133.5 518.95" stroke="#132e65" stroke-width="1.5"></path><path d="M1156.29 385.49L1273.97 250.28" stroke="#132e65" stroke-width="1.5"></path><path d="M1133.5 518.95L1133.5 518.95" stroke="#132e65" stroke-width="1.5"></path><path d="M1133.5 518.95L1096.58 641.02" stroke="#132e65" stroke-width="1.5"></path><path d="M1133.5 518.95L1293.58 546.42" stroke="#132e65" stroke-width="1.5"></path><path d="M1133.5 518.95L1260.25 411.56" stroke="#132e65" stroke-width="1.5"></path><path d="M1096.58 641.02L1096.58 641.02" stroke="#132e65" stroke-width="1.5"></path><path d="M1096.58 641.02L1293.58 546.42" stroke="#132e65" stroke-width="1.5"></path><path d="M1096.58 641.02L1156.29 385.49" stroke="#132e65" stroke-width="1.5"></path><path d="M1096.58 641.02L1260.25 411.56" stroke="#132e65" stroke-width="1.5"></path><path d="M1250.65 -48.84L1250.65 -48.84" stroke="#132e65" stroke-width="1.5"></path><path d="M1250.65 -48.84L1246.2 94.01" stroke="#132e65" stroke-width="1.5"></path><path d="M1250.65 -48.84L1094.55 107.58" stroke="#132e65" stroke-width="1.5"></path><path d="M1250.65 -48.84L1419.53 105.56" stroke="#132e65" stroke-width="1.5"></path><path d="M1250.65 -48.84L1273.97 250.28" stroke="#132e65" stroke-width="1.5"></path><path d="M1246.2 94.01L1246.2 94.01" stroke="#132e65" stroke-width="1.5"></path><path d="M1246.2 94.01L1273.97 250.28" stroke="#132e65" stroke-width="1.5"></path><path d="M1246.2 94.01L1419.53 105.56" stroke="#132e65" stroke-width="1.5"></path><path d="M1273.97 250.28L1273.97 250.28" stroke="#132e65" stroke-width="1.5"></path><path d="M1273.97 250.28L1260.25 411.56" stroke="#132e65" stroke-width="1.5"></path><path d="M1273.97 250.28L1444.83 260.4" stroke="#132e65" stroke-width="1.5"></path><path d="M1260.25 411.56L1260.25 411.56" stroke="#132e65" stroke-width="1.5"></path><path d="M1293.58 546.42L1293.58 546.42" stroke="#132e65" stroke-width="1.5"></path><path d="M1293.58 546.42L1416.43 511.78" stroke="#132e65" stroke-width="1.5"></path><path d="M1293.58 546.42L1260.25 411.56" stroke="#132e65" stroke-width="1.5"></path><path d="M1419.53 105.56L1419.53 105.56" stroke="#132e65" stroke-width="1.5"></path><path d="M1419.53 105.56L1444.83 260.4" stroke="#132e65" stroke-width="1.5"></path><path d="M1419.53 105.56L1611.98 76.86" stroke="#132e65" stroke-width="1.5"></path><path d="M1419.53 105.56L1273.97 250.28" stroke="#132e65" stroke-width="1.5"></path><path d="M1444.83 260.4L1444.83 260.4" stroke="#132e65" stroke-width="1.5"></path><path d="M1444.83 260.4L1435.51 367.33" stroke="#132e65" stroke-width="1.5"></path><path d="M1444.83 260.4L1600.14 358.97" stroke="#132e65" stroke-width="1.5"></path><path d="M1444.83 260.4L1260.25 411.56" stroke="#132e65" stroke-width="1.5"></path><path d="M1435.51 367.33L1435.51 367.33" stroke="#132e65" stroke-width="1.5"></path><path d="M1435.51 367.33L1416.43 511.78" stroke="#132e65" stroke-width="1.5"></path><path d="M1435.51 367.33L1600.14 358.97" stroke="#132e65" stroke-width="1.5"></path><path d="M1416.43 511.78L1416.43 511.78" stroke="#132e65" stroke-width="1.5"></path><path d="M1416.43 511.78L1553.42 500.69" stroke="#132e65" stroke-width="1.5"></path><path d="M1416.43 511.78L1445.38 651.48" stroke="#132e65" stroke-width="1.5"></path><path d="M1416.43 511.78L1260.25 411.56" stroke="#132e65" stroke-width="1.5"></path><path d="M1416.43 511.78L1544.32 653.85" stroke="#132e65" stroke-width="1.5"></path><path d="M1445.38 651.48L1445.38 651.48" stroke="#132e65" stroke-width="1.5"></path><path d="M1445.38 651.48L1544.32 653.85" stroke="#132e65" stroke-width="1.5"></path><path d="M1445.38 651.48L1293.58 546.42" stroke="#132e65" stroke-width="1.5"></path><path d="M1445.38 651.48L1553.42 500.69" stroke="#132e65" stroke-width="1.5"></path><path d="M1445.38 651.48L1435.51 367.33" stroke="#132e65" stroke-width="1.5"></path><path d="M1445.38 651.48L1260.25 411.56" stroke="#132e65" stroke-width="1.5"></path><path d="M1611.88 -85.58L1611.88 -85.58" stroke="#132e65" stroke-width="1.5"></path><path d="M1611.88 -85.58L1611.98 76.86" stroke="#132e65" stroke-width="1.5"></path><path d="M1611.88 -85.58L1419.53 105.56" stroke="#132e65" stroke-width="1.5"></path><path d="M1611.98 76.86L1611.98 76.86" stroke="#132e65" stroke-width="1.5"></path><path d="M1611.98 76.86L1444.83 260.4" stroke="#132e65" stroke-width="1.5"></path><path d="M1611.98 76.86L1600.14 358.97" stroke="#132e65" stroke-width="1.5"></path><path d="M1600.14 358.97L1600.14 358.97" stroke="#132e65" stroke-width="1.5"></path><path d="M1600.14 358.97L1553.42 500.69" stroke="#132e65" stroke-width="1.5"></path><path d="M1600.14 358.97L1416.43 511.78" stroke="#132e65" stroke-width="1.5"></path><path d="M1600.14 358.97L1544.32 653.85" stroke="#132e65" stroke-width="1.5"></path><path d="M1553.42 500.69L1553.42 500.69" stroke="#132e65" stroke-width="1.5"></path><path d="M1553.42 500.69L1544.32 653.85" stroke="#132e65" stroke-width="1.5"></path><path d="M1553.42 500.69L1435.51 367.33" stroke="#132e65" stroke-width="1.5"></path><path d="M1544.32 653.85L1544.32 653.85" stroke="#132e65" stroke-width="1.5"></path><circle r="5" cx="-76.83" cy="408.18" fill="#132e65"></circle><circle r="5" cx="-104.71" cy="535.55" fill="#132e65"></circle><circle r="5" cx="-102.77" cy="684.69" fill="#132e65"></circle><circle r="5" cx="80.48" cy="381.27" fill="#132e65"></circle><circle r="5" cx="63.89" cy="527.39" fill="#132e65"></circle><circle r="5" cx="108.73" cy="660.44" fill="#132e65"></circle><circle r="5" cx="204.62" cy="386.7" fill="#132e65"></circle><circle r="5" cx="240.29" cy="494.65" fill="#132e65"></circle><circle r="5" cx="191.57" cy="673.05" fill="#132e65"></circle><circle r="5" cx="355.94" cy="391.35" fill="#132e65"></circle><circle r="5" cx="377.76" cy="535.95" fill="#132e65"></circle><circle r="5" cx="373.42" cy="663.87" fill="#132e65"></circle><circle r="5" cx="534.2" cy="393.34" fill="#132e65"></circle><circle r="5" cx="516.19" cy="498.57" fill="#132e65"></circle><circle r="5" cx="491.99" cy="685.51" fill="#132e65"></circle><circle r="5" cx="645.89" cy="247.39" fill="#132e65"></circle><circle r="5" cx="646.65" cy="407.7" fill="#132e65"></circle><circle r="5" cx="652.43" cy="528.42" fill="#132e65"></circle><circle r="5" cx="700.73" cy="704.24" fill="#132e65"></circle><circle r="5" cx="856.89" cy="210.3" fill="#132e65"></circle><circle r="5" cx="831.58" cy="401.84" fill="#132e65"></circle><circle r="5" cx="808.2" cy="517.74" fill="#132e65"></circle><circle r="5" cx="807.19" cy="665.81" fill="#132e65"></circle><circle r="5" cx="974.06" cy="-75.6" fill="#132e65"></circle><circle r="5" cx="972.79" cy="73.3" fill="#132e65"></circle><circle r="5" cx="994.26" cy="229.87" fill="#132e65"></circle><circle r="5" cx="973.58" cy="344.16" fill="#132e65"></circle><circle r="5" cx="994.44" cy="529.78" fill="#132e65"></circle><circle r="5" cx="974.42" cy="672.03" fill="#132e65"></circle><circle r="5" cx="1135.1" cy="-74.99" fill="#132e65"></circle><circle r="5" cx="1094.55" cy="107.58" fill="#132e65"></circle><circle r="5" cx="1156.29" cy="385.49" fill="#132e65"></circle><circle r="5" cx="1133.5" cy="518.95" fill="#132e65"></circle><circle r="5" cx="1096.58" cy="641.02" fill="#132e65"></circle><circle r="5" cx="1250.65" cy="-48.84" fill="#132e65"></circle><circle r="5" cx="1246.2" cy="94.01" fill="#132e65"></circle><circle r="5" cx="1273.97" cy="250.28" fill="#132e65"></circle><circle r="5" cx="1260.25" cy="411.56" fill="#132e65"></circle><circle r="5" cx="1293.58" cy="546.42" fill="#132e65"></circle><circle r="5" cx="1419.53" cy="105.56" fill="#132e65"></circle><circle r="5" cx="1444.83" cy="260.4" fill="#132e65"></circle><circle r="5" cx="1435.51" cy="367.33" fill="#132e65"></circle><circle r="5" cx="1416.43" cy="511.78" fill="#132e65"></circle><circle r="5" cx="1445.38" cy="651.48" fill="#132e65"></circle><circle r="5" cx="1611.88" cy="-85.58" fill="#132e65"></circle><circle r="5" cx="1611.98" cy="76.86" fill="#132e65"></circle><circle r="5" cx="1600.14" cy="358.97" fill="#132e65"></circle><circle r="5" cx="1553.42" cy="500.69" fill="#132e65"></circle><circle r="5" cx="1544.32" cy="653.85" fill="#132e65"></circle><path d="M399.06 695.33L399.06 695.33" stroke="hsl(228.5, 77.2%, 51.5%)" stroke-width="1.5"></path><path d="M399.06 695.33L371.77 551.07" stroke="hsl(228.5, 77.2%, 51.5%)" stroke-width="1.5"></path><path d="M399.06 695.33L232.69 648.48" stroke="hsl(228.5, 77.2%, 51.5%)" stroke-width="1.5"></path><path d="M399.06 695.33L524.98 520.77" stroke="hsl(228.5, 77.2%, 51.5%)" stroke-width="1.5"></path><path d="M399.06 695.33L238.44 549.75" stroke="hsl(228.5, 77.2%, 51.5%)" stroke-width="1.5"></path><path d="M399.06 695.33L677.27 673.95" stroke="hsl(228.5, 77.2%, 51.5%)" stroke-width="1.5"></path><path d="M399.06 695.33L662.52 532.59" stroke="hsl(228.5, 77.2%, 51.5%)" stroke-width="1.5"></path><path d="M1127.83 222.67L1127.83 222.67" stroke="hsl(228.5, 77.2%, 51.5%)" stroke-width="1.5"></path><path d="M1127.83 222.67L1262.71 239.4" stroke="hsl(228.5, 77.2%, 51.5%)" stroke-width="1.5"></path><path d="M1127.83 222.67L1142.49 85.33" stroke="hsl(228.5, 77.2%, 51.5%)" stroke-width="1.5"></path><path d="M1127.83 222.67L990.93 242.17" stroke="hsl(228.5, 77.2%, 51.5%)" stroke-width="1.5"></path><path d="M1148.2 371.25L1148.2 371.25" stroke="hsl(228.5, 77.2%, 51.5%)" stroke-width="1.5"></path><path d="M1148.2 371.25L1256.56 348.71" stroke="hsl(228.5, 77.2%, 51.5%)" stroke-width="1.5"></path><path d="M1148.2 371.25L1127.83 222.67" stroke="hsl(228.5, 77.2%, 51.5%)" stroke-width="1.5"></path><path d="M1102.66 694.29L1102.66 694.29" stroke="hsl(228.5, 77.2%, 51.5%)" stroke-width="1.5"></path><path d="M1102.66 694.29L986.52 653.52" stroke="hsl(228.5, 77.2%, 51.5%)" stroke-width="1.5"></path><path d="M1102.66 694.29L1273.77 694.57" stroke="hsl(228.5, 77.2%, 51.5%)" stroke-width="1.5"></path><path d="M1102.66 694.29L959.31 533.73" stroke="hsl(228.5, 77.2%, 51.5%)" stroke-width="1.5"></path><path d="M1102.66 694.29L1283.53 491.34" stroke="hsl(228.5, 77.2%, 51.5%)" stroke-width="1.5"></path><path d="M1268.45 -49.82L1268.45 -49.82" stroke="hsl(228.5, 77.2%, 51.5%)" stroke-width="1.5"></path><path d="M1268.45 -49.82L1289.86 84.9" stroke="hsl(228.5, 77.2%, 51.5%)" stroke-width="1.5"></path><path d="M1268.45 -49.82L1429.03 -64.83" stroke="hsl(228.5, 77.2%, 51.5%)" stroke-width="1.5"></path><path d="M1268.45 -49.82L1142.49 85.33" stroke="hsl(228.5, 77.2%, 51.5%)" stroke-width="1.5"></path><path d="M1538.18 487.55L1538.18 487.55" stroke="hsl(228.5, 77.2%, 51.5%)" stroke-width="1.5"></path><path d="M1538.18 487.55L1412.32 545.01" stroke="hsl(228.5, 77.2%, 51.5%)" stroke-width="1.5"></path><path d="M1538.18 487.55L1588.7 349.55" stroke="hsl(228.5, 77.2%, 51.5%)" stroke-width="1.5"></path><path d="M1538.18 487.55L1550.69 641.66" stroke="hsl(228.5, 77.2%, 51.5%)" stroke-width="1.5"></path><path d="M1538.18 487.55L1421.43 382.67" stroke="hsl(228.5, 77.2%, 51.5%)" stroke-width="1.5"></path><path d="M1538.18 487.55L1593.67 260.62" stroke="hsl(228.5, 77.2%, 51.5%)" stroke-width="1.5"></path><path d="M-84.3 541.76L-84.3 541.76" stroke="hsl(228.5, 77.2%, 51.5%)" stroke-width="1.5"></path><path d="M-84.3 541.76L-107.2 668.08" stroke="hsl(228.5, 77.2%, 51.5%)" stroke-width="1.5"></path><path d="M-84.3 541.76L56.72 538.52" stroke="hsl(228.5, 77.2%, 51.5%)" stroke-width="1.5"></path><path d="M-84.3 541.76L43.33 703.47" stroke="hsl(228.5, 77.2%, 51.5%)" stroke-width="1.5"></path><path d="M-84.3 541.76L238.44 549.75" stroke="hsl(228.5, 77.2%, 51.5%)" stroke-width="1.5"></path><path d="M-107.2 668.08L-107.2 668.08" stroke="hsl(228.5, 77.2%, 51.5%)" stroke-width="1.5"></path><path d="M-107.2 668.08L43.33 703.47" stroke="hsl(228.5, 77.2%, 51.5%)" stroke-width="1.5"></path><path d="M-107.2 668.08L56.72 538.52" stroke="hsl(228.5, 77.2%, 51.5%)" stroke-width="1.5"></path><path d="M-107.2 668.08L232.69 648.48" stroke="hsl(228.5, 77.2%, 51.5%)" stroke-width="1.5"></path><path d="M-107.2 668.08L238.44 549.75" stroke="hsl(228.5, 77.2%, 51.5%)" stroke-width="1.5"></path><path d="M-107.2 668.08L371.77 551.07" stroke="hsl(228.5, 77.2%, 51.5%)" stroke-width="1.5"></path><path d="M56.72 538.52L56.72 538.52" stroke="hsl(228.5, 77.2%, 51.5%)" stroke-width="1.5"></path><path d="M56.72 538.52L43.33 703.47" stroke="hsl(228.5, 77.2%, 51.5%)" stroke-width="1.5"></path><path d="M56.72 538.52L238.44 549.75" stroke="hsl(228.5, 77.2%, 51.5%)" stroke-width="1.5"></path><path d="M56.72 538.52L232.69 648.48" stroke="hsl(228.5, 77.2%, 51.5%)" stroke-width="1.5"></path><path d="M43.33 703.47L43.33 703.47" stroke="hsl(228.5, 77.2%, 51.5%)" stroke-width="1.5"></path><path d="M43.33 703.47L232.69 648.48" stroke="hsl(228.5, 77.2%, 51.5%)" stroke-width="1.5"></path><path d="M43.33 703.47L238.44 549.75" stroke="hsl(228.5, 77.2%, 51.5%)" stroke-width="1.5"></path><path d="M238.44 549.75L238.44 549.75" stroke="hsl(228.5, 77.2%, 51.5%)" stroke-width="1.5"></path><path d="M238.44 549.75L232.69 648.48" stroke="hsl(228.5, 77.2%, 51.5%)" stroke-width="1.5"></path><path d="M238.44 549.75L371.77 551.07" stroke="hsl(228.5, 77.2%, 51.5%)" stroke-width="1.5"></path><path d="M238.44 549.75L524.98 520.77" stroke="hsl(228.5, 77.2%, 51.5%)" stroke-width="1.5"></path><path d="M232.69 648.48L232.69 648.48" stroke="hsl(228.5, 77.2%, 51.5%)" stroke-width="1.5"></path><path d="M232.69 648.48L371.77 551.07" stroke="hsl(228.5, 77.2%, 51.5%)" stroke-width="1.5"></path><path d="M371.77 551.07L371.77 551.07" stroke="hsl(228.5, 77.2%, 51.5%)" stroke-width="1.5"></path><path d="M371.77 551.07L524.98 520.77" stroke="hsl(228.5, 77.2%, 51.5%)" stroke-width="1.5"></path><path d="M371.77 551.07L662.52 532.59" stroke="hsl(228.5, 77.2%, 51.5%)" stroke-width="1.5"></path><path d="M524.98 520.77L524.98 520.77" stroke="hsl(228.5, 77.2%, 51.5%)" stroke-width="1.5"></path><path d="M524.98 520.77L662.52 532.59" stroke="hsl(228.5, 77.2%, 51.5%)" stroke-width="1.5"></path><path d="M524.98 520.77L677.27 673.95" stroke="hsl(228.5, 77.2%, 51.5%)" stroke-width="1.5"></path><path d="M524.98 520.77L708.11 400.74" stroke="hsl(228.5, 77.2%, 51.5%)" stroke-width="1.5"></path><path d="M708.11 400.74L708.11 400.74" stroke="hsl(228.5, 77.2%, 51.5%)" stroke-width="1.5"></path><path d="M708.11 400.74L820.92 362.35" stroke="hsl(228.5, 77.2%, 51.5%)" stroke-width="1.5"></path><path d="M708.11 400.74L662.52 532.59" stroke="hsl(228.5, 77.2%, 51.5%)" stroke-width="1.5"></path><path d="M662.52 532.59L662.52 532.59" stroke="hsl(228.5, 77.2%, 51.5%)" stroke-width="1.5"></path><path d="M677.27 673.95L677.27 673.95" stroke="hsl(228.5, 77.2%, 51.5%)" stroke-width="1.5"></path><path d="M677.27 673.95L801.43 712.15" stroke="hsl(228.5, 77.2%, 51.5%)" stroke-width="1.5"></path><path d="M677.27 673.95L662.52 532.59" stroke="hsl(228.5, 77.2%, 51.5%)" stroke-width="1.5"></path><path d="M677.27 673.95L708.11 400.74" stroke="hsl(228.5, 77.2%, 51.5%)" stroke-width="1.5"></path><path d="M820.92 362.35L820.92 362.35" stroke="hsl(228.5, 77.2%, 51.5%)" stroke-width="1.5"></path><path d="M820.92 362.35L943.62 364.6" stroke="hsl(228.5, 77.2%, 51.5%)" stroke-width="1.5"></path><path d="M820.92 362.35L990.93 242.17" stroke="hsl(228.5, 77.2%, 51.5%)" stroke-width="1.5"></path><path d="M820.92 362.35L959.31 533.73" stroke="hsl(228.5, 77.2%, 51.5%)" stroke-width="1.5"></path><path d="M801.43 712.15L801.43 712.15" stroke="hsl(228.5, 77.2%, 51.5%)" stroke-width="1.5"></path><path d="M990.93 242.17L990.93 242.17" stroke="hsl(228.5, 77.2%, 51.5%)" stroke-width="1.5"></path><path d="M990.93 242.17L943.62 364.6" stroke="hsl(228.5, 77.2%, 51.5%)" stroke-width="1.5"></path><path d="M990.93 242.17L1148.2 371.25" stroke="hsl(228.5, 77.2%, 51.5%)" stroke-width="1.5"></path><path d="M943.62 364.6L943.62 364.6" stroke="hsl(228.5, 77.2%, 51.5%)" stroke-width="1.5"></path><path d="M943.62 364.6L959.31 533.73" stroke="hsl(228.5, 77.2%, 51.5%)" stroke-width="1.5"></path><path d="M943.62 364.6L1148.2 371.25" stroke="hsl(228.5, 77.2%, 51.5%)" stroke-width="1.5"></path><path d="M943.62 364.6L1127.83 222.67" stroke="hsl(228.5, 77.2%, 51.5%)" stroke-width="1.5"></path><path d="M943.62 364.6L708.11 400.74" stroke="hsl(228.5, 77.2%, 51.5%)" stroke-width="1.5"></path><path d="M959.31 533.73L959.31 533.73" stroke="hsl(228.5, 77.2%, 51.5%)" stroke-width="1.5"></path><path d="M959.31 533.73L986.52 653.52" stroke="hsl(228.5, 77.2%, 51.5%)" stroke-width="1.5"></path><path d="M986.52 653.52L986.52 653.52" stroke="hsl(228.5, 77.2%, 51.5%)" stroke-width="1.5"></path><path d="M986.52 653.52L801.43 712.15" stroke="hsl(228.5, 77.2%, 51.5%)" stroke-width="1.5"></path><path d="M1142.49 85.33L1142.49 85.33" stroke="hsl(228.5, 77.2%, 51.5%)" stroke-width="1.5"></path><path d="M1142.49 85.33L1289.86 84.9" stroke="hsl(228.5, 77.2%, 51.5%)" stroke-width="1.5"></path><path d="M1142.49 85.33L1262.71 239.4" stroke="hsl(228.5, 77.2%, 51.5%)" stroke-width="1.5"></path><path d="M1142.49 85.33L990.93 242.17" stroke="hsl(228.5, 77.2%, 51.5%)" stroke-width="1.5"></path><path d="M1289.86 84.9L1289.86 84.9" stroke="hsl(228.5, 77.2%, 51.5%)" stroke-width="1.5"></path><path d="M1289.86 84.9L1415.89 95.03" stroke="hsl(228.5, 77.2%, 51.5%)" stroke-width="1.5"></path><path d="M1262.71 239.4L1262.71 239.4" stroke="hsl(228.5, 77.2%, 51.5%)" stroke-width="1.5"></path><path d="M1262.71 239.4L1256.56 348.71" stroke="hsl(228.5, 77.2%, 51.5%)" stroke-width="1.5"></path><path d="M1262.71 239.4L1289.86 84.9" stroke="hsl(228.5, 77.2%, 51.5%)" stroke-width="1.5"></path><path d="M1262.71 239.4L1421.77 217.6" stroke="hsl(228.5, 77.2%, 51.5%)" stroke-width="1.5"></path><path d="M1262.71 239.4L1148.2 371.25" stroke="hsl(228.5, 77.2%, 51.5%)" stroke-width="1.5"></path><path d="M1256.56 348.71L1256.56 348.71" stroke="hsl(228.5, 77.2%, 51.5%)" stroke-width="1.5"></path><path d="M1256.56 348.71L1283.53 491.34" stroke="hsl(228.5, 77.2%, 51.5%)" stroke-width="1.5"></path><path d="M1256.56 348.71L1421.43 382.67" stroke="hsl(228.5, 77.2%, 51.5%)" stroke-width="1.5"></path><path d="M1256.56 348.71L1127.83 222.67" stroke="hsl(228.5, 77.2%, 51.5%)" stroke-width="1.5"></path><path d="M1283.53 491.34L1283.53 491.34" stroke="hsl(228.5, 77.2%, 51.5%)" stroke-width="1.5"></path><path d="M1283.53 491.34L1412.32 545.01" stroke="hsl(228.5, 77.2%, 51.5%)" stroke-width="1.5"></path><path d="M1283.53 491.34L1421.43 382.67" stroke="hsl(228.5, 77.2%, 51.5%)" stroke-width="1.5"></path><path d="M1273.77 694.57L1273.77 694.57" stroke="hsl(228.5, 77.2%, 51.5%)" stroke-width="1.5"></path><path d="M1273.77 694.57L1412.25 698.98" stroke="hsl(228.5, 77.2%, 51.5%)" stroke-width="1.5"></path><path d="M1273.77 694.57L1283.53 491.34" stroke="hsl(228.5, 77.2%, 51.5%)" stroke-width="1.5"></path><path d="M1273.77 694.57L1412.32 545.01" stroke="hsl(228.5, 77.2%, 51.5%)" stroke-width="1.5"></path><path d="M1273.77 694.57L1550.69 641.66" stroke="hsl(228.5, 77.2%, 51.5%)" stroke-width="1.5"></path><path d="M1273.77 694.57L986.52 653.52" stroke="hsl(228.5, 77.2%, 51.5%)" stroke-width="1.5"></path><path d="M1429.03 -64.83L1429.03 -64.83" stroke="hsl(228.5, 77.2%, 51.5%)" stroke-width="1.5"></path><path d="M1429.03 -64.83L1580.43 -60.43" stroke="hsl(228.5, 77.2%, 51.5%)" stroke-width="1.5"></path><path d="M1415.89 95.03L1415.89 95.03" stroke="hsl(228.5, 77.2%, 51.5%)" stroke-width="1.5"></path><path d="M1415.89 95.03L1421.77 217.6" stroke="hsl(228.5, 77.2%, 51.5%)" stroke-width="1.5"></path><path d="M1421.77 217.6L1421.77 217.6" stroke="hsl(228.5, 77.2%, 51.5%)" stroke-width="1.5"></path><path d="M1421.77 217.6L1421.43 382.67" stroke="hsl(228.5, 77.2%, 51.5%)" stroke-width="1.5"></path><path d="M1421.77 217.6L1593.67 260.62" stroke="hsl(228.5, 77.2%, 51.5%)" stroke-width="1.5"></path><path d="M1421.43 382.67L1421.43 382.67" stroke="hsl(228.5, 77.2%, 51.5%)" stroke-width="1.5"></path><path d="M1421.43 382.67L1412.32 545.01" stroke="hsl(228.5, 77.2%, 51.5%)" stroke-width="1.5"></path><path d="M1412.32 545.01L1412.32 545.01" stroke="hsl(228.5, 77.2%, 51.5%)" stroke-width="1.5"></path><path d="M1412.32 545.01L1412.25 698.98" stroke="hsl(228.5, 77.2%, 51.5%)" stroke-width="1.5"></path><path d="M1412.32 545.01L1550.69 641.66" stroke="hsl(228.5, 77.2%, 51.5%)" stroke-width="1.5"></path><path d="M1412.25 698.98L1412.25 698.98" stroke="hsl(228.5, 77.2%, 51.5%)" stroke-width="1.5"></path><path d="M1412.25 698.98L1550.69 641.66" stroke="hsl(228.5, 77.2%, 51.5%)" stroke-width="1.5"></path><path d="M1580.43 -60.43L1580.43 -60.43" stroke="hsl(228.5, 77.2%, 51.5%)" stroke-width="1.5"></path><path d="M1580.43 -60.43L1543.28 75.35" stroke="hsl(228.5, 77.2%, 51.5%)" stroke-width="1.5"></path><path d="M1580.43 -60.43L1415.89 95.03" stroke="hsl(228.5, 77.2%, 51.5%)" stroke-width="1.5"></path><path d="M1580.43 -60.43L1268.45 -49.82" stroke="hsl(228.5, 77.2%, 51.5%)" stroke-width="1.5"></path><path d="M1580.43 -60.43L1421.77 217.6" stroke="hsl(228.5, 77.2%, 51.5%)" stroke-width="1.5"></path><path d="M1543.28 75.35L1543.28 75.35" stroke="hsl(228.5, 77.2%, 51.5%)" stroke-width="1.5"></path><path d="M1543.28 75.35L1415.89 95.03" stroke="hsl(228.5, 77.2%, 51.5%)" stroke-width="1.5"></path><path d="M1593.67 260.62L1593.67 260.62" stroke="hsl(228.5, 77.2%, 51.5%)" stroke-width="1.5"></path><path d="M1593.67 260.62L1588.7 349.55" stroke="hsl(228.5, 77.2%, 51.5%)" stroke-width="1.5"></path><path d="M1593.67 260.62L1543.28 75.35" stroke="hsl(228.5, 77.2%, 51.5%)" stroke-width="1.5"></path><path d="M1593.67 260.62L1421.43 382.67" stroke="hsl(228.5, 77.2%, 51.5%)" stroke-width="1.5"></path><path d="M1593.67 260.62L1415.89 95.03" stroke="hsl(228.5, 77.2%, 51.5%)" stroke-width="1.5"></path><path d="M1588.7 349.55L1588.7 349.55" stroke="hsl(228.5, 77.2%, 51.5%)" stroke-width="1.5"></path><path d="M1550.69 641.66L1550.69 641.66" stroke="hsl(228.5, 77.2%, 51.5%)" stroke-width="1.5"></path><circle r="25" cx="399.06" cy="695.33" fill="url(&quot;#SvgjsRadialGradient1041&quot;)"></circle><circle r="25" cx="1127.83" cy="222.67" fill="url(&quot;#SvgjsRadialGradient1041&quot;)"></circle><circle r="25" cx="1148.2" cy="371.25" fill="url(&quot;#SvgjsRadialGradient1041&quot;)"></circle><circle r="25" cx="1102.66" cy="694.29" fill="url(&quot;#SvgjsRadialGradient1041&quot;)"></circle><circle r="25" cx="1268.45" cy="-49.82" fill="url(&quot;#SvgjsRadialGradient1041&quot;)"></circle><circle r="25" cx="1538.18" cy="487.55" fill="url(&quot;#SvgjsRadialGradient1041&quot;)"></circle><circle r="5" cx="-84.3" cy="541.76" fill="#8b9ad9"></circle><circle r="5" cx="-107.2" cy="668.08" fill="#8b9ad9"></circle><circle r="5" cx="56.72" cy="538.52" fill="#8b9ad9"></circle><circle r="5" cx="43.33" cy="703.47" fill="#8b9ad9"></circle><circle r="5" cx="238.44" cy="549.75" fill="#8b9ad9"></circle><circle r="5" cx="232.69" cy="648.48" fill="#8b9ad9"></circle><circle r="5" cx="371.77" cy="551.07" fill="#8b9ad9"></circle><circle r="5" cx="524.98" cy="520.77" fill="#8b9ad9"></circle><circle r="5" cx="708.11" cy="400.74" fill="#8b9ad9"></circle><circle r="5" cx="662.52" cy="532.59" fill="#8b9ad9"></circle><circle r="5" cx="677.27" cy="673.95" fill="#8b9ad9"></circle><circle r="5" cx="820.92" cy="362.35" fill="#8b9ad9"></circle><circle r="5" cx="801.43" cy="712.15" fill="#8b9ad9"></circle><circle r="5" cx="990.93" cy="242.17" fill="#8b9ad9"></circle><circle r="5" cx="943.62" cy="364.6" fill="#8b9ad9"></circle><circle r="5" cx="959.31" cy="533.73" fill="#8b9ad9"></circle><circle r="5" cx="986.52" cy="653.52" fill="#8b9ad9"></circle><circle r="5" cx="1142.49" cy="85.33" fill="#8b9ad9"></circle><circle r="5" cx="1289.86" cy="84.9" fill="#8b9ad9"></circle><circle r="5" cx="1262.71" cy="239.4" fill="#8b9ad9"></circle><circle r="5" cx="1256.56" cy="348.71" fill="#8b9ad9"></circle><circle r="5" cx="1283.53" cy="491.34" fill="#8b9ad9"></circle><circle r="5" cx="1273.77" cy="694.57" fill="#8b9ad9"></circle><circle r="5" cx="1429.03" cy="-64.83" fill="#8b9ad9"></circle><circle r="5" cx="1415.89" cy="95.03" fill="#8b9ad9"></circle><circle r="5" cx="1421.77" cy="217.6" fill="#8b9ad9"></circle><circle r="5" cx="1421.43" cy="382.67" fill="#8b9ad9"></circle><circle r="5" cx="1412.32" cy="545.01" fill="#8b9ad9"></circle><circle r="5" cx="1412.25" cy="698.98" fill="#8b9ad9"></circle><circle r="5" cx="1580.43" cy="-60.43" fill="#8b9ad9"></circle><circle r="5" cx="1543.28" cy="75.35" fill="#8b9ad9"></circle><circle r="5" cx="1593.67" cy="260.62" fill="#8b9ad9"></circle><circle r="5" cx="1588.7" cy="349.55" fill="#8b9ad9"></circle><circle r="5" cx="1550.69" cy="641.66" fill="#8b9ad9"></circle></g><defs><mask id="SvgjsMask1040"><rect width="1452" height="565" fill="#ffffff"></rect></mask><radialGradient id="SvgjsRadialGradient1041"><stop stop-color="#ffffff" offset="0.1"></stop><stop stop-color="#1735b3" offset="0.2"></stop><stop stop-color="rgba(23, 53, 179, 0)" offset="1"></stop></radialGradient></defs></svg>