<svg xmlns="http://www.w3.org/2000/svg" version="1.1" xmlns:xlink="http://www.w3.org/1999/xlink" xmlns:svgjs="http://svgjs.dev/svgjs" width="1440" height="560" preserveAspectRatio="none" viewBox="0 0 1440 560"><g mask="url(&quot;#SvgjsMask1035&quot;)" fill="none"><path d="M-49.37 491.29L-49.37 491.29" stroke="#132e65" stroke-width="1.5"></path><path d="M-49.37 491.29L85.03 510.58" stroke="#132e65" stroke-width="1.5"></path><path d="M-49.37 491.29L95.41 391.86" stroke="#132e65" stroke-width="1.5"></path><path d="M95.41 391.86L95.41 391.86" stroke="#132e65" stroke-width="1.5"></path><path d="M95.41 391.86L206.94 377.22" stroke="#132e65" stroke-width="1.5"></path><path d="M95.41 391.86L85.03 510.58" stroke="#132e65" stroke-width="1.5"></path><path d="M85.03 510.58L85.03 510.58" stroke="#132e65" stroke-width="1.5"></path><path d="M85.03 510.58L78.44 649.69" stroke="#132e65" stroke-width="1.5"></path><path d="M78.44 649.69L78.44 649.69" stroke="#132e65" stroke-width="1.5"></path><path d="M78.44 649.69L207.42 708.78" stroke="#132e65" stroke-width="1.5"></path><path d="M78.44 649.69L234.81 547.83" stroke="#132e65" stroke-width="1.5"></path><path d="M78.44 649.69L-49.37 491.29" stroke="#132e65" stroke-width="1.5"></path><path d="M78.44 649.69L95.41 391.86" stroke="#132e65" stroke-width="1.5"></path><path d="M206.94 377.22L206.94 377.22" stroke="#132e65" stroke-width="1.5"></path><path d="M206.94 377.22L234.81 547.83" stroke="#132e65" stroke-width="1.5"></path><path d="M206.94 377.22L85.03 510.58" stroke="#132e65" stroke-width="1.5"></path><path d="M234.81 547.83L234.81 547.83" stroke="#132e65" stroke-width="1.5"></path><path d="M234.81 547.83L361.67 522.99" stroke="#132e65" stroke-width="1.5"></path><path d="M234.81 547.83L85.03 510.58" stroke="#132e65" stroke-width="1.5"></path><path d="M234.81 547.83L207.42 708.78" stroke="#132e65" stroke-width="1.5"></path><path d="M207.42 708.78L207.42 708.78" stroke="#132e65" stroke-width="1.5"></path><path d="M207.42 708.78L400.41 660.15" stroke="#132e65" stroke-width="1.5"></path><path d="M207.42 708.78L85.03 510.58" stroke="#132e65" stroke-width="1.5"></path><path d="M207.42 708.78L361.67 522.99" stroke="#132e65" stroke-width="1.5"></path><path d="M394.25 367.97L394.25 367.97" stroke="#132e65" stroke-width="1.5"></path><path d="M394.25 367.97L525.36 408.46" stroke="#132e65" stroke-width="1.5"></path><path d="M394.25 367.97L361.67 522.99" stroke="#132e65" stroke-width="1.5"></path><path d="M361.67 522.99L361.67 522.99" stroke="#132e65" stroke-width="1.5"></path><path d="M361.67 522.99L400.41 660.15" stroke="#132e65" stroke-width="1.5"></path><path d="M400.41 660.15L400.41 660.15" stroke="#132e65" stroke-width="1.5"></path><path d="M400.41 660.15L523.8 696.43" stroke="#132e65" stroke-width="1.5"></path><path d="M400.41 660.15L234.81 547.83" stroke="#132e65" stroke-width="1.5"></path><path d="M525.36 408.46L525.36 408.46" stroke="#132e65" stroke-width="1.5"></path><path d="M525.36 408.46L524.54 491.89" stroke="#132e65" stroke-width="1.5"></path><path d="M525.36 408.46L645.84 395.21" stroke="#132e65" stroke-width="1.5"></path><path d="M524.54 491.89L524.54 491.89" stroke="#132e65" stroke-width="1.5"></path><path d="M524.54 491.89L645.84 395.21" stroke="#132e65" stroke-width="1.5"></path><path d="M524.54 491.89L361.67 522.99" stroke="#132e65" stroke-width="1.5"></path><path d="M524.54 491.89L688.2 560.1" stroke="#132e65" stroke-width="1.5"></path><path d="M524.54 491.89L394.25 367.97" stroke="#132e65" stroke-width="1.5"></path><path d="M523.8 696.43L523.8 696.43" stroke="#132e65" stroke-width="1.5"></path><path d="M523.8 696.43L658.1 689.39" stroke="#132e65" stroke-width="1.5"></path><path d="M523.8 696.43L524.54 491.89" stroke="#132e65" stroke-width="1.5"></path><path d="M523.8 696.43L688.2 560.1" stroke="#132e65" stroke-width="1.5"></path><path d="M523.8 696.43L361.67 522.99" stroke="#132e65" stroke-width="1.5"></path><path d="M645.84 395.21L645.84 395.21" stroke="#132e65" stroke-width="1.5"></path><path d="M645.84 395.21L688.2 560.1" stroke="#132e65" stroke-width="1.5"></path><path d="M645.84 395.21L861.78 408.87" stroke="#132e65" stroke-width="1.5"></path><path d="M645.84 395.21L831.9 226.37" stroke="#132e65" stroke-width="1.5"></path><path d="M688.2 560.1L688.2 560.1" stroke="#132e65" stroke-width="1.5"></path><path d="M688.2 560.1L658.1 689.39" stroke="#132e65" stroke-width="1.5"></path><path d="M688.2 560.1L856.16 549.63" stroke="#132e65" stroke-width="1.5"></path><path d="M658.1 689.39L658.1 689.39" stroke="#132e65" stroke-width="1.5"></path><path d="M658.1 689.39L799.13 708.98" stroke="#132e65" stroke-width="1.5"></path><path d="M658.1 689.39L524.54 491.89" stroke="#132e65" stroke-width="1.5"></path><path d="M658.1 689.39L856.16 549.63" stroke="#132e65" stroke-width="1.5"></path><path d="M831.9 226.37L831.9 226.37" stroke="#132e65" stroke-width="1.5"></path><path d="M831.9 226.37L861.78 408.87" stroke="#132e65" stroke-width="1.5"></path><path d="M831.9 226.37L996.1 102.06" stroke="#132e65" stroke-width="1.5"></path><path d="M831.9 226.37L1007 401.28" stroke="#132e65" stroke-width="1.5"></path><path d="M831.9 226.37L1102.01 207.74" stroke="#132e65" stroke-width="1.5"></path><path d="M861.78 408.87L861.78 408.87" stroke="#132e65" stroke-width="1.5"></path><path d="M861.78 408.87L856.16 549.63" stroke="#132e65" stroke-width="1.5"></path><path d="M861.78 408.87L1007 401.28" stroke="#132e65" stroke-width="1.5"></path><path d="M861.78 408.87L966.29 554.69" stroke="#132e65" stroke-width="1.5"></path><path d="M856.16 549.63L856.16 549.63" stroke="#132e65" stroke-width="1.5"></path><path d="M856.16 549.63L966.29 554.69" stroke="#132e65" stroke-width="1.5"></path><path d="M799.13 708.98L799.13 708.98" stroke="#132e65" stroke-width="1.5"></path><path d="M799.13 708.98L856.16 549.63" stroke="#132e65" stroke-width="1.5"></path><path d="M799.13 708.98L688.2 560.1" stroke="#132e65" stroke-width="1.5"></path><path d="M799.13 708.98L1005.83 700.92" stroke="#132e65" stroke-width="1.5"></path><path d="M979.41 -104.54L979.41 -104.54" stroke="#132e65" stroke-width="1.5"></path><path d="M979.41 -104.54L1147.86 -100.22" stroke="#132e65" stroke-width="1.5"></path><path d="M979.41 -104.54L1121.58 39.49" stroke="#132e65" stroke-width="1.5"></path><path d="M979.41 -104.54L996.1 102.06" stroke="#132e65" stroke-width="1.5"></path><path d="M979.41 -104.54L1256.13 -98.45" stroke="#132e65" stroke-width="1.5"></path><path d="M996.1 102.06L996.1 102.06" stroke="#132e65" stroke-width="1.5"></path><path d="M996.1 102.06L1121.58 39.49" stroke="#132e65" stroke-width="1.5"></path><path d="M996.1 102.06L1102.01 207.74" stroke="#132e65" stroke-width="1.5"></path><path d="M1007 401.28L1007 401.28" stroke="#132e65" stroke-width="1.5"></path><path d="M1007 401.28L1110.59 349.87" stroke="#132e65" stroke-width="1.5"></path><path d="M966.29 554.69L966.29 554.69" stroke="#132e65" stroke-width="1.5"></path><path d="M966.29 554.69L1005.83 700.92" stroke="#132e65" stroke-width="1.5"></path><path d="M966.29 554.69L1007 401.28" stroke="#132e65" stroke-width="1.5"></path><path d="M1005.83 700.92L1005.83 700.92" stroke="#132e65" stroke-width="1.5"></path><path d="M1005.83 700.92L1103.46 704.85" stroke="#132e65" stroke-width="1.5"></path><path d="M1005.83 700.92L856.16 549.63" stroke="#132e65" stroke-width="1.5"></path><path d="M1147.86 -100.22L1147.86 -100.22" stroke="#132e65" stroke-width="1.5"></path><path d="M1147.86 -100.22L1256.13 -98.45" stroke="#132e65" stroke-width="1.5"></path><path d="M1147.86 -100.22L1121.58 39.49" stroke="#132e65" stroke-width="1.5"></path><path d="M1147.86 -100.22L1239.75 51.99" stroke="#132e65" stroke-width="1.5"></path><path d="M1147.86 -100.22L996.1 102.06" stroke="#132e65" stroke-width="1.5"></path><path d="M1121.58 39.49L1121.58 39.49" stroke="#132e65" stroke-width="1.5"></path><path d="M1121.58 39.49L1239.75 51.99" stroke="#132e65" stroke-width="1.5"></path><path d="M1102.01 207.74L1102.01 207.74" stroke="#132e65" stroke-width="1.5"></path><path d="M1102.01 207.74L1110.59 349.87" stroke="#132e65" stroke-width="1.5"></path><path d="M1102.01 207.74L1121.58 39.49" stroke="#132e65" stroke-width="1.5"></path><path d="M1102.01 207.74L1305.07 210.78" stroke="#132e65" stroke-width="1.5"></path><path d="M1102.01 207.74L1239.75 51.99" stroke="#132e65" stroke-width="1.5"></path><path d="M1110.59 349.87L1110.59 349.87" stroke="#132e65" stroke-width="1.5"></path><path d="M1110.59 349.87L1128.65 499.02" stroke="#132e65" stroke-width="1.5"></path><path d="M1110.59 349.87L1287.07 491.21" stroke="#132e65" stroke-width="1.5"></path><path d="M1110.59 349.87L1305.07 210.78" stroke="#132e65" stroke-width="1.5"></path><path d="M1128.65 499.02L1128.65 499.02" stroke="#132e65" stroke-width="1.5"></path><path d="M1128.65 499.02L1007 401.28" stroke="#132e65" stroke-width="1.5"></path><path d="M1103.46 704.85L1103.46 704.85" stroke="#132e65" stroke-width="1.5"></path><path d="M1103.46 704.85L1261.45 661.93" stroke="#132e65" stroke-width="1.5"></path><path d="M1103.46 704.85L966.29 554.69" stroke="#132e65" stroke-width="1.5"></path><path d="M1103.46 704.85L1128.65 499.02" stroke="#132e65" stroke-width="1.5"></path><path d="M1103.46 704.85L1287.07 491.21" stroke="#132e65" stroke-width="1.5"></path><path d="M1256.13 -98.45L1256.13 -98.45" stroke="#132e65" stroke-width="1.5"></path><path d="M1256.13 -98.45L1239.75 51.99" stroke="#132e65" stroke-width="1.5"></path><path d="M1239.75 51.99L1239.75 51.99" stroke="#132e65" stroke-width="1.5"></path><path d="M1239.75 51.99L1305.07 210.78" stroke="#132e65" stroke-width="1.5"></path><path d="M1305.07 210.78L1305.07 210.78" stroke="#132e65" stroke-width="1.5"></path><path d="M1305.07 210.78L1401.61 192.55" stroke="#132e65" stroke-width="1.5"></path><path d="M1305.07 210.78L1453.82 96.32" stroke="#132e65" stroke-width="1.5"></path><path d="M1305.07 210.78L1404.05 404.86" stroke="#132e65" stroke-width="1.5"></path><path d="M1287.07 491.21L1287.07 491.21" stroke="#132e65" stroke-width="1.5"></path><path d="M1287.07 491.21L1404.05 404.86" stroke="#132e65" stroke-width="1.5"></path><path d="M1287.07 491.21L1128.65 499.02" stroke="#132e65" stroke-width="1.5"></path><path d="M1287.07 491.21L1435.92 549.24" stroke="#132e65" stroke-width="1.5"></path><path d="M1287.07 491.21L1261.45 661.93" stroke="#132e65" stroke-width="1.5"></path><path d="M1287.07 491.21L1408.99 699.26" stroke="#132e65" stroke-width="1.5"></path><path d="M1261.45 661.93L1261.45 661.93" stroke="#132e65" stroke-width="1.5"></path><path d="M1261.45 661.93L1408.99 699.26" stroke="#132e65" stroke-width="1.5"></path><path d="M1453.82 96.32L1453.82 96.32" stroke="#132e65" stroke-width="1.5"></path><path d="M1453.82 96.32L1401.61 192.55" stroke="#132e65" stroke-width="1.5"></path><path d="M1453.82 96.32L1580.46 73.83" stroke="#132e65" stroke-width="1.5"></path><path d="M1401.61 192.55L1401.61 192.55" stroke="#132e65" stroke-width="1.5"></path><path d="M1401.61 192.55L1591.04 246.01" stroke="#132e65" stroke-width="1.5"></path><path d="M1401.61 192.55L1404.05 404.86" stroke="#132e65" stroke-width="1.5"></path><path d="M1401.61 192.55L1239.75 51.99" stroke="#132e65" stroke-width="1.5"></path><path d="M1404.05 404.86L1404.05 404.86" stroke="#132e65" stroke-width="1.5"></path><path d="M1404.05 404.86L1435.92 549.24" stroke="#132e65" stroke-width="1.5"></path><path d="M1404.05 404.86L1580.13 341.87" stroke="#132e65" stroke-width="1.5"></path><path d="M1404.05 404.86L1592.37 490.95" stroke="#132e65" stroke-width="1.5"></path><path d="M1435.92 549.24L1435.92 549.24" stroke="#132e65" stroke-width="1.5"></path><path d="M1435.92 549.24L1408.99 699.26" stroke="#132e65" stroke-width="1.5"></path><path d="M1435.92 549.24L1553.58 658.33" stroke="#132e65" stroke-width="1.5"></path><path d="M1435.92 549.24L1592.37 490.95" stroke="#132e65" stroke-width="1.5"></path><path d="M1435.92 549.24L1261.45 661.93" stroke="#132e65" stroke-width="1.5"></path><path d="M1408.99 699.26L1408.99 699.26" stroke="#132e65" stroke-width="1.5"></path><path d="M1408.99 699.26L1553.58 658.33" stroke="#132e65" stroke-width="1.5"></path><path d="M1408.99 699.26L1592.37 490.95" stroke="#132e65" stroke-width="1.5"></path><path d="M1408.99 699.26L1404.05 404.86" stroke="#132e65" stroke-width="1.5"></path><path d="M1550.33 -111.21L1550.33 -111.21" stroke="#132e65" stroke-width="1.5"></path><path d="M1550.33 -111.21L1580.46 73.83" stroke="#132e65" stroke-width="1.5"></path><path d="M1550.33 -111.21L1453.82 96.32" stroke="#132e65" stroke-width="1.5"></path><path d="M1550.33 -111.21L1256.13 -98.45" stroke="#132e65" stroke-width="1.5"></path><path d="M1550.33 -111.21L1401.61 192.55" stroke="#132e65" stroke-width="1.5"></path><path d="M1550.33 -111.21L1239.75 51.99" stroke="#132e65" stroke-width="1.5"></path><path d="M1550.33 -111.21L1591.04 246.01" stroke="#132e65" stroke-width="1.5"></path><path d="M1580.46 73.83L1580.46 73.83" stroke="#132e65" stroke-width="1.5"></path><path d="M1580.46 73.83L1591.04 246.01" stroke="#132e65" stroke-width="1.5"></path><path d="M1591.04 246.01L1591.04 246.01" stroke="#132e65" stroke-width="1.5"></path><path d="M1591.04 246.01L1580.13 341.87" stroke="#132e65" stroke-width="1.5"></path><path d="M1580.13 341.87L1580.13 341.87" stroke="#132e65" stroke-width="1.5"></path><path d="M1580.13 341.87L1592.37 490.95" stroke="#132e65" stroke-width="1.5"></path><path d="M1580.13 341.87L1401.61 192.55" stroke="#132e65" stroke-width="1.5"></path><path d="M1580.13 341.87L1435.92 549.24" stroke="#132e65" stroke-width="1.5"></path><path d="M1592.37 490.95L1592.37 490.95" stroke="#132e65" stroke-width="1.5"></path><path d="M1592.37 490.95L1553.58 658.33" stroke="#132e65" stroke-width="1.5"></path><path d="M1592.37 490.95L1591.04 246.01" stroke="#132e65" stroke-width="1.5"></path><path d="M1553.58 658.33L1553.58 658.33" stroke="#132e65" stroke-width="1.5"></path><path d="M1553.58 658.33L1261.45 661.93" stroke="#132e65" stroke-width="1.5"></path><path d="M1553.58 658.33L1404.05 404.86" stroke="#132e65" stroke-width="1.5"></path><circle r="5" cx="-49.37" cy="491.29" fill="#132e65"></circle><circle r="5" cx="95.41" cy="391.86" fill="#132e65"></circle><circle r="5" cx="85.03" cy="510.58" fill="#132e65"></circle><circle r="5" cx="78.44" cy="649.69" fill="#132e65"></circle><circle r="5" cx="206.94" cy="377.22" fill="#132e65"></circle><circle r="5" cx="234.81" cy="547.83" fill="#132e65"></circle><circle r="5" cx="207.42" cy="708.78" fill="#132e65"></circle><circle r="5" cx="394.25" cy="367.97" fill="#132e65"></circle><circle r="5" cx="361.67" cy="522.99" fill="#132e65"></circle><circle r="5" cx="400.41" cy="660.15" fill="#132e65"></circle><circle r="5" cx="525.36" cy="408.46" fill="#132e65"></circle><circle r="5" cx="524.54" cy="491.89" fill="#132e65"></circle><circle r="5" cx="523.8" cy="696.43" fill="#132e65"></circle><circle r="5" cx="645.84" cy="395.21" fill="#132e65"></circle><circle r="5" cx="688.2" cy="560.1" fill="#132e65"></circle><circle r="5" cx="658.1" cy="689.39" fill="#132e65"></circle><circle r="5" cx="831.9" cy="226.37" fill="#132e65"></circle><circle r="5" cx="861.78" cy="408.87" fill="#132e65"></circle><circle r="5" cx="856.16" cy="549.63" fill="#132e65"></circle><circle r="5" cx="799.13" cy="708.98" fill="#132e65"></circle><circle r="5" cx="979.41" cy="-104.54" fill="#132e65"></circle><circle r="5" cx="996.1" cy="102.06" fill="#132e65"></circle><circle r="5" cx="1007" cy="401.28" fill="#132e65"></circle><circle r="5" cx="966.29" cy="554.69" fill="#132e65"></circle><circle r="5" cx="1005.83" cy="700.92" fill="#132e65"></circle><circle r="5" cx="1147.86" cy="-100.22" fill="#132e65"></circle><circle r="5" cx="1121.58" cy="39.49" fill="#132e65"></circle><circle r="5" cx="1102.01" cy="207.74" fill="#132e65"></circle><circle r="5" cx="1110.59" cy="349.87" fill="#132e65"></circle><circle r="5" cx="1128.65" cy="499.02" fill="#132e65"></circle><circle r="5" cx="1103.46" cy="704.85" fill="#132e65"></circle><circle r="5" cx="1256.13" cy="-98.45" fill="#132e65"></circle><circle r="5" cx="1239.75" cy="51.99" fill="#132e65"></circle><circle r="5" cx="1305.07" cy="210.78" fill="#132e65"></circle><circle r="5" cx="1287.07" cy="491.21" fill="#132e65"></circle><circle r="5" cx="1261.45" cy="661.93" fill="#132e65"></circle><circle r="5" cx="1453.82" cy="96.32" fill="#132e65"></circle><circle r="5" cx="1401.61" cy="192.55" fill="#132e65"></circle><circle r="5" cx="1404.05" cy="404.86" fill="#132e65"></circle><circle r="5" cx="1435.92" cy="549.24" fill="#132e65"></circle><circle r="5" cx="1408.99" cy="699.26" fill="#132e65"></circle><circle r="5" cx="1550.33" cy="-111.21" fill="#132e65"></circle><circle r="5" cx="1580.46" cy="73.83" fill="#132e65"></circle><circle r="5" cx="1591.04" cy="246.01" fill="#132e65"></circle><circle r="5" cx="1580.13" cy="341.87" fill="#132e65"></circle><circle r="5" cx="1592.37" cy="490.95" fill="#132e65"></circle><circle r="5" cx="1553.58" cy="658.33" fill="#132e65"></circle><path d="M659.35 391.53L659.35 391.53" stroke="hsl(228.5, 77.2%, 51.5%)" stroke-width="1.5"></path><path d="M659.35 391.53L684.41 515.4" stroke="hsl(228.5, 77.2%, 51.5%)" stroke-width="1.5"></path><path d="M659.35 391.53L828.69 397.88" stroke="hsl(228.5, 77.2%, 51.5%)" stroke-width="1.5"></path><path d="M659.35 391.53L812.72 544.53" stroke="hsl(228.5, 77.2%, 51.5%)" stroke-width="1.5"></path><path d="M684.41 515.4L684.41 515.4" stroke="hsl(228.5, 77.2%, 51.5%)" stroke-width="1.5"></path><path d="M684.41 515.4L812.72 544.53" stroke="hsl(228.5, 77.2%, 51.5%)" stroke-width="1.5"></path><path d="M684.41 515.4L680.64 651.27" stroke="hsl(228.5, 77.2%, 51.5%)" stroke-width="1.5"></path><path d="M684.41 515.4L828.69 397.88" stroke="hsl(228.5, 77.2%, 51.5%)" stroke-width="1.5"></path><path d="M684.41 515.4L845.06 694.36" stroke="hsl(228.5, 77.2%, 51.5%)" stroke-width="1.5"></path><path d="M680.64 651.27L680.64 651.27" stroke="hsl(228.5, 77.2%, 51.5%)" stroke-width="1.5"></path><path d="M1093.09 527.25L1093.09 527.25" stroke="hsl(228.5, 77.2%, 51.5%)" stroke-width="1.5"></path><path d="M1093.09 527.25L1003.81 527.11" stroke="hsl(228.5, 77.2%, 51.5%)" stroke-width="1.5"></path><path d="M1093.09 527.25L1140.91 659.46" stroke="hsl(228.5, 77.2%, 51.5%)" stroke-width="1.5"></path><path d="M1093.09 527.25L1148.17 380.35" stroke="hsl(228.5, 77.2%, 51.5%)" stroke-width="1.5"></path><path d="M1429.32 73.6L1429.32 73.6" stroke="hsl(228.5, 77.2%, 51.5%)" stroke-width="1.5"></path><path d="M1429.32 73.6L1462.44 -38.88" stroke="hsl(228.5, 77.2%, 51.5%)" stroke-width="1.5"></path><path d="M1429.32 73.6L1558.01 90.79" stroke="hsl(228.5, 77.2%, 51.5%)" stroke-width="1.5"></path><path d="M1429.32 73.6L1283.28 102.29" stroke="hsl(228.5, 77.2%, 51.5%)" stroke-width="1.5"></path><path d="M1455.66 244.36L1455.66 244.36" stroke="hsl(228.5, 77.2%, 51.5%)" stroke-width="1.5"></path><path d="M1455.66 244.36L1580.62 260.18" stroke="hsl(228.5, 77.2%, 51.5%)" stroke-width="1.5"></path><path d="M1455.66 244.36L1411.38 384.21" stroke="hsl(228.5, 77.2%, 51.5%)" stroke-width="1.5"></path><path d="M1455.66 244.36L1429.32 73.6" stroke="hsl(228.5, 77.2%, 51.5%)" stroke-width="1.5"></path><path d="M1455.66 244.36L1558.01 90.79" stroke="hsl(228.5, 77.2%, 51.5%)" stroke-width="1.5"></path><path d="M1455.66 244.36L1601.78 366.44" stroke="hsl(228.5, 77.2%, 51.5%)" stroke-width="1.5"></path><path d="M1601.78 366.44L1601.78 366.44" stroke="hsl(228.5, 77.2%, 51.5%)" stroke-width="1.5"></path><path d="M1601.78 366.44L1580.62 260.18" stroke="hsl(228.5, 77.2%, 51.5%)" stroke-width="1.5"></path><path d="M1601.78 366.44L1606.53 528.67" stroke="hsl(228.5, 77.2%, 51.5%)" stroke-width="1.5"></path><path d="M1601.78 366.44L1411.38 384.21" stroke="hsl(228.5, 77.2%, 51.5%)" stroke-width="1.5"></path><path d="M1601.78 366.44L1451.26 560.59" stroke="hsl(228.5, 77.2%, 51.5%)" stroke-width="1.5"></path><path d="M-88.21 555.03L-88.21 555.03" stroke="hsl(228.5, 77.2%, 51.5%)" stroke-width="1.5"></path><path d="M-88.21 555.03L89.71 664.47" stroke="hsl(228.5, 77.2%, 51.5%)" stroke-width="1.5"></path><path d="M-88.21 555.03L194.34 693.7" stroke="hsl(228.5, 77.2%, 51.5%)" stroke-width="1.5"></path><path d="M89.71 664.47L89.71 664.47" stroke="hsl(228.5, 77.2%, 51.5%)" stroke-width="1.5"></path><path d="M89.71 664.47L194.34 693.7" stroke="hsl(228.5, 77.2%, 51.5%)" stroke-width="1.5"></path><path d="M89.71 664.47L233.08 538.34" stroke="hsl(228.5, 77.2%, 51.5%)" stroke-width="1.5"></path><path d="M89.71 664.47L395.83 512.25" stroke="hsl(228.5, 77.2%, 51.5%)" stroke-width="1.5"></path><path d="M89.71 664.47L541.47 708.98" stroke="hsl(228.5, 77.2%, 51.5%)" stroke-width="1.5"></path><path d="M233.08 538.34L233.08 538.34" stroke="hsl(228.5, 77.2%, 51.5%)" stroke-width="1.5"></path><path d="M233.08 538.34L194.34 693.7" stroke="hsl(228.5, 77.2%, 51.5%)" stroke-width="1.5"></path><path d="M233.08 538.34L395.83 512.25" stroke="hsl(228.5, 77.2%, 51.5%)" stroke-width="1.5"></path><path d="M233.08 538.34L-88.21 555.03" stroke="hsl(228.5, 77.2%, 51.5%)" stroke-width="1.5"></path><path d="M233.08 538.34L541.47 708.98" stroke="hsl(228.5, 77.2%, 51.5%)" stroke-width="1.5"></path><path d="M194.34 693.7L194.34 693.7" stroke="hsl(228.5, 77.2%, 51.5%)" stroke-width="1.5"></path><path d="M194.34 693.7L395.83 512.25" stroke="hsl(228.5, 77.2%, 51.5%)" stroke-width="1.5"></path><path d="M395.83 512.25L395.83 512.25" stroke="hsl(228.5, 77.2%, 51.5%)" stroke-width="1.5"></path><path d="M395.83 512.25L541.47 708.98" stroke="hsl(228.5, 77.2%, 51.5%)" stroke-width="1.5"></path><path d="M541.47 708.98L541.47 708.98" stroke="hsl(228.5, 77.2%, 51.5%)" stroke-width="1.5"></path><path d="M541.47 708.98L680.64 651.27" stroke="hsl(228.5, 77.2%, 51.5%)" stroke-width="1.5"></path><path d="M541.47 708.98L684.41 515.4" stroke="hsl(228.5, 77.2%, 51.5%)" stroke-width="1.5"></path><path d="M541.47 708.98L845.06 694.36" stroke="hsl(228.5, 77.2%, 51.5%)" stroke-width="1.5"></path><path d="M541.47 708.98L812.72 544.53" stroke="hsl(228.5, 77.2%, 51.5%)" stroke-width="1.5"></path><path d="M541.47 708.98L659.35 391.53" stroke="hsl(228.5, 77.2%, 51.5%)" stroke-width="1.5"></path><path d="M828.69 397.88L828.69 397.88" stroke="hsl(228.5, 77.2%, 51.5%)" stroke-width="1.5"></path><path d="M828.69 397.88L812.72 544.53" stroke="hsl(228.5, 77.2%, 51.5%)" stroke-width="1.5"></path><path d="M812.72 544.53L812.72 544.53" stroke="hsl(228.5, 77.2%, 51.5%)" stroke-width="1.5"></path><path d="M812.72 544.53L845.06 694.36" stroke="hsl(228.5, 77.2%, 51.5%)" stroke-width="1.5"></path><path d="M812.72 544.53L943.14 650.7" stroke="hsl(228.5, 77.2%, 51.5%)" stroke-width="1.5"></path><path d="M812.72 544.53L680.64 651.27" stroke="hsl(228.5, 77.2%, 51.5%)" stroke-width="1.5"></path><path d="M845.06 694.36L845.06 694.36" stroke="hsl(228.5, 77.2%, 51.5%)" stroke-width="1.5"></path><path d="M845.06 694.36L943.14 650.7" stroke="hsl(228.5, 77.2%, 51.5%)" stroke-width="1.5"></path><path d="M845.06 694.36L680.64 651.27" stroke="hsl(228.5, 77.2%, 51.5%)" stroke-width="1.5"></path><path d="M845.06 694.36L1003.81 527.11" stroke="hsl(228.5, 77.2%, 51.5%)" stroke-width="1.5"></path><path d="M1007.09 378.8L1007.09 378.8" stroke="hsl(228.5, 77.2%, 51.5%)" stroke-width="1.5"></path><path d="M1007.09 378.8L1148.17 380.35" stroke="hsl(228.5, 77.2%, 51.5%)" stroke-width="1.5"></path><path d="M1007.09 378.8L1003.81 527.11" stroke="hsl(228.5, 77.2%, 51.5%)" stroke-width="1.5"></path><path d="M1007.09 378.8L1093.09 527.25" stroke="hsl(228.5, 77.2%, 51.5%)" stroke-width="1.5"></path><path d="M1007.09 378.8L1137.22 259.79" stroke="hsl(228.5, 77.2%, 51.5%)" stroke-width="1.5"></path><path d="M1007.09 378.8L828.69 397.88" stroke="hsl(228.5, 77.2%, 51.5%)" stroke-width="1.5"></path><path d="M1007.09 378.8L812.72 544.53" stroke="hsl(228.5, 77.2%, 51.5%)" stroke-width="1.5"></path><path d="M1003.81 527.11L1003.81 527.11" stroke="hsl(228.5, 77.2%, 51.5%)" stroke-width="1.5"></path><path d="M1003.81 527.11L943.14 650.7" stroke="hsl(228.5, 77.2%, 51.5%)" stroke-width="1.5"></path><path d="M1003.81 527.11L1140.91 659.46" stroke="hsl(228.5, 77.2%, 51.5%)" stroke-width="1.5"></path><path d="M1003.81 527.11L812.72 544.53" stroke="hsl(228.5, 77.2%, 51.5%)" stroke-width="1.5"></path><path d="M943.14 650.7L943.14 650.7" stroke="hsl(228.5, 77.2%, 51.5%)" stroke-width="1.5"></path><path d="M943.14 650.7L1093.09 527.25" stroke="hsl(228.5, 77.2%, 51.5%)" stroke-width="1.5"></path><path d="M943.14 650.7L1140.91 659.46" stroke="hsl(228.5, 77.2%, 51.5%)" stroke-width="1.5"></path><path d="M1137.22 259.79L1137.22 259.79" stroke="hsl(228.5, 77.2%, 51.5%)" stroke-width="1.5"></path><path d="M1137.22 259.79L1148.17 380.35" stroke="hsl(228.5, 77.2%, 51.5%)" stroke-width="1.5"></path><path d="M1137.22 259.79L1265.67 220.48" stroke="hsl(228.5, 77.2%, 51.5%)" stroke-width="1.5"></path><path d="M1137.22 259.79L1288.02 359.49" stroke="hsl(228.5, 77.2%, 51.5%)" stroke-width="1.5"></path><path d="M1148.17 380.35L1148.17 380.35" stroke="hsl(228.5, 77.2%, 51.5%)" stroke-width="1.5"></path><path d="M1148.17 380.35L1288.02 359.49" stroke="hsl(228.5, 77.2%, 51.5%)" stroke-width="1.5"></path><path d="M1148.17 380.35L1265.67 220.48" stroke="hsl(228.5, 77.2%, 51.5%)" stroke-width="1.5"></path><path d="M1148.17 380.35L1003.81 527.11" stroke="hsl(228.5, 77.2%, 51.5%)" stroke-width="1.5"></path><path d="M1140.91 659.46L1140.91 659.46" stroke="hsl(228.5, 77.2%, 51.5%)" stroke-width="1.5"></path><path d="M1140.91 659.46L1299.78 677.5" stroke="hsl(228.5, 77.2%, 51.5%)" stroke-width="1.5"></path><path d="M1140.91 659.46L1280.69 555.55" stroke="hsl(228.5, 77.2%, 51.5%)" stroke-width="1.5"></path><path d="M1268.53 -78.1L1268.53 -78.1" stroke="hsl(228.5, 77.2%, 51.5%)" stroke-width="1.5"></path><path d="M1268.53 -78.1L1283.28 102.29" stroke="hsl(228.5, 77.2%, 51.5%)" stroke-width="1.5"></path><path d="M1268.53 -78.1L1462.44 -38.88" stroke="hsl(228.5, 77.2%, 51.5%)" stroke-width="1.5"></path><path d="M1268.53 -78.1L1429.32 73.6" stroke="hsl(228.5, 77.2%, 51.5%)" stroke-width="1.5"></path><path d="M1283.28 102.29L1283.28 102.29" stroke="hsl(228.5, 77.2%, 51.5%)" stroke-width="1.5"></path><path d="M1283.28 102.29L1265.67 220.48" stroke="hsl(228.5, 77.2%, 51.5%)" stroke-width="1.5"></path><path d="M1265.67 220.48L1265.67 220.48" stroke="hsl(228.5, 77.2%, 51.5%)" stroke-width="1.5"></path><path d="M1265.67 220.48L1288.02 359.49" stroke="hsl(228.5, 77.2%, 51.5%)" stroke-width="1.5"></path><path d="M1288.02 359.49L1288.02 359.49" stroke="hsl(228.5, 77.2%, 51.5%)" stroke-width="1.5"></path><path d="M1288.02 359.49L1411.38 384.21" stroke="hsl(228.5, 77.2%, 51.5%)" stroke-width="1.5"></path><path d="M1280.69 555.55L1280.69 555.55" stroke="hsl(228.5, 77.2%, 51.5%)" stroke-width="1.5"></path><path d="M1280.69 555.55L1299.78 677.5" stroke="hsl(228.5, 77.2%, 51.5%)" stroke-width="1.5"></path><path d="M1280.69 555.55L1451.26 560.59" stroke="hsl(228.5, 77.2%, 51.5%)" stroke-width="1.5"></path><path d="M1280.69 555.55L1424.93 647.27" stroke="hsl(228.5, 77.2%, 51.5%)" stroke-width="1.5"></path><path d="M1299.78 677.5L1299.78 677.5" stroke="hsl(228.5, 77.2%, 51.5%)" stroke-width="1.5"></path><path d="M1299.78 677.5L1424.93 647.27" stroke="hsl(228.5, 77.2%, 51.5%)" stroke-width="1.5"></path><path d="M1299.78 677.5L1451.26 560.59" stroke="hsl(228.5, 77.2%, 51.5%)" stroke-width="1.5"></path><path d="M1462.44 -38.88L1462.44 -38.88" stroke="hsl(228.5, 77.2%, 51.5%)" stroke-width="1.5"></path><path d="M1462.44 -38.88L1609.27 -85.95" stroke="hsl(228.5, 77.2%, 51.5%)" stroke-width="1.5"></path><path d="M1462.44 -38.88L1558.01 90.79" stroke="hsl(228.5, 77.2%, 51.5%)" stroke-width="1.5"></path><path d="M1462.44 -38.88L1283.28 102.29" stroke="hsl(228.5, 77.2%, 51.5%)" stroke-width="1.5"></path><path d="M1462.44 -38.88L1455.66 244.36" stroke="hsl(228.5, 77.2%, 51.5%)" stroke-width="1.5"></path><path d="M1411.38 384.21L1411.38 384.21" stroke="hsl(228.5, 77.2%, 51.5%)" stroke-width="1.5"></path><path d="M1411.38 384.21L1451.26 560.59" stroke="hsl(228.5, 77.2%, 51.5%)" stroke-width="1.5"></path><path d="M1411.38 384.21L1580.62 260.18" stroke="hsl(228.5, 77.2%, 51.5%)" stroke-width="1.5"></path><path d="M1411.38 384.21L1280.69 555.55" stroke="hsl(228.5, 77.2%, 51.5%)" stroke-width="1.5"></path><path d="M1451.26 560.59L1451.26 560.59" stroke="hsl(228.5, 77.2%, 51.5%)" stroke-width="1.5"></path><path d="M1451.26 560.59L1424.93 647.27" stroke="hsl(228.5, 77.2%, 51.5%)" stroke-width="1.5"></path><path d="M1451.26 560.59L1606.53 528.67" stroke="hsl(228.5, 77.2%, 51.5%)" stroke-width="1.5"></path><path d="M1451.26 560.59L1547.17 701.73" stroke="hsl(228.5, 77.2%, 51.5%)" stroke-width="1.5"></path><path d="M1424.93 647.27L1424.93 647.27" stroke="hsl(228.5, 77.2%, 51.5%)" stroke-width="1.5"></path><path d="M1424.93 647.27L1547.17 701.73" stroke="hsl(228.5, 77.2%, 51.5%)" stroke-width="1.5"></path><path d="M1424.93 647.27L1606.53 528.67" stroke="hsl(228.5, 77.2%, 51.5%)" stroke-width="1.5"></path><path d="M1609.27 -85.95L1609.27 -85.95" stroke="hsl(228.5, 77.2%, 51.5%)" stroke-width="1.5"></path><path d="M1609.27 -85.95L1558.01 90.79" stroke="hsl(228.5, 77.2%, 51.5%)" stroke-width="1.5"></path><path d="M1609.27 -85.95L1429.32 73.6" stroke="hsl(228.5, 77.2%, 51.5%)" stroke-width="1.5"></path><path d="M1558.01 90.79L1558.01 90.79" stroke="hsl(228.5, 77.2%, 51.5%)" stroke-width="1.5"></path><path d="M1580.62 260.18L1580.62 260.18" stroke="hsl(228.5, 77.2%, 51.5%)" stroke-width="1.5"></path><path d="M1580.62 260.18L1558.01 90.79" stroke="hsl(228.5, 77.2%, 51.5%)" stroke-width="1.5"></path><path d="M1580.62 260.18L1429.32 73.6" stroke="hsl(228.5, 77.2%, 51.5%)" stroke-width="1.5"></path><path d="M1606.53 528.67L1606.53 528.67" stroke="hsl(228.5, 77.2%, 51.5%)" stroke-width="1.5"></path><path d="M1606.53 528.67L1547.17 701.73" stroke="hsl(228.5, 77.2%, 51.5%)" stroke-width="1.5"></path><path d="M1606.53 528.67L1411.38 384.21" stroke="hsl(228.5, 77.2%, 51.5%)" stroke-width="1.5"></path><path d="M1547.17 701.73L1547.17 701.73" stroke="hsl(228.5, 77.2%, 51.5%)" stroke-width="1.5"></path><path d="M1547.17 701.73L1299.78 677.5" stroke="hsl(228.5, 77.2%, 51.5%)" stroke-width="1.5"></path><circle r="25" cx="659.35" cy="391.53" fill="url(&quot;#SvgjsRadialGradient1036&quot;)"></circle><circle r="25" cx="684.41" cy="515.4" fill="url(&quot;#SvgjsRadialGradient1036&quot;)"></circle><circle r="25" cx="680.64" cy="651.27" fill="url(&quot;#SvgjsRadialGradient1036&quot;)"></circle><circle r="25" cx="1093.09" cy="527.25" fill="url(&quot;#SvgjsRadialGradient1036&quot;)"></circle><circle r="25" cx="1429.32" cy="73.6" fill="url(&quot;#SvgjsRadialGradient1036&quot;)"></circle><circle r="25" cx="1455.66" cy="244.36" fill="url(&quot;#SvgjsRadialGradient1036&quot;)"></circle><circle r="25" cx="1601.78" cy="366.44" fill="url(&quot;#SvgjsRadialGradient1036&quot;)"></circle><circle r="5" cx="-88.21" cy="555.03" fill="#8b9ad9"></circle><circle r="5" cx="89.71" cy="664.47" fill="#8b9ad9"></circle><circle r="5" cx="233.08" cy="538.34" fill="#8b9ad9"></circle><circle r="5" cx="194.34" cy="693.7" fill="#8b9ad9"></circle><circle r="5" cx="395.83" cy="512.25" fill="#8b9ad9"></circle><circle r="5" cx="541.47" cy="708.98" fill="#8b9ad9"></circle><circle r="5" cx="828.69" cy="397.88" fill="#8b9ad9"></circle><circle r="5" cx="812.72" cy="544.53" fill="#8b9ad9"></circle><circle r="5" cx="845.06" cy="694.36" fill="#8b9ad9"></circle><circle r="5" cx="1007.09" cy="378.8" fill="#8b9ad9"></circle><circle r="5" cx="1003.81" cy="527.11" fill="#8b9ad9"></circle><circle r="5" cx="943.14" cy="650.7" fill="#8b9ad9"></circle><circle r="5" cx="1137.22" cy="259.79" fill="#8b9ad9"></circle><circle r="5" cx="1148.17" cy="380.35" fill="#8b9ad9"></circle><circle r="5" cx="1140.91" cy="659.46" fill="#8b9ad9"></circle><circle r="5" cx="1268.53" cy="-78.1" fill="#8b9ad9"></circle><circle r="5" cx="1283.28" cy="102.29" fill="#8b9ad9"></circle><circle r="5" cx="1265.67" cy="220.48" fill="#8b9ad9"></circle><circle r="5" cx="1288.02" cy="359.49" fill="#8b9ad9"></circle><circle r="5" cx="1280.69" cy="555.55" fill="#8b9ad9"></circle><circle r="5" cx="1299.78" cy="677.5" fill="#8b9ad9"></circle><circle r="5" cx="1462.44" cy="-38.88" fill="#8b9ad9"></circle><circle r="5" cx="1411.38" cy="384.21" fill="#8b9ad9"></circle><circle r="5" cx="1451.26" cy="560.59" fill="#8b9ad9"></circle><circle r="5" cx="1424.93" cy="647.27" fill="#8b9ad9"></circle><circle r="5" cx="1609.27" cy="-85.95" fill="#8b9ad9"></circle><circle r="5" cx="1558.01" cy="90.79" fill="#8b9ad9"></circle><circle r="5" cx="1580.62" cy="260.18" fill="#8b9ad9"></circle><circle r="5" cx="1606.53" cy="528.67" fill="#8b9ad9"></circle><circle r="5" cx="1547.17" cy="701.73" fill="#8b9ad9"></circle></g><defs><mask id="SvgjsMask1035"><rect width="1440" height="560" fill="#ffffff"></rect></mask><radialGradient id="SvgjsRadialGradient1036"><stop stop-color="#ffffff" offset="0.1"></stop><stop stop-color="#1735b3" offset="0.2"></stop><stop stop-color="rgba(23, 53, 179, 0)" offset="1"></stop></radialGradient></defs></svg>