<svg xmlns="http://www.w3.org/2000/svg" version="1.1" xmlns:xlink="http://www.w3.org/1999/xlink" xmlns:svgjs="http://svgjs.dev/svgjs" width="1440" height="560" preserveAspectRatio="none" viewBox="0 0 1440 560"><g mask="url(&quot;#SvgjsMask1043&quot;)" fill="none"><path d="M-73.05 373.52L-73.05 373.52" stroke="#132e65" stroke-width="1.5"></path><path d="M-73.05 373.52L83.11 344.69" stroke="#132e65" stroke-width="1.5"></path><path d="M-73.05 373.52L-58 543.48" stroke="#132e65" stroke-width="1.5"></path><path d="M-73.05 373.52L52.27 556.08" stroke="#132e65" stroke-width="1.5"></path><path d="M-73.05 373.52L206.4 381.45" stroke="#132e65" stroke-width="1.5"></path><path d="M-73.05 373.52L93.71 668.04" stroke="#132e65" stroke-width="1.5"></path><path d="M-73.05 373.52L260.51 528.21" stroke="#132e65" stroke-width="1.5"></path><path d="M-58 543.48L-58 543.48" stroke="#132e65" stroke-width="1.5"></path><path d="M-58 543.48L52.27 556.08" stroke="#132e65" stroke-width="1.5"></path><path d="M-58 543.48L93.71 668.04" stroke="#132e65" stroke-width="1.5"></path><path d="M-58 543.48L83.11 344.69" stroke="#132e65" stroke-width="1.5"></path><path d="M-58 543.48L206.4 381.45" stroke="#132e65" stroke-width="1.5"></path><path d="M83.11 344.69L83.11 344.69" stroke="#132e65" stroke-width="1.5"></path><path d="M83.11 344.69L206.4 381.45" stroke="#132e65" stroke-width="1.5"></path><path d="M83.11 344.69L52.27 556.08" stroke="#132e65" stroke-width="1.5"></path><path d="M52.27 556.08L52.27 556.08" stroke="#132e65" stroke-width="1.5"></path><path d="M52.27 556.08L93.71 668.04" stroke="#132e65" stroke-width="1.5"></path><path d="M93.71 668.04L93.71 668.04" stroke="#132e65" stroke-width="1.5"></path><path d="M93.71 668.04L245.6 651.09" stroke="#132e65" stroke-width="1.5"></path><path d="M206.4 381.45L206.4 381.45" stroke="#132e65" stroke-width="1.5"></path><path d="M206.4 381.45L260.51 528.21" stroke="#132e65" stroke-width="1.5"></path><path d="M260.51 528.21L260.51 528.21" stroke="#132e65" stroke-width="1.5"></path><path d="M260.51 528.21L245.6 651.09" stroke="#132e65" stroke-width="1.5"></path><path d="M260.51 528.21L381.51 490.03" stroke="#132e65" stroke-width="1.5"></path><path d="M260.51 528.21L403.5 669.41" stroke="#132e65" stroke-width="1.5"></path><path d="M260.51 528.21L52.27 556.08" stroke="#132e65" stroke-width="1.5"></path><path d="M260.51 528.21L383.89 352.69" stroke="#132e65" stroke-width="1.5"></path><path d="M245.6 651.09L245.6 651.09" stroke="#132e65" stroke-width="1.5"></path><path d="M245.6 651.09L403.5 669.41" stroke="#132e65" stroke-width="1.5"></path><path d="M245.6 651.09L381.51 490.03" stroke="#132e65" stroke-width="1.5"></path><path d="M245.6 651.09L52.27 556.08" stroke="#132e65" stroke-width="1.5"></path><path d="M383.89 352.69L383.89 352.69" stroke="#132e65" stroke-width="1.5"></path><path d="M383.89 352.69L488.05 388.28" stroke="#132e65" stroke-width="1.5"></path><path d="M383.89 352.69L381.51 490.03" stroke="#132e65" stroke-width="1.5"></path><path d="M383.89 352.69L206.4 381.45" stroke="#132e65" stroke-width="1.5"></path><path d="M383.89 352.69L543.27 537.92" stroke="#132e65" stroke-width="1.5"></path><path d="M381.51 490.03L381.51 490.03" stroke="#132e65" stroke-width="1.5"></path><path d="M381.51 490.03L488.05 388.28" stroke="#132e65" stroke-width="1.5"></path><path d="M381.51 490.03L543.27 537.92" stroke="#132e65" stroke-width="1.5"></path><path d="M381.51 490.03L403.5 669.41" stroke="#132e65" stroke-width="1.5"></path><path d="M381.51 490.03L206.4 381.45" stroke="#132e65" stroke-width="1.5"></path><path d="M403.5 669.41L403.5 669.41" stroke="#132e65" stroke-width="1.5"></path><path d="M403.5 669.41L555.56 641.55" stroke="#132e65" stroke-width="1.5"></path><path d="M403.5 669.41L543.27 537.92" stroke="#132e65" stroke-width="1.5"></path><path d="M488.05 388.28L488.05 388.28" stroke="#132e65" stroke-width="1.5"></path><path d="M543.27 537.92L543.27 537.92" stroke="#132e65" stroke-width="1.5"></path><path d="M543.27 537.92L555.56 641.55" stroke="#132e65" stroke-width="1.5"></path><path d="M543.27 537.92L643.32 502.53" stroke="#132e65" stroke-width="1.5"></path><path d="M543.27 537.92L488.05 388.28" stroke="#132e65" stroke-width="1.5"></path><path d="M555.56 641.55L555.56 641.55" stroke="#132e65" stroke-width="1.5"></path><path d="M555.56 641.55L699.72 684.33" stroke="#132e65" stroke-width="1.5"></path><path d="M555.56 641.55L643.32 502.53" stroke="#132e65" stroke-width="1.5"></path><path d="M659.21 221.72L659.21 221.72" stroke="#132e65" stroke-width="1.5"></path><path d="M659.21 221.72L848.67 191.29" stroke="#132e65" stroke-width="1.5"></path><path d="M659.21 221.72L835.73 347.01" stroke="#132e65" stroke-width="1.5"></path><path d="M643.32 502.53L643.32 502.53" stroke="#132e65" stroke-width="1.5"></path><path d="M643.32 502.53L805.34 535.45" stroke="#132e65" stroke-width="1.5"></path><path d="M643.32 502.53L699.72 684.33" stroke="#132e65" stroke-width="1.5"></path><path d="M699.72 684.33L699.72 684.33" stroke="#132e65" stroke-width="1.5"></path><path d="M699.72 684.33L823.11 668.42" stroke="#132e65" stroke-width="1.5"></path><path d="M699.72 684.33L805.34 535.45" stroke="#132e65" stroke-width="1.5"></path><path d="M848.67 191.29L848.67 191.29" stroke="#132e65" stroke-width="1.5"></path><path d="M848.67 191.29L943.99 255.82" stroke="#132e65" stroke-width="1.5"></path><path d="M848.67 191.29L835.73 347.01" stroke="#132e65" stroke-width="1.5"></path><path d="M848.67 191.29L948.73 41.88" stroke="#132e65" stroke-width="1.5"></path><path d="M835.73 347.01L835.73 347.01" stroke="#132e65" stroke-width="1.5"></path><path d="M835.73 347.01L943.99 255.82" stroke="#132e65" stroke-width="1.5"></path><path d="M835.73 347.01L1001.51 390.81" stroke="#132e65" stroke-width="1.5"></path><path d="M835.73 347.01L805.34 535.45" stroke="#132e65" stroke-width="1.5"></path><path d="M805.34 535.45L805.34 535.45" stroke="#132e65" stroke-width="1.5"></path><path d="M805.34 535.45L823.11 668.42" stroke="#132e65" stroke-width="1.5"></path><path d="M805.34 535.45L960.17 551.39" stroke="#132e65" stroke-width="1.5"></path><path d="M823.11 668.42L823.11 668.42" stroke="#132e65" stroke-width="1.5"></path><path d="M823.11 668.42L942.52 698.93" stroke="#132e65" stroke-width="1.5"></path><path d="M1005.7 -48.48L1005.7 -48.48" stroke="#132e65" stroke-width="1.5"></path><path d="M1005.7 -48.48L948.73 41.88" stroke="#132e65" stroke-width="1.5"></path><path d="M1005.7 -48.48L1161.37 82.18" stroke="#132e65" stroke-width="1.5"></path><path d="M1005.7 -48.48L1247.43 -94.12" stroke="#132e65" stroke-width="1.5"></path><path d="M948.73 41.88L948.73 41.88" stroke="#132e65" stroke-width="1.5"></path><path d="M948.73 41.88L943.99 255.82" stroke="#132e65" stroke-width="1.5"></path><path d="M948.73 41.88L1161.37 82.18" stroke="#132e65" stroke-width="1.5"></path><path d="M948.73 41.88L1115.04 213.33" stroke="#132e65" stroke-width="1.5"></path><path d="M943.99 255.82L943.99 255.82" stroke="#132e65" stroke-width="1.5"></path><path d="M943.99 255.82L1001.51 390.81" stroke="#132e65" stroke-width="1.5"></path><path d="M1001.51 390.81L1001.51 390.81" stroke="#132e65" stroke-width="1.5"></path><path d="M1001.51 390.81L1112.15 387.5" stroke="#132e65" stroke-width="1.5"></path><path d="M960.17 551.39L960.17 551.39" stroke="#132e65" stroke-width="1.5"></path><path d="M960.17 551.39L942.52 698.93" stroke="#132e65" stroke-width="1.5"></path><path d="M960.17 551.39L1001.51 390.81" stroke="#132e65" stroke-width="1.5"></path><path d="M942.52 698.93L942.52 698.93" stroke="#132e65" stroke-width="1.5"></path><path d="M942.52 698.93L1125.25 644.24" stroke="#132e65" stroke-width="1.5"></path><path d="M1161.37 82.18L1161.37 82.18" stroke="#132e65" stroke-width="1.5"></path><path d="M1161.37 82.18L1266.25 52.74" stroke="#132e65" stroke-width="1.5"></path><path d="M1161.37 82.18L1115.04 213.33" stroke="#132e65" stroke-width="1.5"></path><path d="M1161.37 82.18L1247.43 -94.12" stroke="#132e65" stroke-width="1.5"></path><path d="M1161.37 82.18L1283.37 242.1" stroke="#132e65" stroke-width="1.5"></path><path d="M1115.04 213.33L1115.04 213.33" stroke="#132e65" stroke-width="1.5"></path><path d="M1115.04 213.33L1283.37 242.1" stroke="#132e65" stroke-width="1.5"></path><path d="M1112.15 387.5L1112.15 387.5" stroke="#132e65" stroke-width="1.5"></path><path d="M1112.15 387.5L1115.04 213.33" stroke="#132e65" stroke-width="1.5"></path><path d="M1125.25 644.24L1125.25 644.24" stroke="#132e65" stroke-width="1.5"></path><path d="M1125.25 644.24L1306.86 657.25" stroke="#132e65" stroke-width="1.5"></path><path d="M1125.25 644.24L960.17 551.39" stroke="#132e65" stroke-width="1.5"></path><path d="M1125.25 644.24L1287.92 489" stroke="#132e65" stroke-width="1.5"></path><path d="M1247.43 -94.12L1247.43 -94.12" stroke="#132e65" stroke-width="1.5"></path><path d="M1247.43 -94.12L1266.25 52.74" stroke="#132e65" stroke-width="1.5"></path><path d="M1247.43 -94.12L1406.92 -107.33" stroke="#132e65" stroke-width="1.5"></path><path d="M1247.43 -94.12L1442.26 53.62" stroke="#132e65" stroke-width="1.5"></path><path d="M1247.43 -94.12L948.73 41.88" stroke="#132e65" stroke-width="1.5"></path><path d="M1266.25 52.74L1266.25 52.74" stroke="#132e65" stroke-width="1.5"></path><path d="M1266.25 52.74L1442.26 53.62" stroke="#132e65" stroke-width="1.5"></path><path d="M1266.25 52.74L1283.37 242.1" stroke="#132e65" stroke-width="1.5"></path><path d="M1283.37 242.1L1283.37 242.1" stroke="#132e65" stroke-width="1.5"></path><path d="M1283.37 242.1L1295.01 405.75" stroke="#132e65" stroke-width="1.5"></path><path d="M1283.37 242.1L1459.07 251.71" stroke="#132e65" stroke-width="1.5"></path><path d="M1283.37 242.1L1426.23 400.63" stroke="#132e65" stroke-width="1.5"></path><path d="M1295.01 405.75L1295.01 405.75" stroke="#132e65" stroke-width="1.5"></path><path d="M1295.01 405.75L1287.92 489" stroke="#132e65" stroke-width="1.5"></path><path d="M1295.01 405.75L1426.23 400.63" stroke="#132e65" stroke-width="1.5"></path><path d="M1295.01 405.75L1112.15 387.5" stroke="#132e65" stroke-width="1.5"></path><path d="M1295.01 405.75L1404.48 554.23" stroke="#132e65" stroke-width="1.5"></path><path d="M1295.01 405.75L1459.07 251.71" stroke="#132e65" stroke-width="1.5"></path><path d="M1287.92 489L1287.92 489" stroke="#132e65" stroke-width="1.5"></path><path d="M1287.92 489L1404.48 554.23" stroke="#132e65" stroke-width="1.5"></path><path d="M1287.92 489L1426.23 400.63" stroke="#132e65" stroke-width="1.5"></path><path d="M1287.92 489L1306.86 657.25" stroke="#132e65" stroke-width="1.5"></path><path d="M1306.86 657.25L1306.86 657.25" stroke="#132e65" stroke-width="1.5"></path><path d="M1306.86 657.25L1390.41 708.73" stroke="#132e65" stroke-width="1.5"></path><path d="M1306.86 657.25L1404.48 554.23" stroke="#132e65" stroke-width="1.5"></path><path d="M1406.92 -107.33L1406.92 -107.33" stroke="#132e65" stroke-width="1.5"></path><path d="M1406.92 -107.33L1442.26 53.62" stroke="#132e65" stroke-width="1.5"></path><path d="M1406.92 -107.33L1266.25 52.74" stroke="#132e65" stroke-width="1.5"></path><path d="M1406.92 -107.33L1595.5 53.64" stroke="#132e65" stroke-width="1.5"></path><path d="M1406.92 -107.33L1161.37 82.18" stroke="#132e65" stroke-width="1.5"></path><path d="M1442.26 53.62L1442.26 53.62" stroke="#132e65" stroke-width="1.5"></path><path d="M1442.26 53.62L1595.5 53.64" stroke="#132e65" stroke-width="1.5"></path><path d="M1442.26 53.62L1459.07 251.71" stroke="#132e65" stroke-width="1.5"></path><path d="M1459.07 251.71L1459.07 251.71" stroke="#132e65" stroke-width="1.5"></path><path d="M1459.07 251.71L1609.68 245.84" stroke="#132e65" stroke-width="1.5"></path><path d="M1459.07 251.71L1426.23 400.63" stroke="#132e65" stroke-width="1.5"></path><path d="M1426.23 400.63L1426.23 400.63" stroke="#132e65" stroke-width="1.5"></path><path d="M1426.23 400.63L1404.48 554.23" stroke="#132e65" stroke-width="1.5"></path><path d="M1426.23 400.63L1569.49 530.2" stroke="#132e65" stroke-width="1.5"></path><path d="M1404.48 554.23L1404.48 554.23" stroke="#132e65" stroke-width="1.5"></path><path d="M1404.48 554.23L1390.41 708.73" stroke="#132e65" stroke-width="1.5"></path><path d="M1404.48 554.23L1569.49 530.2" stroke="#132e65" stroke-width="1.5"></path><path d="M1390.41 708.73L1390.41 708.73" stroke="#132e65" stroke-width="1.5"></path><path d="M1595.5 53.64L1595.5 53.64" stroke="#132e65" stroke-width="1.5"></path><path d="M1595.5 53.64L1609.68 245.84" stroke="#132e65" stroke-width="1.5"></path><path d="M1595.5 53.64L1459.07 251.71" stroke="#132e65" stroke-width="1.5"></path><path d="M1595.5 53.64L1266.25 52.74" stroke="#132e65" stroke-width="1.5"></path><path d="M1609.68 245.84L1609.68 245.84" stroke="#132e65" stroke-width="1.5"></path><path d="M1609.68 245.84L1426.23 400.63" stroke="#132e65" stroke-width="1.5"></path><path d="M1609.68 245.84L1442.26 53.62" stroke="#132e65" stroke-width="1.5"></path><path d="M1609.68 245.84L1569.49 530.2" stroke="#132e65" stroke-width="1.5"></path><path d="M1609.68 245.84L1283.37 242.1" stroke="#132e65" stroke-width="1.5"></path><path d="M1569.49 530.2L1569.49 530.2" stroke="#132e65" stroke-width="1.5"></path><path d="M1569.49 530.2L1582.94 653.92" stroke="#132e65" stroke-width="1.5"></path><path d="M1569.49 530.2L1390.41 708.73" stroke="#132e65" stroke-width="1.5"></path><path d="M1569.49 530.2L1287.92 489" stroke="#132e65" stroke-width="1.5"></path><path d="M1582.94 653.92L1582.94 653.92" stroke="#132e65" stroke-width="1.5"></path><path d="M1582.94 653.92L1390.41 708.73" stroke="#132e65" stroke-width="1.5"></path><path d="M1582.94 653.92L1404.48 554.23" stroke="#132e65" stroke-width="1.5"></path><path d="M1582.94 653.92L1306.86 657.25" stroke="#132e65" stroke-width="1.5"></path><path d="M1582.94 653.92L1426.23 400.63" stroke="#132e65" stroke-width="1.5"></path><path d="M1582.94 653.92L1287.92 489" stroke="#132e65" stroke-width="1.5"></path><circle r="5" cx="-73.05" cy="373.52" fill="#132e65"></circle><circle r="5" cx="-58" cy="543.48" fill="#132e65"></circle><circle r="5" cx="83.11" cy="344.69" fill="#132e65"></circle><circle r="5" cx="52.27" cy="556.08" fill="#132e65"></circle><circle r="5" cx="93.71" cy="668.04" fill="#132e65"></circle><circle r="5" cx="206.4" cy="381.45" fill="#132e65"></circle><circle r="5" cx="260.51" cy="528.21" fill="#132e65"></circle><circle r="5" cx="245.6" cy="651.09" fill="#132e65"></circle><circle r="5" cx="383.89" cy="352.69" fill="#132e65"></circle><circle r="5" cx="381.51" cy="490.03" fill="#132e65"></circle><circle r="5" cx="403.5" cy="669.41" fill="#132e65"></circle><circle r="5" cx="488.05" cy="388.28" fill="#132e65"></circle><circle r="5" cx="543.27" cy="537.92" fill="#132e65"></circle><circle r="5" cx="555.56" cy="641.55" fill="#132e65"></circle><circle r="5" cx="659.21" cy="221.72" fill="#132e65"></circle><circle r="5" cx="643.32" cy="502.53" fill="#132e65"></circle><circle r="5" cx="699.72" cy="684.33" fill="#132e65"></circle><circle r="5" cx="848.67" cy="191.29" fill="#132e65"></circle><circle r="5" cx="835.73" cy="347.01" fill="#132e65"></circle><circle r="5" cx="805.34" cy="535.45" fill="#132e65"></circle><circle r="5" cx="823.11" cy="668.42" fill="#132e65"></circle><circle r="5" cx="1005.7" cy="-48.48" fill="#132e65"></circle><circle r="5" cx="948.73" cy="41.88" fill="#132e65"></circle><circle r="5" cx="943.99" cy="255.82" fill="#132e65"></circle><circle r="5" cx="1001.51" cy="390.81" fill="#132e65"></circle><circle r="5" cx="960.17" cy="551.39" fill="#132e65"></circle><circle r="5" cx="942.52" cy="698.93" fill="#132e65"></circle><circle r="5" cx="1161.37" cy="82.18" fill="#132e65"></circle><circle r="5" cx="1115.04" cy="213.33" fill="#132e65"></circle><circle r="5" cx="1112.15" cy="387.5" fill="#132e65"></circle><circle r="5" cx="1125.25" cy="644.24" fill="#132e65"></circle><circle r="5" cx="1247.43" cy="-94.12" fill="#132e65"></circle><circle r="5" cx="1266.25" cy="52.74" fill="#132e65"></circle><circle r="5" cx="1283.37" cy="242.1" fill="#132e65"></circle><circle r="5" cx="1295.01" cy="405.75" fill="#132e65"></circle><circle r="5" cx="1287.92" cy="489" fill="#132e65"></circle><circle r="5" cx="1306.86" cy="657.25" fill="#132e65"></circle><circle r="5" cx="1406.92" cy="-107.33" fill="#132e65"></circle><circle r="5" cx="1442.26" cy="53.62" fill="#132e65"></circle><circle r="5" cx="1459.07" cy="251.71" fill="#132e65"></circle><circle r="5" cx="1426.23" cy="400.63" fill="#132e65"></circle><circle r="5" cx="1404.48" cy="554.23" fill="#132e65"></circle><circle r="5" cx="1390.41" cy="708.73" fill="#132e65"></circle><circle r="5" cx="1595.5" cy="53.64" fill="#132e65"></circle><circle r="5" cx="1609.68" cy="245.84" fill="#132e65"></circle><circle r="5" cx="1569.49" cy="530.2" fill="#132e65"></circle><circle r="5" cx="1582.94" cy="653.92" fill="#132e65"></circle><path d="M-88.8 526.53L-88.8 526.53" stroke="hsl(228.5, 77.2%, 51.5%)" stroke-width="1.5"></path><path d="M-88.8 526.53L73.82 507.04" stroke="hsl(228.5, 77.2%, 51.5%)" stroke-width="1.5"></path><path d="M-88.8 526.53L-109.19 707.71" stroke="hsl(228.5, 77.2%, 51.5%)" stroke-width="1.5"></path><path d="M-88.8 526.53L45.94 684.96" stroke="hsl(228.5, 77.2%, 51.5%)" stroke-width="1.5"></path><path d="M-109.19 707.71L-109.19 707.71" stroke="hsl(228.5, 77.2%, 51.5%)" stroke-width="1.5"></path><path d="M-109.19 707.71L45.94 684.96" stroke="hsl(228.5, 77.2%, 51.5%)" stroke-width="1.5"></path><path d="M411.58 494.51L411.58 494.51" stroke="hsl(228.5, 77.2%, 51.5%)" stroke-width="1.5"></path><path d="M411.58 494.51L487.58 520.95" stroke="hsl(228.5, 77.2%, 51.5%)" stroke-width="1.5"></path><path d="M411.58 494.51L259.69 488.85" stroke="hsl(228.5, 77.2%, 51.5%)" stroke-width="1.5"></path><path d="M411.58 494.51L383.43 658.69" stroke="hsl(228.5, 77.2%, 51.5%)" stroke-width="1.5"></path><path d="M411.58 494.51L504.43 702.3" stroke="hsl(228.5, 77.2%, 51.5%)" stroke-width="1.5"></path><path d="M411.58 494.51L667.09 500.11" stroke="hsl(228.5, 77.2%, 51.5%)" stroke-width="1.5"></path><path d="M411.58 494.51L192.26 652.78" stroke="hsl(228.5, 77.2%, 51.5%)" stroke-width="1.5"></path><path d="M504.43 702.3L504.43 702.3" stroke="hsl(228.5, 77.2%, 51.5%)" stroke-width="1.5"></path><path d="M504.43 702.3L383.43 658.69" stroke="hsl(228.5, 77.2%, 51.5%)" stroke-width="1.5"></path><path d="M504.43 702.3L682.75 680.82" stroke="hsl(228.5, 77.2%, 51.5%)" stroke-width="1.5"></path><path d="M504.43 702.3L487.58 520.95" stroke="hsl(228.5, 77.2%, 51.5%)" stroke-width="1.5"></path><path d="M504.43 702.3L667.09 500.11" stroke="hsl(228.5, 77.2%, 51.5%)" stroke-width="1.5"></path><path d="M667.09 500.11L667.09 500.11" stroke="hsl(228.5, 77.2%, 51.5%)" stroke-width="1.5"></path><path d="M667.09 500.11L804.32 505.58" stroke="hsl(228.5, 77.2%, 51.5%)" stroke-width="1.5"></path><path d="M667.09 500.11L487.58 520.95" stroke="hsl(228.5, 77.2%, 51.5%)" stroke-width="1.5"></path><path d="M667.09 500.11L682.75 680.82" stroke="hsl(228.5, 77.2%, 51.5%)" stroke-width="1.5"></path><path d="M667.09 500.11L836.69 361.14" stroke="hsl(228.5, 77.2%, 51.5%)" stroke-width="1.5"></path><path d="M963.71 253.27L963.71 253.27" stroke="hsl(228.5, 77.2%, 51.5%)" stroke-width="1.5"></path><path d="M963.71 253.27L987.68 340.64" stroke="hsl(228.5, 77.2%, 51.5%)" stroke-width="1.5"></path><path d="M963.71 253.27L836.69 361.14" stroke="hsl(228.5, 77.2%, 51.5%)" stroke-width="1.5"></path><path d="M963.71 253.27L1129.02 356.17" stroke="hsl(228.5, 77.2%, 51.5%)" stroke-width="1.5"></path><path d="M963.71 253.27L951.34 510.18" stroke="hsl(228.5, 77.2%, 51.5%)" stroke-width="1.5"></path><path d="M963.71 253.27L1243.93 203.29" stroke="hsl(228.5, 77.2%, 51.5%)" stroke-width="1.5"></path><path d="M963.71 253.27L804.32 505.58" stroke="hsl(228.5, 77.2%, 51.5%)" stroke-width="1.5"></path><path d="M938.83 699.06L938.83 699.06" stroke="hsl(228.5, 77.2%, 51.5%)" stroke-width="1.5"></path><path d="M938.83 699.06L842.44 695.16" stroke="hsl(228.5, 77.2%, 51.5%)" stroke-width="1.5"></path><path d="M938.83 699.06L951.34 510.18" stroke="hsl(228.5, 77.2%, 51.5%)" stroke-width="1.5"></path><path d="M938.83 699.06L1127.38 679.87" stroke="hsl(228.5, 77.2%, 51.5%)" stroke-width="1.5"></path><path d="M938.83 699.06L804.32 505.58" stroke="hsl(228.5, 77.2%, 51.5%)" stroke-width="1.5"></path><path d="M938.83 699.06L682.75 680.82" stroke="hsl(228.5, 77.2%, 51.5%)" stroke-width="1.5"></path><path d="M938.83 699.06L1142.84 532.08" stroke="hsl(228.5, 77.2%, 51.5%)" stroke-width="1.5"></path><path d="M1159.67 -53.37L1159.67 -53.37" stroke="hsl(228.5, 77.2%, 51.5%)" stroke-width="1.5"></path><path d="M1159.67 -53.37L1300.86 -75.91" stroke="hsl(228.5, 77.2%, 51.5%)" stroke-width="1.5"></path><path d="M1159.67 -53.37L1298.29 61.84" stroke="hsl(228.5, 77.2%, 51.5%)" stroke-width="1.5"></path><path d="M1159.67 -53.37L1243.93 203.29" stroke="hsl(228.5, 77.2%, 51.5%)" stroke-width="1.5"></path><path d="M1159.67 -53.37L1432.81 -93.91" stroke="hsl(228.5, 77.2%, 51.5%)" stroke-width="1.5"></path><path d="M1159.67 -53.37L1438.1 62.51" stroke="hsl(228.5, 77.2%, 51.5%)" stroke-width="1.5"></path><path d="M1159.67 -53.37L963.71 253.27" stroke="hsl(228.5, 77.2%, 51.5%)" stroke-width="1.5"></path><path d="M1127.38 679.87L1127.38 679.87" stroke="hsl(228.5, 77.2%, 51.5%)" stroke-width="1.5"></path><path d="M1127.38 679.87L1142.84 532.08" stroke="hsl(228.5, 77.2%, 51.5%)" stroke-width="1.5"></path><path d="M1127.38 679.87L1296.67 667.31" stroke="hsl(228.5, 77.2%, 51.5%)" stroke-width="1.5"></path><path d="M1127.38 679.87L1305.92 561.58" stroke="hsl(228.5, 77.2%, 51.5%)" stroke-width="1.5"></path><path d="M1127.38 679.87L951.34 510.18" stroke="hsl(228.5, 77.2%, 51.5%)" stroke-width="1.5"></path><path d="M1438.1 62.51L1438.1 62.51" stroke="hsl(228.5, 77.2%, 51.5%)" stroke-width="1.5"></path><path d="M1438.1 62.51L1298.29 61.84" stroke="hsl(228.5, 77.2%, 51.5%)" stroke-width="1.5"></path><path d="M1438.1 62.51L1583.39 68.79" stroke="hsl(228.5, 77.2%, 51.5%)" stroke-width="1.5"></path><path d="M1438.1 62.51L1414.2 207.93" stroke="hsl(228.5, 77.2%, 51.5%)" stroke-width="1.5"></path><path d="M1438.1 62.51L1432.81 -93.91" stroke="hsl(228.5, 77.2%, 51.5%)" stroke-width="1.5"></path><path d="M1438.1 62.51L1564.54 -43.73" stroke="hsl(228.5, 77.2%, 51.5%)" stroke-width="1.5"></path><path d="M1438.1 62.51L1300.86 -75.91" stroke="hsl(228.5, 77.2%, 51.5%)" stroke-width="1.5"></path><path d="M73.82 507.04L73.82 507.04" stroke="hsl(228.5, 77.2%, 51.5%)" stroke-width="1.5"></path><path d="M73.82 507.04L45.94 684.96" stroke="hsl(228.5, 77.2%, 51.5%)" stroke-width="1.5"></path><path d="M73.82 507.04L259.69 488.85" stroke="hsl(228.5, 77.2%, 51.5%)" stroke-width="1.5"></path><path d="M73.82 507.04L192.26 652.78" stroke="hsl(228.5, 77.2%, 51.5%)" stroke-width="1.5"></path><path d="M45.94 684.96L45.94 684.96" stroke="hsl(228.5, 77.2%, 51.5%)" stroke-width="1.5"></path><path d="M45.94 684.96L192.26 652.78" stroke="hsl(228.5, 77.2%, 51.5%)" stroke-width="1.5"></path><path d="M45.94 684.96L259.69 488.85" stroke="hsl(228.5, 77.2%, 51.5%)" stroke-width="1.5"></path><path d="M259.69 488.85L259.69 488.85" stroke="hsl(228.5, 77.2%, 51.5%)" stroke-width="1.5"></path><path d="M259.69 488.85L192.26 652.78" stroke="hsl(228.5, 77.2%, 51.5%)" stroke-width="1.5"></path><path d="M259.69 488.85L383.43 658.69" stroke="hsl(228.5, 77.2%, 51.5%)" stroke-width="1.5"></path><path d="M259.69 488.85L487.58 520.95" stroke="hsl(228.5, 77.2%, 51.5%)" stroke-width="1.5"></path><path d="M192.26 652.78L192.26 652.78" stroke="hsl(228.5, 77.2%, 51.5%)" stroke-width="1.5"></path><path d="M192.26 652.78L383.43 658.69" stroke="hsl(228.5, 77.2%, 51.5%)" stroke-width="1.5"></path><path d="M383.43 658.69L383.43 658.69" stroke="hsl(228.5, 77.2%, 51.5%)" stroke-width="1.5"></path><path d="M383.43 658.69L487.58 520.95" stroke="hsl(228.5, 77.2%, 51.5%)" stroke-width="1.5"></path><path d="M487.58 520.95L487.58 520.95" stroke="hsl(228.5, 77.2%, 51.5%)" stroke-width="1.5"></path><path d="M682.75 680.82L682.75 680.82" stroke="hsl(228.5, 77.2%, 51.5%)" stroke-width="1.5"></path><path d="M682.75 680.82L842.44 695.16" stroke="hsl(228.5, 77.2%, 51.5%)" stroke-width="1.5"></path><path d="M682.75 680.82L804.32 505.58" stroke="hsl(228.5, 77.2%, 51.5%)" stroke-width="1.5"></path><path d="M836.69 361.14L836.69 361.14" stroke="hsl(228.5, 77.2%, 51.5%)" stroke-width="1.5"></path><path d="M836.69 361.14L804.32 505.58" stroke="hsl(228.5, 77.2%, 51.5%)" stroke-width="1.5"></path><path d="M836.69 361.14L987.68 340.64" stroke="hsl(228.5, 77.2%, 51.5%)" stroke-width="1.5"></path><path d="M836.69 361.14L951.34 510.18" stroke="hsl(228.5, 77.2%, 51.5%)" stroke-width="1.5"></path><path d="M836.69 361.14L1129.02 356.17" stroke="hsl(228.5, 77.2%, 51.5%)" stroke-width="1.5"></path><path d="M804.32 505.58L804.32 505.58" stroke="hsl(228.5, 77.2%, 51.5%)" stroke-width="1.5"></path><path d="M804.32 505.58L951.34 510.18" stroke="hsl(228.5, 77.2%, 51.5%)" stroke-width="1.5"></path><path d="M842.44 695.16L842.44 695.16" stroke="hsl(228.5, 77.2%, 51.5%)" stroke-width="1.5"></path><path d="M842.44 695.16L804.32 505.58" stroke="hsl(228.5, 77.2%, 51.5%)" stroke-width="1.5"></path><path d="M842.44 695.16L951.34 510.18" stroke="hsl(228.5, 77.2%, 51.5%)" stroke-width="1.5"></path><path d="M987.68 340.64L987.68 340.64" stroke="hsl(228.5, 77.2%, 51.5%)" stroke-width="1.5"></path><path d="M987.68 340.64L1129.02 356.17" stroke="hsl(228.5, 77.2%, 51.5%)" stroke-width="1.5"></path><path d="M987.68 340.64L951.34 510.18" stroke="hsl(228.5, 77.2%, 51.5%)" stroke-width="1.5"></path><path d="M951.34 510.18L951.34 510.18" stroke="hsl(228.5, 77.2%, 51.5%)" stroke-width="1.5"></path><path d="M1129.02 356.17L1129.02 356.17" stroke="hsl(228.5, 77.2%, 51.5%)" stroke-width="1.5"></path><path d="M1129.02 356.17L1253.9 405.45" stroke="hsl(228.5, 77.2%, 51.5%)" stroke-width="1.5"></path><path d="M1129.02 356.17L1142.84 532.08" stroke="hsl(228.5, 77.2%, 51.5%)" stroke-width="1.5"></path><path d="M1129.02 356.17L1243.93 203.29" stroke="hsl(228.5, 77.2%, 51.5%)" stroke-width="1.5"></path><path d="M1129.02 356.17L951.34 510.18" stroke="hsl(228.5, 77.2%, 51.5%)" stroke-width="1.5"></path><path d="M1142.84 532.08L1142.84 532.08" stroke="hsl(228.5, 77.2%, 51.5%)" stroke-width="1.5"></path><path d="M1142.84 532.08L1305.92 561.58" stroke="hsl(228.5, 77.2%, 51.5%)" stroke-width="1.5"></path><path d="M1142.84 532.08L1253.9 405.45" stroke="hsl(228.5, 77.2%, 51.5%)" stroke-width="1.5"></path><path d="M1300.86 -75.91L1300.86 -75.91" stroke="hsl(228.5, 77.2%, 51.5%)" stroke-width="1.5"></path><path d="M1300.86 -75.91L1432.81 -93.91" stroke="hsl(228.5, 77.2%, 51.5%)" stroke-width="1.5"></path><path d="M1300.86 -75.91L1298.29 61.84" stroke="hsl(228.5, 77.2%, 51.5%)" stroke-width="1.5"></path><path d="M1298.29 61.84L1298.29 61.84" stroke="hsl(228.5, 77.2%, 51.5%)" stroke-width="1.5"></path><path d="M1298.29 61.84L1243.93 203.29" stroke="hsl(228.5, 77.2%, 51.5%)" stroke-width="1.5"></path><path d="M1243.93 203.29L1243.93 203.29" stroke="hsl(228.5, 77.2%, 51.5%)" stroke-width="1.5"></path><path d="M1243.93 203.29L1414.2 207.93" stroke="hsl(228.5, 77.2%, 51.5%)" stroke-width="1.5"></path><path d="M1243.93 203.29L1253.9 405.45" stroke="hsl(228.5, 77.2%, 51.5%)" stroke-width="1.5"></path><path d="M1243.93 203.29L1438.1 62.51" stroke="hsl(228.5, 77.2%, 51.5%)" stroke-width="1.5"></path><path d="M1253.9 405.45L1253.9 405.45" stroke="hsl(228.5, 77.2%, 51.5%)" stroke-width="1.5"></path><path d="M1253.9 405.45L1305.92 561.58" stroke="hsl(228.5, 77.2%, 51.5%)" stroke-width="1.5"></path><path d="M1305.92 561.58L1305.92 561.58" stroke="hsl(228.5, 77.2%, 51.5%)" stroke-width="1.5"></path><path d="M1305.92 561.58L1296.67 667.31" stroke="hsl(228.5, 77.2%, 51.5%)" stroke-width="1.5"></path><path d="M1305.92 561.58L1417.16 528.25" stroke="hsl(228.5, 77.2%, 51.5%)" stroke-width="1.5"></path><path d="M1296.67 667.31L1296.67 667.31" stroke="hsl(228.5, 77.2%, 51.5%)" stroke-width="1.5"></path><path d="M1296.67 667.31L1460.25 650.32" stroke="hsl(228.5, 77.2%, 51.5%)" stroke-width="1.5"></path><path d="M1296.67 667.31L1417.16 528.25" stroke="hsl(228.5, 77.2%, 51.5%)" stroke-width="1.5"></path><path d="M1296.67 667.31L1142.84 532.08" stroke="hsl(228.5, 77.2%, 51.5%)" stroke-width="1.5"></path><path d="M1432.81 -93.91L1432.81 -93.91" stroke="hsl(228.5, 77.2%, 51.5%)" stroke-width="1.5"></path><path d="M1432.81 -93.91L1564.54 -43.73" stroke="hsl(228.5, 77.2%, 51.5%)" stroke-width="1.5"></path><path d="M1414.2 207.93L1414.2 207.93" stroke="hsl(228.5, 77.2%, 51.5%)" stroke-width="1.5"></path><path d="M1414.2 207.93L1571.88 232.94" stroke="hsl(228.5, 77.2%, 51.5%)" stroke-width="1.5"></path><path d="M1414.2 207.93L1298.29 61.84" stroke="hsl(228.5, 77.2%, 51.5%)" stroke-width="1.5"></path><path d="M1414.2 207.93L1583.39 68.79" stroke="hsl(228.5, 77.2%, 51.5%)" stroke-width="1.5"></path><path d="M1417.16 528.25L1417.16 528.25" stroke="hsl(228.5, 77.2%, 51.5%)" stroke-width="1.5"></path><path d="M1417.16 528.25L1542.71 539.5" stroke="hsl(228.5, 77.2%, 51.5%)" stroke-width="1.5"></path><path d="M1417.16 528.25L1460.25 650.32" stroke="hsl(228.5, 77.2%, 51.5%)" stroke-width="1.5"></path><path d="M1417.16 528.25L1253.9 405.45" stroke="hsl(228.5, 77.2%, 51.5%)" stroke-width="1.5"></path><path d="M1460.25 650.32L1460.25 650.32" stroke="hsl(228.5, 77.2%, 51.5%)" stroke-width="1.5"></path><path d="M1460.25 650.32L1585.54 668.4" stroke="hsl(228.5, 77.2%, 51.5%)" stroke-width="1.5"></path><path d="M1460.25 650.32L1542.71 539.5" stroke="hsl(228.5, 77.2%, 51.5%)" stroke-width="1.5"></path><path d="M1564.54 -43.73L1564.54 -43.73" stroke="hsl(228.5, 77.2%, 51.5%)" stroke-width="1.5"></path><path d="M1564.54 -43.73L1583.39 68.79" stroke="hsl(228.5, 77.2%, 51.5%)" stroke-width="1.5"></path><path d="M1583.39 68.79L1583.39 68.79" stroke="hsl(228.5, 77.2%, 51.5%)" stroke-width="1.5"></path><path d="M1571.88 232.94L1571.88 232.94" stroke="hsl(228.5, 77.2%, 51.5%)" stroke-width="1.5"></path><path d="M1571.88 232.94L1603.87 342.73" stroke="hsl(228.5, 77.2%, 51.5%)" stroke-width="1.5"></path><path d="M1571.88 232.94L1583.39 68.79" stroke="hsl(228.5, 77.2%, 51.5%)" stroke-width="1.5"></path><path d="M1571.88 232.94L1438.1 62.51" stroke="hsl(228.5, 77.2%, 51.5%)" stroke-width="1.5"></path><path d="M1603.87 342.73L1603.87 342.73" stroke="hsl(228.5, 77.2%, 51.5%)" stroke-width="1.5"></path><path d="M1603.87 342.73L1542.71 539.5" stroke="hsl(228.5, 77.2%, 51.5%)" stroke-width="1.5"></path><path d="M1603.87 342.73L1414.2 207.93" stroke="hsl(228.5, 77.2%, 51.5%)" stroke-width="1.5"></path><path d="M1603.87 342.73L1417.16 528.25" stroke="hsl(228.5, 77.2%, 51.5%)" stroke-width="1.5"></path><path d="M1603.87 342.73L1583.39 68.79" stroke="hsl(228.5, 77.2%, 51.5%)" stroke-width="1.5"></path><path d="M1542.71 539.5L1542.71 539.5" stroke="hsl(228.5, 77.2%, 51.5%)" stroke-width="1.5"></path><path d="M1542.71 539.5L1585.54 668.4" stroke="hsl(228.5, 77.2%, 51.5%)" stroke-width="1.5"></path><path d="M1585.54 668.4L1585.54 668.4" stroke="hsl(228.5, 77.2%, 51.5%)" stroke-width="1.5"></path><circle r="25" cx="-88.8" cy="526.53" fill="url(&quot;#SvgjsRadialGradient1044&quot;)"></circle><circle r="25" cx="-109.19" cy="707.71" fill="url(&quot;#SvgjsRadialGradient1044&quot;)"></circle><circle r="25" cx="411.58" cy="494.51" fill="url(&quot;#SvgjsRadialGradient1044&quot;)"></circle><circle r="25" cx="504.43" cy="702.3" fill="url(&quot;#SvgjsRadialGradient1044&quot;)"></circle><circle r="25" cx="667.09" cy="500.11" fill="url(&quot;#SvgjsRadialGradient1044&quot;)"></circle><circle r="25" cx="963.71" cy="253.27" fill="url(&quot;#SvgjsRadialGradient1044&quot;)"></circle><circle r="25" cx="938.83" cy="699.06" fill="url(&quot;#SvgjsRadialGradient1044&quot;)"></circle><circle r="25" cx="1159.67" cy="-53.37" fill="url(&quot;#SvgjsRadialGradient1044&quot;)"></circle><circle r="25" cx="1127.38" cy="679.87" fill="url(&quot;#SvgjsRadialGradient1044&quot;)"></circle><circle r="25" cx="1438.1" cy="62.51" fill="url(&quot;#SvgjsRadialGradient1044&quot;)"></circle><circle r="5" cx="73.82" cy="507.04" fill="#8b9ad9"></circle><circle r="5" cx="45.94" cy="684.96" fill="#8b9ad9"></circle><circle r="5" cx="259.69" cy="488.85" fill="#8b9ad9"></circle><circle r="5" cx="192.26" cy="652.78" fill="#8b9ad9"></circle><circle r="5" cx="383.43" cy="658.69" fill="#8b9ad9"></circle><circle r="5" cx="487.58" cy="520.95" fill="#8b9ad9"></circle><circle r="5" cx="682.75" cy="680.82" fill="#8b9ad9"></circle><circle r="5" cx="836.69" cy="361.14" fill="#8b9ad9"></circle><circle r="5" cx="804.32" cy="505.58" fill="#8b9ad9"></circle><circle r="5" cx="842.44" cy="695.16" fill="#8b9ad9"></circle><circle r="5" cx="987.68" cy="340.64" fill="#8b9ad9"></circle><circle r="5" cx="951.34" cy="510.18" fill="#8b9ad9"></circle><circle r="5" cx="1129.02" cy="356.17" fill="#8b9ad9"></circle><circle r="5" cx="1142.84" cy="532.08" fill="#8b9ad9"></circle><circle r="5" cx="1300.86" cy="-75.91" fill="#8b9ad9"></circle><circle r="5" cx="1298.29" cy="61.84" fill="#8b9ad9"></circle><circle r="5" cx="1243.93" cy="203.29" fill="#8b9ad9"></circle><circle r="5" cx="1253.9" cy="405.45" fill="#8b9ad9"></circle><circle r="5" cx="1305.92" cy="561.58" fill="#8b9ad9"></circle><circle r="5" cx="1296.67" cy="667.31" fill="#8b9ad9"></circle><circle r="5" cx="1432.81" cy="-93.91" fill="#8b9ad9"></circle><circle r="5" cx="1414.2" cy="207.93" fill="#8b9ad9"></circle><circle r="5" cx="1417.16" cy="528.25" fill="#8b9ad9"></circle><circle r="5" cx="1460.25" cy="650.32" fill="#8b9ad9"></circle><circle r="5" cx="1564.54" cy="-43.73" fill="#8b9ad9"></circle><circle r="5" cx="1583.39" cy="68.79" fill="#8b9ad9"></circle><circle r="5" cx="1571.88" cy="232.94" fill="#8b9ad9"></circle><circle r="5" cx="1603.87" cy="342.73" fill="#8b9ad9"></circle><circle r="5" cx="1542.71" cy="539.5" fill="#8b9ad9"></circle><circle r="5" cx="1585.54" cy="668.4" fill="#8b9ad9"></circle></g><defs><mask id="SvgjsMask1043"><rect width="1440" height="560" fill="#ffffff"></rect></mask><radialGradient id="SvgjsRadialGradient1044"><stop stop-color="#ffffff" offset="0.1"></stop><stop stop-color="#1735b3" offset="0.2"></stop><stop stop-color="rgba(23, 53, 179, 0)" offset="1"></stop></radialGradient></defs></svg>