<svg xmlns="http://www.w3.org/2000/svg" version="1.1" xmlns:xlink="http://www.w3.org/1999/xlink" xmlns:svgjs="http://svgjs.dev/svgjs" width="1440" height="560" preserveAspectRatio="none" viewBox="0 0 1440 560"><g mask="url(&quot;#SvgjsMask1041&quot;)" fill="none"><path d="M-67.24 397.09L-67.24 397.09" stroke="#132e65" stroke-width="1.5"></path><path d="M-67.24 397.09L-41.64 533.43" stroke="#132e65" stroke-width="1.5"></path><path d="M-67.24 397.09L102.36 377.38" stroke="#132e65" stroke-width="1.5"></path><path d="M-67.24 397.09L65.34 506.56" stroke="#132e65" stroke-width="1.5"></path><path d="M-41.64 533.43L-41.64 533.43" stroke="#132e65" stroke-width="1.5"></path><path d="M-41.64 533.43L65.34 506.56" stroke="#132e65" stroke-width="1.5"></path><path d="M-41.64 533.43L53.67 643.51" stroke="#132e65" stroke-width="1.5"></path><path d="M102.36 377.38L102.36 377.38" stroke="#132e65" stroke-width="1.5"></path><path d="M102.36 377.38L65.34 506.56" stroke="#132e65" stroke-width="1.5"></path><path d="M102.36 377.38L251.38 345" stroke="#132e65" stroke-width="1.5"></path><path d="M65.34 506.56L65.34 506.56" stroke="#132e65" stroke-width="1.5"></path><path d="M65.34 506.56L53.67 643.51" stroke="#132e65" stroke-width="1.5"></path><path d="M53.67 643.51L53.67 643.51" stroke="#132e65" stroke-width="1.5"></path><path d="M251.38 345L251.38 345" stroke="#132e65" stroke-width="1.5"></path><path d="M251.38 345L242.17 524.4" stroke="#132e65" stroke-width="1.5"></path><path d="M251.38 345L376.7 556.34" stroke="#132e65" stroke-width="1.5"></path><path d="M251.38 345L65.34 506.56" stroke="#132e65" stroke-width="1.5"></path><path d="M242.17 524.4L242.17 524.4" stroke="#132e65" stroke-width="1.5"></path><path d="M242.17 524.4L237.25 656.15" stroke="#132e65" stroke-width="1.5"></path><path d="M242.17 524.4L376.7 556.34" stroke="#132e65" stroke-width="1.5"></path><path d="M242.17 524.4L65.34 506.56" stroke="#132e65" stroke-width="1.5"></path><path d="M237.25 656.15L237.25 656.15" stroke="#132e65" stroke-width="1.5"></path><path d="M237.25 656.15L345.8 695.74" stroke="#132e65" stroke-width="1.5"></path><path d="M237.25 656.15L376.7 556.34" stroke="#132e65" stroke-width="1.5"></path><path d="M237.25 656.15L53.67 643.51" stroke="#132e65" stroke-width="1.5"></path><path d="M237.25 656.15L65.34 506.56" stroke="#132e65" stroke-width="1.5"></path><path d="M237.25 656.15L524.76 647.51" stroke="#132e65" stroke-width="1.5"></path><path d="M376.7 556.34L376.7 556.34" stroke="#132e65" stroke-width="1.5"></path><path d="M376.7 556.34L507.99 538.38" stroke="#132e65" stroke-width="1.5"></path><path d="M376.7 556.34L345.8 695.74" stroke="#132e65" stroke-width="1.5"></path><path d="M376.7 556.34L524.76 647.51" stroke="#132e65" stroke-width="1.5"></path><path d="M345.8 695.74L345.8 695.74" stroke="#132e65" stroke-width="1.5"></path><path d="M345.8 695.74L524.76 647.51" stroke="#132e65" stroke-width="1.5"></path><path d="M345.8 695.74L242.17 524.4" stroke="#132e65" stroke-width="1.5"></path><path d="M345.8 695.74L507.99 538.38" stroke="#132e65" stroke-width="1.5"></path><path d="M345.8 695.74L53.67 643.51" stroke="#132e65" stroke-width="1.5"></path><path d="M560.9 383.12L560.9 383.12" stroke="#132e65" stroke-width="1.5"></path><path d="M560.9 383.12L686.37 367.11" stroke="#132e65" stroke-width="1.5"></path><path d="M560.9 383.12L507.99 538.38" stroke="#132e65" stroke-width="1.5"></path><path d="M560.9 383.12L652.89 237.25" stroke="#132e65" stroke-width="1.5"></path><path d="M507.99 538.38L507.99 538.38" stroke="#132e65" stroke-width="1.5"></path><path d="M507.99 538.38L524.76 647.51" stroke="#132e65" stroke-width="1.5"></path><path d="M507.99 538.38L642.4 556.05" stroke="#132e65" stroke-width="1.5"></path><path d="M524.76 647.51L524.76 647.51" stroke="#132e65" stroke-width="1.5"></path><path d="M524.76 647.51L642.4 556.05" stroke="#132e65" stroke-width="1.5"></path><path d="M524.76 647.51L686.41 645.93" stroke="#132e65" stroke-width="1.5"></path><path d="M652.89 237.25L652.89 237.25" stroke="#132e65" stroke-width="1.5"></path><path d="M652.89 237.25L686.37 367.11" stroke="#132e65" stroke-width="1.5"></path><path d="M652.89 237.25L839.21 208.76" stroke="#132e65" stroke-width="1.5"></path><path d="M652.89 237.25L827.01 381.28" stroke="#132e65" stroke-width="1.5"></path><path d="M652.89 237.25L940.93 109.95" stroke="#132e65" stroke-width="1.5"></path><path d="M686.37 367.11L686.37 367.11" stroke="#132e65" stroke-width="1.5"></path><path d="M642.4 556.05L642.4 556.05" stroke="#132e65" stroke-width="1.5"></path><path d="M642.4 556.05L686.41 645.93" stroke="#132e65" stroke-width="1.5"></path><path d="M642.4 556.05L801.28 647.99" stroke="#132e65" stroke-width="1.5"></path><path d="M686.41 645.93L686.41 645.93" stroke="#132e65" stroke-width="1.5"></path><path d="M686.41 645.93L801.28 647.99" stroke="#132e65" stroke-width="1.5"></path><path d="M686.41 645.93L507.99 538.38" stroke="#132e65" stroke-width="1.5"></path><path d="M686.41 645.93L845.59 489.41" stroke="#132e65" stroke-width="1.5"></path><path d="M686.41 645.93L960.54 637.77" stroke="#132e65" stroke-width="1.5"></path><path d="M839.21 208.76L839.21 208.76" stroke="#132e65" stroke-width="1.5"></path><path d="M839.21 208.76L977.92 220.46" stroke="#132e65" stroke-width="1.5"></path><path d="M839.21 208.76L940.93 109.95" stroke="#132e65" stroke-width="1.5"></path><path d="M839.21 208.76L827.01 381.28" stroke="#132e65" stroke-width="1.5"></path><path d="M839.21 208.76L686.37 367.11" stroke="#132e65" stroke-width="1.5"></path><path d="M827.01 381.28L827.01 381.28" stroke="#132e65" stroke-width="1.5"></path><path d="M827.01 381.28L845.59 489.41" stroke="#132e65" stroke-width="1.5"></path><path d="M827.01 381.28L686.37 367.11" stroke="#132e65" stroke-width="1.5"></path><path d="M845.59 489.41L845.59 489.41" stroke="#132e65" stroke-width="1.5"></path><path d="M845.59 489.41L940.45 525.57" stroke="#132e65" stroke-width="1.5"></path><path d="M845.59 489.41L983.38 411.41" stroke="#132e65" stroke-width="1.5"></path><path d="M801.28 647.99L801.28 647.99" stroke="#132e65" stroke-width="1.5"></path><path d="M997.52 -96.72L997.52 -96.72" stroke="#132e65" stroke-width="1.5"></path><path d="M997.52 -96.72L1127.25 -39.82" stroke="#132e65" stroke-width="1.5"></path><path d="M997.52 -96.72L1142.95 45.8" stroke="#132e65" stroke-width="1.5"></path><path d="M997.52 -96.72L940.93 109.95" stroke="#132e65" stroke-width="1.5"></path><path d="M997.52 -96.72L1261.16 -43.41" stroke="#132e65" stroke-width="1.5"></path><path d="M997.52 -96.72L1100.28 198.97" stroke="#132e65" stroke-width="1.5"></path><path d="M940.93 109.95L940.93 109.95" stroke="#132e65" stroke-width="1.5"></path><path d="M940.93 109.95L977.92 220.46" stroke="#132e65" stroke-width="1.5"></path><path d="M940.93 109.95L1100.28 198.97" stroke="#132e65" stroke-width="1.5"></path><path d="M977.92 220.46L977.92 220.46" stroke="#132e65" stroke-width="1.5"></path><path d="M977.92 220.46L1100.28 198.97" stroke="#132e65" stroke-width="1.5"></path><path d="M983.38 411.41L983.38 411.41" stroke="#132e65" stroke-width="1.5"></path><path d="M983.38 411.41L940.45 525.57" stroke="#132e65" stroke-width="1.5"></path><path d="M983.38 411.41L1137.07 370.99" stroke="#132e65" stroke-width="1.5"></path><path d="M983.38 411.41L827.01 381.28" stroke="#132e65" stroke-width="1.5"></path><path d="M983.38 411.41L1133.46 506.34" stroke="#132e65" stroke-width="1.5"></path><path d="M940.45 525.57L940.45 525.57" stroke="#132e65" stroke-width="1.5"></path><path d="M940.45 525.57L960.54 637.77" stroke="#132e65" stroke-width="1.5"></path><path d="M960.54 637.77L960.54 637.77" stroke="#132e65" stroke-width="1.5"></path><path d="M960.54 637.77L801.28 647.99" stroke="#132e65" stroke-width="1.5"></path><path d="M1127.25 -39.82L1127.25 -39.82" stroke="#132e65" stroke-width="1.5"></path><path d="M1127.25 -39.82L1142.95 45.8" stroke="#132e65" stroke-width="1.5"></path><path d="M1127.25 -39.82L1261.16 -43.41" stroke="#132e65" stroke-width="1.5"></path><path d="M1127.25 -39.82L940.93 109.95" stroke="#132e65" stroke-width="1.5"></path><path d="M1142.95 45.8L1142.95 45.8" stroke="#132e65" stroke-width="1.5"></path><path d="M1142.95 45.8L1261.16 -43.41" stroke="#132e65" stroke-width="1.5"></path><path d="M1142.95 45.8L1100.28 198.97" stroke="#132e65" stroke-width="1.5"></path><path d="M1100.28 198.97L1100.28 198.97" stroke="#132e65" stroke-width="1.5"></path><path d="M1137.07 370.99L1137.07 370.99" stroke="#132e65" stroke-width="1.5"></path><path d="M1137.07 370.99L1255.76 389.91" stroke="#132e65" stroke-width="1.5"></path><path d="M1137.07 370.99L1133.46 506.34" stroke="#132e65" stroke-width="1.5"></path><path d="M1137.07 370.99L1100.28 198.97" stroke="#132e65" stroke-width="1.5"></path><path d="M1137.07 370.99L1266.26 243.92" stroke="#132e65" stroke-width="1.5"></path><path d="M1137.07 370.99L1312.07 489.48" stroke="#132e65" stroke-width="1.5"></path><path d="M1133.46 506.34L1133.46 506.34" stroke="#132e65" stroke-width="1.5"></path><path d="M1133.46 506.34L1255.76 389.91" stroke="#132e65" stroke-width="1.5"></path><path d="M1133.46 506.34L1312.07 489.48" stroke="#132e65" stroke-width="1.5"></path><path d="M1139.09 702.95L1139.09 702.95" stroke="#132e65" stroke-width="1.5"></path><path d="M1139.09 702.95L1291.4 684.84" stroke="#132e65" stroke-width="1.5"></path><path d="M1139.09 702.95L960.54 637.77" stroke="#132e65" stroke-width="1.5"></path><path d="M1139.09 702.95L1133.46 506.34" stroke="#132e65" stroke-width="1.5"></path><path d="M1261.16 -43.41L1261.16 -43.41" stroke="#132e65" stroke-width="1.5"></path><path d="M1261.16 -43.41L1424.99 -94.67" stroke="#132e65" stroke-width="1.5"></path><path d="M1266.26 243.92L1266.26 243.92" stroke="#132e65" stroke-width="1.5"></path><path d="M1266.26 243.92L1255.76 389.91" stroke="#132e65" stroke-width="1.5"></path><path d="M1266.26 243.92L1423.1 226.05" stroke="#132e65" stroke-width="1.5"></path><path d="M1266.26 243.92L1100.28 198.97" stroke="#132e65" stroke-width="1.5"></path><path d="M1255.76 389.91L1255.76 389.91" stroke="#132e65" stroke-width="1.5"></path><path d="M1255.76 389.91L1312.07 489.48" stroke="#132e65" stroke-width="1.5"></path><path d="M1255.76 389.91L1392.6 380.9" stroke="#132e65" stroke-width="1.5"></path><path d="M1312.07 489.48L1312.07 489.48" stroke="#132e65" stroke-width="1.5"></path><path d="M1312.07 489.48L1433.73 511.58" stroke="#132e65" stroke-width="1.5"></path><path d="M1312.07 489.48L1392.6 380.9" stroke="#132e65" stroke-width="1.5"></path><path d="M1312.07 489.48L1291.4 684.84" stroke="#132e65" stroke-width="1.5"></path><path d="M1291.4 684.84L1291.4 684.84" stroke="#132e65" stroke-width="1.5"></path><path d="M1291.4 684.84L1410.99 678.3" stroke="#132e65" stroke-width="1.5"></path><path d="M1291.4 684.84L1433.73 511.58" stroke="#132e65" stroke-width="1.5"></path><path d="M1291.4 684.84L1133.46 506.34" stroke="#132e65" stroke-width="1.5"></path><path d="M1291.4 684.84L1255.76 389.91" stroke="#132e65" stroke-width="1.5"></path><path d="M1424.99 -94.67L1424.99 -94.67" stroke="#132e65" stroke-width="1.5"></path><path d="M1424.99 -94.67L1425.22 57.72" stroke="#132e65" stroke-width="1.5"></path><path d="M1425.22 57.72L1425.22 57.72" stroke="#132e65" stroke-width="1.5"></path><path d="M1425.22 57.72L1423.1 226.05" stroke="#132e65" stroke-width="1.5"></path><path d="M1423.1 226.05L1423.1 226.05" stroke="#132e65" stroke-width="1.5"></path><path d="M1423.1 226.05L1556.92 204.17" stroke="#132e65" stroke-width="1.5"></path><path d="M1423.1 226.05L1392.6 380.9" stroke="#132e65" stroke-width="1.5"></path><path d="M1423.1 226.05L1547.9 370.8" stroke="#132e65" stroke-width="1.5"></path><path d="M1392.6 380.9L1392.6 380.9" stroke="#132e65" stroke-width="1.5"></path><path d="M1392.6 380.9L1433.73 511.58" stroke="#132e65" stroke-width="1.5"></path><path d="M1392.6 380.9L1547.9 370.8" stroke="#132e65" stroke-width="1.5"></path><path d="M1392.6 380.9L1266.26 243.92" stroke="#132e65" stroke-width="1.5"></path><path d="M1433.73 511.58L1433.73 511.58" stroke="#132e65" stroke-width="1.5"></path><path d="M1410.99 678.3L1410.99 678.3" stroke="#132e65" stroke-width="1.5"></path><path d="M1410.99 678.3L1433.73 511.58" stroke="#132e65" stroke-width="1.5"></path><path d="M1410.99 678.3L1606.42 671.9" stroke="#132e65" stroke-width="1.5"></path><path d="M1410.99 678.3L1312.07 489.48" stroke="#132e65" stroke-width="1.5"></path><path d="M1410.99 678.3L1579.52 493.02" stroke="#132e65" stroke-width="1.5"></path><path d="M1410.99 678.3L1139.09 702.95" stroke="#132e65" stroke-width="1.5"></path><path d="M1601 -47.27L1601 -47.27" stroke="#132e65" stroke-width="1.5"></path><path d="M1601 -47.27L1605.86 46.66" stroke="#132e65" stroke-width="1.5"></path><path d="M1601 -47.27L1424.99 -94.67" stroke="#132e65" stroke-width="1.5"></path><path d="M1601 -47.27L1425.22 57.72" stroke="#132e65" stroke-width="1.5"></path><path d="M1605.86 46.66L1605.86 46.66" stroke="#132e65" stroke-width="1.5"></path><path d="M1605.86 46.66L1556.92 204.17" stroke="#132e65" stroke-width="1.5"></path><path d="M1605.86 46.66L1425.22 57.72" stroke="#132e65" stroke-width="1.5"></path><path d="M1605.86 46.66L1424.99 -94.67" stroke="#132e65" stroke-width="1.5"></path><path d="M1605.86 46.66L1423.1 226.05" stroke="#132e65" stroke-width="1.5"></path><path d="M1556.92 204.17L1556.92 204.17" stroke="#132e65" stroke-width="1.5"></path><path d="M1547.9 370.8L1547.9 370.8" stroke="#132e65" stroke-width="1.5"></path><path d="M1547.9 370.8L1579.52 493.02" stroke="#132e65" stroke-width="1.5"></path><path d="M1547.9 370.8L1556.92 204.17" stroke="#132e65" stroke-width="1.5"></path><path d="M1547.9 370.8L1433.73 511.58" stroke="#132e65" stroke-width="1.5"></path><path d="M1547.9 370.8L1312.07 489.48" stroke="#132e65" stroke-width="1.5"></path><path d="M1579.52 493.02L1579.52 493.02" stroke="#132e65" stroke-width="1.5"></path><path d="M1579.52 493.02L1433.73 511.58" stroke="#132e65" stroke-width="1.5"></path><path d="M1579.52 493.02L1606.42 671.9" stroke="#132e65" stroke-width="1.5"></path><path d="M1606.42 671.9L1606.42 671.9" stroke="#132e65" stroke-width="1.5"></path><path d="M1606.42 671.9L1433.73 511.58" stroke="#132e65" stroke-width="1.5"></path><path d="M1606.42 671.9L1547.9 370.8" stroke="#132e65" stroke-width="1.5"></path><circle r="5" cx="-67.24" cy="397.09" fill="#132e65"></circle><circle r="5" cx="-41.64" cy="533.43" fill="#132e65"></circle><circle r="5" cx="102.36" cy="377.38" fill="#132e65"></circle><circle r="5" cx="65.34" cy="506.56" fill="#132e65"></circle><circle r="5" cx="53.67" cy="643.51" fill="#132e65"></circle><circle r="5" cx="251.38" cy="345" fill="#132e65"></circle><circle r="5" cx="242.17" cy="524.4" fill="#132e65"></circle><circle r="5" cx="237.25" cy="656.15" fill="#132e65"></circle><circle r="5" cx="376.7" cy="556.34" fill="#132e65"></circle><circle r="5" cx="345.8" cy="695.74" fill="#132e65"></circle><circle r="5" cx="560.9" cy="383.12" fill="#132e65"></circle><circle r="5" cx="507.99" cy="538.38" fill="#132e65"></circle><circle r="5" cx="524.76" cy="647.51" fill="#132e65"></circle><circle r="5" cx="652.89" cy="237.25" fill="#132e65"></circle><circle r="5" cx="686.37" cy="367.11" fill="#132e65"></circle><circle r="5" cx="642.4" cy="556.05" fill="#132e65"></circle><circle r="5" cx="686.41" cy="645.93" fill="#132e65"></circle><circle r="5" cx="839.21" cy="208.76" fill="#132e65"></circle><circle r="5" cx="827.01" cy="381.28" fill="#132e65"></circle><circle r="5" cx="845.59" cy="489.41" fill="#132e65"></circle><circle r="5" cx="801.28" cy="647.99" fill="#132e65"></circle><circle r="5" cx="997.52" cy="-96.72" fill="#132e65"></circle><circle r="5" cx="940.93" cy="109.95" fill="#132e65"></circle><circle r="5" cx="977.92" cy="220.46" fill="#132e65"></circle><circle r="5" cx="983.38" cy="411.41" fill="#132e65"></circle><circle r="5" cx="940.45" cy="525.57" fill="#132e65"></circle><circle r="5" cx="960.54" cy="637.77" fill="#132e65"></circle><circle r="5" cx="1127.25" cy="-39.82" fill="#132e65"></circle><circle r="5" cx="1142.95" cy="45.8" fill="#132e65"></circle><circle r="5" cx="1100.28" cy="198.97" fill="#132e65"></circle><circle r="5" cx="1137.07" cy="370.99" fill="#132e65"></circle><circle r="5" cx="1133.46" cy="506.34" fill="#132e65"></circle><circle r="5" cx="1139.09" cy="702.95" fill="#132e65"></circle><circle r="5" cx="1261.16" cy="-43.41" fill="#132e65"></circle><circle r="5" cx="1266.26" cy="243.92" fill="#132e65"></circle><circle r="5" cx="1255.76" cy="389.91" fill="#132e65"></circle><circle r="5" cx="1312.07" cy="489.48" fill="#132e65"></circle><circle r="5" cx="1291.4" cy="684.84" fill="#132e65"></circle><circle r="5" cx="1424.99" cy="-94.67" fill="#132e65"></circle><circle r="5" cx="1425.22" cy="57.72" fill="#132e65"></circle><circle r="5" cx="1423.1" cy="226.05" fill="#132e65"></circle><circle r="5" cx="1392.6" cy="380.9" fill="#132e65"></circle><circle r="5" cx="1433.73" cy="511.58" fill="#132e65"></circle><circle r="5" cx="1410.99" cy="678.3" fill="#132e65"></circle><circle r="5" cx="1601" cy="-47.27" fill="#132e65"></circle><circle r="5" cx="1605.86" cy="46.66" fill="#132e65"></circle><circle r="5" cx="1556.92" cy="204.17" fill="#132e65"></circle><circle r="5" cx="1547.9" cy="370.8" fill="#132e65"></circle><circle r="5" cx="1579.52" cy="493.02" fill="#132e65"></circle><circle r="5" cx="1606.42" cy="671.9" fill="#132e65"></circle><path d="M-69.57 669.22L-69.57 669.22" stroke="hsl(228.5, 77.2%, 51.5%)" stroke-width="1.5"></path><path d="M-69.57 669.22L-99.64 547.46" stroke="hsl(228.5, 77.2%, 51.5%)" stroke-width="1.5"></path><path d="M-69.57 669.22L109.37 698.49" stroke="hsl(228.5, 77.2%, 51.5%)" stroke-width="1.5"></path><path d="M229.13 641.08L229.13 641.08" stroke="hsl(228.5, 77.2%, 51.5%)" stroke-width="1.5"></path><path d="M229.13 641.08L205.82 528.59" stroke="hsl(228.5, 77.2%, 51.5%)" stroke-width="1.5"></path><path d="M229.13 641.08L109.37 698.49" stroke="hsl(228.5, 77.2%, 51.5%)" stroke-width="1.5"></path><path d="M229.13 641.08L362.58 685.06" stroke="hsl(228.5, 77.2%, 51.5%)" stroke-width="1.5"></path><path d="M229.13 641.08L388.53 491.12" stroke="hsl(228.5, 77.2%, 51.5%)" stroke-width="1.5"></path><path d="M229.13 641.08L515.23 650.43" stroke="hsl(228.5, 77.2%, 51.5%)" stroke-width="1.5"></path><path d="M229.13 641.08L502.98 540.37" stroke="hsl(228.5, 77.2%, 51.5%)" stroke-width="1.5"></path><path d="M388.53 491.12L388.53 491.12" stroke="hsl(228.5, 77.2%, 51.5%)" stroke-width="1.5"></path><path d="M388.53 491.12L502.98 540.37" stroke="hsl(228.5, 77.2%, 51.5%)" stroke-width="1.5"></path><path d="M388.53 491.12L497.9 405.27" stroke="hsl(228.5, 77.2%, 51.5%)" stroke-width="1.5"></path><path d="M388.53 491.12L205.82 528.59" stroke="hsl(228.5, 77.2%, 51.5%)" stroke-width="1.5"></path><path d="M388.53 491.12L362.58 685.06" stroke="hsl(228.5, 77.2%, 51.5%)" stroke-width="1.5"></path><path d="M388.53 491.12L515.23 650.43" stroke="hsl(228.5, 77.2%, 51.5%)" stroke-width="1.5"></path><path d="M831.27 552.53L831.27 552.53" stroke="hsl(228.5, 77.2%, 51.5%)" stroke-width="1.5"></path><path d="M831.27 552.53L970.91 524.01" stroke="hsl(228.5, 77.2%, 51.5%)" stroke-width="1.5"></path><path d="M831.27 552.53L689.99 487.96" stroke="hsl(228.5, 77.2%, 51.5%)" stroke-width="1.5"></path><path d="M831.27 552.53L674.62 641.75" stroke="hsl(228.5, 77.2%, 51.5%)" stroke-width="1.5"></path><path d="M831.27 552.53L958.17 708.24" stroke="hsl(228.5, 77.2%, 51.5%)" stroke-width="1.5"></path><path d="M1149.58 245.77L1149.58 245.77" stroke="hsl(228.5, 77.2%, 51.5%)" stroke-width="1.5"></path><path d="M1149.58 245.77L1287.44 240.88" stroke="hsl(228.5, 77.2%, 51.5%)" stroke-width="1.5"></path><path d="M1149.58 245.77L1006.03 245.49" stroke="hsl(228.5, 77.2%, 51.5%)" stroke-width="1.5"></path><path d="M1149.58 245.77L1266.1 337.85" stroke="hsl(228.5, 77.2%, 51.5%)" stroke-width="1.5"></path><path d="M1254.15 -49.14L1254.15 -49.14" stroke="hsl(228.5, 77.2%, 51.5%)" stroke-width="1.5"></path><path d="M1254.15 -49.14L1293.1 109.27" stroke="hsl(228.5, 77.2%, 51.5%)" stroke-width="1.5"></path><path d="M1254.15 -49.14L1389.87 43.7" stroke="hsl(228.5, 77.2%, 51.5%)" stroke-width="1.5"></path><path d="M1406.08 239.68L1406.08 239.68" stroke="hsl(228.5, 77.2%, 51.5%)" stroke-width="1.5"></path><path d="M1406.08 239.68L1287.44 240.88" stroke="hsl(228.5, 77.2%, 51.5%)" stroke-width="1.5"></path><path d="M1406.08 239.68L1421.45 398.5" stroke="hsl(228.5, 77.2%, 51.5%)" stroke-width="1.5"></path><path d="M1421.45 398.5L1421.45 398.5" stroke="hsl(228.5, 77.2%, 51.5%)" stroke-width="1.5"></path><path d="M1421.45 398.5L1414.47 501.99" stroke="hsl(228.5, 77.2%, 51.5%)" stroke-width="1.5"></path><path d="M1421.45 398.5L1556.72 349.55" stroke="hsl(228.5, 77.2%, 51.5%)" stroke-width="1.5"></path><path d="M1421.45 398.5L1296.88 488.42" stroke="hsl(228.5, 77.2%, 51.5%)" stroke-width="1.5"></path><path d="M1581.69 507.42L1581.69 507.42" stroke="hsl(228.5, 77.2%, 51.5%)" stroke-width="1.5"></path><path d="M1581.69 507.42L1570.02 647.92" stroke="hsl(228.5, 77.2%, 51.5%)" stroke-width="1.5"></path><path d="M1581.69 507.42L1556.72 349.55" stroke="hsl(228.5, 77.2%, 51.5%)" stroke-width="1.5"></path><path d="M1581.69 507.42L1414.47 501.99" stroke="hsl(228.5, 77.2%, 51.5%)" stroke-width="1.5"></path><path d="M1581.69 507.42L1421.45 398.5" stroke="hsl(228.5, 77.2%, 51.5%)" stroke-width="1.5"></path><path d="M1581.69 507.42L1424.7 683.36" stroke="hsl(228.5, 77.2%, 51.5%)" stroke-width="1.5"></path><path d="M1581.69 507.42L1600.78 239.24" stroke="hsl(228.5, 77.2%, 51.5%)" stroke-width="1.5"></path><path d="M-99.64 547.46L-99.64 547.46" stroke="hsl(228.5, 77.2%, 51.5%)" stroke-width="1.5"></path><path d="M-99.64 547.46L109.37 698.49" stroke="hsl(228.5, 77.2%, 51.5%)" stroke-width="1.5"></path><path d="M109.37 698.49L109.37 698.49" stroke="hsl(228.5, 77.2%, 51.5%)" stroke-width="1.5"></path><path d="M109.37 698.49L205.82 528.59" stroke="hsl(228.5, 77.2%, 51.5%)" stroke-width="1.5"></path><path d="M109.37 698.49L362.58 685.06" stroke="hsl(228.5, 77.2%, 51.5%)" stroke-width="1.5"></path><path d="M205.82 528.59L205.82 528.59" stroke="hsl(228.5, 77.2%, 51.5%)" stroke-width="1.5"></path><path d="M205.82 528.59L362.58 685.06" stroke="hsl(228.5, 77.2%, 51.5%)" stroke-width="1.5"></path><path d="M362.58 685.06L362.58 685.06" stroke="hsl(228.5, 77.2%, 51.5%)" stroke-width="1.5"></path><path d="M362.58 685.06L515.23 650.43" stroke="hsl(228.5, 77.2%, 51.5%)" stroke-width="1.5"></path><path d="M362.58 685.06L502.98 540.37" stroke="hsl(228.5, 77.2%, 51.5%)" stroke-width="1.5"></path><path d="M497.9 405.27L497.9 405.27" stroke="hsl(228.5, 77.2%, 51.5%)" stroke-width="1.5"></path><path d="M497.9 405.27L502.98 540.37" stroke="hsl(228.5, 77.2%, 51.5%)" stroke-width="1.5"></path><path d="M502.98 540.37L502.98 540.37" stroke="hsl(228.5, 77.2%, 51.5%)" stroke-width="1.5"></path><path d="M502.98 540.37L515.23 650.43" stroke="hsl(228.5, 77.2%, 51.5%)" stroke-width="1.5"></path><path d="M515.23 650.43L515.23 650.43" stroke="hsl(228.5, 77.2%, 51.5%)" stroke-width="1.5"></path><path d="M515.23 650.43L674.62 641.75" stroke="hsl(228.5, 77.2%, 51.5%)" stroke-width="1.5"></path><path d="M689.99 487.96L689.99 487.96" stroke="hsl(228.5, 77.2%, 51.5%)" stroke-width="1.5"></path><path d="M689.99 487.96L674.62 641.75" stroke="hsl(228.5, 77.2%, 51.5%)" stroke-width="1.5"></path><path d="M689.99 487.96L502.98 540.37" stroke="hsl(228.5, 77.2%, 51.5%)" stroke-width="1.5"></path><path d="M689.99 487.96L838 345.59" stroke="hsl(228.5, 77.2%, 51.5%)" stroke-width="1.5"></path><path d="M689.99 487.96L497.9 405.27" stroke="hsl(228.5, 77.2%, 51.5%)" stroke-width="1.5"></path><path d="M674.62 641.75L674.62 641.75" stroke="hsl(228.5, 77.2%, 51.5%)" stroke-width="1.5"></path><path d="M838 345.59L838 345.59" stroke="hsl(228.5, 77.2%, 51.5%)" stroke-width="1.5"></path><path d="M838 345.59L961.46 381.73" stroke="hsl(228.5, 77.2%, 51.5%)" stroke-width="1.5"></path><path d="M838 345.59L1006.03 245.49" stroke="hsl(228.5, 77.2%, 51.5%)" stroke-width="1.5"></path><path d="M838 345.59L831.27 552.53" stroke="hsl(228.5, 77.2%, 51.5%)" stroke-width="1.5"></path><path d="M838 345.59L970.91 524.01" stroke="hsl(228.5, 77.2%, 51.5%)" stroke-width="1.5"></path><path d="M838 345.59L1096.53 410.65" stroke="hsl(228.5, 77.2%, 51.5%)" stroke-width="1.5"></path><path d="M1006.03 245.49L1006.03 245.49" stroke="hsl(228.5, 77.2%, 51.5%)" stroke-width="1.5"></path><path d="M1006.03 245.49L961.46 381.73" stroke="hsl(228.5, 77.2%, 51.5%)" stroke-width="1.5"></path><path d="M1006.03 245.49L1096.53 410.65" stroke="hsl(228.5, 77.2%, 51.5%)" stroke-width="1.5"></path><path d="M961.46 381.73L961.46 381.73" stroke="hsl(228.5, 77.2%, 51.5%)" stroke-width="1.5"></path><path d="M970.91 524.01L970.91 524.01" stroke="hsl(228.5, 77.2%, 51.5%)" stroke-width="1.5"></path><path d="M970.91 524.01L1110.19 494.42" stroke="hsl(228.5, 77.2%, 51.5%)" stroke-width="1.5"></path><path d="M970.91 524.01L961.46 381.73" stroke="hsl(228.5, 77.2%, 51.5%)" stroke-width="1.5"></path><path d="M970.91 524.01L1096.53 410.65" stroke="hsl(228.5, 77.2%, 51.5%)" stroke-width="1.5"></path><path d="M970.91 524.01L958.17 708.24" stroke="hsl(228.5, 77.2%, 51.5%)" stroke-width="1.5"></path><path d="M970.91 524.01L1094.69 688.26" stroke="hsl(228.5, 77.2%, 51.5%)" stroke-width="1.5"></path><path d="M958.17 708.24L958.17 708.24" stroke="hsl(228.5, 77.2%, 51.5%)" stroke-width="1.5"></path><path d="M958.17 708.24L1094.69 688.26" stroke="hsl(228.5, 77.2%, 51.5%)" stroke-width="1.5"></path><path d="M1096.53 410.65L1096.53 410.65" stroke="hsl(228.5, 77.2%, 51.5%)" stroke-width="1.5"></path><path d="M1096.53 410.65L1110.19 494.42" stroke="hsl(228.5, 77.2%, 51.5%)" stroke-width="1.5"></path><path d="M1096.53 410.65L961.46 381.73" stroke="hsl(228.5, 77.2%, 51.5%)" stroke-width="1.5"></path><path d="M1110.19 494.42L1110.19 494.42" stroke="hsl(228.5, 77.2%, 51.5%)" stroke-width="1.5"></path><path d="M1110.19 494.42L961.46 381.73" stroke="hsl(228.5, 77.2%, 51.5%)" stroke-width="1.5"></path><path d="M1110.19 494.42L1296.88 488.42" stroke="hsl(228.5, 77.2%, 51.5%)" stroke-width="1.5"></path><path d="M1110.19 494.42L1094.69 688.26" stroke="hsl(228.5, 77.2%, 51.5%)" stroke-width="1.5"></path><path d="M1094.69 688.26L1094.69 688.26" stroke="hsl(228.5, 77.2%, 51.5%)" stroke-width="1.5"></path><path d="M1094.69 688.26L1271.45 674.17" stroke="hsl(228.5, 77.2%, 51.5%)" stroke-width="1.5"></path><path d="M1293.1 109.27L1293.1 109.27" stroke="hsl(228.5, 77.2%, 51.5%)" stroke-width="1.5"></path><path d="M1293.1 109.27L1389.87 43.7" stroke="hsl(228.5, 77.2%, 51.5%)" stroke-width="1.5"></path><path d="M1293.1 109.27L1287.44 240.88" stroke="hsl(228.5, 77.2%, 51.5%)" stroke-width="1.5"></path><path d="M1287.44 240.88L1287.44 240.88" stroke="hsl(228.5, 77.2%, 51.5%)" stroke-width="1.5"></path><path d="M1287.44 240.88L1266.1 337.85" stroke="hsl(228.5, 77.2%, 51.5%)" stroke-width="1.5"></path><path d="M1266.1 337.85L1266.1 337.85" stroke="hsl(228.5, 77.2%, 51.5%)" stroke-width="1.5"></path><path d="M1266.1 337.85L1296.88 488.42" stroke="hsl(228.5, 77.2%, 51.5%)" stroke-width="1.5"></path><path d="M1266.1 337.85L1421.45 398.5" stroke="hsl(228.5, 77.2%, 51.5%)" stroke-width="1.5"></path><path d="M1296.88 488.42L1296.88 488.42" stroke="hsl(228.5, 77.2%, 51.5%)" stroke-width="1.5"></path><path d="M1296.88 488.42L1414.47 501.99" stroke="hsl(228.5, 77.2%, 51.5%)" stroke-width="1.5"></path><path d="M1296.88 488.42L1271.45 674.17" stroke="hsl(228.5, 77.2%, 51.5%)" stroke-width="1.5"></path><path d="M1296.88 488.42L1096.53 410.65" stroke="hsl(228.5, 77.2%, 51.5%)" stroke-width="1.5"></path><path d="M1271.45 674.17L1271.45 674.17" stroke="hsl(228.5, 77.2%, 51.5%)" stroke-width="1.5"></path><path d="M1271.45 674.17L1424.7 683.36" stroke="hsl(228.5, 77.2%, 51.5%)" stroke-width="1.5"></path><path d="M1271.45 674.17L1414.47 501.99" stroke="hsl(228.5, 77.2%, 51.5%)" stroke-width="1.5"></path><path d="M1271.45 674.17L1110.19 494.42" stroke="hsl(228.5, 77.2%, 51.5%)" stroke-width="1.5"></path><path d="M1426.77 -50.94L1426.77 -50.94" stroke="hsl(228.5, 77.2%, 51.5%)" stroke-width="1.5"></path><path d="M1426.77 -50.94L1389.87 43.7" stroke="hsl(228.5, 77.2%, 51.5%)" stroke-width="1.5"></path><path d="M1426.77 -50.94L1254.15 -49.14" stroke="hsl(228.5, 77.2%, 51.5%)" stroke-width="1.5"></path><path d="M1426.77 -50.94L1592.48 -103.27" stroke="hsl(228.5, 77.2%, 51.5%)" stroke-width="1.5"></path><path d="M1389.87 43.7L1389.87 43.7" stroke="hsl(228.5, 77.2%, 51.5%)" stroke-width="1.5"></path><path d="M1389.87 43.7L1406.08 239.68" stroke="hsl(228.5, 77.2%, 51.5%)" stroke-width="1.5"></path><path d="M1414.47 501.99L1414.47 501.99" stroke="hsl(228.5, 77.2%, 51.5%)" stroke-width="1.5"></path><path d="M1414.47 501.99L1424.7 683.36" stroke="hsl(228.5, 77.2%, 51.5%)" stroke-width="1.5"></path><path d="M1424.7 683.36L1424.7 683.36" stroke="hsl(228.5, 77.2%, 51.5%)" stroke-width="1.5"></path><path d="M1424.7 683.36L1570.02 647.92" stroke="hsl(228.5, 77.2%, 51.5%)" stroke-width="1.5"></path><path d="M1592.48 -103.27L1592.48 -103.27" stroke="hsl(228.5, 77.2%, 51.5%)" stroke-width="1.5"></path><path d="M1592.48 -103.27L1585.24 84.52" stroke="hsl(228.5, 77.2%, 51.5%)" stroke-width="1.5"></path><path d="M1585.24 84.52L1585.24 84.52" stroke="hsl(228.5, 77.2%, 51.5%)" stroke-width="1.5"></path><path d="M1585.24 84.52L1600.78 239.24" stroke="hsl(228.5, 77.2%, 51.5%)" stroke-width="1.5"></path><path d="M1600.78 239.24L1600.78 239.24" stroke="hsl(228.5, 77.2%, 51.5%)" stroke-width="1.5"></path><path d="M1600.78 239.24L1556.72 349.55" stroke="hsl(228.5, 77.2%, 51.5%)" stroke-width="1.5"></path><path d="M1556.72 349.55L1556.72 349.55" stroke="hsl(228.5, 77.2%, 51.5%)" stroke-width="1.5"></path><path d="M1556.72 349.55L1406.08 239.68" stroke="hsl(228.5, 77.2%, 51.5%)" stroke-width="1.5"></path><path d="M1556.72 349.55L1414.47 501.99" stroke="hsl(228.5, 77.2%, 51.5%)" stroke-width="1.5"></path><path d="M1556.72 349.55L1585.24 84.52" stroke="hsl(228.5, 77.2%, 51.5%)" stroke-width="1.5"></path><path d="M1570.02 647.92L1570.02 647.92" stroke="hsl(228.5, 77.2%, 51.5%)" stroke-width="1.5"></path><path d="M1570.02 647.92L1414.47 501.99" stroke="hsl(228.5, 77.2%, 51.5%)" stroke-width="1.5"></path><path d="M1570.02 647.92L1421.45 398.5" stroke="hsl(228.5, 77.2%, 51.5%)" stroke-width="1.5"></path><circle r="25" cx="-69.57" cy="669.22" fill="url(&quot;#SvgjsRadialGradient1042&quot;)"></circle><circle r="25" cx="229.13" cy="641.08" fill="url(&quot;#SvgjsRadialGradient1042&quot;)"></circle><circle r="25" cx="388.53" cy="491.12" fill="url(&quot;#SvgjsRadialGradient1042&quot;)"></circle><circle r="25" cx="831.27" cy="552.53" fill="url(&quot;#SvgjsRadialGradient1042&quot;)"></circle><circle r="25" cx="1149.58" cy="245.77" fill="url(&quot;#SvgjsRadialGradient1042&quot;)"></circle><circle r="25" cx="1254.15" cy="-49.14" fill="url(&quot;#SvgjsRadialGradient1042&quot;)"></circle><circle r="25" cx="1406.08" cy="239.68" fill="url(&quot;#SvgjsRadialGradient1042&quot;)"></circle><circle r="25" cx="1421.45" cy="398.5" fill="url(&quot;#SvgjsRadialGradient1042&quot;)"></circle><circle r="25" cx="1581.69" cy="507.42" fill="url(&quot;#SvgjsRadialGradient1042&quot;)"></circle><circle r="5" cx="-99.64" cy="547.46" fill="#8b9ad9"></circle><circle r="5" cx="109.37" cy="698.49" fill="#8b9ad9"></circle><circle r="5" cx="205.82" cy="528.59" fill="#8b9ad9"></circle><circle r="5" cx="362.58" cy="685.06" fill="#8b9ad9"></circle><circle r="5" cx="497.9" cy="405.27" fill="#8b9ad9"></circle><circle r="5" cx="502.98" cy="540.37" fill="#8b9ad9"></circle><circle r="5" cx="515.23" cy="650.43" fill="#8b9ad9"></circle><circle r="5" cx="689.99" cy="487.96" fill="#8b9ad9"></circle><circle r="5" cx="674.62" cy="641.75" fill="#8b9ad9"></circle><circle r="5" cx="838" cy="345.59" fill="#8b9ad9"></circle><circle r="5" cx="1006.03" cy="245.49" fill="#8b9ad9"></circle><circle r="5" cx="961.46" cy="381.73" fill="#8b9ad9"></circle><circle r="5" cx="970.91" cy="524.01" fill="#8b9ad9"></circle><circle r="5" cx="958.17" cy="708.24" fill="#8b9ad9"></circle><circle r="5" cx="1096.53" cy="410.65" fill="#8b9ad9"></circle><circle r="5" cx="1110.19" cy="494.42" fill="#8b9ad9"></circle><circle r="5" cx="1094.69" cy="688.26" fill="#8b9ad9"></circle><circle r="5" cx="1293.1" cy="109.27" fill="#8b9ad9"></circle><circle r="5" cx="1287.44" cy="240.88" fill="#8b9ad9"></circle><circle r="5" cx="1266.1" cy="337.85" fill="#8b9ad9"></circle><circle r="5" cx="1296.88" cy="488.42" fill="#8b9ad9"></circle><circle r="5" cx="1271.45" cy="674.17" fill="#8b9ad9"></circle><circle r="5" cx="1426.77" cy="-50.94" fill="#8b9ad9"></circle><circle r="5" cx="1389.87" cy="43.7" fill="#8b9ad9"></circle><circle r="5" cx="1414.47" cy="501.99" fill="#8b9ad9"></circle><circle r="5" cx="1424.7" cy="683.36" fill="#8b9ad9"></circle><circle r="5" cx="1592.48" cy="-103.27" fill="#8b9ad9"></circle><circle r="5" cx="1585.24" cy="84.52" fill="#8b9ad9"></circle><circle r="5" cx="1600.78" cy="239.24" fill="#8b9ad9"></circle><circle r="5" cx="1556.72" cy="349.55" fill="#8b9ad9"></circle><circle r="5" cx="1570.02" cy="647.92" fill="#8b9ad9"></circle></g><defs><mask id="SvgjsMask1041"><rect width="1440" height="560" fill="#ffffff"></rect></mask><radialGradient id="SvgjsRadialGradient1042"><stop stop-color="#ffffff" offset="0.1"></stop><stop stop-color="#1735b3" offset="0.2"></stop><stop stop-color="rgba(23, 53, 179, 0)" offset="1"></stop></radialGradient></defs></svg>