<svg xmlns="http://www.w3.org/2000/svg" version="1.1" xmlns:xlink="http://www.w3.org/1999/xlink" xmlns:svgjs="http://svgjs.dev/svgjs" width="1440" height="560" preserveAspectRatio="none" viewBox="0 0 1440 560"><g mask="url(&quot;#SvgjsMask1031&quot;)" fill="none"><path d="M-39.03 408.38L-39.03 408.38" stroke="#132e65" stroke-width="1.5"></path><path d="M-39.03 408.38L102.22 399.92" stroke="#132e65" stroke-width="1.5"></path><path d="M-39.03 408.38L-45.88 552.96" stroke="#132e65" stroke-width="1.5"></path><path d="M-39.03 408.38L87.49 529.09" stroke="#132e65" stroke-width="1.5"></path><path d="M-39.03 408.38L-75.72 651.27" stroke="#132e65" stroke-width="1.5"></path><path d="M-39.03 408.38L210.09 337.68" stroke="#132e65" stroke-width="1.5"></path><path d="M-39.03 408.38L242.32 652.48" stroke="#132e65" stroke-width="1.5"></path><path d="M-45.88 552.96L-45.88 552.96" stroke="#132e65" stroke-width="1.5"></path><path d="M-45.88 552.96L-75.72 651.27" stroke="#132e65" stroke-width="1.5"></path><path d="M-45.88 552.96L87.49 529.09" stroke="#132e65" stroke-width="1.5"></path><path d="M-45.88 552.96L102.22 399.92" stroke="#132e65" stroke-width="1.5"></path><path d="M-45.88 552.96L242.32 652.48" stroke="#132e65" stroke-width="1.5"></path><path d="M-75.72 651.27L-75.72 651.27" stroke="#132e65" stroke-width="1.5"></path><path d="M-75.72 651.27L87.49 529.09" stroke="#132e65" stroke-width="1.5"></path><path d="M-75.72 651.27L102.22 399.92" stroke="#132e65" stroke-width="1.5"></path><path d="M102.22 399.92L102.22 399.92" stroke="#132e65" stroke-width="1.5"></path><path d="M102.22 399.92L210.09 337.68" stroke="#132e65" stroke-width="1.5"></path><path d="M102.22 399.92L87.49 529.09" stroke="#132e65" stroke-width="1.5"></path><path d="M102.22 399.92L345.51 347.6" stroke="#132e65" stroke-width="1.5"></path><path d="M87.49 529.09L87.49 529.09" stroke="#132e65" stroke-width="1.5"></path><path d="M210.09 337.68L210.09 337.68" stroke="#132e65" stroke-width="1.5"></path><path d="M210.09 337.68L345.51 347.6" stroke="#132e65" stroke-width="1.5"></path><path d="M242.32 652.48L242.32 652.48" stroke="#132e65" stroke-width="1.5"></path><path d="M242.32 652.48L354.76 692.86" stroke="#132e65" stroke-width="1.5"></path><path d="M242.32 652.48L344.67 523.53" stroke="#132e65" stroke-width="1.5"></path><path d="M242.32 652.48L87.49 529.09" stroke="#132e65" stroke-width="1.5"></path><path d="M242.32 652.48L519.17 671.98" stroke="#132e65" stroke-width="1.5"></path><path d="M242.32 652.48L102.22 399.92" stroke="#132e65" stroke-width="1.5"></path><path d="M345.51 347.6L345.51 347.6" stroke="#132e65" stroke-width="1.5"></path><path d="M345.51 347.6L503.97 404.31" stroke="#132e65" stroke-width="1.5"></path><path d="M344.67 523.53L344.67 523.53" stroke="#132e65" stroke-width="1.5"></path><path d="M344.67 523.53L509.94 492.98" stroke="#132e65" stroke-width="1.5"></path><path d="M344.67 523.53L354.76 692.86" stroke="#132e65" stroke-width="1.5"></path><path d="M354.76 692.86L354.76 692.86" stroke="#132e65" stroke-width="1.5"></path><path d="M354.76 692.86L519.17 671.98" stroke="#132e65" stroke-width="1.5"></path><path d="M503.97 404.31L503.97 404.31" stroke="#132e65" stroke-width="1.5"></path><path d="M503.97 404.31L509.94 492.98" stroke="#132e65" stroke-width="1.5"></path><path d="M503.97 404.31L672.45 353.95" stroke="#132e65" stroke-width="1.5"></path><path d="M503.97 404.31L344.67 523.53" stroke="#132e65" stroke-width="1.5"></path><path d="M503.97 404.31L678.28 517.56" stroke="#132e65" stroke-width="1.5"></path><path d="M503.97 404.31L668.77 252.51" stroke="#132e65" stroke-width="1.5"></path><path d="M509.94 492.98L509.94 492.98" stroke="#132e65" stroke-width="1.5"></path><path d="M509.94 492.98L678.28 517.56" stroke="#132e65" stroke-width="1.5"></path><path d="M519.17 671.98L519.17 671.98" stroke="#132e65" stroke-width="1.5"></path><path d="M519.17 671.98L671.27 675.45" stroke="#132e65" stroke-width="1.5"></path><path d="M519.17 671.98L509.94 492.98" stroke="#132e65" stroke-width="1.5"></path><path d="M519.17 671.98L678.28 517.56" stroke="#132e65" stroke-width="1.5"></path><path d="M519.17 671.98L344.67 523.53" stroke="#132e65" stroke-width="1.5"></path><path d="M519.17 671.98L503.97 404.31" stroke="#132e65" stroke-width="1.5"></path><path d="M668.77 252.51L668.77 252.51" stroke="#132e65" stroke-width="1.5"></path><path d="M668.77 252.51L672.45 353.95" stroke="#132e65" stroke-width="1.5"></path><path d="M668.77 252.51L838.32 211.01" stroke="#132e65" stroke-width="1.5"></path><path d="M668.77 252.51L834.58 367.16" stroke="#132e65" stroke-width="1.5"></path><path d="M668.77 252.51L678.28 517.56" stroke="#132e65" stroke-width="1.5"></path><path d="M668.77 252.51L789.6 507.14" stroke="#132e65" stroke-width="1.5"></path><path d="M672.45 353.95L672.45 353.95" stroke="#132e65" stroke-width="1.5"></path><path d="M672.45 353.95L834.58 367.16" stroke="#132e65" stroke-width="1.5"></path><path d="M672.45 353.95L678.28 517.56" stroke="#132e65" stroke-width="1.5"></path><path d="M672.45 353.95L789.6 507.14" stroke="#132e65" stroke-width="1.5"></path><path d="M672.45 353.95L509.94 492.98" stroke="#132e65" stroke-width="1.5"></path><path d="M678.28 517.56L678.28 517.56" stroke="#132e65" stroke-width="1.5"></path><path d="M678.28 517.56L789.6 507.14" stroke="#132e65" stroke-width="1.5"></path><path d="M678.28 517.56L671.27 675.45" stroke="#132e65" stroke-width="1.5"></path><path d="M671.27 675.45L671.27 675.45" stroke="#132e65" stroke-width="1.5"></path><path d="M671.27 675.45L818.85 685.43" stroke="#132e65" stroke-width="1.5"></path><path d="M838.32 211.01L838.32 211.01" stroke="#132e65" stroke-width="1.5"></path><path d="M838.32 211.01L983.44 260.6" stroke="#132e65" stroke-width="1.5"></path><path d="M838.32 211.01L834.58 367.16" stroke="#132e65" stroke-width="1.5"></path><path d="M838.32 211.01L947.68 59.55" stroke="#132e65" stroke-width="1.5"></path><path d="M838.32 211.01L672.45 353.95" stroke="#132e65" stroke-width="1.5"></path><path d="M834.58 367.16L834.58 367.16" stroke="#132e65" stroke-width="1.5"></path><path d="M834.58 367.16L789.6 507.14" stroke="#132e65" stroke-width="1.5"></path><path d="M834.58 367.16L991.63 382.45" stroke="#132e65" stroke-width="1.5"></path><path d="M789.6 507.14L789.6 507.14" stroke="#132e65" stroke-width="1.5"></path><path d="M789.6 507.14L818.85 685.43" stroke="#132e65" stroke-width="1.5"></path><path d="M818.85 685.43L818.85 685.43" stroke="#132e65" stroke-width="1.5"></path><path d="M818.85 685.43L978.38 675.99" stroke="#132e65" stroke-width="1.5"></path><path d="M818.85 685.43L678.28 517.56" stroke="#132e65" stroke-width="1.5"></path><path d="M818.85 685.43L519.17 671.98" stroke="#132e65" stroke-width="1.5"></path><path d="M947.68 59.55L947.68 59.55" stroke="#132e65" stroke-width="1.5"></path><path d="M947.68 59.55L1127.51 79.99" stroke="#132e65" stroke-width="1.5"></path><path d="M947.68 59.55L983.44 260.6" stroke="#132e65" stroke-width="1.5"></path><path d="M947.68 59.55L1091.99 226.96" stroke="#132e65" stroke-width="1.5"></path><path d="M947.68 59.55L1119.39 -83.52" stroke="#132e65" stroke-width="1.5"></path><path d="M947.68 59.55L1271.13 65.81" stroke="#132e65" stroke-width="1.5"></path><path d="M983.44 260.6L983.44 260.6" stroke="#132e65" stroke-width="1.5"></path><path d="M983.44 260.6L1091.99 226.96" stroke="#132e65" stroke-width="1.5"></path><path d="M983.44 260.6L991.63 382.45" stroke="#132e65" stroke-width="1.5"></path><path d="M991.63 382.45L991.63 382.45" stroke="#132e65" stroke-width="1.5"></path><path d="M991.63 382.45L1114.77 404.42" stroke="#132e65" stroke-width="1.5"></path><path d="M991.63 382.45L1091.99 226.96" stroke="#132e65" stroke-width="1.5"></path><path d="M991.63 382.45L838.32 211.01" stroke="#132e65" stroke-width="1.5"></path><path d="M978.38 675.99L978.38 675.99" stroke="#132e65" stroke-width="1.5"></path><path d="M978.38 675.99L1156.53 638.24" stroke="#132e65" stroke-width="1.5"></path><path d="M978.38 675.99L789.6 507.14" stroke="#132e65" stroke-width="1.5"></path><path d="M978.38 675.99L991.63 382.45" stroke="#132e65" stroke-width="1.5"></path><path d="M978.38 675.99L1271.14 706.56" stroke="#132e65" stroke-width="1.5"></path><path d="M978.38 675.99L1114.77 404.42" stroke="#132e65" stroke-width="1.5"></path><path d="M1119.39 -83.52L1119.39 -83.52" stroke="#132e65" stroke-width="1.5"></path><path d="M1119.39 -83.52L1269.88 -51.03" stroke="#132e65" stroke-width="1.5"></path><path d="M1119.39 -83.52L1127.51 79.99" stroke="#132e65" stroke-width="1.5"></path><path d="M1119.39 -83.52L1271.13 65.81" stroke="#132e65" stroke-width="1.5"></path><path d="M1127.51 79.99L1127.51 79.99" stroke="#132e65" stroke-width="1.5"></path><path d="M1127.51 79.99L1271.13 65.81" stroke="#132e65" stroke-width="1.5"></path><path d="M1127.51 79.99L1091.99 226.96" stroke="#132e65" stroke-width="1.5"></path><path d="M1091.99 226.96L1091.99 226.96" stroke="#132e65" stroke-width="1.5"></path><path d="M1091.99 226.96L1114.77 404.42" stroke="#132e65" stroke-width="1.5"></path><path d="M1114.77 404.42L1114.77 404.42" stroke="#132e65" stroke-width="1.5"></path><path d="M1156.53 638.24L1156.53 638.24" stroke="#132e65" stroke-width="1.5"></path><path d="M1156.53 638.24L1271.14 706.56" stroke="#132e65" stroke-width="1.5"></path><path d="M1156.53 638.24L1257.13 542.73" stroke="#132e65" stroke-width="1.5"></path><path d="M1156.53 638.24L1114.77 404.42" stroke="#132e65" stroke-width="1.5"></path><path d="M1156.53 638.24L1435.51 669.56" stroke="#132e65" stroke-width="1.5"></path><path d="M1269.88 -51.03L1269.88 -51.03" stroke="#132e65" stroke-width="1.5"></path><path d="M1269.88 -51.03L1271.13 65.81" stroke="#132e65" stroke-width="1.5"></path><path d="M1269.88 -51.03L1430.92 -44.24" stroke="#132e65" stroke-width="1.5"></path><path d="M1269.88 -51.03L1389.32 67.65" stroke="#132e65" stroke-width="1.5"></path><path d="M1269.88 -51.03L1127.51 79.99" stroke="#132e65" stroke-width="1.5"></path><path d="M1269.88 -51.03L1312.04 196.76" stroke="#132e65" stroke-width="1.5"></path><path d="M1271.13 65.81L1271.13 65.81" stroke="#132e65" stroke-width="1.5"></path><path d="M1271.13 65.81L1389.32 67.65" stroke="#132e65" stroke-width="1.5"></path><path d="M1271.13 65.81L1312.04 196.76" stroke="#132e65" stroke-width="1.5"></path><path d="M1312.04 196.76L1312.04 196.76" stroke="#132e65" stroke-width="1.5"></path><path d="M1312.04 196.76L1413.34 208.38" stroke="#132e65" stroke-width="1.5"></path><path d="M1293.77 349.46L1293.77 349.46" stroke="#132e65" stroke-width="1.5"></path><path d="M1293.77 349.46L1407.27 412.04" stroke="#132e65" stroke-width="1.5"></path><path d="M1293.77 349.46L1312.04 196.76" stroke="#132e65" stroke-width="1.5"></path><path d="M1293.77 349.46L1413.34 208.38" stroke="#132e65" stroke-width="1.5"></path><path d="M1257.13 542.73L1257.13 542.73" stroke="#132e65" stroke-width="1.5"></path><path d="M1257.13 542.73L1271.14 706.56" stroke="#132e65" stroke-width="1.5"></path><path d="M1257.13 542.73L1293.77 349.46" stroke="#132e65" stroke-width="1.5"></path><path d="M1257.13 542.73L1114.77 404.42" stroke="#132e65" stroke-width="1.5"></path><path d="M1271.14 706.56L1271.14 706.56" stroke="#132e65" stroke-width="1.5"></path><path d="M1430.92 -44.24L1430.92 -44.24" stroke="#132e65" stroke-width="1.5"></path><path d="M1430.92 -44.24L1389.32 67.65" stroke="#132e65" stroke-width="1.5"></path><path d="M1430.92 -44.24L1560.03 -48.12" stroke="#132e65" stroke-width="1.5"></path><path d="M1389.32 67.65L1389.32 67.65" stroke="#132e65" stroke-width="1.5"></path><path d="M1389.32 67.65L1413.34 208.38" stroke="#132e65" stroke-width="1.5"></path><path d="M1413.34 208.38L1413.34 208.38" stroke="#132e65" stroke-width="1.5"></path><path d="M1407.27 412.04L1407.27 412.04" stroke="#132e65" stroke-width="1.5"></path><path d="M1407.27 412.04L1460.76 549.17" stroke="#132e65" stroke-width="1.5"></path><path d="M1407.27 412.04L1559.22 507.85" stroke="#132e65" stroke-width="1.5"></path><path d="M1407.27 412.04L1257.13 542.73" stroke="#132e65" stroke-width="1.5"></path><path d="M1407.27 412.04L1413.34 208.38" stroke="#132e65" stroke-width="1.5"></path><path d="M1460.76 549.17L1460.76 549.17" stroke="#132e65" stroke-width="1.5"></path><path d="M1460.76 549.17L1559.22 507.85" stroke="#132e65" stroke-width="1.5"></path><path d="M1460.76 549.17L1435.51 669.56" stroke="#132e65" stroke-width="1.5"></path><path d="M1435.51 669.56L1435.51 669.56" stroke="#132e65" stroke-width="1.5"></path><path d="M1435.51 669.56L1578.36 696.61" stroke="#132e65" stroke-width="1.5"></path><path d="M1435.51 669.56L1271.14 706.56" stroke="#132e65" stroke-width="1.5"></path><path d="M1435.51 669.56L1559.22 507.85" stroke="#132e65" stroke-width="1.5"></path><path d="M1435.51 669.56L1257.13 542.73" stroke="#132e65" stroke-width="1.5"></path><path d="M1435.51 669.56L1407.27 412.04" stroke="#132e65" stroke-width="1.5"></path><path d="M1560.03 -48.12L1560.03 -48.12" stroke="#132e65" stroke-width="1.5"></path><path d="M1560.03 -48.12L1567.13 71.57" stroke="#132e65" stroke-width="1.5"></path><path d="M1567.13 71.57L1567.13 71.57" stroke="#132e65" stroke-width="1.5"></path><path d="M1567.13 71.57L1606.88 236" stroke="#132e65" stroke-width="1.5"></path><path d="M1567.13 71.57L1389.32 67.65" stroke="#132e65" stroke-width="1.5"></path><path d="M1567.13 71.57L1430.92 -44.24" stroke="#132e65" stroke-width="1.5"></path><path d="M1606.88 236L1606.88 236" stroke="#132e65" stroke-width="1.5"></path><path d="M1606.88 236L1413.34 208.38" stroke="#132e65" stroke-width="1.5"></path><path d="M1559.22 507.85L1559.22 507.85" stroke="#132e65" stroke-width="1.5"></path><path d="M1559.22 507.85L1578.36 696.61" stroke="#132e65" stroke-width="1.5"></path><path d="M1578.36 696.61L1578.36 696.61" stroke="#132e65" stroke-width="1.5"></path><path d="M1578.36 696.61L1460.76 549.17" stroke="#132e65" stroke-width="1.5"></path><circle r="5" cx="-39.03" cy="408.38" fill="#132e65"></circle><circle r="5" cx="-45.88" cy="552.96" fill="#132e65"></circle><circle r="5" cx="-75.72" cy="651.27" fill="#132e65"></circle><circle r="5" cx="102.22" cy="399.92" fill="#132e65"></circle><circle r="5" cx="87.49" cy="529.09" fill="#132e65"></circle><circle r="5" cx="210.09" cy="337.68" fill="#132e65"></circle><circle r="5" cx="242.32" cy="652.48" fill="#132e65"></circle><circle r="5" cx="345.51" cy="347.6" fill="#132e65"></circle><circle r="5" cx="344.67" cy="523.53" fill="#132e65"></circle><circle r="5" cx="354.76" cy="692.86" fill="#132e65"></circle><circle r="5" cx="503.97" cy="404.31" fill="#132e65"></circle><circle r="5" cx="509.94" cy="492.98" fill="#132e65"></circle><circle r="5" cx="519.17" cy="671.98" fill="#132e65"></circle><circle r="5" cx="668.77" cy="252.51" fill="#132e65"></circle><circle r="5" cx="672.45" cy="353.95" fill="#132e65"></circle><circle r="5" cx="678.28" cy="517.56" fill="#132e65"></circle><circle r="5" cx="671.27" cy="675.45" fill="#132e65"></circle><circle r="5" cx="838.32" cy="211.01" fill="#132e65"></circle><circle r="5" cx="834.58" cy="367.16" fill="#132e65"></circle><circle r="5" cx="789.6" cy="507.14" fill="#132e65"></circle><circle r="5" cx="818.85" cy="685.43" fill="#132e65"></circle><circle r="5" cx="947.68" cy="59.55" fill="#132e65"></circle><circle r="5" cx="983.44" cy="260.6" fill="#132e65"></circle><circle r="5" cx="991.63" cy="382.45" fill="#132e65"></circle><circle r="5" cx="978.38" cy="675.99" fill="#132e65"></circle><circle r="5" cx="1119.39" cy="-83.52" fill="#132e65"></circle><circle r="5" cx="1127.51" cy="79.99" fill="#132e65"></circle><circle r="5" cx="1091.99" cy="226.96" fill="#132e65"></circle><circle r="5" cx="1114.77" cy="404.42" fill="#132e65"></circle><circle r="5" cx="1156.53" cy="638.24" fill="#132e65"></circle><circle r="5" cx="1269.88" cy="-51.03" fill="#132e65"></circle><circle r="5" cx="1271.13" cy="65.81" fill="#132e65"></circle><circle r="5" cx="1312.04" cy="196.76" fill="#132e65"></circle><circle r="5" cx="1293.77" cy="349.46" fill="#132e65"></circle><circle r="5" cx="1257.13" cy="542.73" fill="#132e65"></circle><circle r="5" cx="1271.14" cy="706.56" fill="#132e65"></circle><circle r="5" cx="1430.92" cy="-44.24" fill="#132e65"></circle><circle r="5" cx="1389.32" cy="67.65" fill="#132e65"></circle><circle r="5" cx="1413.34" cy="208.38" fill="#132e65"></circle><circle r="5" cx="1407.27" cy="412.04" fill="#132e65"></circle><circle r="5" cx="1460.76" cy="549.17" fill="#132e65"></circle><circle r="5" cx="1435.51" cy="669.56" fill="#132e65"></circle><circle r="5" cx="1560.03" cy="-48.12" fill="#132e65"></circle><circle r="5" cx="1567.13" cy="71.57" fill="#132e65"></circle><circle r="5" cx="1606.88" cy="236" fill="#132e65"></circle><circle r="5" cx="1559.22" cy="507.85" fill="#132e65"></circle><circle r="5" cx="1578.36" cy="696.61" fill="#132e65"></circle><path d="M244.92 648.55L244.92 648.55" stroke="hsl(228.5, 77.2%, 51.5%)" stroke-width="1.5"></path><path d="M244.92 648.55L190.14 556.85" stroke="hsl(228.5, 77.2%, 51.5%)" stroke-width="1.5"></path><path d="M244.92 648.55L367.66 648" stroke="hsl(228.5, 77.2%, 51.5%)" stroke-width="1.5"></path><path d="M493.19 511.23L493.19 511.23" stroke="hsl(228.5, 77.2%, 51.5%)" stroke-width="1.5"></path><path d="M493.19 511.23L409.83 514.22" stroke="hsl(228.5, 77.2%, 51.5%)" stroke-width="1.5"></path><path d="M493.19 511.23L642.45 512.92" stroke="hsl(228.5, 77.2%, 51.5%)" stroke-width="1.5"></path><path d="M493.19 511.23L558 654.7" stroke="hsl(228.5, 77.2%, 51.5%)" stroke-width="1.5"></path><path d="M493.19 511.23L367.66 648" stroke="hsl(228.5, 77.2%, 51.5%)" stroke-width="1.5"></path><path d="M558 654.7L558 654.7" stroke="hsl(228.5, 77.2%, 51.5%)" stroke-width="1.5"></path><path d="M558 654.7L646.75 706.93" stroke="hsl(228.5, 77.2%, 51.5%)" stroke-width="1.5"></path><path d="M558 654.7L642.45 512.92" stroke="hsl(228.5, 77.2%, 51.5%)" stroke-width="1.5"></path><path d="M646.75 706.93L646.75 706.93" stroke="hsl(228.5, 77.2%, 51.5%)" stroke-width="1.5"></path><path d="M646.75 706.93L805.89 640.15" stroke="hsl(228.5, 77.2%, 51.5%)" stroke-width="1.5"></path><path d="M844.63 406.37L844.63 406.37" stroke="hsl(228.5, 77.2%, 51.5%)" stroke-width="1.5"></path><path d="M844.63 406.37L847.12 506.98" stroke="hsl(228.5, 77.2%, 51.5%)" stroke-width="1.5"></path><path d="M844.63 406.37L968.96 393.02" stroke="hsl(228.5, 77.2%, 51.5%)" stroke-width="1.5"></path><path d="M844.63 406.37L642.45 512.92" stroke="hsl(228.5, 77.2%, 51.5%)" stroke-width="1.5"></path><path d="M844.63 406.37L805.89 640.15" stroke="hsl(228.5, 77.2%, 51.5%)" stroke-width="1.5"></path><path d="M844.63 406.37L953.91 651.8" stroke="hsl(228.5, 77.2%, 51.5%)" stroke-width="1.5"></path><path d="M1156.35 97.07L1156.35 97.07" stroke="hsl(228.5, 77.2%, 51.5%)" stroke-width="1.5"></path><path d="M1156.35 97.07L1093.05 195.91" stroke="hsl(228.5, 77.2%, 51.5%)" stroke-width="1.5"></path><path d="M1156.35 97.07L1302.38 102.45" stroke="hsl(228.5, 77.2%, 51.5%)" stroke-width="1.5"></path><path d="M1156.35 97.07L1251.57 233.47" stroke="hsl(228.5, 77.2%, 51.5%)" stroke-width="1.5"></path><path d="M1156.35 97.07L1398.15 64.81" stroke="hsl(228.5, 77.2%, 51.5%)" stroke-width="1.5"></path><path d="M1416.14 -63.17L1416.14 -63.17" stroke="hsl(228.5, 77.2%, 51.5%)" stroke-width="1.5"></path><path d="M1416.14 -63.17L1398.15 64.81" stroke="hsl(228.5, 77.2%, 51.5%)" stroke-width="1.5"></path><path d="M1416.14 -63.17L1582.66 -107.77" stroke="hsl(228.5, 77.2%, 51.5%)" stroke-width="1.5"></path><path d="M1416.14 -63.17L1566.16 52.39" stroke="hsl(228.5, 77.2%, 51.5%)" stroke-width="1.5"></path><path d="M1445.93 562.17L1445.93 562.17" stroke="hsl(228.5, 77.2%, 51.5%)" stroke-width="1.5"></path><path d="M1445.93 562.17L1425.63 672.64" stroke="hsl(228.5, 77.2%, 51.5%)" stroke-width="1.5"></path><path d="M1445.93 562.17L1311.63 555.41" stroke="hsl(228.5, 77.2%, 51.5%)" stroke-width="1.5"></path><path d="M1445.93 562.17L1569.22 500.07" stroke="hsl(228.5, 77.2%, 51.5%)" stroke-width="1.5"></path><path d="M1445.93 562.17L1565.3 689.12" stroke="hsl(228.5, 77.2%, 51.5%)" stroke-width="1.5"></path><path d="M1445.93 562.17L1284.5 643.12" stroke="hsl(228.5, 77.2%, 51.5%)" stroke-width="1.5"></path><path d="M1569.22 500.07L1569.22 500.07" stroke="hsl(228.5, 77.2%, 51.5%)" stroke-width="1.5"></path><path d="M1569.22 500.07L1558.08 383.07" stroke="hsl(228.5, 77.2%, 51.5%)" stroke-width="1.5"></path><path d="M-83.24 514.23L-83.24 514.23" stroke="hsl(228.5, 77.2%, 51.5%)" stroke-width="1.5"></path><path d="M-83.24 514.23L49.09 510.52" stroke="hsl(228.5, 77.2%, 51.5%)" stroke-width="1.5"></path><path d="M-83.24 514.23L-111.2 705.21" stroke="hsl(228.5, 77.2%, 51.5%)" stroke-width="1.5"></path><path d="M-83.24 514.23L77.62 667.19" stroke="hsl(228.5, 77.2%, 51.5%)" stroke-width="1.5"></path><path d="M-83.24 514.23L190.14 556.85" stroke="hsl(228.5, 77.2%, 51.5%)" stroke-width="1.5"></path><path d="M-83.24 514.23L244.92 648.55" stroke="hsl(228.5, 77.2%, 51.5%)" stroke-width="1.5"></path><path d="M-111.2 705.21L-111.2 705.21" stroke="hsl(228.5, 77.2%, 51.5%)" stroke-width="1.5"></path><path d="M-111.2 705.21L77.62 667.19" stroke="hsl(228.5, 77.2%, 51.5%)" stroke-width="1.5"></path><path d="M-111.2 705.21L49.09 510.52" stroke="hsl(228.5, 77.2%, 51.5%)" stroke-width="1.5"></path><path d="M-111.2 705.21L190.14 556.85" stroke="hsl(228.5, 77.2%, 51.5%)" stroke-width="1.5"></path><path d="M-111.2 705.21L244.92 648.55" stroke="hsl(228.5, 77.2%, 51.5%)" stroke-width="1.5"></path><path d="M49.09 510.52L49.09 510.52" stroke="hsl(228.5, 77.2%, 51.5%)" stroke-width="1.5"></path><path d="M49.09 510.52L190.14 556.85" stroke="hsl(228.5, 77.2%, 51.5%)" stroke-width="1.5"></path><path d="M49.09 510.52L77.62 667.19" stroke="hsl(228.5, 77.2%, 51.5%)" stroke-width="1.5"></path><path d="M49.09 510.52L244.92 648.55" stroke="hsl(228.5, 77.2%, 51.5%)" stroke-width="1.5"></path><path d="M49.09 510.52L367.66 648" stroke="hsl(228.5, 77.2%, 51.5%)" stroke-width="1.5"></path><path d="M77.62 667.19L77.62 667.19" stroke="hsl(228.5, 77.2%, 51.5%)" stroke-width="1.5"></path><path d="M77.62 667.19L190.14 556.85" stroke="hsl(228.5, 77.2%, 51.5%)" stroke-width="1.5"></path><path d="M77.62 667.19L244.92 648.55" stroke="hsl(228.5, 77.2%, 51.5%)" stroke-width="1.5"></path><path d="M190.14 556.85L190.14 556.85" stroke="hsl(228.5, 77.2%, 51.5%)" stroke-width="1.5"></path><path d="M190.14 556.85L367.66 648" stroke="hsl(228.5, 77.2%, 51.5%)" stroke-width="1.5"></path><path d="M190.14 556.85L409.83 514.22" stroke="hsl(228.5, 77.2%, 51.5%)" stroke-width="1.5"></path><path d="M409.83 514.22L409.83 514.22" stroke="hsl(228.5, 77.2%, 51.5%)" stroke-width="1.5"></path><path d="M409.83 514.22L367.66 648" stroke="hsl(228.5, 77.2%, 51.5%)" stroke-width="1.5"></path><path d="M409.83 514.22L558 654.7" stroke="hsl(228.5, 77.2%, 51.5%)" stroke-width="1.5"></path><path d="M409.83 514.22L244.92 648.55" stroke="hsl(228.5, 77.2%, 51.5%)" stroke-width="1.5"></path><path d="M367.66 648L367.66 648" stroke="hsl(228.5, 77.2%, 51.5%)" stroke-width="1.5"></path><path d="M642.45 512.92L642.45 512.92" stroke="hsl(228.5, 77.2%, 51.5%)" stroke-width="1.5"></path><path d="M642.45 512.92L646.75 706.93" stroke="hsl(228.5, 77.2%, 51.5%)" stroke-width="1.5"></path><path d="M642.45 512.92L847.12 506.98" stroke="hsl(228.5, 77.2%, 51.5%)" stroke-width="1.5"></path><path d="M642.45 512.92L805.89 640.15" stroke="hsl(228.5, 77.2%, 51.5%)" stroke-width="1.5"></path><path d="M847.12 506.98L847.12 506.98" stroke="hsl(228.5, 77.2%, 51.5%)" stroke-width="1.5"></path><path d="M847.12 506.98L805.89 640.15" stroke="hsl(228.5, 77.2%, 51.5%)" stroke-width="1.5"></path><path d="M805.89 640.15L805.89 640.15" stroke="hsl(228.5, 77.2%, 51.5%)" stroke-width="1.5"></path><path d="M805.89 640.15L953.91 651.8" stroke="hsl(228.5, 77.2%, 51.5%)" stroke-width="1.5"></path><path d="M968.96 393.02L968.96 393.02" stroke="hsl(228.5, 77.2%, 51.5%)" stroke-width="1.5"></path><path d="M968.96 393.02L1124.14 356.73" stroke="hsl(228.5, 77.2%, 51.5%)" stroke-width="1.5"></path><path d="M968.96 393.02L847.12 506.98" stroke="hsl(228.5, 77.2%, 51.5%)" stroke-width="1.5"></path><path d="M953.91 651.8L953.91 651.8" stroke="hsl(228.5, 77.2%, 51.5%)" stroke-width="1.5"></path><path d="M953.91 651.8L847.12 506.98" stroke="hsl(228.5, 77.2%, 51.5%)" stroke-width="1.5"></path><path d="M953.91 651.8L1161.8 680.37" stroke="hsl(228.5, 77.2%, 51.5%)" stroke-width="1.5"></path><path d="M953.91 651.8L968.96 393.02" stroke="hsl(228.5, 77.2%, 51.5%)" stroke-width="1.5"></path><path d="M953.91 651.8L646.75 706.93" stroke="hsl(228.5, 77.2%, 51.5%)" stroke-width="1.5"></path><path d="M1093.05 195.91L1093.05 195.91" stroke="hsl(228.5, 77.2%, 51.5%)" stroke-width="1.5"></path><path d="M1093.05 195.91L1251.57 233.47" stroke="hsl(228.5, 77.2%, 51.5%)" stroke-width="1.5"></path><path d="M1093.05 195.91L1124.14 356.73" stroke="hsl(228.5, 77.2%, 51.5%)" stroke-width="1.5"></path><path d="M1093.05 195.91L1302.38 102.45" stroke="hsl(228.5, 77.2%, 51.5%)" stroke-width="1.5"></path><path d="M1124.14 356.73L1124.14 356.73" stroke="hsl(228.5, 77.2%, 51.5%)" stroke-width="1.5"></path><path d="M1124.14 356.73L1268.21 393.99" stroke="hsl(228.5, 77.2%, 51.5%)" stroke-width="1.5"></path><path d="M1124.14 356.73L1251.57 233.47" stroke="hsl(228.5, 77.2%, 51.5%)" stroke-width="1.5"></path><path d="M1161.8 680.37L1161.8 680.37" stroke="hsl(228.5, 77.2%, 51.5%)" stroke-width="1.5"></path><path d="M1161.8 680.37L1284.5 643.12" stroke="hsl(228.5, 77.2%, 51.5%)" stroke-width="1.5"></path><path d="M1161.8 680.37L1311.63 555.41" stroke="hsl(228.5, 77.2%, 51.5%)" stroke-width="1.5"></path><path d="M1302.38 102.45L1302.38 102.45" stroke="hsl(228.5, 77.2%, 51.5%)" stroke-width="1.5"></path><path d="M1302.38 102.45L1398.15 64.81" stroke="hsl(228.5, 77.2%, 51.5%)" stroke-width="1.5"></path><path d="M1302.38 102.45L1251.57 233.47" stroke="hsl(228.5, 77.2%, 51.5%)" stroke-width="1.5"></path><path d="M1251.57 233.47L1251.57 233.47" stroke="hsl(228.5, 77.2%, 51.5%)" stroke-width="1.5"></path><path d="M1251.57 233.47L1268.21 393.99" stroke="hsl(228.5, 77.2%, 51.5%)" stroke-width="1.5"></path><path d="M1268.21 393.99L1268.21 393.99" stroke="hsl(228.5, 77.2%, 51.5%)" stroke-width="1.5"></path><path d="M1311.63 555.41L1311.63 555.41" stroke="hsl(228.5, 77.2%, 51.5%)" stroke-width="1.5"></path><path d="M1311.63 555.41L1284.5 643.12" stroke="hsl(228.5, 77.2%, 51.5%)" stroke-width="1.5"></path><path d="M1311.63 555.41L1425.63 672.64" stroke="hsl(228.5, 77.2%, 51.5%)" stroke-width="1.5"></path><path d="M1311.63 555.41L1268.21 393.99" stroke="hsl(228.5, 77.2%, 51.5%)" stroke-width="1.5"></path><path d="M1311.63 555.41L1461.3 369.04" stroke="hsl(228.5, 77.2%, 51.5%)" stroke-width="1.5"></path><path d="M1284.5 643.12L1284.5 643.12" stroke="hsl(228.5, 77.2%, 51.5%)" stroke-width="1.5"></path><path d="M1284.5 643.12L1425.63 672.64" stroke="hsl(228.5, 77.2%, 51.5%)" stroke-width="1.5"></path><path d="M1398.15 64.81L1398.15 64.81" stroke="hsl(228.5, 77.2%, 51.5%)" stroke-width="1.5"></path><path d="M1398.15 64.81L1566.16 52.39" stroke="hsl(228.5, 77.2%, 51.5%)" stroke-width="1.5"></path><path d="M1398.15 64.81L1438.26 249.7" stroke="hsl(228.5, 77.2%, 51.5%)" stroke-width="1.5"></path><path d="M1438.26 249.7L1438.26 249.7" stroke="hsl(228.5, 77.2%, 51.5%)" stroke-width="1.5"></path><path d="M1438.26 249.7L1461.3 369.04" stroke="hsl(228.5, 77.2%, 51.5%)" stroke-width="1.5"></path><path d="M1438.26 249.7L1591.2 204.29" stroke="hsl(228.5, 77.2%, 51.5%)" stroke-width="1.5"></path><path d="M1461.3 369.04L1461.3 369.04" stroke="hsl(228.5, 77.2%, 51.5%)" stroke-width="1.5"></path><path d="M1461.3 369.04L1558.08 383.07" stroke="hsl(228.5, 77.2%, 51.5%)" stroke-width="1.5"></path><path d="M1461.3 369.04L1569.22 500.07" stroke="hsl(228.5, 77.2%, 51.5%)" stroke-width="1.5"></path><path d="M1461.3 369.04L1445.93 562.17" stroke="hsl(228.5, 77.2%, 51.5%)" stroke-width="1.5"></path><path d="M1461.3 369.04L1268.21 393.99" stroke="hsl(228.5, 77.2%, 51.5%)" stroke-width="1.5"></path><path d="M1461.3 369.04L1591.2 204.29" stroke="hsl(228.5, 77.2%, 51.5%)" stroke-width="1.5"></path><path d="M1425.63 672.64L1425.63 672.64" stroke="hsl(228.5, 77.2%, 51.5%)" stroke-width="1.5"></path><path d="M1425.63 672.64L1565.3 689.12" stroke="hsl(228.5, 77.2%, 51.5%)" stroke-width="1.5"></path><path d="M1425.63 672.64L1569.22 500.07" stroke="hsl(228.5, 77.2%, 51.5%)" stroke-width="1.5"></path><path d="M1425.63 672.64L1161.8 680.37" stroke="hsl(228.5, 77.2%, 51.5%)" stroke-width="1.5"></path><path d="M1582.66 -107.77L1582.66 -107.77" stroke="hsl(228.5, 77.2%, 51.5%)" stroke-width="1.5"></path><path d="M1582.66 -107.77L1566.16 52.39" stroke="hsl(228.5, 77.2%, 51.5%)" stroke-width="1.5"></path><path d="M1582.66 -107.77L1398.15 64.81" stroke="hsl(228.5, 77.2%, 51.5%)" stroke-width="1.5"></path><path d="M1582.66 -107.77L1591.2 204.29" stroke="hsl(228.5, 77.2%, 51.5%)" stroke-width="1.5"></path><path d="M1566.16 52.39L1566.16 52.39" stroke="hsl(228.5, 77.2%, 51.5%)" stroke-width="1.5"></path><path d="M1566.16 52.39L1591.2 204.29" stroke="hsl(228.5, 77.2%, 51.5%)" stroke-width="1.5"></path><path d="M1591.2 204.29L1591.2 204.29" stroke="hsl(228.5, 77.2%, 51.5%)" stroke-width="1.5"></path><path d="M1591.2 204.29L1558.08 383.07" stroke="hsl(228.5, 77.2%, 51.5%)" stroke-width="1.5"></path><path d="M1558.08 383.07L1558.08 383.07" stroke="hsl(228.5, 77.2%, 51.5%)" stroke-width="1.5"></path><path d="M1558.08 383.07L1438.26 249.7" stroke="hsl(228.5, 77.2%, 51.5%)" stroke-width="1.5"></path><path d="M1565.3 689.12L1565.3 689.12" stroke="hsl(228.5, 77.2%, 51.5%)" stroke-width="1.5"></path><path d="M1565.3 689.12L1569.22 500.07" stroke="hsl(228.5, 77.2%, 51.5%)" stroke-width="1.5"></path><circle r="25" cx="244.92" cy="648.55" fill="url(&quot;#SvgjsRadialGradient1032&quot;)"></circle><circle r="25" cx="493.19" cy="511.23" fill="url(&quot;#SvgjsRadialGradient1032&quot;)"></circle><circle r="25" cx="558" cy="654.7" fill="url(&quot;#SvgjsRadialGradient1032&quot;)"></circle><circle r="25" cx="646.75" cy="706.93" fill="url(&quot;#SvgjsRadialGradient1032&quot;)"></circle><circle r="25" cx="844.63" cy="406.37" fill="url(&quot;#SvgjsRadialGradient1032&quot;)"></circle><circle r="25" cx="1156.35" cy="97.07" fill="url(&quot;#SvgjsRadialGradient1032&quot;)"></circle><circle r="25" cx="1416.14" cy="-63.17" fill="url(&quot;#SvgjsRadialGradient1032&quot;)"></circle><circle r="25" cx="1445.93" cy="562.17" fill="url(&quot;#SvgjsRadialGradient1032&quot;)"></circle><circle r="25" cx="1569.22" cy="500.07" fill="url(&quot;#SvgjsRadialGradient1032&quot;)"></circle><circle r="5" cx="-83.24" cy="514.23" fill="#8b9ad9"></circle><circle r="5" cx="-111.2" cy="705.21" fill="#8b9ad9"></circle><circle r="5" cx="49.09" cy="510.52" fill="#8b9ad9"></circle><circle r="5" cx="77.62" cy="667.19" fill="#8b9ad9"></circle><circle r="5" cx="190.14" cy="556.85" fill="#8b9ad9"></circle><circle r="5" cx="409.83" cy="514.22" fill="#8b9ad9"></circle><circle r="5" cx="367.66" cy="648" fill="#8b9ad9"></circle><circle r="5" cx="642.45" cy="512.92" fill="#8b9ad9"></circle><circle r="5" cx="847.12" cy="506.98" fill="#8b9ad9"></circle><circle r="5" cx="805.89" cy="640.15" fill="#8b9ad9"></circle><circle r="5" cx="968.96" cy="393.02" fill="#8b9ad9"></circle><circle r="5" cx="953.91" cy="651.8" fill="#8b9ad9"></circle><circle r="5" cx="1093.05" cy="195.91" fill="#8b9ad9"></circle><circle r="5" cx="1124.14" cy="356.73" fill="#8b9ad9"></circle><circle r="5" cx="1161.8" cy="680.37" fill="#8b9ad9"></circle><circle r="5" cx="1302.38" cy="102.45" fill="#8b9ad9"></circle><circle r="5" cx="1251.57" cy="233.47" fill="#8b9ad9"></circle><circle r="5" cx="1268.21" cy="393.99" fill="#8b9ad9"></circle><circle r="5" cx="1311.63" cy="555.41" fill="#8b9ad9"></circle><circle r="5" cx="1284.5" cy="643.12" fill="#8b9ad9"></circle><circle r="5" cx="1398.15" cy="64.81" fill="#8b9ad9"></circle><circle r="5" cx="1438.26" cy="249.7" fill="#8b9ad9"></circle><circle r="5" cx="1461.3" cy="369.04" fill="#8b9ad9"></circle><circle r="5" cx="1425.63" cy="672.64" fill="#8b9ad9"></circle><circle r="5" cx="1582.66" cy="-107.77" fill="#8b9ad9"></circle><circle r="5" cx="1566.16" cy="52.39" fill="#8b9ad9"></circle><circle r="5" cx="1591.2" cy="204.29" fill="#8b9ad9"></circle><circle r="5" cx="1558.08" cy="383.07" fill="#8b9ad9"></circle><circle r="5" cx="1565.3" cy="689.12" fill="#8b9ad9"></circle></g><defs><mask id="SvgjsMask1031"><rect width="1440" height="560" fill="#ffffff"></rect></mask><radialGradient id="SvgjsRadialGradient1032"><stop stop-color="#ffffff" offset="0.1"></stop><stop stop-color="#1735b3" offset="0.2"></stop><stop stop-color="rgba(23, 53, 179, 0)" offset="1"></stop></radialGradient></defs></svg>