<svg xmlns="http://www.w3.org/2000/svg" version="1.1" xmlns:xlink="http://www.w3.org/1999/xlink" xmlns:svgjs="http://svgjs.dev/svgjs" width="1452" height="565" preserveAspectRatio="none" viewBox="0 0 1452 565"><g mask="url(&quot;#SvgjsMask1038&quot;)" fill="none"><path d="M-109.57 347.02L-109.57 347.02" stroke="#132e65" stroke-width="1.5"></path><path d="M-109.57 347.02L-38.58 535.31" stroke="#132e65" stroke-width="1.5"></path><path d="M-109.57 347.02L96.28 531.06" stroke="#132e65" stroke-width="1.5"></path><path d="M-109.57 347.02L195.5 356.1" stroke="#132e65" stroke-width="1.5"></path><path d="M-109.57 347.02L-107.37 693.11" stroke="#132e65" stroke-width="1.5"></path><path d="M-38.58 535.31L-38.58 535.31" stroke="#132e65" stroke-width="1.5"></path><path d="M-38.58 535.31L96.28 531.06" stroke="#132e65" stroke-width="1.5"></path><path d="M-38.58 535.31L76.97 658.52" stroke="#132e65" stroke-width="1.5"></path><path d="M-38.58 535.31L-107.37 693.11" stroke="#132e65" stroke-width="1.5"></path><path d="M-38.58 535.31L193.2 556.97" stroke="#132e65" stroke-width="1.5"></path><path d="M-38.58 535.31L195.5 356.1" stroke="#132e65" stroke-width="1.5"></path><path d="M-107.37 693.11L-107.37 693.11" stroke="#132e65" stroke-width="1.5"></path><path d="M-107.37 693.11L76.97 658.52" stroke="#132e65" stroke-width="1.5"></path><path d="M-107.37 693.11L96.28 531.06" stroke="#132e65" stroke-width="1.5"></path><path d="M-107.37 693.11L193.2 556.97" stroke="#132e65" stroke-width="1.5"></path><path d="M96.28 531.06L96.28 531.06" stroke="#132e65" stroke-width="1.5"></path><path d="M96.28 531.06L193.2 556.97" stroke="#132e65" stroke-width="1.5"></path><path d="M96.28 531.06L76.97 658.52" stroke="#132e65" stroke-width="1.5"></path><path d="M96.28 531.06L195.5 356.1" stroke="#132e65" stroke-width="1.5"></path><path d="M76.97 658.52L76.97 658.52" stroke="#132e65" stroke-width="1.5"></path><path d="M76.97 658.52L193.2 556.97" stroke="#132e65" stroke-width="1.5"></path><path d="M76.97 658.52L250.95 674.95" stroke="#132e65" stroke-width="1.5"></path><path d="M195.5 356.1L195.5 356.1" stroke="#132e65" stroke-width="1.5"></path><path d="M195.5 356.1L383.87 381.63" stroke="#132e65" stroke-width="1.5"></path><path d="M195.5 356.1L193.2 556.97" stroke="#132e65" stroke-width="1.5"></path><path d="M195.5 356.1L342.47 551.26" stroke="#132e65" stroke-width="1.5"></path><path d="M193.2 556.97L193.2 556.97" stroke="#132e65" stroke-width="1.5"></path><path d="M193.2 556.97L250.95 674.95" stroke="#132e65" stroke-width="1.5"></path><path d="M193.2 556.97L342.47 551.26" stroke="#132e65" stroke-width="1.5"></path><path d="M193.2 556.97L341.91 689.69" stroke="#132e65" stroke-width="1.5"></path><path d="M250.95 674.95L250.95 674.95" stroke="#132e65" stroke-width="1.5"></path><path d="M250.95 674.95L341.91 689.69" stroke="#132e65" stroke-width="1.5"></path><path d="M250.95 674.95L342.47 551.26" stroke="#132e65" stroke-width="1.5"></path><path d="M250.95 674.95L96.28 531.06" stroke="#132e65" stroke-width="1.5"></path><path d="M250.95 674.95L502.33 650.95" stroke="#132e65" stroke-width="1.5"></path><path d="M383.87 381.63L383.87 381.63" stroke="#132e65" stroke-width="1.5"></path><path d="M383.87 381.63L542.8 375.32" stroke="#132e65" stroke-width="1.5"></path><path d="M383.87 381.63L342.47 551.26" stroke="#132e65" stroke-width="1.5"></path><path d="M342.47 551.26L342.47 551.26" stroke="#132e65" stroke-width="1.5"></path><path d="M342.47 551.26L341.91 689.69" stroke="#132e65" stroke-width="1.5"></path><path d="M342.47 551.26L502.33 650.95" stroke="#132e65" stroke-width="1.5"></path><path d="M341.91 689.69L341.91 689.69" stroke="#132e65" stroke-width="1.5"></path><path d="M341.91 689.69L502.33 650.95" stroke="#132e65" stroke-width="1.5"></path><path d="M341.91 689.69L76.97 658.52" stroke="#132e65" stroke-width="1.5"></path><path d="M542.8 375.32L542.8 375.32" stroke="#132e65" stroke-width="1.5"></path><path d="M542.8 375.32L703.66 353.37" stroke="#132e65" stroke-width="1.5"></path><path d="M542.8 375.32L645.85 526.97" stroke="#132e65" stroke-width="1.5"></path><path d="M542.8 375.32L342.47 551.26" stroke="#132e65" stroke-width="1.5"></path><path d="M542.8 375.32L502.33 650.95" stroke="#132e65" stroke-width="1.5"></path><path d="M542.8 375.32L813.89 259.99" stroke="#132e65" stroke-width="1.5"></path><path d="M502.33 650.95L502.33 650.95" stroke="#132e65" stroke-width="1.5"></path><path d="M502.33 650.95L645.85 526.97" stroke="#132e65" stroke-width="1.5"></path><path d="M703.66 353.37L703.66 353.37" stroke="#132e65" stroke-width="1.5"></path><path d="M703.66 353.37L813.89 259.99" stroke="#132e65" stroke-width="1.5"></path><path d="M703.66 353.37L850.69 400.5" stroke="#132e65" stroke-width="1.5"></path><path d="M703.66 353.37L645.85 526.97" stroke="#132e65" stroke-width="1.5"></path><path d="M703.66 353.37L837.79 522.58" stroke="#132e65" stroke-width="1.5"></path><path d="M645.85 526.97L645.85 526.97" stroke="#132e65" stroke-width="1.5"></path><path d="M813.89 259.99L813.89 259.99" stroke="#132e65" stroke-width="1.5"></path><path d="M813.89 259.99L850.69 400.5" stroke="#132e65" stroke-width="1.5"></path><path d="M813.89 259.99L998.1 210.97" stroke="#132e65" stroke-width="1.5"></path><path d="M813.89 259.99L1004.78 372.97" stroke="#132e65" stroke-width="1.5"></path><path d="M813.89 259.99L837.79 522.58" stroke="#132e65" stroke-width="1.5"></path><path d="M850.69 400.5L850.69 400.5" stroke="#132e65" stroke-width="1.5"></path><path d="M850.69 400.5L837.79 522.58" stroke="#132e65" stroke-width="1.5"></path><path d="M850.69 400.5L938.67 512.97" stroke="#132e65" stroke-width="1.5"></path><path d="M837.79 522.58L837.79 522.58" stroke="#132e65" stroke-width="1.5"></path><path d="M837.79 522.58L938.67 512.97" stroke="#132e65" stroke-width="1.5"></path><path d="M837.79 522.58L842.16 641.58" stroke="#132e65" stroke-width="1.5"></path><path d="M837.79 522.58L645.85 526.97" stroke="#132e65" stroke-width="1.5"></path><path d="M842.16 641.58L842.16 641.58" stroke="#132e65" stroke-width="1.5"></path><path d="M842.16 641.58L938.67 512.97" stroke="#132e65" stroke-width="1.5"></path><path d="M842.16 641.58L998.92 698.76" stroke="#132e65" stroke-width="1.5"></path><path d="M842.16 641.58L645.85 526.97" stroke="#132e65" stroke-width="1.5"></path><path d="M842.16 641.58L850.69 400.5" stroke="#132e65" stroke-width="1.5"></path><path d="M842.16 641.58L1099.19 651.98" stroke="#132e65" stroke-width="1.5"></path><path d="M944.99 -84.02L944.99 -84.02" stroke="#132e65" stroke-width="1.5"></path><path d="M944.99 -84.02L1010.23 75.91" stroke="#132e65" stroke-width="1.5"></path><path d="M944.99 -84.02L1123.87 92" stroke="#132e65" stroke-width="1.5"></path><path d="M944.99 -84.02L998.1 210.97" stroke="#132e65" stroke-width="1.5"></path><path d="M944.99 -84.02L1298.48 -84.15" stroke="#132e65" stroke-width="1.5"></path><path d="M944.99 -84.02L813.89 259.99" stroke="#132e65" stroke-width="1.5"></path><path d="M944.99 -84.02L1138.99 237.11" stroke="#132e65" stroke-width="1.5"></path><path d="M1010.23 75.91L1010.23 75.91" stroke="#132e65" stroke-width="1.5"></path><path d="M1010.23 75.91L1123.87 92" stroke="#132e65" stroke-width="1.5"></path><path d="M1010.23 75.91L998.1 210.97" stroke="#132e65" stroke-width="1.5"></path><path d="M1010.23 75.91L1138.99 237.11" stroke="#132e65" stroke-width="1.5"></path><path d="M1010.23 75.91L1244.78 200.02" stroke="#132e65" stroke-width="1.5"></path><path d="M1010.23 75.91L813.89 259.99" stroke="#132e65" stroke-width="1.5"></path><path d="M998.1 210.97L998.1 210.97" stroke="#132e65" stroke-width="1.5"></path><path d="M998.1 210.97L1138.99 237.11" stroke="#132e65" stroke-width="1.5"></path><path d="M998.1 210.97L1004.78 372.97" stroke="#132e65" stroke-width="1.5"></path><path d="M998.1 210.97L1123.87 92" stroke="#132e65" stroke-width="1.5"></path><path d="M998.1 210.97L1137.51 404.16" stroke="#132e65" stroke-width="1.5"></path><path d="M1004.78 372.97L1004.78 372.97" stroke="#132e65" stroke-width="1.5"></path><path d="M1004.78 372.97L1137.51 404.16" stroke="#132e65" stroke-width="1.5"></path><path d="M1004.78 372.97L938.67 512.97" stroke="#132e65" stroke-width="1.5"></path><path d="M938.67 512.97L938.67 512.97" stroke="#132e65" stroke-width="1.5"></path><path d="M938.67 512.97L1110.54 489.7" stroke="#132e65" stroke-width="1.5"></path><path d="M998.92 698.76L998.92 698.76" stroke="#132e65" stroke-width="1.5"></path><path d="M998.92 698.76L1099.19 651.98" stroke="#132e65" stroke-width="1.5"></path><path d="M998.92 698.76L938.67 512.97" stroke="#132e65" stroke-width="1.5"></path><path d="M998.92 698.76L1110.54 489.7" stroke="#132e65" stroke-width="1.5"></path><path d="M998.92 698.76L837.79 522.58" stroke="#132e65" stroke-width="1.5"></path><path d="M998.92 698.76L1248.67 644.74" stroke="#132e65" stroke-width="1.5"></path><path d="M1123.87 92L1123.87 92" stroke="#132e65" stroke-width="1.5"></path><path d="M1123.87 92L1138.99 237.11" stroke="#132e65" stroke-width="1.5"></path><path d="M1138.99 237.11L1138.99 237.11" stroke="#132e65" stroke-width="1.5"></path><path d="M1138.99 237.11L1244.78 200.02" stroke="#132e65" stroke-width="1.5"></path><path d="M1137.51 404.16L1137.51 404.16" stroke="#132e65" stroke-width="1.5"></path><path d="M1137.51 404.16L1110.54 489.7" stroke="#132e65" stroke-width="1.5"></path><path d="M1137.51 404.16L1138.99 237.11" stroke="#132e65" stroke-width="1.5"></path><path d="M1137.51 404.16L1294.67 340.34" stroke="#132e65" stroke-width="1.5"></path><path d="M1137.51 404.16L1244.6 542.15" stroke="#132e65" stroke-width="1.5"></path><path d="M1137.51 404.16L938.67 512.97" stroke="#132e65" stroke-width="1.5"></path><path d="M1110.54 489.7L1110.54 489.7" stroke="#132e65" stroke-width="1.5"></path><path d="M1110.54 489.7L1244.6 542.15" stroke="#132e65" stroke-width="1.5"></path><path d="M1110.54 489.7L1004.78 372.97" stroke="#132e65" stroke-width="1.5"></path><path d="M1110.54 489.7L1099.19 651.98" stroke="#132e65" stroke-width="1.5"></path><path d="M1099.19 651.98L1099.19 651.98" stroke="#132e65" stroke-width="1.5"></path><path d="M1099.19 651.98L1248.67 644.74" stroke="#132e65" stroke-width="1.5"></path><path d="M1099.19 651.98L1244.6 542.15" stroke="#132e65" stroke-width="1.5"></path><path d="M1298.48 -84.15L1298.48 -84.15" stroke="#132e65" stroke-width="1.5"></path><path d="M1298.48 -84.15L1390.25 -104.63" stroke="#132e65" stroke-width="1.5"></path><path d="M1298.48 -84.15L1418.34 52.4" stroke="#132e65" stroke-width="1.5"></path><path d="M1298.48 -84.15L1123.87 92" stroke="#132e65" stroke-width="1.5"></path><path d="M1298.48 -84.15L1558.42 -61.05" stroke="#132e65" stroke-width="1.5"></path><path d="M1298.48 -84.15L1244.78 200.02" stroke="#132e65" stroke-width="1.5"></path><path d="M1244.78 200.02L1244.78 200.02" stroke="#132e65" stroke-width="1.5"></path><path d="M1244.78 200.02L1294.67 340.34" stroke="#132e65" stroke-width="1.5"></path><path d="M1244.78 200.02L1123.87 92" stroke="#132e65" stroke-width="1.5"></path><path d="M1244.78 200.02L1425.41 207.86" stroke="#132e65" stroke-width="1.5"></path><path d="M1294.67 340.34L1294.67 340.34" stroke="#132e65" stroke-width="1.5"></path><path d="M1294.67 340.34L1394.31 401.09" stroke="#132e65" stroke-width="1.5"></path><path d="M1244.6 542.15L1244.6 542.15" stroke="#132e65" stroke-width="1.5"></path><path d="M1244.6 542.15L1248.67 644.74" stroke="#132e65" stroke-width="1.5"></path><path d="M1244.6 542.15L1394.31 401.09" stroke="#132e65" stroke-width="1.5"></path><path d="M1248.67 644.74L1248.67 644.74" stroke="#132e65" stroke-width="1.5"></path><path d="M1390.25 -104.63L1390.25 -104.63" stroke="#132e65" stroke-width="1.5"></path><path d="M1390.25 -104.63L1418.34 52.4" stroke="#132e65" stroke-width="1.5"></path><path d="M1390.25 -104.63L1558.42 -61.05" stroke="#132e65" stroke-width="1.5"></path><path d="M1390.25 -104.63L1592.86 40.05" stroke="#132e65" stroke-width="1.5"></path><path d="M1418.34 52.4L1418.34 52.4" stroke="#132e65" stroke-width="1.5"></path><path d="M1418.34 52.4L1425.41 207.86" stroke="#132e65" stroke-width="1.5"></path><path d="M1418.34 52.4L1592.86 40.05" stroke="#132e65" stroke-width="1.5"></path><path d="M1418.34 52.4L1558.42 -61.05" stroke="#132e65" stroke-width="1.5"></path><path d="M1425.41 207.86L1425.41 207.86" stroke="#132e65" stroke-width="1.5"></path><path d="M1425.41 207.86L1582.28 228.42" stroke="#132e65" stroke-width="1.5"></path><path d="M1425.41 207.86L1294.67 340.34" stroke="#132e65" stroke-width="1.5"></path><path d="M1425.41 207.86L1394.31 401.09" stroke="#132e65" stroke-width="1.5"></path><path d="M1394.31 401.09L1394.31 401.09" stroke="#132e65" stroke-width="1.5"></path><path d="M1394.31 401.09L1552.2 550.84" stroke="#132e65" stroke-width="1.5"></path><path d="M1394.31 401.09L1244.78 200.02" stroke="#132e65" stroke-width="1.5"></path><path d="M1394.31 401.09L1582.28 228.42" stroke="#132e65" stroke-width="1.5"></path><path d="M1398.74 701.05L1398.74 701.05" stroke="#132e65" stroke-width="1.5"></path><path d="M1398.74 701.05L1552.95 710.77" stroke="#132e65" stroke-width="1.5"></path><path d="M1398.74 701.05L1248.67 644.74" stroke="#132e65" stroke-width="1.5"></path><path d="M1398.74 701.05L1552.2 550.84" stroke="#132e65" stroke-width="1.5"></path><path d="M1398.74 701.05L1244.6 542.15" stroke="#132e65" stroke-width="1.5"></path><path d="M1558.42 -61.05L1558.42 -61.05" stroke="#132e65" stroke-width="1.5"></path><path d="M1558.42 -61.05L1592.86 40.05" stroke="#132e65" stroke-width="1.5"></path><path d="M1592.86 40.05L1592.86 40.05" stroke="#132e65" stroke-width="1.5"></path><path d="M1592.86 40.05L1582.28 228.42" stroke="#132e65" stroke-width="1.5"></path><path d="M1592.86 40.05L1425.41 207.86" stroke="#132e65" stroke-width="1.5"></path><path d="M1592.86 40.05L1298.48 -84.15" stroke="#132e65" stroke-width="1.5"></path><path d="M1582.28 228.42L1582.28 228.42" stroke="#132e65" stroke-width="1.5"></path><path d="M1582.28 228.42L1418.34 52.4" stroke="#132e65" stroke-width="1.5"></path><path d="M1552.2 550.84L1552.2 550.84" stroke="#132e65" stroke-width="1.5"></path><path d="M1552.2 550.84L1552.95 710.77" stroke="#132e65" stroke-width="1.5"></path><path d="M1552.2 550.84L1244.6 542.15" stroke="#132e65" stroke-width="1.5"></path><path d="M1552.95 710.77L1552.95 710.77" stroke="#132e65" stroke-width="1.5"></path><path d="M1552.95 710.77L1248.67 644.74" stroke="#132e65" stroke-width="1.5"></path><path d="M1552.95 710.77L1394.31 401.09" stroke="#132e65" stroke-width="1.5"></path><path d="M1552.95 710.77L1244.6 542.15" stroke="#132e65" stroke-width="1.5"></path><circle r="5" cx="-109.57" cy="347.02" fill="#132e65"></circle><circle r="5" cx="-38.58" cy="535.31" fill="#132e65"></circle><circle r="5" cx="-107.37" cy="693.11" fill="#132e65"></circle><circle r="5" cx="96.28" cy="531.06" fill="#132e65"></circle><circle r="5" cx="76.97" cy="658.52" fill="#132e65"></circle><circle r="5" cx="195.5" cy="356.1" fill="#132e65"></circle><circle r="5" cx="193.2" cy="556.97" fill="#132e65"></circle><circle r="5" cx="250.95" cy="674.95" fill="#132e65"></circle><circle r="5" cx="383.87" cy="381.63" fill="#132e65"></circle><circle r="5" cx="342.47" cy="551.26" fill="#132e65"></circle><circle r="5" cx="341.91" cy="689.69" fill="#132e65"></circle><circle r="5" cx="542.8" cy="375.32" fill="#132e65"></circle><circle r="5" cx="502.33" cy="650.95" fill="#132e65"></circle><circle r="5" cx="703.66" cy="353.37" fill="#132e65"></circle><circle r="5" cx="645.85" cy="526.97" fill="#132e65"></circle><circle r="5" cx="813.89" cy="259.99" fill="#132e65"></circle><circle r="5" cx="850.69" cy="400.5" fill="#132e65"></circle><circle r="5" cx="837.79" cy="522.58" fill="#132e65"></circle><circle r="5" cx="842.16" cy="641.58" fill="#132e65"></circle><circle r="5" cx="944.99" cy="-84.02" fill="#132e65"></circle><circle r="5" cx="1010.23" cy="75.91" fill="#132e65"></circle><circle r="5" cx="998.1" cy="210.97" fill="#132e65"></circle><circle r="5" cx="1004.78" cy="372.97" fill="#132e65"></circle><circle r="5" cx="938.67" cy="512.97" fill="#132e65"></circle><circle r="5" cx="998.92" cy="698.76" fill="#132e65"></circle><circle r="5" cx="1123.87" cy="92" fill="#132e65"></circle><circle r="5" cx="1138.99" cy="237.11" fill="#132e65"></circle><circle r="5" cx="1137.51" cy="404.16" fill="#132e65"></circle><circle r="5" cx="1110.54" cy="489.7" fill="#132e65"></circle><circle r="5" cx="1099.19" cy="651.98" fill="#132e65"></circle><circle r="5" cx="1298.48" cy="-84.15" fill="#132e65"></circle><circle r="5" cx="1244.78" cy="200.02" fill="#132e65"></circle><circle r="5" cx="1294.67" cy="340.34" fill="#132e65"></circle><circle r="5" cx="1244.6" cy="542.15" fill="#132e65"></circle><circle r="5" cx="1248.67" cy="644.74" fill="#132e65"></circle><circle r="5" cx="1390.25" cy="-104.63" fill="#132e65"></circle><circle r="5" cx="1418.34" cy="52.4" fill="#132e65"></circle><circle r="5" cx="1425.41" cy="207.86" fill="#132e65"></circle><circle r="5" cx="1394.31" cy="401.09" fill="#132e65"></circle><circle r="5" cx="1398.74" cy="701.05" fill="#132e65"></circle><circle r="5" cx="1558.42" cy="-61.05" fill="#132e65"></circle><circle r="5" cx="1592.86" cy="40.05" fill="#132e65"></circle><circle r="5" cx="1582.28" cy="228.42" fill="#132e65"></circle><circle r="5" cx="1552.2" cy="550.84" fill="#132e65"></circle><circle r="5" cx="1552.95" cy="710.77" fill="#132e65"></circle><path d="M216.59 514L216.59 514" stroke="hsl(228.5, 77.2%, 51.5%)" stroke-width="1.5"></path><path d="M216.59 514L214.19 645.85" stroke="hsl(228.5, 77.2%, 51.5%)" stroke-width="1.5"></path><path d="M216.59 514L378.55 521.7" stroke="hsl(228.5, 77.2%, 51.5%)" stroke-width="1.5"></path><path d="M216.59 514L54.87 669.11" stroke="hsl(228.5, 77.2%, 51.5%)" stroke-width="1.5"></path><path d="M216.59 514L-104.27 541.75" stroke="hsl(228.5, 77.2%, 51.5%)" stroke-width="1.5"></path><path d="M216.59 514L555.51 540.98" stroke="hsl(228.5, 77.2%, 51.5%)" stroke-width="1.5"></path><path d="M701.29 510.64L701.29 510.64" stroke="hsl(228.5, 77.2%, 51.5%)" stroke-width="1.5"></path><path d="M701.29 510.64L819.31 504.85" stroke="hsl(228.5, 77.2%, 51.5%)" stroke-width="1.5"></path><path d="M701.29 510.64L555.51 540.98" stroke="hsl(228.5, 77.2%, 51.5%)" stroke-width="1.5"></path><path d="M701.29 510.64L646.5 654.36" stroke="hsl(228.5, 77.2%, 51.5%)" stroke-width="1.5"></path><path d="M961.7 398.46L961.7 398.46" stroke="hsl(228.5, 77.2%, 51.5%)" stroke-width="1.5"></path><path d="M961.7 398.46L969.85 523.95" stroke="hsl(228.5, 77.2%, 51.5%)" stroke-width="1.5"></path><path d="M961.7 398.46L813.29 350.34" stroke="hsl(228.5, 77.2%, 51.5%)" stroke-width="1.5"></path><path d="M961.7 398.46L1117.73 368.94" stroke="hsl(228.5, 77.2%, 51.5%)" stroke-width="1.5"></path><path d="M961.7 398.46L819.31 504.85" stroke="hsl(228.5, 77.2%, 51.5%)" stroke-width="1.5"></path><path d="M961.7 398.46L1095.96 213.4" stroke="hsl(228.5, 77.2%, 51.5%)" stroke-width="1.5"></path><path d="M961.7 398.46L701.29 510.64" stroke="hsl(228.5, 77.2%, 51.5%)" stroke-width="1.5"></path><path d="M969.85 523.95L969.85 523.95" stroke="hsl(228.5, 77.2%, 51.5%)" stroke-width="1.5"></path><path d="M969.85 523.95L819.31 504.85" stroke="hsl(228.5, 77.2%, 51.5%)" stroke-width="1.5"></path><path d="M969.85 523.95L969.35 704.76" stroke="hsl(228.5, 77.2%, 51.5%)" stroke-width="1.5"></path><path d="M969.85 523.95L830.31 676.12" stroke="hsl(228.5, 77.2%, 51.5%)" stroke-width="1.5"></path><path d="M1095.96 213.4L1095.96 213.4" stroke="hsl(228.5, 77.2%, 51.5%)" stroke-width="1.5"></path><path d="M1095.96 213.4L1117.73 368.94" stroke="hsl(228.5, 77.2%, 51.5%)" stroke-width="1.5"></path><path d="M1095.96 213.4L1308.38 205.65" stroke="hsl(228.5, 77.2%, 51.5%)" stroke-width="1.5"></path><path d="M1117.73 368.94L1117.73 368.94" stroke="hsl(228.5, 77.2%, 51.5%)" stroke-width="1.5"></path><path d="M1269.34 687.87L1269.34 687.87" stroke="hsl(228.5, 77.2%, 51.5%)" stroke-width="1.5"></path><path d="M1269.34 687.87L1132.04 655.89" stroke="hsl(228.5, 77.2%, 51.5%)" stroke-width="1.5"></path><path d="M1424.14 358.99L1424.14 358.99" stroke="hsl(228.5, 77.2%, 51.5%)" stroke-width="1.5"></path><path d="M1424.14 358.99L1301.1 404.22" stroke="hsl(228.5, 77.2%, 51.5%)" stroke-width="1.5"></path><path d="M1424.14 358.99L1573.12 396.6" stroke="hsl(228.5, 77.2%, 51.5%)" stroke-width="1.5"></path><path d="M1424.14 358.99L1308.38 205.65" stroke="hsl(228.5, 77.2%, 51.5%)" stroke-width="1.5"></path><path d="M1573.12 396.6L1573.12 396.6" stroke="hsl(228.5, 77.2%, 51.5%)" stroke-width="1.5"></path><path d="M1573.12 396.6L1538.3 559.43" stroke="hsl(228.5, 77.2%, 51.5%)" stroke-width="1.5"></path><path d="M1573.12 396.6L1610.62 225.56" stroke="hsl(228.5, 77.2%, 51.5%)" stroke-width="1.5"></path><path d="M-104.27 541.75L-104.27 541.75" stroke="hsl(228.5, 77.2%, 51.5%)" stroke-width="1.5"></path><path d="M-104.27 541.75L54.87 669.11" stroke="hsl(228.5, 77.2%, 51.5%)" stroke-width="1.5"></path><path d="M-104.27 541.75L214.19 645.85" stroke="hsl(228.5, 77.2%, 51.5%)" stroke-width="1.5"></path><path d="M-104.27 541.75L378.55 521.7" stroke="hsl(228.5, 77.2%, 51.5%)" stroke-width="1.5"></path><path d="M54.87 669.11L54.87 669.11" stroke="hsl(228.5, 77.2%, 51.5%)" stroke-width="1.5"></path><path d="M54.87 669.11L214.19 645.85" stroke="hsl(228.5, 77.2%, 51.5%)" stroke-width="1.5"></path><path d="M54.87 669.11L378.55 521.7" stroke="hsl(228.5, 77.2%, 51.5%)" stroke-width="1.5"></path><path d="M54.87 669.11L554.4 707.47" stroke="hsl(228.5, 77.2%, 51.5%)" stroke-width="1.5"></path><path d="M54.87 669.11L555.51 540.98" stroke="hsl(228.5, 77.2%, 51.5%)" stroke-width="1.5"></path><path d="M214.19 645.85L214.19 645.85" stroke="hsl(228.5, 77.2%, 51.5%)" stroke-width="1.5"></path><path d="M214.19 645.85L378.55 521.7" stroke="hsl(228.5, 77.2%, 51.5%)" stroke-width="1.5"></path><path d="M378.55 521.7L378.55 521.7" stroke="hsl(228.5, 77.2%, 51.5%)" stroke-width="1.5"></path><path d="M378.55 521.7L555.51 540.98" stroke="hsl(228.5, 77.2%, 51.5%)" stroke-width="1.5"></path><path d="M378.55 521.7L554.4 707.47" stroke="hsl(228.5, 77.2%, 51.5%)" stroke-width="1.5"></path><path d="M378.55 521.7L646.5 654.36" stroke="hsl(228.5, 77.2%, 51.5%)" stroke-width="1.5"></path><path d="M555.51 540.98L555.51 540.98" stroke="hsl(228.5, 77.2%, 51.5%)" stroke-width="1.5"></path><path d="M555.51 540.98L646.5 654.36" stroke="hsl(228.5, 77.2%, 51.5%)" stroke-width="1.5"></path><path d="M555.51 540.98L554.4 707.47" stroke="hsl(228.5, 77.2%, 51.5%)" stroke-width="1.5"></path><path d="M555.51 540.98L819.31 504.85" stroke="hsl(228.5, 77.2%, 51.5%)" stroke-width="1.5"></path><path d="M554.4 707.47L554.4 707.47" stroke="hsl(228.5, 77.2%, 51.5%)" stroke-width="1.5"></path><path d="M554.4 707.47L646.5 654.36" stroke="hsl(228.5, 77.2%, 51.5%)" stroke-width="1.5"></path><path d="M646.5 654.36L646.5 654.36" stroke="hsl(228.5, 77.2%, 51.5%)" stroke-width="1.5"></path><path d="M646.5 654.36L830.31 676.12" stroke="hsl(228.5, 77.2%, 51.5%)" stroke-width="1.5"></path><path d="M646.5 654.36L819.31 504.85" stroke="hsl(228.5, 77.2%, 51.5%)" stroke-width="1.5"></path><path d="M813.29 350.34L813.29 350.34" stroke="hsl(228.5, 77.2%, 51.5%)" stroke-width="1.5"></path><path d="M813.29 350.34L819.31 504.85" stroke="hsl(228.5, 77.2%, 51.5%)" stroke-width="1.5"></path><path d="M813.29 350.34L701.29 510.64" stroke="hsl(228.5, 77.2%, 51.5%)" stroke-width="1.5"></path><path d="M813.29 350.34L969.85 523.95" stroke="hsl(228.5, 77.2%, 51.5%)" stroke-width="1.5"></path><path d="M813.29 350.34L1117.73 368.94" stroke="hsl(228.5, 77.2%, 51.5%)" stroke-width="1.5"></path><path d="M819.31 504.85L819.31 504.85" stroke="hsl(228.5, 77.2%, 51.5%)" stroke-width="1.5"></path><path d="M830.31 676.12L830.31 676.12" stroke="hsl(228.5, 77.2%, 51.5%)" stroke-width="1.5"></path><path d="M830.31 676.12L969.35 704.76" stroke="hsl(228.5, 77.2%, 51.5%)" stroke-width="1.5"></path><path d="M830.31 676.12L819.31 504.85" stroke="hsl(228.5, 77.2%, 51.5%)" stroke-width="1.5"></path><path d="M969.35 704.76L969.35 704.76" stroke="hsl(228.5, 77.2%, 51.5%)" stroke-width="1.5"></path><path d="M969.35 704.76L1132.04 655.89" stroke="hsl(228.5, 77.2%, 51.5%)" stroke-width="1.5"></path><path d="M1132.04 655.89L1132.04 655.89" stroke="hsl(228.5, 77.2%, 51.5%)" stroke-width="1.5"></path><path d="M1132.04 655.89L1291.7 535.71" stroke="hsl(228.5, 77.2%, 51.5%)" stroke-width="1.5"></path><path d="M1132.04 655.89L969.85 523.95" stroke="hsl(228.5, 77.2%, 51.5%)" stroke-width="1.5"></path><path d="M1132.04 655.89L1414.78 686.82" stroke="hsl(228.5, 77.2%, 51.5%)" stroke-width="1.5"></path><path d="M1261.03 -39.34L1261.03 -39.34" stroke="hsl(228.5, 77.2%, 51.5%)" stroke-width="1.5"></path><path d="M1261.03 -39.34L1302.39 75.88" stroke="hsl(228.5, 77.2%, 51.5%)" stroke-width="1.5"></path><path d="M1261.03 -39.34L1399.61 39.38" stroke="hsl(228.5, 77.2%, 51.5%)" stroke-width="1.5"></path><path d="M1261.03 -39.34L1413.62 -101.95" stroke="hsl(228.5, 77.2%, 51.5%)" stroke-width="1.5"></path><path d="M1302.39 75.88L1302.39 75.88" stroke="hsl(228.5, 77.2%, 51.5%)" stroke-width="1.5"></path><path d="M1302.39 75.88L1399.61 39.38" stroke="hsl(228.5, 77.2%, 51.5%)" stroke-width="1.5"></path><path d="M1302.39 75.88L1308.38 205.65" stroke="hsl(228.5, 77.2%, 51.5%)" stroke-width="1.5"></path><path d="M1302.39 75.88L1413.62 -101.95" stroke="hsl(228.5, 77.2%, 51.5%)" stroke-width="1.5"></path><path d="M1302.39 75.88L1095.96 213.4" stroke="hsl(228.5, 77.2%, 51.5%)" stroke-width="1.5"></path><path d="M1302.39 75.88L1424.14 358.99" stroke="hsl(228.5, 77.2%, 51.5%)" stroke-width="1.5"></path><path d="M1308.38 205.65L1308.38 205.65" stroke="hsl(228.5, 77.2%, 51.5%)" stroke-width="1.5"></path><path d="M1308.38 205.65L1399.61 39.38" stroke="hsl(228.5, 77.2%, 51.5%)" stroke-width="1.5"></path><path d="M1308.38 205.65L1301.1 404.22" stroke="hsl(228.5, 77.2%, 51.5%)" stroke-width="1.5"></path><path d="M1301.1 404.22L1301.1 404.22" stroke="hsl(228.5, 77.2%, 51.5%)" stroke-width="1.5"></path><path d="M1301.1 404.22L1291.7 535.71" stroke="hsl(228.5, 77.2%, 51.5%)" stroke-width="1.5"></path><path d="M1301.1 404.22L1117.73 368.94" stroke="hsl(228.5, 77.2%, 51.5%)" stroke-width="1.5"></path><path d="M1301.1 404.22L1573.12 396.6" stroke="hsl(228.5, 77.2%, 51.5%)" stroke-width="1.5"></path><path d="M1291.7 535.71L1291.7 535.71" stroke="hsl(228.5, 77.2%, 51.5%)" stroke-width="1.5"></path><path d="M1291.7 535.71L1269.34 687.87" stroke="hsl(228.5, 77.2%, 51.5%)" stroke-width="1.5"></path><path d="M1291.7 535.71L1414.78 686.82" stroke="hsl(228.5, 77.2%, 51.5%)" stroke-width="1.5"></path><path d="M1291.7 535.71L1424.14 358.99" stroke="hsl(228.5, 77.2%, 51.5%)" stroke-width="1.5"></path><path d="M1291.7 535.71L1117.73 368.94" stroke="hsl(228.5, 77.2%, 51.5%)" stroke-width="1.5"></path><path d="M1413.62 -101.95L1413.62 -101.95" stroke="hsl(228.5, 77.2%, 51.5%)" stroke-width="1.5"></path><path d="M1413.62 -101.95L1399.61 39.38" stroke="hsl(228.5, 77.2%, 51.5%)" stroke-width="1.5"></path><path d="M1413.62 -101.95L1611.94 -60.89" stroke="hsl(228.5, 77.2%, 51.5%)" stroke-width="1.5"></path><path d="M1399.61 39.38L1399.61 39.38" stroke="hsl(228.5, 77.2%, 51.5%)" stroke-width="1.5"></path><path d="M1414.78 686.82L1414.78 686.82" stroke="hsl(228.5, 77.2%, 51.5%)" stroke-width="1.5"></path><path d="M1414.78 686.82L1269.34 687.87" stroke="hsl(228.5, 77.2%, 51.5%)" stroke-width="1.5"></path><path d="M1414.78 686.82L1538.3 559.43" stroke="hsl(228.5, 77.2%, 51.5%)" stroke-width="1.5"></path><path d="M1611.94 -60.89L1611.94 -60.89" stroke="hsl(228.5, 77.2%, 51.5%)" stroke-width="1.5"></path><path d="M1611.94 -60.89L1611.46 49.58" stroke="hsl(228.5, 77.2%, 51.5%)" stroke-width="1.5"></path><path d="M1611.46 49.58L1611.46 49.58" stroke="hsl(228.5, 77.2%, 51.5%)" stroke-width="1.5"></path><path d="M1611.46 49.58L1610.62 225.56" stroke="hsl(228.5, 77.2%, 51.5%)" stroke-width="1.5"></path><path d="M1611.46 49.58L1399.61 39.38" stroke="hsl(228.5, 77.2%, 51.5%)" stroke-width="1.5"></path><path d="M1611.46 49.58L1413.62 -101.95" stroke="hsl(228.5, 77.2%, 51.5%)" stroke-width="1.5"></path><path d="M1611.46 49.58L1302.39 75.88" stroke="hsl(228.5, 77.2%, 51.5%)" stroke-width="1.5"></path><path d="M1610.62 225.56L1610.62 225.56" stroke="hsl(228.5, 77.2%, 51.5%)" stroke-width="1.5"></path><path d="M1610.62 225.56L1424.14 358.99" stroke="hsl(228.5, 77.2%, 51.5%)" stroke-width="1.5"></path><path d="M1538.3 559.43L1538.3 559.43" stroke="hsl(228.5, 77.2%, 51.5%)" stroke-width="1.5"></path><path d="M1538.3 559.43L1424.14 358.99" stroke="hsl(228.5, 77.2%, 51.5%)" stroke-width="1.5"></path><path d="M1538.3 559.43L1291.7 535.71" stroke="hsl(228.5, 77.2%, 51.5%)" stroke-width="1.5"></path><path d="M1538.3 559.43L1301.1 404.22" stroke="hsl(228.5, 77.2%, 51.5%)" stroke-width="1.5"></path><circle r="25" cx="216.59" cy="514" fill="url(&quot;#SvgjsRadialGradient1039&quot;)"></circle><circle r="25" cx="701.29" cy="510.64" fill="url(&quot;#SvgjsRadialGradient1039&quot;)"></circle><circle r="25" cx="961.7" cy="398.46" fill="url(&quot;#SvgjsRadialGradient1039&quot;)"></circle><circle r="25" cx="969.85" cy="523.95" fill="url(&quot;#SvgjsRadialGradient1039&quot;)"></circle><circle r="25" cx="1095.96" cy="213.4" fill="url(&quot;#SvgjsRadialGradient1039&quot;)"></circle><circle r="25" cx="1117.73" cy="368.94" fill="url(&quot;#SvgjsRadialGradient1039&quot;)"></circle><circle r="25" cx="1269.34" cy="687.87" fill="url(&quot;#SvgjsRadialGradient1039&quot;)"></circle><circle r="25" cx="1424.14" cy="358.99" fill="url(&quot;#SvgjsRadialGradient1039&quot;)"></circle><circle r="25" cx="1573.12" cy="396.6" fill="url(&quot;#SvgjsRadialGradient1039&quot;)"></circle><circle r="5" cx="-104.27" cy="541.75" fill="#8b9ad9"></circle><circle r="5" cx="54.87" cy="669.11" fill="#8b9ad9"></circle><circle r="5" cx="214.19" cy="645.85" fill="#8b9ad9"></circle><circle r="5" cx="378.55" cy="521.7" fill="#8b9ad9"></circle><circle r="5" cx="555.51" cy="540.98" fill="#8b9ad9"></circle><circle r="5" cx="554.4" cy="707.47" fill="#8b9ad9"></circle><circle r="5" cx="646.5" cy="654.36" fill="#8b9ad9"></circle><circle r="5" cx="813.29" cy="350.34" fill="#8b9ad9"></circle><circle r="5" cx="819.31" cy="504.85" fill="#8b9ad9"></circle><circle r="5" cx="830.31" cy="676.12" fill="#8b9ad9"></circle><circle r="5" cx="969.35" cy="704.76" fill="#8b9ad9"></circle><circle r="5" cx="1132.04" cy="655.89" fill="#8b9ad9"></circle><circle r="5" cx="1261.03" cy="-39.34" fill="#8b9ad9"></circle><circle r="5" cx="1302.39" cy="75.88" fill="#8b9ad9"></circle><circle r="5" cx="1308.38" cy="205.65" fill="#8b9ad9"></circle><circle r="5" cx="1301.1" cy="404.22" fill="#8b9ad9"></circle><circle r="5" cx="1291.7" cy="535.71" fill="#8b9ad9"></circle><circle r="5" cx="1413.62" cy="-101.95" fill="#8b9ad9"></circle><circle r="5" cx="1399.61" cy="39.38" fill="#8b9ad9"></circle><circle r="5" cx="1414.78" cy="686.82" fill="#8b9ad9"></circle><circle r="5" cx="1611.94" cy="-60.89" fill="#8b9ad9"></circle><circle r="5" cx="1611.46" cy="49.58" fill="#8b9ad9"></circle><circle r="5" cx="1610.62" cy="225.56" fill="#8b9ad9"></circle><circle r="5" cx="1538.3" cy="559.43" fill="#8b9ad9"></circle></g><defs><mask id="SvgjsMask1038"><rect width="1452" height="565" fill="#ffffff"></rect></mask><radialGradient id="SvgjsRadialGradient1039"><stop stop-color="#ffffff" offset="0.1"></stop><stop stop-color="#1735b3" offset="0.2"></stop><stop stop-color="rgba(23, 53, 179, 0)" offset="1"></stop></radialGradient></defs></svg>