<svg xmlns="http://www.w3.org/2000/svg" version="1.1" xmlns:xlink="http://www.w3.org/1999/xlink" xmlns:svgjs="http://svgjs.dev/svgjs" width="1440" height="560" preserveAspectRatio="none" viewBox="0 0 1440 560"><g mask="url(&quot;#SvgjsMask1004&quot;)" fill="none"><path d="M-88.97 382.32L-88.97 382.32" stroke="#132e65" stroke-width="1.5"></path><path d="M-88.97 382.32L-107.02 553.38" stroke="#132e65" stroke-width="1.5"></path><path d="M-107.02 553.38L-107.02 553.38" stroke="#132e65" stroke-width="1.5"></path><path d="M-107.02 553.38L-50.34 662.95" stroke="#132e65" stroke-width="1.5"></path><path d="M-107.02 553.38L50.64 495.35" stroke="#132e65" stroke-width="1.5"></path><path d="M-50.34 662.95L-50.34 662.95" stroke="#132e65" stroke-width="1.5"></path><path d="M-50.34 662.95L82.71 687.28" stroke="#132e65" stroke-width="1.5"></path><path d="M-50.34 662.95L50.64 495.35" stroke="#132e65" stroke-width="1.5"></path><path d="M-50.34 662.95L229.64 664.78" stroke="#132e65" stroke-width="1.5"></path><path d="M-50.34 662.95L-88.97 382.32" stroke="#132e65" stroke-width="1.5"></path><path d="M104.99 347.8L104.99 347.8" stroke="#132e65" stroke-width="1.5"></path><path d="M104.99 347.8L189.07 359.3" stroke="#132e65" stroke-width="1.5"></path><path d="M104.99 347.8L50.64 495.35" stroke="#132e65" stroke-width="1.5"></path><path d="M50.64 495.35L50.64 495.35" stroke="#132e65" stroke-width="1.5"></path><path d="M82.71 687.28L82.71 687.28" stroke="#132e65" stroke-width="1.5"></path><path d="M82.71 687.28L229.64 664.78" stroke="#132e65" stroke-width="1.5"></path><path d="M189.07 359.3L189.07 359.3" stroke="#132e65" stroke-width="1.5"></path><path d="M189.07 359.3L50.64 495.35" stroke="#132e65" stroke-width="1.5"></path><path d="M189.07 359.3L384.36 346.56" stroke="#132e65" stroke-width="1.5"></path><path d="M189.07 359.3L237.41 562.06" stroke="#132e65" stroke-width="1.5"></path><path d="M189.07 359.3L386.67 538.88" stroke="#132e65" stroke-width="1.5"></path><path d="M237.41 562.06L237.41 562.06" stroke="#132e65" stroke-width="1.5"></path><path d="M237.41 562.06L229.64 664.78" stroke="#132e65" stroke-width="1.5"></path><path d="M237.41 562.06L386.67 538.88" stroke="#132e65" stroke-width="1.5"></path><path d="M229.64 664.78L229.64 664.78" stroke="#132e65" stroke-width="1.5"></path><path d="M384.36 346.56L384.36 346.56" stroke="#132e65" stroke-width="1.5"></path><path d="M384.36 346.56L555.4 411.29" stroke="#132e65" stroke-width="1.5"></path><path d="M384.36 346.56L386.67 538.88" stroke="#132e65" stroke-width="1.5"></path><path d="M386.67 538.88L386.67 538.88" stroke="#132e65" stroke-width="1.5"></path><path d="M386.67 538.88L510.86 541.91" stroke="#132e65" stroke-width="1.5"></path><path d="M386.67 538.88L383.26 694.67" stroke="#132e65" stroke-width="1.5"></path><path d="M386.67 538.88L520.76 685.87" stroke="#132e65" stroke-width="1.5"></path><path d="M383.26 694.67L383.26 694.67" stroke="#132e65" stroke-width="1.5"></path><path d="M383.26 694.67L520.76 685.87" stroke="#132e65" stroke-width="1.5"></path><path d="M383.26 694.67L229.64 664.78" stroke="#132e65" stroke-width="1.5"></path><path d="M383.26 694.67L237.41 562.06" stroke="#132e65" stroke-width="1.5"></path><path d="M383.26 694.67L510.86 541.91" stroke="#132e65" stroke-width="1.5"></path><path d="M383.26 694.67L674.46 637.81" stroke="#132e65" stroke-width="1.5"></path><path d="M555.4 411.29L555.4 411.29" stroke="#132e65" stroke-width="1.5"></path><path d="M555.4 411.29L645.92 343.74" stroke="#132e65" stroke-width="1.5"></path><path d="M555.4 411.29L510.86 541.91" stroke="#132e65" stroke-width="1.5"></path><path d="M555.4 411.29L663.81 521.44" stroke="#132e65" stroke-width="1.5"></path><path d="M510.86 541.91L510.86 541.91" stroke="#132e65" stroke-width="1.5"></path><path d="M510.86 541.91L520.76 685.87" stroke="#132e65" stroke-width="1.5"></path><path d="M510.86 541.91L663.81 521.44" stroke="#132e65" stroke-width="1.5"></path><path d="M510.86 541.91L674.46 637.81" stroke="#132e65" stroke-width="1.5"></path><path d="M520.76 685.87L520.76 685.87" stroke="#132e65" stroke-width="1.5"></path><path d="M520.76 685.87L674.46 637.81" stroke="#132e65" stroke-width="1.5"></path><path d="M645.92 343.74L645.92 343.74" stroke="#132e65" stroke-width="1.5"></path><path d="M645.92 343.74L663.81 521.44" stroke="#132e65" stroke-width="1.5"></path><path d="M645.92 343.74L831.42 384.44" stroke="#132e65" stroke-width="1.5"></path><path d="M645.92 343.74L510.86 541.91" stroke="#132e65" stroke-width="1.5"></path><path d="M645.92 343.74L858.13 206.64" stroke="#132e65" stroke-width="1.5"></path><path d="M663.81 521.44L663.81 521.44" stroke="#132e65" stroke-width="1.5"></path><path d="M663.81 521.44L674.46 637.81" stroke="#132e65" stroke-width="1.5"></path><path d="M674.46 637.81L674.46 637.81" stroke="#132e65" stroke-width="1.5"></path><path d="M674.46 637.81L799 702" stroke="#132e65" stroke-width="1.5"></path><path d="M674.46 637.81L821.46 549.11" stroke="#132e65" stroke-width="1.5"></path><path d="M858.13 206.64L858.13 206.64" stroke="#132e65" stroke-width="1.5"></path><path d="M858.13 206.64L954.04 57.37" stroke="#132e65" stroke-width="1.5"></path><path d="M858.13 206.64L831.42 384.44" stroke="#132e65" stroke-width="1.5"></path><path d="M858.13 206.64L963.72 398.41" stroke="#132e65" stroke-width="1.5"></path><path d="M858.13 206.64L1101.19 231.73" stroke="#132e65" stroke-width="1.5"></path><path d="M858.13 206.64L1140.53 38.56" stroke="#132e65" stroke-width="1.5"></path><path d="M831.42 384.44L831.42 384.44" stroke="#132e65" stroke-width="1.5"></path><path d="M831.42 384.44L963.72 398.41" stroke="#132e65" stroke-width="1.5"></path><path d="M831.42 384.44L821.46 549.11" stroke="#132e65" stroke-width="1.5"></path><path d="M831.42 384.44L1007.06 505.19" stroke="#132e65" stroke-width="1.5"></path><path d="M821.46 549.11L821.46 549.11" stroke="#132e65" stroke-width="1.5"></path><path d="M821.46 549.11L799 702" stroke="#132e65" stroke-width="1.5"></path><path d="M821.46 549.11L663.81 521.44" stroke="#132e65" stroke-width="1.5"></path><path d="M821.46 549.11L1007.06 505.19" stroke="#132e65" stroke-width="1.5"></path><path d="M799 702L799 702" stroke="#132e65" stroke-width="1.5"></path><path d="M799 702L663.81 521.44" stroke="#132e65" stroke-width="1.5"></path><path d="M799 702L520.76 685.87" stroke="#132e65" stroke-width="1.5"></path><path d="M799 702L1007.06 505.19" stroke="#132e65" stroke-width="1.5"></path><path d="M1011.85 -87.43L1011.85 -87.43" stroke="#132e65" stroke-width="1.5"></path><path d="M1011.85 -87.43L1104.54 -107.48" stroke="#132e65" stroke-width="1.5"></path><path d="M1011.85 -87.43L954.04 57.37" stroke="#132e65" stroke-width="1.5"></path><path d="M1011.85 -87.43L1140.53 38.56" stroke="#132e65" stroke-width="1.5"></path><path d="M1011.85 -87.43L1292.69 -60.21" stroke="#132e65" stroke-width="1.5"></path><path d="M1011.85 -87.43L1271.24 67.57" stroke="#132e65" stroke-width="1.5"></path><path d="M1011.85 -87.43L1101.19 231.73" stroke="#132e65" stroke-width="1.5"></path><path d="M954.04 57.37L954.04 57.37" stroke="#132e65" stroke-width="1.5"></path><path d="M954.04 57.37L1140.53 38.56" stroke="#132e65" stroke-width="1.5"></path><path d="M963.72 398.41L963.72 398.41" stroke="#132e65" stroke-width="1.5"></path><path d="M963.72 398.41L1007.06 505.19" stroke="#132e65" stroke-width="1.5"></path><path d="M963.72 398.41L1130.72 400.16" stroke="#132e65" stroke-width="1.5"></path><path d="M1007.06 505.19L1007.06 505.19" stroke="#132e65" stroke-width="1.5"></path><path d="M1007.06 505.19L1090.34 548.08" stroke="#132e65" stroke-width="1.5"></path><path d="M1104.54 -107.48L1104.54 -107.48" stroke="#132e65" stroke-width="1.5"></path><path d="M1104.54 -107.48L1140.53 38.56" stroke="#132e65" stroke-width="1.5"></path><path d="M1140.53 38.56L1140.53 38.56" stroke="#132e65" stroke-width="1.5"></path><path d="M1140.53 38.56L1271.24 67.57" stroke="#132e65" stroke-width="1.5"></path><path d="M1140.53 38.56L1292.69 -60.21" stroke="#132e65" stroke-width="1.5"></path><path d="M1140.53 38.56L1101.19 231.73" stroke="#132e65" stroke-width="1.5"></path><path d="M1101.19 231.73L1101.19 231.73" stroke="#132e65" stroke-width="1.5"></path><path d="M1101.19 231.73L1270.28 220.39" stroke="#132e65" stroke-width="1.5"></path><path d="M1101.19 231.73L1130.72 400.16" stroke="#132e65" stroke-width="1.5"></path><path d="M1130.72 400.16L1130.72 400.16" stroke="#132e65" stroke-width="1.5"></path><path d="M1130.72 400.16L1090.34 548.08" stroke="#132e65" stroke-width="1.5"></path><path d="M1130.72 400.16L1283.1 364.75" stroke="#132e65" stroke-width="1.5"></path><path d="M1130.72 400.16L1007.06 505.19" stroke="#132e65" stroke-width="1.5"></path><path d="M1090.34 548.08L1090.34 548.08" stroke="#132e65" stroke-width="1.5"></path><path d="M1090.34 548.08L1116.45 649.53" stroke="#132e65" stroke-width="1.5"></path><path d="M1116.45 649.53L1116.45 649.53" stroke="#132e65" stroke-width="1.5"></path><path d="M1116.45 649.53L1245.05 535.15" stroke="#132e65" stroke-width="1.5"></path><path d="M1116.45 649.53L1007.06 505.19" stroke="#132e65" stroke-width="1.5"></path><path d="M1116.45 649.53L1303.96 678.32" stroke="#132e65" stroke-width="1.5"></path><path d="M1292.69 -60.21L1292.69 -60.21" stroke="#132e65" stroke-width="1.5"></path><path d="M1292.69 -60.21L1271.24 67.57" stroke="#132e65" stroke-width="1.5"></path><path d="M1292.69 -60.21L1457.87 -40.16" stroke="#132e65" stroke-width="1.5"></path><path d="M1292.69 -60.21L1104.54 -107.48" stroke="#132e65" stroke-width="1.5"></path><path d="M1292.69 -60.21L1451.28 86.53" stroke="#132e65" stroke-width="1.5"></path><path d="M1271.24 67.57L1271.24 67.57" stroke="#132e65" stroke-width="1.5"></path><path d="M1271.24 67.57L1270.28 220.39" stroke="#132e65" stroke-width="1.5"></path><path d="M1271.24 67.57L1451.28 86.53" stroke="#132e65" stroke-width="1.5"></path><path d="M1271.24 67.57L1457.87 -40.16" stroke="#132e65" stroke-width="1.5"></path><path d="M1271.24 67.57L1451.05 207.11" stroke="#132e65" stroke-width="1.5"></path><path d="M1270.28 220.39L1270.28 220.39" stroke="#132e65" stroke-width="1.5"></path><path d="M1270.28 220.39L1283.1 364.75" stroke="#132e65" stroke-width="1.5"></path><path d="M1283.1 364.75L1283.1 364.75" stroke="#132e65" stroke-width="1.5"></path><path d="M1283.1 364.75L1418.96 376.76" stroke="#132e65" stroke-width="1.5"></path><path d="M1283.1 364.75L1245.05 535.15" stroke="#132e65" stroke-width="1.5"></path><path d="M1283.1 364.75L1404.02 544.57" stroke="#132e65" stroke-width="1.5"></path><path d="M1283.1 364.75L1101.19 231.73" stroke="#132e65" stroke-width="1.5"></path><path d="M1245.05 535.15L1245.05 535.15" stroke="#132e65" stroke-width="1.5"></path><path d="M1245.05 535.15L1303.96 678.32" stroke="#132e65" stroke-width="1.5"></path><path d="M1245.05 535.15L1090.34 548.08" stroke="#132e65" stroke-width="1.5"></path><path d="M1245.05 535.15L1404.02 544.57" stroke="#132e65" stroke-width="1.5"></path><path d="M1303.96 678.32L1303.96 678.32" stroke="#132e65" stroke-width="1.5"></path><path d="M1303.96 678.32L1423.62 658.7" stroke="#132e65" stroke-width="1.5"></path><path d="M1303.96 678.32L1404.02 544.57" stroke="#132e65" stroke-width="1.5"></path><path d="M1457.87 -40.16L1457.87 -40.16" stroke="#132e65" stroke-width="1.5"></path><path d="M1457.87 -40.16L1543.28 46.73" stroke="#132e65" stroke-width="1.5"></path><path d="M1457.87 -40.16L1451.28 86.53" stroke="#132e65" stroke-width="1.5"></path><path d="M1457.87 -40.16L1592.13 -90.03" stroke="#132e65" stroke-width="1.5"></path><path d="M1451.28 86.53L1451.28 86.53" stroke="#132e65" stroke-width="1.5"></path><path d="M1451.28 86.53L1543.28 46.73" stroke="#132e65" stroke-width="1.5"></path><path d="M1451.28 86.53L1451.05 207.11" stroke="#132e65" stroke-width="1.5"></path><path d="M1451.05 207.11L1451.05 207.11" stroke="#132e65" stroke-width="1.5"></path><path d="M1451.05 207.11L1571.14 236.54" stroke="#132e65" stroke-width="1.5"></path><path d="M1451.05 207.11L1418.96 376.76" stroke="#132e65" stroke-width="1.5"></path><path d="M1451.05 207.11L1270.28 220.39" stroke="#132e65" stroke-width="1.5"></path><path d="M1418.96 376.76L1418.96 376.76" stroke="#132e65" stroke-width="1.5"></path><path d="M1404.02 544.57L1404.02 544.57" stroke="#132e65" stroke-width="1.5"></path><path d="M1404.02 544.57L1423.62 658.7" stroke="#132e65" stroke-width="1.5"></path><path d="M1423.62 658.7L1423.62 658.7" stroke="#132e65" stroke-width="1.5"></path><path d="M1423.62 658.7L1603.17 671.31" stroke="#132e65" stroke-width="1.5"></path><path d="M1423.62 658.7L1584.66 549.33" stroke="#132e65" stroke-width="1.5"></path><path d="M1423.62 658.7L1245.05 535.15" stroke="#132e65" stroke-width="1.5"></path><path d="M1423.62 658.7L1418.96 376.76" stroke="#132e65" stroke-width="1.5"></path><path d="M1592.13 -90.03L1592.13 -90.03" stroke="#132e65" stroke-width="1.5"></path><path d="M1592.13 -90.03L1543.28 46.73" stroke="#132e65" stroke-width="1.5"></path><path d="M1592.13 -90.03L1451.28 86.53" stroke="#132e65" stroke-width="1.5"></path><path d="M1592.13 -90.03L1292.69 -60.21" stroke="#132e65" stroke-width="1.5"></path><path d="M1592.13 -90.03L1571.14 236.54" stroke="#132e65" stroke-width="1.5"></path><path d="M1543.28 46.73L1543.28 46.73" stroke="#132e65" stroke-width="1.5"></path><path d="M1543.28 46.73L1451.05 207.11" stroke="#132e65" stroke-width="1.5"></path><path d="M1543.28 46.73L1571.14 236.54" stroke="#132e65" stroke-width="1.5"></path><path d="M1543.28 46.73L1292.69 -60.21" stroke="#132e65" stroke-width="1.5"></path><path d="M1571.14 236.54L1571.14 236.54" stroke="#132e65" stroke-width="1.5"></path><path d="M1571.14 236.54L1556.17 395.67" stroke="#132e65" stroke-width="1.5"></path><path d="M1571.14 236.54L1451.28 86.53" stroke="#132e65" stroke-width="1.5"></path><path d="M1571.14 236.54L1418.96 376.76" stroke="#132e65" stroke-width="1.5"></path><path d="M1556.17 395.67L1556.17 395.67" stroke="#132e65" stroke-width="1.5"></path><path d="M1556.17 395.67L1418.96 376.76" stroke="#132e65" stroke-width="1.5"></path><path d="M1556.17 395.67L1584.66 549.33" stroke="#132e65" stroke-width="1.5"></path><path d="M1584.66 549.33L1584.66 549.33" stroke="#132e65" stroke-width="1.5"></path><path d="M1584.66 549.33L1603.17 671.31" stroke="#132e65" stroke-width="1.5"></path><path d="M1603.17 671.31L1603.17 671.31" stroke="#132e65" stroke-width="1.5"></path><path d="M1603.17 671.31L1404.02 544.57" stroke="#132e65" stroke-width="1.5"></path><path d="M1603.17 671.31L1556.17 395.67" stroke="#132e65" stroke-width="1.5"></path><path d="M1603.17 671.31L1303.96 678.32" stroke="#132e65" stroke-width="1.5"></path><path d="M1603.17 671.31L1418.96 376.76" stroke="#132e65" stroke-width="1.5"></path><circle r="5" cx="-88.97" cy="382.32" fill="#132e65"></circle><circle r="5" cx="-107.02" cy="553.38" fill="#132e65"></circle><circle r="5" cx="-50.34" cy="662.95" fill="#132e65"></circle><circle r="5" cx="104.99" cy="347.8" fill="#132e65"></circle><circle r="5" cx="50.64" cy="495.35" fill="#132e65"></circle><circle r="5" cx="82.71" cy="687.28" fill="#132e65"></circle><circle r="5" cx="189.07" cy="359.3" fill="#132e65"></circle><circle r="5" cx="237.41" cy="562.06" fill="#132e65"></circle><circle r="5" cx="229.64" cy="664.78" fill="#132e65"></circle><circle r="5" cx="384.36" cy="346.56" fill="#132e65"></circle><circle r="5" cx="386.67" cy="538.88" fill="#132e65"></circle><circle r="5" cx="383.26" cy="694.67" fill="#132e65"></circle><circle r="5" cx="555.4" cy="411.29" fill="#132e65"></circle><circle r="5" cx="510.86" cy="541.91" fill="#132e65"></circle><circle r="5" cx="520.76" cy="685.87" fill="#132e65"></circle><circle r="5" cx="645.92" cy="343.74" fill="#132e65"></circle><circle r="5" cx="663.81" cy="521.44" fill="#132e65"></circle><circle r="5" cx="674.46" cy="637.81" fill="#132e65"></circle><circle r="5" cx="858.13" cy="206.64" fill="#132e65"></circle><circle r="5" cx="831.42" cy="384.44" fill="#132e65"></circle><circle r="5" cx="821.46" cy="549.11" fill="#132e65"></circle><circle r="5" cx="799" cy="702" fill="#132e65"></circle><circle r="5" cx="1011.85" cy="-87.43" fill="#132e65"></circle><circle r="5" cx="954.04" cy="57.37" fill="#132e65"></circle><circle r="5" cx="963.72" cy="398.41" fill="#132e65"></circle><circle r="5" cx="1007.06" cy="505.19" fill="#132e65"></circle><circle r="5" cx="1104.54" cy="-107.48" fill="#132e65"></circle><circle r="5" cx="1140.53" cy="38.56" fill="#132e65"></circle><circle r="5" cx="1101.19" cy="231.73" fill="#132e65"></circle><circle r="5" cx="1130.72" cy="400.16" fill="#132e65"></circle><circle r="5" cx="1090.34" cy="548.08" fill="#132e65"></circle><circle r="5" cx="1116.45" cy="649.53" fill="#132e65"></circle><circle r="5" cx="1292.69" cy="-60.21" fill="#132e65"></circle><circle r="5" cx="1271.24" cy="67.57" fill="#132e65"></circle><circle r="5" cx="1270.28" cy="220.39" fill="#132e65"></circle><circle r="5" cx="1283.1" cy="364.75" fill="#132e65"></circle><circle r="5" cx="1245.05" cy="535.15" fill="#132e65"></circle><circle r="5" cx="1303.96" cy="678.32" fill="#132e65"></circle><circle r="5" cx="1457.87" cy="-40.16" fill="#132e65"></circle><circle r="5" cx="1451.28" cy="86.53" fill="#132e65"></circle><circle r="5" cx="1451.05" cy="207.11" fill="#132e65"></circle><circle r="5" cx="1418.96" cy="376.76" fill="#132e65"></circle><circle r="5" cx="1404.02" cy="544.57" fill="#132e65"></circle><circle r="5" cx="1423.62" cy="658.7" fill="#132e65"></circle><circle r="5" cx="1592.13" cy="-90.03" fill="#132e65"></circle><circle r="5" cx="1543.28" cy="46.73" fill="#132e65"></circle><circle r="5" cx="1571.14" cy="236.54" fill="#132e65"></circle><circle r="5" cx="1556.17" cy="395.67" fill="#132e65"></circle><circle r="5" cx="1584.66" cy="549.33" fill="#132e65"></circle><circle r="5" cx="1603.17" cy="671.31" fill="#132e65"></circle><path d="M390.97 492.77L390.97 492.77" stroke="hsl(228.5, 77.2%, 51.5%)" stroke-width="1.5"></path><path d="M390.97 492.77L520.81 503" stroke="hsl(228.5, 77.2%, 51.5%)" stroke-width="1.5"></path><path d="M390.97 492.77L250.89 517.01" stroke="hsl(228.5, 77.2%, 51.5%)" stroke-width="1.5"></path><path d="M390.97 492.77L358.71 651.4" stroke="hsl(228.5, 77.2%, 51.5%)" stroke-width="1.5"></path><path d="M390.97 492.77L539.24 400.31" stroke="hsl(228.5, 77.2%, 51.5%)" stroke-width="1.5"></path><path d="M390.97 492.77L534.99 699.31" stroke="hsl(228.5, 77.2%, 51.5%)" stroke-width="1.5"></path><path d="M390.97 492.77L188.74 698.87" stroke="hsl(228.5, 77.2%, 51.5%)" stroke-width="1.5"></path><path d="M832.43 399.62L832.43 399.62" stroke="hsl(228.5, 77.2%, 51.5%)" stroke-width="1.5"></path><path d="M832.43 399.62L815.57 500.26" stroke="hsl(228.5, 77.2%, 51.5%)" stroke-width="1.5"></path><path d="M832.43 399.62L972.15 378.89" stroke="hsl(228.5, 77.2%, 51.5%)" stroke-width="1.5"></path><path d="M832.43 399.62L669.22 410.79" stroke="hsl(228.5, 77.2%, 51.5%)" stroke-width="1.5"></path><path d="M832.43 399.62L689.68 508.97" stroke="hsl(228.5, 77.2%, 51.5%)" stroke-width="1.5"></path><path d="M815.57 500.26L815.57 500.26" stroke="hsl(228.5, 77.2%, 51.5%)" stroke-width="1.5"></path><path d="M815.57 500.26L689.68 508.97" stroke="hsl(228.5, 77.2%, 51.5%)" stroke-width="1.5"></path><path d="M815.57 500.26L809.63 638.68" stroke="hsl(228.5, 77.2%, 51.5%)" stroke-width="1.5"></path><path d="M815.57 500.26L967.31 544.11" stroke="hsl(228.5, 77.2%, 51.5%)" stroke-width="1.5"></path><path d="M815.57 500.26L669.22 410.79" stroke="hsl(228.5, 77.2%, 51.5%)" stroke-width="1.5"></path><path d="M1151.73 487.84L1151.73 487.84" stroke="hsl(228.5, 77.2%, 51.5%)" stroke-width="1.5"></path><path d="M1151.73 487.84L1245.25 373.57" stroke="hsl(228.5, 77.2%, 51.5%)" stroke-width="1.5"></path><path d="M1151.73 487.84L1138.33 338.7" stroke="hsl(228.5, 77.2%, 51.5%)" stroke-width="1.5"></path><path d="M1151.73 487.84L1308.73 550.26" stroke="hsl(228.5, 77.2%, 51.5%)" stroke-width="1.5"></path><path d="M1151.73 487.84L967.31 544.11" stroke="hsl(228.5, 77.2%, 51.5%)" stroke-width="1.5"></path><path d="M1245.25 373.57L1245.25 373.57" stroke="hsl(228.5, 77.2%, 51.5%)" stroke-width="1.5"></path><path d="M1245.25 373.57L1138.33 338.7" stroke="hsl(228.5, 77.2%, 51.5%)" stroke-width="1.5"></path><path d="M1245.25 373.57L1254.04 196.23" stroke="hsl(228.5, 77.2%, 51.5%)" stroke-width="1.5"></path><path d="M1245.25 373.57L1158.31 207.83" stroke="hsl(228.5, 77.2%, 51.5%)" stroke-width="1.5"></path><path d="M1245.25 373.57L1308.73 550.26" stroke="hsl(228.5, 77.2%, 51.5%)" stroke-width="1.5"></path><path d="M1245.25 373.57L1457.72 256.26" stroke="hsl(228.5, 77.2%, 51.5%)" stroke-width="1.5"></path><path d="M1451.38 546.02L1451.38 546.02" stroke="hsl(228.5, 77.2%, 51.5%)" stroke-width="1.5"></path><path d="M1451.38 546.02L1400.88 647.96" stroke="hsl(228.5, 77.2%, 51.5%)" stroke-width="1.5"></path><path d="M1611.67 216.46L1611.67 216.46" stroke="hsl(228.5, 77.2%, 51.5%)" stroke-width="1.5"></path><path d="M1611.67 216.46L1597.82 366.63" stroke="hsl(228.5, 77.2%, 51.5%)" stroke-width="1.5"></path><path d="M1611.67 216.46L1550.68 70.75" stroke="hsl(228.5, 77.2%, 51.5%)" stroke-width="1.5"></path><path d="M1611.67 216.46L1457.72 256.26" stroke="hsl(228.5, 77.2%, 51.5%)" stroke-width="1.5"></path><path d="M1611.67 216.46L1444.79 97.33" stroke="hsl(228.5, 77.2%, 51.5%)" stroke-width="1.5"></path><path d="M1611.67 216.46L1540.45 -95.84" stroke="hsl(228.5, 77.2%, 51.5%)" stroke-width="1.5"></path><path d="M1611.67 216.46L1446.33 -69.66" stroke="hsl(228.5, 77.2%, 51.5%)" stroke-width="1.5"></path><path d="M1570.48 560.11L1570.48 560.11" stroke="hsl(228.5, 77.2%, 51.5%)" stroke-width="1.5"></path><path d="M1570.48 560.11L1451.38 546.02" stroke="hsl(228.5, 77.2%, 51.5%)" stroke-width="1.5"></path><path d="M1570.48 560.11L1400.88 647.96" stroke="hsl(228.5, 77.2%, 51.5%)" stroke-width="1.5"></path><path d="M1570.48 560.11L1597.82 366.63" stroke="hsl(228.5, 77.2%, 51.5%)" stroke-width="1.5"></path><path d="M1570.48 560.11L1308.73 550.26" stroke="hsl(228.5, 77.2%, 51.5%)" stroke-width="1.5"></path><path d="M1570.48 560.11L1267.15 660.52" stroke="hsl(228.5, 77.2%, 51.5%)" stroke-width="1.5"></path><path d="M-85.21 537.26L-85.21 537.26" stroke="hsl(228.5, 77.2%, 51.5%)" stroke-width="1.5"></path><path d="M-85.21 537.26L-85.09 638.4" stroke="hsl(228.5, 77.2%, 51.5%)" stroke-width="1.5"></path><path d="M-85.21 537.26L83.41 488.58" stroke="hsl(228.5, 77.2%, 51.5%)" stroke-width="1.5"></path><path d="M-85.21 537.26L98.27 709.94" stroke="hsl(228.5, 77.2%, 51.5%)" stroke-width="1.5"></path><path d="M-85.09 638.4L-85.09 638.4" stroke="hsl(228.5, 77.2%, 51.5%)" stroke-width="1.5"></path><path d="M-85.09 638.4L98.27 709.94" stroke="hsl(228.5, 77.2%, 51.5%)" stroke-width="1.5"></path><path d="M-85.09 638.4L83.41 488.58" stroke="hsl(228.5, 77.2%, 51.5%)" stroke-width="1.5"></path><path d="M-85.09 638.4L188.74 698.87" stroke="hsl(228.5, 77.2%, 51.5%)" stroke-width="1.5"></path><path d="M-85.09 638.4L250.89 517.01" stroke="hsl(228.5, 77.2%, 51.5%)" stroke-width="1.5"></path><path d="M-85.09 638.4L358.71 651.4" stroke="hsl(228.5, 77.2%, 51.5%)" stroke-width="1.5"></path><path d="M83.41 488.58L83.41 488.58" stroke="hsl(228.5, 77.2%, 51.5%)" stroke-width="1.5"></path><path d="M83.41 488.58L250.89 517.01" stroke="hsl(228.5, 77.2%, 51.5%)" stroke-width="1.5"></path><path d="M83.41 488.58L98.27 709.94" stroke="hsl(228.5, 77.2%, 51.5%)" stroke-width="1.5"></path><path d="M83.41 488.58L188.74 698.87" stroke="hsl(228.5, 77.2%, 51.5%)" stroke-width="1.5"></path><path d="M98.27 709.94L98.27 709.94" stroke="hsl(228.5, 77.2%, 51.5%)" stroke-width="1.5"></path><path d="M98.27 709.94L188.74 698.87" stroke="hsl(228.5, 77.2%, 51.5%)" stroke-width="1.5"></path><path d="M250.89 517.01L250.89 517.01" stroke="hsl(228.5, 77.2%, 51.5%)" stroke-width="1.5"></path><path d="M250.89 517.01L358.71 651.4" stroke="hsl(228.5, 77.2%, 51.5%)" stroke-width="1.5"></path><path d="M250.89 517.01L188.74 698.87" stroke="hsl(228.5, 77.2%, 51.5%)" stroke-width="1.5"></path><path d="M188.74 698.87L188.74 698.87" stroke="hsl(228.5, 77.2%, 51.5%)" stroke-width="1.5"></path><path d="M188.74 698.87L358.71 651.4" stroke="hsl(228.5, 77.2%, 51.5%)" stroke-width="1.5"></path><path d="M358.71 651.4L358.71 651.4" stroke="hsl(228.5, 77.2%, 51.5%)" stroke-width="1.5"></path><path d="M358.71 651.4L534.99 699.31" stroke="hsl(228.5, 77.2%, 51.5%)" stroke-width="1.5"></path><path d="M358.71 651.4L520.81 503" stroke="hsl(228.5, 77.2%, 51.5%)" stroke-width="1.5"></path><path d="M539.24 400.31L539.24 400.31" stroke="hsl(228.5, 77.2%, 51.5%)" stroke-width="1.5"></path><path d="M539.24 400.31L520.81 503" stroke="hsl(228.5, 77.2%, 51.5%)" stroke-width="1.5"></path><path d="M539.24 400.31L669.22 410.79" stroke="hsl(228.5, 77.2%, 51.5%)" stroke-width="1.5"></path><path d="M520.81 503L520.81 503" stroke="hsl(228.5, 77.2%, 51.5%)" stroke-width="1.5"></path><path d="M520.81 503L689.68 508.97" stroke="hsl(228.5, 77.2%, 51.5%)" stroke-width="1.5"></path><path d="M520.81 503L669.22 410.79" stroke="hsl(228.5, 77.2%, 51.5%)" stroke-width="1.5"></path><path d="M520.81 503L534.99 699.31" stroke="hsl(228.5, 77.2%, 51.5%)" stroke-width="1.5"></path><path d="M520.81 503L676.5 657.65" stroke="hsl(228.5, 77.2%, 51.5%)" stroke-width="1.5"></path><path d="M534.99 699.31L534.99 699.31" stroke="hsl(228.5, 77.2%, 51.5%)" stroke-width="1.5"></path><path d="M534.99 699.31L676.5 657.65" stroke="hsl(228.5, 77.2%, 51.5%)" stroke-width="1.5"></path><path d="M534.99 699.31L689.68 508.97" stroke="hsl(228.5, 77.2%, 51.5%)" stroke-width="1.5"></path><path d="M669.22 410.79L669.22 410.79" stroke="hsl(228.5, 77.2%, 51.5%)" stroke-width="1.5"></path><path d="M669.22 410.79L689.68 508.97" stroke="hsl(228.5, 77.2%, 51.5%)" stroke-width="1.5"></path><path d="M689.68 508.97L689.68 508.97" stroke="hsl(228.5, 77.2%, 51.5%)" stroke-width="1.5"></path><path d="M689.68 508.97L676.5 657.65" stroke="hsl(228.5, 77.2%, 51.5%)" stroke-width="1.5"></path><path d="M689.68 508.97L809.63 638.68" stroke="hsl(228.5, 77.2%, 51.5%)" stroke-width="1.5"></path><path d="M676.5 657.65L676.5 657.65" stroke="hsl(228.5, 77.2%, 51.5%)" stroke-width="1.5"></path><path d="M676.5 657.65L809.63 638.68" stroke="hsl(228.5, 77.2%, 51.5%)" stroke-width="1.5"></path><path d="M676.5 657.65L815.57 500.26" stroke="hsl(228.5, 77.2%, 51.5%)" stroke-width="1.5"></path><path d="M676.5 657.65L669.22 410.79" stroke="hsl(228.5, 77.2%, 51.5%)" stroke-width="1.5"></path><path d="M809.63 638.68L809.63 638.68" stroke="hsl(228.5, 77.2%, 51.5%)" stroke-width="1.5"></path><path d="M809.63 638.68L967.31 544.11" stroke="hsl(228.5, 77.2%, 51.5%)" stroke-width="1.5"></path><path d="M809.63 638.68L1012.21 694.8" stroke="hsl(228.5, 77.2%, 51.5%)" stroke-width="1.5"></path><path d="M809.63 638.68L832.43 399.62" stroke="hsl(228.5, 77.2%, 51.5%)" stroke-width="1.5"></path><path d="M972.15 378.89L972.15 378.89" stroke="hsl(228.5, 77.2%, 51.5%)" stroke-width="1.5"></path><path d="M972.15 378.89L967.31 544.11" stroke="hsl(228.5, 77.2%, 51.5%)" stroke-width="1.5"></path><path d="M972.15 378.89L1138.33 338.7" stroke="hsl(228.5, 77.2%, 51.5%)" stroke-width="1.5"></path><path d="M972.15 378.89L815.57 500.26" stroke="hsl(228.5, 77.2%, 51.5%)" stroke-width="1.5"></path><path d="M967.31 544.11L967.31 544.11" stroke="hsl(228.5, 77.2%, 51.5%)" stroke-width="1.5"></path><path d="M967.31 544.11L1012.21 694.8" stroke="hsl(228.5, 77.2%, 51.5%)" stroke-width="1.5"></path><path d="M1012.21 694.8L1012.21 694.8" stroke="hsl(228.5, 77.2%, 51.5%)" stroke-width="1.5"></path><path d="M1012.21 694.8L1108.46 702.36" stroke="hsl(228.5, 77.2%, 51.5%)" stroke-width="1.5"></path><path d="M1012.21 694.8L1151.73 487.84" stroke="hsl(228.5, 77.2%, 51.5%)" stroke-width="1.5"></path><path d="M1012.21 694.8L1267.15 660.52" stroke="hsl(228.5, 77.2%, 51.5%)" stroke-width="1.5"></path><path d="M1012.21 694.8L815.57 500.26" stroke="hsl(228.5, 77.2%, 51.5%)" stroke-width="1.5"></path><path d="M1154.31 -61.53L1154.31 -61.53" stroke="hsl(228.5, 77.2%, 51.5%)" stroke-width="1.5"></path><path d="M1154.31 -61.53L1239.46 67.71" stroke="hsl(228.5, 77.2%, 51.5%)" stroke-width="1.5"></path><path d="M1154.31 -61.53L1130.78 98.89" stroke="hsl(228.5, 77.2%, 51.5%)" stroke-width="1.5"></path><path d="M1154.31 -61.53L1158.31 207.83" stroke="hsl(228.5, 77.2%, 51.5%)" stroke-width="1.5"></path><path d="M1154.31 -61.53L1254.04 196.23" stroke="hsl(228.5, 77.2%, 51.5%)" stroke-width="1.5"></path><path d="M1130.78 98.89L1130.78 98.89" stroke="hsl(228.5, 77.2%, 51.5%)" stroke-width="1.5"></path><path d="M1130.78 98.89L1158.31 207.83" stroke="hsl(228.5, 77.2%, 51.5%)" stroke-width="1.5"></path><path d="M1130.78 98.89L1239.46 67.71" stroke="hsl(228.5, 77.2%, 51.5%)" stroke-width="1.5"></path><path d="M1130.78 98.89L1254.04 196.23" stroke="hsl(228.5, 77.2%, 51.5%)" stroke-width="1.5"></path><path d="M1158.31 207.83L1158.31 207.83" stroke="hsl(228.5, 77.2%, 51.5%)" stroke-width="1.5"></path><path d="M1158.31 207.83L1254.04 196.23" stroke="hsl(228.5, 77.2%, 51.5%)" stroke-width="1.5"></path><path d="M1138.33 338.7L1138.33 338.7" stroke="hsl(228.5, 77.2%, 51.5%)" stroke-width="1.5"></path><path d="M1138.33 338.7L1158.31 207.83" stroke="hsl(228.5, 77.2%, 51.5%)" stroke-width="1.5"></path><path d="M1138.33 338.7L1254.04 196.23" stroke="hsl(228.5, 77.2%, 51.5%)" stroke-width="1.5"></path><path d="M1138.33 338.7L1130.78 98.89" stroke="hsl(228.5, 77.2%, 51.5%)" stroke-width="1.5"></path><path d="M1108.46 702.36L1108.46 702.36" stroke="hsl(228.5, 77.2%, 51.5%)" stroke-width="1.5"></path><path d="M1108.46 702.36L1267.15 660.52" stroke="hsl(228.5, 77.2%, 51.5%)" stroke-width="1.5"></path><path d="M1239.46 67.71L1239.46 67.71" stroke="hsl(228.5, 77.2%, 51.5%)" stroke-width="1.5"></path><path d="M1239.46 67.71L1254.04 196.23" stroke="hsl(228.5, 77.2%, 51.5%)" stroke-width="1.5"></path><path d="M1254.04 196.23L1254.04 196.23" stroke="hsl(228.5, 77.2%, 51.5%)" stroke-width="1.5"></path><path d="M1308.73 550.26L1308.73 550.26" stroke="hsl(228.5, 77.2%, 51.5%)" stroke-width="1.5"></path><path d="M1308.73 550.26L1267.15 660.52" stroke="hsl(228.5, 77.2%, 51.5%)" stroke-width="1.5"></path><path d="M1308.73 550.26L1400.88 647.96" stroke="hsl(228.5, 77.2%, 51.5%)" stroke-width="1.5"></path><path d="M1308.73 550.26L1451.38 546.02" stroke="hsl(228.5, 77.2%, 51.5%)" stroke-width="1.5"></path><path d="M1267.15 660.52L1267.15 660.52" stroke="hsl(228.5, 77.2%, 51.5%)" stroke-width="1.5"></path><path d="M1267.15 660.52L1400.88 647.96" stroke="hsl(228.5, 77.2%, 51.5%)" stroke-width="1.5"></path><path d="M1267.15 660.52L1151.73 487.84" stroke="hsl(228.5, 77.2%, 51.5%)" stroke-width="1.5"></path><path d="M1267.15 660.52L1451.38 546.02" stroke="hsl(228.5, 77.2%, 51.5%)" stroke-width="1.5"></path><path d="M1446.33 -69.66L1446.33 -69.66" stroke="hsl(228.5, 77.2%, 51.5%)" stroke-width="1.5"></path><path d="M1446.33 -69.66L1540.45 -95.84" stroke="hsl(228.5, 77.2%, 51.5%)" stroke-width="1.5"></path><path d="M1446.33 -69.66L1444.79 97.33" stroke="hsl(228.5, 77.2%, 51.5%)" stroke-width="1.5"></path><path d="M1446.33 -69.66L1550.68 70.75" stroke="hsl(228.5, 77.2%, 51.5%)" stroke-width="1.5"></path><path d="M1446.33 -69.66L1239.46 67.71" stroke="hsl(228.5, 77.2%, 51.5%)" stroke-width="1.5"></path><path d="M1446.33 -69.66L1154.31 -61.53" stroke="hsl(228.5, 77.2%, 51.5%)" stroke-width="1.5"></path><path d="M1444.79 97.33L1444.79 97.33" stroke="hsl(228.5, 77.2%, 51.5%)" stroke-width="1.5"></path><path d="M1444.79 97.33L1550.68 70.75" stroke="hsl(228.5, 77.2%, 51.5%)" stroke-width="1.5"></path><path d="M1444.79 97.33L1457.72 256.26" stroke="hsl(228.5, 77.2%, 51.5%)" stroke-width="1.5"></path><path d="M1457.72 256.26L1457.72 256.26" stroke="hsl(228.5, 77.2%, 51.5%)" stroke-width="1.5"></path><path d="M1457.72 256.26L1597.82 366.63" stroke="hsl(228.5, 77.2%, 51.5%)" stroke-width="1.5"></path><path d="M1457.72 256.26L1550.68 70.75" stroke="hsl(228.5, 77.2%, 51.5%)" stroke-width="1.5"></path><path d="M1457.72 256.26L1254.04 196.23" stroke="hsl(228.5, 77.2%, 51.5%)" stroke-width="1.5"></path><path d="M1400.88 647.96L1400.88 647.96" stroke="hsl(228.5, 77.2%, 51.5%)" stroke-width="1.5"></path><path d="M1540.45 -95.84L1540.45 -95.84" stroke="hsl(228.5, 77.2%, 51.5%)" stroke-width="1.5"></path><path d="M1540.45 -95.84L1550.68 70.75" stroke="hsl(228.5, 77.2%, 51.5%)" stroke-width="1.5"></path><path d="M1540.45 -95.84L1444.79 97.33" stroke="hsl(228.5, 77.2%, 51.5%)" stroke-width="1.5"></path><path d="M1540.45 -95.84L1239.46 67.71" stroke="hsl(228.5, 77.2%, 51.5%)" stroke-width="1.5"></path><path d="M1540.45 -95.84L1457.72 256.26" stroke="hsl(228.5, 77.2%, 51.5%)" stroke-width="1.5"></path><path d="M1550.68 70.75L1550.68 70.75" stroke="hsl(228.5, 77.2%, 51.5%)" stroke-width="1.5"></path><path d="M1597.82 366.63L1597.82 366.63" stroke="hsl(228.5, 77.2%, 51.5%)" stroke-width="1.5"></path><circle r="25" cx="390.97" cy="492.77" fill="url(&quot;#SvgjsRadialGradient1005&quot;)"></circle><circle r="25" cx="832.43" cy="399.62" fill="url(&quot;#SvgjsRadialGradient1005&quot;)"></circle><circle r="25" cx="815.57" cy="500.26" fill="url(&quot;#SvgjsRadialGradient1005&quot;)"></circle><circle r="25" cx="1151.73" cy="487.84" fill="url(&quot;#SvgjsRadialGradient1005&quot;)"></circle><circle r="25" cx="1245.25" cy="373.57" fill="url(&quot;#SvgjsRadialGradient1005&quot;)"></circle><circle r="25" cx="1451.38" cy="546.02" fill="url(&quot;#SvgjsRadialGradient1005&quot;)"></circle><circle r="25" cx="1611.67" cy="216.46" fill="url(&quot;#SvgjsRadialGradient1005&quot;)"></circle><circle r="25" cx="1570.48" cy="560.11" fill="url(&quot;#SvgjsRadialGradient1005&quot;)"></circle><circle r="5" cx="-85.21" cy="537.26" fill="#8b9ad9"></circle><circle r="5" cx="-85.09" cy="638.4" fill="#8b9ad9"></circle><circle r="5" cx="83.41" cy="488.58" fill="#8b9ad9"></circle><circle r="5" cx="98.27" cy="709.94" fill="#8b9ad9"></circle><circle r="5" cx="250.89" cy="517.01" fill="#8b9ad9"></circle><circle r="5" cx="188.74" cy="698.87" fill="#8b9ad9"></circle><circle r="5" cx="358.71" cy="651.4" fill="#8b9ad9"></circle><circle r="5" cx="539.24" cy="400.31" fill="#8b9ad9"></circle><circle r="5" cx="520.81" cy="503" fill="#8b9ad9"></circle><circle r="5" cx="534.99" cy="699.31" fill="#8b9ad9"></circle><circle r="5" cx="669.22" cy="410.79" fill="#8b9ad9"></circle><circle r="5" cx="689.68" cy="508.97" fill="#8b9ad9"></circle><circle r="5" cx="676.5" cy="657.65" fill="#8b9ad9"></circle><circle r="5" cx="809.63" cy="638.68" fill="#8b9ad9"></circle><circle r="5" cx="972.15" cy="378.89" fill="#8b9ad9"></circle><circle r="5" cx="967.31" cy="544.11" fill="#8b9ad9"></circle><circle r="5" cx="1012.21" cy="694.8" fill="#8b9ad9"></circle><circle r="5" cx="1154.31" cy="-61.53" fill="#8b9ad9"></circle><circle r="5" cx="1130.78" cy="98.89" fill="#8b9ad9"></circle><circle r="5" cx="1158.31" cy="207.83" fill="#8b9ad9"></circle><circle r="5" cx="1138.33" cy="338.7" fill="#8b9ad9"></circle><circle r="5" cx="1108.46" cy="702.36" fill="#8b9ad9"></circle><circle r="5" cx="1239.46" cy="67.71" fill="#8b9ad9"></circle><circle r="5" cx="1254.04" cy="196.23" fill="#8b9ad9"></circle><circle r="5" cx="1308.73" cy="550.26" fill="#8b9ad9"></circle><circle r="5" cx="1267.15" cy="660.52" fill="#8b9ad9"></circle><circle r="5" cx="1446.33" cy="-69.66" fill="#8b9ad9"></circle><circle r="5" cx="1444.79" cy="97.33" fill="#8b9ad9"></circle><circle r="5" cx="1457.72" cy="256.26" fill="#8b9ad9"></circle><circle r="5" cx="1400.88" cy="647.96" fill="#8b9ad9"></circle><circle r="5" cx="1540.45" cy="-95.84" fill="#8b9ad9"></circle><circle r="5" cx="1550.68" cy="70.75" fill="#8b9ad9"></circle><circle r="5" cx="1597.82" cy="366.63" fill="#8b9ad9"></circle></g><defs><mask id="SvgjsMask1004"><rect width="1440" height="560" fill="#ffffff"></rect></mask><radialGradient id="SvgjsRadialGradient1005"><stop stop-color="#ffffff" offset="0.1"></stop><stop stop-color="#1735b3" offset="0.2"></stop><stop stop-color="rgba(23, 53, 179, 0)" offset="1"></stop></radialGradient></defs></svg>