<svg xmlns="http://www.w3.org/2000/svg" version="1.1" xmlns:xlink="http://www.w3.org/1999/xlink" xmlns:svgjs="http://svgjs.dev/svgjs" width="1440" height="560" preserveAspectRatio="none" viewBox="0 0 1440 560"><g mask="url(&quot;#SvgjsMask1008&quot;)" fill="none"><path d="M-76.21 337.94L-76.21 337.94" stroke="#132e65" stroke-width="1.5"></path><path d="M-76.21 337.94L68.22 341" stroke="#132e65" stroke-width="1.5"></path><path d="M-65.19 532.43L-65.19 532.43" stroke="#132e65" stroke-width="1.5"></path><path d="M-65.19 532.43L63.47 539" stroke="#132e65" stroke-width="1.5"></path><path d="M-65.19 532.43L-58.33 694.48" stroke="#132e65" stroke-width="1.5"></path><path d="M-65.19 532.43L-76.21 337.94" stroke="#132e65" stroke-width="1.5"></path><path d="M-65.19 532.43L58.37 693.83" stroke="#132e65" stroke-width="1.5"></path><path d="M-58.33 694.48L-58.33 694.48" stroke="#132e65" stroke-width="1.5"></path><path d="M-58.33 694.48L58.37 693.83" stroke="#132e65" stroke-width="1.5"></path><path d="M-58.33 694.48L63.47 539" stroke="#132e65" stroke-width="1.5"></path><path d="M68.22 341L68.22 341" stroke="#132e65" stroke-width="1.5"></path><path d="M68.22 341L218.79 375.86" stroke="#132e65" stroke-width="1.5"></path><path d="M68.22 341L63.47 539" stroke="#132e65" stroke-width="1.5"></path><path d="M68.22 341L-65.19 532.43" stroke="#132e65" stroke-width="1.5"></path><path d="M63.47 539L63.47 539" stroke="#132e65" stroke-width="1.5"></path><path d="M63.47 539L58.37 693.83" stroke="#132e65" stroke-width="1.5"></path><path d="M58.37 693.83L58.37 693.83" stroke="#132e65" stroke-width="1.5"></path><path d="M58.37 693.83L204.77 666.33" stroke="#132e65" stroke-width="1.5"></path><path d="M218.79 375.86L218.79 375.86" stroke="#132e65" stroke-width="1.5"></path><path d="M218.79 375.86L243.66 504.07" stroke="#132e65" stroke-width="1.5"></path><path d="M218.79 375.86L406.93 361.22" stroke="#132e65" stroke-width="1.5"></path><path d="M218.79 375.86L63.47 539" stroke="#132e65" stroke-width="1.5"></path><path d="M218.79 375.86L394.9 531.68" stroke="#132e65" stroke-width="1.5"></path><path d="M243.66 504.07L243.66 504.07" stroke="#132e65" stroke-width="1.5"></path><path d="M243.66 504.07L394.9 531.68" stroke="#132e65" stroke-width="1.5"></path><path d="M204.77 666.33L204.77 666.33" stroke="#132e65" stroke-width="1.5"></path><path d="M204.77 666.33L243.66 504.07" stroke="#132e65" stroke-width="1.5"></path><path d="M204.77 666.33L63.47 539" stroke="#132e65" stroke-width="1.5"></path><path d="M204.77 666.33L411.44 638.7" stroke="#132e65" stroke-width="1.5"></path><path d="M204.77 666.33L394.9 531.68" stroke="#132e65" stroke-width="1.5"></path><path d="M204.77 666.33L-58.33 694.48" stroke="#132e65" stroke-width="1.5"></path><path d="M406.93 361.22L406.93 361.22" stroke="#132e65" stroke-width="1.5"></path><path d="M406.93 361.22L493.82 377.23" stroke="#132e65" stroke-width="1.5"></path><path d="M406.93 361.22L394.9 531.68" stroke="#132e65" stroke-width="1.5"></path><path d="M406.93 361.22L532.53 493.66" stroke="#132e65" stroke-width="1.5"></path><path d="M394.9 531.68L394.9 531.68" stroke="#132e65" stroke-width="1.5"></path><path d="M394.9 531.68L411.44 638.7" stroke="#132e65" stroke-width="1.5"></path><path d="M411.44 638.7L411.44 638.7" stroke="#132e65" stroke-width="1.5"></path><path d="M411.44 638.7L549.99 665.55" stroke="#132e65" stroke-width="1.5"></path><path d="M411.44 638.7L532.53 493.66" stroke="#132e65" stroke-width="1.5"></path><path d="M493.82 377.23L493.82 377.23" stroke="#132e65" stroke-width="1.5"></path><path d="M493.82 377.23L532.53 493.66" stroke="#132e65" stroke-width="1.5"></path><path d="M493.82 377.23L394.9 531.68" stroke="#132e65" stroke-width="1.5"></path><path d="M493.82 377.23L645.69 255.48" stroke="#132e65" stroke-width="1.5"></path><path d="M532.53 493.66L532.53 493.66" stroke="#132e65" stroke-width="1.5"></path><path d="M532.53 493.66L643.59 545.87" stroke="#132e65" stroke-width="1.5"></path><path d="M532.53 493.66L394.9 531.68" stroke="#132e65" stroke-width="1.5"></path><path d="M532.53 493.66L549.99 665.55" stroke="#132e65" stroke-width="1.5"></path><path d="M549.99 665.55L549.99 665.55" stroke="#132e65" stroke-width="1.5"></path><path d="M549.99 665.55L699.37 679.57" stroke="#132e65" stroke-width="1.5"></path><path d="M549.99 665.55L643.59 545.87" stroke="#132e65" stroke-width="1.5"></path><path d="M645.69 255.48L645.69 255.48" stroke="#132e65" stroke-width="1.5"></path><path d="M645.69 255.48L796.06 231.15" stroke="#132e65" stroke-width="1.5"></path><path d="M643.59 545.87L643.59 545.87" stroke="#132e65" stroke-width="1.5"></path><path d="M643.59 545.87L699.37 679.57" stroke="#132e65" stroke-width="1.5"></path><path d="M643.59 545.87L837.95 654.83" stroke="#132e65" stroke-width="1.5"></path><path d="M643.59 545.87L493.82 377.23" stroke="#132e65" stroke-width="1.5"></path><path d="M643.59 545.87L807.2 384.9" stroke="#132e65" stroke-width="1.5"></path><path d="M699.37 679.57L699.37 679.57" stroke="#132e65" stroke-width="1.5"></path><path d="M699.37 679.57L837.95 654.83" stroke="#132e65" stroke-width="1.5"></path><path d="M796.06 231.15L796.06 231.15" stroke="#132e65" stroke-width="1.5"></path><path d="M796.06 231.15L807.2 384.9" stroke="#132e65" stroke-width="1.5"></path><path d="M796.06 231.15L991.4 191.39" stroke="#132e65" stroke-width="1.5"></path><path d="M796.06 231.15L960.56 81.71" stroke="#132e65" stroke-width="1.5"></path><path d="M796.06 231.15L1011.68 411.29" stroke="#132e65" stroke-width="1.5"></path><path d="M807.2 384.9L807.2 384.9" stroke="#132e65" stroke-width="1.5"></path><path d="M807.2 384.9L1011.68 411.29" stroke="#132e65" stroke-width="1.5"></path><path d="M807.2 384.9L645.69 255.48" stroke="#132e65" stroke-width="1.5"></path><path d="M807.2 384.9L988.19 538.47" stroke="#132e65" stroke-width="1.5"></path><path d="M837.95 654.83L837.95 654.83" stroke="#132e65" stroke-width="1.5"></path><path d="M837.95 654.83L977.52 656.27" stroke="#132e65" stroke-width="1.5"></path><path d="M837.95 654.83L988.19 538.47" stroke="#132e65" stroke-width="1.5"></path><path d="M957.72 -103.83L957.72 -103.83" stroke="#132e65" stroke-width="1.5"></path><path d="M957.72 -103.83L1126.44 -105.51" stroke="#132e65" stroke-width="1.5"></path><path d="M960.56 81.71L960.56 81.71" stroke="#132e65" stroke-width="1.5"></path><path d="M960.56 81.71L991.4 191.39" stroke="#132e65" stroke-width="1.5"></path><path d="M960.56 81.71L1096.4 94.25" stroke="#132e65" stroke-width="1.5"></path><path d="M960.56 81.71L957.72 -103.83" stroke="#132e65" stroke-width="1.5"></path><path d="M960.56 81.71L1113.35 237.03" stroke="#132e65" stroke-width="1.5"></path><path d="M960.56 81.71L1126.44 -105.51" stroke="#132e65" stroke-width="1.5"></path><path d="M991.4 191.39L991.4 191.39" stroke="#132e65" stroke-width="1.5"></path><path d="M991.4 191.39L1113.35 237.03" stroke="#132e65" stroke-width="1.5"></path><path d="M991.4 191.39L1096.4 94.25" stroke="#132e65" stroke-width="1.5"></path><path d="M991.4 191.39L1120.59 345.48" stroke="#132e65" stroke-width="1.5"></path><path d="M991.4 191.39L1011.68 411.29" stroke="#132e65" stroke-width="1.5"></path><path d="M1011.68 411.29L1011.68 411.29" stroke="#132e65" stroke-width="1.5"></path><path d="M1011.68 411.29L1120.59 345.48" stroke="#132e65" stroke-width="1.5"></path><path d="M1011.68 411.29L988.19 538.47" stroke="#132e65" stroke-width="1.5"></path><path d="M988.19 538.47L988.19 538.47" stroke="#132e65" stroke-width="1.5"></path><path d="M988.19 538.47L977.52 656.27" stroke="#132e65" stroke-width="1.5"></path><path d="M988.19 538.47L1117.4 495.38" stroke="#132e65" stroke-width="1.5"></path><path d="M988.19 538.47L1091.76 653.34" stroke="#132e65" stroke-width="1.5"></path><path d="M988.19 538.47L1120.59 345.48" stroke="#132e65" stroke-width="1.5"></path><path d="M977.52 656.27L977.52 656.27" stroke="#132e65" stroke-width="1.5"></path><path d="M977.52 656.27L1091.76 653.34" stroke="#132e65" stroke-width="1.5"></path><path d="M1126.44 -105.51L1126.44 -105.51" stroke="#132e65" stroke-width="1.5"></path><path d="M1126.44 -105.51L1286.85 -91.38" stroke="#132e65" stroke-width="1.5"></path><path d="M1126.44 -105.51L1096.4 94.25" stroke="#132e65" stroke-width="1.5"></path><path d="M1096.4 94.25L1096.4 94.25" stroke="#132e65" stroke-width="1.5"></path><path d="M1096.4 94.25L1113.35 237.03" stroke="#132e65" stroke-width="1.5"></path><path d="M1096.4 94.25L1259.58 76.39" stroke="#132e65" stroke-width="1.5"></path><path d="M1096.4 94.25L1266.31 262.21" stroke="#132e65" stroke-width="1.5"></path><path d="M1113.35 237.03L1113.35 237.03" stroke="#132e65" stroke-width="1.5"></path><path d="M1113.35 237.03L1120.59 345.48" stroke="#132e65" stroke-width="1.5"></path><path d="M1120.59 345.48L1120.59 345.48" stroke="#132e65" stroke-width="1.5"></path><path d="M1117.4 495.38L1117.4 495.38" stroke="#132e65" stroke-width="1.5"></path><path d="M1117.4 495.38L1011.68 411.29" stroke="#132e65" stroke-width="1.5"></path><path d="M1117.4 495.38L1260.97 498.24" stroke="#132e65" stroke-width="1.5"></path><path d="M1091.76 653.34L1091.76 653.34" stroke="#132e65" stroke-width="1.5"></path><path d="M1091.76 653.34L1117.4 495.38" stroke="#132e65" stroke-width="1.5"></path><path d="M1091.76 653.34L1252.89 648.76" stroke="#132e65" stroke-width="1.5"></path><path d="M1091.76 653.34L1260.97 498.24" stroke="#132e65" stroke-width="1.5"></path><path d="M1286.85 -91.38L1286.85 -91.38" stroke="#132e65" stroke-width="1.5"></path><path d="M1286.85 -91.38L1259.58 76.39" stroke="#132e65" stroke-width="1.5"></path><path d="M1259.58 76.39L1259.58 76.39" stroke="#132e65" stroke-width="1.5"></path><path d="M1259.58 76.39L1266.31 262.21" stroke="#132e65" stroke-width="1.5"></path><path d="M1259.58 76.39L1417.85 197.61" stroke="#132e65" stroke-width="1.5"></path><path d="M1266.31 262.21L1266.31 262.21" stroke="#132e65" stroke-width="1.5"></path><path d="M1266.31 262.21L1113.35 237.03" stroke="#132e65" stroke-width="1.5"></path><path d="M1266.31 262.21L1401.69 350.3" stroke="#132e65" stroke-width="1.5"></path><path d="M1266.31 262.21L1417.85 197.61" stroke="#132e65" stroke-width="1.5"></path><path d="M1266.31 262.21L1120.59 345.48" stroke="#132e65" stroke-width="1.5"></path><path d="M1260.97 498.24L1260.97 498.24" stroke="#132e65" stroke-width="1.5"></path><path d="M1260.97 498.24L1252.89 648.76" stroke="#132e65" stroke-width="1.5"></path><path d="M1260.97 498.24L1427.56 534.2" stroke="#132e65" stroke-width="1.5"></path><path d="M1252.89 648.76L1252.89 648.76" stroke="#132e65" stroke-width="1.5"></path><path d="M1252.89 648.76L1421.44 690.46" stroke="#132e65" stroke-width="1.5"></path><path d="M1252.89 648.76L1117.4 495.38" stroke="#132e65" stroke-width="1.5"></path><path d="M1460.88 -72.23L1460.88 -72.23" stroke="#132e65" stroke-width="1.5"></path><path d="M1460.88 -72.23L1610.66 -78.99" stroke="#132e65" stroke-width="1.5"></path><path d="M1460.88 -72.23L1286.85 -91.38" stroke="#132e65" stroke-width="1.5"></path><path d="M1460.88 -72.23L1586.29 94.98" stroke="#132e65" stroke-width="1.5"></path><path d="M1460.88 -72.23L1259.58 76.39" stroke="#132e65" stroke-width="1.5"></path><path d="M1460.88 -72.23L1417.85 197.61" stroke="#132e65" stroke-width="1.5"></path><path d="M1417.85 197.61L1417.85 197.61" stroke="#132e65" stroke-width="1.5"></path><path d="M1417.85 197.61L1401.69 350.3" stroke="#132e65" stroke-width="1.5"></path><path d="M1417.85 197.61L1574.75 233.64" stroke="#132e65" stroke-width="1.5"></path><path d="M1401.69 350.3L1401.69 350.3" stroke="#132e65" stroke-width="1.5"></path><path d="M1427.56 534.2L1427.56 534.2" stroke="#132e65" stroke-width="1.5"></path><path d="M1427.56 534.2L1421.44 690.46" stroke="#132e65" stroke-width="1.5"></path><path d="M1421.44 690.46L1421.44 690.46" stroke="#132e65" stroke-width="1.5"></path><path d="M1421.44 690.46L1599.86 696.48" stroke="#132e65" stroke-width="1.5"></path><path d="M1610.66 -78.99L1610.66 -78.99" stroke="#132e65" stroke-width="1.5"></path><path d="M1610.66 -78.99L1586.29 94.98" stroke="#132e65" stroke-width="1.5"></path><path d="M1586.29 94.98L1586.29 94.98" stroke="#132e65" stroke-width="1.5"></path><path d="M1586.29 94.98L1574.75 233.64" stroke="#132e65" stroke-width="1.5"></path><path d="M1586.29 94.98L1417.85 197.61" stroke="#132e65" stroke-width="1.5"></path><path d="M1586.29 94.98L1561.26 387.43" stroke="#132e65" stroke-width="1.5"></path><path d="M1574.75 233.64L1574.75 233.64" stroke="#132e65" stroke-width="1.5"></path><path d="M1574.75 233.64L1561.26 387.43" stroke="#132e65" stroke-width="1.5"></path><path d="M1561.26 387.43L1561.26 387.43" stroke="#132e65" stroke-width="1.5"></path><path d="M1561.26 387.43L1401.69 350.3" stroke="#132e65" stroke-width="1.5"></path><path d="M1561.26 387.43L1427.56 534.2" stroke="#132e65" stroke-width="1.5"></path><path d="M1561.26 387.43L1417.85 197.61" stroke="#132e65" stroke-width="1.5"></path><path d="M1561.26 387.43L1599.86 696.48" stroke="#132e65" stroke-width="1.5"></path><path d="M1599.86 696.48L1599.86 696.48" stroke="#132e65" stroke-width="1.5"></path><path d="M1599.86 696.48L1427.56 534.2" stroke="#132e65" stroke-width="1.5"></path><circle r="5" cx="-76.21" cy="337.94" fill="#132e65"></circle><circle r="5" cx="-65.19" cy="532.43" fill="#132e65"></circle><circle r="5" cx="-58.33" cy="694.48" fill="#132e65"></circle><circle r="5" cx="68.22" cy="341" fill="#132e65"></circle><circle r="5" cx="63.47" cy="539" fill="#132e65"></circle><circle r="5" cx="58.37" cy="693.83" fill="#132e65"></circle><circle r="5" cx="218.79" cy="375.86" fill="#132e65"></circle><circle r="5" cx="243.66" cy="504.07" fill="#132e65"></circle><circle r="5" cx="204.77" cy="666.33" fill="#132e65"></circle><circle r="5" cx="406.93" cy="361.22" fill="#132e65"></circle><circle r="5" cx="394.9" cy="531.68" fill="#132e65"></circle><circle r="5" cx="411.44" cy="638.7" fill="#132e65"></circle><circle r="5" cx="493.82" cy="377.23" fill="#132e65"></circle><circle r="5" cx="532.53" cy="493.66" fill="#132e65"></circle><circle r="5" cx="549.99" cy="665.55" fill="#132e65"></circle><circle r="5" cx="645.69" cy="255.48" fill="#132e65"></circle><circle r="5" cx="643.59" cy="545.87" fill="#132e65"></circle><circle r="5" cx="699.37" cy="679.57" fill="#132e65"></circle><circle r="5" cx="796.06" cy="231.15" fill="#132e65"></circle><circle r="5" cx="807.2" cy="384.9" fill="#132e65"></circle><circle r="5" cx="837.95" cy="654.83" fill="#132e65"></circle><circle r="5" cx="957.72" cy="-103.83" fill="#132e65"></circle><circle r="5" cx="960.56" cy="81.71" fill="#132e65"></circle><circle r="5" cx="991.4" cy="191.39" fill="#132e65"></circle><circle r="5" cx="1011.68" cy="411.29" fill="#132e65"></circle><circle r="5" cx="988.19" cy="538.47" fill="#132e65"></circle><circle r="5" cx="977.52" cy="656.27" fill="#132e65"></circle><circle r="5" cx="1126.44" cy="-105.51" fill="#132e65"></circle><circle r="5" cx="1096.4" cy="94.25" fill="#132e65"></circle><circle r="5" cx="1113.35" cy="237.03" fill="#132e65"></circle><circle r="5" cx="1120.59" cy="345.48" fill="#132e65"></circle><circle r="5" cx="1117.4" cy="495.38" fill="#132e65"></circle><circle r="5" cx="1091.76" cy="653.34" fill="#132e65"></circle><circle r="5" cx="1286.85" cy="-91.38" fill="#132e65"></circle><circle r="5" cx="1259.58" cy="76.39" fill="#132e65"></circle><circle r="5" cx="1266.31" cy="262.21" fill="#132e65"></circle><circle r="5" cx="1260.97" cy="498.24" fill="#132e65"></circle><circle r="5" cx="1252.89" cy="648.76" fill="#132e65"></circle><circle r="5" cx="1460.88" cy="-72.23" fill="#132e65"></circle><circle r="5" cx="1417.85" cy="197.61" fill="#132e65"></circle><circle r="5" cx="1401.69" cy="350.3" fill="#132e65"></circle><circle r="5" cx="1427.56" cy="534.2" fill="#132e65"></circle><circle r="5" cx="1421.44" cy="690.46" fill="#132e65"></circle><circle r="5" cx="1610.66" cy="-78.99" fill="#132e65"></circle><circle r="5" cx="1586.29" cy="94.98" fill="#132e65"></circle><circle r="5" cx="1574.75" cy="233.64" fill="#132e65"></circle><circle r="5" cx="1561.26" cy="387.43" fill="#132e65"></circle><circle r="5" cx="1599.86" cy="696.48" fill="#132e65"></circle><path d="M112.21 679.23L112.21 679.23" stroke="hsl(228.5, 77.2%, 51.5%)" stroke-width="1.5"></path><path d="M112.21 679.23L229.11 698.94" stroke="hsl(228.5, 77.2%, 51.5%)" stroke-width="1.5"></path><path d="M112.21 679.23L111.97 525.09" stroke="hsl(228.5, 77.2%, 51.5%)" stroke-width="1.5"></path><path d="M112.21 679.23L-91.14 679.25" stroke="hsl(228.5, 77.2%, 51.5%)" stroke-width="1.5"></path><path d="M112.21 679.23L339.68 682.27" stroke="hsl(228.5, 77.2%, 51.5%)" stroke-width="1.5"></path><path d="M1417.42 53.67L1417.42 53.67" stroke="hsl(228.5, 77.2%, 51.5%)" stroke-width="1.5"></path><path d="M1417.42 53.67L1438.74 -98.37" stroke="hsl(228.5, 77.2%, 51.5%)" stroke-width="1.5"></path><path d="M1417.42 53.67L1262.21 79.88" stroke="hsl(228.5, 77.2%, 51.5%)" stroke-width="1.5"></path><path d="M1417.42 53.67L1577.17 61.66" stroke="hsl(228.5, 77.2%, 51.5%)" stroke-width="1.5"></path><path d="M1417.42 53.67L1303.35 -64.56" stroke="hsl(228.5, 77.2%, 51.5%)" stroke-width="1.5"></path><path d="M1417.42 53.67L1582.68 -64.88" stroke="hsl(228.5, 77.2%, 51.5%)" stroke-width="1.5"></path><path d="M1417.42 53.67L1243.97 201.04" stroke="hsl(228.5, 77.2%, 51.5%)" stroke-width="1.5"></path><path d="M1448.66 359.37L1448.66 359.37" stroke="hsl(228.5, 77.2%, 51.5%)" stroke-width="1.5"></path><path d="M1448.66 359.37L1537.72 377.2" stroke="hsl(228.5, 77.2%, 51.5%)" stroke-width="1.5"></path><path d="M1448.66 359.37L1407.94 511.46" stroke="hsl(228.5, 77.2%, 51.5%)" stroke-width="1.5"></path><path d="M1448.66 359.37L1238.13 382.12" stroke="hsl(228.5, 77.2%, 51.5%)" stroke-width="1.5"></path><path d="M1448.66 359.37L1572.37 546.37" stroke="hsl(228.5, 77.2%, 51.5%)" stroke-width="1.5"></path><path d="M1448.66 359.37L1273 545.47" stroke="hsl(228.5, 77.2%, 51.5%)" stroke-width="1.5"></path><path d="M1448.66 359.37L1243.97 201.04" stroke="hsl(228.5, 77.2%, 51.5%)" stroke-width="1.5"></path><path d="M1582.68 -64.88L1582.68 -64.88" stroke="hsl(228.5, 77.2%, 51.5%)" stroke-width="1.5"></path><path d="M1582.68 -64.88L1577.17 61.66" stroke="hsl(228.5, 77.2%, 51.5%)" stroke-width="1.5"></path><path d="M1582.68 -64.88L1438.74 -98.37" stroke="hsl(228.5, 77.2%, 51.5%)" stroke-width="1.5"></path><path d="M1582.68 -64.88L1303.35 -64.56" stroke="hsl(228.5, 77.2%, 51.5%)" stroke-width="1.5"></path><path d="M1582.68 -64.88L1262.21 79.88" stroke="hsl(228.5, 77.2%, 51.5%)" stroke-width="1.5"></path><path d="M1582.68 -64.88L1243.97 201.04" stroke="hsl(228.5, 77.2%, 51.5%)" stroke-width="1.5"></path><path d="M-107.76 487.72L-107.76 487.72" stroke="hsl(228.5, 77.2%, 51.5%)" stroke-width="1.5"></path><path d="M-107.76 487.72L-91.14 679.25" stroke="hsl(228.5, 77.2%, 51.5%)" stroke-width="1.5"></path><path d="M-107.76 487.72L111.97 525.09" stroke="hsl(228.5, 77.2%, 51.5%)" stroke-width="1.5"></path><path d="M-107.76 487.72L112.21 679.23" stroke="hsl(228.5, 77.2%, 51.5%)" stroke-width="1.5"></path><path d="M-107.76 487.72L251.71 490.17" stroke="hsl(228.5, 77.2%, 51.5%)" stroke-width="1.5"></path><path d="M-107.76 487.72L229.11 698.94" stroke="hsl(228.5, 77.2%, 51.5%)" stroke-width="1.5"></path><path d="M-107.76 487.72L339.68 682.27" stroke="hsl(228.5, 77.2%, 51.5%)" stroke-width="1.5"></path><path d="M-91.14 679.25L-91.14 679.25" stroke="hsl(228.5, 77.2%, 51.5%)" stroke-width="1.5"></path><path d="M-91.14 679.25L111.97 525.09" stroke="hsl(228.5, 77.2%, 51.5%)" stroke-width="1.5"></path><path d="M111.97 525.09L111.97 525.09" stroke="hsl(228.5, 77.2%, 51.5%)" stroke-width="1.5"></path><path d="M111.97 525.09L251.71 490.17" stroke="hsl(228.5, 77.2%, 51.5%)" stroke-width="1.5"></path><path d="M251.71 490.17L251.71 490.17" stroke="hsl(228.5, 77.2%, 51.5%)" stroke-width="1.5"></path><path d="M251.71 490.17L229.11 698.94" stroke="hsl(228.5, 77.2%, 51.5%)" stroke-width="1.5"></path><path d="M229.11 698.94L229.11 698.94" stroke="hsl(228.5, 77.2%, 51.5%)" stroke-width="1.5"></path><path d="M229.11 698.94L339.68 682.27" stroke="hsl(228.5, 77.2%, 51.5%)" stroke-width="1.5"></path><path d="M229.11 698.94L111.97 525.09" stroke="hsl(228.5, 77.2%, 51.5%)" stroke-width="1.5"></path><path d="M339.68 682.27L339.68 682.27" stroke="hsl(228.5, 77.2%, 51.5%)" stroke-width="1.5"></path><path d="M339.68 682.27L544.96 656.26" stroke="hsl(228.5, 77.2%, 51.5%)" stroke-width="1.5"></path><path d="M339.68 682.27L251.71 490.17" stroke="hsl(228.5, 77.2%, 51.5%)" stroke-width="1.5"></path><path d="M339.68 682.27L538.67 555.39" stroke="hsl(228.5, 77.2%, 51.5%)" stroke-width="1.5"></path><path d="M538.67 555.39L538.67 555.39" stroke="hsl(228.5, 77.2%, 51.5%)" stroke-width="1.5"></path><path d="M538.67 555.39L544.96 656.26" stroke="hsl(228.5, 77.2%, 51.5%)" stroke-width="1.5"></path><path d="M538.67 555.39L644.6 493.14" stroke="hsl(228.5, 77.2%, 51.5%)" stroke-width="1.5"></path><path d="M538.67 555.39L675.93 654.08" stroke="hsl(228.5, 77.2%, 51.5%)" stroke-width="1.5"></path><path d="M538.67 555.39L251.71 490.17" stroke="hsl(228.5, 77.2%, 51.5%)" stroke-width="1.5"></path><path d="M538.67 555.39L825.58 657.39" stroke="hsl(228.5, 77.2%, 51.5%)" stroke-width="1.5"></path><path d="M544.96 656.26L544.96 656.26" stroke="hsl(228.5, 77.2%, 51.5%)" stroke-width="1.5"></path><path d="M544.96 656.26L675.93 654.08" stroke="hsl(228.5, 77.2%, 51.5%)" stroke-width="1.5"></path><path d="M544.96 656.26L644.6 493.14" stroke="hsl(228.5, 77.2%, 51.5%)" stroke-width="1.5"></path><path d="M544.96 656.26L825.58 657.39" stroke="hsl(228.5, 77.2%, 51.5%)" stroke-width="1.5"></path><path d="M644.6 493.14L644.6 493.14" stroke="hsl(228.5, 77.2%, 51.5%)" stroke-width="1.5"></path><path d="M675.93 654.08L675.93 654.08" stroke="hsl(228.5, 77.2%, 51.5%)" stroke-width="1.5"></path><path d="M675.93 654.08L825.58 657.39" stroke="hsl(228.5, 77.2%, 51.5%)" stroke-width="1.5"></path><path d="M675.93 654.08L644.6 493.14" stroke="hsl(228.5, 77.2%, 51.5%)" stroke-width="1.5"></path><path d="M675.93 654.08L952.81 690.78" stroke="hsl(228.5, 77.2%, 51.5%)" stroke-width="1.5"></path><path d="M831.35 382.35L831.35 382.35" stroke="hsl(228.5, 77.2%, 51.5%)" stroke-width="1.5"></path><path d="M831.35 382.35L971.61 397.74" stroke="hsl(228.5, 77.2%, 51.5%)" stroke-width="1.5"></path><path d="M831.35 382.35L991.2 255.37" stroke="hsl(228.5, 77.2%, 51.5%)" stroke-width="1.5"></path><path d="M825.58 657.39L825.58 657.39" stroke="hsl(228.5, 77.2%, 51.5%)" stroke-width="1.5"></path><path d="M825.58 657.39L952.81 690.78" stroke="hsl(228.5, 77.2%, 51.5%)" stroke-width="1.5"></path><path d="M825.58 657.39L993.47 542.57" stroke="hsl(228.5, 77.2%, 51.5%)" stroke-width="1.5"></path><path d="M991.2 255.37L991.2 255.37" stroke="hsl(228.5, 77.2%, 51.5%)" stroke-width="1.5"></path><path d="M991.2 255.37L1102.75 212.43" stroke="hsl(228.5, 77.2%, 51.5%)" stroke-width="1.5"></path><path d="M991.2 255.37L971.61 397.74" stroke="hsl(228.5, 77.2%, 51.5%)" stroke-width="1.5"></path><path d="M991.2 255.37L1142.05 372.26" stroke="hsl(228.5, 77.2%, 51.5%)" stroke-width="1.5"></path><path d="M991.2 255.37L1243.97 201.04" stroke="hsl(228.5, 77.2%, 51.5%)" stroke-width="1.5"></path><path d="M991.2 255.37L1238.13 382.12" stroke="hsl(228.5, 77.2%, 51.5%)" stroke-width="1.5"></path><path d="M971.61 397.74L971.61 397.74" stroke="hsl(228.5, 77.2%, 51.5%)" stroke-width="1.5"></path><path d="M971.61 397.74L993.47 542.57" stroke="hsl(228.5, 77.2%, 51.5%)" stroke-width="1.5"></path><path d="M971.61 397.74L1142.05 372.26" stroke="hsl(228.5, 77.2%, 51.5%)" stroke-width="1.5"></path><path d="M971.61 397.74L1102.75 212.43" stroke="hsl(228.5, 77.2%, 51.5%)" stroke-width="1.5"></path><path d="M993.47 542.57L993.47 542.57" stroke="hsl(228.5, 77.2%, 51.5%)" stroke-width="1.5"></path><path d="M993.47 542.57L952.81 690.78" stroke="hsl(228.5, 77.2%, 51.5%)" stroke-width="1.5"></path><path d="M993.47 542.57L1155.9 535.18" stroke="hsl(228.5, 77.2%, 51.5%)" stroke-width="1.5"></path><path d="M993.47 542.57L1120.13 704.03" stroke="hsl(228.5, 77.2%, 51.5%)" stroke-width="1.5"></path><path d="M993.47 542.57L1142.05 372.26" stroke="hsl(228.5, 77.2%, 51.5%)" stroke-width="1.5"></path><path d="M952.81 690.78L952.81 690.78" stroke="hsl(228.5, 77.2%, 51.5%)" stroke-width="1.5"></path><path d="M1102.75 212.43L1102.75 212.43" stroke="hsl(228.5, 77.2%, 51.5%)" stroke-width="1.5"></path><path d="M1102.75 212.43L1243.97 201.04" stroke="hsl(228.5, 77.2%, 51.5%)" stroke-width="1.5"></path><path d="M1142.05 372.26L1142.05 372.26" stroke="hsl(228.5, 77.2%, 51.5%)" stroke-width="1.5"></path><path d="M1142.05 372.26L1238.13 382.12" stroke="hsl(228.5, 77.2%, 51.5%)" stroke-width="1.5"></path><path d="M1142.05 372.26L1155.9 535.18" stroke="hsl(228.5, 77.2%, 51.5%)" stroke-width="1.5"></path><path d="M1142.05 372.26L1102.75 212.43" stroke="hsl(228.5, 77.2%, 51.5%)" stroke-width="1.5"></path><path d="M1155.9 535.18L1155.9 535.18" stroke="hsl(228.5, 77.2%, 51.5%)" stroke-width="1.5"></path><path d="M1155.9 535.18L1273 545.47" stroke="hsl(228.5, 77.2%, 51.5%)" stroke-width="1.5"></path><path d="M1155.9 535.18L1120.13 704.03" stroke="hsl(228.5, 77.2%, 51.5%)" stroke-width="1.5"></path><path d="M1155.9 535.18L1238.13 382.12" stroke="hsl(228.5, 77.2%, 51.5%)" stroke-width="1.5"></path><path d="M1155.9 535.18L1306.85 690.51" stroke="hsl(228.5, 77.2%, 51.5%)" stroke-width="1.5"></path><path d="M1120.13 704.03L1120.13 704.03" stroke="hsl(228.5, 77.2%, 51.5%)" stroke-width="1.5"></path><path d="M1120.13 704.03L952.81 690.78" stroke="hsl(228.5, 77.2%, 51.5%)" stroke-width="1.5"></path><path d="M1120.13 704.03L1306.85 690.51" stroke="hsl(228.5, 77.2%, 51.5%)" stroke-width="1.5"></path><path d="M1303.35 -64.56L1303.35 -64.56" stroke="hsl(228.5, 77.2%, 51.5%)" stroke-width="1.5"></path><path d="M1303.35 -64.56L1438.74 -98.37" stroke="hsl(228.5, 77.2%, 51.5%)" stroke-width="1.5"></path><path d="M1303.35 -64.56L1262.21 79.88" stroke="hsl(228.5, 77.2%, 51.5%)" stroke-width="1.5"></path><path d="M1262.21 79.88L1262.21 79.88" stroke="hsl(228.5, 77.2%, 51.5%)" stroke-width="1.5"></path><path d="M1262.21 79.88L1243.97 201.04" stroke="hsl(228.5, 77.2%, 51.5%)" stroke-width="1.5"></path><path d="M1262.21 79.88L1102.75 212.43" stroke="hsl(228.5, 77.2%, 51.5%)" stroke-width="1.5"></path><path d="M1262.21 79.88L1438.74 -98.37" stroke="hsl(228.5, 77.2%, 51.5%)" stroke-width="1.5"></path><path d="M1262.21 79.88L1238.13 382.12" stroke="hsl(228.5, 77.2%, 51.5%)" stroke-width="1.5"></path><path d="M1243.97 201.04L1243.97 201.04" stroke="hsl(228.5, 77.2%, 51.5%)" stroke-width="1.5"></path><path d="M1243.97 201.04L1238.13 382.12" stroke="hsl(228.5, 77.2%, 51.5%)" stroke-width="1.5"></path><path d="M1243.97 201.04L1142.05 372.26" stroke="hsl(228.5, 77.2%, 51.5%)" stroke-width="1.5"></path><path d="M1238.13 382.12L1238.13 382.12" stroke="hsl(228.5, 77.2%, 51.5%)" stroke-width="1.5"></path><path d="M1238.13 382.12L1273 545.47" stroke="hsl(228.5, 77.2%, 51.5%)" stroke-width="1.5"></path><path d="M1273 545.47L1273 545.47" stroke="hsl(228.5, 77.2%, 51.5%)" stroke-width="1.5"></path><path d="M1273 545.47L1407.94 511.46" stroke="hsl(228.5, 77.2%, 51.5%)" stroke-width="1.5"></path><path d="M1306.85 690.51L1306.85 690.51" stroke="hsl(228.5, 77.2%, 51.5%)" stroke-width="1.5"></path><path d="M1306.85 690.51L1426.16 651.8" stroke="hsl(228.5, 77.2%, 51.5%)" stroke-width="1.5"></path><path d="M1306.85 690.51L1273 545.47" stroke="hsl(228.5, 77.2%, 51.5%)" stroke-width="1.5"></path><path d="M1306.85 690.51L1407.94 511.46" stroke="hsl(228.5, 77.2%, 51.5%)" stroke-width="1.5"></path><path d="M1306.85 690.51L1572.37 546.37" stroke="hsl(228.5, 77.2%, 51.5%)" stroke-width="1.5"></path><path d="M1438.74 -98.37L1438.74 -98.37" stroke="hsl(228.5, 77.2%, 51.5%)" stroke-width="1.5"></path><path d="M1438.74 -98.37L1577.17 61.66" stroke="hsl(228.5, 77.2%, 51.5%)" stroke-width="1.5"></path><path d="M1438.74 -98.37L1243.97 201.04" stroke="hsl(228.5, 77.2%, 51.5%)" stroke-width="1.5"></path><path d="M1407.94 511.46L1407.94 511.46" stroke="hsl(228.5, 77.2%, 51.5%)" stroke-width="1.5"></path><path d="M1407.94 511.46L1426.16 651.8" stroke="hsl(228.5, 77.2%, 51.5%)" stroke-width="1.5"></path><path d="M1407.94 511.46L1572.37 546.37" stroke="hsl(228.5, 77.2%, 51.5%)" stroke-width="1.5"></path><path d="M1426.16 651.8L1426.16 651.8" stroke="hsl(228.5, 77.2%, 51.5%)" stroke-width="1.5"></path><path d="M1426.16 651.8L1572.37 546.37" stroke="hsl(228.5, 77.2%, 51.5%)" stroke-width="1.5"></path><path d="M1577.17 61.66L1577.17 61.66" stroke="hsl(228.5, 77.2%, 51.5%)" stroke-width="1.5"></path><path d="M1577.17 61.66L1303.35 -64.56" stroke="hsl(228.5, 77.2%, 51.5%)" stroke-width="1.5"></path><path d="M1577.17 61.66L1262.21 79.88" stroke="hsl(228.5, 77.2%, 51.5%)" stroke-width="1.5"></path><path d="M1537.72 377.2L1537.72 377.2" stroke="hsl(228.5, 77.2%, 51.5%)" stroke-width="1.5"></path><path d="M1537.72 377.2L1572.37 546.37" stroke="hsl(228.5, 77.2%, 51.5%)" stroke-width="1.5"></path><path d="M1537.72 377.2L1407.94 511.46" stroke="hsl(228.5, 77.2%, 51.5%)" stroke-width="1.5"></path><path d="M1537.72 377.2L1426.16 651.8" stroke="hsl(228.5, 77.2%, 51.5%)" stroke-width="1.5"></path><path d="M1572.37 546.37L1572.37 546.37" stroke="hsl(228.5, 77.2%, 51.5%)" stroke-width="1.5"></path><path d="M1572.37 546.37L1611.7 668.74" stroke="hsl(228.5, 77.2%, 51.5%)" stroke-width="1.5"></path><path d="M1611.7 668.74L1611.7 668.74" stroke="hsl(228.5, 77.2%, 51.5%)" stroke-width="1.5"></path><path d="M1611.7 668.74L1426.16 651.8" stroke="hsl(228.5, 77.2%, 51.5%)" stroke-width="1.5"></path><path d="M1611.7 668.74L1407.94 511.46" stroke="hsl(228.5, 77.2%, 51.5%)" stroke-width="1.5"></path><path d="M1611.7 668.74L1537.72 377.2" stroke="hsl(228.5, 77.2%, 51.5%)" stroke-width="1.5"></path><path d="M1611.7 668.74L1306.85 690.51" stroke="hsl(228.5, 77.2%, 51.5%)" stroke-width="1.5"></path><path d="M1611.7 668.74L1448.66 359.37" stroke="hsl(228.5, 77.2%, 51.5%)" stroke-width="1.5"></path><circle r="25" cx="112.21" cy="679.23" fill="url(&quot;#SvgjsRadialGradient1009&quot;)"></circle><circle r="25" cx="1417.42" cy="53.67" fill="url(&quot;#SvgjsRadialGradient1009&quot;)"></circle><circle r="25" cx="1448.66" cy="359.37" fill="url(&quot;#SvgjsRadialGradient1009&quot;)"></circle><circle r="25" cx="1582.68" cy="-64.88" fill="url(&quot;#SvgjsRadialGradient1009&quot;)"></circle><circle r="5" cx="-107.76" cy="487.72" fill="#8b9ad9"></circle><circle r="5" cx="-91.14" cy="679.25" fill="#8b9ad9"></circle><circle r="5" cx="111.97" cy="525.09" fill="#8b9ad9"></circle><circle r="5" cx="251.71" cy="490.17" fill="#8b9ad9"></circle><circle r="5" cx="229.11" cy="698.94" fill="#8b9ad9"></circle><circle r="5" cx="339.68" cy="682.27" fill="#8b9ad9"></circle><circle r="5" cx="538.67" cy="555.39" fill="#8b9ad9"></circle><circle r="5" cx="544.96" cy="656.26" fill="#8b9ad9"></circle><circle r="5" cx="644.6" cy="493.14" fill="#8b9ad9"></circle><circle r="5" cx="675.93" cy="654.08" fill="#8b9ad9"></circle><circle r="5" cx="831.35" cy="382.35" fill="#8b9ad9"></circle><circle r="5" cx="825.58" cy="657.39" fill="#8b9ad9"></circle><circle r="5" cx="991.2" cy="255.37" fill="#8b9ad9"></circle><circle r="5" cx="971.61" cy="397.74" fill="#8b9ad9"></circle><circle r="5" cx="993.47" cy="542.57" fill="#8b9ad9"></circle><circle r="5" cx="952.81" cy="690.78" fill="#8b9ad9"></circle><circle r="5" cx="1102.75" cy="212.43" fill="#8b9ad9"></circle><circle r="5" cx="1142.05" cy="372.26" fill="#8b9ad9"></circle><circle r="5" cx="1155.9" cy="535.18" fill="#8b9ad9"></circle><circle r="5" cx="1120.13" cy="704.03" fill="#8b9ad9"></circle><circle r="5" cx="1303.35" cy="-64.56" fill="#8b9ad9"></circle><circle r="5" cx="1262.21" cy="79.88" fill="#8b9ad9"></circle><circle r="5" cx="1243.97" cy="201.04" fill="#8b9ad9"></circle><circle r="5" cx="1238.13" cy="382.12" fill="#8b9ad9"></circle><circle r="5" cx="1273" cy="545.47" fill="#8b9ad9"></circle><circle r="5" cx="1306.85" cy="690.51" fill="#8b9ad9"></circle><circle r="5" cx="1438.74" cy="-98.37" fill="#8b9ad9"></circle><circle r="5" cx="1407.94" cy="511.46" fill="#8b9ad9"></circle><circle r="5" cx="1426.16" cy="651.8" fill="#8b9ad9"></circle><circle r="5" cx="1577.17" cy="61.66" fill="#8b9ad9"></circle><circle r="5" cx="1537.72" cy="377.2" fill="#8b9ad9"></circle><circle r="5" cx="1572.37" cy="546.37" fill="#8b9ad9"></circle><circle r="5" cx="1611.7" cy="668.74" fill="#8b9ad9"></circle></g><defs><mask id="SvgjsMask1008"><rect width="1440" height="560" fill="#ffffff"></rect></mask><radialGradient id="SvgjsRadialGradient1009"><stop stop-color="#ffffff" offset="0.1"></stop><stop stop-color="#1735b3" offset="0.2"></stop><stop stop-color="rgba(23, 53, 179, 0)" offset="1"></stop></radialGradient></defs></svg>