<svg xmlns="http://www.w3.org/2000/svg" version="1.1" xmlns:xlink="http://www.w3.org/1999/xlink" xmlns:svgjs="http://svgjs.dev/svgjs" width="1440" height="250" preserveAspectRatio="none" viewBox="0 0 1440 250"><g mask="url(&quot;#SvgjsMask1030&quot;)" fill="none"><path d="M47 250L297 0L399 0L149 250z" fill="url(&quot;#SvgjsLinearGradient1031&quot;)"></path><path d="M241.60000000000002 250L491.6 0L694.1 0L444.1 250z" fill="url(&quot;#SvgjsLinearGradient1031&quot;)"></path><path d="M498.20000000000005 250L748.2 0L914.7 0L664.7 250z" fill="url(&quot;#SvgjsLinearGradient1031&quot;)"></path><path d="M749.8000000000001 250L999.8000000000001 0L1202.3000000000002 0L952.3000000000001 250z" fill="url(&quot;#SvgjsLinearGradient1031&quot;)"></path><path d="M1407 250L1157 0L1059.5 0L1309.5 250z" fill="url(&quot;#SvgjsLinearGradient1032&quot;)"></path><path d="M1166.4 250L916.4000000000001 0L712.4000000000001 0L962.4000000000001 250z" fill="url(&quot;#SvgjsLinearGradient1032&quot;)"></path><path d="M944.8 250L694.8 0L478.79999999999995 0L728.8 250z" fill="url(&quot;#SvgjsLinearGradient1032&quot;)"></path><path d="M699.1999999999999 250L449.19999999999993 0L147.69999999999993 0L397.69999999999993 250z" fill="url(&quot;#SvgjsLinearGradient1032&quot;)"></path><path d="M1313.1056711515218 250L1440 123.10567115152185L1440 250z" fill="url(&quot;#SvgjsLinearGradient1031&quot;)"></path><path d="M0 250L126.89432884847815 250L 0 123.10567115152185z" fill="url(&quot;#SvgjsLinearGradient1032&quot;)"></path></g><defs><mask id="SvgjsMask1030"><rect width="1440" height="250" fill="#ffffff"></rect></mask><linearGradient x1="0%" y1="100%" x2="100%" y2="0%" id="SvgjsLinearGradient1031"><stop stop-color="rgba(15, 70, 185, 0.2)" offset="0"></stop><stop stop-opacity="0" stop-color="rgba(15, 70, 185, 0.2)" offset="0.66"></stop></linearGradient><linearGradient x1="100%" y1="100%" x2="0%" y2="0%" id="SvgjsLinearGradient1032"><stop stop-color="rgba(15, 70, 185, 0.2)" offset="0"></stop><stop stop-opacity="0" stop-color="rgba(15, 70, 185, 0.2)" offset="0.66"></stop></linearGradient></defs></svg>