<svg xmlns="http://www.w3.org/2000/svg" version="1.1" xmlns:xlink="http://www.w3.org/1999/xlink" xmlns:svgjs="http://svgjs.dev/svgjs" width="1440" height="250" preserveAspectRatio="none" viewBox="0 0 1440 250"><g mask="url(&quot;#SvgjsMask1024&quot;)" fill="none"><path d="M21 250L271 0L457 0L207 250z" fill="url(&quot;#SvgjsLinearGradient1025&quot;)"></path><path d="M270.6 250L520.6 0L643.6 0L393.6 250z" fill="url(&quot;#SvgjsLinearGradient1025&quot;)"></path><path d="M485.20000000000005 250L735.2 0L888.2 0L638.2 250z" fill="url(&quot;#SvgjsLinearGradient1025&quot;)"></path><path d="M720.8000000000001 250L970.8000000000001 0L1326.3000000000002 0L1076.3000000000002 250z" fill="url(&quot;#SvgjsLinearGradient1025&quot;)"></path><path d="M1412 250L1162 0L875.5 0L1125.5 250z" fill="url(&quot;#SvgjsLinearGradient1026&quot;)"></path><path d="M1196.4 250L946.4000000000001 0L743.9000000000001 0L993.9000000000001 250z" fill="url(&quot;#SvgjsLinearGradient1026&quot;)"></path><path d="M927.8 250L677.8 0L382.29999999999995 0L632.3 250z" fill="url(&quot;#SvgjsLinearGradient1026&quot;)"></path><path d="M699.1999999999999 250L449.19999999999993 0L263.19999999999993 0L513.1999999999999 250z" fill="url(&quot;#SvgjsLinearGradient1026&quot;)"></path><path d="M1214.8091043928616 250L1440 24.809104392861514L1440 250z" fill="url(&quot;#SvgjsLinearGradient1025&quot;)"></path><path d="M0 250L225.1908956071385 250L 0 24.809104392861514z" fill="url(&quot;#SvgjsLinearGradient1026&quot;)"></path></g><defs><mask id="SvgjsMask1024"><rect width="1440" height="250" fill="#ffffff"></rect></mask><linearGradient x1="0%" y1="100%" x2="100%" y2="0%" id="SvgjsLinearGradient1025"><stop stop-color="rgba(15, 70, 185, 0.2)" offset="0"></stop><stop stop-opacity="0" stop-color="rgba(15, 70, 185, 0.2)" offset="0.66"></stop></linearGradient><linearGradient x1="100%" y1="100%" x2="0%" y2="0%" id="SvgjsLinearGradient1026"><stop stop-color="rgba(15, 70, 185, 0.2)" offset="0"></stop><stop stop-opacity="0" stop-color="rgba(15, 70, 185, 0.2)" offset="0.66"></stop></linearGradient></defs></svg>