<svg xmlns="http://www.w3.org/2000/svg" version="1.1" xmlns:xlink="http://www.w3.org/1999/xlink" xmlns:svgjs="http://svgjs.dev/svgjs" width="1440" height="250" preserveAspectRatio="none" viewBox="0 0 1440 250"><g mask="url(&quot;#SvgjsMask1036&quot;)" fill="none"><path d="M15 250L265 0L317.5 0L67.5 250z" fill="url(&quot;#SvgjsLinearGradient1037&quot;)"></path><path d="M254.60000000000002 250L504.6 0L662.1 0L412.1 250z" fill="url(&quot;#SvgjsLinearGradient1037&quot;)"></path><path d="M482.20000000000005 250L732.2 0L774.2 0L524.2 250z" fill="url(&quot;#SvgjsLinearGradient1037&quot;)"></path><path d="M758.8000000000001 250L1008.8000000000001 0L1143.8000000000002 0L893.8000000000001 250z" fill="url(&quot;#SvgjsLinearGradient1037&quot;)"></path><path d="M1433 250L1183 0L1091.5 0L1341.5 250z" fill="url(&quot;#SvgjsLinearGradient1038&quot;)"></path><path d="M1184.4 250L934.4000000000001 0L638.9000000000001 0L888.9000000000001 250z" fill="url(&quot;#SvgjsLinearGradient1038&quot;)"></path><path d="M957.8 250L707.8 0L373.29999999999995 0L623.3 250z" fill="url(&quot;#SvgjsLinearGradient1038&quot;)"></path><path d="M691.1999999999999 250L441.19999999999993 0L184.69999999999993 0L434.69999999999993 250z" fill="url(&quot;#SvgjsLinearGradient1038&quot;)"></path><path d="M1272.0615995735836 250L1440 82.06159957358369L1440 250z" fill="url(&quot;#SvgjsLinearGradient1037&quot;)"></path><path d="M0 250L167.9384004264163 250L 0 82.06159957358369z" fill="url(&quot;#SvgjsLinearGradient1038&quot;)"></path></g><defs><mask id="SvgjsMask1036"><rect width="1440" height="250" fill="#ffffff"></rect></mask><linearGradient x1="0%" y1="100%" x2="100%" y2="0%" id="SvgjsLinearGradient1037"><stop stop-color="rgba(15, 70, 185, 0.2)" offset="0"></stop><stop stop-opacity="0" stop-color="rgba(15, 70, 185, 0.2)" offset="0.66"></stop></linearGradient><linearGradient x1="100%" y1="100%" x2="0%" y2="0%" id="SvgjsLinearGradient1038"><stop stop-color="rgba(15, 70, 185, 0.2)" offset="0"></stop><stop stop-opacity="0" stop-color="rgba(15, 70, 185, 0.2)" offset="0.66"></stop></linearGradient></defs></svg>