<svg xmlns="http://www.w3.org/2000/svg" version="1.1" xmlns:xlink="http://www.w3.org/1999/xlink" xmlns:svgjs="http://svgjs.dev/svgjs" width="1440" height="250" preserveAspectRatio="none" viewBox="0 0 1440 250"><g mask="url(&quot;#SvgjsMask1012&quot;)" fill="none"><path d="M6 250L256 0L365.5 0L115.5 250z" fill="url(&quot;#SvgjsLinearGradient1013&quot;)"></path><path d="M241.60000000000002 250L491.6 0L764.6 0L514.6 250z" fill="url(&quot;#SvgjsLinearGradient1013&quot;)"></path><path d="M506.20000000000005 250L756.2 0L852.2 0L602.2 250z" fill="url(&quot;#SvgjsLinearGradient1013&quot;)"></path><path d="M732.8000000000001 250L982.8000000000001 0L1020.3000000000001 0L770.3000000000001 250z" fill="url(&quot;#SvgjsLinearGradient1013&quot;)"></path><path d="M1436 250L1186 0L947.5 0L1197.5 250z" fill="url(&quot;#SvgjsLinearGradient1014&quot;)"></path><path d="M1183.4 250L933.4000000000001 0L745.9000000000001 0L995.9000000000001 250z" fill="url(&quot;#SvgjsLinearGradient1014&quot;)"></path><path d="M951.8 250L701.8 0L355.29999999999995 0L605.3 250z" fill="url(&quot;#SvgjsLinearGradient1014&quot;)"></path><path d="M694.1999999999999 250L444.19999999999993 0L139.69999999999993 0L389.69999999999993 250z" fill="url(&quot;#SvgjsLinearGradient1014&quot;)"></path><path d="M1211.6070910460728 250L1440 21.607091046072725L1440 250z" fill="url(&quot;#SvgjsLinearGradient1013&quot;)"></path><path d="M0 250L228.39290895392728 250L 0 21.607091046072725z" fill="url(&quot;#SvgjsLinearGradient1014&quot;)"></path></g><defs><mask id="SvgjsMask1012"><rect width="1440" height="250" fill="#ffffff"></rect></mask><linearGradient x1="0%" y1="100%" x2="100%" y2="0%" id="SvgjsLinearGradient1013"><stop stop-color="rgba(15, 70, 185, 0.2)" offset="0"></stop><stop stop-opacity="0" stop-color="rgba(15, 70, 185, 0.2)" offset="0.66"></stop></linearGradient><linearGradient x1="100%" y1="100%" x2="0%" y2="0%" id="SvgjsLinearGradient1014"><stop stop-color="rgba(15, 70, 185, 0.2)" offset="0"></stop><stop stop-opacity="0" stop-color="rgba(15, 70, 185, 0.2)" offset="0.66"></stop></linearGradient></defs></svg>