<svg xmlns="http://www.w3.org/2000/svg" version="1.1" xmlns:xlink="http://www.w3.org/1999/xlink" xmlns:svgjs="http://svgjs.dev/svgjs" width="1440" height="250" preserveAspectRatio="none" viewBox="0 0 1440 250"><g mask="url(&quot;#SvgjsMask1021&quot;)" fill="none"><path d="M46 250L296 0L453.5 0L203.5 250z" fill="url(&quot;#SvgjsLinearGradient1022&quot;)"></path><path d="M255.60000000000002 250L505.6 0L592.6 0L342.6 250z" fill="url(&quot;#SvgjsLinearGradient1022&quot;)"></path><path d="M499.20000000000005 250L749.2 0L857.2 0L607.2 250z" fill="url(&quot;#SvgjsLinearGradient1022&quot;)"></path><path d="M759.8000000000001 250L1009.8000000000001 0L1273.8000000000002 0L1023.8000000000001 250z" fill="url(&quot;#SvgjsLinearGradient1022&quot;)"></path><path d="M1430 250L1180 0L1081 0L1331 250z" fill="url(&quot;#SvgjsLinearGradient1023&quot;)"></path><path d="M1157.4 250L907.4000000000001 0L550.4000000000001 0L800.4000000000001 250z" fill="url(&quot;#SvgjsLinearGradient1023&quot;)"></path><path d="M927.8 250L677.8 0L460.29999999999995 0L710.3 250z" fill="url(&quot;#SvgjsLinearGradient1023&quot;)"></path><path d="M720.1999999999999 250L470.19999999999993 0L432.69999999999993 0L682.6999999999999 250z" fill="url(&quot;#SvgjsLinearGradient1023&quot;)"></path><path d="M1199.5447330432996 250L1440 9.544733043299544L1440 250z" fill="url(&quot;#SvgjsLinearGradient1022&quot;)"></path><path d="M0 250L240.45526695670046 250L 0 9.544733043299544z" fill="url(&quot;#SvgjsLinearGradient1023&quot;)"></path></g><defs><mask id="SvgjsMask1021"><rect width="1440" height="250" fill="#ffffff"></rect></mask><linearGradient x1="0%" y1="100%" x2="100%" y2="0%" id="SvgjsLinearGradient1022"><stop stop-color="rgba(15, 70, 185, 0.2)" offset="0"></stop><stop stop-opacity="0" stop-color="rgba(15, 70, 185, 0.2)" offset="0.66"></stop></linearGradient><linearGradient x1="100%" y1="100%" x2="0%" y2="0%" id="SvgjsLinearGradient1023"><stop stop-color="rgba(15, 70, 185, 0.2)" offset="0"></stop><stop stop-opacity="0" stop-color="rgba(15, 70, 185, 0.2)" offset="0.66"></stop></linearGradient></defs></svg>