<svg xmlns="http://www.w3.org/2000/svg" version="1.1" xmlns:xlink="http://www.w3.org/1999/xlink" xmlns:svgjs="http://svgjs.dev/svgjs" width="1440" height="250" preserveAspectRatio="none" viewBox="0 0 1440 250"><g mask="url(&quot;#SvgjsMask1015&quot;)" fill="none"><path d="M10 250L260 0L534.5 0L284.5 250z" fill="url(&quot;#SvgjsLinearGradient1016&quot;)"></path><path d="M256.6 250L506.6 0L611.6 0L361.6 250z" fill="url(&quot;#SvgjsLinearGradient1016&quot;)"></path><path d="M488.20000000000005 250L738.2 0L1045.7 0L795.7 250z" fill="url(&quot;#SvgjsLinearGradient1016&quot;)"></path><path d="M746.8000000000001 250L996.8000000000001 0L1145.3000000000002 0L895.3000000000001 250z" fill="url(&quot;#SvgjsLinearGradient1016&quot;)"></path><path d="M1397 250L1147 0L1105 0L1355 250z" fill="url(&quot;#SvgjsLinearGradient1017&quot;)"></path><path d="M1184.4 250L934.4000000000001 0L869.9000000000001 0L1119.9 250z" fill="url(&quot;#SvgjsLinearGradient1017&quot;)"></path><path d="M951.8 250L701.8 0L569.8 0L819.8 250z" fill="url(&quot;#SvgjsLinearGradient1017&quot;)"></path><path d="M684.1999999999999 250L434.19999999999993 0L284.19999999999993 0L534.1999999999999 250z" fill="url(&quot;#SvgjsLinearGradient1017&quot;)"></path><path d="M1272.0905876103882 250L1440 82.0905876103881L1440 250z" fill="url(&quot;#SvgjsLinearGradient1016&quot;)"></path><path d="M0 250L167.9094123896119 250L 0 82.0905876103881z" fill="url(&quot;#SvgjsLinearGradient1017&quot;)"></path></g><defs><mask id="SvgjsMask1015"><rect width="1440" height="250" fill="#ffffff"></rect></mask><linearGradient x1="0%" y1="100%" x2="100%" y2="0%" id="SvgjsLinearGradient1016"><stop stop-color="rgba(15, 70, 185, 0.2)" offset="0"></stop><stop stop-opacity="0" stop-color="rgba(15, 70, 185, 0.2)" offset="0.66"></stop></linearGradient><linearGradient x1="100%" y1="100%" x2="0%" y2="0%" id="SvgjsLinearGradient1017"><stop stop-color="rgba(15, 70, 185, 0.2)" offset="0"></stop><stop stop-opacity="0" stop-color="rgba(15, 70, 185, 0.2)" offset="0.66"></stop></linearGradient></defs></svg>