<svg xmlns="http://www.w3.org/2000/svg" version="1.1" xmlns:xlink="http://www.w3.org/1999/xlink" xmlns:svgjs="http://svgjs.dev/svgjs" width="1440" height="250" preserveAspectRatio="none" viewBox="0 0 1440 250"><g mask="url(&quot;#SvgjsMask1027&quot;)" fill="none"><path d="M47 250L297 0L613.5 0L363.5 250z" fill="url(&quot;#SvgjsLinearGradient1028&quot;)"></path><path d="M277.6 250L527.6 0L599.6 0L349.6 250z" fill="url(&quot;#SvgjsLinearGradient1028&quot;)"></path><path d="M502.20000000000005 250L752.2 0L822.7 0L572.7 250z" fill="url(&quot;#SvgjsLinearGradient1028&quot;)"></path><path d="M750.8000000000001 250L1000.8000000000001 0L1119.3000000000002 0L869.3000000000001 250z" fill="url(&quot;#SvgjsLinearGradient1028&quot;)"></path><path d="M1397 250L1147 0L812.5 0L1062.5 250z" fill="url(&quot;#SvgjsLinearGradient1029&quot;)"></path><path d="M1187.4 250L937.4000000000001 0L784.4000000000001 0L1034.4 250z" fill="url(&quot;#SvgjsLinearGradient1029&quot;)"></path><path d="M926.8 250L676.8 0L592.8 0L842.8 250z" fill="url(&quot;#SvgjsLinearGradient1029&quot;)"></path><path d="M688.1999999999999 250L438.19999999999993 0L81.19999999999993 0L331.19999999999993 250z" fill="url(&quot;#SvgjsLinearGradient1029&quot;)"></path><path d="M1268.8482808724555 250L1440 78.8482808724554L1440 250z" fill="url(&quot;#SvgjsLinearGradient1028&quot;)"></path><path d="M0 250L171.1517191275446 250L 0 78.8482808724554z" fill="url(&quot;#SvgjsLinearGradient1029&quot;)"></path></g><defs><mask id="SvgjsMask1027"><rect width="1440" height="250" fill="#ffffff"></rect></mask><linearGradient x1="0%" y1="100%" x2="100%" y2="0%" id="SvgjsLinearGradient1028"><stop stop-color="rgba(15, 70, 185, 0.2)" offset="0"></stop><stop stop-opacity="0" stop-color="rgba(15, 70, 185, 0.2)" offset="0.66"></stop></linearGradient><linearGradient x1="100%" y1="100%" x2="0%" y2="0%" id="SvgjsLinearGradient1029"><stop stop-color="rgba(15, 70, 185, 0.2)" offset="0"></stop><stop stop-opacity="0" stop-color="rgba(15, 70, 185, 0.2)" offset="0.66"></stop></linearGradient></defs></svg>