<svg xmlns="http://www.w3.org/2000/svg" version="1.1" xmlns:xlink="http://www.w3.org/1999/xlink" xmlns:svgjs="http://svgjs.dev/svgjs" width="1440" height="250" preserveAspectRatio="none" viewBox="0 0 1440 250"><g mask="url(&quot;#SvgjsMask1018&quot;)" fill="none"><path d="M1 250L251 0L569 0L319 250z" fill="url(&quot;#SvgjsLinearGradient1019&quot;)"></path><path d="M242.60000000000002 250L492.6 0L615.6 0L365.6 250z" fill="url(&quot;#SvgjsLinearGradient1019&quot;)"></path><path d="M495.20000000000005 250L745.2 0L973.2 0L723.2 250z" fill="url(&quot;#SvgjsLinearGradient1019&quot;)"></path><path d="M756.8000000000001 250L1006.8000000000001 0L1206.3000000000002 0L956.3000000000001 250z" fill="url(&quot;#SvgjsLinearGradient1019&quot;)"></path><path d="M1429 250L1179 0L1075.5 0L1325.5 250z" fill="url(&quot;#SvgjsLinearGradient1020&quot;)"></path><path d="M1160.4 250L910.4000000000001 0L617.9000000000001 0L867.9000000000001 250z" fill="url(&quot;#SvgjsLinearGradient1020&quot;)"></path><path d="M936.8 250L686.8 0L553.3 0L803.3 250z" fill="url(&quot;#SvgjsLinearGradient1020&quot;)"></path><path d="M721.1999999999999 250L471.19999999999993 0L321.19999999999993 0L571.1999999999999 250z" fill="url(&quot;#SvgjsLinearGradient1020&quot;)"></path><path d="M1211.986848358385 250L1440 21.986848358385032L1440 250z" fill="url(&quot;#SvgjsLinearGradient1019&quot;)"></path><path d="M0 250L228.01315164161497 250L 0 21.986848358385032z" fill="url(&quot;#SvgjsLinearGradient1020&quot;)"></path></g><defs><mask id="SvgjsMask1018"><rect width="1440" height="250" fill="#ffffff"></rect></mask><linearGradient x1="0%" y1="100%" x2="100%" y2="0%" id="SvgjsLinearGradient1019"><stop stop-color="rgba(15, 70, 185, 0.2)" offset="0"></stop><stop stop-opacity="0" stop-color="rgba(15, 70, 185, 0.2)" offset="0.66"></stop></linearGradient><linearGradient x1="100%" y1="100%" x2="0%" y2="0%" id="SvgjsLinearGradient1020"><stop stop-color="rgba(15, 70, 185, 0.2)" offset="0"></stop><stop stop-opacity="0" stop-color="rgba(15, 70, 185, 0.2)" offset="0.66"></stop></linearGradient></defs></svg>