<svg xmlns="http://www.w3.org/2000/svg" version="1.1" xmlns:xlink="http://www.w3.org/1999/xlink" xmlns:svgjs="http://svgjs.dev/svgjs" width="1440" height="250" preserveAspectRatio="none" viewBox="0 0 1440 250"><g mask="url(&quot;#SvgjsMask1033&quot;)" fill="none"><path d="M15 250L265 0L371.5 0L121.5 250z" fill="url(&quot;#SvgjsLinearGradient1034&quot;)"></path><path d="M253.60000000000002 250L503.6 0L712.1 0L462.1 250z" fill="url(&quot;#SvgjsLinearGradient1034&quot;)"></path><path d="M486.20000000000005 250L736.2 0L1007.7 0L757.7 250z" fill="url(&quot;#SvgjsLinearGradient1034&quot;)"></path><path d="M751.8000000000001 250L1001.8000000000001 0L1219.3000000000002 0L969.3000000000001 250z" fill="url(&quot;#SvgjsLinearGradient1034&quot;)"></path><path d="M1432 250L1182 0L897 0L1147 250z" fill="url(&quot;#SvgjsLinearGradient1035&quot;)"></path><path d="M1161.4 250L911.4000000000001 0L803.4000000000001 0L1053.4 250z" fill="url(&quot;#SvgjsLinearGradient1035&quot;)"></path><path d="M919.8 250L669.8 0L545.3 0L795.3 250z" fill="url(&quot;#SvgjsLinearGradient1035&quot;)"></path><path d="M691.1999999999999 250L441.19999999999993 0L126.19999999999993 0L376.19999999999993 250z" fill="url(&quot;#SvgjsLinearGradient1035&quot;)"></path><path d="M1205.5354144281666 250L1440 15.535414428166575L1440 250z" fill="url(&quot;#SvgjsLinearGradient1034&quot;)"></path><path d="M0 250L234.46458557183342 250L 0 15.535414428166575z" fill="url(&quot;#SvgjsLinearGradient1035&quot;)"></path></g><defs><mask id="SvgjsMask1033"><rect width="1440" height="250" fill="#ffffff"></rect></mask><linearGradient x1="0%" y1="100%" x2="100%" y2="0%" id="SvgjsLinearGradient1034"><stop stop-color="rgba(15, 70, 185, 0.2)" offset="0"></stop><stop stop-opacity="0" stop-color="rgba(15, 70, 185, 0.2)" offset="0.66"></stop></linearGradient><linearGradient x1="100%" y1="100%" x2="0%" y2="0%" id="SvgjsLinearGradient1035"><stop stop-color="rgba(15, 70, 185, 0.2)" offset="0"></stop><stop stop-opacity="0" stop-color="rgba(15, 70, 185, 0.2)" offset="0.66"></stop></linearGradient></defs></svg>