<svg xmlns="http://www.w3.org/2000/svg" version="1.1" xmlns:xlink="http://www.w3.org/1999/xlink" xmlns:svgjs="http://svgjs.dev/svgjs" width="1440" height="250" preserveAspectRatio="none" viewBox="0 0 1440 250"><g mask="url(&quot;#SvgjsMask1009&quot;)" fill="none"><path d="M19 250L269 0L528.5 0L278.5 250z" fill="url(&quot;#SvgjsLinearGradient1010&quot;)"></path><path d="M284.6 250L534.6 0L783.6 0L533.6 250z" fill="url(&quot;#SvgjsLinearGradient1010&quot;)"></path><path d="M478.20000000000005 250L728.2 0L878.2 0L628.2 250z" fill="url(&quot;#SvgjsLinearGradient1010&quot;)"></path><path d="M718.8000000000001 250L968.8000000000001 0L1252.3000000000002 0L1002.3000000000001 250z" fill="url(&quot;#SvgjsLinearGradient1010&quot;)"></path><path d="M1395 250L1145 0L1019 0L1269 250z" fill="url(&quot;#SvgjsLinearGradient1011&quot;)"></path><path d="M1162.4 250L912.4000000000001 0L754.9000000000001 0L1004.9000000000001 250z" fill="url(&quot;#SvgjsLinearGradient1011&quot;)"></path><path d="M939.8 250L689.8 0L506.79999999999995 0L756.8 250z" fill="url(&quot;#SvgjsLinearGradient1011&quot;)"></path><path d="M697.1999999999999 250L447.19999999999993 0L138.19999999999993 0L388.19999999999993 250z" fill="url(&quot;#SvgjsLinearGradient1011&quot;)"></path><path d="M1312.3643051174663 250L1440 122.36430511746622L1440 250z" fill="url(&quot;#SvgjsLinearGradient1010&quot;)"></path><path d="M0 250L127.63569488253378 250L 0 122.36430511746622z" fill="url(&quot;#SvgjsLinearGradient1011&quot;)"></path></g><defs><mask id="SvgjsMask1009"><rect width="1440" height="250" fill="#ffffff"></rect></mask><linearGradient x1="0%" y1="100%" x2="100%" y2="0%" id="SvgjsLinearGradient1010"><stop stop-color="rgba(15, 70, 185, 0.2)" offset="0"></stop><stop stop-opacity="0" stop-color="rgba(15, 70, 185, 0.2)" offset="0.66"></stop></linearGradient><linearGradient x1="100%" y1="100%" x2="0%" y2="0%" id="SvgjsLinearGradient1011"><stop stop-color="rgba(15, 70, 185, 0.2)" offset="0"></stop><stop stop-opacity="0" stop-color="rgba(15, 70, 185, 0.2)" offset="0.66"></stop></linearGradient></defs></svg>