<svg xmlns="http://www.w3.org/2000/svg" xmlns:xlink="http://www.w3.org/1999/xlink" width="221" height="138" viewBox="0 0 221 138">
  <defs>
    <clipPath id="clip-Recurring_Payments_Web_Hero_Banner_MyDStv_Logo_220px">
      <rect width="221" height="138"/>
    </clipPath>
  </defs>
  <g id="Recurring_Payments_Web_Hero_Banner_MyDStv_Logo_220px" data-name="Recurring Payments Web Hero Banner MyDStv Logo 220px" clip-path="url(#clip-Recurring_Payments_Web_Hero_Banner_MyDStv_Logo_220px)">
    <g id="Group_42568" data-name="Group 42568" transform="translate(1)">
      <g id="DStv_Logo_-_Post_Rebrand" data-name="DStv Logo - Post Rebrand" transform="translate(0 0)">
        <path id="Blue_D" data-name="Blue D" d="M0,17C0,7,7,0,16,0H147c48,0,73,31,73,69s-25,69-73,69H5a4.724,4.724,0,0,1-5-5H0Z" transform="translate(0)" fill="#fff" fill-rule="evenodd"/>
        <g id="MyDStv-logo" transform="translate(25.006 51.057)">
          <path id="Path_66414" data-name="Path 66414" d="M22.556,28.8c0-2.954,3.19-16.542,8.714-27.234-1.89.679-12.642,16.689-14.769,21.031-.473.148-3.663-1.979-3.722-2.6C12.572,17.4,15.526,6.26,17.21,2.48c-.5.029-2.806,3.308-5.73,7.65C7.994,15.328,3.77,24.485,3.74,26.316c-1.359-.266-3.988-1.89-3.722-3.367C1.791,18.843,5.986,13.2,9.294,9.007c2.925-3.663,6.439-7.62,7.444-7.975,1.447-.266,3.81,1.418,4.253,2.54a132.045,132.045,0,0,0-3.9,12.938c3.1-4.46,10.693-14.976,14-16.482,1.477-.266,4.047,1.417,4.253,2.57C32.54,6.91,26.721,25.46,26.514,30.688a3.757,3.757,0,0,0,.089,1.093C26.189,31.988,22.615,29.418,22.556,28.8ZM43.264,24.81a85.138,85.138,0,0,0-2.57,8.537c-.118.709-.3,1.447-.384,2.451a.5.5,0,0,1-.3.088c-.856,0-2.983-2.008-2.983-2.481,0-1.211,1.241-5.228,2.747-9.423.65-1.831,1.241-3.574,2.954-8.064-2.895,4.46-7.03,10.4-7.414,10.427-2.127.059-4.933-1.861-4.874-3.456.088-1.27,3.485-10.043,6-13.322.62-.8,3.663,1.182,3.456,1.27a8.884,8.884,0,0,0-1.477,2.392c-1.27,2.658-3.869,8.3-4.047,10.456,0,.207.059.325.177.325.975,0,11.254-14.592,11.9-14.709a4.967,4.967,0,0,1,2.983,1.447C48.462,11.488,45.036,19.7,43.264,24.81Zm8.312,4.014c.008-.15.024-.3.024-.449q0-9.21,0-18.42c0-.15-.014-.3-.021-.449a1.071,1.071,0,0,1,1.184-.893c5.284,0,10.569-.057,15.851.039a31.157,31.157,0,0,1,11.254,2,11,11,0,0,1,5.638,4.388A8.065,8.065,0,0,1,83.6,25.5a14.182,14.182,0,0,1-1.51,1.084c-.178.111-.365.25-.287.491s.3.267.513.267c5.716-.007,11.432,0,17.148-.035a6.505,6.505,0,0,0,2.206-.409,1.673,1.673,0,0,0,.486-3.04,18.265,18.265,0,0,0-3.231-1.824c-2.493-1.185-5.048-2.244-7.438-3.635a9.008,9.008,0,0,1-2.657-2.242,3.5,3.5,0,0,1,.389-5.008,8.85,8.85,0,0,1,4.74-2.188,29,29,0,0,1,4.715-.35q12.3,0,24.6,0c1.166,0,1.469.3,1.468,1.462,0,1.072,0,2.144,0,3.215,0,.9.069.975.95.975,5.3,0,10.605.012,15.908-.013a1.9,1.9,0,0,1,1.729.913c2.7,3.865,5.439,7.71,8.165,11.559.486.686.574.691,1.089.02q4.495-5.862,8.977-11.734a1.648,1.648,0,0,1,1.479-.748c.619.028,1.241,0,1.861.007.184,0,.414-.054.515.139s-.1.342-.2.485q-2.113,2.785-4.234,5.565c-2.154,2.825-4.315,5.644-6.458,8.477a1.794,1.794,0,0,1-1.534.777q-16.218-.008-32.436-.013a5.522,5.522,0,0,1-3.91-1.324,3.969,3.969,0,0,1-1.3-3.069q.01-6.6.008-13.2c0-1.055-.067-1.124-1.112-1.123-3.892,0-7.785,0-11.677.012a8.465,8.465,0,0,0-3.2.529,2.467,2.467,0,0,0-.963.669,1.357,1.357,0,0,0,.068,2,8.611,8.611,0,0,0,2.356,1.525c2.536,1.226,5.094,2.408,7.619,3.657a10.412,10.412,0,0,1,3.684,2.826,3.481,3.481,0,0,1-.283,4.889A8.96,8.96,0,0,1,107,29.36a20.86,20.86,0,0,1-4.035.35L52.93,29.72C52.089,29.72,51.83,29.547,51.576,28.824ZM63.434,10.885c-.733,0-1.466,0-2.2,0a.628.628,0,0,0-.721.721q0,7.557,0,15.114a.627.627,0,0,0,.72.722,44.9,44.9,0,0,0,7.31-.321,13.5,13.5,0,0,0,6.076-2.375,6.888,6.888,0,0,0,1.446-9.751,9.9,9.9,0,0,0-5.055-3.219A24.481,24.481,0,0,0,63.434,10.885ZM134.341,27.47c2.52,0,5.04,0,7.56-.005.209,0,.493.123.613-.133.1-.217-.133-.373-.252-.529q-3.709-4.867-7.424-9.728a1.341,1.341,0,0,0-1.15-.579c-2.727.008-5.454,0-8.18,0-.628,0-.775.139-.776.751,0,2.746-.01,5.491,0,8.237a1.715,1.715,0,0,0,1.878,1.966c.262.016.526.013.789.013Z" transform="translate(0 0)" fill="#3b95da"/>
        </g>
      </g>
    </g>
  </g>
</svg>
