<svg xmlns="http://www.w3.org/2000/svg" version="1.1" xmlns:xlink="http://www.w3.org/1999/xlink" xmlns:svgjs="http://svgjs.dev/svgjs" width="1440" height="560" preserveAspectRatio="none" viewBox="0 0 1440 560"><g mask="url(&quot;#SvgjsMask1076&quot;)" fill="none"><path d="M 0,170 C 96,235.2 288,526.4 480,496 C 672,465.6 768,45 960,18 C 1152,-9 1344,292.4 1440,361L1440 560L0 560z" fill="#18e5f6"></path><path d="M 0,170 C 96,247.6 288,585.2 480,558 C 672,530.8 768,67.2 960,34 C 1152,0.8 1344,320.4 1440,392L1440 560L0 560z" fill="#c75193"></path><path d="M 0,445 C 96,403.2 288,235.6 480,236 C 672,236.4 768,442.8 960,447 C 1152,451.2 1344,295 1440,257L1440 560L0 560z" fill="#5edbce"></path><path d="M 0,459 C 96,406.4 288,227.8 480,196 C 672,164.2 768,338.8 960,300 C 1152,261.2 1344,61.6 1440,2L1440 560L0 560z" fill="#7c0d33"></path><path d="M 0,270 C 96,311.6 288,496 480,478 C 672,460 768,165.8 960,180 C 1152,194.2 1344,475.2 1440,549L1440 560L0 560z" fill="rgba(1, 187, 91, 1)"></path></g><defs><mask id="SvgjsMask1076"><rect width="1440" height="560" fill="#ffffff"></rect></mask></defs></svg>