<svg xmlns="http://www.w3.org/2000/svg" version="1.1" xmlns:xlink="http://www.w3.org/1999/xlink" xmlns:svgjs="http://svgjs.dev/svgjs" width="1440" height="560" preserveAspectRatio="none" viewBox="0 0 1440 560"><g mask="url(&quot;#SvgjsMask1004&quot;)" fill="none"><rect width="1440" height="560" x="0" y="0" fill="#0e2a47"></rect><path d="M 0,97 C 57.6,187.4 172.8,524.4 288,549 C 403.2,573.6 460.8,241.4 576,220 C 691.2,198.6 748.8,455.6 864,442 C 979.2,428.4 1036.8,132.2 1152,152 C 1267.2,171.8 1382.4,463.2 1440,541L1440 560L0 560z" fill="#184a7e"></path><path d="M 0,363 C 96,317.4 288,96.6 480,135 C 672,173.4 768,550.8 960,555 C 1152,559.2 1344,235.8 1440,156L1440 560L0 560z" fill="#2264ab"></path></g><defs><mask id="SvgjsMask1004"><rect width="1440" height="560" fill="#ffffff"></rect></mask></defs></svg>