<svg xmlns="http://www.w3.org/2000/svg" version="1.1" xmlns:xlink="http://www.w3.org/1999/xlink" xmlns:svgjs="http://svgjs.dev/svgjs" width="1440" height="560" preserveAspectRatio="none" viewBox="0 0 1440 560"><g mask="url(&quot;#SvgjsMask1086&quot;)" fill="none"><path d="M 0,228 C 96,266.4 288,442.6 480,420 C 672,397.4 768,140.6 960,115 C 1152,89.4 1344,256.6 1440,292L1440 560L0 560z" fill="#18e5f6"></path><path d="M 0,492 C 96,394.4 288,11.2 480,4 C 672,-3.2 768,435.2 960,456 C 1152,476.8 1344,177.6 1440,108L1440 560L0 560z" fill="#c75193"></path><path d="M 0,277 C 96,293 288,366.4 480,357 C 672,347.6 768,235.6 960,230 C 1152,224.4 1344,309.2 1440,329L1440 560L0 560z" fill="#5edbce"></path><path d="M 0,483 C 96,420 288,207.4 480,168 C 672,128.6 768,305.2 960,286 C 1152,266.8 1344,114.8 1440,72L1440 560L0 560z" fill="#7c0d33"></path><path d="M 0,54 C 96,141.6 288,458 480,492 C 672,526 768,245 960,224 C 1152,203 1344,354.4 1440,387L1440 560L0 560z" fill="rgba(1, 187, 91, 1)"></path></g><defs><mask id="SvgjsMask1086"><rect width="1440" height="560" fill="#ffffff"></rect></mask></defs></svg>