<svg xmlns="http://www.w3.org/2000/svg" version="1.1" xmlns:xlink="http://www.w3.org/1999/xlink" xmlns:svgjs="http://svgjs.dev/svgjs" width="1440" height="560" preserveAspectRatio="none" viewBox="0 0 1440 560"><g mask="url(&quot;#SvgjsMask1056&quot;)" fill="none"><path d="M 0,555 C 96,453.8 288,67.8 480,49 C 672,30.2 768,441.4 960,461 C 1152,480.6 1344,209.8 1440,147L1440 560L0 560z" fill="rgba(47, 111, 17, 1)"></path><path d="M 0,300 C 72,265.6 216,123 360,128 C 504,133 576,312.2 720,325 C 864,337.8 936,147.2 1080,192 C 1224,236.8 1368,477.6 1440,549L1440 560L0 560z" fill="#184a7e"></path><path d="M 0,167 C 72,240 216,555.2 360,532 C 504,508.8 576,77.6 720,51 C 864,24.4 936,374.2 1080,399 C 1224,423.8 1368,219.8 1440,175L1440 560L0 560z" fill="#2264ab"></path></g><defs><mask id="SvgjsMask1056"><rect width="1440" height="560" fill="#ffffff"></rect></mask></defs></svg>