<svg xmlns="http://www.w3.org/2000/svg" version="1.1" xmlns:xlink="http://www.w3.org/1999/xlink" xmlns:svgjs="http://svgjs.dev/svgjs" width="1440" height="560" preserveAspectRatio="none" viewBox="0 0 1440 560"><g mask="url(&quot;#SvgjsMask1009&quot;)" fill="none"><path d="M 0,143 C 57.6,174.8 172.8,305 288,302 C 403.2,299 460.8,113.2 576,128 C 691.2,142.8 748.8,373.2 864,376 C 979.2,378.8 1036.8,159.2 1152,142 C 1267.2,124.8 1382.4,260.4 1440,290L1440 560L0 560z" fill="#184a7e"></path><path d="M 0,509 C 96,456.8 288,256.8 480,248 C 672,239.2 768,459.2 960,465 C 1152,470.8 1344,314.6 1440,277L1440 560L0 560z" fill="#2264ab"></path></g><defs><mask id="SvgjsMask1009"><rect width="1440" height="560" fill="#ffffff"></rect></mask></defs></svg>