<svg xmlns="http://www.w3.org/2000/svg" version="1.1" xmlns:xlink="http://www.w3.org/1999/xlink" xmlns:svgjs="http://svgjs.dev/svgjs" width="1440" height="560" preserveAspectRatio="none" viewBox="0 0 1440 560"><g mask="url(&quot;#SvgjsMask1010&quot;)" fill="none"><path d="M 0,32 C 57.6,116.8 172.8,456.6 288,456 C 403.2,455.4 460.8,21.2 576,29 C 691.2,36.8 748.8,466 864,495 C 979.2,524 1036.8,216 1152,174 C 1267.2,132 1382.4,262.8 1440,285L1440 560L0 560z" fill="#184a7e"></path><path d="M 0,43 C 96,141.6 288,512.2 480,536 C 672,559.8 768,192.2 960,162 C 1152,131.8 1344,340.4 1440,385L1440 560L0 560z" fill="#2264ab"></path></g><defs><mask id="SvgjsMask1010"><rect width="1440" height="560" fill="#ffffff"></rect></mask></defs></svg>