<svg xmlns="http://www.w3.org/2000/svg" version="1.1" xmlns:xlink="http://www.w3.org/1999/xlink" xmlns:svgjs="http://svgjs.dev/svgjs" width="1440" height="560" preserveAspectRatio="none" viewBox="0 0 1440 560"><g mask="url(&quot;#SvgjsMask1006&quot;)" fill="none"><rect width="1440" height="560" x="0" y="0" fill="#0e2a47"></rect><path d="M 0,509 C 57.6,442.4 172.8,213.2 288,176 C 403.2,138.8 460.8,341.2 576,323 C 691.2,304.8 748.8,40.8 864,85 C 979.2,129.2 1036.8,508.6 1152,544 C 1267.2,579.4 1382.4,318.4 1440,262L1440 560L0 560z" fill="#184a7e"></path><path d="M 0,494 C 96,443 288,247.2 480,239 C 672,230.8 768,460.8 960,453 C 1152,445.2 1344,250.6 1440,200L1440 560L0 560z" fill="#2264ab"></path></g><defs><mask id="SvgjsMask1006"><rect width="1440" height="560" fill="#ffffff"></rect></mask></defs></svg>