<svg xmlns="http://www.w3.org/2000/svg" version="1.1" xmlns:xlink="http://www.w3.org/1999/xlink" xmlns:svgjs="http://svgjs.dev/svgjs" width="1440" height="560" preserveAspectRatio="none" viewBox="0 0 1440 560"><g mask="url(&quot;#SvgjsMask1087&quot;)" fill="none"><path d="M 0,131 C 96,211.2 288,528.8 480,532 C 672,535.2 768,141.6 960,147 C 1152,152.4 1344,476.6 1440,559L1440 560L0 560z" fill="#18e5f6"></path><path d="M 0,306 C 96,246.8 288,-36.6 480,10 C 672,56.6 768,525 960,539 C 1152,553 1344,171.8 1440,80L1440 560L0 560z" fill="#c75193"></path><path d="M 0,292 C 96,286.8 288,253.4 480,266 C 672,278.6 768,394.6 960,355 C 1152,315.4 1344,125.4 1440,68L1440 560L0 560z" fill="#5edbce"></path><path d="M 0,484 C 96,401.6 288,99 480,72 C 672,45 768,339.8 960,349 C 1152,358.2 1344,164.2 1440,118L1440 560L0 560z" fill="#7c0d33"></path><path d="M 0,516 C 96,439.2 288,160.2 480,132 C 672,103.8 768,401 960,375 C 1152,349 1344,76.6 1440,2L1440 560L0 560z" fill="rgba(1, 187, 91, 1)"></path></g><defs><mask id="SvgjsMask1087"><rect width="1440" height="560" fill="#ffffff"></rect></mask></defs></svg>