<svg xmlns="http://www.w3.org/2000/svg" version="1.1" xmlns:xlink="http://www.w3.org/1999/xlink" xmlns:svgjs="http://svgjs.dev/svgjs" width="1440" height="560" preserveAspectRatio="none" viewBox="0 0 1440 560"><g mask="url(&quot;#SvgjsMask1015&quot;)" fill="none"><path d="M 0,502 C 57.6,406 172.8,59.4 288,22 C 403.2,-15.4 460.8,268 576,315 C 691.2,362 748.8,218.4 864,257 C 979.2,295.6 1036.8,517.4 1152,508 C 1267.2,498.6 1382.4,269.6 1440,210L1440 560L0 560z" fill="#184a7e"></path><path d="M 0,138 C 96,184.4 288,392.4 480,370 C 672,347.6 768,26.2 960,26 C 1152,25.8 1344,300.4 1440,369L1440 560L0 560z" fill="#2264ab"></path></g><defs><mask id="SvgjsMask1015"><rect width="1440" height="560" fill="#ffffff"></rect></mask></defs></svg>