<svg xmlns="http://www.w3.org/2000/svg" version="1.1" xmlns:xlink="http://www.w3.org/1999/xlink" xmlns:svgjs="http://svgjs.dev/svgjs" width="1440" height="560" preserveAspectRatio="none" viewBox="0 0 1440 560"><g mask="url(&quot;#SvgjsMask1000&quot;)" fill="none"><rect width="1440" height="560" x="0" y="0" fill="#0e2a47"></rect><path d="M 0,94 C 57.6,160.4 172.8,417.2 288,426 C 403.2,434.8 460.8,152.4 576,138 C 691.2,123.6 748.8,338.4 864,354 C 979.2,369.6 1036.8,204.2 1152,216 C 1267.2,227.8 1382.4,373.6 1440,413L1440 560L0 560z" fill="#184a7e"></path><path d="M 0,330 C 96,312.8 288,224.4 480,244 C 672,263.6 768,472.6 960,428 C 1152,383.4 1344,102.4 1440,21L1440 560L0 560z" fill="#2264ab"></path></g><defs><mask id="SvgjsMask1000"><rect width="1440" height="560" fill="#ffffff"></rect></mask></defs></svg>