<svg xmlns="http://www.w3.org/2000/svg" version="1.1" xmlns:xlink="http://www.w3.org/1999/xlink" xmlns:svgjs="http://svgjs.dev/svgjs" width="1440" height="560" preserveAspectRatio="none" viewBox="0 0 1440 560"><g mask="url(&quot;#SvgjsMask1088&quot;)" fill="none"><path d="M 0,258 C 96,279.2 288,367.2 480,364 C 672,360.8 768,227.8 960,242 C 1152,256.2 1344,396.4 1440,435L1440 560L0 560z" fill="#18e5f6"></path><path d="M 0,413 C 96,363 288,156.6 480,163 C 672,169.4 768,463 960,445 C 1152,427 1344,147.4 1440,73L1440 560L0 560z" fill="#c75193"></path><path d="M 0,117 C 96,186.2 288,456 480,463 C 672,470 768,148.4 960,152 C 1152,155.6 1344,415.2 1440,481L1440 560L0 560z" fill="#5edbce"></path><path d="M 0,255 C 96,295.6 288,472.6 480,458 C 672,443.4 768,172.8 960,182 C 1152,191.2 1344,439.6 1440,504L1440 560L0 560z" fill="#7c0d33"></path><path d="M 0,45 C 96,135.8 288,477 480,499 C 672,521 768,197.6 960,155 C 1152,112.4 1344,259.8 1440,286L1440 560L0 560z" fill="rgba(1, 187, 91, 1)"></path></g><defs><mask id="SvgjsMask1088"><rect width="1440" height="560" fill="#ffffff"></rect></mask></defs></svg>