<svg xmlns="http://www.w3.org/2000/svg" version="1.1" xmlns:xlink="http://www.w3.org/1999/xlink" xmlns:svgjs="http://svgjs.dev/svgjs" width="1440" height="560" preserveAspectRatio="none" viewBox="0 0 1440 560"><g mask="url(&quot;#SvgjsMask1011&quot;)" fill="none"><path d="M 0,2 C 57.6,74.6 172.8,343.2 288,365 C 403.2,386.8 460.8,116.8 576,111 C 691.2,105.2 748.8,355.4 864,336 C 979.2,316.6 1036.8,11.6 1152,14 C 1267.2,16.4 1382.4,281.2 1440,348L1440 560L0 560z" fill="#184a7e"></path><path d="M 0,44 C 96,137.2 288,503 480,510 C 672,517 768,94.4 960,79 C 1152,63.6 1344,362.2 1440,433L1440 560L0 560z" fill="#2264ab"></path></g><defs><mask id="SvgjsMask1011"><rect width="1440" height="560" fill="#ffffff"></rect></mask></defs></svg>