<svg xmlns="http://www.w3.org/2000/svg" version="1.1" xmlns:xlink="http://www.w3.org/1999/xlink" xmlns:svgjs="http://svgjs.dev/svgjs" width="1440" height="560" preserveAspectRatio="none" viewBox="0 0 1440 560"><g mask="url(&quot;#SvgjsMask1085&quot;)" fill="none"><path d="M 0,323 C 96,304.8 288,195.8 480,232 C 672,268.2 768,524.8 960,504 C 1152,483.2 1344,203.2 1440,128L1440 560L0 560z" fill="#18e5f6"></path><path d="M 0,541 C 96,433.8 288,29.6 480,5 C 672,-19.6 768,391.8 960,418 C 1152,444.2 1344,192.4 1440,136L1440 560L0 560z" fill="#c75193"></path><path d="M 0,410 C 96,352 288,124.6 480,120 C 672,115.4 768,356.4 960,387 C 1152,417.6 1344,295.8 1440,273L1440 560L0 560z" fill="#5edbce"></path><path d="M 0,493 C 96,423.2 288,160.8 480,144 C 672,127.2 768,394 960,409 C 1152,424 1344,257 1440,219L1440 560L0 560z" fill="#7c0d33"></path><path d="M 0,509 C 96,414.2 288,69 480,35 C 672,1 768,323 960,339 C 1152,355 1344,159.8 1440,115L1440 560L0 560z" fill="rgba(1, 187, 91, 1)"></path></g><defs><mask id="SvgjsMask1085"><rect width="1440" height="560" fill="#ffffff"></rect></mask></defs></svg>