<svg xmlns="http://www.w3.org/2000/svg" version="1.1" xmlns:xlink="http://www.w3.org/1999/xlink" xmlns:svgjs="http://svgjs.dev/svgjs" width="1440" height="560" preserveAspectRatio="none" viewBox="0 0 1440 560"><g mask="url(&quot;#SvgjsMask1084&quot;)" fill="none"><path d="M 0,459 C 96,391 288,104 480,119 C 672,134 768,519.8 960,534 C 1152,548.2 1344,258.8 1440,190L1440 560L0 560z" fill="#18e5f6"></path><path d="M 0,24 C 96,98.4 288,351.2 480,396 C 672,440.8 768,227.4 960,248 C 1152,268.6 1344,448.8 1440,499L1440 560L0 560z" fill="#c75193"></path><path d="M 0,293 C 96,251.6 288,87.4 480,86 C 672,84.6 768,265.8 960,286 C 1152,306.2 1344,206.8 1440,187L1440 560L0 560z" fill="#5edbce"></path><path d="M 0,282 C 96,269 288,207.8 480,217 C 672,226.2 768,359.6 960,328 C 1152,296.4 1344,112.8 1440,59L1440 560L0 560z" fill="#7c0d33"></path><path d="M 0,551 C 96,453.2 288,106 480,62 C 672,18 768,287.6 960,331 C 1152,374.4 1344,289.4 1440,279L1440 560L0 560z" fill="rgba(1, 187, 91, 1)"></path></g><defs><mask id="SvgjsMask1084"><rect width="1440" height="560" fill="#ffffff"></rect></mask></defs></svg>