<svg xmlns="http://www.w3.org/2000/svg" version="1.1" xmlns:xlink="http://www.w3.org/1999/xlink" xmlns:svgjs="http://svgjs.dev/svgjs" width="1440" height="560" preserveAspectRatio="none" viewBox="0 0 1440 560"><g mask="url(&quot;#SvgjsMask1016&quot;)" fill="none"><path d="M 0,470 C 57.6,409.6 172.8,191 288,168 C 403.2,145 460.8,361.8 576,355 C 691.2,348.2 748.8,98.8 864,134 C 979.2,169.2 1036.8,505.8 1152,531 C 1267.2,556.2 1382.4,314.2 1440,260L1440 560L0 560z" fill="#184a7e"></path><path d="M 0,397 C 96,351.6 288,150.2 480,170 C 672,189.8 768,498.8 960,496 C 1152,493.2 1344,224 1440,156L1440 560L0 560z" fill="#2264ab"></path></g><defs><mask id="SvgjsMask1016"><rect width="1440" height="560" fill="#ffffff"></rect></mask></defs></svg>