<svg xmlns="http://www.w3.org/2000/svg" version="1.1" xmlns:xlink="http://www.w3.org/1999/xlink" xmlns:svgjs="http://svgjs.dev/svgjs" width="1440" height="560" preserveAspectRatio="none" viewBox="0 0 1440 560"><g mask="url(&quot;#SvgjsMask1078&quot;)" fill="none"><path d="M 0,109 C 96,161.4 288,361 480,371 C 672,381 768,159.8 960,159 C 1152,158.2 1344,325.4 1440,367L1440 560L0 560z" fill="#18e5f6"></path><path d="M 0,194 C 96,263.6 288,561 480,542 C 672,523 768,105.8 960,99 C 1152,92.2 1344,426.2 1440,508L1440 560L0 560z" fill="#c75193"></path><path d="M 0,279 C 96,281.8 288,308.2 480,293 C 672,277.8 768,203.2 960,203 C 1152,202.8 1344,274.2 1440,292L1440 560L0 560z" fill="#5edbce"></path><path d="M 0,33 C 96,126 288,459 480,498 C 672,537 768,259.4 960,228 C 1152,196.6 1344,318.4 1440,341L1440 560L0 560z" fill="#7c0d33"></path><path d="M 0,537 C 96,443.4 288,75.4 480,69 C 672,62.6 768,505.6 960,505 C 1152,504.4 1344,153.8 1440,66L1440 560L0 560z" fill="rgba(1, 187, 91, 1)"></path></g><defs><mask id="SvgjsMask1078"><rect width="1440" height="560" fill="#ffffff"></rect></mask></defs></svg>