<svg xmlns="http://www.w3.org/2000/svg" version="1.1" xmlns:xlink="http://www.w3.org/1999/xlink" xmlns:svgjs="http://svgjs.dev/svgjs" width="1440" height="560" preserveAspectRatio="none" viewBox="0 0 1440 560"><g mask="url(&quot;#SvgjsMask1079&quot;)" fill="none"><path d="M 0,328 C 96,299.8 288,147 480,187 C 672,227 768,543.4 960,528 C 1152,512.6 1344,193.6 1440,110L1440 560L0 560z" fill="#18e5f6"></path><path d="M 0,471 C 96,400.6 288,123.6 480,119 C 672,114.4 768,427.2 960,448 C 1152,468.8 1344,268 1440,223L1440 560L0 560z" fill="#c75193"></path><path d="M 0,306 C 96,276 288,151.6 480,156 C 672,160.4 768,352.8 960,328 C 1152,303.2 1344,91.2 1440,32L1440 560L0 560z" fill="#5edbce"></path><path d="M 0,434 C 96,387.2 288,182.2 480,200 C 672,217.8 768,518 960,523 C 1152,528 1344,284.6 1440,225L1440 560L0 560z" fill="#7c0d33"></path><path d="M 0,28 C 96,113.6 288,449.2 480,456 C 672,462.8 768,82.2 960,62 C 1152,41.8 1344,296.4 1440,355L1440 560L0 560z" fill="rgba(1, 187, 91, 1)"></path></g><defs><mask id="SvgjsMask1079"><rect width="1440" height="560" fill="#ffffff"></rect></mask></defs></svg>