<svg xmlns="http://www.w3.org/2000/svg" version="1.1" xmlns:xlink="http://www.w3.org/1999/xlink" xmlns:svgjs="http://svgjs.dev/svgjs" width="1440" height="560" preserveAspectRatio="none" viewBox="0 0 1440 560"><g mask="url(&quot;#SvgjsMask1021&quot;)" fill="none"><path d="M 0,415 C 28.8,355.6 86.4,97.4 144,118 C 201.6,138.6 230.4,511.4 288,518 C 345.6,524.6 374.4,197.4 432,151 C 489.6,104.6 518.4,299 576,286 C 633.6,273 662.4,55.2 720,86 C 777.6,116.8 806.4,414.6 864,440 C 921.6,465.4 950.4,228.2 1008,213 C 1065.6,197.8 1094.4,375.4 1152,364 C 1209.6,352.6 1238.4,155.2 1296,156 C 1353.6,156.8 1411.2,325.6 1440,368L1440 560L0 560z" fill="#184a7e"></path><path d="M 0,252 C 96,289 288,461 480,437 C 672,413 768,151.2 960,132 C 1152,112.8 1344,299.2 1440,341L1440 560L0 560z" fill="#2264ab"></path></g><defs><mask id="SvgjsMask1021"><rect width="1440" height="560" fill="#ffffff"></rect></mask></defs></svg>