<svg xmlns="http://www.w3.org/2000/svg" version="1.1" xmlns:xlink="http://www.w3.org/1999/xlink" xmlns:svgjs="http://svgjs.dev/svgjs" width="1440" height="560" preserveAspectRatio="none" viewBox="0 0 1440 560"><g mask="url(&quot;#SvgjsMask1012&quot;)" fill="none"><path d="M 0,483 C 57.6,390.4 172.8,49.8 288,20 C 403.2,-9.8 460.8,287.4 576,334 C 691.2,380.6 748.8,229.2 864,253 C 979.2,276.8 1036.8,500.4 1152,453 C 1267.2,405.6 1382.4,103.4 1440,16L1440 560L0 560z" fill="#184a7e"></path><path d="M 0,551 C 96,495.2 288,287.6 480,272 C 672,256.4 768,494.6 960,473 C 1152,451.4 1344,225.8 1440,164L1440 560L0 560z" fill="#2264ab"></path></g><defs><mask id="SvgjsMask1012"><rect width="1440" height="560" fill="#ffffff"></rect></mask></defs></svg>