<svg xmlns="http://www.w3.org/2000/svg" version="1.1" xmlns:xlink="http://www.w3.org/1999/xlink" xmlns:svgjs="http://svgjs.dev/svgjs" width="1440" height="560" preserveAspectRatio="none" viewBox="0 0 1440 560"><g mask="url(&quot;#SvgjsMask1014&quot;)" fill="none"><path d="M 0,376 C 57.6,330.8 172.8,168.2 288,150 C 403.2,131.8 460.8,303.8 576,285 C 691.2,266.2 748.8,52 864,56 C 979.2,60 1036.8,288.4 1152,305 C 1267.2,321.6 1382.4,172.2 1440,139L1440 560L0 560z" fill="#184a7e"></path><path d="M 0,232 C 96,294.6 288,580.4 480,545 C 672,509.6 768,93.4 960,55 C 1152,16.6 1344,293.4 1440,353L1440 560L0 560z" fill="#2264ab"></path></g><defs><mask id="SvgjsMask1014"><rect width="1440" height="560" fill="#ffffff"></rect></mask></defs></svg>