<svg xmlns="http://www.w3.org/2000/svg" version="1.1" xmlns:xlink="http://www.w3.org/1999/xlink" xmlns:svgjs="http://svgjs.dev/svgjs" width="1440" height="560" preserveAspectRatio="none" viewBox="0 0 1440 560"><g mask="url(&quot;#SvgjsMask1007&quot;)" fill="none"><rect width="1440" height="560" x="0" y="0" fill="#0e2a47"></rect><path d="M 0,238 C 57.6,260.8 172.8,381.6 288,352 C 403.2,322.4 460.8,79.6 576,90 C 691.2,100.4 748.8,420 864,404 C 979.2,388 1036.8,-10.4 1152,10 C 1267.2,30.4 1382.4,406.8 1440,506L1440 560L0 560z" fill="#184a7e"></path><path d="M 0,92 C 96,177.6 288,519 480,520 C 672,521 768,95.4 960,97 C 1152,98.6 1344,441.8 1440,528L1440 560L0 560z" fill="#2264ab"></path></g><defs><mask id="SvgjsMask1007"><rect width="1440" height="560" fill="#ffffff"></rect></mask></defs></svg>