<svg xmlns="http://www.w3.org/2000/svg" version="1.1" xmlns:xlink="http://www.w3.org/1999/xlink" xmlns:svgjs="http://svgjs.dev/svgjs" width="1440" height="560" preserveAspectRatio="none" viewBox="0 0 1440 560"><g mask="url(&quot;#SvgjsMask1082&quot;)" fill="none"><path d="M 0,450 C 96,405.4 288,260.6 480,227 C 672,193.4 768,321.4 960,282 C 1152,242.6 1344,80.4 1440,30L1440 560L0 560z" fill="#18e5f6"></path><path d="M 0,135 C 96,200.2 288,474.6 480,461 C 672,447.4 768,95.8 960,67 C 1152,38.2 1344,267 1440,317L1440 560L0 560z" fill="#c75193"></path><path d="M 0,86 C 96,172 288,519 480,516 C 672,513 768,68 960,71 C 1152,74 1344,439 1440,531L1440 560L0 560z" fill="#5edbce"></path><path d="M 0,332 C 96,269.2 288,-6.2 480,18 C 672,42.2 768,438.8 960,453 C 1152,467.2 1344,161.8 1440,89L1440 560L0 560z" fill="#7c0d33"></path><path d="M 0,479 C 96,437 288,293 480,269 C 672,245 768,357.4 960,359 C 1152,360.6 1344,293.4 1440,277L1440 560L0 560z" fill="rgba(1, 187, 91, 1)"></path></g><defs><mask id="SvgjsMask1082"><rect width="1440" height="560" fill="#ffffff"></rect></mask></defs></svg>