<svg xmlns="http://www.w3.org/2000/svg" version="1.1" xmlns:xlink="http://www.w3.org/1999/xlink" xmlns:svgjs="http://svgjs.dev/svgjs" width="1440" height="560" preserveAspectRatio="none" viewBox="0 0 1440 560"><g mask="url(&quot;#SvgjsMask1077&quot;)" fill="none"><path d="M 0,316 C 96,302.4 288,205.6 480,248 C 672,290.4 768,558.8 960,528 C 1152,497.2 1344,180.8 1440,94L1440 560L0 560z" fill="#18e5f6"></path><path d="M 0,342 C 96,297.4 288,127.2 480,119 C 672,110.8 768,312.4 960,301 C 1152,289.6 1344,109.8 1440,62L1440 560L0 560z" fill="#c75193"></path><path d="M 0,18 C 96,80.6 288,303 480,331 C 672,359 768,127.4 960,158 C 1152,188.6 1344,418.8 1440,484L1440 560L0 560z" fill="#5edbce"></path><path d="M 0,224 C 96,258.8 288,425.2 480,398 C 672,370.8 768,72.2 960,88 C 1152,103.8 1344,399.2 1440,477L1440 560L0 560z" fill="#7c0d33"></path><path d="M 0,274 C 96,322.4 288,567.6 480,516 C 672,464.4 768,43 960,16 C 1152,-11 1344,308 1440,381L1440 560L0 560z" fill="rgba(1, 187, 91, 1)"></path></g><defs><mask id="SvgjsMask1077"><rect width="1440" height="560" fill="#ffffff"></rect></mask></defs></svg>