<svg xmlns="http://www.w3.org/2000/svg" version="1.1" xmlns:xlink="http://www.w3.org/1999/xlink" xmlns:svgjs="http://svgjs.dev/svgjs" width="1440" height="560" preserveAspectRatio="none" viewBox="0 0 1440 560"><g mask="url(&quot;#SvgjsMask1013&quot;)" fill="none"><path d="M 0,248 C 57.6,261.2 172.8,351.8 288,314 C 403.2,276.2 460.8,24.4 576,59 C 691.2,93.6 748.8,482.8 864,487 C 979.2,491.2 1036.8,67 1152,80 C 1267.2,93 1382.4,457.6 1440,552L1440 560L0 560z" fill="#184a7e"></path><path d="M 0,103 C 96,159.6 288,385.6 480,386 C 672,386.4 768,86.4 960,105 C 1152,123.6 1344,404.2 1440,479L1440 560L0 560z" fill="#2264ab"></path></g><defs><mask id="SvgjsMask1013"><rect width="1440" height="560" fill="#ffffff"></rect></mask></defs></svg>