<svg xmlns="http://www.w3.org/2000/svg" version="1.1" xmlns:xlink="http://www.w3.org/1999/xlink" xmlns:svgjs="http://svgjs.dev/svgjs" width="1440" height="560" preserveAspectRatio="none" viewBox="0 0 1440 560"><g mask="url(&quot;#SvgjsMask1083&quot;)" fill="none"><path d="M 0,168 C 96,195.6 288,306.8 480,306 C 672,305.2 768,162 960,164 C 1152,166 1344,285.6 1440,316L1440 560L0 560z" fill="#18e5f6"></path><path d="M 0,406 C 96,339 288,78.4 480,71 C 672,63.6 768,379.8 960,369 C 1152,358.2 1344,87.4 1440,17L1440 560L0 560z" fill="#c75193"></path><path d="M 0,480 C 96,397.4 288,60.2 480,67 C 672,73.8 768,473.2 960,514 C 1152,554.8 1344,319.6 1440,271L1440 560L0 560z" fill="#5edbce"></path><path d="M 0,24 C 96,114.8 288,438.8 480,478 C 672,517.2 768,244.2 960,220 C 1152,195.8 1344,329.6 1440,357L1440 560L0 560z" fill="#7c0d33"></path><path d="M 0,525 C 96,458.6 288,239.4 480,193 C 672,146.6 768,318.4 960,293 C 1152,267.6 1344,111.4 1440,66L1440 560L0 560z" fill="rgba(1, 187, 91, 1)"></path></g><defs><mask id="SvgjsMask1083"><rect width="1440" height="560" fill="#ffffff"></rect></mask></defs></svg>