<svg xmlns="http://www.w3.org/2000/svg" version="1.1" xmlns:xlink="http://www.w3.org/1999/xlink" xmlns:svgjs="http://svgjs.dev/svgjs" width="1440" height="560" preserveAspectRatio="none" viewBox="0 0 1440 560"><g mask="url(&quot;#SvgjsMask1024&quot;)" fill="none"><path d="M 0,300 C 28.8,253.6 86.4,65.8 144,68 C 201.6,70.2 230.4,303.2 288,311 C 345.6,318.8 374.4,84.8 432,107 C 489.6,129.2 518.4,426.2 576,422 C 633.6,417.8 662.4,104.8 720,86 C 777.6,67.2 806.4,319.4 864,328 C 921.6,336.6 950.4,124.6 1008,129 C 1065.6,133.4 1094.4,368.2 1152,350 C 1209.6,331.8 1238.4,14.8 1296,38 C 1353.6,61.2 1411.2,380.4 1440,466L1440 560L0 560z" fill="#184a7e"></path><path d="M 0,156 C 32,195.2 96,339.4 160,352 C 224,364.6 256,223.6 320,219 C 384,214.4 416,362.2 480,329 C 544,295.8 576,39 640,53 C 704,67 736,355.8 800,399 C 864,442.2 896,238.4 960,269 C 1024,299.6 1056,555.4 1120,552 C 1184,548.6 1216,268.2 1280,252 C 1344,235.8 1408,427.2 1440,471L1440 560L0 560z" fill="#2264ab"></path></g><defs><mask id="SvgjsMask1024"><rect width="1440" height="560" fill="#ffffff"></rect></mask></defs></svg>