<svg xmlns="http://www.w3.org/2000/svg" version="1.1" xmlns:xlink="http://www.w3.org/1999/xlink" xmlns:svgjs="http://svgjs.dev/svgjs" width="1440" height="560" preserveAspectRatio="none" viewBox="0 0 1440 560"><g mask="url(&quot;#SvgjsMask1080&quot;)" fill="none"><path d="M 0,202 C 96,227.2 288,362.8 480,328 C 672,293.2 768,34.4 960,28 C 1152,21.6 1344,242.4 1440,296L1440 560L0 560z" fill="#18e5f6"></path><path d="M 0,11 C 96,106.6 288,470.4 480,489 C 672,507.6 768,132.8 960,104 C 1152,75.2 1344,296.8 1440,345L1440 560L0 560z" fill="#c75193"></path><path d="M 0,42 C 96,130.6 288,467.2 480,485 C 672,502.8 768,141 960,131 C 1152,121 1344,374.2 1440,435L1440 560L0 560z" fill="#5edbce"></path><path d="M 0,103 C 96,164.2 288,385 480,409 C 672,433 768,225.8 960,223 C 1152,220.2 1344,360.6 1440,395L1440 560L0 560z" fill="#7c0d33"></path><path d="M 0,341 C 96,272.8 288,-1 480,0 C 672,1 768,330.6 960,346 C 1152,361.4 1344,130.8 1440,77L1440 560L0 560z" fill="rgba(1, 187, 91, 1)"></path></g><defs><mask id="SvgjsMask1080"><rect width="1440" height="560" fill="#ffffff"></rect></mask></defs></svg>