<svg xmlns="http://www.w3.org/2000/svg" version="1.1" xmlns:xlink="http://www.w3.org/1999/xlink" xmlns:svgjs="http://svgjs.dev/svgjs" width="1440" height="560" preserveAspectRatio="none" viewBox="0 0 1440 560"><g mask="url(&quot;#SvgjsMask1005&quot;)" fill="none"><rect width="1440" height="560" x="0" y="0" fill="#0e2a47"></rect><path d="M 0,391 C 57.6,351 172.8,174.6 288,191 C 403.2,207.4 460.8,457.4 576,473 C 691.2,488.6 748.8,302.6 864,269 C 979.2,235.4 1036.8,339.4 1152,305 C 1267.2,270.6 1382.4,138.6 1440,97L1440 560L0 560z" fill="#184a7e"></path><path d="M 0,262 C 96,305.6 288,520 480,480 C 672,440 768,72 960,62 C 1152,52 1344,356.4 1440,430L1440 560L0 560z" fill="#2264ab"></path></g><defs><mask id="SvgjsMask1005"><rect width="1440" height="560" fill="#ffffff"></rect></mask></defs></svg>