<svg xmlns="http://www.w3.org/2000/svg" version="1.1" xmlns:xlink="http://www.w3.org/1999/xlink" xmlns:svgjs="http://svgjs.dev/svgjs" width="1440" height="560" preserveAspectRatio="none" viewBox="0 0 1440 560"><g mask="url(&quot;#SvgjsMask1004&quot;)" fill="none"><rect width="1440" height="560" x="0" y="0" fill="#0e2a47"></rect><path d="M 0,234 C 57.6,212 172.8,127.8 288,124 C 403.2,120.2 460.8,222.2 576,215 C 691.2,207.8 748.8,91.6 864,88 C 979.2,84.4 1036.8,197.6 1152,197 C 1267.2,196.4 1382.4,107.4 1440,85L1440 560L0 560z" fill="#184a7e"></path><path d="M 0,368 C 96,390.8 288,494 480,482 C 672,470 768,301.4 960,308 C 1152,314.6 1344,473.6 1440,515L1440 560L0 560z" fill="#2264ab"></path></g><defs><mask id="SvgjsMask1004"><rect width="1440" height="560" fill="#ffffff"></rect></mask></defs></svg>