<svg xmlns="http://www.w3.org/2000/svg" viewBox="0 0 1920 1080"><g transform="
          rotate(0 960 540) 
          translate(-0 -0)
          scale(1)
        "><rect width="1920" height="1080" fill="rgb(184, 171, 255)"></rect><g transform="translate(0, 0)"><path fill="rgb(164, 150, 241)" fill-opacity="1" d="M0,107.716L22.857,101.621C45.714,95.526,91.429,83.335,137.143,70.873C182.857,58.41,228.571,45.675,274.286,52.368C320,59.061,365.714,85.182,411.429,91.336C457.143,97.49,502.857,83.677,548.571,82.43C594.286,81.182,640,92.499,685.714,91.255C731.429,90.012,777.143,76.208,822.857,69.771C868.571,63.334,914.286,64.263,960,58.238C1005.714,52.213,1051.429,39.232,1097.143,34.355C1142.857,29.477,1188.571,32.703,1234.286,29.523C1280,26.343,1325.714,16.757,1371.429,25.108C1417.143,33.459,1462.857,59.747,1508.571,65.891C1554.286,72.034,1600,58.034,1645.714,47.174C1691.429,36.315,1737.143,28.596,1782.857,21.943C1828.571,15.289,1874.286,9.701,1897.143,6.907L1920,4.113L1920,1080L1897.143,1080C1874.286,1080,1828.571,1080,1782.857,1080C1737.143,1080,1691.429,1080,1645.714,1080C1600,1080,1554.286,1080,1508.571,1080C1462.857,1080,1417.143,1080,1371.429,1080C1325.714,1080,1280,1080,1234.286,1080C1188.571,1080,1142.857,1080,1097.143,1080C1051.429,1080,1005.714,1080,960,1080C914.286,1080,868.571,1080,822.857,1080C777.143,1080,731.429,1080,685.714,1080C640,1080,594.286,1080,548.571,1080C502.857,1080,457.143,1080,411.429,1080C365.714,1080,320,1080,274.286,1080C228.571,1080,182.857,1080,137.143,1080C91.429,1080,45.714,1080,22.857,1080L0,1080Z"></path></g><g transform="translate(0, 135)"><path fill="rgb(145, 128, 227)" fill-opacity="1" d="M0,4.023L22.857,21.123C45.714,38.222,91.429,72.422,137.143,83.142C182.857,93.861,228.571,81.101,274.286,66.822C320,52.543,365.714,36.745,411.429,33.808C457.143,30.872,502.857,40.798,548.571,48.134C594.286,55.471,640,60.22,685.714,57.815C731.429,55.411,777.143,45.854,822.857,49.118C868.571,52.381,914.286,68.465,960,76.98C1005.714,85.495,1051.429,86.442,1097.143,78.219C1142.857,69.996,1188.571,52.603,1234.286,45.395C1280,38.187,1325.714,41.164,1371.429,44.035C1417.143,46.905,1462.857,49.67,1508.571,47.683C1554.286,45.697,1600,38.959,1645.714,39.688C1691.429,40.418,1737.143,48.615,1782.857,60.232C1828.571,71.85,1874.286,86.888,1897.143,94.407L1920,101.926L1920,945L1897.143,945C1874.286,945,1828.571,945,1782.857,945C1737.143,945,1691.429,945,1645.714,945C1600,945,1554.286,945,1508.571,945C1462.857,945,1417.143,945,1371.429,945C1325.714,945,1280,945,1234.286,945C1188.571,945,1142.857,945,1097.143,945C1051.429,945,1005.714,945,960,945C914.286,945,868.571,945,822.857,945C777.143,945,731.429,945,685.714,945C640,945,594.286,945,548.571,945C502.857,945,457.143,945,411.429,945C365.714,945,320,945,274.286,945C228.571,945,182.857,945,137.143,945C91.429,945,45.714,945,22.857,945L0,945Z"></path></g><g transform="translate(0, 270)"><path fill="rgb(125, 107, 213)" fill-opacity="1" d="M0,57.795L22.857,60.624C45.714,63.452,91.429,69.109,137.143,64.132C182.857,59.155,228.571,43.545,274.286,51.08C320,58.615,365.714,89.296,411.429,90.218C457.143,91.14,502.857,62.303,548.571,56.975C594.286,51.646,640,69.826,685.714,76.716C731.429,83.606,777.143,79.206,822.857,83.174C868.571,87.142,914.286,99.478,960,102.377C1005.714,105.276,1051.429,98.738,1097.143,83.964C1142.857,69.191,1188.571,46.182,1234.286,38.574C1280,30.967,1325.714,38.76,1371.429,50.407C1417.143,62.053,1462.857,77.553,1508.571,88.071C1554.286,98.589,1600,104.125,1645.714,92.801C1691.429,81.477,1737.143,53.294,1782.857,45.813C1828.571,38.332,1874.286,51.553,1897.143,58.163L1920,64.773L1920,810L1897.143,810C1874.286,810,1828.571,810,1782.857,810C1737.143,810,1691.429,810,1645.714,810C1600,810,1554.286,810,1508.571,810C1462.857,810,1417.143,810,1371.429,810C1325.714,810,1280,810,1234.286,810C1188.571,810,1142.857,810,1097.143,810C1051.429,810,1005.714,810,960,810C914.286,810,868.571,810,822.857,810C777.143,810,731.429,810,685.714,810C640,810,594.286,810,548.571,810C502.857,810,457.143,810,411.429,810C365.714,810,320,810,274.286,810C228.571,810,182.857,810,137.143,810C91.429,810,45.714,810,22.857,810L0,810Z"></path></g><g transform="translate(0, 405)"><path fill="rgb(105, 86, 199)" fill-opacity="1" d="M0,9.742L22.857,28.111C45.714,46.48,91.429,83.218,137.143,96.345C182.857,109.472,228.571,98.988,274.286,90.953C320,82.918,365.714,77.334,411.429,72.097C457.143,66.861,502.857,61.973,548.571,64.79C594.286,67.606,640,78.128,685.714,82.736C731.429,87.343,777.143,86.037,822.857,83.458C868.571,80.879,914.286,77.029,960,81.535C1005.714,86.041,1051.429,98.904,1097.143,98.697C1142.857,98.49,1188.571,85.214,1234.286,88.32C1280,91.427,1325.714,110.915,1371.429,101.94C1417.143,92.965,1462.857,55.525,1508.571,38.852C1554.286,22.179,1600,26.273,1645.714,26.298C1691.429,26.322,1737.143,22.279,1782.857,20.469C1828.571,18.659,1874.286,19.084,1897.143,19.296L1920,19.508L1920,675L1897.143,675C1874.286,675,1828.571,675,1782.857,675C1737.143,675,1691.429,675,1645.714,675C1600,675,1554.286,675,1508.571,675C1462.857,675,1417.143,675,1371.429,675C1325.714,675,1280,675,1234.286,675C1188.571,675,1142.857,675,1097.143,675C1051.429,675,1005.714,675,960,675C914.286,675,868.571,675,822.857,675C777.143,675,731.429,675,685.714,675C640,675,594.286,675,548.571,675C502.857,675,457.143,675,411.429,675C365.714,675,320,675,274.286,675C228.571,675,182.857,675,137.143,675C91.429,675,45.714,675,22.857,675L0,675Z"></path></g><g transform="translate(0, 540)"><path fill="rgb(85, 64, 185)" fill-opacity="1" d="M0,17.574L22.857,21.222C45.714,24.87,91.429,32.165,137.143,48.864C182.857,65.562,228.571,91.663,274.286,102.043C320,112.422,365.714,107.081,411.429,106.565C457.143,106.049,502.857,110.359,548.571,93.879C594.286,77.4,640,40.131,685.714,42.944C731.429,45.757,777.143,88.651,822.857,101.201C868.571,113.751,914.286,95.957,960,95.408C1005.714,94.859,1051.429,111.555,1097.143,120.861C1142.857,130.167,1188.571,132.083,1234.286,124.632C1280,117.181,1325.714,100.362,1371.429,82.527C1417.143,64.692,1462.857,45.841,1508.571,37.746C1554.286,29.652,1600,32.314,1645.714,34.614C1691.429,36.913,1737.143,38.85,1782.857,41.503C1828.571,44.156,1874.286,47.526,1897.143,49.21L1920,50.895L1920,540L1897.143,540C1874.286,540,1828.571,540,1782.857,540C1737.143,540,1691.429,540,1645.714,540C1600,540,1554.286,540,1508.571,540C1462.857,540,1417.143,540,1371.429,540C1325.714,540,1280,540,1234.286,540C1188.571,540,1142.857,540,1097.143,540C1051.429,540,1005.714,540,960,540C914.286,540,868.571,540,822.857,540C777.143,540,731.429,540,685.714,540C640,540,594.286,540,548.571,540C502.857,540,457.143,540,411.429,540C365.714,540,320,540,274.286,540C228.571,540,182.857,540,137.143,540C91.429,540,45.714,540,22.857,540L0,540Z"></path></g><g transform="translate(0, 675)"><path fill="rgb(66, 43, 171)" fill-opacity="1" d="M0,6.49L22.857,13.666C45.714,20.841,91.429,35.192,137.143,51.429C182.857,67.666,228.571,85.789,274.286,94.323C320,102.856,365.714,101.8,411.429,99.187C457.143,96.574,502.857,92.405,548.571,79.195C594.286,65.985,640,43.735,685.714,34.905C731.429,26.075,777.143,30.663,822.857,40.051C868.571,49.438,914.286,63.623,960,65.65C1005.714,67.676,1051.429,57.543,1097.143,54.805C1142.857,52.066,1188.571,56.722,1234.286,64.959C1280,73.196,1325.714,85.013,1371.429,93.537C1417.143,102.061,1462.857,107.291,1508.571,110.878C1554.286,114.465,1600,116.409,1645.714,111.732C1691.429,107.055,1737.143,95.757,1782.857,93.4C1828.571,91.042,1874.286,97.625,1897.143,100.916L1920,104.208L1920,405L1897.143,405C1874.286,405,1828.571,405,1782.857,405C1737.143,405,1691.429,405,1645.714,405C1600,405,1554.286,405,1508.571,405C1462.857,405,1417.143,405,1371.429,405C1325.714,405,1280,405,1234.286,405C1188.571,405,1142.857,405,1097.143,405C1051.429,405,1005.714,405,960,405C914.286,405,868.571,405,822.857,405C777.143,405,731.429,405,685.714,405C640,405,594.286,405,548.571,405C502.857,405,457.143,405,411.429,405C365.714,405,320,405,274.286,405C228.571,405,182.857,405,137.143,405C91.429,405,45.714,405,22.857,405L0,405Z"></path></g><g transform="translate(0, 810)"><path fill="rgb(46, 21, 157)" fill-opacity="1" d="M0,102.437L22.857,93.174C45.714,83.911,91.429,65.384,137.143,56.087C182.857,46.79,228.571,46.721,274.286,42.072C320,37.423,365.714,28.193,411.429,36.73C457.143,45.266,502.857,71.569,548.571,86.685C594.286,101.8,640,105.729,685.714,90.047C731.429,74.365,777.143,39.072,822.857,38.034C868.571,36.997,914.286,70.216,960,84.11C1005.714,98.004,1051.429,92.574,1097.143,92.899C1142.857,93.223,1188.571,99.303,1234.286,98.601C1280,97.899,1325.714,90.415,1371.429,75.135C1417.143,59.855,1462.857,36.778,1508.571,29.298C1554.286,21.817,1600,29.933,1645.714,31.722C1691.429,33.511,1737.143,28.974,1782.857,35.292C1828.571,41.609,1874.286,58.781,1897.143,67.368L1920,75.954L1920,270L1897.143,270C1874.286,270,1828.571,270,1782.857,270C1737.143,270,1691.429,270,1645.714,270C1600,270,1554.286,270,1508.571,270C1462.857,270,1417.143,270,1371.429,270C1325.714,270,1280,270,1234.286,270C1188.571,270,1142.857,270,1097.143,270C1051.429,270,1005.714,270,960,270C914.286,270,868.571,270,822.857,270C777.143,270,731.429,270,685.714,270C640,270,594.286,270,548.571,270C502.857,270,457.143,270,411.429,270C365.714,270,320,270,274.286,270C228.571,270,182.857,270,137.143,270C91.429,270,45.714,270,22.857,270L0,270Z"></path></g><g transform="translate(0, 945)"><path fill="rgb(26, 0, 143)" fill-opacity="1" d="M0,115.728L22.857,105.998C45.714,96.268,91.429,76.808,137.143,78.872C182.857,80.937,228.571,104.525,274.286,107.002C320,109.478,365.714,90.841,411.429,89.822C457.143,88.802,502.857,105.4,548.571,103.337C594.286,101.274,640,80.551,685.714,67.043C731.429,53.536,777.143,47.245,822.857,59.694C868.571,72.144,914.286,103.334,960,107.828C1005.714,112.323,1051.429,90.123,1097.143,71.173C1142.857,52.223,1188.571,36.524,1234.286,30.922C1280,25.321,1325.714,29.817,1371.429,44.936C1417.143,60.056,1462.857,85.8,1508.571,92.847C1554.286,99.894,1600,88.244,1645.714,87.194C1691.429,86.144,1737.143,95.693,1782.857,91.078C1828.571,86.463,1874.286,67.684,1897.143,58.294L1920,48.905L1920,135L1897.143,135C1874.286,135,1828.571,135,1782.857,135C1737.143,135,1691.429,135,1645.714,135C1600,135,1554.286,135,1508.571,135C1462.857,135,1417.143,135,1371.429,135C1325.714,135,1280,135,1234.286,135C1188.571,135,1142.857,135,1097.143,135C1051.429,135,1005.714,135,960,135C914.286,135,868.571,135,822.857,135C777.143,135,731.429,135,685.714,135C640,135,594.286,135,548.571,135C502.857,135,457.143,135,411.429,135C365.714,135,320,135,274.286,135C228.571,135,182.857,135,137.143,135C91.429,135,45.714,135,22.857,135L0,135Z"></path></g></g></svg>